/* XPM */
static char *kmag[] = {
/* columns rows colors chars-per-pixel */
"32 32 6 1",
"  c black",
". c red",
"X c gray60",
"o c #C6C6C6",
"O c gray80",
"+ c gray100",
/* pixels */
"oooooooooooooooooooooooooooooooo",
"oooooooooooooooooooooooooooooooo",
"oooooooooooooooooooooooooooooooo",
"oooooooooooooooooooooooooooooooo",
"oooooooooooooooooooooooooooooooo",
"oooooooooooooooooooooooooooooooo",
"oooooooooooooooooooooooooooooooo",
"oooooooooooooooooooooooooooooooo",
"ooooooooooooooo    ooooooooooooo",
"oooooooooooooX O+++ Xooooooooooo",
"ooooooooooooo ++XX++ Xoooooooooo",
"oooooooooooo O+X++++O oooooooooo",
"oooooooooooo +X++++++ Xooooooooo",
"oooooooooooo ++++++++ Xooooooooo",
"oooooooooooo O++++++O Xooooooooo",
"ooooooooooooo ++++++ XXooooooooo",
"oooooooooooo   O++O XXoooooooooo",
"ooooooooooo   X    XXooooooooooo",
"oooooooooo   XXoXXXXoooooooooooo",
"ooooooooo   XXoooooooooo....oooo",
"oooooooo   XXoooooooooo..oo..ooo",
"ooooooo   XXoooooooooo..ooo..ooo",
"oooooooX XXooooooooooooooooo.ooo",
"ooooooooXXooooooooooooooooo..ooo",
"oooooooooooooooooooooooooo..oooo",
"ooooooooooooooooooooooooo..ooooo",
"oooooooooooooooooooooooo..oooooo",
"oooooooooooooooooooooo...ooooooo",
"oooooooooooooooooooooo.......ooo",
"oooooooooooooooooooooooooooooooo",
"oooooooooooooooooooooooooooooooo",
"oooooooooooooooooooooooooooooooo"
};
