/* XPM */
static char *kmag-16[] = {
/* columns rows colors chars-per-pixel */
"16 16 74 1",
"  c #1B1B1B",
". c #1D1D1D",
"X c #212121",
"o c #676767",
"O c #686868",
"+ c #6B6B6B",
"@ c #767676",
"# c #797979",
"$ c #7D7D7D",
"% c #ED3B3B",
"& c #DF6E6E",
"* c #DD7373",
"= c #DE7171",
"- c #DD7575",
"; c #DC7676",
": c #DC7979",
"> c #E65353",
", c #E35E5E",
"< c #E35F5F",
"1 c #E36060",
"2 c #E06A6A",
"3 c #828282",
"4 c #838383",
"5 c #888888",
"6 c #8A8A8A",
"7 c #8C8C8C",
"8 c #8D8D8D",
"9 c #8E8E8E",
"0 c #919191",
"q c #9B9A9A",
"w c #9B9B9B",
"e c #A6A6A6",
"r c #A7A7A7",
"t c #AAAAAA",
"y c #ABABAB",
"u c #ACACAC",
"i c #AEAEAE",
"p c #B5B5B5",
"a c #B7B7B7",
"s c #B8B8B8",
"d c #B9B9B9",
"f c #BABABA",
"g c #D98181",
"h c #D88484",
"j c #D29A9A",
"k c #D09F9F",
"l c #CBB2B2",
"z c #CBB3B3",
"x c #CBB4B4",
"c c #CCB2B2",
"v c #C9BABA",
"b c #C9BBBB",
"n c #C8BEBE",
"m c #C2C4C4",
"M c #C6C2C2",
"N c #C4C4C4",
"B c #C5C5C5",
"V c #C5C6C6",
"C c #C5C7C7",
"Z c #C6C5C5",
"A c #C6C6C6",
"S c #C7C7C7",
"D c #C4C9C9",
"F c #C5C8C8",
"G c #C5C9C9",
"H c #C8C8C8",
"J c #C9C9C9",
"K c #DFDFDF",
"L c #E0E0E0",
"P c #E2E2E2",
"I c #E4E4E4",
"U c #EEEEEE",
"Y c #FDFDFD",
"T c gray100",
/* pixels */
"BBBBBBBBBBBBBBBB",
"BBBBBBBBBBBBBBBB",
"BBBBBBBBBBBBBBBB",
"BBBBBBBfyfSBBBBB",
"BBBBBSp366yBBBBB",
"BBBBBf4SKP$pSBBB",
"BBBBSy9UYY9wSBBB",
"BBBBSf@PYP@rSBBB",
"BBBBS4X+9@qBCCCB",
"BBBC4 +rweml**zC",
"BBS0.+fBSSn,g1&C",
"BBBe#pCBBBBlC;=C",
"BBBSmBBBBBCCh>zC",
"BBBBBBBBBCb1%jbC",
"BBBBBBBBBBb&=:kC",
"BBBBBBBBBBCCCCCB"
};
