/* XPM */
static char *kmouth[] = {
/* columns rows colors chars-per-pixel */
"32 32 6 1",
"  c black",
". c red",
"X c #A0A0A0",
"o c gainsboro",
"O c gray100",
"+ c None",
/* pixels */
"++++++++++++++++++++++++++++++++",
"++++++++++++++++++++++++++++++++",
"++++++++++++++++++++++++++++++++",
"++++++++++++++++++++++++++++++++",
"++++++++++++++++++++++++++++++++",
"++++++++++++++++++++++++++++++++",
"+++     ++++++++++++++++     +++",
"++ .....   ++++++++++   ..... ++",
"+ .........   ++++   ......... +",
"+ .. .........    ......... .. +",
"+ . O  ..................  O . +",
"+ . OXO    ..........    OXO . +",
"+ .. XOXOOX          OXOXOX .. +",
"++ .  OXOOXOOXOOXOOXOOXOXO  . ++",
"++ ..   OOXOOXOOXOOXOOXO   .. ++",
"+++ . OX    OXOOXOOX    XO . +++",
"+++ .. XOOXO        OOXOX .. +++",
"++++ .. OOXOOXOOXOOXOOXO .. ++++",
"+++++ ..  XOOXOOXOOXOO  .. +++++",
"++++++ ...  OXOOXOOX  ... ++++++",
"+++++++ ....        .... +++++++",
"++++++++ .............. ++++++++",
"+++++++++  ..........  +++++++++",
"+++++++++++   ....   +++++++++++",
"++++++++++++++    ++++++++++++++",
"++++++++++++++++++++++++++++++++",
"++++++++++++++++++++++++++++++++",
"++++++++++++++++++++++++++++++++",
"++++++++++++++++++++++++++++++++",
"++++++++++++++++++++++++++++++++",
"++++++++++++++++++++++++++++++++",
"++++++++++++++++++++++++++++++++"
};
