/* XPM */
static char *kmouth-16[] = {
/* columns rows colors chars-per-pixel */
"16 16 6 1",
"  c black",
". c #585858",
"X c red",
"o c gainsboro",
"O c gray100",
"+ c None",
/* pixels */
"++++++++++++++++",
"++++++++++++++++",
"++++++++++++++++",
"+     ++++     +",
" XXXXX    XXXXX ",
" XOOXXXXXXXXOOX ",
" X..OOOOOOOO..X ",
"+ XO..OOOO..OX +",
"+ XXOO....OOXX +",
"++ XXXOOOOXXX ++",
"+++ XXXXXXXX +++",
"++++  XXXX  ++++",
"++++++    ++++++",
"++++++++++++++++",
"++++++++++++++++",
"++++++++++++++++"
};
