/* XPM */
static char *ksayit-16[] = {
/* columns rows colors chars-per-pixel */
"16 16 188 2",
"   c #000000",
".  c #000101",
"X  c #010000",
"o  c #020000",
"O  c #020202",
"+  c #030303",
"@  c #040000",
"#  c #050101",
"$  c #040202",
"%  c #050303",
"&  c #060202",
"*  c #070202",
"=  c #070303",
"-  c #040404",
";  c #050504",
":  c #050707",
">  c #060505",
",  c #070707",
"<  c #090202",
"1  c #0B0607",
"2  c #0A0909",
"3  c #0D0C0C",
"4  c #0E0D0D",
"5  c #0D1010",
"6  c #110A0A",
"7  c #120D0D",
"8  c #130E0F",
"9  c #150E0F",
"0  c #1B0202",
"q  c #190505",
"w  c #1B0606",
"e  c #1E0E0E",
"r  c #141313",
"t  c #1B1D1D",
"y  c #240000",
"u  c #240101",
"i  c #270304",
"p  c #240404",
"a  c #240505",
"s  c #250606",
"d  c #260606",
"f  c #250808",
"g  c #270B0B",
"h  c #280202",
"j  c #2D0A0A",
"k  c #251415",
"l  c #261717",
"z  c #330000",
"x  c #320B0C",
"c  c #330D0D",
"v  c #330E0F",
"b  c #370B0B",
"n  c #3B0A0A",
"m  c #3E0D0D",
"M  c #311212",
"N  c #371213",
"B  c #321D1F",
"V  c #381314",
"C  c #3D1011",
"Z  c #3D1212",
"A  c #2B2C2C",
"S  c #440303",
"D  c #400A0A",
"F  c #400B0B",
"G  c #410A0A",
"H  c #460B0C",
"J  c #460C0D",
"K  c #460D0D",
"L  c #480000",
"P  c #480C0C",
"I  c #4E1011",
"U  c #4B1C1D",
"Y  c #590C0C",
"T  c #561A1A",
"R  c #581111",
"E  c #4E2020",
"W  c #493F3F",
"Q  c #512A2B",
"!  c #5F2323",
"~  c #610000",
"^  c #600708",
"/  c #680101",
"(  c #6C0404",
")  c #691011",
"_  c #6C1415",
"`  c #6A2C2C",
"'  c #7F3132",
"]  c #594747",
"[  c #594E4E",
"{  c #797373",
"}  c #860101",
"|  c #880202",
" . c #880203",
".. c #8B0001",
"X. c #8E0101",
"o. c #960303",
"O. c #9B0505",
"+. c #9D0101",
"@. c #921516",
"#. c #961A1A",
"$. c #8F1F20",
"%. c #9C3232",
"&. c #A00000",
"*. c #A30201",
"=. c #A40101",
"-. c #A40202",
";. c #A30808",
":. c #A30A0B",
">. c #AB0000",
",. c #AD0D0E",
"<. c #AF0D0F",
"1. c #A21213",
"2. c #A31D1D",
"3. c #A71C1D",
"4. c #AC1213",
"5. c #AF1213",
"6. c #A81A1C",
"7. c #A91B1C",
"8. c #AD1E1F",
"9. c #B00001",
"0. c #B10202",
"q. c #B70001",
"w. c #B00708",
"e. c #BF0304",
"r. c #BE0808",
"t. c #B21112",
"y. c #B61717",
"u. c #B7191A",
"i. c #B81010",
"p. c #B91414",
"a. c #B91616",
"s. c #8B5E5E",
"d. c #B45354",
"f. c #C60F0F",
"g. c #CB0303",
"h. c #CD0101",
"j. c #CD0303",
"k. c #CF0001",
"l. c #CE0506",
"z. c #C80708",
"x. c #CE0809",
"c. c #C50F10",
"v. c #C51111",
"b. c #C51313",
"n. c #C91414",
"m. c #CF1313",
"M. c #CD1414",
"N. c #C81718",
"B. c #CB1919",
"V. c #D70404",
"C. c #D20D0D",
"Z. c #D90303",
"A. c #DB0001",
"S. c #D80505",
"D. c #DB0506",
"F. c #D31314",
"G. c #D91515",
"H. c #DA1415",
"J. c #C72728",
"K. c #E20203",
"L. c #E10607",
"P. c #E30707",
"I. c #E70000",
"U. c #E80101",
"Y. c #E80202",
"T. c #EB0606",
"R. c #EC0101",
"E. c #ED0000",
"W. c #EC0505",
"Q. c #EC1A1A",
"!. c #F30000",
"~. c #F50001",
"^. c #F90000",
"/. c #FA0000",
"(. c #F80505",
"). c #FC0000",
"_. c #E22425",
"`. c #E43939",
"'. c #C44C4C",
"]. c #D15455",
"[. c #C07171",
"{. c #D46161",
"}. c #E94040",
"|. c #AB8181",
" X c #AB8888",
".X c #CAB0B0",
"XX c #E39090",
"oX c None",
/* pixels */
"oXoXoXoXoXoXoXoXoXoXoXoXw w   oX",
"oXoXoXoXoXoXw M  Xj d R 3.6.d oX",
"oXoXU ' ` ` @.i.b.b.a.1.:.,.h oX",
"oXd u.C.r.w.S.R.W._.].d.8.7.f oX",
"oXh z.~./.^./.(.}.XX.X[.J.%.oXoX",
"oXd t.D.W.Q.`.{.|.{ ] #.N.T oXoX",
"oXoXP 4.B.'.s.[ A 5 u +.F.G oXoX",
"oXoXoXY M.a.Z >     z 0.H.G oXoX",
"oXoXoXZ y.g.L # 0 S } k.H.F oXoX",
"oXoXoXoX$.V.~ y / } &.k.M.n oXoX",
"oXoXoXoX_ z.} ( O.=.>.k.n.b oXoX",
"oXoXoXoX2.S.e.<.c.S.A.U.b.E oXoX",
"oXoXoXm 5.K.U.P.L.U.~.R.;.Q oXoX",
"oXoXoXg ) o.q.0.X.} =.&.^ B oXoX",
"oXoXoX9 l x I K x b K K N W oXoX",
"oXoXoXoX> # = >   > < # > 4 oXoX"
};
