/* XPM */
static char * kimagemapeditor_xpm[] = {
"32 32 256 2",
"  	c None",
". 	c #000100",
"+ 	c #102835",
"@ 	c #092F3E",
"# 	c #1A313F",
"$ 	c #1E303A",
"% 	c #143441",
"& 	c #233136",
"* 	c #183547",
"= 	c #12394B",
"- 	c #163A51",
"; 	c #1B3A47",
"> 	c #183B53",
", 	c #173D4F",
"' 	c #273842",
") 	c #104056",
"! 	c #1E3D4A",
"~ 	c #2D3B40",
"{ 	c #1B4153",
"] 	c #124460",
"^ 	c #263E57",
"/ 	c #1B4455",
"( 	c #17455C",
"_ 	c #134B66",
": 	c #1D4960",
"< 	c #0C5070",
"[ 	c #184B6D",
"} 	c #3B433F",
"| 	c #1D4D5E",
"1 	c #344645",
"2 	c #33454F",
"3 	c #194E6A",
"4 	c #274961",
"5 	c #2A4C54",
"6 	c #274C5E",
"7 	c #234C69",
"8 	c #2D4C59",
"9 	c #28505C",
"0 	c #1F536F",
"a 	c #265168",
"b 	c #3E4D52",
"c 	c #374C6C",
"d 	c #395346",
"e 	c #474B4E",
"f 	c #1C597A",
"g 	c #295768",
"h 	c #305467",
"i 	c #315851",
"j 	c #265875",
"k 	c #355173",
"l 	c #435157",
"m 	c #315865",
"n 	c #315960",
"o 	c #375663",
"p 	c #2E5D5D",
"q 	c #2C5D68",
"r 	c #475651",
"s 	c #3C5A5D",
"t 	c #276278",
"u 	c #3A5A73",
"v 	c #4B5E30",
"w 	c #415B64",
"x 	c #39606D",
"y 	c #3A5D82",
"z 	c #3F625B",
"A 	c #495B66",
"B 	c #306778",
"C 	c #49615C",
"D 	c #416273",
"E 	c #585D5A",
"F 	c #555D64",
"G 	c #4B6557",
"H 	c #5F5D50",
"I 	c #3B6B76",
"J 	c #476B64",
"K 	c #516B55",
"L 	c #54676C",
"M 	c #4D6696",
"N 	c #5B6960",
"O 	c #4F6D7C",
"P 	c #51754C",
"Q 	c #4D7083",
"R 	c #567745",
"S 	c #56706D",
"T 	c #627050",
"U 	c #676F48",
"V 	c #577169",
"W 	c #5B735A",
"X 	c #596E7B",
"Y 	c #627546",
"Z 	c #607B37",
"` 	c #5F7176",
" .	c #6C6F61",
"..	c #687261",
"+.	c #5470A3",
"@.	c #5E7E40",
"#.	c #627574",
"$.	c #647B53",
"%.	c #5274AD",
"&.	c #6B7A51",
"*.	c #72784B",
"=.	c #5B8450",
"-.	c #6F7376",
";.	c #5B73AE",
">.	c #658539",
",.	c #667785",
"'.	c #6C7C5F",
").	c #688251",
"!.	c #6B8056",
"~.	c #767B60",
"{.	c #598870",
"].	c #5D8A5D",
"^.	c #798254",
"/.	c #768162",
"(.	c #6480A1",
"_.	c #837E59",
":.	c #7A8550",
"<.	c #6A8097",
"[.	c #838257",
"}.	c #6F9043",
"|.	c #7D7F7C",
"1.	c #72913E",
"2.	c #7E8178",
"3.	c #6D8885",
"4.	c #758D55",
"5.	c #6E81B4",
"6.	c #878272",
"7.	c #818A5C",
"8.	c #8D8365",
"9.	c #938068",
"0.	c #7E9147",
"a.	c #6E82C5",
"b.	c #878861",
"c.	c #8F8567",
"d.	c #8B837D",
"e.	c #83914E",
"f.	c #7D9938",
"g.	c #809B32",
"h.	c #8D8D61",
"i.	c #769D4B",
"j.	c #849457",
"k.	c #998765",
"l.	c #9C896E",
"m.	c #819096",
"n.	c #8A9E37",
"o.	c #859192",
"p.	c #7F929E",
"q.	c #829A6B",
"r.	c #8D9D46",
"s.	c #998D7F",
"t.	c #9A9072",
"u.	c #979563",
"v.	c #8990A5",
"w.	c #93928A",
"x.	c #88A93F",
"y.	c #8091DC",
"z.	c #8699AB",
"A.	c #888FDC",
"B.	c #959794",
"C.	c #889BA6",
"D.	c #9293B9",
"E.	c #9AAF26",
"F.	c #8D94E2",
"G.	c #9CAD37",
"H.	c #A2AC2F",
"I.	c #9597CF",
"J.	c #9FB320",
"K.	c #96A1AF",
"L.	c #9CB43C",
"M.	c #AEA661",
"N.	c #949AE9",
"O.	c #9599EF",
"P.	c #8CA8BE",
"Q.	c #9C9AEB",
"R.	c #9FA6AB",
"S.	c #ACBB1F",
"T.	c #9C9EE7",
"U.	c #9A9DF3",
"V.	c #9CA1E3",
"W.	c #AEC016",
"X.	c #A19FF0",
"Y.	c #9CA2F1",
"Z.	c #A9ABA8",
"`.	c #C2A680",
" +	c #AEC131",
".+	c #B1B377",
"++	c #ABBE56",
"@+	c #BEB360",
"#+	c #BBB94F",
"$+	c #ADAFAC",
"%+	c #9BB2D1",
"&+	c #A6A7F1",
"*+	c #ABABCE",
"=+	c #ABB0B8",
"-+	c #ADABDF",
";+	c #BBCB18",
">+	c #AFB4B6",
",+	c #C4BF47",
"'+	c #B6CD28",
")+	c #A6B3F4",
"!+	c #C7CF0F",
"~+	c #B7B9B6",
"{+	c #CFB493",
"]+	c #B4B3E4",
"^+	c #CCC545",
"/+	c #ADBFCF",
"(+	c #BCBEBB",
"_+	c #ADBFE2",
":+	c #B3BAF0",
"<+	c #D3D41E",
"[+	c #D6BDA1",
"}+	c #AFC7D9",
"|+	c #D0DC13",
"1+	c #D6C38C",
"2+	c #D3C87B",
"3+	c #C2C2CC",
"4+	c #DDCB5D",
"5+	c #D9D630",
"6+	c #DEC67C",
"7+	c #D7E101",
"8+	c #DBCF58",
"9+	c #C5C7C4",
"0+	c #D5D267",
"a+	c #DBDA3E",
"b+	c #B8CBF2",
"c+	c #E3CE76",
"d+	c #BFCFE2",
"e+	c #CCCCD6",
"f+	c #C0D0F0",
"g+	c #E1EC00",
"h+	c #E7E519",
"i+	c #E0E628",
"j+	c #E2CBB5",
"k+	c #E3E81B",
"l+	c #CFD0DA",
"m+	c #E8EB07",
"n+	c #EBDF47",
"o+	c #EAE336",
"p+	c #D1D3D0",
"q+	c #ECD96B",
"r+	c #F2E924",
"s+	c #F0F200",
"t+	c #C9DAF4",
"u+	c #F1E263",
"v+	c #F3EB34",
"w+	c #CEDDF1",
"x+	c #DBDAE1",
"y+	c #FAF50D",
"z+	c #F8F900",
"A+	c #E1E3E0",
"B+	c #FFFF01",
"C+	c #E3E3EE",
"D+	c #E8E5EA",
"E+	c #E8EAE7",
"F+	c #F1F3F0",
"G+	c #FDFFFC",
"                                                                ",
"                    X.U.]+]+]+]+]+Y.Q.U.                        ",
"                Q.V.p+x+p+l+l+3+z.<.O 5.F.A.                    ",
"            X.I.<.` o.R.C+C+E+x+K.g / { 4 M O.                  ",
"          N.D.6.|.2.o.x =+C+/+C.O h { > 6 9 ,.Q.                ",
"        N.D.N n N  .L 8 O p.h ( : g : | x V C X Q.              ",
"      Q.v.&.&.G /.h./.C ) , / { ) / n z C K W ~.2.Q.            ",
"      D.b.7.).$.j.j.W S | { ) { > ) g G $.*.[.u.W #.N.          ",
"    X..+5+i+i+y+g+S.|+m+S.Z m+g+;+s+f.B+s+s+0.H.g.e.V.          ",
"    =+5+a+++|+;+i.7+1.@.z+m+L.P J.z+g.i+2+n+<+).r.5+0+V.        ",
"  T.!+i+#+q.'+L.g U r i B+B+R 7 >.s+,+v+j+c+s+1+@+5+r+*+        ",
"  O.p =.|+ +'+x.n (+R.d m+;+7+W.|+B+q+y+o+y+n+q+n+M.{+-+        ",
"  ;.< f t ].i.].o 9+>+5 0.9 1.f.P n.8+v+c+8+[+6+`.s.w.o.U.      ",
"  +.f f f f t I A 9+~+s j < 0 7 3 t H.<+6.c.9.l.9.k.s.O U.      ",
"  +.3 < < f 0 j ..3+~+$.{.I j f _ < g p f K *.:.h.l.` a U.      ",
"  ;.< j 7 : 0 | ..9+>+v Z q.3.3 [ < < [ 7 p *.[.7.'.0 < U.      ",
"  ;.< 0 3 3 7 > e 9+~+|.E H } > ] [ 0 ] ] n _._.b.$.x m U.      ",
"  F.0 a : : = L -.3+>+3+B.(+e -.* a : ( ) o l.9.8.S V 5.U.      ",
"  F._ 3 : _ b A+Z.9+G+G+9+E+|.3+@ : : ] ] : s.9.N a p y.        ",
"  U.%.6 : ( e A+Z.9+G+G+G+G+A+9+# ( ) { , ) A r 9 ] y Q.        ",
"    F.7 ) ) l D+D+F+G+G+G+G+G+9++ ] ) , * - > ) , > a.          ",
"    A.M * ) 2 A+G+G+G+G+G+G+G+3++ * * ) = = = * = , N.          ",
"      U.k * ' R.G+G+G+G+G+G+G+>++ ) * , = ; = = > F.            ",
"        O.c # & 3+G+G+G+G+G+p+l % # ; % % # # # A.Q.            ",
"          O.k ! 2 F F ~ & & & % ; ; 8 8 h o u A.                ",
"            Q.(.P.d+d+Q g 6 6 6 O z./+}+}+}+T.Q.                ",
"              X.Y.:+b+_+%+%+%+_+f+f+w+f+)+X.                    ",
"                  O.&+&+t+t+t+w+t+:+X.U.                        ",
"                        U.U.U.U.U.X.                            ",
"                                                                ",
"                                                                ",
"                                                                "};
