/* XPM */
static char * konversation16x16_xpm[] = {
"16 16 188 2",
"  	c None",
". 	c #0068C6",
"+ 	c #1272CA",
"@ 	c #287FCE",
"# 	c #0F70C9",
"$ 	c #2A80CF",
"% 	c #90BCE6",
"& 	c #71ABDF",
"* 	c #4D96D7",
"= 	c #579BD9",
"- 	c #5FA0DB",
"; 	c #67A5DD",
"> 	c #6EA9DE",
", 	c #73ACE1",
"' 	c #7BB2E4",
") 	c #6AA7DD",
"! 	c #8DBBE4",
"~ 	c #93BFE6",
"{ 	c #1F7ACC",
"] 	c #87B7E3",
"^ 	c #9BC4E8",
"/ 	c #98C2E7",
"( 	c #95C0E7",
"_ 	c #92BFE6",
": 	c #B6D7F3",
"< 	c #D9ECFA",
"[ 	c #E8F5FC",
"} 	c #E9F5FC",
"| 	c #E0F1FB",
"1 	c #C2DFF7",
"2 	c #98C4EA",
"3 	c #8CB9E3",
"4 	c #237CCD",
"5 	c #67A5DC",
"6 	c #92BEE6",
"7 	c #8DBBE5",
"8 	c #88B8E4",
"9 	c #84B6E3",
"0 	c #AFD4F3",
"a 	c #E3F2FC",
"b 	c #ECF7FB",
"c 	c #EBF7FB",
"d 	c #EBF6FB",
"e 	c #CFE9FD",
"f 	c #80B4E3",
"g 	c #1474CA",
"h 	c #4892D6",
"i 	c #4691D5",
"j 	c #83B5E3",
"k 	c #7DB2E2",
"l 	c #78AFE1",
"m 	c #B6DAF7",
"n 	c #D0EBFD",
"o 	c #CDE9FE",
"p 	c #CDEAFE",
"q 	c #D8EEFD",
"r 	c #E0F1FC",
"s 	c #D6EDFD",
"t 	c #C5E6FF",
"u 	c #579EDD",
"v 	c #3688D2",
"w 	c #5198D8",
"x 	c #7FB3E2",
"y 	c #79AFE1",
"z 	c #75ADE0",
"A 	c #80B6E5",
"B 	c #BFE2FD",
"C 	c #C2E5FF",
"D 	c #C1E5FF",
"E 	c #C1E4FF",
"F 	c #C0E4FF",
"G 	c #9ECCF2",
"H 	c #3587D1",
"I 	c #4B95D7",
"J 	c #77AEE0",
"K 	c #6BA7DD",
"L 	c #65A4DC",
"M 	c #60A1DC",
"N 	c #74B0E4",
"O 	c #8AC0ED",
"P 	c #A3D2F6",
"Q 	c #AED8F9",
"R 	c #67A8E1",
"S 	c #4491D5",
"T 	c #4792D6",
"U 	c #94BCC1",
"V 	c #F4F4D3",
"W 	c #9DC0BD",
"X 	c #62A2D5",
"Y 	c #E1E8B8",
"Z 	c #C2D4A9",
"` 	c #4A94D5",
" .	c #90C6F1",
"..	c #418FD5",
"+.	c #3386D1",
"@.	c #217BCD",
"#.	c #4B94D7",
"$.	c #96BCB2",
"%.	c #FFFFFF",
"&.	c #97BCB0",
"*.	c #CEDAAC",
"=.	c #FEFEFA",
"-.	c #9EC0AB",
";.	c #438FD4",
">.	c #509BDA",
",.	c #3A8AD3",
"'.	c #2E83D0",
").	c #267FCE",
"!.	c #207ACD",
"~.	c #1F7ACD",
"{.	c #549AD9",
"].	c #88B2A6",
"^.	c #D0DC9E",
"/.	c #FEFEFC",
"(.	c #CAD89D",
"_.	c #2D83D0",
":.	c #2C82D0",
"<.	c #2C82CF",
"[.	c #2B82D0",
"}.	c #267ECE",
"|.	c #1E79CD",
"1.	c #1172C9",
"2.	c #5EA0DB",
"3.	c #8FB6A7",
"4.	c #FAF8D9",
"5.	c #F8F6C5",
"6.	c #5B9AB1",
"7.	c #3084D1",
"8.	c #2980CF",
"9.	c #237DCE",
"0.	c #1C79CC",
"a.	c #1675CB",
"b.	c #0F71C9",
"c.	c #6AA7DE",
"d.	c #93B9A7",
"e.	c #F9F6C8",
"f.	c #B0C682",
"g.	c #EFE977",
"h.	c #D1D65D",
"i.	c #418ED2",
"j.	c #398AD3",
"k.	c #257ECE",
"l.	c #1876CB",
"m.	c #3487D2",
"n.	c #1D79CC",
"o.	c #9EC5E9",
"p.	c #97BAA3",
"q.	c #F2EC88",
"r.	c #90B797",
"s.	c #A6C074",
"t.	c #EBE345",
"u.	c #97B672",
"v.	c #428FD5",
"w.	c #3C8CD3",
"x.	c #3587D2",
"y.	c #2F84D1",
"z.	c #2880CF",
"A.	c #227CCE",
"B.	c #7DB1E2",
"C.	c #99C2E8",
"D.	c #93BAAC",
"E.	c #D0D559",
"F.	c #80AFB1",
"G.	c #61A0D7",
"H.	c #C0CA48",
"I.	c #A1BC65",
"J.	c #4C95D7",
"K.	c #4591D5",
"L.	c #3F8DD4",
"M.	c #3889D3",
"N.	c #3185D1",
"O.	c #86B7E3",
"P.	c #1E79CC",
"Q.	c #88B8E3",
"R.	c #B1D0ED",
"S.	c #9CC4E9",
"T.	c #97C1E8",
"U.	c #93BFE7",
"V.	c #8EBCE6",
"W.	c #8ABAE5",
"X.	c #86B7E4",
"Y.	c #81B4E3",
"Z.	c #9AC3E8",
"`.	c #7EB2E1",
" +	c #1675CA",
".+	c #056AC7",
"++	c #1071C9",
"@+	c #046AC6",
"    . + @ @ @ @ @ @ @ @ # .     ",
"  $ % & * = - ; > , ' ) ! ~ {   ",
". ] ^ / ( ~ _ : < [ } | 1 2 3 . ",
"4 5 6 7 8 9 0 a b b b c d e f g ",
"h i 8 j k l m n o p q r s t u v ",
"h w x y z > A B C D E F F G H v ",
"h I J & K L - M N O P Q R S $ v ",
"h T U V W X Y Z ` T  ...H +.@.v ",
"h #.$.%.&.*.=.-.;.>.,.'.).!.~.v ",
"h {.].%.^./.(._.:.<.[.}.|.1.~.v ",
"h 2.3.%.4.5.6.v 7.8.9.0.a.b.).v ",
"h c.d.e.f.g.h.i.j.+.:.k.~.l.m.v ",
"n.o.p.q.r.s.t.u.v.w.x.y.z.A.B.b.",
". C.D.E.F.G.H.I.J.K.L.M.N.+.O.. ",
"  P.Q.R.S.T.U.V.W.X.Y.k Z.`. +  ",
"    . .+++++++++++++++++@+.     "};
