/* XPM */
static char * konversation32x32_xpm[] = {
"31 31 490 2",
"  	c None",
". 	c #0068C6",
"+ 	c #0C6FC8",
"@ 	c #569AD9",
"# 	c #60A0DB",
"$ 	c #599CD9",
"% 	c #1172C9",
"& 	c #84B6E3",
"* 	c #D2E4F5",
"= 	c #7BB1E1",
"- 	c #4B94D7",
"; 	c #4893D6",
"> 	c #4792D6",
", 	c #4E96D7",
"' 	c #569BD9",
") 	c #5C9EDA",
"! 	c #5B9DDA",
"~ 	c #599DDA",
"{ 	c #589CD9",
"] 	c #559AD9",
"^ 	c #5399D8",
"/ 	c #5197D8",
"( 	c #71ABDF",
"_ 	c #CCE1F2",
": 	c #97C1E7",
"< 	c #247DCE",
"[ 	c #B6D3EE",
"} 	c #1172CA",
"| 	c #4993D6",
"1 	c #5A9EDA",
"2 	c #63A3DC",
"3 	c #6EA9DE",
"4 	c #79AFE1",
"5 	c #83B5E3",
"6 	c #8DBBE5",
"7 	c #9FC6E9",
"8 	c #A5CAEB",
"9 	c #B2D3F0",
"0 	c #B9D8F2",
"a 	c #C0DDF5",
"b 	c #B7D7F3",
"c 	c #AFD2F0",
"d 	c #A1C8EB",
"e 	c #6FA9DE",
"f 	c #5097D7",
"g 	c #1574CA",
"h 	c #9CC4E9",
"i 	c #3A8AD2",
"j 	c #85B6E3",
"k 	c #5399D9",
"l 	c #2C82D0",
"m 	c #A4C9EA",
"n 	c #A2C8EA",
"o 	c #A0C6E9",
"p 	c #9DC5E9",
"q 	c #9BC4E8",
"r 	c #9AC3E8",
"s 	c #98C2E7",
"t 	c #A9CEEE",
"u 	c #C5E1F8",
"v 	c #DAEEFE",
"w 	c #E5F4FD",
"x 	c #EBF6FC",
"y 	c #EEF7FC",
"z 	c #ECF7FC",
"A 	c #E9F5FD",
"B 	c #DEF1FE",
"C 	c #D5ECFE",
"D 	c #C2DFF8",
"E 	c #A3CAED",
"F 	c #8CBAE5",
"G 	c #4D95D7",
"H 	c #2F84D1",
"I 	c #9DC4E9",
"J 	c #91BDE6",
"K 	c #1D79CC",
"L 	c #589CDA",
"M 	c #9BC3E8",
"N 	c #99C3E8",
"O 	c #96C1E7",
"P 	c #95C0E7",
"Q 	c #92BEE6",
"R 	c #90BDE6",
"S 	c #B0D3F1",
"T 	c #D4EDFF",
"U 	c #E0F2FD",
"V 	c #EEF8FC",
"W 	c #D1EBFF",
"X 	c #ADD2F1",
"Y 	c #6DA8DE",
"Z 	c #9CC4E8",
"` 	c #8FBDE5",
" .	c #227CCE",
"..	c #74ACE0",
"+.	c #96C0E7",
"@.	c #93BFE7",
"#.	c #8EBCE5",
"$.	c #89B9E4",
"%.	c #A5CDEE",
"&.	c #D1ECFF",
"*.	c #DEF1FD",
"=.	c #EDF7FC",
"-.	c #ECF7FB",
";.	c #E1F2FC",
">.	c #CDEAFF",
",.	c #A0CAEE",
"'.	c #056AC7",
").	c #99C2E8",
"!.	c #90BDE5",
"~.	c #277FCF",
"{.	c #86B7E4",
"].	c #83B6E3",
"^.	c #BCDDF7",
"/.	c #D5EDFE",
"(.	c #ECF6FB",
"_.	c #E9F5FC",
":.	c #E7F5FC",
"<.	c #E8F5FC",
"[.	c #EBF6FB",
"}.	c #EBF7FB",
"|.	c #CCE9FF",
"1.	c #BADDF9",
"2.	c #7EB2E2",
"3.	c #8FBDE6",
"4.	c #8DBCE5",
"5.	c #8ABAE5",
"6.	c #88B9E4",
"7.	c #85B7E3",
"8.	c #81B4E2",
"9.	c #7DB2E2",
"0.	c #C3E3FB",
"a.	c #CFEAFE",
"b.	c #CBE9FF",
"c.	c #CAE9FF",
"d.	c #CAE8FF",
"e.	c #CBE8FE",
"f.	c #D4EDFD",
"g.	c #DFF1FC",
"h.	c #E9F5FB",
"i.	c #EAF6FB",
"j.	c #E4F3FC",
"k.	c #CBE9FE",
"l.	c #C7E7FF",
"m.	c #C1E3FC",
"n.	c #046AC6",
"o.	c #3084D1",
"p.	c #81B5E2",
"q.	c #8BBAE5",
"r.	c #80B4E2",
"s.	c #7EB3E2",
"t.	c #A6CFF1",
"u.	c #C8E8FF",
"v.	c #C8E7FF",
"w.	c #C6E7FF",
"x.	c #C6E7FE",
"y.	c #CFEAFD",
"z.	c #C5E6FF",
"A.	c #C4E6FF",
"B.	c #A0CDF1",
"C.	c #0168C6",
"D.	c #3587D2",
"E.	c #87B8E4",
"F.	c #82B5E3",
"G.	c #7FB3E2",
"H.	c #7CB1E1",
"I.	c #79B0E1",
"J.	c #76ADE0",
"K.	c #73ACDF",
"L.	c #7BB2E2",
"M.	c #B6DCF9",
"N.	c #C3E6FF",
"O.	c #C3E5FF",
"P.	c #C2E5FF",
"Q.	c #C1E5FF",
"R.	c #B3DBF9",
"S.	c #67A5DE",
"T.	c #3A8AD3",
"U.	c #7CB2E1",
"V.	c #80B3E2",
"W.	c #7AB0E1",
"X.	c #77AFE0",
"Y.	c #75ADE0",
"Z.	c #72ABDF",
"`.	c #6FAADE",
" +	c #6CA7DD",
".+	c #6FA9DF",
"++	c #A5D1F4",
"@+	c #C0E4FE",
"#+	c #C1E4FF",
"$+	c #C0E4FF",
"%+	c #BFE4FF",
"&+	c #BEE4FF",
"*+	c #BEE3FF",
"=+	c #A2CFF4",
"-+	c #599DDB",
";+	c #3F8DD4",
">+	c #74ADDF",
",+	c #7DB1E2",
"'+	c #78AFE1",
")+	c #76AEE0",
"!+	c #70AADF",
"~+	c #6AA7DD",
"{+	c #67A5DC",
"]+	c #65A3DC",
"^+	c #60A1DB",
"/+	c #6CA8DF",
"(+	c #91C3EE",
"_+	c #A8D4F6",
":+	c #B3DCFB",
"<+	c #BDE3FF",
"[+	c #BCE3FF",
"}+	c #BBE2FF",
"|+	c #A6D3F6",
"1+	c #5DA0DC",
"2+	c #4892D6",
"3+	c #3889D2",
"4+	c #4490D5",
"5+	c #7CB1DB",
"6+	c #82B3CF",
"7+	c #88B6C4",
"8+	c #7BAED1",
"9+	c #6CA8DE",
"0+	c #6AA6DD",
"a+	c #66A4DC",
"b+	c #6CA7D2",
"c+	c #61A1DA",
"d+	c #5D9FDA",
"e+	c #5A9DD9",
"f+	c #569BD8",
"g+	c #4F97D7",
"h+	c #9DCEF4",
"i+	c #B8E0FE",
"j+	c #78B4E7",
"k+	c #428FD4",
"l+	c #418ED4",
"m+	c #408DD4",
"n+	c #287FCE",
"o+	c #6BA7DD",
"p+	c #D8E0A0",
"q+	c #FCFBEA",
"r+	c #FEFDF9",
"s+	c #B3CDB4",
"t+	c #69A6DD",
"u+	c #65A4DC",
"v+	c #6DA7CE",
"w+	c #F0F0B7",
"x+	c #F3F3BD",
"y+	c #D4DEA3",
"z+	c #8BB4A9",
"A+	c #5299D8",
"B+	c #4C95D6",
"C+	c #65A6E0",
"D+	c #B4DEFE",
"E+	c #6BABE4",
"F+	c #3E8DD3",
"G+	c #3B8BD2",
"H+	c #3989D2",
"I+	c #3788D2",
"J+	c #1C78CC",
"K+	c #4D96D7",
"L+	c #5FA0DB",
"M+	c #DAE1A6",
"N+	c #FFFFFF",
"O+	c #B2CCB1",
"P+	c #62A2DB",
"Q+	c #DBE2A7",
"R+	c #F9F8D7",
"S+	c #74AAB6",
"T+	c #4C95D7",
"U+	c #4792D5",
"V+	c #96CAF3",
"W+	c #62A5E0",
"X+	c #3D8CD3",
"Y+	c #3588D1",
"Z+	c #3286D1",
"`+	c #3084D0",
" @	c #2E83D0",
".@	c #549AD9",
"+@	c #73ABDF",
"@@	c #D9E1A1",
"#@	c #A4C3A2",
"$@	c #AAC59A",
"%@	c #FEFEF9",
"&@	c #FDFCF0",
"*@	c #9DBE9D",
"=@	c #4E97D7",
"-@	c #4791D6",
";@	c #5BA1DE",
">@	c #589FDD",
",@	c #3C8BD3",
"'@	c #398AD2",
")@	c #3587D1",
"!@	c #3286D0",
"~@	c #2B81CF",
"{@	c #267FCE",
"]@	c #096DC8",
"^@	c #92BEE5",
"/@	c #579CD9",
"(@	c #5499D8",
"_@	c #D0DA89",
":@	c #9FBF9A",
"<@	c #70A6AC",
"[@	c #FBFAE4",
"}@	c #FCFBEC",
"|@	c #BBCC76",
"1@	c #3285D1",
"2@	c #438FD5",
"3@	c #3C8CD3",
"4@	c #3989D3",
"5@	c #3185D0",
"6@	c #2D82D0",
"7@	c #2A81CF",
"8@	c #257ECE",
"9@	c #237DCD",
"0@	c #056BC7",
"a@	c #5B9EDA",
"b@	c #D2DA89",
"c@	c #ABC491",
"d@	c #F1F1C0",
"e@	c #FBFBE8",
"f@	c #F9F7D7",
"g@	c #DEE079",
"h@	c #3D8CC9",
"i@	c #3386D1",
"j@	c #2D82CF",
"k@	c #277FCE",
"l@	c #227CCD",
"m@	c #1A78CB",
"n@	c #076CC8",
"o@	c #046AC7",
"p@	c #5D9FDB",
"q@	c #D2DB89",
"r@	c #FDFDF3",
"s@	c #F3F0AA",
"t@	c #F9F7D1",
"u@	c #F8F6C1",
"v@	c #EDEA85",
"w@	c #5797B5",
"x@	c #3B8BD3",
"y@	c #3889D3",
"z@	c #3185D1",
"A@	c #2B81D0",
"B@	c #267ECE",
"C@	c #1071CA",
"D@	c #0C6FC9",
"E@	c #92BFE5",
"F@	c #65A4DD",
"G@	c #62A2DC",
"H@	c #5EA0DB",
"I@	c #D3D984",
"J@	c #FBF9DC",
"K@	c #F9F6CC",
"L@	c #F4F0A2",
"M@	c #F6F2AD",
"N@	c #F4F09E",
"O@	c #E3E05C",
"P@	c #4F94C5",
"Q@	c #408ED4",
"R@	c #3D8CD4",
"S@	c #398AD3",
"T@	c #3688D2",
"U@	c #2980CF",
"V@	c #1E7ACD",
"W@	c #1B78CC",
"X@	c #1876CB",
"Y@	c #1474CA",
"Z@	c #0E70C9",
"`@	c #6AA7DE",
" #	c #66A4DD",
".#	c #D0D777",
"+#	c #F8F4B7",
"@#	c #F6F1A8",
"##	c #B8CA7A",
"$#	c #EAE45E",
"%#	c #F1EB7F",
"&#	c #F0E971",
"*#	c #BAC852",
"=#	c #4591D5",
"-#	c #428FD5",
";#	c #3E8DD4",
">#	c #3789D2",
",#	c #3487D2",
"'#	c #2D83D0",
")#	c #237DCE",
"!#	c #207BCD",
"~#	c #1977CC",
"{#	c #1675CB",
"]#	c #1273CA",
"^#	c #6FAADF",
"/#	c #6BA7DE",
"(#	c #68A6DD",
"_#	c #CED66D",
":#	c #F3EF95",
"<#	c #F2EC88",
"[#	c #A2BF88",
"}#	c #92B47F",
"|#	c #ECE34B",
"1#	c #EDE659",
"2#	c #EBE242",
"3#	c #85AE86",
"4#	c #4691D6",
"5#	c #4390D5",
"6#	c #2880CF",
"7#	c #217CCD",
"8#	c #1776CB",
"9#	c #9BC4E9",
"0#	c #73ACE0",
"a#	c #6DA9DE",
"b#	c #CDD463",
"c#	c #F0EA77",
"d#	c #EEE86C",
"e#	c #9DBC83",
"f#	c #5C9EDB",
"g#	c #C1CA42",
"h#	c #EBE241",
"i#	c #EAE239",
"j#	c #E1D921",
"k#	c #609DBA",
"l#	c #418ED5",
"m#	c #1F7ACD",
"n#	c #1C79CC",
"o#	c #93BEE5",
"p#	c #CDD35B",
"q#	c #EDE55D",
"r#	c #ECE452",
"s#	c #9BBA82",
"t#	c #61A1DC",
"u#	c #6BA5C3",
"v#	c #E1D923",
"w#	c #E9DE27",
"x#	c #E8DD20",
"y#	c #C5CA31",
"z#	c #4F97D4",
"A#	c #95C0E6",
"B#	c #81B4E3",
"C#	c #CBD154",
"D#	c #EBE245",
"E#	c #EAE13B",
"F#	c #9BBB82",
"G#	c #8EB58C",
"H#	c #E7DB17",
"I#	c #E7DB13",
"J#	c #E6D908",
"K#	c #98B770",
"L#	c #77AEE0",
"M#	c #B1D1EE",
"N#	c #B0C573",
"O#	c #BECA59",
"P#	c #ADC371",
"Q#	c #81B0BB",
"R#	c #67A5DD",
"S#	c #B1C257",
"T#	c #AFC156",
"U#	c #81AE99",
"V#	c #5A9DD2",
"W#	c #4F97D8",
"X#	c #8FBCE5",
"Y#	c #1775CB",
"Z#	c #E4EFF8",
"`#	c #80B4E3",
" $	c #7CB1E2",
".$	c #72ACDF",
"+$	c #5198D8",
"@$	c #4A94D7",
"#$	c #CFE3F4",
"$$	c #D6E6F5",
"%$	c #E0EDF8",
"&$	c #C8DEF3",
"*$	c #C6DDF2",
"=$	c #C5DDF2",
"-$	c #C3DBF2",
";$	c #C2DBF1",
">$	c #C0DAF1",
",$	c #BFD9F1",
"'$	c #BED9F0",
")$	c #BCD7F0",
"!$	c #BAD6F0",
"~$	c #B9D6EF",
"{$	c #B7D4EF",
"]$	c #B6D4EF",
"^$	c #B4D3EE",
"/$	c #B3D2EE",
"($	c #B2D1EE",
"_$	c #B0D0ED",
":$	c #AFD0ED",
"<$	c #ADCEED",
"[$	c #ACCEEC",
"}$	c #AACDEC",
"|$	c #C9DFF3",
"1$	c #DCEAF7",
"    . . . . . . . . . . . . . . . . . . . . . . . . . . .     ",
"  . . + @ # # # # # # # # # # # # # # # # # # # # # $ % . .   ",
". . & * = - ; > > > > > > > , ' ) ! ~ { ' ] ^ / > > ( _ : . . ",
". < [ } | ^ 1 2 3 4 5 6 : 7 7 7 8 9 0 a a b c d 6 e f g h i . ",
". j k l 8 m n o p q r r s s t u v w x y z A B C D E F G H I . ",
". J K L 7 p M N O P Q J R S T U y V V V V V y x U W X Y . Z . ",
". `  ...r : +.@.J #.F $.%.&.*.=.=.=.=.=.=.-.-.-.-.;.>.,.'.).. ",
". !.~.4 P Q R 6 F $.{.].^./.(._.:.<.[.-.}.}.[.[.[.:.|.1.'.).. ",
". !.l 2.3.4.5.6.7.5 8.9.0.a.|.b.c.d.e.f.g.h.i.i.j.k.l.m.n.).. ",
". !.o.p.q.6.{.].r.s.= 4 t.u.v.l.l.l.l.w.w.x.k.y.z.A.A.B.C.).. ",
". !.D.5 E.5 F.G.H.I.J.K.L.M.z.A.A.A.N.O.O.P.P.P.Q.Q.R.S.C.).. ",
". !.T.U.5 V.9.W.X.Y.Z.`. +.+++@+#+#+$+$+$+%+%+&+*+=+-+| . ).. ",
". !.;+>+G.,+'+)+..!+Y ~+{+]+^+/+(+_+:+<+[+[+}+|+1+| 2+3+. ).. ",
". !.4+`.H.5+6+7+8+9+0+a+b+c+d+e+f+^ / g+h+i+j+k+l+m+m+n+. ).. ",
". J ; o+'+p+q+r+s+t+u+v+w+x+y+z+A+g+B+C+D+E+F+G+H+3+I+J+. ).. ",
". J K+L+Y.M+N+N+O+a+P+Q+N+N+R+S+, T+U+V+W+X+i Y+Z+`+ @% . ).. ",
". J A+.@+@@@N+N+#@T+$@%@N+&@*@=@- -@;@>@,@'@)@!@ @~@{@]@. ).. ",
". ^@/@k (@_@N+N+:@<@[@N+}@|@1@I+;+2@k+3@4@Y+5@6@7@8@9@0@. ).. ",
". ^@a@L ] b@N+N+c@d@e@f@g@h@i@o.l ~@5@D.D.Z+j@~@k@l@m@n@o@).. ",
". ^@^+p@~ q@N+r@s@t@u@v@w@x@y@D.z@ @A@~.B@{@n+~.l@J+C@D@]@r . ",
". E@F@G@H@I@J@K@L@M@N@O@P@Q@R@S@T@i@H l U@8@ .V@W@X@Y@} Z@r . ",
". E@`@ #2 .#+#@###$#%#&#*#=#-#;#x@>#,#z@'#7@~.)#!#K ~#{#]#M . ",
". E@^#/#(#_#:#<#[#}#|#1#2#3#4#5#Q@3@S@T@Z+H A@6#8@7#V@W@8#9#. ",
". E@0#!+a#b#c#d#e#f#g#h#i#j#k#; 4+l#;#T.>#,#o.'#7@{@)#m#n#9#. ",
". o#'+Y.( p#q#r#s#t#u#v#w#x#y#z#| 4#5#;+3@y@D.Z+ @A@6#< 7#Z . ",
". A#B#W.)+C#D#E#F#F@G@G#H#I#J#K#, - > 4+l#R@T.T@i@o.l U@6#m . ",
". L#M#s.= N#O#P#Q#`@R#2 S#T#U#V#k W#T+| =#-#;+x@y@D.z@ @t+X#. ",
". Y#Z#P `# $I.)+.$^#9+(#F@t#H@a@/@.@+$, @$> 5#Q@R@S@T@T+#$U@. ",
". . # $$%$&$*$=$-$;$>$,$'$)$!$~${$]$^$/$($_$:$<$[$}$|$1$!+. . ",
"  . . .  @3+3+3+3+3+3+3+3+3+3+3+3+3+3+3+3+3+3+3+3+3+5@C.. .   ",
"    . . . . . . . . . . . . . . . . . . . . . . . . . . .     "};
