/* XPM */
static char *kcoloredit[] = {
/* columns rows colors chars-per-pixel */
"32 32 257 2",
"   c #000000",
".  c #0A0300",
"X  c #0C0800",
"o  c #110505",
"O  c #150A02",
"+  c #1D0E05",
"@  c #1F0A0A",
"#  c #1C1104",
"$  c #220F04",
"%  c #251305",
"&  c #2D1C09",
"*  c #281407",
"=  c #311D0A",
"-  c #341D03",
";  c #3D2010",
":  c #452C0D",
">  c #482400",
",  c #482B15",
"<  c #4C300E",
"1  c #4F3112",
"2  c #502E0E",
"3  c #562C16",
"4  c #52340C",
"5  c #56380D",
"6  c #583615",
"7  c #633B1D",
"8  c #693A1C",
"9  c #64361C",
"0  c #703D1F",
"q  c #6C3C21",
"w  c #69440F",
"e  c #664213",
"r  c #734B13",
"t  c #74471B",
"y  c #6C4023",
"u  c #724224",
"i  c #794A26",
"p  c #346BFF",
"a  c #3B68F7",
"s  c #396EFF",
"d  c #3E71FF",
"f  c #4371F9",
"g  c #5778E7",
"h  c #577EF2",
"j  c #009B00",
"k  c #089F06",
"l  c #19970A",
"z  c #0AA40C",
"x  c #26A213",
"c  c #24AF38",
"v  c #2BB02F",
"b  c #3BB63C",
"n  c #4AA728",
"m  c #47A420",
"M  c #61B749",
"N  c #64BA54",
"B  c #7BB045",
"V  c #66C76F",
"C  c #6CC96E",
"Z  c #76CC79",
"A  c #5C81EB",
"S  c #5F87FB",
"D  c #7E8FCD",
"F  c #6A87D7",
"G  c #6486E1",
"H  c #648DFE",
"J  c #8B5C1A",
"K  c #915B1E",
"L  c #8B5C25",
"P  c #86542F",
"I  c #8C5F3B",
"U  c #966216",
"Y  c #8C6428",
"T  c #946728",
"R  c #956C2E",
"E  c #996922",
"W  c #926439",
"Q  c #976939",
"!  c #A9721C",
"~  c #AA6E22",
"^  c #A16926",
"/  c #B36A24",
"(  c #B77C26",
")  c #BC7E23",
"_  c #B07835",
"`  c #9D7244",
"'  c #A37A49",
"]  c #A47742",
"[  c red",
"{  c #F80801",
"}  c #FF0B15",
"|  c #F51D0A",
" . c #FF1C1D",
".. c #FD1E12",
"X. c #F2240B",
"o. c #EA591F",
"O. c #FF5213",
"+. c #EB4716",
"@. c #EC4C24",
"#. c #F8781C",
"$. c #EE6419",
"%. c #EC672B",
"&. c #FC732A",
"*. c #FD5656",
"=. c #FE6969",
"-. c #FF6972",
";. c #FC7563",
":. c #FC7A73",
">. c #FF7C80",
",. c #81A934",
"<. c #87B130",
"1. c #8EB331",
"2. c #BD812B",
"3. c #AEBC3F",
"4. c #8CBD40",
"5. c #85B454",
"6. c #9EB648",
"7. c #AD8C5F",
"8. c #B38041",
"9. c #B9965A",
"0. c #B39561",
"q. c #87CB7E",
"w. c #96C96F",
"e. c #A4C24F",
"r. c #ADD264",
"t. c #C18225",
"y. c #C8882C",
"u. c #C98F38",
"i. c #C38030",
"p. c #D28B24",
"a. c #D28F2A",
"s. c #DB9521",
"d. c #D49737",
"f. c #D8A13C",
"g. c #E78422",
"h. c #EE8932",
"j. c #E69E2C",
"k. c #E19621",
"l. c #FF8026",
"z. c #FF9027",
"x. c #F39530",
"c. c #EB9835",
"v. c #FFAC1C",
"b. c #E9A42B",
"n. c #E9A738",
"m. c #E8A537",
"M. c #FFAE21",
"N. c #F9AD2B",
"B. c #FAA937",
"V. c #FEB324",
"C. c #FEB42B",
"Z. c #FDBB2A",
"A. c #FFB732",
"S. c #FCB439",
"D. c #FDB832",
"F. c #FFBD3A",
"G. c #F5B036",
"H. c #C99848",
"J. c #C69D55",
"K. c #D19A43",
"L. c #CEBE4B",
"P. c #DDA442",
"I. c #DEA648",
"U. c #D7A956",
"Y. c #CCAD6C",
"T. c #D0B670",
"R. c #D7BC79",
"E. c #C5AB78",
"W. c #ED9D42",
"Q. c #FB847A",
"!. c #EBA743",
"~. c #EEBC44",
"^. c #E6B854",
"/. c #FCBC43",
"(. c #F0B955",
"). c #E5BB65",
"_. c #FDC02C",
"`. c #FFC23D",
"'. c #DAC04D",
"]. c #C5C260",
"[. c #D9C07C",
"{. c #D9D176",
"}. c #EFCC56",
"|. c #FEC245",
" X c #FFC54B",
".X c #FECA4B",
"XX c #FEC752",
"oX c #FEC758",
"OX c #FFCA53",
"+X c #FFCC5B",
"@X c #FDD25B",
"#X c #F0D059",
"$X c #E7C668",
"%X c #E3C87F",
"&X c #E5D276",
"*X c #FECE61",
"=X c #F8CC6C",
"-X c #F4C666",
";X c #FED164",
":X c #FFD46B",
">X c #FFD96D",
",X c #F1D764",
"<X c #FDD572",
"1X c #FFD973",
"2X c #FEDC7B",
"3X c #F5D67F",
"4X c #FFE07C",
"5X c #A9A094",
"6X c #B3B8BD",
"7X c #85A1FF",
"8X c #9AB3FE",
"9X c #96A6E4",
"0X c #A6B2DA",
"qX c #A3BCFF",
"wX c #A3DDA8",
"eX c #B7D6A3",
"rX c #A8E1AC",
"tX c #B8C2C7",
"yX c #BEC7D2",
"uX c #A7C0FF",
"iX c #B0C0EA",
"pX c #B5C6FF",
"aX c #FF8084",
"sX c #FEB2B0",
"dX c #C5CAB9",
"fX c #D6CDA1",
"gX c #DAD2A4",
"hX c #CBC7A6",
"jX c #DFE3BA",
"kX c #EBCF82",
"lX c #EADC9C",
"zX c #E9D894",
"xX c #F0DA83",
"cX c #FFE183",
"vX c #FEE58A",
"bX c #FEE98C",
"nX c #F6E385",
"mX c #FCE591",
"MX c #FEEA93",
"NX c #FEEE9B",
"BX c #F1E39C",
"VX c #FFF28F",
"CX c #FFF29C",
"ZX c #FFF498",
"AX c #ECE5A6",
"SX c #F9EFA7",
"DX c #F8EFA8",
"FX c #FEF2A3",
"GX c #FEF5AA",
"HX c #FFF8AD",
"JX c #FEFBB3",
"KX c #FEFEBC",
"LX c #F7F3B3",
"PX c #CFDCFF",
"IX c #D6E1FF",
"UX c #FFFFC2",
"YX c None",
/* pixels */
"YXYXYXYXYXYXYXYXYXYXYXYXYXYXYX8 8 8 q u y 8 6 , $ YXYXYXYXYXYXYX",
"YXYXYXYXYXYXYXYXYXYXYXYX  q u P ` 9.Y.R.[.T.0.Q u ;   YXYXYXYXYX",
"YXYXYXYXYXYXYXYXYXYXYX6 q W 9.].vXVXZXZXGXyXiX0X5X` 3 O YXYXYXYX",
"YXYXYXYXYXYXYXYXYX, 3 P U.2Xr.N &XMXMXBX9XpXIXPX8XdX0.q o YXYXYX",
"YXYXYXYXYXYXYXYX; u 8.;X#X6.wXeX$XnXbXgX7XuX8XuX8X0XKX7.3   YXYX",
"YXYXYXYXYXYXYXo y H.#X4.M C wXwXw.M {.VX6XS H H H dXUXLXI * YXYX",
"YXYXYXYXYXYXo u I.@X1.c C C C Z V 5.xXVXgXd d d a A jXUXE.3   YX",
"YXYXYXYXYX$ i P..XOX'.n v b b b B 3XbXlXA s d d f g dXUXAXi . YX",
"YXYXYXYX  q P..X.XXX+XL.k z z z 6.cXbXzXg p s G gXAXJXKXKXW + YX",
"YXYXYXYX3 ) &.F..X}.+X3.j j j j x &XbXbXzXD a F ZXHXKXUXKX` + YX",
"YXYXYX+ E B.:.W.S.B.oX<.l B 6.m l ].vXvXMXbXfXhXGXHXJXKXKX' $ YX",
"YXYXYX7 b.S.sXQ.;.*.%.}.^.;X<X:X$X3XcXvXMXMXZXFXGXHXJXKXKX] % YX",
"YXYX# / z.&.=.aXaX-.@.+X@X;X:X<X4X4XcXcXvXMXNXFXGXHXJXKXLXQ $ YX",
"YXYX6 g... . . . .} %.@X+X;X:X>X1X4XcXcXvXMXNXNXFXHXHXKXlXL . YX",
"YX  ^ V.#.{ { [ X.o.!.OX+X+X:X:X<X2X4XcXvXMXMXNXSXGXHXUXR.t   YX",
"YX& p.V._.$.[ [ | ~.OXXXoX;X;X:X<X2X4XcXvXbXMXNXSXFXHXJXJ.2   YX",
"YX1 b.V.V.#.{ +.X.h..XXX+X+X;X:X>X1X2XcXvXvXMXNXNXGXHXDX_ = YXYX",
"YXr N.M.Z.O.{ n.x.c..XXXXX+X+X:X>X1X2XcXcXvXMXNXNXSXHXkXL . YXYX",
"YXL C.M.V.#.o.D.`.|.|. XXX+X+X:X>X1X2X2XcXvXmXNXNXFXGXH.6   YXYX",
"YXT D.M.M.V.Z.A.F.F.|. XOX+X+X;X:X<X1X2XcXvXvXMXNXGXkX~ # YXYXYX",
"YXR F.v.M.M.A.A.F. X;X>XOXOX+X;X:X>X1X4X4XvXvXMXNXNXK.e   YXYXYX",
"YXR |.v.M.M.C.A.G.u.T H.:XOX+X;X;X:X<X2X4XcXvXMXCX).~ # YXYXYXYX",
"YXY +XM.M.M.C.A.( =   * P.OX+X*X<X4X1X4X4XcXbXMX$Xy.<   YXYXYXYX",
"YXe =XD.v.M.V.j.:   YX  2.XX+X;X-X-X<XvXvXvX2X^.) 6   YXYXYXYXYX",
"YX% U.:Xv.v.V.)   YXYXO d..XoXd.r : 6 Y H.K.) J =   YXYXYXYXYXYX",
"YX  E cX|.v.V.!   YXYXr G..Xm.5         . # X     YXYXYXYXYXYXYX",
"YXYX- I.MX|.v.s.& > ~ a. X/.J   YXYXYXYXYXYXYXYXYXYXYXYXYXYXYXYX",
"YXYX  w (.NX:XC.s.p.j.S.|.m.& YXYXYXYXYXYXYXYXYXYXYXYXYXYXYXYXYX",
"YXYXYX  r !.MXNX1X+X.X+X+X2.  YXYXYXYXYXYXYXYXYXYXYXYXYXYXYXYXYX",
"YXYXYXYX  4 2.(.2XMXmX=Xn.5   YXYXYXYXYXYXYXYXYXYXYXYXYXYXYXYXYX",
"YXYXYXYXYXYXX 5 U t.a.! 6   YXYXYXYXYXYXYXYXYXYXYXYXYXYXYXYXYXYX",
"YXYXYXYXYXYXYX    . X     YXYXYXYXYXYXYXYXYXYXYXYXYXYXYXYXYXYXYX"
};
