/* XPM */
static char *kdvi[] = {
/* columns rows colors chars-per-pixel */
"32 32 257 2",
"   c #000000",
".  c #0A0B0C",
"X  c #0A0A08",
"o  c #141400",
"O  c #1C1A01",
"+  c #131313",
"@  c #1B1B1B",
"#  c #13161A",
"$  c #2E2A07",
"%  c #3C2005",
"&  c #393806",
"*  c #2F2F2F",
"=  c #26292A",
"-  c #2E2E30",
";  c #3E3E3E",
":  c #313B3E",
">  c #333647",
",  c #432404",
"<  c #4C2B05",
"1  c #6B3A05",
"2  c #6D3E0A",
"3  c #595710",
"4  c #545413",
"5  c #4D4826",
"6  c #74430A",
"7  c #765A37",
"8  c #66660F",
"9  c #75751F",
"0  c #444444",
"q  c #454D50",
"w  c #525252",
"e  c #406A7A",
"r  c #7C784C",
"t  c gray39",
"y  c #646B71",
"u  c #717171",
"i  c #7A7381",
"p  c #787B94",
"a  c #5A95AB",
"s  c #778194",
"d  c #7F8BA4",
"f  c #63ACC6",
"g  c #69B1CB",
"h  c #7EB8CF",
"j  c #73B8D3",
"k  c #7FBED8",
"l  c #75BCD7",
"z  c #8B5D28",
"x  c #A86824",
"c  c #DD7D04",
"v  c #8E8418",
"b  c #97972C",
"n  c #B6823E",
"m  c #B5B320",
"M  c #B2B23A",
"N  c #BD9360",
"B  c #CF913D",
"V  c #C4BF3F",
"C  c #E4850B",
"Z  c #E9890D",
"A  c #EBA835",
"S  c #F0AA36",
"D  c #DEA944",
"F  c #DBA359",
"G  c #C6BF6F",
"H  c #D7AB65",
"J  c #E4AC42",
"K  c #EDB442",
"L  c #E1B577",
"P  c #D6D633",
"I  c #F8F821",
"U  c #F3F322",
"Y  c #F6CF7A",
"T  c #E4E45B",
"R  c #FAFA66",
"E  c #F6F67F",
"W  c #FEFE77",
"Q  c #FDFC7C",
"!  c #CECE4C",
"~  c #88808D",
"^  c #868688",
"/  c #82829A",
"(  c #8F9298",
")  c gray60",
"_  c #8A8BA1",
"`  c #8791A7",
"'  c #8E90AA",
"]  c #9797A9",
"[  c #9999AC",
"{  c #9191A4",
"}  c #9191B6",
"|  c #8FA4AC",
" . c #8AAABB",
".. c #9AAFB7",
"X. c #99A5B2",
"o. c #97AAAA",
"O. c #A09FAF",
"+. c #ACAB90",
"@. c #A1B184",
"#. c #A7AAA7",
"$. c #AAAAAA",
"%. c gray63",
"&. c #A1A0B2",
"*. c #A0A8B9",
"=. c #A9A9B8",
"-. c #AAA8B6",
";. c #AAB0BF",
":. c #A7B5B8",
">. c #BBB6B7",
",. c #BAB9BC",
"<. c #8C9EC2",
"1. c #83B4C8",
"2. c #81BED6",
"3. c #8DB1D6",
"4. c #9BB2C1",
"5. c #9ABCCA",
"6. c #92B8D3",
"7. c #8FB7E4",
"8. c #88BBEB",
"9. c #85BDF1",
"0. c #9EBDE1",
"q. c #A3B9C4",
"w. c #AAB4C4",
"e. c #AEBDC8",
"r. c #A2BFD2",
"t. c #BDBDC9",
"y. c #B5B9C6",
"u. c #B1BFD0",
"i. c #BABED0",
"p. c #85C2D9",
"a. c #8AC4DB",
"s. c #8EC8DD",
"d. c #93C6DC",
"f. c #83C2F5",
"g. c #8AC9F6",
"h. c #89C5F5",
"j. c #8CD0F7",
"k. c #94CAE2",
"l. c #9ACBE2",
"z. c #98CCE8",
"x. c #93CCF6",
"c. c #9ED0EC",
"v. c #92D1F7",
"b. c #95D3F8",
"n. c #9ADAF8",
"m. c #9AD8F7",
"M. c #A4C2CE",
"N. c #A5C5D6",
"B. c #AAC6E6",
"V. c #A1C8F0",
"C. c #A5D1E5",
"Z. c #A3D1EA",
"A. c #A9D4E5",
"S. c #ABD4EB",
"D. c #AADBEC",
"F. c #A3D4F3",
"G. c #A0DBF9",
"H. c #AED6F0",
"J. c #ABDEF9",
"K. c #A3DCF7",
"L. c #B8CCE2",
"P. c #B0D5EB",
"I. c #B3D9EB",
"U. c #BDD9E5",
"Y. c #B4DAF2",
"T. c #B7DEF9",
"R. c #BBDEF2",
"E. c #A6E0F7",
"W. c #A5E1FB",
"Q. c #ACE2F5",
"!. c #ABE2FA",
"~. c #ACE8FD",
"^. c #BBE1EC",
"/. c #B5E5F3",
"(. c #B1E5F9",
"). c #B3E8FA",
"_. c #BAE5F3",
"`. c #BDEBF4",
"'. c #BCEBFA",
"]. c #BAF0FB",
"[. c #C6C48C",
"{. c #D2C6BB",
"}. c #E1DD9C",
"|. c #F6DA8F",
" X c #F6DA90",
".X c #F9DE93",
"XX c #E8E782",
"oX c #EBEB87",
"OX c #E7E794",
"+X c #FDE897",
"@X c #F2F281",
"#X c #FDFD84",
"$X c #FEFE8B",
"%X c #F2F09E",
"&X c #E4E4B2",
"*X c #FEF7AC",
"=X c #FEF8AD",
"-X c #E8E7AB",
";X c #C4C4C4",
":X c #C2C1CA",
">X c #CBCACA",
",X c #C9C6CB",
"<X c #CECBD4",
"1X c #CACDDE",
"2X c #C5C6D2",
"3X c #D0CFD3",
"4X c #D0D0CF",
"5X c #D6D5C2",
"6X c #D4D3D2",
"7X c #D4D3DB",
"8X c #DAD9D9",
"9X c #CBD8E5",
"0X c #D4DCEA",
"qX c #CBE3EE",
"wX c #C5E2F3",
"eX c #C9EAF7",
"rX c #C5F1F4",
"tX c #C5F3FB",
"yX c #CCF1F1",
"uX c #C9F5FC",
"iX c #C9F8F7",
"pX c #CCFAFD",
"aX c #C6FBFE",
"sX c #D7E5EB",
"dX c #D8EDF6",
"fX c #DBF0EE",
"gX c #D4F2F2",
"hX c #D7F1FE",
"jX c #D3FBFB",
"kX c #DDF7F7",
"lX c #D9FCFB",
"zX c #E8DCCE",
"xX c #E3DEE1",
"cX c #ECECD7",
"vX c #E9E9C5",
"bX c #E3E3E4",
"nX c #E6E7EE",
"mX c #EEE7E7",
"MX c #E9E7EE",
"NX c #EBE9E6",
"BX c #EBEAEA",
"VX c #E1E8EC",
"CX c #E3EBF2",
"ZX c #ECEEF2",
"AX c #E3F2F4",
"SX c #E3FBFB",
"DX c #EBF1F2",
"FX c #EBFBFC",
"GX c #F0EEED",
"HX c #F0EEF1",
"JX c #F3F4F4",
"KX c #F2F5FA",
"LX c #F1FCFC",
"PX c #F8F7F5",
"IX c #FCFCFC",
"UX c #F9F9F7",
"YX c None",
/* pixels */
"YXYXYXYXYXYXYXYXYXYXYXYXYXYXYXYXYXYXYX$.:.e.U.q YXYXYXYXYXYXYXYX",
"YXYXYXYXYXYXYXYXYXYXYXYXYXYX} :.q.q.N.N.Z.H.wXs   YXYXYXYXYXYXYX",
"YXYXYXYXYXYXYXYXYX) o...4.5.a.d.k.z.z.Z.S.H.T.N.X YXYXYXYXYXYXYX",
"YXYXYXYX; X.|  . .1.h k p.k.k.k.z.P.I.Y.S.S.Y.T.= YXYXYXYXYXYXYX",
"YXYXYXYX: j g j l j k a.l.S.C.S.I.wXR.I.Z.S.Y.hXy YXYXYXYXYXYXYX",
"YXYXYXYX# f p.2.p.d.A.A.C.A.C.Z.C.P.R.eXdXKXIXIX,.  YXYXYXYXYXYX",
"YXYXYXYX  a d.k p.d.a.d.l.C.P.qXCXKXbXNX8X>XNXIXPX# YXYXYXYXYXYX",
"YXYXYXYXYXe l p.a.A.U.qXbX0X0X0X0X8X,.>X7X8XUXIXIXw YXYXYXYXYXYX",
"YXYXYXU m @.wXCXKXmXmX9Xc.h.g.x.b.F.L.7XIXIXIXIXIX)   YXYXYXYXYX",
"  I P R Q %XIXIX;X,XB.f.g.v.b.m.G.G.G.S.2XPXIXIXIXcXX YXYXYXYXYX",
"8 R #X$X$XoXJXIXxXB.f.v.n.W.J.!.J.T.(.~.P.2XIXIXIXIX- YXYXYXYXYX",
"O T $X#X$X@XcXUX1Xf.j.n.!.).~.!.).).'.].'.u.bXIXIXIXt YXYXYXYXYX",
"YX4 #X$X#X@XvXnX0.f.m.K./.'./.D.rXtXuXuXaX^.L.IXIXIX$.  YXYXYXYX",
"YX  M $X#X#X-X1X8.j.m.Q._.dXeXrXpXpXjXjXjXpX;.GXIXUXBX. YXYXYXYX",
"YXYXO R $X#XOXi.9.j.n.).tXuXtXpXlXlXlXjXgXjXw.,.>X;XIX0 YXYXYXYX",
"YXYX  9 #X$XXXw.9.b.G.J.(.'.tXjXjXlXgXgXgXjXw.:XJXUXIX^   YXYXYX",
"YXYXYXX ! $XE #.9.b.m.Q./.`.yXyXgXSXSXFXFXSX*.bXIXIXIX>X  YXYXYX",
"YXYXYXYX& W #X+.7.x.z.C./.rXiXjXlXFXFXKXLXfX[ HXPXJXIXPX= YXYXYX",
"YXYXYXYX  b #X[.<.b.K.Q.`.iXjXlXSXFXLXIXIXu.=.IXJXJXPXIXt YXYXYX",
"YXYXYXYXYXo T %X&.3.W.(.'.uXjXlXkXAXAXIXnXp t.PXKXJXJXIX$.  YXYX",
"YXYXYXYXYXYX3 Q 4X' 6.).'.`.yXyXyXfXAXfX_ / =.IXKXPXJXJXbX+ YXYX",
"YXYXYXYXYXYX  V cX3Xs 3.Q.'.iXjXlXSX9Xp _ &.w.{.L BXKXPXIX; YXYX",
"YXYXYXYXYXYXYX& }.KX3X{ `  .r.M.:.` / =.y.t.>.B c F ZXDXbXw   YX",
"YXYXYXYXYXYXYX  r JXHXBX>X-.] [ [ t.BXUXIXzXH Y A C n - X     YX",
"YXYXYXYXYXYXYXYX@ bXBXbXBXPXUXIXIXUXbX,X( 7 A =X|.S c 1   YXYXYX",
"YXYXYXYXYXYXYXYX  >XJXnXCXBX>X%.u 0 @       < K *X|.S Z 6   YXYX",
"YXYXYXYXYXYXYXYX  ^ 5X&XG 5 X         YXYXYX  < K *X XS C 6   YX",
"YXYXYXYXYXYXYXYX    $ v O   YXYXYXYXYXYXYXYXYX  , J *X XS C 1   ",
"YXYXYXYXYXYXYXYXYXYX      YXYXYXYXYXYXYXYXYXYXYX  % J *X.XA x X ",
"YXYXYXYXYXYXYXYXYXYXYXYXYXYXYXYXYXYXYXYXYXYXYXYXYX  % D +XN ~ . ",
"YXYXYXYXYXYXYXYXYXYXYXYXYXYXYXYXYXYXYXYXYXYXYXYXYXYX  % z i >   ",
"YXYXYXYXYXYXYXYXYXYXYXYXYXYXYXYXYXYXYXYXYXYXYXYXYXYXYX          "
};
