/* XPM */
static char * kfaxview_16_xpm[] = {
"16 16 149 2",
"  	c None",
". 	c #ECECEC",
"+ 	c #F5F5F5",
"@ 	c #F3F3F3",
"# 	c #FFFFFF",
"$ 	c #939393",
"% 	c #F2F2F2",
"& 	c #FAFAFA",
"* 	c #FBFBFB",
"= 	c #FDFDFD",
"- 	c #ACACAC",
"; 	c #959595",
"> 	c #F1F1F1",
", 	c #EDEDED",
"' 	c #EEEEEE",
") 	c #F0F0EF",
"! 	c #F3F3F2",
"~ 	c #F9F9F9",
"{ 	c #CDCDCD",
"] 	c #6F6F6F",
"^ 	c #F5F4F2",
"/ 	c #CAC8C5",
"( 	c #CAC9C6",
"_ 	c #CCCAC7",
": 	c #CDCBC9",
"< 	c #CFCDCA",
"[ 	c #D1D0CC",
"} 	c #BAB8BA",
"| 	c #C3BEC3",
"1 	c #6A6A6A",
"2 	c #D2D2D2",
"3 	c #D1D1D1",
"4 	c #D9D9D9",
"5 	c #C7D6EE",
"6 	c #A7BCDF",
"7 	c #A5B9DA",
"8 	c #A4B9DA",
"9 	c #A4B8D9",
"0 	c #A3B8D8",
"a 	c #A1B6D7",
"b 	c #AAB9DA",
"c 	c #B7CDB9",
"d 	c #9BD39A",
"e 	c #CBCDCB",
"f 	c #D6D6D6",
"g 	c #F6F6F6",
"h 	c #CCCBCB",
"i 	c #EEEDED",
"j 	c #A8C4E8",
"k 	c #7CA6DD",
"l 	c #81A9DE",
"m 	c #7FA8DC",
"n 	c #7FA7DB",
"o 	c #7EA6DB",
"p 	c #7BA3D9",
"q 	c #8DADE0",
"r 	c #B4D2B8",
"s 	c #7EC97C",
"t 	c #DADDDA",
"u 	c #4E4C4E",
"v 	c #D0D0D0",
"w 	c #EBEBEB",
"x 	c #C7C7C7",
"y 	c #FFFFFE",
"z 	c #FBFAF8",
"A 	c #F7F6F4",
"B 	c #F3F2F0",
"C 	c #EBEAE8",
"D 	c #E1E0DE",
"E 	c #E2E1DE",
"F 	c #DCDBD9",
"G 	c #DBD8DB",
"H 	c #D8D2D9",
"I 	c #D5D5D5",
"J 	c #4A4A4A",
"K 	c #CACACA",
"L 	c #E2E2E2",
"M 	c #C3C3C3",
"N 	c #F4F4F4",
"O 	c #F7F7F7",
"P 	c #EEEEED",
"Q 	c #EBEAEA",
"R 	c #E0DFDF",
"S 	c #D5D5D4",
"T 	c #D3D3D2",
"U 	c #D4D4D4",
"V 	c #CFCECF",
"W 	c #4C4C4C",
"X 	c #C5C5C5",
"Y 	c #D8D8D8",
"Z 	c #C0C0C0",
"` 	c #F2F3F3",
" .	c #EDEEEE",
"..	c #E9E9E9",
"+.	c #E5E5E5",
"@.	c #DBDBDB",
"#.	c #CECECE",
"$.	c #CBCBCB",
"%.	c #CCCCCC",
"&.	c #BEBEBE",
"*.	c #EEEFEF",
"=.	c #ECEDED",
"-.	c #E6E5E5",
";.	c #E4E3E3",
">.	c #DEDFDE",
",.	c #CFCFCF",
"'.	c #505050",
").	c #BDBDBD",
"!.	c #BABBBB",
"~.	c #EAE9E9",
"{.	c #E1A5A5",
"].	c #E19A9C",
"^.	c #C1CBB9",
"/.	c #ADCDAF",
"(.	c #D8D5D8",
"_.	c #C4C4C4",
":.	c #525252",
"<.	c #A7A7A7",
"[.	c #BABABA",
"}.	c #C7C8C8",
"|.	c #DBD7D7",
"1.	c #DFC1C1",
"2.	c #E2C6C8",
"3.	c #C8D4C8",
"4.	c #C8D3C8",
"5.	c #D3D1D3",
"6.	c #C8C8C8",
"7.	c #C2C2C2",
"8.	c #989898",
"9.	c #898989",
"0.	c #D7D7D7",
"a.	c #BEC1C1",
"b.	c #BEC2C1",
"c.	c #CDCCCD",
"d.	c #C9C7C9",
"e.	c #B8B8B8",
"f.	c #B5B5B5",
"g.	c #ADADAD",
"h.	c #5B5B5B",
"i.	c #757575",
"j.	c #E7E7E7",
"k.	c #E6E6E6",
"l.	c #EFEFEF",
"m.	c #828282",
"n.	c #F8F8F8",
"o.	c #707070",
"p.	c #696969",
"q.	c #6C6C6C",
"r.	c #676767",
"            . + @ @ @ # $       ",
"            % & * = # # -       ",
"          ; > , ' ) ! ~ {       ",
"  $   ] ^ / ( / _ : < [ } | 1   ",
"2 # 3 4 5 6 7 8 9 0 a b c d e   ",
"f g h i j k l m n o p q r s t u ",
"v w x @ y z A B C D E F G H I J ",
"K L M N O % P Q R S T U 3 V v W ",
"X Y Z % `  ...+.@.2 v v #.$.%.W ",
"Z #.&.*.=.-.;.>.Y ,.{ #.K x x '.",
").X !.~.{.].^./.(.v $.{ K K _.:.",
"<.[.}.|.1.2.3.4.5.,.K 6.7._.8.  ",
"9.0.4 #.a.b.c.d.M &.e.f.g.h.    ",
"          i.& g . j.k.l.3       ",
"          m.# # = & n.O +.      ",
"            o.p.p.p.p.q.r.      "};
