/* XPM */
static char * kfaxview_32_xpm[] = {
"32 32 264 2",
"  	c None",
". 	c #F0F0F0",
"+ 	c #EBEBEB",
"@ 	c #EAEAEA",
"# 	c #E9E9E9",
"$ 	c #E8E8E8",
"% 	c #E7E7E7",
"& 	c #E6E6E6",
"* 	c #DEDEDE",
"= 	c #FFFFFF",
"- 	c #FEFEFE",
"; 	c #F2F2F2",
"> 	c #373737",
", 	c #F9F9F9",
"' 	c #F7F7F7",
") 	c #F8F8F8",
"! 	c #FBFBFB",
"~ 	c #FCFCFC",
"{ 	c #FDFDFD",
"] 	c #F1F1F1",
"^ 	c #3B3B3B",
"/ 	c #525252",
"( 	c #ABABAB",
"_ 	c #EEEEEE",
": 	c #F3F3F3",
"< 	c #F6F6F6",
"[ 	c #FAFAFA",
"} 	c #9B9B9B",
"| 	c #5E5E5E",
"1 	c #C3C3C3",
"2 	c #EDEDED",
"3 	c #EFEFEF",
"4 	c #E4E4E4",
"5 	c #BBBBBB",
"6 	c #4B4B4B",
"7 	c #767676",
"8 	c #C8C8C8",
"9 	c #E5E5E5",
"0 	c #E0E0E0",
"a 	c #BFBFBF",
"b 	c #616161",
"c 	c #7B7B7B",
"d 	c #D5D5D5",
"e 	c #CDCDCD",
"f 	c #ECECEC",
"g 	c #E2E2E2",
"h 	c #C7C7C7",
"i 	c #BABABA",
"j 	c #B7B7B7",
"k 	c #989898",
"l 	c #C0C0C0",
"m 	c #D8D8D8",
"n 	c #CACACA",
"o 	c #6B6B6B",
"p 	c #9E9E9E",
"q 	c #CECECD",
"r 	c #A09F9E",
"s 	c #ADACAB",
"t 	c #ABAAA9",
"u 	c #ABABA9",
"v 	c #ACABAA",
"w 	c #ACACAA",
"x 	c #ADADAB",
"y 	c #AEADAC",
"z 	c #AFAEAD",
"A 	c #A4A4A4",
"B 	c #999899",
"C 	c #BAB8BA",
"D 	c #D6D5D6",
"E 	c #939393",
"F 	c #DFDFDF",
"G 	c #BDBDBD",
"H 	c #E6E6E5",
"I 	c #F5F7FB",
"J 	c #E8ECF3",
"K 	c #E1E4EA",
"L 	c #D8DBE1",
"M 	c #D6D9E0",
"N 	c #D5D8DF",
"O 	c #D4D7DE",
"P 	c #D3D6DD",
"Q 	c #D2D5DB",
"R 	c #D1D4DA",
"S 	c #D0D3DA",
"T 	c #CFD2D9",
"U 	c #CED1D8",
"V 	c #CDD0D6",
"W 	c #D5D5D6",
"X 	c #BBC8BB",
"Y 	c #D8DAD8",
"Z 	c #E5E4E5",
"` 	c #BEBEBE",
" .	c #9D9D9D",
"..	c #D1D1D1",
"+.	c #B5B5B5",
"@.	c #B8C7E2",
"#.	c #84A3D6",
"$.	c #91ADDC",
"%.	c #92AEDD",
"&.	c #93AEDD",
"*.	c #93AFDD",
"=.	c #93AFDE",
"-.	c #92AEDE",
";.	c #96B0DE",
">.	c #DADADE",
",.	c #7FC57E",
"'.	c #79DD79",
").	c #74C274",
"!.	c #D4D4D4",
"~.	c #797979",
"{.	c #B9B9B9",
"].	c #C9C9C9",
"^.	c #9EBAE1",
"/.	c #286CC6",
"(.	c #3474CA",
"_.	c #3474CB",
":.	c #3475CB",
"<.	c #3575CB",
"[.	c #3575CC",
"}.	c #3576CC",
"|.	c #3073CB",
"1.	c #568BD3",
"2.	c #DFDCE3",
"3.	c #5EBD5C",
"4.	c #09C709",
"5.	c #46BA46",
"6.	c #DBD7DB",
"7.	c #8A8A8A",
"8.	c #F4F4F4",
"9.	c #BCBCBC",
"0.	c #D7D7D7",
"a.	c #E4EDF7",
"b.	c #BCD4EE",
"c.	c #BED5EF",
"d.	c #BED4EE",
"e.	c #BDD3ED",
"f.	c #BCD2EC",
"g.	c #BBD1EA",
"h.	c #B9D0E9",
"i.	c #B8CFE8",
"j.	c #B7CDE7",
"k.	c #B6CDE6",
"l.	c #B5CCE5",
"m.	c #B4CAE4",
"n.	c #B3CAE3",
"o.	c #B0C7E2",
"p.	c #BBCDE1",
"q.	c #DEDDDF",
"r.	c #D4D6D4",
"s.	c #ABC5AB",
"t.	c #C7CFC7",
"u.	c #D8D6D8",
"v.	c #D9D9D9",
"w.	c #858585",
"x.	c #FFFFFE",
"y.	c #FFFFFB",
"z.	c #FFFDF8",
"A.	c #FDFAF6",
"B.	c #FBF8F4",
"C.	c #F9F6F2",
"D.	c #F7F4EF",
"E.	c #F4F1ED",
"F.	c #F3F0EC",
"G.	c #F2EEEB",
"H.	c #EFEBE7",
"I.	c #ECE8E4",
"J.	c #EAE7E3",
"K.	c #E8E5E1",
"L.	c #E4E1DD",
"M.	c #DADADA",
"N.	c #DBDADB",
"O.	c #DFDADF",
"P.	c #DAD7DA",
"Q.	c #D3D3D3",
"R.	c #898989",
"S.	c #9F9F9F",
"T.	c #C6C6C6",
"U.	c #D2D2D2",
"V.	c #E1E1E1",
"W.	c #D6D6D6",
"X.	c #D0D0D0",
"Y.	c #8B8B8B",
"Z.	c #C4C4C4",
"`.	c #CFCFCF",
" +	c #CBCBCB",
".+	c #DCDCDC",
"++	c #8D8D8D",
"@+	c #A0A0A0",
"#+	c #C1C1C1",
"$+	c #DBDBDB",
"%+	c #CECECE",
"&+	c #CCCCCC",
"*+	c #8C8C8C",
"=+	c #DDDDDD",
"-+	c #8E8E8E",
";+	c #F5F5F5",
">+	c #C5C5C5",
",+	c #EDEEEE",
"'+	c #E8E9E9",
")+	c #E3E2E3",
"!+	c #B8B8B8",
"~+	c #ECEEEE",
"{+	c #E7E8E8",
"]+	c #E3E2E2",
"^+	c #C2C2C2",
"/+	c #EEF1F1",
"(+	c #E5D9D9",
"_+	c #DD9595",
":+	c #DFD2D2",
"<+	c #DA8F8F",
"[+	c #E1DBDB",
"}+	c #D8DBD9",
"|+	c #95BC95",
"1+	c #D1D7D1",
"2+	c #A3A3A3",
"3+	c #B3B3B3",
"4+	c #EAF4F4",
"5+	c #DD7777",
"6+	c #E07474",
"7+	c #DB8383",
"8+	c #DF6363",
"9+	c #E7E7EE",
"0+	c #87BF88",
"a+	c #62BB62",
"b+	c #DCD8DC",
"c+	c #AFAFAF",
"d+	c #CFD0D0",
"e+	c #E9ECEC",
"f+	c #DE9999",
"g+	c #DEC3C3",
"h+	c #DDA0A0",
"i+	c #DCBABA",
"j+	c #E2E3E7",
"k+	c #9CC79B",
"l+	c #AECCAE",
"m+	c #707070",
"n+	c #666666",
"o+	c #ADADAD",
"p+	c #DFE5E5",
"q+	c #E3E7E7",
"r+	c #E0E6E6",
"s+	c #DDE2E2",
"t+	c #DEDADE",
"u+	c #727272",
"v+	c #1F1F1F",
"w+	c #D4D5D5",
"x+	c #A1A1A1",
"y+	c #969696",
"z+	c #787878",
"A+	c #444444",
"B+	c #A9A9A9",
"C+	c #ACACAC",
"D+	c #B2B2B2",
"E+	c #AEAEAE",
"F+	c #A6A6A6",
"G+	c #A2A2A2",
"H+	c #A8A8A8",
"I+	c #4D4D4D",
"J+	c #393939",
"K+	c #3E3E3E",
"L+	c #434343",
"M+	c #484848",
"N+	c #E3E3E3",
"O+	c #323232",
"                        . + @ @ # # $ $ % % & $ *               ",
"                        = - - = = = = = = = = = ; >             ",
"                        , ' ) , ! ~ { - = = = = ] ^             ",
"                    / ( _ ] : < ) , [ ! ~ ~ ! { # } >           ",
"                    | 1 $ + 2 2 2 _ 3 . ] ] ; < 4 5 6           ",
"                    7 8 9 9 9 & % $ # @ + 2 _ ] 0 a b           ",
"              c ) ; d e $ 9 & $ # @ + f _ 3 . : g h i j k       ",
"  l m n b   o p = = q r s t u v v w s s x y y z A B C D a       ",
"E = = = d F G H I J K L L L M N O P Q R S T U V W e X Y Z `     ",
" .= - - ..l +.= @.#.$.%.%.%.%.%.&.*.*.=.=.=.-.;.>.,.'.).!.Z ~.  ",
" .= , , e {.].= ^./.(.(._.:.:.<.<.<.<.[.}.}.|.1.2.3.4.5.6.Z 7.  ",
"p - 8.: n 9.0.= a.b.c.d.e.f.g.h.i.j.k.l.m.n.o.p.q.r.s.t.u.v.w.  ",
"p , . _ 8 {.v.= = x.y.z.A.B.C.D.E.F.G.H.I.J.K.L.M.N.O.P.Q.d R.  ",
"S.8.+ # T.G & = ! ) ' 8.; . _ f + F U.v.V.0...W.v.d X.8 ..U.Y.  ",
"S.3 & 9 Z.5 & - , < 8.; . _ + @ # W...W.U.n m `.!. +.+T.e `.++  ",
"@+@ g 0 #+` 3 [ < 8.; 3 2 f # % 9 V.X.U.$+!.e !.d %+8 ].&+ +*+  ",
"@+9 =+M.a i 3 ' 8.] 3 2 + # % 4 9 X.e 0.Q.n d &+X. +v.#+8 ].-+  ",
"@+0 v.d 9.a _ ;+] 3 f + $ & 9 g 0 $+%+Q.Q.%+..X.`.e e >+h T.-+  ",
"@+$+Q.X.i ` f ; 3 ,+@ '+& 4 )+0 F X.e d !.n X.e &+n ..l Z.1 -+  ",
"@+0.`.&+!+#+@ . ~+& {+g ]+)+.+.+.+U.!.W. +8 0. +n h m Z.^+l ++  ",
"@+..n T.+.^+$ /+(+_+:+<+[+}+|+1+N...8 %+Q.].>+&+8 &+8 9.a G *+  ",
"2+e T.#+3+a $ 4+5+6+7+8+9+0+a+b+m ].Q.m 8 1 M. +Z.8 * #+9.i Y.  ",
"2+].1 9.c+Z.d+e+f+g+h+i+j+k+l+b+Q...e X.e 8  +8 >+h T.a 9.2+m+  ",
"n++.o+A {.& >+n p+q+r+s+v.t+b+Q.U.`.e &+].h >+1 #+^+` 3+ .u+v+  ",
"  V.%+%++ : + !.Z.8 U.w+d !.Q.U.X.%+&+n h 1 a {.( x+y+z+A+      ",
"  .+. % V.M.0.d e a B+C+a a i {.j +.D+E+( F+G+A c+H+I+          ",
"                    J+{.2 , . % V.=+$+M.=+g @ . ]  +K+          ",
"                      >+: = = = = = { ! ) ;+; 3 f X.L+          ",
"                      %+; = { [ ) ;+8.; . _ @ $ $ 0.M+          ",
"                      N+f 3 _ 2 2 f f f + + & 4 4 _ I+          ",
"                      i %+8 8 8 8 8 8 8 8 8 ].].&+].O+          ",
"                                                                "};
