/* XPM */
static char *kghostview[] = {
/* columns rows colors chars-per-pixel */
"32 32 210 2",
"   c black",
".  c #381E06",
"X  c #5E3A07",
"o  c #5D5B7F",
"O  c #5F5E80",
"+  c #5E658F",
"@  c #4E6BAE",
"#  c #5167A2",
"$  c #536CAC",
"%  c #626285",
"&  c #61678E",
"*  c #66698B",
"=  c #6F6E8E",
"-  c #6E7293",
";  c #6C759D",
":  c #706F8E",
">  c #757593",
",  c #797793",
"<  c #7A7A94",
"1  c #7D7D9A",
"2  c #6A76A4",
"3  c #7F819E",
"4  c #6A88C1",
"5  c #6698E4",
"6  c #739EE0",
"7  c #83460C",
"8  c #924F08",
"9  c #965208",
"0  c #965D22",
"q  c #8E6035",
"w  c #BB6F08",
"e  c #BF780E",
"r  c #A46B2D",
"t  c #A36A30",
"y  c #B4792D",
"u  c #866045",
"i  c #C67A0F",
"p  c #C67C11",
"a  c #D07D02",
"s  c #9F8163",
"d  c #B08350",
"f  c #DC8501",
"g  c #DA890F",
"h  c #DF8F10",
"j  c #DF921A",
"k  c #DA9A31",
"l  c #E09114",
"z  c #ECAD37",
"x  c #FFB935",
"c  c #FFBB39",
"v  c #C69C6C",
"b  c #D6A45B",
"n  c #EBB85D",
"m  c #E0B474",
"M  c #F4C44E",
"N  c #F9CF5C",
"B  c #F9D05C",
"V  c #F6CC72",
"C  c #81819C",
"Z  c #918C9F",
"A  c #9D9A98",
"S  c #8485A1",
"D  c #8B8CA5",
"F  c #848DB4",
"G  c #8D91A0",
"H  c #8C91AB",
"J  c #8390B4",
"K  c #8D9CB5",
"L  c #9494AD",
"P  c #9896AE",
"I  c #9A9AAF",
"U  c #9599B1",
"Y  c #9A9CB3",
"T  c #9FABBE",
"R  c #A38C81",
"E  c #A59899",
"W  c #A09FB6",
"Q  c #A3A5BC",
"!  c #A4ADBE",
"~  c #A8A9BF",
"^  c #91A3C3",
"/  c #9EADC5",
"(  c #9EB0D0",
")  c #9FBBDC",
"_  c #83ACE3",
"`  c #8AADE0",
"'  c #84B2EB",
"]  c #8CB1E1",
"[  c #83B0F5",
"{  c #87BCFA",
"}  c #92B4E0",
"|  c #95B9E3",
" . c #93BCE8",
".. c #9BBBE0",
"X. c #9DBFEC",
"o. c #A2ADC1",
"O. c #A1A9CD",
"+. c #ABABC0",
"@. c #A4B0C6",
"#. c #A7B3D1",
"$. c #A9BADC",
"%. c #B0AFC0",
"&. c #B2B3C3",
"*. c #B4B6C9",
"=. c #B4B9CC",
"-. c #B8B7C9",
";. c #BBBCC7",
":. c #BCBDCD",
">. c #A0BFE0",
",. c #9CC2EE",
"<. c #9DCBEF",
"1. c #98C2F4",
"2. c #9AC2FC",
"3. c #9FCCFA",
"4. c #ABC0DA",
"5. c #B7C1CF",
"6. c #B3C0D9",
"7. c #BAC2D4",
"8. c #B9C6DB",
"9. c #BBC8D6",
"0. c #BECADC",
"q. c #A2C2E4",
"w. c #AEC6E4",
"e. c #ADCBE4",
"r. c #A8CEEB",
"t. c #A5C8F7",
"y. c #A2CAFA",
"u. c #ACCDF0",
"i. c #A9CDFA",
"p. c #A6D0EF",
"a. c #AAD2ED",
"s. c #A6D2F4",
"d. c #ABD3F1",
"f. c #ACD2FA",
"g. c #B2C9E8",
"h. c #B7D2E4",
"j. c #B0D7EF",
"k. c #B6DBED",
"l. c #BCD5E3",
"z. c #BFD8E4",
"x. c #BCDFED",
"c. c #B1D1F7",
"v. c #B2D3FC",
"b. c #B2D8F2",
"n. c #B2DCFD",
"m. c #BCDAF9",
"M. c #BCE0F2",
"N. c #BBE2FA",
"B. c #C6B8AA",
"V. c #C0BECE",
"C. c #FFE696",
"Z. c #FFE897",
"A. c #FFE99C",
"S. c #FFFDB3",
"D. c #FFFEB8",
"F. c #C4C3CC",
"G. c #C6CACF",
"H. c #CECECF",
"J. c #C2C3D2",
"K. c #C1C6D8",
"L. c #C2C9D3",
"P. c #C2CCDB",
"I. c #CBCCD2",
"U. c #CACCDA",
"Y. c #CED0DE",
"T. c #D0C9C7",
"R. c #D2D1D6",
"E. c #D3D3DB",
"W. c #D8D5D5",
"Q. c #C2CDE0",
"!. c #C5D0E1",
"~. c #C1D9E3",
"^. c #CBD1E2",
"/. c #CCDCE4",
"(. c #CED8EA",
"). c #D3D6E2",
"_. c #D5DAE4",
"`. c #D4DCEB",
"'. c #DADEE4",
"]. c #D9DEEA",
"[. c #C4E2EE",
"{. c #C4E3F3",
"}. c #C4E2F9",
"|. c #C5EBFF",
" X c #C9E6F0",
".X c #CCE5F9",
"XX c #CBEAF5",
"oX c #CAEDFB",
"OX c #D7E2EB",
"+X c #DBE2EE",
"@X c #D1ECF2",
"#X c #D3ECFA",
"$X c #DCE3F1",
"%X c #D8E8F6",
"&X c #D2F1FC",
"*X c #DCF4FC",
"=X c #E0E6F1",
"-X c #E4E9F3",
";X c #E6EEFA",
":X c #E9EDF5",
">X c #EAEFF8",
",X c #E3F6FC",
"<X c #E4F9FE",
"1X c #ECF1F9",
"2X c #EBF8FD",
"3X c #F1F1F4",
"4X c #F1F5FB",
"5X c #F4F8FE",
"6X c #FEFEFE",
"7X c None",
/* pixels */
"7X7X!.!.!.!.!.!.P.!.!.!.!.!.!.!.!.o.7X7X7X7X7X7X7X7X7X7X7X7X7X7X",
"7X7X!.5X6X6X6X6X6X6X6X6X5X1X:X=X].!.o.7X7X7X7X7X7X7X7X7X7X7X7X7X",
"7X7X!.5X6X6X6X6X6X6X6X5X4X1X-X$X].Q.;X! 7X7X7X7X7X7X7X7X7X7X7X7X",
"7X7X!.5X6X6XH.H.H.H.G.G.5X1X:X=X].Q.>X$X! 7X7X7X7X7X7X7X7X7X7X7X",
"7X7X!.5X6X6X6X6X6X6X6X5X5X4X>X-X+XQ.5X-X$Xo.7X7X7X7X7X7X7X7X7X7X",
"7X7X!.5X6X6X6X6X6X6X6X6X5X4X1X:X$X!.6X5X-X$Xo.7X7X7X7X7X7X7X7X7X",
"7X7XU.5X6X6XH.H.H.H.H.G.;.&.&.Y._.0.:X:X$X`.`.T 7X7X7X7X7X7X7X7X",
"7X7XP.4X6X6X6X6X6X6XE.~ &.;.:.J.:.:.@./ o./ / / / 7X7X7X7X7X7X7X",
"7X7X!.5X6X6XH.H.F.P I ~ =.0.^.Y.U.K.V.K.Q.:.8.:.K   7X7X7X7X7X7X",
"7X7X!.5X6X6X6X3XL P o. X*X<X2X2X>X%XU.F.:.h.8.g.K   7X7X7X7X7X7X",
"7X7X!.5X6X6XH.Z H ^ m.XX@X<X2X2X<X*X#XP.K.K.Q.Q.K   7X7X7X7X7X7X",
"7X7X!.5X6X6XU.C 4 f.|.&X*X*X*X<X*X#X.X}.P.V.Q.Q.K   7X7X7X7X7X7X",
"7X7X!.5X6X:X1 C ) p.b.m.{. X X[.[.x.k.a.w.F.K.(.K   7X7X7X7X7X7X",
"7X7X!.5X6XI.1 2 { n.N.N.|.oXoXoXoXN.m.n.i.:.V.(.K   7X7X7X7X7X7X",
"7X7X!.5X6X~ < $ 5 ' ,.s.j.j.a.p.p.p.p.<. .>.L.(.K   7X7X7X7X7X7X",
"7X7X!.5X6X&., $ [ 2.3.y.i.f.f.f.u.y.s.3.X.$.F.`.K   7X7X7X7X7X7X",
"7X7X!.5X6X&.= # 6 _ ` } ) ,.>.>...) _ 6 _ #.V.].K   7X7X7X7X7X7X",
"7X7X!.4X6XE.= + [ i.v.m.{..XXXoX}.m.c.i.X.*.=.$XK   7X7X7X7X7X7X",
"7X7X!.5X6X3X< % 4 | q.w.h.l.P.z.l.e.q...( +.7.$XK   7X7X7X7X7X7X",
"7X7X!.5X6X6XE.% & X.}.#X*X*X1X,X*X&X}.g.+.+.).$XK   7X7X7X7X7X7X",
"7X7X!.5X6X6XH.C o ; ) l./._.'._._.z.4.! Q O.W.$XK   7X7X7X7X7X7X",
"7X7X!.5X6X6X6X4XS o - / /.=X:X-XOX=.U L Y O.B.m A   7X7X7X7X7X7X",
"7X7X!.5X6X6XG.L.J.D % % > H T U D D D 3 F Z d z k X 7X7X7X7X7X7X",
"7X7X!.5X6X6X5X4X4X4X_.Y C 1 1 S L &.`.=XE q n S.B h p 7X7X7X7X7X",
"7X7X!.5X6X6XL.L.L.L.J.L.L.5.5.5.9.9.9.9.s w c A.D.B h e 7X7X7X7X",
"7X7X!.5X6X6X5X4X4X4X1X1X>X>X>X:X:X:X=X-XT.r f x C.D.N l p 7X7X7X",
"7X7X!.5X6X5X4X4X4X1X1X1X1X1X>X:X-X-X=X=X$XE.r f c C.D.N l e 7X7X",
"7X7X!.5X6X6X4X4X5X4X1X1X1X9.9.1X:X-X-X=X+X=XR.t f c C.D.B l g 7X",
"7X7X!.2X6X5X4X4X4X4X1X1X1X>X>X:X-X-X$X-X$X$X$XE.0 f c Z.D.M j   ",
"7X7X!.K K K K U K K K K K K K K K K K K K K U K G 8 f c V b v   ",
"7X7X7X                                            . 9 a y R L   ",
"7X7X7X7X7X7X7X7X7X7X7X7X7X7X7X7X7X7X7X7X7X7X7X7X7X7X7 9 u , *   "
};
