/* XPM */
static char *kooka-16[] = {
/* columns rows colors chars-per-pixel */
"16 16 168 2",
"   c black",
".  c #040404",
"X  c #0F0F00",
"o  c gray5",
"O  c #111111",
"+  c #171713",
"@  c gray8",
"#  c #181818",
"$  c #353531",
"%  c gray23",
"&  c #474547",
"*  c #494949",
"=  c #4B494B",
"-  c gray29",
";  c #4B4B4B",
":  c #4F4D4B",
">  c #4C4C4C",
",  c #535353",
"<  c #555355",
"1  c #565452",
"2  c #555555",
"3  c gray34",
"4  c #5D575D",
"5  c #585858",
"6  c gray35",
"7  c #5E5C59",
"8  c #666166",
"9  c #646464",
"0  c #6E6A68",
"q  c #747373",
"w  c #747474",
"e  c #6FCE6C",
"r  c #898888",
"t  c #8B8A8A",
"y  c #8D8B88",
"u  c #8C8B8B",
"i  c #8E8E8E",
"p  c #939393",
"a  c #9B9B9B",
"s  c #9F9C9B",
"d  c #9F9F9F",
"f  c #A2A2A2",
"g  c #A7A4A3",
"h  c #A5A4A5",
"j  c #A6A5A5",
"k  c gray65",
"l  c #A7A6A6",
"z  c #A7A7A7",
"x  c gray66",
"c  c #A9A9A9",
"v  c #AAAAAA",
"b  c gray67",
"n  c #AEAEAE",
"m  c #B1B1B1",
"M  c #B4B2B2",
"N  c #B5B3B4",
"B  c gray72",
"V  c #BEBDBC",
"C  c #8CBCE7",
"Z  c #8CBDEA",
"A  c #9CBDE5",
"S  c #A5D2A5",
"D  c #BBDCBB",
"F  c #8CC0EE",
"G  c #8CC2EC",
"H  c #86C5F3",
"J  c #9FC5ED",
"K  c #9EC8EE",
"L  c #90C8F2",
"P  c #97CFF6",
"I  c #9DD1F4",
"U  c #9AD3F8",
"Y  c #A0C6ED",
"T  c #ABC4E4",
"R  c #A2D7F7",
"E  c #A5D3F6",
"W  c #A5D6F5",
"Q  c #AEDCF6",
"!  c #ABDEFA",
"~  c #B1C7E5",
"^  c #B6CCE7",
"/  c #B0CBEE",
"(  c #B7CFEE",
")  c #B8CDE7",
"_  c #B9CEE7",
"`  c #BACEE7",
"'  c #B4D7F6",
"]  c #B5DDF8",
"[  c #B3E0FA",
"{  c #B6E1FB",
"}  c #B7E2F8",
"|  c #B8E7FD",
" . c #BCE6F9",
".. c #BFEDFF",
"X. c #CACACA",
"o. c #C8CACD",
"O. c #C8CACE",
"+. c #CFCDCB",
"@. c #CAD8CA",
"#. c #D0D0D0",
"$. c #D2D2D2",
"%. c #D0D3DA",
"&. c #D7DED3",
"*. c gray85",
"=. c #D8DAD8",
"-. c gainsboro",
";. c #DDDCDD",
":. c #DDDDDD",
">. c gray87",
",. c #DFDFDF",
"<. c #CCD4E3",
"1. c #CED7E5",
"2. c #CFD6E5",
"3. c #CAD5E9",
"4. c #C2D7F1",
"5. c #C4D7F0",
"6. c #D0D8E6",
"7. c #D2DAE8",
"8. c #D7DEEB",
"9. c #D5DEEC",
"0. c #D8DEEB",
"q. c #D9DEEB",
"w. c #D8DFEC",
"e. c #DDDEED",
"r. c #C4E4FC",
"t. c #C6E6FC",
"y. c #C4E9F9",
"u. c #C7EBFE",
"i. c #C8E4FB",
"p. c #C9E5FB",
"a. c #C9E6FB",
"s. c #C9E7FB",
"d. c #CAE5FB",
"f. c #CAE6FB",
"g. c #CAE5FC",
"h. c #CCE7FB",
"j. c #CAE8FC",
"k. c #CBEBFC",
"l. c #CCEBF9",
"z. c #CFE9FB",
"x. c #C5F0FF",
"c. c #CDF1FF",
"v. c #D1EDF9",
"b. c #D0ECFC",
"n. c #E2E2E2",
"m. c #E4E2E0",
"M. c #E5E3E1",
"N. c #E4E4E4",
"B. c #E6E6E6",
"V. c #E7E7E7",
"C. c #E9E6E5",
"Z. c #E8E8E7",
"A. c #EBEAE8",
"S. c #ECECEC",
"D. c #EEEEEE",
"F. c #E0E5F1",
"G. c #F3F3F3",
"H. c #F4F4F4",
"J. c #F7F6F4",
"K. c gray97",
"L. c #F8F8F8",
"P. c gray98",
"I. c #F8FAFD",
"U. c #FCFAF9",
"Y. c #FFFFFD",
"T. c #FFFFFE",
"R. c gray100",
"E. c None",
/* pixels */
"E.  p i w z n.=.=.X.; * * o E.E.",
"E.> G.D.V.G.L.K.P.P.D.n.P.d   E.",
"E.% H.n v v x x l v v j =.n   E.",
"E.  m B s d d d d d d a #.* E.E.",
"E.E.5 #.t t u u u t t z B . E.E.",
"E.E.O V M j l x l j h +.q   E.E.",
"E.E.7 9.T ) ) ` ` ` ^ ~ O.@ E.E.",
"E.E.s / ' i.i.i.i.g.g.J 3.1 E.E.",
"E.X O.A r.s.z.z.s.] E F ( u E.E.",
"E.$ 6.K r.h.k.k.[ R P H J N   E.",
"E.0 5.L { u.c.x...| ! U Z %.+ E.",
"E.g 5.G W } y.v.l. .Q I C F.: E.",
"E.m I.6.<.6.w.q.8.8.6.<.e.R.9 E.",
"E.f Z.M.M.A.U.R.R.J.C.&.e D 8 E.",
"E.i n.n.;.;.;.,.,.-.;.=.S @.* E.",
"E.# 5 5 5 3 2 2 2 , < < 4 &   E."
};
