/* XPM */
static char *kooka[] = {
/* columns rows colors chars-per-pixel */
"32 32 120 2",
"   c #000000",
".  c #090909",
"X  c #151515",
"o  c #181818",
"O  c #202020",
"+  c #2A2A2B",
"@  c #323232",
"#  c gray24",
"$  c #404040",
"%  c #4C4C4C",
"&  c #535353",
"*  c #5D5D5D",
"=  c #656565",
"-  c #6B6B6B",
";  c #727272",
":  c gray47",
">  c #24B924",
",  c #23D623",
"<  c #5ABD5A",
"1  c #69C069",
"2  c #6386BD",
"3  c #6790C5",
"4  c #6B94CB",
"5  c #699AD5",
"6  c #7693C2",
"7  c #779BCD",
"8  c #709BD0",
"9  c #75AADC",
"0  c #79A1D0",
"q  c #7AA9DB",
"w  c #70ACE3",
"e  c #7BACE0",
"r  c #7FB7E7",
"t  c #7DBBEE",
"y  c #828282",
"u  c #898989",
"i  c #939393",
"p  c #9B9B9B",
"a  c #A09F9F",
"s  c #A2A2A2",
"d  c #ABABAB",
"f  c #B4B3B4",
"g  c #BBBBBA",
"h  c #8CA4CC",
"j  c #85A6D2",
"k  c #8FABD3",
"l  c #9AB1D5",
"z  c #80B5E6",
"x  c #81BDED",
"c  c #8AB6E5",
"v  c #A4B5D4",
"b  c #ADB9D4",
"n  c #ABBAD8",
"m  c #B0BBD4",
"M  c #88C188",
"N  c #9ED09E",
"B  c #A5CBA5",
"V  c #ADC9AD",
"C  c #BAD0BA",
"Z  c #89C0EB",
"A  c #86C3F3",
"S  c #8AC5F2",
"D  c #8BC8F5",
"F  c #92C3EB",
"G  c #9EC1E8",
"H  c #9CCCEE",
"J  c #92CBF4",
"K  c #98CEF5",
"L  c #9CD2F6",
"P  c #99D2F8",
"I  c #B7C2DB",
"U  c #B9C3DA",
"Y  c #A1C4E9",
"T  c #A3D4F2",
"R  c #A1D6F8",
"E  c #A6D9F8",
"W  c #AAD2F5",
"Q  c #ADDAF2",
"!  c #AADBF9",
"~  c #B4DCF3",
"^  c #B6DCF9",
"/  c #B9DEF9",
"(  c #AEE0FB",
")  c #B3E4FC",
"_  c #BEE1F2",
"`  c #BDE2FB",
"'  c #BDEBFE",
"]  c #C4C4C4",
"[  c #CCCAC7",
"{  c #CCCBC9",
"}  c #D5D5D4",
"|  c #D4DAD4",
" . c #DBDADB",
".. c #C3CAE0",
"X. c #CED4E6",
"o. c #D4DAE8",
"O. c #D9DCE6",
"+. c #DADEEC",
"@. c #C0E1F2",
"#. c #C3E4FA",
"$. c #C3EBFD",
"%. c #CBE3F2",
"&. c #CAE5FA",
"*. c #CCEAFC",
"=. c #C6F1FF",
"-. c #CBF3FF",
";. c #D0E7FB",
":. c #D2EAFB",
">. c #D4F5FE",
",. c #E1DAE1",
"<. c #E2E1DE",
"1. c #E2E2E2",
"2. c #EAEAEA",
"3. c #ECEDF5",
"4. c #F5F5F4",
"5. c #F5F6FA",
"6. c #F8F6F5",
"7. c #F8F7F8",
"8. c #FEFEFD",
"9. c None",
/* pixels */
"9.9.9.9.9.9.9.9.9.9.$ u f d s s s p s =   9.9.9.9.9.9.9.9.9.9.9.",
"9.9.9.9.9.i u y 1 : : 3.8.8.8.8.8.8.8.7.* @ & % % +   9.9.9.9.9.",
"9.9.9.9.-  .7.7.6.6.7.8.8.8.8.8.8.8.8.8.8.4.4.4.4.2.*   9.9.9.9.",
"9.9.9.  d 8.8.4.2.2.2.2.,.2.2.2.2.1.2.2.2.2.2.4.8.8.{ . 9.9.9.9.",
"9.9.9.  u 8.2.s s s s s s s s s s s s s s s s s 1.8.f   9.9.9.9.",
"9.9.9.9.# 7.} p d d d d d d d d d d d d d d d s [ 8.=   9.9.9.9.",
"9.9.9.9.. g 4.i a a a a s s a s s s p s s s s p 1.2.O   9.9.9.9.",
"9.9.9.9.9.; 8.m i p p p p p p p p p p p p i i s 8.s   9.9.9.9.9.",
"9.9.9.9.9.+ <.1.u i i i i i i i i i i i i i u ] 7.&   9.9.9.9.9.",
"9.9.9.9.9.  s 4.s y u u u u u y u y u u u y i 1.[ X 9.9.9.9.9.9.",
"9.9.9.9.9.9.* 2.} i i i i i i i i i i i i i ] 2.-   9.9.9.9.9.9.",
"9.9.9.9.9.9.O s } [ [ [ [ [ [ [ [ [ [ [ [ [ } g +   9.9.9.9.9.9.",
"9.9.9.9.9.  f 7.o.b n n n I m m m m m m n n U 6. .$ 9.9.9.9.9.9.",
"9.9.9.9.9.@ 6.3.3 c n Y G G Y Y Y Y Y Y F n 5 n 8.s   9.9.9.9.9.",
"9.9.9.9.9.& 8.I q ;.;.&.:.:.:.:.:.:.&.;.&.;.W 7 8.]   9.9.9.9.9.",
"9.9.9.9.9.u 8.h F &.&.&.&.&.&.;.;.&.&.%.&.&.#.5 4.2.O 9.9.9.9.9.",
"9.9.9.9.  g 5.2 W &.#.&.&.&.&.&.&.;.&.#.` ~ ^ q X.8.$ 9.9.9.9.9.",
"9.9.9.9.o 1.X.4 / #.#.&.&.&.*.*.:.#.! K D Z A w n 8.;   9.9.9.9.",
"9.9.9.9.# 8.n r / #.#.&.*.*.*.:.` E R L K J D t 6 8.s   9.9.9.9.",
"9.9.9.9.- 8.k J #.#.$.*.*.>.:.$.( ^ ! E R L J D 3 +.} . 9.9.9.9.",
"9.9.9.9.s 7.0 J ! / &.>.>.:.=.' ' ' ) ( E R K D 9 I 8.+ 9.9.9.9.",
"9.9.9.. } +.q P L ! ` $.=.=.=.=.=.=.=.) ) E L K x l 8.& 9.9.9.9.",
"9.9.9.+ 6.I r P R ! ) ' =.-.>.>.>.-.=.' ) ( E L D j 8.u   9.9.9.",
"9.9.9.& 8.+.0 Z F H T Q _ @.%.%.%._ ~ Q T H F Z q v 8.g   9.9.9.",
"9.9.9.& 8.8.o.b b b b b b b b b b b b b b b b b U 7.8.] . 9.9.9.",
"9.9.9.& 4.4.8.8.8.8.8.8.8.8.8.8.8.8.8.8.8.8.8.8.4.7.4.g . 9.9.9.",
"9.9.9.% 2.1. . .1.<. .3.8.8.8.8.8.8.8.7.1. .,.C N B 1.g . 9.9.9.",
"9.9.9.&  . . . . . . . .1.2.7.7.7.4.2. . . .,.1 , > | f . 9.9.9.",
"9.9.9.% 1.} }  .} }  .} } } } }  .} } }  .}  .V < M  .f . 9.9.9.",
"9.9.9.@ }  .}  . . .}  .}  . . .}  . . . . . .,.,.,.1.y   9.9.9.",
"9.9.9.  & d d s d s s d s s s s s a p p p p p p s s y X   9.9.9.",
"9.9.9.9.                                                9.9.9.9."
};
