/* XPM */
static char *kpdf-16[] = {
/* columns rows colors chars-per-pixel */
"16 16 157 2",
"   c #0F0000",
".  c #190000",
"X  c #1D0000",
"o  c #200000",
"O  c #883737",
"+  c #883D3D",
"@  c #982F2F",
"#  c #9F2E2E",
"$  c #913030",
"%  c #A60000",
"&  c #A80000",
"*  c #A90000",
"=  c #AB0000",
"-  c #AC0000",
";  c #AF0000",
":  c #B20000",
">  c #B40000",
",  c #B70000",
"<  c #BA0000",
"1  c #BB0000",
"2  c #BC0000",
"3  c #BE0000",
"4  c #B80A0A",
"5  c #BC0C0C",
"6  c #B91010",
"7  c #824242",
"8  c #824343",
"9  c #BF5151",
"0  c #A06C6C",
"q  c #AB6363",
"w  c #A07171",
"e  c #AA7474",
"r  c #C10000",
"t  c #C30000",
"y  c #C60000",
"u  c #C70000",
"i  c #C60505",
"p  c #C80000",
"a  c #CA0000",
"s  c #CC0000",
"d  c #D10000",
"f  c #D20000",
"g  c #D50000",
"h  c #D70000",
"j  c #D00808",
"k  c #DC0000",
"l  c #D21010",
"z  c #D31B1B",
"x  c #D92727",
"c  c #DB3131",
"v  c #DB3D3D",
"b  c #DF3B3B",
"n  c #E20000",
"m  c #E60000",
"M  c #E90000",
"N  c #EC0000",
"B  c #ED0000",
"V  c #E91414",
"C  c #ED1212",
"Z  c #F10000",
"A  c #F20000",
"S  c #F30000",
"D  c #F20505",
"F  c #F40000",
"G  c #F60000",
"H  c #F20E0E",
"J  c #F90000",
"K  c #FC0000",
"L  c #FD0000",
"P  c #FE0000",
"I  c red",
"U  c #FE0303",
"Y  c #F01212",
"T  c #FD1414",
"R  c #FE1515",
"E  c #FE1818",
"W  c #E42E2E",
"Q  c #E92A2A",
"!  c #EB2828",
"~  c #EF3131",
"^  c #F52020",
"/  c #FC3333",
"(  c #DC5050",
")  c #EA5454",
"_  c #FD4141",
"`  c #F84A4A",
"'  c #F57878",
"]  c #888C8C",
"[  c #899595",
"{  c #919696",
"}  c #949C9C",
"|  c #98A3A3",
" . c #9BA3A3",
".. c #9DA5A5",
"X. c #9EA6A6",
"o. c #A68F8F",
"O. c #AC8F8F",
"+. c #A9A8A8",
"@. c #AAABAB",
"#. c #A7B4B4",
"$. c #AFB8B8",
"%. c #B2A3A3",
"&. c #B9A2A2",
"*. c #B4BCBC",
"=. c #BABEBE",
"-. c #AFC1C1",
";. c #B0C0C0",
":. c #B2C5C5",
">. c #B3C6C6",
",. c #B8C9C9",
"<. c #C09999",
"1. c #E28989",
"2. c #E79B9B",
"3. c LightCoral",
"4. c #F08484",
"5. c #EEBEBE",
"6. c #C1CFCF",
"7. c #D3D7D7",
"8. c #D6D4D4",
"9. c #D2DBDB",
"0. c #D4DBDB",
"q. c #D6DBDB",
"w. c #D6DDDD",
"e. c #D8D9D9",
"r. c #DADCDC",
"t. c #DCDDDD",
"y. c gray87",
"u. c #DEDFDF",
"i. c #CEE1E1",
"p. c #D8E0E0",
"a. c #DAE2E2",
"s. c #DDE2E2",
"d. c #DFE4E4",
"f. c gray89",
"g. c #E2E5E5",
"h. c #E2E7E7",
"j. c #E1EAEA",
"k. c #E3EFEF",
"l. c #E5EDED",
"z. c #E9ECEC",
"x. c #EAECEC",
"c. c #EBEEEE",
"v. c #EDEFEF",
"b. c #E5F0F0",
"n. c #E9F5F5",
"m. c #F5E8E8",
"M. c gray95",
"N. c #F3F4F4",
"B. c gray97",
"V. c azure",
"C. c #F4FCFC",
"Z. c #FBFBFB",
"A. c #FBFDFD",
"S. c #FDFDFD",
"D. c #FEFFFF",
"F. c gray100",
"G. c None",
/* pixels */
"G.G.G.G.G.G.I ` _ G.G.G.G.G.G.R ",
"G.G.G.G.G.G.I D S I G.G.G.G.I Y ",
"G.G.G.G.G.G.G.S H J G.G.G.I S   ",
"G.G.G.G.G.G.G.I M S G.G.E S . G.",
"G.G.G.G.G.G.G.G.B M I / B X G.G.",
"G.- e O.&.0 + %.) M W C X G.G.G.",
"G.w F.F.F.F.a.F.' ( ^ % G.G.G.G.",
"m o.F.Z.B.F.7.m.~ b <.m f G.G.G.",
"k +.A.M.n.V.i.' Q *.V.4 n y G.G.",
"h $.N.x.l.5.V J q l.n.# k h 3 G.",
"f -.c.l.4.! x z 6.x.j.@ * s a G.",
"f >.h.2.R 1.c +.h.f.a.$ G.G.j l ",
"i >.w.8.v 9 | d.y.y.0.O G.G.G., ",
"5 ,.q.q.9.a.=.y.y.a.0.7 3 G.G.G.",
"5 [ { ] { ..} .. .#.-.7 1 G.G.G.",
"y y r 3 : : * * : 3 r r 3 G.G.G."
};
