/* XPM */
static char *kpdf[] = {
/* columns rows colors chars-per-pixel */
"32 32 178 2",
"   c black",
".  c #0E0000",
"X  c #150000",
"o  c #1A0000",
"O  c #161717",
"+  c gray12",
"@  c #230000",
"#  c #2B0000",
"$  c #330000",
"%  c #3D0000",
"&  c #242424",
"*  c #212E2E",
"=  c #292929",
"-  c #410000",
";  c #490000",
":  c #540000",
">  c #5C0000",
",  c #650000",
"<  c #760000",
"1  c #7C0000",
"2  c #6F3F3F",
"3  c #7E2F2F",
"4  c #743535",
"5  c #743B3B",
"6  c #793232",
"7  c #6C4242",
"8  c #655353",
"9  c #6F5050",
"0  c #754747",
"q  c #7E4444",
"w  c #7C5858",
"e  c #657979",
"r  c #697C7C",
"t  c #746464",
"y  c #7D6565",
"u  c #747272",
"i  c #747D7D",
"p  c #7E7171",
"a  c #7B7878",
"s  c #6E8080",
"d  c #7A8D8D",
"f  c #840000",
"g  c #8A0101",
"h  c #861919",
"j  c #940000",
"k  c #9C0000",
"l  c #812E2E",
"z  c #833131",
"x  c #9A2121",
"c  c #943232",
"v  c #A20000",
"b  c #AB0000",
"n  c #AA0E0E",
"m  c #B20000",
"M  c #BB0000",
"N  c #B61010",
"B  c #BB1111",
"V  c #BE2727",
"C  c #804C4C",
"Z  c #8F4545",
"A  c #894B4B",
"S  c #885757",
"D  c #856363",
"F  c #826B6B",
"G  c #887979",
"H  c #AB4A4A",
"J  c #AF5E5E",
"K  c #AA6E6E",
"L  c #A47373",
"P  c #A57A7A",
"I  c #C40202",
"U  c #CB0000",
"Y  c #CD1E1E",
"T  c #D20000",
"R  c #DA0303",
"E  c #C02C2C",
"W  c #CD2D2D",
"Q  c #C63333",
"!  c #CB3737",
"~  c #D92D2D",
"^  c #D03B3B",
"/  c #E40000",
"(  c #E30909",
")  c #EB0000",
"_  c #E90D0D",
"`  c #F30000",
"'  c #F40A0A",
"]  c #FB0000",
"[  c #F80909",
"{  c #FC1212",
"}  c #E13131",
"|  c #E73B3B",
" . c #F02424",
".. c #FB2525",
"X. c #FE2D2D",
"o. c #F33535",
"O. c #FB3D3D",
"+. c #CD4040",
"@. c #D24B4B",
"#. c #CB7171",
"$. c #EC4D4D",
"%. c #ED5151",
"&. c #F74D4D",
"*. c #FA4646",
"=. c #F75454",
"-. c #F65D5D",
";. c #FC5353",
":. c #E26E6E",
">. c #EB6E6E",
",. c #E17676",
"<. c #EE7979",
"1. c #F56161",
"2. c #FB7575",
"3. c #FC7A7A",
"4. c #808686",
"5. c #8D8181",
"6. c #869898",
"7. c #8F9D9D",
"8. c #979797",
"9. c #9B9D9D",
"0. c #8BA3A3",
"q. c #96A5A5",
"w. c #9BA5A5",
"e. c #9FADAD",
"r. c #A08383",
"t. c #AD8282",
"y. c #A98A8A",
"u. c #AE9595",
"i. c #B98B8B",
"p. c #A3ACAC",
"a. c #A6B9B9",
"s. c #A8B2B2",
"d. c #AFBEBE",
"f. c #B7B7B7",
"g. c #B3B9B9",
"h. c #BBBCBC",
"j. c #BDC4C4",
"k. c #C08282",
"l. c #D98C8C",
"z. c #D9AEAE",
"x. c #EF8484",
"c. c #F58282",
"v. c #F08E8E",
"b. c #FA8F8F",
"n. c #F69191",
"m. c #FB9292",
"M. c #FB9B9B",
"N. c #EDA6A6",
"B. c #F6A1A1",
"V. c #FCA5A5",
"C. c #F8A9A9",
"Z. c #FAB1B1",
"A. c #C1C2C2",
"S. c #C6CBCB",
"D. c #CCCCCC",
"F. c #C7D0D0",
"G. c #C4D9D9",
"H. c #CCD1D1",
"J. c #D3D4D4",
"K. c #D4DBDB",
"L. c #DBDCDC",
"P. c #D2E2E2",
"I. c #DBE1E1",
"U. c #DDE9E9",
"Y. c #E5C5C5",
"T. c #EFCACA",
"R. c #FFDEDE",
"E. c #E3E3E3",
"W. c #E4E9E9",
"Q. c #EBEBEB",
"!. c #E5F0F0",
"~. c #E8F6F6",
"^. c #EFFBFB",
"/. c #FEECEC",
"(. c #F3F3F3",
"). c #F5FCFC",
"_. c #FBFCFC",
"`. c None",
/* pixels */
"`.`.`.`.`.`.`.`.`.`.`.`.`.] ] ../ g     `.`.`.`.`.`.`.`.`.`.`.`.",
"`.`.`.`.`.`.`.`.`.`.`.`.`.) 2./.m.' $     `.`.`.`.`.`.`.`.`.`  .",
"`.`.`.`.`.`.`.`.`.`.`.`.`.v =.M.) ] U     `.`.`.`.`.`.`.`.] V.>.",
"`.`.`.`.`.`.`.`.`.`.`.`.`.  / ) ) ` `       `.`.`.`.`.  ` M.` # ",
"`.`.`.`.`.`.`.`.`.`.`.`.`.  1 ) ) o.] @     `.`.`.`.  ] X.` -   ",
"`.`.`.`.`.`.`.`.`.`.`.`.`.`.  / / 3.' ;     `.`.`.  ] [ ` -     ",
"`.`.`.`.`.`.`.`.`.`.`.`.`.`.  g ) c.` ,     `.`.  ] { ` ;       ",
"`.`.`.`.`.`.`.`.`.`.`.`.`.`.`.  / / ) >     `.  [ ..] ;         ",
"`.`.`.`.`.`.`.`.`.`.`.`.`.`.`.  b / ) g       ' O.` :         `.",
"`.`.`.`.`.`.`.`.`.    `.`.`.`.  v  ./ / $   ( ;.) >         `.`.",
"`.`.`.    + = & = = = O   + = * k 1.) ) T N 1.) >         `.`.`.",
"`.`.T Z A.J.(._._._._.J.D D.~._.N.M.R ) ) n.) >         `.`.`.`.",
"`.  I G._._._._._._._._.S._._.).c.R.! #.M.) g         `.`.`.`.`.",
"`.k b P._._._._.(.(._._.z._._.).$.Z.Q M./ ] T $     `.`.`.`.`.`.",
"`.U k U._.(.(.(.(.(.(._.j.).~.).%.o.B.( u.Y ] m       `.`.`.`.`.",
"`.T g !._.(.(.(.(.(.(.(.g.)._.T.$.C.( y.d.L.T ` f     `.`.`.`.`.",
"`.T h !.(./.Q.Q.Q.Q.(.(.f.).).:.C.( y.s.Q.U.c / / >     `.`.`.`.",
"  U l W.Q.Q.Q.Q.Q.W.E.~.g.^.,.Z.] J s.Q.).K.A v ) T @     `.`.`.",
"  U C E.Q.W.Q.W.E.W.Q.~.i.| &.] U u.S.~.(.J.S k g ) M       `.`.",
"  U w E.W.E.E.E.E.E.Y.$.] ) / ) K p.W.(.Q.D.D b   v ) v       `.",
"  U t E.E.E.E.W.I.n.3.{ V @.] V q.J.Q.Q.Q.D.F m   o b / j       ",
"  U u W.I.L.I.L.M.;._ r.H *./ 9.h.Q.E.E.W.S.p M     $ b T g     ",
"  U i E.L.L.I.<.V.^ 0.i.b.) K p.I.E.E.Q.Q.A.G M       - m } f   ",
"  T d I.J.L.I.-.] ^ l.b./ P q.J.I.L.L.I.E.A.a I         - N W @ ",
"1 U 6.L.J.J.J.z.] ] ] ~ t w.J.L.L.L.L.L.I.A.r U             1 o ",
"m M 0.J.J.J.J.H.D.P 5.7.4.I.L.J.J.L.L.I.E.A.r T       `.        ",
"M m q.L.D.J.J.H.J.J.J.L.9.L.L.L.L.J.J.J.L.z.r T o     `.`.      ",
"m n p.J.J.J.D.J.D.D.J.J.8.L.J.D.J.J.J.K.P.j.r T %     `.`.`.`.`.",
"M x a.L.H.S.j.j.S.K.K.I.w.J.D.H.J.K.I.L.I.S.e U :     `.`.`.`.`.",
"m N z z 3 3 6 4 4 4 5 C 0 5 7 7 2 7 9 y G 5.8 I %     `.`.`.`.`.",
"X k k v v k k k j j j g 1 f g j k v b m M M M m .     `.`.`.`.`.",
"                                                      `.`.`.`.`."
};
