/* XPM */
static char *kpovmodeler[] = {
/* columns rows colors chars-per-pixel */
"32 32 257 2",
"   c #000000",
".  c #00000B",
"X  c #000C00",
"o  c #000012",
"O  c #00001B",
"+  c #001400",
"@  c #001900",
"#  c #000229",
"$  c #000330",
"%  c #010832",
"&  c #00093D",
"*  c #002424",
"=  c #010C42",
"-  c #02044B",
";  c #00065C",
":  c #05154D",
">  c #0D1C56",
",  c #000960",
"<  c #040D72",
"1  c #0E2160",
"2  c #1F337A",
"3  c #004200",
"4  c #064A04",
"5  c #025501",
"6  c #015C00",
"7  c #026300",
"8  c #066709",
"9  c #086D05",
"0  c #066C04",
"q  c #047301",
"w  c #077A03",
"e  c #097400",
"r  c #097E04",
"t  c #0E780A",
"y  c #117608",
"u  c #127B05",
"i  c #157C08",
"p  c #127811",
"a  c #0B6352",
"s  c #307D68",
"d  c #000085",
"f  c #00008E",
"g  c #000B89",
"h  c #00029B",
"j  c #070F9B",
"k  c #050B93",
"l  c #061684",
"z  c #000AAA",
"x  c #0311A1",
"c  c #0915A8",
"v  c #041DBC",
"b  c #092094",
"n  c #0B26A4",
"m  c #0023B9",
"M  c #0F21B2",
"N  c #0D31A5",
"B  c #1324AC",
"V  c #142CB3",
"C  c #192DB0",
"Z  c #1032AA",
"A  c #1833BC",
"S  c #1C3ABC",
"D  c #233C89",
"F  c #0027DB",
"G  c #1132C9",
"H  c #1532C2",
"J  c #173BD6",
"K  c #194CB4",
"L  c #354E9C",
"P  c #2B44BA",
"I  c #2259BE",
"U  c #3553A7",
"Y  c #1E41C3",
"T  c #1C40D0",
"R  c #1F4BE3",
"E  c #2043CB",
"W  c #2548C3",
"Q  c #244BCB",
"!  c #224FDB",
"~  c #2C55CC",
"^  c #2955D3",
"/  c #2853D8",
"(  c #2B59D6",
")  c #2C5CDA",
"_  c #2551D2",
"`  c #3055C3",
"'  c #3A5ACA",
"]  c #2257EB",
"[  c #255AE6",
"{  c #275BE8",
"}  c #2C60DF",
"|  c #3768D8",
" . c #3970C0",
".. c #2E63E1",
"X. c #3166E1",
"o. c #3B75EB",
"O. c #3773F3",
"+. c #4661B1",
"@. c #4263B8",
"#. c #4D6DC3",
"$. c #4C6ED1",
"%. c #4C70C7",
"&. c #4B78D9",
"*. c #4371E0",
"=. c #417AE3",
"-. c #4177F1",
";. c #417EF1",
":. c #0B8405",
">. c #0E8C06",
",. c #009600",
"<. c #009800",
"1. c #158004",
"2. c #188107",
"3. c #1A860A",
"4. c #1F880A",
"5. c #119308",
"6. c #129B0B",
"7. c #1BA011",
"8. c #248E0C",
"9. c #208610",
"0. c #258C13",
"q. c #258D18",
"w. c #23811B",
"e. c #2A940F",
"r. c #2C9316",
"t. c #2C9816",
"y. c #269213",
"u. c #319B13",
"i. c #339A19",
"p. c #218320",
"a. c #36902E",
"s. c #3F9939",
"d. c #369B3B",
"f. c #26B21A",
"g. c #37A116",
"h. c #39A11B",
"j. c #3EA819",
"k. c #3EAC13",
"l. c #2FA123",
"z. c #2FB723",
"x. c #2FB823",
"c. c #3DA629",
"v. c #34B829",
"b. c #3CBB31",
"n. c #449E3E",
"m. c #43AC1C",
"M. c #4AB41F",
"N. c #50BA1B",
"B. c #40A620",
"V. c #46AC23",
"C. c #48AF21",
"Z. c #4BB125",
"A. c #47BB3B",
"S. c #4EB834",
"D. c #50B52B",
"F. c #57BE2A",
"G. c #59BE2E",
"H. c #54BD25",
"J. c #43AA43",
"K. c #59B74F",
"L. c #56BF52",
"P. c #47C62F",
"I. c #4AC531",
"U. c #5AC02E",
"Y. c #59C23B",
"T. c #5DDC3B",
"R. c #61DE3F",
"E. c #54C448",
"W. c #5BC15B",
"Q. c #62DE40",
"!. c #78D251",
"~. c #65CA63",
"^. c #69CF66",
"/. c #78DD68",
"(. c #539D84",
"). c #4B83D7",
"_. c #5A80DF",
"`. c #4785EA",
"'. c #4B8EEF",
"]. c #4685F6",
"[. c #4386F9",
"{. c #5E8CE1",
"}. c #5096F4",
"|. c #5691FD",
" X c #6B9FFF",
".X c #7196E4",
"XX c #6AA7F2",
"oX c #6AA6FE",
"OX c #6CA8FF",
"+X c #7EA3EF",
"@X c #7FA8F9",
"#X c #71B5FB",
"$X c #76BCFF",
"%X c #77C0FF",
"&X c #78C1FF",
"*X c #82DA5C",
"=X c #8AE457",
"-X c #81ADEF",
";X c #8CBCFF",
":X c #9AADE8",
">X c #98B9F2",
",X c #96CF94",
"<X c #A3D49C",
"1X c #A3DB98",
"2X c #A7D0A2",
"3X c #B2DDAC",
"4X c #B4D9B0",
"5X c #BBDAB8",
"6X c #A4E196",
"7X c #A7E897",
"8X c #B1F49D",
"9X c #AFEBA2",
"0X c #B0E6A6",
"qX c #B1E2A9",
"wX c #B0E9A4",
"eX c #B5F4A4",
"rX c #BDF5B2",
"tX c #87C1FC",
"yX c #8AC6FF",
"uX c #8DC8FF",
"iX c #93C3FE",
"pX c #93CFFF",
"aX c #9CC5FF",
"sX c #9DCFFF",
"dX c #96D3FF",
"fX c #9FD0FF",
"gX c #A5CBF9",
"hX c #A2D2FF",
"jX c #AAD3FF",
"kX c #ABDBFF",
"lX c #B3DAFF",
"zX c #B8DCFF",
"xX c #BFE3FF",
"cX c #C4FFBE",
"vX c #C7DCFB",
"bX c #D0DEFF",
"nX c #CDFFC6",
"mX c #D4EFD4",
"MX c #D7FFD9",
"NX c #DCFFDE",
"BX c #C3E2FE",
"VX c #C9E6FF",
"CX c #D3ECFF",
"ZX c #DAEEFF",
"AX c #DDFFE0",
"SX c #DCF1FF",
"DX c #E2FFE4",
"FX c #E6FFE8",
"GX c #EBF7EC",
"HX c #EAFFEC",
"JX c #E3F3FF",
"KX c #E7F8FF",
"LX c #E9F6FF",
"PX c #F2FFF3",
"IX c #F1F9FF",
"UX c #FEFEFE",
"YX c None",
/* pixels */
"YXYXYXYXYXYXYXYXYXYXYXYXYXYXYXYXYXYXYXYXYXYXYXYXYXYXYXYXYXYXYXYX",
"YXYXYXYXYXYXYXYXYXYXYXYXYXYXYXYXYXYXYXYXYXYXYXYXYXYXYXYXYXYXYXYX",
"YXYXYXYXYXYXYXYXYXYXYXYXYXYXYXYXYXYXYXYXYXYXYXYXYXYXYXYXYXYXYXYX",
"YXYXYXYXYXYXYXYXYXYXYXYXYXYXYXYXYXYXYXYXYXYXYXYXYXYXYXYXYXYXYXYX",
"YXYXYXYXYXYXYXYXYXYXYXYXYXYXYXYXYXYXYXYXYXYXYXYXYXYXYXYXYXYXYXYX",
"YXYXYXYXYXYXYXYXYXYXYXYXYXYXYXYXYXYXYXYXYXYXYXYXYXYXYXYXYXYXYXYX",
"YXYXYXYX7 6 6 6 6 6 6 6 6 YXYXYXYXYXYXYXd O YXYXYXYXYXYXYXYXYXYX",
"YXYX7 0 q.c.S.Y.Y.Y.S.c.q.0 3 YXYXYXYXf B - YXYXYXYXYXYXYXYXYXYX",
"YXYXt I.T.T.Q.Q.Q.Q.Q.Q.R.P.4   YXYXYXb &.k o YXYXYXYXYXYXYXYXYX",
"YXYXp K.E.v.f.f.z.z.v.b.I.a.5   YXYXh P XXc ;   YXYXYXYXYXYXYXYX",
"YXYXq t 5XGXmX,Xn.n.s.a.w.i 5   YXYXh _.#XB x O YXYXYXYXYXYXYXYX",
"YXYXw e 4XUXUX2Xw u i i i 0.5   YXz V ;X#XC M <   YXYXYXYXYXYXYX",
"YXYXw 2.3XUXUX<Xu 9.9.9.9.9.6   YXz $.dX#XS V M # YXYXYXYXYXYXYX",
"YXYXr 4.3XPXUX<X4.0.0.0.0.y.6 . x M +XdX$XP V A l   YXYXYXYXYXYX",
"YXYX:.8.3XPXPX<X8.r.r.r.r.u.6 $ m ' hXuX$X~ A S H $ YXYXYXYXYXYX",
"YXYX:.r.qXPXPX1Xe.i.i.i.i.i.7 ; G .XkXuX$X| S Y E b   YXYXYXYXYX",
"YXYX>.i.qXHXHX1Xu.i.c.i.l.h.8 n ^ gXhXuX&X| W E Q T & YXYXYXYXYX",
"YXYX>.g.0XHXHX1Xi.B.m.j.V.j.a J _.BXhXyX&X=.Q _ Q / N   YXYXYXYX",
"YXYX5.j.0XDXFX1Xm.C.C.C.C.c.K T >XxXhXyX&X`._ ( ( ( ! = YXYXYXYX",
"YXYX5.M.0XDXDX7Xm.C.Z.Z.N.s R &.BXzXhXyX&X'.( } } ) } Z   YXYXYX",
"YXYX6.M.9XAXAX7XH.G.G.F.D.I [ +XZXlXsXyX$X}.} } } } } { = YXYXYX",
"YXYX6.!.rXMXMXwX*X*X*X=X(.] o.vXJXZXCXVXBXiX[.].].].o.O.N   YXYX",
"YXYX6./.nXMXDXnX8XeXeX8X).|.;XUXIXLXJXZXSXzXOXOXOXOXOXoX-.% YXYX",
"YXYX<.6 p.J.L.^.^.~.E.d. .iXZXUXIXLXJXZXZXzX;X;X;XiXiXsX X= YXYX",
"YXYXYXYXYX  X + @ + X   m ` :XbXJXKXKXSXSXCXlXlXjXaX@X%.>   YXYX",
"YXYXYXYXYXYXYXYXYXYXYXYXYXYXO : 2 L +.#.#.#.@.U D 1 $   YXYXYXYX",
"YXYXYXYXYXYXYXYXYXYXYXYXYXYXYXYXYXYXYXYXYXYXYXYXYXYXYXYXYXYXYXYX",
"YXYXYXYXYXYXYXYXYXYXYXYXYXYXYXYXYXYXYXYXYXYXYXYXYXYXYXYXYXYXYXYX",
"YXYXYXYXYXYXYXYXYXYXYXYXYXYXYXYXYXYXYXYXYXYXYXYXYXYXYXYXYXYXYXYX",
"YXYXYXYXYXYXYXYXYXYXYXYXYXYXYXYXYXYXYXYXYXYXYXYXYXYXYXYXYXYXYXYX",
"YXYXYXYXYXYXYXYXYXYXYXYXYXYXYXYXYXYXYXYXYXYXYXYXYXYXYXYXYXYXYXYX",
"YXYXYXYXYXYXYXYXYXYXYXYXYXYXYXYXYXYXYXYXYXYXYXYXYXYXYXYXYXYXYXYX"
};
