/* XPM */
static char *kruler-16[] = {
/* columns rows colors chars-per-pixel */
"16 16 18 1",
"  c black",
". c #54450A",
"X c #A58608",
"o c #CCA818",
"O c #CDA919",
"+ c #D1AF26",
"@ c #D4B432",
"# c #D6B533",
"$ c #DABB40",
"% c #DFC14D",
"& c #E0C558",
"* c #E3C85A",
"= c #E8CE67",
"- c #ECD474",
"; c #F1DA81",
": c #F5E08E",
"> c #FAE69B",
", c None",
/* pixels */
",,,,,,,,,,,,,,,,",
"                ",
" .>.>.>.>.>.>.X ",
" .:.:.:.:.:.:.X ",
" ;;;;.;;;;;.;;X ",
" ----.-----.--X ",
" ====.=====.==X ",
" **&**********X ",
" %.%%%.%%%.%%%X ",
" $$.$.$.$..$$$X ",
" #.###..##.###X ",
" ++.+++.++.+++X ",
" O.OOO.OOO.OOOX ",
" XXXXXXXXXXXXXX ",
"                ",
",,,,,,,,,,,,,,,,"
};
