/* XPM */
static char *ksnapshot-16[] = {
/* columns rows colors chars-per-pixel */
"16 16 226 2",
"   c black",
".  c gray2",
"X  c #090909",
"o  c gray10",
"O  c gray19",
"+  c gray20",
"@  c #353535",
"#  c #3F3F3F",
"$  c #3D4C70",
"%  c gray25",
"&  c #464646",
"*  c #4B4B4B",
"=  c #4B4D4D",
"-  c #4E4E4E",
";  c gray31",
":  c #515151",
">  c gray32",
",  c gray33",
"<  c gray35",
"1  c #5B5B5B",
"2  c #5D5D5B",
"3  c #5D5D5F",
"4  c gray37",
"5  c #5F5F5F",
"6  c #626262",
"7  c gray39",
"8  c gray40",
"9  c #053FA7",
"0  c #0544AF",
"q  c #0A47AE",
"w  c #104BAF",
"e  c #174FAD",
"r  c #1D50AC",
"t  c #1150B5",
"y  c #1752B5",
"u  c #1758B9",
"i  c #1E56B1",
"p  c #1D5DBE",
"a  c #3E5280",
"s  c #2965BF",
"d  c #2C66BA",
"f  c #2C69BC",
"g  c #3068BD",
"h  c #316ABE",
"j  c #2163C3",
"k  c #296AC6",
"l  c #2A6DC7",
"z  c #2D68C1",
"x  c #2F6FC3",
"c  c #2D6DC5",
"v  c #2D70C8",
"b  c #2F71C9",
"n  c #306EC4",
"m  c #326EC6",
"M  c #3273CC",
"N  c #3477CE",
"B  c #3879CF",
"V  c #3F7ECE",
"C  c #3B7CD1",
"Z  c #3D7ED2",
"A  c #3D7FD4",
"S  c #4A6797",
"D  c #4C70AC",
"F  c #4A78BE",
"G  c #517FC3",
"H  c #3F80D2",
"J  c #4183D6",
"K  c #4586D6",
"L  c #4587D7",
"P  c #4688D8",
"I  c #4688D9",
"U  c #4988D4",
"Y  c #488AD8",
"T  c #4A8BD9",
"R  c #4D90DC",
"E  c #4F90DC",
"W  c #508FD8",
"Q  c #5294DE",
"!  c #5897DD",
"~  c #5396E0",
"^  c #5497E0",
"/  c #5698E0",
"(  c #599DE5",
")  c #5F9EE1",
"_  c #5EA1E7",
"`  c #7DA4DC",
"'  c #66A6E6",
"]  c #61A6EA",
"[  c #63A7EB",
"{  c #6CACEA",
"}  c #71B2ED",
"|  c #74B5EF",
" . c #818181",
".. c #848484",
"X. c #888888",
"o. c #8D8C89",
"O. c #8E8D8B",
"+. c #8D8D8D",
"@. c #8E8E8E",
"#. c #90908F",
"$. c #92908E",
"%. c #94928E",
"&. c #979594",
"*. c #979694",
"=. c gray59",
"-. c #9B9A97",
";. c #989898",
":. c #9B9B9B",
">. c #9F9D9A",
",. c gray61",
"<. c gray62",
"1. c #A0A0A0",
"2. c gray63",
"3. c gray64",
"4. c #A5A6A4",
"5. c #A6A6A5",
"6. c #A6A6A7",
"7. c #A7A7A7",
"8. c #A8A7A9",
"9. c #A9A9AA",
"0. c gray67",
"q. c #AFAFAF",
"w. c #A6ACB5",
"e. c #B3B3B2",
"r. c gray70",
"t. c #B4B4B4",
"y. c gray72",
"u. c #B9B9B9",
"i. c #BCBCBC",
"p. c gray74",
"a. c #87A1C6",
"s. c #89A0C5",
"d. c #8EA8CC",
"f. c #9BAAC0",
"g. c #9DADC5",
"h. c #91AED5",
"j. c #9DB9E0",
"k. c #B4C1D6",
"l. c #B4C2D5",
"z. c #C1C1C1",
"x. c #C2C2C1",
"c. c #C7C7C6",
"v. c #C8C8C8",
"b. c gray79",
"n. c #CACACA",
"m. c #CBCACA",
"M. c #CBCBCB",
"N. c #CDCCC9",
"B. c #CECCC9",
"V. c #CDCDCD",
"C. c #CECDCC",
"Z. c #CECECE",
"A. c gray81",
"S. c #C7CDD7",
"D. c #CDCFD3",
"F. c #CCCFD5",
"G. c #D0CFCC",
"H. c #D0D0D0",
"J. c gray82",
"K. c #D2D2D1",
"L. c #D3D3D2",
"P. c LightGray",
"I. c #D4D3D0",
"U. c #D4D3D4",
"Y. c #D5D4D3",
"T. c #D7D4D2",
"R. c gray84",
"E. c #D7D7D7",
"W. c #D1D4D8",
"Q. c #D8D6D3",
"!. c #DAD7D4",
"~. c #DAD9D7",
"^. c #DBDAD7",
"/. c #DFDBD6",
"(. c gray85",
"). c #DBDAD8",
"_. c #DBDBDA",
"`. c #DCDAD9",
"'. c #DDDAD8",
"]. c #DDDAD9",
"[. c #DEDDDB",
"{. c #DFDFDF",
"}. c #CFD7E6",
"|. c #D2DAEA",
" X c #D2DBEA",
".X c #D4DDEC",
"XX c #D6DFEE",
"oX c #DBDDE2",
"OX c #D9DFE8",
"+X c #D9E1EA",
"@X c #DAE0E9",
"#X c #DCE4ED",
"$X c #DEE6EE",
"%X c #DFE7EF",
"&X c #D8E1F1",
"*X c #DAE3F1",
"=X c #E1DFDB",
"-X c #E3E1DF",
";X c #E0E3E6",
":X c #E4E4E3",
">X c #E4E4E4",
",X c #E7E6E4",
"<X c #E1E5EC",
"1X c #E4E8EE",
"2X c #E8E6E4",
"3X c #E8E6E5",
"4X c #E9E8E6",
"5X c #EDECEA",
"6X c #EFEDE9",
"7X c #E0E7F0",
"8X c #E1E9F0",
"9X c #E2E9F1",
"0X c #E4EBF2",
"qX c #E6EBF4",
"wX c #E4ECF3",
"eX c #F0ECE7",
"rX c #F1F0EF",
"tX c #F1F1F0",
"yX c #F2F1F1",
"uX c #F0F3F9",
"iX c #F5F9FD",
"pX c #F7FAFF",
"aX c #F9F7F3",
"sX c #FBFCFE",
"dX c gray100",
"fX c None",
/* pixels */
": J.[.].].~.~.~.,X,X,X,X4XZ.+ fX",
"i.sX@X$X8X8X0XwX8X<X$X@X@XdX@.  ",
"N.}.d U ! [ } | { ) T Z f pX&.  ",
"N. Xn A R _ _ [ _ ^ U B m uX#.  ",
"G. Xs B L Q / / ^ U J b z 1XO.  ",
"I. Xw k B J I U L C M j y <XO.  ",
"T..X9 0 u f n v l c f r r oX%.  ",
"T.XXq i s.w.f.d.a.g.W.F.D.S.k.= ",
"Q.&Xt F dXdXaX5X/.6XrX5X=Xk.j.3 ",
"~.*Xp G ~.J.n.p.oX,X>.-.M.I.:X2 ",
"].qX` h.t.5.<.3.rX0.a $ =.M.R.< ",
"Z.dXpX;Xr.8.<.3.rX8.D S O.i.-.& ",
"* n.N.z.q.3.<.;.U.,Xe.5.i.8. .# ",
"fX  . @ 0.<.;.+.<.G.U.c.t.X...% ",
"fXfXfX+ ~.E.G.n.z.b.I.Z.i.t.y.= ",
"fXfXfX. 7 8 7 3 3 < , , : ; ; o "
};
