/* XPM */
static char *kuickshow-16[] = {
/* columns rows colors chars-per-pixel */
"16 14 21 1",
"  c black",
". c #000033",
"X c gray20",
"o c #006633",
"O c #336633",
"+ c #0033FF",
"@ c #3333FF",
"# c #6666FF",
"$ c #009933",
"% c #669933",
"& c #9900CC",
"* c #9933CC",
"= c #9933FF",
"- c #9966FF",
"; c #CC66CC",
": c #9999FF",
"> c #CC99FF",
", c #CCCCFF",
"< c #FFCCFF",
"1 c gray100",
"2 c None",
/* pixels */
"2222222221,:2222",
"22211,:21,>:2222",
"22-<>1>-::->1122",
"22-,:->--:11>--2",
"222:-++@@-+-::#2",
"-11>-=>* @@+:@+2",
"1<::@=. @-:@*222",
">-@>>:@@##>+oo22",
"@@1+@>,#@>-=$%O2",
"-1-+@1:#--&OOXOO",
"-1;:@<:::*&2oOO2",
"2+@@2<:*22o%2222",
"2222222222o%2222",
"22222222222oo222"
};
