/* XPM */
static char *kview[] = {
/* columns rows colors chars-per-pixel */
"32 32 200 2",
"   c #010102",
".  c #050609",
"X  c #06080D",
"o  c #0C0501",
"O  c #080609",
"+  c #090A0F",
"@  c #070910",
"#  c #090B12",
"$  c #0F1119",
"%  c #100702",
"&  c #130A02",
"*  c #100E11",
"=  c #111011",
"-  c #10141D",
";  c #131621",
":  c #1F232D",
">  c #1D2130",
",  c #23202D",
"<  c #2A2727",
"1  c #2A2828",
"2  c #212533",
"3  c #24293A",
"4  c #2B2B3B",
"5  c #2C3042",
"6  c #323342",
"7  c #30364B",
"8  c #343A4E",
"9  c #3F3B41",
"0  c #3D3B4B",
"q  c #373E53",
"w  c #3D3D50",
"e  c #3C4252",
"r  c #3C435A",
"t  c #41290D",
"y  c #523D27",
"u  c #51463E",
"i  c #40465E",
"p  c #4F4D50",
"a  c #514E5A",
"s  c #57555E",
"d  c #595559",
"f  c #464C60",
"g  c #4D5571",
"h  c #50576F",
"j  c #51586B",
"k  c #5B5B64",
"l  c #575F7B",
"z  c #5B6276",
"x  c #5C637E",
"c  c #686A7F",
"v  c #606682",
"b  c #606981",
"n  c #687089",
"m  c #707185",
"M  c #7B7A8B",
"N  c #707894",
"B  c #777F9F",
"V  c #7C849C",
"C  c #7780A1",
"Z  c #91611F",
"A  c #9B6920",
"S  c #906535",
"D  c #A26F20",
"F  c #A77321",
"G  c #B88024",
"H  c #A4815A",
"J  c #BF9C78",
"K  c #D08514",
"L  c #D98E1C",
"P  c #DC9018",
"I  c #DF9C2F",
"U  c #E19418",
"Y  c #EEA82C",
"T  c #E8A331",
"R  c #F0AA2D",
"E  c #F3AD31",
"W  c #DEA951",
"Q  c #FFE07F",
"!  c #96959C",
"~  c #848BA0",
"^  c #838BAA",
"/  c #8C8DA4",
"(  c #8F90A7",
")  c #8890AE",
"_  c #8790B2",
"`  c #8891B2",
"'  c #8997B8",
"]  c #9291A7",
"[  c #979DB5",
"{  c #9C9CB1",
"}  c #95A0B8",
"|  c #A4A3B6",
" . c #A5A5B8",
".. c #A5A9BA",
"X. c #ABABBD",
"o. c #96A0C0",
"O. c #9BA6C3",
"+. c #9CA5C8",
"@. c #A5ABC3",
"#. c #A6AECC",
"$. c #A3ADD4",
"%. c #A9B1CE",
"&. c #A7B2D8",
"*. c #A3BDD2",
"=. c #ABB3D0",
"-. c #ABB5DB",
";. c #B2B1C2",
":. c #B3B9CF",
">. c #BBB8C8",
",. c #B5BEDC",
"<. c #B2BCE3",
"1. c #96CEF6",
"2. c #9BCBF5",
"3. c #98CEFB",
"4. c #93D2FB",
"5. c #9ED4F7",
"6. c #99D7FB",
"7. c #9CDAFB",
"8. c #B7C1CE",
"9. c #B4C3D2",
"0. c #B5C5DE",
"q. c #BDC5D4",
"w. c #BAC1DD",
"e. c #A5C5E3",
"r. c #A2CEF3",
"t. c #A4DEFB",
"y. c #ABD2F3",
"u. c #AAD6FD",
"i. c #AEDBF4",
"p. c #BEC5E0",
"a. c #BCD3EC",
"s. c #BDD9E1",
"d. c #BCDFEB",
"f. c #A5E0FC",
"g. c #ABE3FB",
"h. c #AFE8FD",
"j. c #B9E0EF",
"k. c #B2E5FA",
"l. c #B3EAFC",
"z. c #B8EDFC",
"x. c #BCF2FE",
"c. c #CBB59D",
"v. c #D8BA8F",
"b. c #ECCA82",
"n. c #F6D383",
"m. c #FAD887",
"M. c #F2DB9E",
"N. c #E5D0B4",
"B. c #E4D0B9",
"V. c #E9D3B4",
"C. c #F3DCBA",
"Z. c #FFE181",
"A. c #C2C8D5",
"S. c #C4CDDC",
"D. c #C8C7D4",
"F. c #CCCBD4",
"G. c #CBCDDA",
"H. c #C4CBE3",
"J. c #C9CDE4",
"K. c #CCD1E6",
"L. c #CCD3E9",
"P. c #C9DDE4",
"I. c #CDD7F0",
"U. c #D2D5E2",
"Y. c #D4DBE2",
"T. c #D4D9EB",
"R. c #DBD9E3",
"E. c #DBDEED",
"W. c #D3DBF2",
"Q. c #D8DEF0",
"!. c #C5E1EA",
"~. c #CBEAEE",
"^. c #C6E8F0",
"/. c #C1F5FE",
"(. c #C4F9FE",
"). c #C9F4FE",
"_. c #CCFDFF",
"`. c #DEE1ED",
"'. c #D2ECF0",
"]. c #DFE3F3",
"[. c #D4FEFF",
"{. c #DBFFFF",
"}. c #E1DEE7",
"|. c #FEF6C3",
" X c #E2E2EC",
".X c #E4E5F0",
"XX c #E1E6F8",
"oX c #E5E8F3",
"OX c #E4E9F9",
"+X c #EBEBF3",
"@X c #E2FEFF",
"#X c #EEF0F6",
"$X c #EFF3FE",
"%X c #EAFEFE",
"&X c #F0F0F6",
"*X c #F4F4F9",
"=X c #F3FBFE",
"-X c #F8F7FA",
";X c #FEFEFE",
":X c None",
/* pixels */
":X:X:X:X:X:X:X:X:X:X:X:X:X:X:X:X:X:X:X:X:X:X:X:X:X:X:X:X:X:X:X:X",
":X:X:X:X:X:X:X:X:X:X:X:X:X:X5 8 @ :X:X:X:X:X:X:X:X:X:X:X:X:X:X:X",
":X:X:X:X:X:X:X:X:X:X:X:X:X8 L.].=.v 2 :X:X:X:X:X:X:X:X:X:X:X:X:X",
":X:X:X:X:X:X:X:X:X:X:X  7 &.Q.;X;X=XL.^ r # :X:X:X:X:X:X:X:X:X:X",
":X:X:X:X:X:XX 3 r x V @.L.oXJ.H.-X-X;X;XOX%.l > :X:X:X:X:X:X:X:X",
":XX e i z ~ :.K..X;X;X;X-X+X*XS.J.-X&X&X-X;X=XJ.^ q # :X:X:X:X:X",
":X. O.$X;X;X-X+X.X`. X X.X+X+X&X,.L.+X&X+X+X&X;X;X].#.l , . :X:X",
":X:Xj &X+Xa.r.1.1.5.i.H.U. X+X+X&X$.,.J.`.+X+X X+X*X;X=X<.7 :X:X",
":X:Xp L.2.4.7.g.g.g.g.f.i.S. X+X#XE.H.].H.,.K. X.X X;X*XB # :X:X",
":X< q.3.6.k.z.l.l.t.t.h.l.l.A. X+X*XH.].;X&XL.,.H.oX=X` # :X:X:X",
":X! u.6.l.(._._.l.x.h.k.l.x.j.D.#X#X&X,..X-X;X-XE.H.-.r :X:X:X:X",
"< 0.4.g./.[.@X%Xz.(.(.x.(.(._.9.R.#X-X}.,.#X+X+X*X-X+XJ.) i $ :X",
"d y.6.h.(.{.=X%Xx.).[._._.[.[.s.>.*X#X-XH.L.#XoX.X.X+X-X;XOX$.5 ",
"k u.7.g.z.{.@X).(.{.[.{.{.[.{.~.X.#X&X&X&X,. X+X+X.X.X X-X;X` # ",
"k u.t.g.g.g.l.x.[.{.{.{.{.@X@X~.| &X*X&X*X.X,.+X+X.X X*X;X+.; :X",
"s y.t.t.l.z./.[.{.[.@X@X%X%X%XP.| -X-X*X&X;XJ.J.+X X+X;Xw.3 :X:X",
"9 e.f.f.t.z.(.[.[.{.@X%X=X=X=X9.X.;X-X&X*X-X-X,. X+X;XOXg   :X:X",
"= } f.h.f.k./._.{.@X%X=X=X=X=X...X;X;X;X;X-X.X,.,.;X=XC . :X:X:X",
":Xs e.h.k.h.(._.[.@X%X%X;X;XA...=X XT.J.,.,.H.J.+X;X[ $ :X:X:X:X",
":X. m y.x.x./._.[.{.%X%X;XY.( { ,.I.Q.`.+X#X#X-X;X,.> :X:X:X:X:X",
":X:X* c e.x._._.{.{.%X%X8./ X.;.U.V.C.;X*X+X*X;XL.8 :X:X:X:X:X:X",
":X:X:X  0 V *.j.^.!.9.[ ;.F.F.G.c.I P V.=X-X;XXXh   :X:X:X:X:X:X",
":X:X:X:X:XO , 6 w 4 3 b J.=X;Xv.b.n.Y P N.;X=XN   :X:X:X:X:X:X:X",
":X:X:X:X:X:X:X:X:X:X:X  : b X.W Z.|.m.Y P B.' @ :X:X:X:X:X:X:X:X",
":X:X:X:X:X:X:X:X:X:X:X:X:X:X- u F Q |.m.Y L y :X:X:X:X:X:X:X:X:X",
":X:X:X:X:X:X:X:X:X:X:X:X:X:X:X:X& F Q |.m.E K t :X:X:X:X:X:X:X:X",
":X:X:X:X:X:X:X:X:X:X:X:X:X:X:X:X:X& F Q |.n.E K t   :X:X:X:X:X:X",
":X:X:X:X:X:X:X:X:X:X:X:X:X:X:X:X:X:X& Z Z.|.m.T S   :X:X:X:X:X:X",
":X:X:X:X:X:X:X:X:X:X:X:X:X:X:X:X:X:X:Xo Z Z.M.J M   :X:X:X:X:X:X",
":X:X:X:X:X:X:X:X:X:X:X:X:X:X:X:X:X:X:X:Xo Z H ] 6   :X:X:X:X:X:X",
":X:X:X:X:X:X:X:X:X:X:X:X:X:X:X:X:X:X:X:X:Xo * X   :X:X:X:X:X:X:X",
":X:X:X:X:X:X:X:X:X:X:X:X:X:X:X:X:X:X:X:X:X:X:X:X:X:X:X:X:X:X:X:X"
};
