/* XPM */
static char *kview-16[] = {
/* columns rows colors chars-per-pixel */
"16 16 172 2",
"   c black",
".  c #010205",
"X  c #040407",
"o  c #06070A",
"O  c #09090E",
"+  c #0C0A0E",
"@  c #080B10",
"#  c #0C0E14",
"$  c #0C0E15",
"%  c #0F1118",
"&  c #11131A",
"*  c #15171D",
"=  c #1A191D",
"-  c #1C1A1A",
";  c #151820",
":  c #171A24",
">  c #201303",
",  c #271804",
"<  c #2D1C06",
"1  c #301F0A",
"2  c #3A2C1D",
"3  c #2F313B",
"4  c #2F323F",
"5  c #303441",
"6  c #373946",
"7  c #3A3D4A",
"8  c #3E404E",
"9  c #47392E",
"0  c #4A4031",
"q  c #444857",
"w  c #464A5B",
"e  c #584D48",
"r  c #505362",
"t  c #525665",
"y  c #575D73",
"u  c #5B6176",
"i  c #666E7B",
"p  c #6A6F7F",
"a  c #657081",
"s  c #6D7181",
"d  c #707487",
"f  c #C08320",
"g  c #E5A63F",
"h  c #E9A83A",
"j  c #D7B566",
"k  c #D3B56C",
"l  c #E0C377",
"z  c #F3CB76",
"x  c #868A99",
"c  c #84899D",
"v  c #9798A1",
"b  c #89A0B8",
"n  c #8DA3BB",
"m  c #9EA2B4",
"M  c #9AA1B8",
"N  c #9DA7BD",
"B  c #A4A6B3",
"V  c #ABADBE",
"C  c #94B1C4",
"Z  c #99B5CF",
"A  c #9CBED7",
"S  c #B4B5C9",
"D  c #B4B9CB",
"F  c #B7BAC9",
"G  c #B5BCCD",
"H  c #B8BDCE",
"J  c #BBC0CD",
"K  c #ADDCFA",
"L  c #B3DEFD",
"P  c #BBDBF1",
"I  c #A4E2FF",
"U  c #A6E3FC",
"Y  c #AAE3FF",
"T  c #A8E5FF",
"R  c #A9E5FF",
"E  c #ACE6FC",
"W  c #AEE7FD",
"Q  c #AFE8FF",
"!  c #B3E2F4",
"~  c #B0E7FC",
"^  c #B2ECFE",
"/  c #BCF2FD",
"(  c #BFF1FD",
")  c #BDF9FF",
"_  c #D4BDA1",
"`  c #F6CE89",
"'  c #EDD5B3",
"]  c #FFE48B",
"[  c #FFE591",
"{  c #CFD0DB",
"}  c #CCD0DD",
"|  c #D4D5DF",
" . c #C1DFE9",
".. c #CBD0E6",
"X. c #CFD2E0",
"o. c #CFD5E8",
"O. c #D2D6E6",
"+. c #D2D7E9",
"@. c #D3D7EA",
"#. c #D2DDE4",
"$. c #D5D8E6",
"%. c #D5DBE5",
"&. c #D3D8EA",
"*. c #D2D9ED",
"=. c #D4D9EB",
"-. c #D6DAEB",
";. c #D7DCE9",
":. c #D9DCEC",
">. c #DCDEED",
",. c #DBDFF0",
"<. c #CBEEF2",
"1. c #C3F6FE",
"2. c #C6F3FB",
"3. c #C1F9FF",
"4. c #C7F9FF",
"5. c #C8FAFF",
"6. c #CAF9FE",
"7. c #C9FDFF",
"8. c #CEF9FE",
"9. c #DDE0ED",
"0. c #D5E7F0",
"q. c #D5EDF1",
"w. c #DAE1F5",
"e. c #DFE2F0",
"r. c #D3FFFF",
"t. c #D5FFFF",
"y. c #D8FDFF",
"u. c #D8FFFF",
"i. c #DBFFFF",
"p. c #DFFAFF",
"a. c #DDFFFF",
"s. c #DEFFFF",
"d. c #E9DBC6",
"f. c #F4E2C8",
"g. c #E3E4EF",
"h. c #E7E7EC",
"j. c #E9E7EE",
"k. c #E2E5F1",
"l. c #E7E7F0",
"z. c #E7E9F3",
"x. c #E7E9F5",
"c. c #E7EBFB",
"v. c #E9E8F1",
"b. c #E8EBF6",
"n. c #E8EBF7",
"m. c #EAEAF4",
"M. c #EFECF3",
"N. c #ECECF4",
"B. c #EDEDF5",
"V. c #E1F4FF",
"C. c #E1FFFF",
"Z. c #E7FFFF",
"A. c #EEF5F7",
"S. c #EBFFFF",
"D. c #F0EFF9",
"F. c #F2F3F8",
"G. c #F3F2FA",
"H. c #F0F3FE",
"J. c #F4F3F8",
"K. c #F6F5FA",
"L. c #F7F7FB",
"P. c #F6F5FC",
"I. c #F2FFFF",
"U. c #FBFAFD",
"Y. c #FAFAFE",
"T. c #FAFBFF",
"R. c #F9FCFF",
"E. c #FAFFFF",
"W. c #FCFCFF",
"Q. c #FDFEFF",
"!. c gray100",
"~. c None",
/* pixels */
"~.~.~.~.~.~.% c t # ~.~.~.~.~.~.",
"~.~.~.% 4 q M c.T.} d : ~.~.~.~.",
"X p v F O.D.K.>.:.T.!.%.x 5 o ~.",
"~.B V.L K P ;.M.....:.m.W.H.y ~.",
"- Z I ^ E I ! %.B.&.m.+.,.H $ ~.",
"i Y 4.s.2./ 3. .j.e.>.J.m.D r * ",
"n R 8.p.4.t.t.<.| K.@.k.l.G.!.y ",
"b R W 1.t.C.Z.q.{ T.B.+.l.!.m O ",
"a ~ ~ 4.s.S.R.#.h.K.G.o.z.X.; ~.",
"= A ) 7.s.I.A.V *.w.-.k.x.7 ~.~.",
"~.4 C 2.t.0.H S _ ' R.!.s   ~.~.",
"~.~.+ 6 7 w H d.z h f.N . ~.~.~.",
"~.~.~.~.~.~.@ 0 j [ g 2 ~.~.~.~.",
"~.~.~.~.~.~.~.~., k ] f > ~.~.~.",
"~.~.~.~.~.~.~.~.~.< l ` 9 ~.~.~.",
"~.~.~.~.~.~.~.~.~.~.1 e & ~.~.~."
};
