/* XPM */
static char *magick[] = {
/* columns rows colors chars-per-pixel */
"18 36 204 2",
"   c #19385d",
".  c #003263",
"X  c #003870",
"o  c #173e69",
"O  c #193f69",
"+  c #243f5d",
"@  c #05417e",
"#  c #06417e",
"$  c #06427e",
"%  c #26476b",
"&  c #28466b",
"*  c #2d5079",
"=  c #004e9b",
"-  c #174d8a",
";  c #1b4d80",
":  c #005bb7",
">  c #1459a2",
",  c #195ca2",
"<  c #1561b4",
"1  c #1661b4",
"2  c #1763b4",
"3  c #1863b4",
"4  c #1964b4",
"5  c #1a65b4",
"6  c #1c66b4",
"7  c #1f67b4",
"8  c #1e68b4",
"9  c #215080",
"0  c #20538a",
"q  c #236bb4",
"w  c #306eb3",
"e  c #3170b3",
"r  c #006ad3",
"t  c #1768c1",
"y  c #1d73d2",
"u  c #1f74d2",
"i  c #236fc1",
"p  c #2670c7",
"a  c #2871c7",
"s  c #2b73c7",
"d  c #2579d2",
"f  c #2f7ed2",
"g  c #3a7cc7",
"h  c #3c7fc7",
"j  c #4272b0",
"k  c #4473b0",
"l  c #4e7cb0",
"z  c #3f81c7",
"x  c #2e81e4",
"c  c #3183e4",
"v  c #3885e2",
"b  c #3d88e9",
"n  c #3e8ae9",
"m  c #398dff",
"M  c #3b8eff",
"N  c #3c8fff",
"B  c #3e8fff",
"V  c #3b90ff",
"C  c #3d91ff",
"Z  c #3f91ff",
"A  c #5c83b0",
"S  c #4584c7",
"D  c #4885c7",
"F  c #4481d0",
"G  c #4d8bd6",
"H  c #5390d6",
"J  c #5691d6",
"K  c #5a95d6",
"L  c #5f94d0",
"P  c #428ae2",
"I  c #418be4",
"U  c #418de4",
"Y  c #408ee4",
"T  c #408ae9",
"R  c #438ce9",
"E  c #4890e9",
"W  c #4c92e9",
"Q  c #4e94e9",
"!  c #4391f6",
"~  c #4093ff",
"^  c #4293ff",
"/  c #4395ff",
"(  c #4796ff",
")  c #4991f0",
"_  c #4997ff",
"`  c #4a98ff",
"'  c #4d99ff",
"]  c #4c9aff",
"[  c #4e9bff",
"{  c #4f9cff",
"}  c #5197e9",
"|  c #5296e9",
" . c #559ae4",
".. c #5398e9",
"X. c #599ce9",
"o. c #5b9fe9",
"O. c #5d9fe9",
"+. c #549ef6",
"@. c #519cff",
"#. c #549fff",
"$. c #569fff",
"%. c #599cf0",
"&. c #5a9ff6",
"*. c #5d9ef0",
"=. c #5ea1e9",
"-. c #57a0ff",
";. c #5ba0f6",
":. c #5ca0f6",
">. c #58a1ff",
",. c #58a2ff",
"<. c #5aa3ff",
"1. c #5ca4ff",
"2. c #5fa8ff",
"3. c #6192d0",
"4. c #6095d0",
"5. c #6498d0",
"6. c #649adb",
"7. c #699fdb",
"8. c #729ed0",
"9. c #63a4e9",
"0. c #68a6e9",
"q. c #63a5f6",
"w. c #61a6ff",
"e. c #65a6ff",
"r. c #66a7ff",
"t. c #61a8ff",
"y. c #62a9ff",
"u. c #64a9ff",
"i. c #65aaff",
"p. c #67a8ff",
"a. c #67abff",
"s. c #67acff",
"d. c #6babf0",
"f. c #69a8f0",
"g. c #68acf6",
"h. c #6dabf6",
"j. c #68a9ff",
"k. c #69aaff",
"l. c #6aabff",
"z. c #68adff",
"x. c #69aeff",
"c. c #6db0ff",
"v. c #6fb0ff",
"b. c #6eb3ff",
"n. c #71aef0",
"m. c #70adff",
"M. c #71aeff",
"N. c #76b0f0",
"B. c #70b1ff",
"V. c #73b3ff",
"C. c #73b6ff",
"Z. c #74b4ff",
"A. c #75b7ff",
"S. c #76b7ff",
"D. c #77b8ff",
"F. c #78b3ff",
"G. c #79b4ff",
"H. c #78b7ff",
"J. c #7ab5ff",
"K. c #7cb7ff",
"L. c #79b8ff",
"P. c #7bb9ff",
"I. c #7abaff",
"U. c #7dbbff",
"Y. c #7fbcff",
"T. c #83bbff",
"R. c #81bdff",
"E. c #82beff",
"W. c #84bcff",
"Q. c #86bdff",
"!. c #89c0ff",
"~. c #8bc1ff",
"^. c #8bc2ff",
"/. c #8fc3ff",
"(. c #90c3ff",
"). c #90c6ff",
"_. c #93c7ff",
"`. c #94c7ff",
"'. c #93c8ff",
"]. c #94c8ff",
"[. c #96c9ff",
"{. c #97caff",
"}. c #99cbff",
"|. c #9acbff",
" X c #9bccff",
".X c #9ccbff",
"XX c #9ccdff",
"oX c #9fceff",
"OX c #a0ceff",
"+X c #a2cfff",
"@X c #a3d1ff",
"#X c #a6d1ff",
"$X c #a6d2ff",
"%X c #a8d2ff",
"&X c #b8dcff",
"*X c #cae4ff",
"=X c #d3e9ff",
"-X c #d4e9ff",
";X c #d5eaff",
":X c #d7ebff",
">X c #d8ebff",
",X c #d9ecff",
"<X c #daedff",
"1X c Gray100",
/* pixels */
"m m m B V m m B B C C C C C C C C C ",
"B C C C C ~ ~ ~ ~ ~ ~ / ~ / ~ / ( / ",
"e.e.e.&.I I &.p.p.p.;.Y Y :.k.k.k.k.",
"( _ _ x 1X1Xt n ` ! y 1X1Xa ) ' ' { ",
"' ' ' c 1X1X1X< v u 1X1X1X- F #.#.#.",
"M.M.M.q.i 1X1X1X: 1X1X1X@ & 3.F.G.G.",
"#.#.-.-.E < 1X1X1X1X1X@   j %.w.w.t.",
"<.<.<.<.1.P : 1X1X1X: o k *.p.p.p.p.",
"F.G.G.G.h.f 1X1X1X1X1X, 6.T.T.W.W.W.",
"t.t.2.+.d 1X1X1X: 1X1X1X6 o.b.x.b.V.",
"z.z.s.Y 1X1X1X@ O > 1X1X1Xw f.V.V.A.",
"!.!.!. .1X1X@ + A 7.q 1X1X9 8././.(.",
"P.L.G.g.h 0 % l f.b.o.e ; * 4.L.L.L.",
"R.R.Y.Y.N.5.5.n.D.A.C.f.L 4.n.L.P.P.",
"OXXXXX.X|.|.|.[.[.[._._._._._.`.[.[.",
"%X%X$X$X@X@XOXOXXXXXXX X|.[.[.|.|.[.",
"<X,X,X,X,X>X>X-X-X-X-X-X=X=X=X=X*X&X",
". . . . . . . . . . . . . . . X = r ",
"m m m m V m m B B C C C C C C C C C ",
"B C ~ C C ~ ~ ~ ~ ~ ~ / ~ / ~ / / / ",
"e.e.e.e.e.e.p.p.p.p.k.k.k.k.k.k.k.k.",
"_ _ _ _ n p p n ` ' ' n a a T ' ' { ",
"' ' ' ' a 1X1X< R @.R < 1X1Xa #.#.#.",
"M.M.M.M.g 1X1X1X6 G 6 1X1X1Xh F.G.G.",
"#.#.-.-.E < 1X1X1X: 1X1X1X4 Q w.w.t.",
"<.<.<.<.1.W 3 1X1X1X1X1X4 | p.p.p.p.",
"F.G.G.G.K.K.H : 1X1X1X: J T.T.W.W.W.",
"t.t.2.w.t.| 4 1X1X1X1X1X6 o.b.x.b.V.",
"z.z.s.s...4 1X1X1X: 1X1X1X6 O.V.V.A.",
"!.!.!.!.S 1X1X1Xq K q 1X1X1XD /./.(.",
"L.L.G.A.h 1X1X8 o.b.o.8 1X1Xh L.L.L.",
"R.R.Y.Y.0.z z 9.D.A.C.=.h h 9.L.P.P.",
"OXXXXX.X|.|.|.[.[.[._._._./._.`.[.[.",
"%X%X$X$X@X$XOXOXXXXXXXXX|.[.[.|.|.'.",
",X,X,X,X,X>X>X-X-X-X-X-X=X=X=X=X*X&X",
". . . . . . . . . . . . . . . X = r "
};
