/* XPM */
static char *magick[] = {
/* columns rows colors chars-per-pixel */
"18 36 135 2",
"   c #003263",
".  c #003870",
"X  c #0a437e",
"o  c #0a447e",
"O  c #3a4b5d",
"+  c #2f4d69",
"@  c #314d69",
"#  c #43576b",
"$  c #495a6b",
"%  c #4e6479",
"&  c #004e9b",
"*  c #005bb6",
"=  c #005bb7",
"-  c #015bb7",
";  c #305880",
":  c #325980",
">  c #38618a",
",  c #3b638a",
"<  c #2664a2",
"1  c #2965a2",
"2  c #3474b4",
"3  c #3574b4",
"4  c #3675b4",
"5  c #3775b4",
"6  c #3776b4",
"7  c #3876b4",
"8  c #3976b4",
"9  c #3977b4",
"0  c #006ad3",
"q  c #5784b3",
"w  c #5886b3",
"e  c #4281c1",
"r  c #4381c1",
"t  c #4c8fd2",
"y  c #5091d2",
"u  c #5191d2",
"i  c #6697c7",
"p  c #6797c7",
"a  c #6897c7",
"s  c #6898c7",
"d  c #6b98c7",
"f  c #6c99c7",
"g  c #6d9ac7",
"h  c #6e9ac7",
"j  c #709cc7",
"k  c #7db1e4",
"l  c #8b9db0",
"z  c #90a0b0",
"x  c #91a1b0",
"c  c #92a1b0",
"v  c #8bb1d6",
"b  c #8cb2d6",
"n  c #8fb2d6",
"m  c #90b3d6",
"M  c #83b3e4",
"N  c #84b4e4",
"B  c #85b5e4",
"V  c #8ab7e4",
"C  c #8bb8e4",
"Z  c #91b9e2",
"A  c #96bbe2",
"S  c #a3bad0",
"D  c #a4bad0",
"F  c #a6bbd0",
"G  c #a6bcd0",
"H  c #a3bfdb",
"J  c #aebfd0",
"K  c #a7c0db",
"L  c #aec0d0",
"P  c #b3c2d0",
"I  c #a4c7e9",
"U  c #a5c8e9",
"Y  c #a6c8e9",
"T  c #a7c9e9",
"R  c #a9c9e9",
"E  c #aacae9",
"W  c #adcbe9",
"Q  c #afcbe9",
"!  c #b0cce9",
"~  c #b1cde9",
"^  c #b0d3f6",
"/  c #b2d4f6",
"(  c #bbd6f0",
")  c #bcd7f0",
"_  c #bad9f6",
"`  c #bbd9f6",
"'  c #bed8f0",
"]  c #bed9f6",
"[  c #c0d8f0",
"{  c #c2d9f0",
"}  c #c1dcf6",
"|  c #c2dcf6",
" . c #c2ddf6",
".. c #c3ddf6",
"X. c #c5daf0",
"o. c #c7dbf0",
"O. c #caddf0",
"+. c #c7e3ff",
"@. c #c8e4ff",
"#. c #c9e4ff",
"$. c #cae5ff",
"%. c #cbe5ff",
"&. c #cce6ff",
"*. c #cde6ff",
"=. c #cee7ff",
"-. c #cfe7ff",
";. c #d0e8ff",
":. c #d1e8ff",
">. c #d2e9ff",
",. c #d3e9ff",
"<. c #d4eaff",
"1. c #d5eaff",
"2. c #d5ebff",
"3. c #d6ebff",
"4. c #d7ebff",
"5. c #d8ebff",
"6. c #d8ecff",
"7. c #d9ecff",
"8. c #daedff",
"9. c #dbedff",
"0. c #dceeff",
"q. c #ddeeff",
"w. c #ddefff",
"e. c #deefff",
"r. c #dfefff",
"t. c #e1f0ff",
"y. c #e8f4ff",
"u. c #ebf5ff",
"i. c #ecf6ff",
"p. c #edf6ff",
"a. c #eef6ff",
"s. c #eef7ff",
"d. c #eff7ff",
"f. c #f0f7ff",
"g. c Gray100",
/* pixels */
"1.1.1.1.1.5.1.5.8.8.8.8.8.8.8.8.8.8.",
"1.1.1.1.1.1.1.1.1.1.1.8.4.8.8.8.8.8.",
"8.8.8.} V V } q.q.q.} C C } q.r.q.q.",
":.:.:.N g.g.e ! 1._ u g.g.h O.1.1.8.",
"&.:.:.M g.g.g.6 A u g.g.g.> J 1.1.5.",
"1.1.1.] e g.g.g.- g.g.g.o $ P q.q.q.",
"&.&.&.&.E 6 g.g.g.g.g.X O x o.1.1.1.",
"%.%.%.%.&.Z - g.g.g.- @ x o.:.:.:.1.",
":.:.:.1._ u g.g.g.g.g.1 K 8.8.8.8.8.",
"%.%.+.^ t g.g.g.- g.g.g.6 E &.:.:.:.",
"%.%.%.k g.g.g.X + < g.g.g.w [ &.&.:.",
"1.1.1.N g.g.X O x H 7 g.g.; L 1.1.5.",
"&.&.&./ a > # l ) +.U q ; % F &.&.&.",
"&.&.&.&.[ G F ' %.%.%.( S F ' %.&.&.",
"8.8.5.1.5.1.1.1.:.1.:.:.:.:.:.1.1.1.",
"q.8.8.8.8.8.5.5.1.1.1.1.1.1.:.1.:.:.",
"f.i.f.i.f.f.i.i.i.i.i.i.i.i.i.y.y.t.",
"                              . & 0 ",
"1.1.1.1.1.5.1.1.8.8.8.8.8.8.8.8.8.8.",
"1.1.1.1.1.1.1.1.1.1.1.4.8.8.8.8.8.8.",
"8.8.8.q.q.q.q.q.q.q.q.q.q.q.q.r.q.q.",
":.:.:.:.W h h ! 1.1.1.! h h ! 1.1.8.",
"&.:.:.:.d g.g.6 W :.! 7 g.g.h 1.1.1.",
"1.1.1.5.h g.g.g.7 m 7 g.g.g.j q.q.q.",
"&.&.&.&.E 6 g.g.g.- g.g.g.7 W 1.1.1.",
"%.%.%.%.&.E 6 g.g.g.g.g.6 W :.:.:.1.",
":.:.:.1.1.:.n - g.g.g.- n 8.8.8.8.8.",
"%.%.+.%.%.U 6 g.g.g.g.g.6 E &.:.:.:.",
"%.%.%.%.I 2 g.g.g.- g.g.g.6 E &.&.:.",
"1.1.:.1.h g.g.g.6 v 6 g.g.g.h 1.5.5.",
"&.&.&.%.p g.g.6 I +.U 6 g.g.a &.&.&.",
"&.&.&.&.E d a U %.%.%.I p p U %.&.&.",
"8.8.5.1.5.1.1.1.1.1.:.:.:.:.:.1.1.1.",
"q.8.8.8.8.8.5.5.1.1.1.1.1.1.:.1.1.:.",
"f.i.i.f.f.i.i.i.i.i.i.i.i.i.i.y.y.t.",
"                              . & 0 "
};
