/* XPM */
static char *magick[] = {
/* columns rows colors chars-per-pixel */
"20 22 94 2",
"   c #002d5a",
".  c #003060",
"X  c #003263",
"o  c #003971",
"O  c #144271",
"+  c #1b4978",
"@  c #294d71",
"#  c #3e5369",
"$  c #425b77",
"%  c #3b6896",
"&  c #537290",
"*  c #4a82ba",
"=  c #638db8",
"-  c #7896b7",
";  c #4d8ac9",
":  c #53a9ff",
">  c #55aaff",
",  c #6395ce",
"<  c #7ea0c6",
"1  c #65a3e5",
"2  c #67a3e5",
"3  c #63b1ff",
"4  c #6ab5ff",
"5  c #72aae5",
"6  c #74aeec",
"7  c #77afec",
"8  c #79b0ec",
"9  c #829bb7",
"0  c #88add4",
"q  c #95b2d4",
"w  c #95bae3",
"e  c #90bdec",
"r  c #8ac5ff",
"t  c #8cc6ff",
"y  c #8fc7ff",
"u  c #9cc4ec",
"i  c #97c2f1",
"p  c #90c2f9",
"a  c #94c4f9",
"s  c #97c6f9",
"d  c #9dc6f1",
"f  c #9ec6f1",
"g  c #9fc7f1",
"h  c #9fccff",
"j  c #a0cdff",
"k  c #a1cdff",
"l  c #a2ceff",
"z  c #a3cfff",
"x  c #a4cfff",
"c  c #abccf1",
"v  c #a5d0ff",
"b  c #a6d0ff",
"n  c #a6d1ff",
"m  c #a7d1ff",
"M  c #a8d2ff",
"N  c #a9d2ff",
"B  c #aad3ff",
"V  c #aad4ff",
"C  c #abd4ff",
"Z  c #add4ff",
"A  c #aed4ff",
"S  c #b0d5ff",
"D  c #b1d6ff",
"F  c #b2d6ff",
"G  c #b2d7ff",
"H  c #b3d7ff",
"J  c #b4d8ff",
"K  c #b5d8ff",
"L  c #b6d8ff",
"P  c #b6d9ff",
"I  c #b7d9ff",
"U  c #b8daff",
"Y  c #b9daff",
"T  c #b9dbff",
"R  c #badcff",
"E  c #bcddff",
"W  c #bdddff",
"Q  c #beddff",
"!  c #bfddff",
"~  c #bedeff",
"^  c #bfdeff",
"/  c #c0dfff",
"(  c #c1dfff",
")  c #c3e1ff",
"_  c #c6e2ff",
"`  c #cae3ff",
"'  c #cbe4ff",
"]  c #cbe5ff",
"[  c #cce5ff",
"{  c #cce6ff",
"}  c #ddeeff",
"|  c #f7faff",
" . c #f7fbff",
".. c #f8fbff",
/* pixels */
"3 V y y y y r y y r y y y y y r y y y y ",
"r { E E E E E E E E E E E E E E E / E E ",
"4 ) } } } } } } } } } } } } } } } } } } ",
"> ` F F F F A F F F F F J J J J J J J J ",
": E l l l l l h h l l l l l l l x x v v ",
"> E l l l l l l h h l l l l l l l l l x ",
": ` J J F F F F F F F F F F F F F F F J ",
": E v x l l l a 6 1 1 1 6 p l l l l l l ",
"> E v v v x x 7 .. . . . ., i l h l l l ",
"> { J J J J J 5 ..........% q F F F F A ",
": E v v v v v 8  . . . . .@ < l l l l l ",
": / M M v v v a ;  . . .O $ 0 l l l l l ",
": ' U U U U U J u * ..+ # 9 c J J J J J ",
": / M M M M M M v e = & - d v v v v v v ",
"> / M M M M M M M M d w d v v v v v v v ",
": { U U U U U U U U U U U U U U J U U J ",
": / M M M M M C M C M M M M M M M M M M ",
": / V V A M C M M M M C C M M M C M M M ",
": { R R R R R U U U U U U U U U U U U U ",
": / A A F F F F F F F F F F F F H F F F ",
"> / A F R E / / / / / / / / / / / / / / ",
": { E _ o   X X X X X X X X X X X X X X "
};
