/* XPM */
static char *magick[] = {
/* columns rows colors chars-per-pixel */
"20 22 34 1",
"  c #002e5c",
". c #00305f",
"X c #003162",
"o c #003263",
"O c #003365",
"+ c #00376e",
"@ c #004e9c",
"# c #a5dcff",
"$ c #a7dcff",
"% c #a9ddff",
"& c #abddff",
"* c #abdfff",
"= c #addfff",
"- c #bbdfff",
"; c #bbe4ff",
": c #bbe5ff",
"> c #bde5ff",
", c #dfdfdf",
"< c #c3e7ff",
"1 c #cdecff",
"2 c #d3edff",
"3 c #d5ebff",
"4 c #d6ebff",
"5 c #ddefff",
"6 c #d9f1ff",
"7 c #dbf1ff",
"8 c #dff2ff",
"9 c #dff4ff",
"0 c #e1f1ff",
"q c #e1f4ff",
"w c #e9f5ff",
"e c #edf6ff",
"r c AliceBlue",
"t c Gray100",
/* pixels */
",,,,,,,,,,,,,,,r55r+",
",,,,,,,,,,,,,,,e44e+",
",,,,,,,,,,,,,,,e44e+",
",,,,,,,,,,,,,,,r55r+",
",,,,,,,,,,,,,,,e44e+",
",,,,,,,,,,,,,,,e44e+",
",,,,,,,,,,,,,,,0--0+",
",,,,,,,,,,,,,,,7==7+",
",,,,,,,,,,,,,,,7==7+",
",,,,,,,,,,,,,,,q;;q+",
",,,,,,,,,,,,,,,7==7+",
",,,,,,,,,,,,,,,7==7+",
",,,,,,,,,,,,,,,q;;q+",
",,,,,,,,,,,,,,,7==7+",
",,,,,,,,,,,,,,,7==7+",
",,,,,,,,,,,,,,,q;;q+",
",,,,,,,,,,,,,,,2&=7+",
",,,,,,,,,,,,,,,<$&7+",
"&88888888889971;=;q+",
"&&&&&&&&&&&&&$$$&>wO",
"****&&&******&**&&t.",
"ooooooooooooooooo. @"
};
