/* XPM */
static char *magick[] = {
/* columns rows colors chars-per-pixel */
"5 3 5 1",
"  c #00376e",
". c #9bceff",
"X c #add7ff",
"o c #d3e9ff",
"O c #dbedff",
/* pixels */
"o... ",
"o... ",
"OXXX "
};
