/* XPM */
static char *magick[] = {
/* columns rows colors chars-per-pixel */
"20 22 53 1",
"  c #003263",
". c #003264",
"X c #00376e",
"o c #003f7e",
"O c #535253",
"+ c #0050a0",
"@ c #0058b0",
"# c #006cd7",
"$ c #0074e8",
"% c #0079f2",
"& c #3198ff",
"* c #53a9ff",
"= c #9bcdff",
"- c #9bceff",
"; c #9cceff",
": c #9dceff",
"> c #9fcfff",
", c #a0cfff",
"< c #a0d0ff",
"1 c #a1d0ff",
"2 c #a2d1ff",
"3 c #a3d2ff",
"4 c #a4d2ff",
"5 c #a5d2ff",
"6 c #a6d2ff",
"7 c #a6d3ff",
"8 c #a7d3ff",
"9 c #add7ff",
"0 c #aed7ff",
"q c #afd7ff",
"w c #b0d8ff",
"e c #b3d9ff",
"r c #b4daff",
"t c #bcdeff",
"y c #dfdfdf",
"u c #c8e4ff",
"i c #cde6ff",
"p c #d3e9ff",
"a c #d4e9ff",
"s c #d4eaff",
"d c #d5eaff",
"f c #d6eaff",
"g c #d6ebff",
"h c #d7ebff",
"j c #dbedff",
"k c #dcedff",
"l c #dceeff",
"z c #ddeeff",
"x c #ddefff",
"c c #deefff",
"v c #e8f4ff",
"b c Gray94",
"n c Gray100",
/* pixels */
"*j0kXyyyyyybyyyyyyyO",
"*p;pXyyyyyybyyyyyyyO",
"*p-pXyyyyyybyyyyyyyO",
"*j0jXyyyyyybyyyyyyyO",
"*a-pXyyyyyybyyyyyyyO",
"*a;pXyyyyyybyyyyyyyO",
"*k0jXyyyyyybyyyyyyyO",
"*a;pXyyyyyybyyyyyyyO",
"*a;pXyyyyyybyyyyyyyO",
"*k0kXyyyyyybyyyyyyyO",
"*a;aXyyyyyybyyyyyyyO",
"*a;aXyyyyyybyyyyyyyO",
"*kwkXyyyyyyyyyyyyyyy",
"*a<aXyyyyyyyyyyyyyyy",
"*a<aXyyyyyyyyyyyyyyy",
"*kwkoyyyyyyyyyyyyyyy",
"*h,i@yyyyyyyyyyyyyyy",
"*h-t$yyyyyyyyyyyyyyy",
"*c7ruakkkkkkjkkjjjjk",
"&v77444444<<<<<<<<;;",
"%n;,,,;,;,;,,;,;;,;,",
"#+.                 "
};
