/* XPM */
static char *magick[] = {
/* columns rows colors chars-per-pixel */
"20 22 211 2",
"   c #002d5a",
".  c #003060",
"X  c #003263",
"o  c #003971",
"O  c #0a3a71",
"+  c #113c71",
"@  c #104278",
"#  c #1e4377",
"$  c #274569",
"%  c #205596",
"&  c #2c5790",
"*  c #2d70ba",
"=  c #356eb8",
"-  c #3f71b7",
";  c #216ace",
":  c #236ec9",
">  c #336ec6",
",  c #3e7bd4",
"<  c #2074e5",
"1  c #2577ec",
"2  c #2677ec",
"3  c #2a7aec",
"4  c #2576ff",
"5  c #2676ff",
"6  c #2677ff",
"7  c #2678ff",
"8  c #2778ff",
"9  c #2879ff",
"0  c #2979ff",
"q  c #297aff",
"w  c #2a7aff",
"e  c #2b7bff",
"r  c #2b7cff",
"t  c #2c7df9",
"y  c #2c7cff",
"u  c #2c7dff",
"i  c #2d7dff",
"p  c #337df1",
"a  c #507ab7",
"s  c #3382ec",
"d  c #3f88e5",
"f  c #3080f9",
"g  c #3281ff",
"h  c #3382ff",
"j  c #3583ff",
"k  c #3683ff",
"l  c #3684ff",
"z  c #3a87ff",
"x  c #3b88ff",
"c  c #3c88ff",
"v  c #3c8aff",
"b  c #3d8aff",
"n  c #4f83d4",
"m  c #418cff",
"M  c #418dff",
"N  c #428dff",
"B  c #428eff",
"V  c #458aff",
"C  c #458bff",
"Z  c #458cff",
"A  c #468cff",
"S  c #478cff",
"D  c #488eff",
"F  c #488fff",
"G  c #498fff",
"H  c #4a8cff",
"J  c #4a8dff",
"K  c #4b8dff",
"L  c #4c8eff",
"P  c #4c8fff",
"I  c #4d91ec",
"U  c #4691f9",
"Y  c #4792ff",
"T  c #4892ff",
"R  c #4893ff",
"E  c #4993ff",
"W  c #4a93ff",
"Q  c #4c90ff",
"!  c #4d90ff",
"~  c #4d91ff",
"^  c #4e96ff",
"/  c #4e97ff",
"(  c #4f98ff",
")  c #5490e3",
"_  c #5496f1",
"`  c #5394ff",
"'  c #5494ff",
"]  c #5495ff",
"[  c #5595ff",
"{  c #5596ff",
"}  c #5697ff",
"|  c #5698ff",
" . c #549cff",
".. c #569dff",
"X. c #569eff",
"o. c #579eff",
"O. c #589af1",
"+. c #589bf1",
"@. c #5a9fff",
"#. c #5e9dff",
"$. c #5f9eff",
"%. c #53a9ff",
"&. c #55aaff",
"*. c #5aa0ff",
"=. c #5aa1ff",
"-. c #5ca0ff",
";. c #5ca1ff",
":. c #5ca2ff",
">. c #5da2ff",
",. c #5ea2ff",
"<. c #5ea3ff",
"1. c #5fa3ff",
"2. c #5fa4ff",
"3. c #629eec",
"4. c #63a1ff",
"5. c #60a4ff",
"6. c #61a4ff",
"7. c #62a5ff",
"8. c #62a6ff",
"9. c #64a2ff",
"0. c #65a2ff",
"q. c #6aa1f1",
"w. c #69aaff",
"e. c #69abff",
"r. c #6aabff",
"t. c #6aacff",
"y. c #6bacff",
"u. c #6eaaff",
"i. c #6fabff",
"p. c #6cacff",
"a. c #6cadff",
"s. c #6daeff",
"d. c #6eaeff",
"f. c #6eafff",
"g. c #63b1ff",
"h. c #6ab5ff",
"j. c #6fb0ff",
"k. c #70abff",
"l. c #70afff",
"z. c #73aeff",
"x. c #74aeff",
"c. c #74afff",
"v. c #70b0ff",
"b. c #71b0ff",
"n. c #72b0ff",
"m. c #72b1ff",
"M. c #73b1ff",
"N. c #74b1ff",
"B. c #7eb7ff",
"V. c #7fb7ff",
"C. c #7eb9ff",
"Z. c #80b7ff",
"A. c #81b7ff",
"S. c #82b7ff",
"D. c #81b8ff",
"F. c #82b8ff",
"G. c #82b9ff",
"H. c #83b9ff",
"J. c #82bbff",
"K. c #85b9ff",
"L. c #86bdff",
"P. c #88beff",
"I. c #8bc0ff",
"U. c #8bc1ff",
"Y. c #8ac5ff",
"T. c #8cc1ff",
"R. c #8dc1ff",
"E. c #8dc2ff",
"W. c #8ec1ff",
"Q. c #8fc1ff",
"!. c #8ec2ff",
"~. c #8fc2ff",
"^. c #8cc6ff",
"/. c #8fc7ff",
"(. c #90c2ff",
"). c #91c2ff",
"_. c #91c3ff",
"`. c #92c0ff",
"'. c #94c2ff",
"]. c #98c4ff",
"[. c #9ac6ff",
"{. c #9ec9ff",
"}. c #a1cbff",
"|. c #a1cdff",
" X c #a2ceff",
".X c #a5caff",
"XX c #a5cdff",
"oX c #a9cdff",
"OX c #a9ceff",
"+X c #a7d0ff",
"@X c #abd3ff",
"#X c #aad4ff",
"$X c #aed1ff",
"%X c #acd4ff",
"&X c #aed4ff",
"*X c #b0d5ff",
"=X c #b1d6ff",
"-X c #b2d7ff",
";X c #b4d5ff",
":X c #b7d6ff",
">X c #b4d8ff",
",X c #b9d9ff",
"<X c #bddcff",
"1X c #c0deff",
"2X c #cce6ff",
"3X c #edf4ff",
"4X c #eef5ff",
"5X c #eff5ff",
"6X c #f1f6ff",
"7X c #f1f7ff",
"8X c #f2f8ff",
/* pixels */
"g.#X/./.Y./.Y./.Y./././.Y./.Y./.Y./.Y./.",
"Y.2X:X:X:X:X:X:X:X:X:X:X:X:X:X:X:X:X:X:X",
"h.OXZ C C C C Z Z Z Z Z Z Z Z J J J J J ",
"&..XJ J J J J J J J L L ! L ! ! ! ! ! ! ",
"%.`.8 8 6 6 6 6 6 6 6 6 8 e 8 e e e e e ",
"%.'.r e e e e e e e e e e e e e u u u u ",
"%.OX| } } } } ` ` ` ` ` ' } ` ` } } } } ",
"%.].k l k k k f 1 < < < 1 t g g g g g g ",
"%.].c c c x z 3 3X3X4X4X4X; p k l l l l ",
"%.$X9.9.9.4.4.d 6X6X6X6X6X% n $.$.$.$.$.",
"%.{.W W W W Y s 4X4X4X4X4X+ > B B B B B ",
"%.|.( ( / / / U : 4X4X4XO # , W W Y W Y ",
"%.:Xx.x.x.x.z.z.3.* 8X@ $ a q.k.u.u.u.u.",
"%.XX<.<.<.<.@.@.@.I = & - _ X.X.X.X.X.X.",
"%.+X5.5.5.5.5.5.2.<.O.) O.<.<.<.<.:.<.<.",
"%.,XK.D.D.D.D.D.D.Z.D.Z.Z.Z.Z.V.V.V.V.V.",
"%.@Xj.f.f.f.f.f.f.y.y.y.y.y.e.e.e.e.e.e.",
"%.&XM.N.N.M.M.M.M.M.M.M.j.j.j.z.M.j.j.f.",
"%.<X`.`.`.`.`.!.!.!.!.!.!.!.!.!.!.!.!.!.",
"%.*XC.D.L.U.!.!.!.U.!.!.U.!.!.U.U.U.U.U.",
"%.*XL.`.|.&X*X*X*X*X*X*X*X*X*X*X*X*X*X*X",
"%.1X|.>Xo   X X X X X X X X X X X X X X "
};
