/* XPM */
static char *magick[] = {
/* columns rows colors chars-per-pixel */
"4 4 3 1",
"  c #5093ff",
". c #8cc6ff",
"X c #b7d6ff",
/* pixels */
"....",
"XXXX",
"    ",
"    "
};
