/* XPM */
static char *magick[] = {
/* columns rows colors chars-per-pixel */
"18 36 190 2",
"   c #003263",
".  c #133e6c",
"X  c #143f6c",
"o  c #10457b",
"O  c #315379",
"+  c #064f99",
"@  c #104b8b",
"#  c #1d5793",
"$  c #005bb7",
"%  c #155eab",
"&  c #115fb2",
"*  c #1260b1",
"=  c #1260b3",
"-  c #1567bd",
";  c #1a65bc",
":  c #214f82",
">  c #28588a",
",  c #2264af",
"<  c #2b68a9",
"1  c #2e72bc",
"2  c #2f72bc",
"3  c #3376bc",
"4  c #3476bc",
"5  c #3477bc",
"6  c #206ac3",
"7  c #206bc3",
"8  c #2475cf",
"9  c #2b74c7",
"0  c #2c74c7",
"q  c #2c75d0",
"w  c #2b7edb",
"e  c #2c79d8",
"r  c #3378c7",
"t  c #357ac7",
"y  c #3178d2",
"u  c #317ddd",
"i  c #327ddd",
"p  c #3180db",
"a  c #3284e4",
"s  c #3083ea",
"d  c #3a86e1",
"f  c #3a87e2",
"g  c #3889ef",
"h  c #378bff",
"j  c #378cff",
"k  c #388cff",
"l  c #398cff",
"z  c #398dff",
"x  c #3b8dff",
"c  c #3a8eff",
"v  c #3b8eff",
"b  c #3c8dff",
"n  c #3c8eff",
"m  c #3c8fff",
"M  c #3d8fff",
"N  c #3e8fff",
"B  c #3d90ff",
"V  c #4182c7",
"C  c #4282c7",
"Z  c #4684c7",
"A  c #4785c7",
"S  c #4985c7",
"D  c #4a87c7",
"F  c #4583d0",
"G  c #498bd6",
"H  c #4a8cd6",
"J  c #4b8ad9",
"K  c #4c8cda",
"L  c #508bc8",
"P  c #558ec9",
"I  c #5b88c0",
"U  c #518ad0",
"Y  c #5392d5",
"T  c #5691d0",
"R  c #5591de",
"E  c #428ce9",
"W  c #438de9",
"Q  c #438ef6",
"!  c #418ef8",
"~  c #418ef9",
"^  c #428ff9",
"/  c #4691e4",
"(  c #4d94e4",
")  c #4e97ed",
"_  c #4590f6",
"`  c #4090fc",
"'  c #4393ff",
"]  c #4492ff",
"[  c #4493ff",
"{  c #4594ff",
"}  c #4694ff",
"|  c #4695ff",
" . c #4c94f0",
".. c #4e96f1",
"X. c #4f96f1",
"o. c #4893f9",
"O. c #4895ff",
"+. c #4896ff",
"@. c #4a97ff",
"#. c #4b97ff",
"$. c #4b98ff",
"%. c #5a9ce4",
"&. c #509cff",
"*. c #529dff",
"=. c #539dff",
"-. c #539eff",
";. c #56a0ff",
":. c #57a1ff",
">. c #5fa1f6",
",. c #5fa1fc",
"<. c #5fa2fc",
"1. c #6691c0",
"2. c #6791c0",
"3. c #6792c0",
"4. c #6599cf",
"5. c #679acf",
"6. c #6892c0",
"7. c #6799d0",
"8. c #6b9dd0",
"9. c #6f9dd0",
"0. c #719ed0",
"q. c #759ed0",
"w. c #619be0",
"e. c #6ca1da",
"r. c #6faae9",
"t. c #62a4ff",
"y. c #62a5ff",
"u. c #63a5ff",
"i. c #63a6ff",
"p. c #64a6ff",
"a. c #62a9ff",
"s. c #63a9ff",
"d. c #64aaff",
"f. c #66abff",
"g. c #67abff",
"h. c #67acff",
"j. c #6bafff",
"k. c #6cabff",
"l. c #6cacff",
"z. c #6dacff",
"x. c #6eacff",
"c. c #6eadff",
"v. c #6fadff",
"b. c #6cb0ff",
"n. c #6fb1ff",
"m. c #72ace9",
"M. c #71b0f6",
"N. c #7eb5f0",
"B. c #78b4ff",
"V. c #79b4ff",
"C. c #7bb6ff",
"Z. c #7bbaff",
"A. c #7dbbff",
"S. c #7ebbff",
"D. c #82b7f0",
"F. c #81bcff",
"G. c #81bdff",
"H. c #83bfff",
"J. c #85bfff",
"K. c #85c0ff",
"L. c #89c1ff",
"P. c #89c2ff",
"I. c #8cc2ff",
"U. c #8dc2ff",
"Y. c #8ec3ff",
"T. c #90c3ff",
"R. c #90c4ff",
"E. c #a0ceff",
"W. c #a1ceff",
"Q. c #a2cfff",
"!. c #a3cfff",
"~. c #a3d0ff",
"^. c #a4d0ff",
"/. c #a5d0ff",
"(. c #a5d1ff",
"). c #a6d0ff",
"_. c #a6d1ff",
"`. c #aad3ff",
"'. c #aad4ff",
"]. c #abd4ff",
"[. c #acd5ff",
"{. c #add5ff",
"}. c #aed5ff",
"|. c #aed6ff",
" X c #dbedff",
".X c #dcedff",
"XX c #dceeff",
"oX c #ddeeff",
"OX c #fafcfe",
"+X c Gray100",
/* pixels */
"k j h h h h h k k k k k k k k k k k ",
"k k b k b k k b b b b b b b b b B B ",
"u.u.u.u.u.,.X.f p f ..,.u.u.u.p.p.p.",
"[ [ [ [ ` s Y +X+X+XT e ! { { { { { ",
"O.O.O.O.g e.OX+X+X+XOX4.y o.O.O.$.$.",
"k.k.l.>.8 +X+X+X+X+X+X+X% R l.l.l.v.",
"&.&.&.a +X+X+X+X+X+X+X+X+X,  .&.-.-.",
";.;.;.w +X+X+X+X+X+X+X+X+X@ F ;.;.:.",
"C.C.C.( +X+X+X+X+X+X+X+X+X. I C.C.C.",
"f.f.h.) - $ $ $ $ $ $ $ + : U s.s.s.",
"n.n.n./ +X+X+X+X+X+X+X+X+X< w.n.j.j.",
"R.R.R.%.+X+X+X+X+X+X+X+X+X> q.Y.Y.P.",
"G.G.G.M.C # o o o o o o X O 7.S.S.Z.",
"P.P.P.P.D.0.6.3.3.3.3.3.3.9.N.K.J.G.",
"/././././././././././.~./.!.!.!.!.!.",
"|.|.|.|.|.|.|.|.|.|.|.|.|.|.|.'.'.`.",
"XXXXXXXXXXXXXXXXXXXXXXXXXXXXXXXX X X",
"                                    ",
"k k h h h h h k k k k k k k k k k k ",
"b k b k b b k k b B b b b b b b b B ",
"u.u.u.u.u.u.u.u.u.u.u.u.u.u.u.p.p.p.",
"[ [ [ [ ` [ ! i 7 ; 7 i _ { { { { { ",
"O.O.O.O.O.Q q L +X+X+XP q _ O.O.$.$.",
"k.k.l.k.k.J 8.OX+X+X+XOX5.K l.l.l.v.",
"&.&.&.&.E & +X+X+X+X+X+X+X* E &.-.-.",
";.;.;.;.0 +X+X+X+X+X+X+X+X+X9 ;.;.:.",
"C.C.C.C.1 +X+X+X+X+X+X+X+X+X1 C.C.C.",
"f.f.h.f.t +X+X+X+X+X+X+X+X+Xr f.s.s.",
"n.n.n.n.H * $ $ $ $ $ $ $ * G n.j.j.",
"R.R.R.T.S +X+X+X+X+X+X+X+X+XS Y.Y.Y.",
"G.G.G.G.C +X+X+X+X+X+X+X+X+XC S.S.Z.",
"P.P.P.P.m.Z 4 4 4 4 4 4 3 Z r.K.J.G.",
"/././././././././././.~./.!.!.!.!.!.",
"|.|.|.|.|.|.|.|.|.|.|.|.|.|.|.'.'.`.",
"XXXXXXXXXXXXXXXXXXXXXXXXXXXXXXXXXX X",
"                                    "
};
