/* XPM */
static char * menuButtonI_xpm[] = {
"22 36 13 1",
" 	c None",
".	c #A3CFFF",
"+	c #A4CFFF",
"@	c #A5D0FF",
"#	c #B3D7FF",
"$	c #B4D8FF",
"%	c #9FCCFF",
"&	c #A0CDFF",
"*	c #AAD3FF",
"=	c #A9D2FF",
"-	c #B8DAFF",
";	c #C1DFFF",
">	c #003263",
".+.+@@+@@@.++@@@.++@+@",
"....+@..+@....+@....++",
"####$$########$$######",
"..........%.....%.....",
"%%.....%.&%%%.%..%.%..",
"###**####*####*####*#*",
"....%................&",
"......................",
"#$$$$$$$$$$$$$$$$$$$$$",
"+@@@@+@@@+@@@@@+@@@@@+",
"@@@@=@@@@@@@@@@@@@@@@@",
"-$-$$$$$$$--$-$$--$-$$",
"======================",
"======================",
"----------------------",
"######################",
";;;;;;;;;;;;;;;;;;;;;;",
">>>>>>>>>>>>>>>>>>>>>>",
".++@.+.+@@.++@@@.++@@@",
"........+@....++.....+",
"########$$############",
"....%.................",
"%%%%%%%...%%%%..%%.%..",
"########*######*####*#",
"......................",
"......................",
"$$$$$$##$$$$#$$$$$$$#$",
"@@@@@@++@+@@+@@+@@@@@+",
"@@@@@@@@@@@@@@@@@@@@@@",
"--$$-$--$$-$$-$$-$--$$",
"======================",
"======================",
"----------------------",
"######################",
";;;;;;;;;;;;;;;;;;;;;;",
">>>>>>>>>>>>>>>>>>>>>>"};
