/* XPM */
static char *magick[] = {
/* columns rows colors chars-per-pixel */
"18 36 77 1",
"  c #003263",
". c #143f6c",
"X c #17416c",
"o c #10457b",
"O c #325479",
"+ c #195493",
"@ c #1d5793",
"# c #276ebc",
"$ c #276fbc",
"% c #3476bc",
"& c #3477bc",
"* c #3677bc",
"= c #3678bc",
"- c #347ac7",
"; c #357ac7",
": c #397cc7",
"> c #3886db",
", c #3e89db",
"< c #378bff",
"1 c #378cff",
"2 c #388bff",
"3 c #388cff",
"4 c #3b8dff",
"5 c #3b8eff",
"6 c #3c8dff",
"7 c #3c8eff",
"8 c #4283c7",
"9 c #4684c7",
"0 c #4685c7",
"q c #5b90d0",
"w c #418de4",
"e c #4d94e4",
"r c #4392ff",
"t c #4393ff",
"y c #4492ff",
"u c #4493ff",
"i c #4895ff",
"p c #4896ff",
"a c #5498e9",
"s c #5598e9",
"d c #5a9de4",
"f c #509bff",
"g c #509cff",
"h c #55a0ff",
"j c #56a0ff",
"k c #6791c0",
"l c #6792c0",
"z c #6c94c0",
"x c #699ad0",
"c c #709dd0",
"v c #709ed0",
"b c #60a1f0",
"n c #62a4ff",
"m c #62a5ff",
"M c #66abff",
"N c #67abff",
"B c #66acff",
"V c #67acff",
"C c #6cabf6",
"Z c #6cabff",
"A c #6cacff",
"S c #6fb1ff",
"D c #71ace9",
"F c #71b1f6",
"G c #7bb6ff",
"H c #81b7f0",
"J c #81bcff",
"K c #81bdff",
"L c #89c1ff",
"P c #89c2ff",
"I c #90c4ff",
"U c #a4d0ff",
"Y c #a5d0ff",
"T c #aed5ff",
"R c #aed6ff",
"E c #ddeeff",
"W c Gray100",
/* pixels */
"<<1<12<22<<2<<22<4",
"774444444444444474",
"nnnnnnnnnnnnnnnnnn",
"utuuuuuuuuuutuutuu",
"iiiiiiiiiiiiiiiiii",
"ZZZZAZZZZZZZZZZZZZ",
"ggggggfggggfgggggg",
"jjjjjjjjjjjjjjjjjj",
"GGGCe,,,,,,,eCGGGG",
"BNBwWWWWWWWWW-bNBN",
"SSS>WWWWWWWWW+qSSS",
"IIIdWWWWWWWWWXzIII",
"KKKF8@oooooo.OxKKK",
"PPPPHckkkkkkkcHPPP",
"UUUUUUUUUUUUUUUUUU",
"RRRRRRRRRRRRRRRRRR",
"EEEEEEEEEEEEEEEEEE",
"                  ",
"<<1<12<22<<2<<22<4",
"774444444444444474",
"nnnnnnnnnnnnnnnnnn",
"utuuuuuuuuuutuutuu",
"iiiiiiiiiiiiiiiiii",
"ZZZZAZZZZZZZZZZZZZ",
"ggggggfggggfgggggg",
"jjjjjjjjjjjjjjjjjj",
"GGGGGGGGGGGGGGGGGG",
"BNBNa-$$$$$$$-aNBN",
"SSSS:WWWWWWWWW:SSS",
"IIII&WWWWWWWWW=III",
"KKKK8WWWWWWWWW8KKK",
"PPPPD0&&&&&&&0DPPP",
"UUUUUUUUUUUUUUUUUU",
"RRRRRRRRRRRRRRRRRR",
"EEEEEEEEEEEEEEEEEE",
"                  "
};
