/* XPM */
static char *magick[] = {
/* columns rows colors chars-per-pixel */
"18 36 90 1",
"  c #003263",
". c #04417f",
"X c #1f4871",
"o c #23415f",
"O c #2b445d",
"+ c #21476c",
"@ c #39516a",
"# c #44576b",
"$ c #0e5399",
"% c #005bb7",
"& c #245587",
"* c #2c6093",
"= c #38618a",
"- c #2068b1",
"; c #2d6fb2",
": c #2e70b3",
"> c #2c74bd",
", c #377bbf",
"< c #466482",
"1 c #4a77a5",
"2 c #4e7ca9",
"3 c #4e85bc",
"4 c #4f85bc",
"5 c #5083b7",
"6 c #5086bc",
"7 c #778595",
"8 c #788798",
"9 c #5a90c7",
"0 c #5b91c8",
"q c #5f93c9",
"w c #6291c2",
"e c #6292c3",
"r c #6393c3",
"t c #6697c7",
"y c #6898c7",
"u c #6998c7",
"i c #6d9ac7",
"p c #6d9ecf",
"a c #64a0db",
"s c #6ca3db",
"d c #71a1d0",
"f c #72a2d3",
"g c #7fa7d0",
"h c #7db1e4",
"j c #899aaa",
"k c #85add6",
"l c #88afd6",
"z c #9eafc0",
"x c #90b1d3",
"c c #95b7d9",
"v c #97b8da",
"b c #97badd",
"n c #98bbdd",
"m c #80b2e4",
"M c #81b3e4",
"N c #85b5e4",
"B c #88b5e4",
"V c #97bde3",
"C c #a0b0c0",
"Z c #a7b9cb",
"A c #a3bad0",
"S c #a6bcd0",
"D c #adbfd0",
"F c #b3c6da",
"G c #a0c7ed",
"H c #aacae9",
"J c #b0c8e0",
"K c #bdd2e6",
"L c #b3d5f6",
"P c #bed9f6",
"I c #c0d1e3",
"U c #c2d9f0",
"Y c #c2ddf6",
"T c #c5def7",
"R c #c8e0f9",
"E c #c8e4ff",
"W c #cce3f9",
"Q c #cfe5fb",
"! c #cce6ff",
"~ c #cee4fc",
"^ c #cee7ff",
"/ c #d1e8ff",
"( c #d2e9ff",
") c #d4eaff",
"_ c #d8ebff",
"` c #dceeff",
"' c #deefff",
"] c #f1f8ff",
"[ c #fafcfe",
"{ c Gray100",
/* pixels */
"((((((((((((((((((",
"((((((((((((((((((",
"___PBsssssssBP____",
"^^^M{{{{{{{{{uU^^^",
"^^^M{{{{{{{{{=S^^^",
"())G>%%%%%%%$<D))(",
"EEEh{{{{{{{{{2JEEE",
"EEEa{{{{{{{{{*AEEE",
")()N{{{{{{{{{+C)))",
"^^^L,{{{{{{{.#S^^^",
"^^^^Vf[{{{[wOjU^^^",
"____^l9{{{5o7I____",
"(((((Tx1&X@8FW((((",
"((((((QKZzZKQ)()((",
"``````````````````",
"``````````````''``",
"]]]]]]]]]]]]]]]]]]",
"                  ",
"((((((((((((((((((",
"((((((((((((((((((",
"__________________",
"^^^^Hu4444444uH^^^",
"^^^^u{{{{{{{{{u^^^",
"())(i{{{{{{{{{i)))",
"EEEEk-%%%%%%%-kEEE",
"EEEEt{{{{{{{{{tEEE",
")()(6{{{{{{{{{6)))",
"^^^^u{{{{{{{{{u^^^",
"^^^^H;{{{{{{{:H^^^",
"_____cf[{{{[pv__)_",
"(((((Yg0{{{qgY((((",
"((((((Rnw4wbR(((((",
"``````````````````",
"````````''''``'''`",
"]]]]]]]]]]]]]]]]]]",
"                  "
};
