/* XPM */
static char *magick[] = {
/* columns rows colors chars-per-pixel */
"2 18 25 1",
"  c #003263",
". c #378bff",
"X c #3b8dff",
"o c #3c8eff",
"O c #4492ff",
"+ c #4493ff",
"@ c #4895ff",
"# c #4896ff",
"$ c #509cff",
"% c #56a0ff",
"& c #62a4ff",
"* c #62a5ff",
"= c #67abff",
"- c #67acff",
"; c #6cabff",
": c #6fb1ff",
"> c #7bb6ff",
", c #81bcff",
"< c #81bdff",
"1 c #89c1ff",
"2 c #89c2ff",
"3 c #90c4ff",
"4 c #a5d0ff",
"5 c #aed5ff",
"6 c #ddeeff",
/* pixels */
"..",
"Xo",
"**",
"++",
"##",
";;",
"$$",
"%%",
">>",
"-=",
"::",
"33",
",,",
"22",
"44",
"55",
"66",
"  "
};
