/* XPM */
static char *magick[] = {
/* columns rows colors chars-per-pixel */
"2 18 29 1",
"  c #003263",
". c #297aff",
"X c #2a7aff",
"o c #2c7cff",
"O c #2c7dff",
"+ c #3281ff",
"@ c #3684ff",
"# c #428dff",
"$ c #428eff",
"% c #4892ff",
"& c #4993ff",
"* c #5595ff",
"= c #5596ff",
"- c #569dff",
"; c #569eff",
": c #5e9dff",
"> c #5ca2ff",
", c #5ea2ff",
"< c #69abff",
"1 c #6aabff",
"2 c #6eaaff",
"3 c #6fabff",
"4 c #6fb0ff",
"5 c #70b0ff",
"6 c #7fb7ff",
"7 c #8bc0ff",
"8 c #8ec1ff",
"9 c #8fc1ff",
"0 c #b1d6ff",
/* pixels */
"..",
"oo",
"==",
"++",
"@@",
"::",
"$$",
"&&",
"22",
";;",
",,",
"66",
"11",
"54",
"88",
"77",
"00",
"  "
};
