/* XPM */
static char *magick[] = {
/* columns rows colors chars-per-pixel */
"24 18 21 1",
"  c #003263",
". c #a0cdff",
"X c #a3cfff",
"o c #a5d0ff",
"O c #a7d1ff",
"+ c #a8d2ff",
"@ c #b2d7ff",
"# c #b3d7ff",
"$ c #b6d8ff",
"% c #b9dbff",
"& c #c1dfff",
"* c #c8e4ff",
"= c #cce6ff",
"- c #cee7ff",
"; c #d1e8ff",
": c #d2e9ff",
"> c #d4eaff",
", c #d8ebff",
"< c #dceeff",
"1 c #deefff",
"2 c #f1f8ff",
/* pixels */
"++++++:+++OOO:+++:++++:+",
"OOOOOO:OOOOOO:OOO:OOOO:O",
"$$$$$$,$$$$$$,$$$,$$$$>$",
"OOOOOO=XOOOOO=OOO=OOOO=O",
"XXXXXX=XXXXXX=XXX=XXXX=X",
"@@@@@@>@@@@@@>@@@:@@@@>@",
"X...X.*.XX...*XX.*..XX*X",
"....X.*......*...*....*X",
"@@@@@@>@@@@@@>@@@>@@@@>@",
"XXXXXX=XXXXXX=XXX=XXXX=X",
"OOOOOO=OXOOOO=OOO=OOOO=O",
"$$$$$$,$$$$$$,$$$>$$$$,$",
"OOOOOO:OOOOOO:OOO:OOOO:O",
"++++++:++++++:+++:++++:+",
"%%%%%%1%%%%%%1%%%1%%%%1%",
"@@@@@@1@@@@@@1@@@1@@@@1@",
"&&&&&&2&&&&&&2&&&2&&&&2&",
"                        "
};
