/* XPM */
static char *airbrush[]={
"22 22 10 1",
". c None",
"a c #000000",
"d c #2a2a2a",
"g c #303030",
"c c #444444",
"h c #555555",
"f c #808080",
"b c #aaaaaa",
"e c #c8c8c8",
"# c #ffffff",
"..................#aa#",
".................#abca",
"................#abcca",
"...####........#abccda",
"..#aaaa#......#abccda#",
".#a####a#....#abccda#.",
".#a#eeba#...#abccda#..",
".#a#eeba#..#abccda#...",
".#a#eeba#.#abccda#....",
".#a#eeba##abccda#.....",
".#a#ebba#abccda#......",
".#a#bbbfaeccda#.......",
"..#a#bfgaebda#.#####..",
"..#a#bfaebffa##ddddd#.",
"...#afaebbfa##ddaaada#",
"..#a#eebbfadddda###da#",
".#a#eebbfa#aaaa#..#da#",
"#a#eebbfa#.####..#da#.",
"#aeebbfa#.......#da#..",
".#ebbfa#.......#da#...",
"dhfffa#.......#da#....",
"hd.aa#........#da#...."};
