/* XPM */
static char *spraycan[]={
"22 22 5 1",
"# c #000000",
"c c #808080",
"b c #a0a0a4",
"a c #c0c0c0",
". c #ffffff",
"......................",
"......................",
"......................",
"......................",
"........##............",
"#.#..#..#a####........",
".........#a.#.#.......",
"......#..#b#a..#......",
".#.......##aaa..#.....",
"....#....#cbaaa..#....",
".........b#cbaaa..#...",
"..#...#..bc#cbaaa..#..",
"..........bc#cbaaa..#.",
".....#.....bc#cbaaa..#",
"............bc#cbaaa#.",
".............bc#cba#..",
"..............bc#c#...",
"...............bc#....",
"................b.....",
"......................",
"......................",
"......................"};
