/* XPM */
static char * kbabeldict_xpm[] = {
"32 32 256 2",
"  	c None",
". 	c #6E310E",
"+ 	c #8D5201",
"@ 	c #885902",
"# 	c #AD570C",
"$ 	c #9D640A",
"% 	c #737175",
"& 	c #A26E07",
"* 	c #6C7393",
"= 	c #A37400",
"- 	c #B36C02",
"; 	c #C67508",
"> 	c #D47602",
", 	c #BF7548",
"' 	c #828695",
") 	c #908870",
"! 	c #CD7340",
"~ 	c #CE7548",
"{ 	c #CA8406",
"] 	c #DD8201",
"^ 	c #D67A40",
"/ 	c #B99123",
"( 	c #8C8FAA",
"_ 	c #C9853A",
": 	c #E98000",
"< 	c #EB7D0B",
"[ 	c #DA8128",
"} 	c #E38219",
"| 	c #F28201",
"1 	c #E38C00",
"2 	c #A19980",
"3 	c #ED8A04",
"4 	c #8999C5",
"5 	c #EC8E00",
"6 	c #979BAA",
"7 	c #989BB7",
"8 	c #E29222",
"9 	c #D79532",
"0 	c #DD942B",
"a 	c #E6912D",
"b 	c #E5990C",
"c 	c #D9915A",
"d 	c #A5A193",
"e 	c #A0A2A5",
"f 	c #E5924B",
"g 	c #ED8E52",
"h 	c #E0936A",
"i 	c #FF9800",
"j 	c #F39149",
"k 	c #D99F4E",
"l 	c #C1A95B",
"m 	c #EA9A3C",
"n 	c #9CA7CE",
"o 	c #E0A03C",
"p 	c #EC945C",
"q 	c #E2A044",
"r 	c #FF9E00",
"s 	c #EBA41C",
"t 	c #C6A775",
"u 	c #E0A72F",
"v 	c #C6AC65",
"w 	c #A7AAC6",
"x 	c #E29B76",
"y 	c #E59F59",
"z 	c #DFA840",
"A 	c #A5ACCE",
"B 	c #FDA217",
"C 	c #C5B25B",
"D 	c #E8AD20",
"E 	c #EEA056",
"F 	c #E3A74F",
"G 	c #C1B080",
"H 	c #EBAF15",
"I 	c #FFA900",
"J 	c #E4AC3C",
"K 	c #AFB0BA",
"L 	c #C3AE91",
"M 	c #FD9D4F",
"N 	c #DDAD5F",
"O 	c #D3AD7C",
"P 	c #FFAE00",
"Q 	c #D9AE6B",
"R 	c #EFA275",
"S 	c #FFA63C",
"T 	c #D4AF84",
"U 	c #FFAF12",
"V 	c #FEB300",
"W 	c #C7B97A",
"X 	c #FEAE21",
"Y 	c #E3B357",
"Z 	c #BEB8A4",
"` 	c #CFB681",
" .	c #DFB65E",
"..	c #ECB34B",
"+.	c #F0B153",
"@.	c #BEB8B7",
"#.	c #B5B8D5",
"$.	c #DCC13F",
"%.	c #B3BADC",
"&.	c #B5BCD1",
"*.	c #FAB926",
"=.	c #B2BDD8",
"-.	c #F0BF27",
";.	c #FEB53B",
">.	c #D9C25D",
",.	c #D5B7A3",
"'.	c #BCBDC7",
").	c #F2C509",
"!.	c #FFB734",
"~.	c #DAC64A",
"{.	c #FFC012",
"].	c #D2BE9A",
"^.	c #FFC400",
"/.	c #BBC0CF",
"(.	c #FFB845",
"_.	c #BCBFDC",
":.	c #E2CF20",
"<.	c #E8BC79",
"[.	c #FFB274",
"}.	c #EFB590",
"|.	c #FEBE37",
"1.	c #ECC837",
"2.	c #FEB280",
"3.	c #FFBC48",
"4.	c #BAC5E0",
"5.	c #ECD218",
"6.	c #FFCC06",
"7.	c #FFBE58",
"8.	c #FECF00",
"9.	c #FEC24B",
"0.	c #FFCB1C",
"a.	c #C1C8DE",
"b.	c #F3C279",
"c.	c #FFC162",
"d.	c #FEC35B",
"e.	c #BECAE5",
"f.	c #FAC26E",
"g.	c #FDBA91",
"h.	c #FDC362",
"i.	c #F9C94D",
"j.	c #FFC169",
"k.	c #CBC9CD",
"l.	c #F5CC4E",
"m.	c #FFD700",
"n.	c #F4C38E",
"o.	c #FFC950",
"p.	c #FFCD3C",
"q.	c #FDCC49",
"r.	c #FCC865",
"s.	c #FEC66B",
"t.	c #DFD573",
"u.	c #DAD09C",
"v.	c #D1CCCA",
"w.	c #F9C583",
"x.	c #FFC57F",
"y.	c #C7CFE5",
"z.	c #FFDD02",
"A.	c #DECCBB",
"B.	c #CECFD9",
"C.	c #D2CFD4",
"D.	c #FFC97A",
"E.	c #F5E405",
"F.	c #FED929",
"G.	c #FCCF68",
"H.	c #FFDC1D",
"I.	c #FDC59E",
"J.	c #CDD1E1",
"K.	c #FDC4A4",
"L.	c #FFCD6F",
"M.	c #FEC793",
"N.	c #F8D269",
"O.	c #FFD356",
"P.	c #FDCD7D",
"Q.	c #F8C7AB",
"R.	c #FED848",
"S.	c #FCD464",
"T.	c #FEDA40",
"U.	c #CCD4EA",
"V.	c #EED87C",
"W.	c #FFE700",
"X.	c #FCE02E",
"Y.	c #FFD760",
"Z.	c #EBD4AA",
"`.	c #FFD474",
" +	c #FED18C",
".+	c #FECE9E",
"++	c #FED481",
"@+	c #FFDB5B",
"#+	c #FFDD54",
"$+	c #D4D8E8",
"%+	c #D7D8E2",
"&+	c #FEE33D",
"*+	c #FFEE01",
"=+	c #FFD395",
"-+	c #FED689",
";+	c #DED8D7",
">+	c #FFE829",
",+	c #FDD68F",
"'+	c #FDDC71",
")+	c #FCD696",
"!+	c #FFD49C",
"~+	c #FED5A3",
"{+	c #FFF300",
"]+	c #FFE649",
"^+	c #FFD3B3",
"/+	c #FDE752",
"(+	c #FEE26E",
"_+	c #FFF40F",
":+	c #FDE275",
"<+	c #FFEB43",
"[+	c #FFE75B",
"}+	c #FED6BD",
"|+	c #FFD9AC",
"1+	c #DBDFF0",
"2+	c #DEDFE9",
"3+	c #FFFA00",
"4+	c #FFD9B3",
"5+	c #FEDCA7",
"6+	c #E2DFE4",
"7+	c #FFDDA2",
"8+	c #E8DFD8",
"9+	c #FED8C5",
"0+	c #FEE872",
"a+	c #FEDBBA",
"b+	c #FEFE00",
"c+	c #FFE19E",
"d+	c #FEE686",
"e+	c #FFDFB0",
"f+	c #FFE593",
"g+	c #E2E3ED",
"h+	c #FCF837",
"i+	c #E5E3E7",
"j+	c #FFDEC3",
"k+	c #FDF26A",
"l+	c #FFF363",
"m+	c #FFE1CC",
"n+	c #FDE1D2",
"o+	c #E7E7F2",
"p+	c #E5EAED",
"q+	c #FCFC58",
"r+	c #EBE9ED",
"s+	c #E9EAF4",
"t+	c #FFEBB5",
"u+	c #FFF19B",
"v+	c #F0EBE9",
"w+	c #EBECF6",
"x+	c #FFECCD",
"y+	c #F0EDF2",
"z+	c #EDF2F5",
"A+	c #F2F0F4",
"B+	c #F5F2F7",
"C+	c #F2F7FA",
"D+	c #F7F5F9",
"E+	c #FBF8FD",
"F+	c #F7FDFF",
"G+	c #FCFEFB",
"                                                                ",
"                                                                ",
"                                                                ",
"                                                                ",
"                        =.2+$+=.                    >       ~ h ",
"                      A a.1+D+D+1+4.4           5 : # , x Q.n+Q.",
"                %._.4.U.1+y.$+r+A+G+A+U.A   b 5 } f }.9+n+n+m+, ",
"      n _.y.g+g+p+z+B+A+z+w+_.1+o+o+s+v+Z.o 0 y I.m+m+j+j+}+x . ",
"A $+z+F+E+B+w+w+s+p+o+o+o+s+g+4.1+o+A. .9 q n.4+a+4+4+^+^+K.!   ",
"  $+E+B+A+z+A+A+s+w+s+o+o+o+w+y.#.@.u 0 <.|+|+~+~+|+~+.+K.R ^ _ ",
"  w C+C+w+w+w+A+y+s+y+r+r+s+r+z+'. .0 w.~+e+~+=+=+!+=+M.2.p c )+",
"    %+D+D+D+B+w+y+A+s+w+s+o+o+i+O o x.w.7+~+x+4+-+++P.w.2.g N u+",
"    &.z+z+z+B+w+w+z+w+w+p+w+2+,.k <. +D.D.b.7+x+7+++G.P.[.g F d+",
"      $+E+D+B+C+B+A+A+y+i+A.Q ..Z e L f.s.j.j.!+t+'+S.O.c.M m G.",
"    C.J.C+C+B+B+w+w+z+w+T J i.N.d % 2 r.d.7.7.P.t+(+#+#+O.M a 1.",
"    z+z+g+D+G+C+D+D+w+y+O H 0.R.V.u.V.O.3.3.(.s.f+[+]+&+T.S } ; ",
"  k.6+A+g+A+D+C+B+D+B+z+;+v ).H.H.X.F.p.3.;.;.h.d+<+<+E.>+B < [ ",
"      K J.g+E+D+C+D+D+A+w+6+v 5.E.W.>+8.P U X (.F._+{+_+*+i < E ",
"          '.G+E+C+C+B+D+z+z+;+C E._+_+8.P I !.U H.3+b+3+>+i 3 +.",
"          %+g+F+E+D+C+z+D+B+z+i+W :.p.{.U U I P *+b+b+3+6.r } J ",
"        p+G+y+G+D+E+E+E+F+E+D+z+6+G N -+9.U I ^.3+b+b+W.U X - $ ",
"      C.v+G+v+y+G+G+G+z+i+%+$+$+%+%+L c+7+P.|.z.b+3+*+^.|.u +   ",
"        e '.i+i+i+6+6+g+p+A+B+w+w+w+v.Q ++++L.#+q+h+0.O.o.{     ",
"              K J.g+F+F+E+C+A+A+w+y+i+T G.S.S.Y.:+f+f+'+H       ",
"                  6 /.2+B+F+C+D+s+s+i+].O.@+@+R.|.q.R.-.&       ",
"                      ' &.$+E+G+E+A+s+v+>./+[+[+/ @ & @         ",
"                            7 &.o+C+G+g+) ~.k+l+$.              ",
"                                ( %.U.A     l t.~.              ",
"                                    *                           ",
"                                                                ",
"                                                                ",
"                                                                "};
