/* XPM */
static char * kbabel_xpm[] = {
"32 32 256 2",
"  	c None",
". 	c #000100",
"+ 	c #250003",
"@ 	c #1C0702",
"# 	c #221502",
"$ 	c #381D01",
"% 	c #9C0003",
"& 	c #582402",
"* 	c #72151D",
"= 	c #4D2E02",
"- 	c #252EB8",
"; 	c #B40804",
"> 	c #C60100",
", 	c #D00000",
"' 	c #6D300D",
") 	c #CF0009",
"! 	c #2D33B6",
"~ 	c #A31620",
"{ 	c #DD0000",
"] 	c #BB1113",
"^ 	c #AC1F03",
"/ 	c #313CBA",
"( 	c #F5010B",
"_ 	c #B62012",
": 	c #E00B11",
"< 	c #3643B7",
"[ 	c #FD0002",
"} 	c #CA1811",
"| 	c #C32200",
"1 	c #7F4700",
"2 	c #E21709",
"3 	c #A7302D",
"4 	c #B13506",
"5 	c #8F450F",
"6 	c #BC3412",
"7 	c #4452C4",
"8 	c #FA161A",
"9 	c #BF312D",
"0 	c #994A31",
"a 	c #F62120",
"b 	c #485AC9",
"c 	c #E4282C",
"d 	c #835B25",
"e 	c #DA311E",
"f 	c #9E5224",
"g 	c #A85306",
"h 	c #F1292A",
"i 	c #5062CA",
"j 	c #C73B5B",
"k 	c #A26300",
"l 	c #EB4000",
"m 	c #D63D52",
"n 	c #BC5324",
"o 	c #526BD0",
"p 	c #C55516",
"q 	c #946A2C",
"r 	c #F73A3B",
"s 	c #D3521F",
"t 	c #C96100",
"u 	c #9A7818",
"v 	c #CD600E",
"w 	c #B27004",
"x 	c #BA6D00",
"y 	c #AF6848",
"z 	c #D25E1F",
"A 	c #6475D0",
"B 	c #C86832",
"C 	c #C86E26",
"D 	c #FC4D51",
"E 	c #818380",
"F 	c #CA7603",
"G 	c #F85453",
"H 	c #C58000",
"I 	c #E0644F",
"J 	c #B38719",
"K 	c #D97900",
"L 	c #DF790F",
"M 	c #F3710A",
"N 	c #C68616",
"O 	c #798BDA",
"P 	c #D27C39",
"Q 	c #D08230",
"R 	c #B3922B",
"S 	c #EF6967",
"T 	c #E08015",
"U 	c #DB8603",
"V 	c #CD8442",
"W 	c #D77E47",
"X 	c #F67F03",
"Y 	c #8790DA",
"Z 	c #C99517",
"` 	c #E4852B",
" .	c #D7920D",
"..	c #E28F00",
"+.	c #E18C1E",
"@.	c #9595C4",
"#.	c #FB8600",
"$.	c #C0964F",
"%.	c #C39B2E",
"&.	c #DF884A",
"*.	c #E09502",
"=.	c #EE8F00",
"-.	c #D09537",
";.	c #DD9427",
">.	c #D48E63",
",.	c #9FA09A",
"'.	c #F79100",
").	c #F78C1F",
"!.	c #E28C5B",
"~.	c #EA8280",
"{.	c #88A3E0",
"].	c #FF9100",
"^.	c #E39342",
"/.	c #F09A00",
"(.	c #F88081",
"_.	c #D7A030",
":.	c #E69064",
"<.	c #EEA000",
"[.	c #DC985C",
"}.	c #DC9C4D",
"|.	c #E49C46",
"1.	c #E9A219",
"2.	c #D1AB2B",
"3.	c #9AA5E4",
"4.	c #ECAA09",
"5.	c #E6A33F",
"6.	c #ABA6D1",
"7.	c #CBAF4D",
"8.	c #EE918F",
"9.	c #FFA302",
"0.	c #FEA700",
"a.	c #BAAFA3",
"b.	c #E8A657",
"c.	c #EAB117",
"d.	c #E8A84F",
"e.	c #FFA90E",
"f.	c #EAA662",
"g.	c #DEB62F",
"h.	c #E5AE4D",
"i.	c #E5B238",
"j.	c #FFB000",
"k.	c #FEAE10",
"l.	c #FBA064",
"m.	c #EFAE3D",
"n.	c #E7A67E",
"o.	c #F19D9B",
"p.	c #FEA759",
"q.	c #F2B62D",
"r.	c #EDC100",
"s.	c #EBA4A4",
"t.	c #FEB41B",
"u.	c #FFB904",
"v.	c #EBBB37",
"w.	c #EAB855",
"x.	c #FDB04F",
"y.	c #ECC02D",
"z.	c #FFB535",
"A.	c #FDA2A2",
"B.	c #D1BE87",
"C.	c #DDB78C",
"D.	c #FFBA20",
"E.	c #FDC200",
"F.	c #FDB933",
"G.	c #D5BD8E",
"H.	c #FFB846",
"I.	c #FFBF21",
"J.	c #FFC212",
"K.	c #FDAF7E",
"L.	c #E0BD84",
"M.	c #E3C84E",
"N.	c #FEBC47",
"O.	c #FEC52B",
"P.	c #F3B2B2",
"Q.	c #FFBE58",
"R.	c #FFC341",
"S.	c #FFD000",
"T.	c #DFCB73",
"U.	c #FECA2A",
"V.	c #FACA3A",
"W.	c #FFBE76",
"X.	c #FFC169",
"Y.	c #F3C47F",
"Z.	c #FEBB92",
"`.	c #FEC56A",
" +	c #FFC85E",
".+	c #FFD130",
"++	c #FFDA00",
"@+	c #E6CB95",
"#+	c #FAC09E",
"$+	c #FBCC5B",
"%+	c #F8C68B",
"&+	c #F4C696",
"*+	c #FFD23D",
"=+	c #F0D94D",
"-+	c #FFC97A",
";+	c #FED154",
">+	c #FFCC6E",
",+	c #F8DE21",
"'+	c #FDCC75",
")+	c #FFD840",
"!+	c #E8CACB",
"~+	c #FCCF84",
"{+	c #FFCD8B",
"]+	c #EAD88C",
"^+	c #FBDC4A",
"/+	c #FFE800",
"(+	c #FFCD91",
"_+	c #FFD372",
":+	c #FFD760",
"<+	c #FFDA52",
"[+	c #F7DA73",
"}+	c #FEEC00",
"|+	c #FFDF45",
"1+	c #FDD581",
"2+	c #FCDE54",
"3+	c #FACFAA",
"4+	c #FFCF9D",
"5+	c #FED38E",
"6+	c #FBDE5C",
"7+	c #FFD294",
"8+	c #FFE91A",
"9+	c #FFE33D",
"0+	c #FEF200",
"a+	c #FEE44C",
"b+	c #FBD897",
"c+	c #C7E1F6",
"d+	c #FCE06D",
"e+	c #FDED25",
"f+	c #FCCFD2",
"g+	c #FFD7A2",
"h+	c #F8E181",
"i+	c #FFF319",
"j+	c #FFD5BA",
"k+	c #FFD8AC",
"l+	c #FDEB51",
"m+	c #F6D8D6",
"n+	c #FFDAB3",
"o+	c #EADDDD",
"p+	c #E2E0E4",
"q+	c #FEFD00",
"r+	c #FCED5E",
"s+	c #FFE96C",
"t+	c #FEDBBA",
"u+	c #FAF068",
"v+	c #FEDDC4",
"w+	c #FFEB7B",
"x+	c #FFE991",
"y+	c #D7EBF8",
"z+	c #FFE4BB",
"A+	c #FFE2D3",
"B+	c #FEE6C3",
"C+	c #F2E8E8",
"D+	c #FFF77C",
"E+	c #FFFA88",
"F+	c #E9F2F4",
"G+	c #F9F3F2",
"                                                                ",
"                                                p W p &         ",
"                                    ].K 5 B :.#+A+>.            ",
"                                9.=.K &.#+v+A+A+n.'             ",
"                              /.+.f.3+j+v+v+A+#+f               ",
"                          <.U f.&+j+j+t+j+3+j+!.                ",
"                        <.;.Y.k+g+g+k+g+3+#+Z.W Q               ",
"                      *.|.7+n+k+g+g+7+7+(+Z.K.W b+|.            ",
"                    +.5.{+5+7+z+B+b+~+1+{+K.:.[.h+d+            ",
"                    }.L.~+-+-+{+z+B+1+_+_+W.l.|.h+$+1           ",
"                ;.w.a.,.C.>+Q.X.-+z+x+:+:+$+p.` _+;.    [.f.g   ",
"            x 4.;+[+,.E G.Q. +Q.X.b+x+<+^+<+x.` y.k V &+t+[.    ",
"              4.r.|+h+]+6+R.N.z.H.~+w+a+9+9+N.).F ^.4+g+%+f     ",
"              d r.++++,+9+O.F.z.H._+l+8+e+8+j.X ` %+{+b+b.      ",
"      ! - - ! < 0 r.}+}+8+u.k.k.z.O.i+i+i+0+t.#.^.W.`.'+-.      ",
"      Y b Y b 6.@.B.,+i+/+u.0.z.e.J.q+q+q+i+9.'.m._+d+s+%.      ",
"      / < A 7 b 6.8.s q.R.F.j.e.9.++q+q+q+S.e.+.N d+E+E+7.      ",
"    ! Y i A o {.j a h I %+b+>+t.u.}+q+q+/+u.z.k $ Z a+E+T.      ",
"    / i b 3.o O m G P.o+C.~+5+~+R.i+q+i+J.R.1.= . # J M.h+      ",
"    {.A o A O {.!+C+P.(.S b._+_+:+s+E+d+[+:+w @ . .     q       ",
"    o+c+c+c+y+p+P.G 2 r S |.:+:+:+*+:+h+:+1.^ % @               ",
"    c ~.o.8.S h 8 h (.m+G+@+<+2+2+y.C  . .4 | { ;               ",
"    c { { ( 8 r 8.m+G+f+A.~.w.r+r+l+y 3 9 > { { ,               ",
"    o+P.8.P.!+F+F+P.G 8 [ [ 2 W h+u+$.9 e { { { )               ",
"    !+F+F+F+o+o.G 8 8 a a : 2 : ; n f Q ).M l , >               ",
"  : ( r G r a 8 a h e ; _ 6 6 p z 2 C i.t.j.9.X |               ",
"  ) ( [ [ 8 h c e ] ; 6 4 z +.q.V.m._.v.D.j.0.9.K               ",
"    % ; ] ~ *   x t v T /.O.*+)+|+<+<+V.O.I.j.e...              ",
"                ..<.t.I.O.*+)+)+|+|+|+*+V.I.u.k.U               ",
"                9.e.t.I.V..+a+l+l+a+<+g.Z Z ;.<.H               ",
"                9.k.D.J.*+)+^+l+=+R                             ",
"                w ..4.q.y.y.2.u                                 "};
