/* XPM */
static char * kbugbuster_xpm[] = {
"32 32 256 2",
"  	c None",
". 	c #000200",
"+ 	c #000307",
"@ 	c #080100",
"# 	c #150300",
"$ 	c #090F11",
"% 	c #0F0E0B",
"& 	c #151100",
"* 	c #251302",
"= 	c #1D2000",
"- 	c #0F212A",
"; 	c #461B09",
"> 	c #4A190A",
", 	c #502006",
"' 	c #502413",
") 	c #642803",
"! 	c #602B0B",
"~ 	c #672A00",
"{ 	c #642D00",
"] 	c #732900",
"^ 	c #2F414B",
"/ 	c #324439",
"( 	c #6F3000",
"_ 	c #6E3A02",
": 	c #3A505F",
"< 	c #703F27",
"[ 	c #9B3700",
"} 	c #963F00",
"| 	c #9B3D00",
"1 	c #695520",
"2 	c #585A36",
"3 	c #77511B",
"4 	c #954700",
"5 	c #B83801",
"6 	c #794E3D",
"7 	c #865312",
"8 	c #765B21",
"9 	c #B84200",
"0 	c #AC4B05",
"a 	c #C14200",
"b 	c #B84800",
"c 	c #6C6537",
"d 	c #BD4602",
"e 	c #7F594B",
"f 	c #7A6327",
"g 	c #BA4A02",
"h 	c #B74E01",
"i 	c #C34A00",
"j 	c #906016",
"k 	c #B55201",
"l 	c #0E80D2",
"m 	c #BF4E00",
"n 	c #CB4902",
"o 	c #0088E0",
"p 	c #BE5300",
"q 	c #C55200",
"r 	c #1882DB",
"s 	c #CF4E00",
"t 	c #078BE3",
"u 	c #807720",
"v 	c #597887",
"w 	c #AB6A00",
"x 	c #2488DB",
"y 	c #906A5B",
"z 	c #298CD8",
"A 	c #258FE1",
"B 	c #2D8BE5",
"C 	c #2195E1",
"D 	c #D46400",
"E 	c #868145",
"F 	c #8C8930",
"G 	c #3895E2",
"H 	c #2E99EC",
"I 	c #3C95E9",
"J 	c #B57E1E",
"K 	c #3B99DF",
"L 	c #DE7200",
"M 	c #4295F8",
"N 	c #3D9DDD",
"O 	c #519ABC",
"P 	c #A2930D",
"Q 	c #C48401",
"R 	c #4996F2",
"S 	c #D87908",
"T 	c #B78239",
"U 	c #9B991E",
"V 	c #47A1E8",
"W 	c #889962",
"X 	c #BC9301",
"Y 	c #48A4E5",
"Z 	c #579DF4",
"` 	c #EA8100",
" .	c #58A3EC",
"..	c #6BA5B0",
"+.	c #8E9B8F",
"@.	c #A7A320",
"#.	c #5DA0FE",
"$.	c #E88B00",
"%.	c #CA9C00",
"&.	c #DA9500",
"*.	c #E48D13",
"=.	c #D69800",
"-.	c #62A6FD",
";.	c #4FB0FE",
">.	c #D29627",
",.	c #C7A111",
"'.	c #6CA4FD",
").	c #66A9FF",
"!.	c #C99F29",
"~.	c #ED9500",
"{.	c #5AB3F4",
"].	c #B3A35A",
"^.	c #A1AC5B",
"/.	c #9AA2AA",
"(.	c #91AAA2",
"_.	c #8DA9B3",
":.	c #E99C00",
"<.	c #9DA6A2",
"[.	c #6AAFFF",
"}.	c #7AACE6",
"|.	c #95A8B4",
"1.	c #82ACD3",
"2.	c #72ACFF",
"3.	c #A6A791",
"4.	c #79AEF5",
"5.	c #81B0DD",
"6.	c #A9AF7F",
"7.	c #EA9F2E",
"8.	c #78B4F6",
"9.	c #77B3FF",
"0.	c #90B0CC",
"a.	c #A6B677",
"b.	c #DEA637",
"c.	c #E9A32B",
"d.	c #80B1FF",
"e.	c #9DB1BD",
"f.	c #83B4FB",
"g.	c #8AB5EA",
"h.	c #ADAEB2",
"i.	c #84B8FF",
"j.	c #9FB6C8",
"k.	c #B2BB8A",
"l.	c #B5B895",
"m.	c #B5B2B6",
"n.	c #CBB760",
"o.	c #87BEFF",
"p.	c #BAC26A",
"q.	c #E6C000",
"r.	c #8EBFF9",
"s.	c #90BDFF",
"t.	c #EFBD00",
"u.	c #ABBBC7",
"v.	c #98BEED",
"w.	c #C6C359",
"x.	c #9FBFDC",
"y.	c #9DC5C7",
"z.	c #F6B43F",
"A.	c #93C4FE",
"B.	c #B0C1C0",
"C.	c #B6C0BB",
"D.	c #B9C0B5",
"E.	c #93C8FB",
"F.	c #C3C0AB",
"G.	c #BFC3B2",
"H.	c #BFC1BE",
"I.	c #9DC8FD",
"J.	c #BEC3C5",
"K.	c #A0CAF2",
"L.	c #F3BF4D",
"M.	c #A7C9E9",
"N.	c #8FD2FC",
"O.	c #A0CBFF",
"P.	c #C0D385",
"Q.	c #BBC8CF",
"R.	c #BAD1A3",
"S.	c #D3C6A0",
"T.	c #F9D005",
"U.	c #FECF00",
"V.	c #E3D23A",
"W.	c #EFC465",
"X.	c #CBC9AE",
"Y.	c #A1D0FE",
"Z.	c #CCD186",
"`.	c #C9CAB4",
" +	c #E9D32E",
".+	c #A8CEFE",
"++	c #B3CEE6",
"@+	c #C0CDCE",
"#+	c #F9D700",
"$+	c #9BD8FD",
"%+	c #DACA9F",
"&+	c #B5D7C0",
"*+	c #CFCBBC",
"=+	c #DACC9A",
"-+	c #C2D1C4",
";+	c #C1D8A9",
">+	c #C9D0C5",
",+	c #C9CED1",
"'+	c #ACD6FF",
")+	c #B3D4FE",
"!+	c #B1D6F9",
"~+	c #D6D0BB",
"{+	c #D5D1C3",
"]+	c #BEDCCC",
"^+	c #C7DCBA",
"/+	c #D4D3CA",
"(+	c #CBD2E8",
"_+	c #FADA3F",
":+	c #C0D8EA",
"<+	c #FDE020",
"[+	c #DDD4BA",
"}+	c #BDD9FE",
"|+	c #FFE700",
"1+	c #EDDB73",
"2+	c #B8DCFF",
"3+	c #ECD3A3",
"4+	c #FBEA00",
"5+	c #CFD9D4",
"6+	c #D3DBBF",
"7+	c #DDD9B7",
"8+	c #E5D7B1",
"9+	c #D0D9E1",
"0+	c #E4DAA9",
"a+	c #EDE45C",
"b+	c #BFDFFD",
"c+	c #C5DDFC",
"d+	c #CDDDEB",
"e+	c #EADDA3",
"f+	c #FEDA7E",
"g+	c #DAE4AB",
"h+	c #FBE06C",
"i+	c #CCDFF9",
"j+	c #CAE2F4",
"k+	c #FFE368",
"l+	c #C8E4FC",
"m+	c #F4E0A7",
"n+	c #D0E4FE",
"o+	c #EDE1C1",
"p+	c #F2E2B6",
"q+	c #FEFE00",
"r+	c #FCF058",
"s+	c #CDE9FF",
"t+	c #DEE6EF",
"u+	c #FEE797",
"v+	c #EDEF9C",
"w+	c #FBFB38",
"x+	c #F1E7BF",
"y+	c #D9E9FD",
"z+	c #D4ECFE",
"A+	c #F3EDB0",
"B+	c #E0F0FE",
"C+	c #F8F0D8",
"D+	c #FCF1C9",
"E+	c #FAF2D0",
"F+	c #FBF7C0",
"G+	c #FFFD9D",
"                                                                ",
"                        (             (                         ",
"                          (         (                           ",
"                            ~     (                             ",
"      p                     {     ~                             ",
"      m                     , } k )                     m       ",
"        p               > 6 6 T W.< y '                 m       ",
"        m p             ; ' ' !._+! ; >               m         ",
"          m g b b m     | } Q <+T.=.4 }       g g m m p         ",
"                  b m     S ~.*.*.$.` D     9 p                 ",
"                    9 b   h 7.u+u+f+S   m 9 m                   ",
"                      a 9 E n.7.7.b.a.j 5 g                     ",
"                        f -+].z.L.b.l.l.8                       ",
"  p           p m i n c y.C+^+h+h+1+&+D+..7 n m                 ",
"    m m g b b i s 0 1 3.x+E+Z. +<+V.6+D+o++.3 h n d m m m q     ",
"                    E.t+0+F+p.c.:.,.g+A+8+B+{.                  ",
"                  {.B+/+%+m+6.>.7.J =+0+[+z+y+H                 ",
"                Y n+d+S.%+x+&+v+G+Z.6+3+%+/+l+!+z               ",
"              N c+c+~+%+0+C+R.a+r+w.]+p+%+S.j+b+Y.z             ",
"            K )+2+@+X.>+[+C+Z.w+w+V.6+x+*+~+/+c+c+E.z           ",
"          V .+.+Q.G.d+Q.<.5+W U @.u (.H.J.y+`.@+!+'+I.C         ",
"         ..+K.B.D.:+s+,+/.u.^ $ % % v m.J.B+d+G.H.M..+I.z       ",
"       .A.v.j.x.)+}+n+9+/.|.- + + @ : m.,+z+c+2+++u.x.A.s.G     ",
"    I i.s.0.v.O.)+2+}+(+F.<.% @ @ . / `.9+c+b+'+.+I.e.r.o.d.x   ",
"  l 2.9.f.0.A.A.O.'+2+}+{+k.X %.%.&.P `.n+c+}+)+O.I.j.g.f.9.Z   ",
"  B '.2.}.1.o.A.O..+'+c+(+^.t.|+4+U.X B.l+2+)+.+I.A.g.5.9.d.-.  ",
"  o -.2.4.4.i.s.I.O..+'+2+F q.q+q+#+w _.b+)+.+O.s.s.f.8.4.-.#.  ",
"  l #.'.[.9.9.o.s.O..+}+$+2 * = = & _ O b+'+.+I.A.o.f.9.).'.R   ",
"    M #.'.9.9.8.s.A.I.)+;.  [ # @ ]     E.)+I.A.o.8.9.2.).#.B   ",
"    r #.-.).2.d.o.s.O.I.r                ..+I.o.i.d.d.).'.R     ",
"      r R '.9.9.s.s.8.A                   G o.o.i.9.2.#.R       ",
"          x B I G z                           G I I I l         "};
