/* XPM */
static char * kcachegrind_xpm[] = {
"32 30 256 2",
"  	c None",
". 	c #0036CA",
"+ 	c #003FCA",
"@ 	c #0842D6",
"# 	c #004AD4",
"$ 	c #1144D1",
"% 	c #044CD0",
"& 	c #004FD8",
"* 	c #0056D9",
"= 	c #1C52D0",
"- 	c #2053D8",
"; 	c #135AD7",
"> 	c #0069E4",
", 	c #0F64E0",
"' 	c #2B59D1",
") 	c #1365DB",
"! 	c #2360D6",
"~ 	c #0E70DE",
"{ 	c #2A64D4",
"] 	c #206BD3",
"^ 	c #4362A7",
"/ 	c #556185",
"( 	c #0078F3",
"_ 	c #246BDB",
": 	c #236AE7",
"< 	c #1872E7",
"[ 	c #8E5A28",
"} 	c #276CE2",
"| 	c #346BCE",
"1 	c #8A5D2F",
"2 	c #7A5F59",
"3 	c #516A92",
"4 	c #426FA5",
"5 	c #2D71D9",
"6 	c #137CF1",
"7 	c #167FE6",
"8 	c #197FED",
"9 	c #4C74A0",
"0 	c #297AE2",
"a 	c #2979E8",
"b 	c #4875AC",
"c 	c #96672C",
"d 	c #0B8DDE",
"e 	c #6C6C8D",
"f 	c #3979DC",
"g 	c #0092F7",
"h 	c #3E80B5",
"i 	c #0093FF",
"j 	c #736F8B",
"k 	c #4778DD",
"l 	c #3285D2",
"m 	c #3481E3",
"n 	c #2987E8",
"o 	c #009CFF",
"p 	c #4281DD",
"q 	c #A27035",
"r 	c #A67331",
"s 	c #00A2FF",
"t 	c #6182A9",
"u 	c #3E8ADF",
"v 	c #87777E",
"w 	c #338EE8",
"x 	c #1798FF",
"y 	c #6B7FA2",
"z 	c #6682A3",
"A 	c #3F8AE5",
"B 	c #787C96",
"C 	c #00A6FF",
"D 	c #548CAA",
"E 	c #B67522",
"F 	c #AC7830",
"G 	c #00ABFF",
"H 	c #1F9CFC",
"I 	c #3B92ED",
"J 	c #BB781D",
"K 	c #458FE5",
"L 	c #3C91F3",
"M 	c #10A7FF",
"N 	c #3D95EA",
"O 	c #00B1FF",
"P 	c #25A8CB",
"Q 	c #7F839E",
"R 	c #3D98E5",
"S 	c #A18057",
"T 	c #C17D19",
"U 	c #00B7FF",
"V 	c #2DA3FD",
"W 	c #B78239",
"X 	c #4699F5",
"Y 	c #459BEF",
"Z 	c #1EADFE",
"` 	c #668EE2",
" .	c #17B5EB",
"..	c #1CB1F5",
"+.	c #2DAAEF",
"@.	c #8A8A9F",
"#.	c #868DA1",
"$.	c #5997E7",
"%.	c #3EA2F6",
"&.	c #519BEA",
"*.	c #7293BB",
"=.	c #AA885E",
"-.	c #3FA1FC",
";.	c #00C1FF",
">.	c #49A0EE",
",.	c #8A8DA8",
"'.	c #6B94E2",
").	c #CE871B",
"!.	c #7897B3",
"~.	c #00C7FF",
"{.	c #15BEFF",
"].	c #0DC6F4",
"^.	c #8C94A8",
"/.	c #8F92AD",
"(.	c #00CCFF",
"_.	c #7D99BC",
":.	c #679EE3",
"<.	c #3CB3F8",
"[.	c #9696AC",
"}.	c #43B7E2",
"|.	c #20C4FF",
"1.	c #3FB7F5",
"2.	c #00D6FC",
"3.	c #54AEEF",
"4.	c #4DAFFD",
"5.	c #74A0E7",
"6.	c #05D4FF",
"7.	c #4DB1F8",
"8.	c #00DAF1",
"9.	c #36BCFF",
"0.	c #C69550",
"a.	c #6FA5EA",
"b.	c #49BBE6",
"c.	c #25C9FE",
"d.	c #35C2F9",
"e.	c #57B3ED",
"f.	c #45B9FE",
"g.	c #00DCFF",
"h.	c #7DA6CD",
"i.	c #9C9CB2",
"j.	c #BF9963",
"k.	c #95A0BA",
"l.	c #78A7E7",
"m.	c #3BC2FF",
"n.	c #89A5C8",
"o.	c #65B0F3",
"p.	c #00E3FF",
"q.	c #14DBFF",
"r.	c #60B7F9",
"s.	c #3CCAF9",
"t.	c #6FB2F0",
"u.	c #14DFFE",
"v.	c #DC9F3A",
"w.	c #9BA7C1",
"x.	c #31D2FF",
"y.	c #A0A7BC",
"z.	c #00ECFF",
"A.	c #4DC7F8",
"B.	c #42CDFD",
"C.	c #32D6FE",
"D.	c #6CBAF6",
"E.	c #83B3E0",
"F.	c #6BBCF2",
"G.	c #4DCBF5",
"H.	c #66C0FB",
"I.	c #43D2FA",
"J.	c #1BE6FE",
"K.	c #9FAFC2",
"L.	c #E5A739",
"M.	c #92B6CB",
"N.	c #35DCFD",
"O.	c #AEABBC",
"P.	c #A7AFC4",
"Q.	c #E8A933",
"R.	c #55CEFF",
"S.	c #B7ADB3",
"T.	c #9AB5D9",
"U.	c #A8B3C1",
"V.	c #56D2FD",
"W.	c #49DAFB",
"X.	c #95B7ED",
"Y.	c #D7B05F",
"Z.	c #6CCCF9",
"`.	c #57D7FA",
" +	c #A7BAC6",
".+	c #F0AF3A",
"++	c #AEB6CB",
"@+	c #4BE0FB",
"#+	c #3EE6FF",
"$+	c #96C0E8",
"%+	c #3EEAFC",
"&+	c #D8B86B",
"*+	c #92C5EB",
"=+	c #AABDD6",
"-+	c #81CEF7",
";+	c #AFBED2",
">+	c #5DE0FC",
",+	c #90C8F5",
"'+	c #B3BFCD",
")+	c #A4C4E1",
"!+	c #E7B969",
"~+	c #BABECE",
"{+	c #8CCFFA",
"]+	c #5FE6FB",
"^+	c #A9C9D9",
"/+	c #9ACCF3",
"(+	c #95D1F6",
"_+	c #E5C36F",
":+	c #9AD1F1",
"<+	c #B7C7DA",
"[+	c #57F2FE",
"}+	c #A2CFF1",
"|+	c #63EEFC",
"1+	c #A1D3ED",
"2+	c #99D5FB",
"3+	c #EAC97B",
"4+	c #BCD0DC",
"5+	c #A2D9F8",
"6+	c #ABD8EC",
"7+	c #9DDDFB",
"8+	c #F6CC73",
"9+	c #A9DFF2",
"0+	c #A5E1F9",
"a+	c #F3D17C",
"b+	c #F4D284",
"c+	c #A8E4FC",
"d+	c #ECD8A0",
"e+	c #B0E6F9",
"f+	c #B2E8FB",
"g+	c #B6ECFF",
"h+	c #B5F0FC",
"i+	c #BCEEFB",
"j+	c #C1EEF6",
"k+	c #D6E7ED",
"l+	c #B8F3FF",
"m+	c #C0F2FF",
"n+	c #C0F6FC",
"o+	c #FFE8A9",
"p+	c #C7F5FC",
"q+	c #FAEBAA",
"r+	c #F9EBB0",
"s+	c #C2F9FF",
"t+	c #D0F5FE",
"u+	c #C4FBFF",
"v+	c #D2F7FF",
"w+	c #CAFDFC",
"x+	c #D7F8FB",
"y+	c #D2FCFD",
"z+	c #CDFFFF",
"A+	c #D5FFFF",
"B+	c #E5FAF9",
"C+	c #DDFFFF",
"D+	c #E2FFFC",
"E+	c #E9FFFE",
"F+	c #F1FEFF",
"G+	c #F8FDFF",
"                          ++=+<+<+;+;+                          ",
"                      P.T.*+/+{+2+2+1+)+++                      ",
"                    w.E.,+7+0+c+0+0+e+9+1+K.                    ",
"                  k.T.(+e+i+m+i+g+5+0+g+i+6+K.                  ",
"                  n.,+0+i+w+A+v+i+m+f+i+m+i+^+                  ",
"                ,.E.5+c+u+x+E+x+m+y+p+u+w+w+j+[.                ",
"                ,.,+5+g+w+C+F+x+m+A+y+y+A+D+w+K.                ",
"                ,.{+7+f+g+v+p+l+A+C+A+A+A+A+A+ +                ",
"            m.g.!./+0+f+c+c+m+w+E+A+C+D+C+D+D+U.                ",
"          -.%+p.D *+c+5+g+p+y+x+A+C+E+E+F+E+E+,.                ",
"      q.s.A N.u.P n.7+c+c+g+s+w+C+C+E+E+G+F+k+e                 ",
"    u.J.J.N.J.J.8.t 1+f+c+h+u+A+A+E+E+G+G+F+U.                  ",
"    H.N.p.u.p. .| ^ _.5+i+g+u+A+A+E+E+F+G+~+B                   ",
"    r.H.J.u.].w w l b _.6+p+s+w+A+C+E+B+'+@.i.[.                ",
"  X K e.J.p.1.R       / z K.i+u+A+y+4+#.B i.O.S.0.).            ",
"m.J.z.p.p.u.9.            3 3 z z 9 h d (     j.!+L.).          ",
"r.#+p.u.g.2.c.                b.}.{.M G Z g 2 Y.q+b+.+).        ",
"4.G.N.#+u.2.C.                W.W.Z.M s C H 4 W b+r+8+L.T       ",
"X ' + ) Z.6.(.|.                [+>+s C u *     F &+r+b+.+J     ",
"I ' % u D.C.(.(.9.              [+R.o C ]         r 3+o+b+L.E   ",
"  0 a R t.C.~.c.|.+.            ]+O o o g a         q 3+r+8+v.[ ",
"      A I.c.|.;.;.{.|.        9.Z o x H x C >         c &+d+=.v ",
"      K `.~.~.|.s.U O O U {.9.V o o M Y V Z _           1 S v j ",
"      K 3.x.H.f K Z.m.G M s o o g o &.= { !                     ",
"    6 w n :.= 5 0 p <.M s <.7.r.s i %.5 #                       ",
"      k A p ' } 5 a.1.C G >.{ p D.i o m                         ",
"        } >     = X.-+M G w ! 5.l.H.H.}                         ",
"                  l.p $.t.| + ` 5.'..                           ",
"                  f ~ ) %     ' k #                             ",
"                  % # % $                                       "};
