/* XPM */
static char * umbrello_xpm[] = {
"32 32 68 1",
" 	c None",
".	c #FF0000",
"+	c #FF0100",
"@	c #FF0101",
"#	c #FF0503",
"$	c #FF0605",
"%	c #FF0E0A",
"&	c #FF100C",
"*	c #FF140F",
"=	c #FF1712",
"-	c #FF1813",
";	c #FF1913",
">	c #FF1F17",
",	c #FF1F18",
"'	c #FF2019",
")	c #FF221A",
"!	c #FF241C",
"~	c #FF261D",
"{	c #FF291F",
"]	c #FF2A20",
"^	c #FF2C22",
"/	c #FF3025",
"(	c #FF3629",
"_	c #FF372B",
":	c #FF4233",
"<	c #FF4837",
"[	c #FF4938",
"}	c #FF4939",
"|	c #FF4C3B",
"1	c #FF4E3C",
"2	c #FF5945",
"3	c #FF5E48",
"4	c #FF604A",
"5	c #FF624C",
"6	c #FF6850",
"7	c #FF745A",
"8	c #FF775C",
"9	c #FF7B60",
"0	c #FF7F63",
"a	c #FF8C6D",
"b	c #FF8F6F",
"c	c #FF9775",
"d	c #FF9976",
"e	c #FFA07C",
"f	c #FFAD86",
"g	c #FFAF87",
"h	c #FFB38B",
"i	c #FFB98F",
"j	c #FFBC92",
"k	c #FFC498",
"l	c #FFC89B",
"m	c #FFCFA1",
"n	c #FFD3A3",
"o	c #FFD9A8",
"p	c #FFDBAA",
"q	c #FFDFAD",
"r	c #FFE2AF",
"s	c #FFE8B4",
"t	c #FFEBB6",
"u	c #FFEDB8",
"v	c #FFEFB9",
"w	c #FFEFBA",
"x	c #FFF4BD",
"y	c #FFF9C1",
"z	c #FFFBC2",
"A	c #FFFDC4",
"B	c #FFFEC5",
"C	c #FFFFC6",
"    ...                         ",
"  .......                       ",
" +.}hme!..                      ",
"..2CCCCw'.                      ",
"..lCCCCC0.                      ",
"..kCCCCC9.                      ",
" .|BCCCs;.                      ",
" @._eja-...                     ",
"  ..........                    ",
"    ...   ...                   ",
"    ..     ...                  ",
"    ..      ...                 ",
"...........  ...                ",
"...........   ...               ",
"..........      ...             ",
"    ..           ...            ",
"    ..            ...           ",
"    ...            ...          ",
"   .....            ...         ",
"  ... ..         ..........     ",
"  ..  ...      ......=>#.....   ",
" ..    ...    .../dpyCCArg<...  ",
"...     ..   ..&iCCCCCCCCCCo].. ",
"             .%nCCCCCCCCCCCCu^..",
"            ..3CCCCCCCCCCCCCCc..",
"            ..7CCCCCCCCCCCCCCf..",
"             .,xCCCCCCCCCCCCC1..",
"             ..(tCCCCCCCCCCz4.. ",
"              ..*8qCCCCCCvb~..  ",
"               ...@):56[{$...   ",
"                 ..........     ",
"                     ..         "};
