/* XPM */
static char*ab[]={
"22 22 13 1",
"j c #ffa858",
"d c #c0c0c0",
"c c #d6cdbb",
"g c #ffc0c0",
"h c #c05800",
"# c #000000",
"k c #ffdca8",
". c None",
"e c #c00000",
"b c #a0a0a4",
"a c #dcdcdc",
"i c #ffffff",
"f c #ff0000",
"......................",
"................#aa...",
"...............#aa#b..",
".............cc#aa#bc.",
"......#########aa#bb..",
".....#dddddddd#aa#bc..",
".....#dededed#aa#bb...",
"....#ddfgfgfg#aa#bcc..",
"....#ddddddd####bb.cc.",
"...#dddddde#aa##bc....",
"...#dddhdd#iia##b.....",
"..#ddddjkd#iab##b#c...",
"..#dddddd#iab##bb#c...",
"..c#ddhdd#ab##bb#c....",
"...#ddjk#ib##bbi#c....",
"...c#dd####bbbi#c.....",
"....#ddhbbbbddi#c.....",
"....c#djkjkjki#c......",
".....#iiiiiiii#c......",
".....c########c.......",
"......................",
"......................"};
