/* XPM */
static char*net[]={
"22 22 10 1",
". c None",
"b c #808080",
"f c #a0a0a0",
"a c #c3c3c3",
"# c #000000",
"e c #0000c0",
"h c #ffff00",
"d c #585858",
"c c #ffffff",
"g c #ff0000",
"......................",
"......................",
".....#######..........",
"...##aaaabbb##........",
"...#ccaaaaabbb##......",
"...#ddccaaaaabbb#.....",
"...#eeddccaaabbbb#....",
"...#eeeeddcaadbbb#....",
"...#eeeeeecbbdbbb#....",
"...#eeeeeecbbdbbb#....",
"...#aeeeeecbbdbbb#....",
"....#aaeeecbbdbb#.....",
"....###aaecbb###......",
"....#aa##aa##dd#......",
".....##aa##dd##.......",
"..###..##ad##..d##d...",
".##aa##..##.#.##aa##..",
".#aaaaa##..#.#fgagaf#.",
"..##daaaa##..#aaaaaa##",
"....##daa#...#ahaaha#.",
"......###.....##ah##..",
"...............d##d..."};
