/* XPM */
static char*ab[]={
"22 22 11 1",
"h c #ffa858",
"d c #d6cdbb",
"b c #c0c0c0",
"f c #ffc0c0",
"g c #c05800",
"# c #000000",
"i c #ffdca8",
". c None",
"c c #c00000",
"a c #ffffff",
"e c #ff0000",
"......................",
"................#a....",
"................#a....",
".............#a.#a.#a.",
"......#######.#a#a#a..",
".....#bbbbbbbb.#.#....",
".....#bcbcbcba.d......",
"....#bbefefefb#a#a#a..",
"....#bbbbbbbb#a.#a.#a.",
"...#bbbbbbcbcbb.#a....",
"...#bbbgbbefefba#a....",
"..#bbbbhibbbbbbba#d...",
"..#bbbbbbbbbbcbba#d...",
"..d#bbgbbbgbbefa#d....",
"...#bbhibbhibbba#d....",
"...d#bbbbbbbbba#d.....",
"....#bbgbgbgbba#d.....",
"....d#bhihihia#d......",
".....#aaaaaaaa#d......",
".....d########d.......",
"......................",
"......................"};
