/* XPM */
static char*noball[]={
"16 16 3 1",
"# c #808080",
". c None",
"a c #ffffff",
".....#####......",
"...#########....",
"..###aaaaa###...",
".###a.....a###a.",
".##a........##a.",
"##a..........##a",
"##a..........##a",
"##a..........##a",
"##a..........##a",
"##a..........##a",
".##a........##a.",
".###.......###a.",
"..###.....###a..",
"...#########a...",
"...aa#####aa....",
".....aaaaa......"};
