/* XPM */
static char*redball[]={
"16 16 6 1",
"# c #000000",
"a c #400000",
"b c #800000",
". c None",
"d c #ffffff",
"c c #ff0000",
".....#####......",
"...##aaaaa##....",
"..##aabbbbb##...",
".##aabbbbbbb##..",
".#aabbbbbbbbb#..",
"#aabbbbbbbbbbb#.",
"#aabbbbbcccbbb#.",
"#aabbbbcccccbb#.",
"#aabbbcccccccb#.",
"#aabbbccccdccb#.",
".#aabbcccdddc#..",
".##aabbcccdc##..",
"..##aabbccc##...",
"...##aaaaa##....",
".....#####......",
"................"};
