/* XPM */
static char*spy0[]={
"22 22 14 1",
"a c #808080",
"j c #ffa858",
"l c #d6cdbb",
"c c #c0c0c0",
"g c #ffc0c0",
"i c #c05800",
"# c #000000",
". c None",
"k c #ffdca8",
"d c #c00000",
"h c #585858",
"e c #dcdcdc",
"b c #ffffff",
"f c #ff0000",
"......................",
"...........####.......",
"..........#....#......",
".........#.aaaa.#.....",
"......####baaaa.#b....",
".....#ccc#baaaa.#b....",
".....#cdc#eaaaa.#b....",
"....#ccfgf#ebbe#b.....",
"....#cccccc#####h.....",
"...#ccccccdcdcc.hb....",
"...#ccciccfgfgc.#h....",
"..#ccccjkccccccc.hb...",
"..#ccccccccccdcc.#h...",
"..l#cciccciccfgb#.hb..",
"...#ccjkccjkcccb#..h..",
"...l#cccccccccb#l..h..",
"....#cciciciccb#l.....",
"....l#cjkjkjkb#l......",
".....#bbbbbbbb#l......",
".....l########l.......",
"......................",
"......................"};
