/* XPM */
static char*spy1[]={
"22 22 13 1",
"i c #ffa858",
"k c #d6cdbb",
"e c #c0c0c0",
"g c #ffc0c0",
"h c #c05800",
"# c #000000",
". c None",
"j c #ffdca8",
"f c #c00000",
"d c #a0a0a4",
"a c #dcdcdc",
"b c #ffffff",
"c c #ff0000",
"......................",
"...........####.......",
"..........#abba#......",
".........#ac##ca#.....",
"......####bdccbb#b....",
".....#eee#bbccbb#b....",
".....#efe#acbbca#b....",
"....#eecgc#abba#bb....",
"....#eeeeee######b....",
"...#eeeeeefefee##bb...",
"...#eeeheecgcge###b...",
"..#eeeeijeeeeeee##b...",
"..#eeeeeeeeeefee###b..",
"..k#eeheeeheecgbb#....",
"...#eeijeeijeeebb.....",
"...k#eeeeeeeeeb#k.....",
"....#eeheheheeb#k.....",
"....k#eijijijb#k......",
".....#bbbbbbbb#k......",
".....k########k.......",
"......................",
"......................"};
