/* XPM */
static char *atlantik-16[] = {
/* columns rows colors chars-per-pixel */
"16 16 52 1",
"  c black",
". c #191919",
"X c gray22",
"o c #393939",
"O c #414141",
"+ c gray28",
"@ c gray33",
"# c #565656",
"$ c #486448",
"% c #4C614C",
"& c #5F795F",
"* c gray38",
"= c #646464",
"- c #717171",
"; c #767D76",
": c #797979",
"> c #7E7E7D",
", c #7E7E7E",
"< c #7F827F",
"1 c #808380",
"2 c #848484",
"3 c #868686",
"4 c #898989",
"5 c #859985",
"6 c #9A9B9A",
"7 c #9D9F9D",
"8 c #A0A0A0",
"9 c gray64",
"0 c #A1AEA1",
"q c #B4B4B4",
"w c #90C990",
"e c #A9DAA9",
"r c #BEF2BE",
"t c #C2C2C0",
"y c gray80",
"u c #D7D7D7",
"i c gainsboro",
"p c #C3E2C3",
"a c #E6E6E6",
"s c #E7E7E7",
"d c gray91",
"f c #EAEAEA",
"g c gray92",
"h c #EDEEED",
"j c #EFEFEF",
"k c #ECFBEC",
"l c gray94",
"z c #F1F1F1",
"x c gray98",
"c c #FDFDFB",
"v c gray100",
"b c None",
/* pixels */
"b*************bb",
"*tc>c>c>c>c>ctXb",
"*cr&r&r&k&r&rwXb",
"*>&&&&&&;&&&&$Xb",
"*cr&rrrekrr&rwXb",
"*>&&r%rekrr&&$Xb",
"*cr&rrrekrr&rwXb",
"*>&06<1775r&&$Xb",
"#vpyu=-h9Xr&rwXb",
"=>>vvvvhXXr&&$Xb",
"=v4 vi x#Xr&rwXb",
"*>2vli9l#X&&&$Xb",
"*c2vguqa.Xr&rwXb",
"*w2 vv l+Xw$wwXb",
"bX:vggvaOXXXXXbb",
"bbXXXXXXXbbbbbbb"
};
