/* XPM */
static char *kasteroids-16[] = {
/* columns rows colors chars-per-pixel */
"16 16 196 2",
"   c black",
".  c #050000",
"X  c #050500",
"o  c #080804",
"O  c #0E0A0E",
"+  c #0C0C0C",
"@  c #110703",
"#  c #120A07",
"$  c #1F1209",
"%  c gray7",
"&  c gray9",
"*  c #181215",
"=  c gray12",
"-  c #230B02",
";  c #2E170D",
":  c #2B1C17",
">  c #30170A",
",  c #3E1906",
"<  c #3F1906",
"1  c #25272C",
"2  c #28262B",
"3  c #2B2B2F",
"4  c #2D2D2D",
"5  c #292B30",
"6  c #2C2E33",
"7  c #2F2C31",
"8  c #2E3039",
"9  c #2F313A",
"0  c #3C2D2B",
"q  c #382F31",
"w  c #31343F",
"e  c #3C383E",
"r  c #353741",
"t  c #353840",
"y  c #3B414E",
"u  c #3F4652",
"i  c #4C2412",
"p  c #53210A",
"a  c #5D2E19",
"s  c #462B20",
"d  c #412D29",
"f  c #4F3126",
"g  c #4B342E",
"h  c #4F3C39",
"j  c #573223",
"k  c #5E3321",
"l  c #5B392D",
"z  c #503934",
"x  c #543D38",
"c  c #602102",
"v  c #632404",
"b  c #662607",
"n  c #672606",
"m  c #6A2401",
"M  c #6A2603",
"N  c #6C2502",
"B  c #652B10",
"V  c #682D11",
"C  c #61331F",
"Z  c #6F3113",
"A  c #6B3218",
"S  c #6B361E",
"D  c #702D0C",
"F  c #782A03",
"G  c #7F2E05",
"H  c #7A310D",
"J  c #7E3C1A",
"K  c #633725",
"L  c #613A2A",
"P  c #6C3F2F",
"I  c #603F34",
"U  c #7A3D20",
"Y  c #56413C",
"T  c #6B402F",
"R  c #60443D",
"E  c #67463C",
"W  c #71493A",
"Q  c #4F4040",
"!  c #4F4142",
"~  c #4F474C",
"^  c #454A57",
"/  c #474C57",
"(  c #4A4951",
")  c #4B505B",
"_  c #4D525E",
"`  c #50474B",
"'  c #564C4E",
"]  c #5C4E4F",
"[  c #505055",
"{  c #535357",
"}  c #53535D",
"|  c #565258",
" . c #575559",
".. c #56555E",
"X. c #5D5153",
"o. c #575C68",
"O. c #595C64",
"+. c #5A5F6C",
"@. c #5C606B",
"#. c #5D626F",
"$. c #604F4E",
"%. c #6C5049",
"&. c #615356",
"*. c #7B5040",
"=. c #7C584B",
"-. c #785951",
";. c gray40",
":. c #67676A",
">. c #646772",
",. c #656974",
"<. c #676A76",
"1. c #686870",
"2. c #6A6A70",
"3. c #6A6C74",
"4. c #6D6D75",
"5. c #6C6E76",
"6. c #6B6E78",
"7. c #6C6F78",
"8. c #6C6F79",
"9. c #6F7179",
"0. c #70717A",
"q. c #71717A",
"w. c #70727B",
"e. c #70737D",
"r. c #74767D",
"t. c #75767D",
"y. c #79787E",
"u. c #79797F",
"i. c gray50",
"p. c #767880",
"a. c #767882",
"s. c #797A83",
"d. c #797B83",
"f. c #797C83",
"g. c #7A7C85",
"h. c #7A7C86",
"j. c #813007",
"k. c #823108",
"l. c #81340D",
"z. c #85360E",
"x. c #8B370C",
"c. c #8C421B",
"v. c #8F431D",
"b. c #934016",
"n. c #9A451A",
"m. c #9E481B",
"M. c #8F4623",
"N. c #8F4724",
"B. c #804C36",
"V. c #904925",
"C. c #9D512B",
"Z. c #9C5331",
"A. c #9B5A37",
"S. c #A75123",
"D. c #A75125",
"F. c #A4552D",
"G. c #AA5326",
"H. c #A25B37",
"J. c #A25C39",
"K. c #A85A31",
"L. c #AF5E35",
"P. c #B05E35",
"I. c #BD6335",
"U. c #855B4B",
"Y. c #965E47",
"T. c #8C6050",
"R. c #8E6457",
"E. c #98624C",
"W. c #AD6643",
"Q. c #AE6642",
"!. c #A06952",
"~. c #D37341",
"^. c #D47C4F",
"/. c #D78C5D",
"(. c #E48654",
"). c #E58D5C",
"_. c #E99362",
"`. c #EC9968",
"'. c #E9AB76",
"]. c #F2A16C",
"[. c #808289",
"{. c #848690",
"}. c #8A8B92",
"|. c #8A8B93",
" X c #8A8C93",
".X c #8D8D93",
"XX c #8D8E96",
"oX c #909095",
"OX c #93939A",
"+X c #9A989A",
"@X c #9998A0",
"#X c #9B9CA3",
"$X c #9D9DA4",
"%X c #A7A7B0",
"&X c #A9A9B0",
"*X c None",
/* pixels */
"*X*X*X*X    4  .oXf.3   *X*X*X*X",
"*X*X*X  ( XX$X$XOX$X$XOX:.% *X*X",
"*X*X+ y.&X+Xf.r.0.[..X}.{.}.= *X",
"*X*X{ %XXXh.0.4.r.f.0.a.8.d.2.  ",
"*Xi.4.h.e.,.4.3.1.O./ ^ @.0.a.  ",
"*X+X,._ _ | &.&.X.' e 9 y +.5.& ",
";.>.u w ~ E P W -.%.x 0 q ( #.7 ",
"1 o.r 7 Y =.U.U.R.*.T l g ! } t ",
"w  .h d k W E.!.E.U Z S L z ` 5 ",
"2 $.Y K V H M.Z.v.j.F D a f h O ",
"* R K B N k.n.D.S.m.x.m p k :   ",
"  i A c B z.C.L.L.F.c.n v i   *X",
"*X. < G z.N.J.Q.Q.H.V.l.m # *X*X",
"*X*X  < G.~.).`._.^.I.b.- *X*X*X",
"*X*X*X  ; A./.'.].(.K.>   *X*X*X",
"*X*X*X*X*X  X o # $ . *X*X*X*X*X"
};
