/* XPM */
static char *kasteroids[] = {
/* columns rows colors chars-per-pixel */
"32 32 257 2",
"   c #000000",
".  c #0A0603",
"X  c #0E0906",
"o  c #0B0B0B",
"O  c #0D0D12",
"+  c #160A04",
"@  c #1A0B04",
"#  c #141212",
"$  c #131318",
"%  c #1A1B1B",
"&  c #230D03",
"*  c #29150B",
"=  c #221510",
"-  c #361D13",
";  c #211E20",
":  c #3A2113",
">  c #2A2B2C",
",  c #232329",
"<  c #2F2E35",
"1  c #2E313C",
"2  c #342A2B",
"3  c #3A2925",
"4  c #3B2A27",
"5  c #322D32",
"6  c #323235",
"7  c #31323B",
"8  c #3C3233",
"9  c #38383F",
"0  c #3B363B",
"q  c #343A46",
"w  c #3C3C42",
"e  c #383C48",
"r  c #3C424F",
"t  c #3F4551",
"y  c #531D02",
"u  c #5B1D00",
"i  c #4B200B",
"p  c #4D2A1D",
"a  c #53230C",
"s  c #5D2104",
"d  c #5F280D",
"f  c #562005",
"g  c #522B1A",
"h  c #5F2A10",
"j  c #522815",
"k  c #5A301E",
"l  c #422E2A",
"z  c #492C22",
"x  c #4B332C",
"c  c #47332E",
"v  c #4E3833",
"b  c #4B3C3C",
"n  c #453330",
"m  c #51352B",
"M  c #57382D",
"N  c #5F3626",
"B  c #5E392B",
"V  c #523327",
"C  c #543A34",
"Z  c #503F3D",
"A  c #593B32",
"S  c #622202",
"D  c #6C2503",
"F  c #6C2B0B",
"G  c #662807",
"H  c #602C14",
"J  c #6D2F11",
"K  c #663016",
"L  c #64311A",
"P  c #6D3114",
"I  c #6B341A",
"U  c #6E391D",
"Y  c #722500",
"T  c #742A04",
"R  c #722E0C",
"E  c #7C2C03",
"W  c #75300E",
"Q  c #7F3007",
"!  c #7A320E",
"~  c #733212",
"^  c #7A3615",
"/  c #77381B",
"(  c #643622",
")  c #663825",
"_  c #623B2C",
"`  c #6A3720",
"'  c #6B3D2A",
"]  c #623E31",
"[  c #753C22",
"{  c #713F2B",
"}  c #463E42",
"|  c #4B3F42",
" . c #5F4036",
".. c #5C423B",
"X. c #654033",
"o. c #62453D",
"O. c #6C483A",
"+. c #754632",
"@. c #754A39",
"#. c #484145",
"$. c #4B494D",
"%. c #454349",
"&. c #404652",
"*. c #454A55",
"=. c #4C4C53",
"-. c #4D4E58",
";. c #474C58",
":. c #4C515C",
">. c #53494C",
",. c #594644",
"<. c #594A4B",
"1. c #514546",
"2. c #534C50",
"3. c #505053",
"4. c #54535A",
"5. c #5E5354",
"6. c #5B595C",
"7. c #505561",
"8. c #555964",
"9. c #5B5C63",
"0. c #5A5E69",
"q. c #5C606B",
"w. c #614740",
"e. c #634944",
"r. c #624D4A",
"t. c #6A4C43",
"y. c #65514E",
"u. c #69514D",
"i. c #655758",
"p. c #665859",
"a. c #665451",
"s. c #73544C",
"d. c #795448",
"f. c #7D584B",
"g. c #785347",
"h. c #7D5C52",
"j. c #715954",
"k. c #625C62",
"l. c #64636A",
"z. c #626570",
"x. c #656974",
"c. c #6A6C74",
"v. c #6B6E79",
"b. c #6D707B",
"n. c #73747D",
"m. c #76787F",
"M. c #7A7A7D",
"N. c #747681",
"B. c #757881",
"V. c #7A7C84",
"C. c #7C7F88",
"Z. c #7F7F91",
"A. c #7F8087",
"S. c #7E8189",
"D. c #822F03",
"F. c #833107",
"G. c #843209",
"H. c #8D390D",
"J. c #89350A",
"K. c #833914",
"L. c #8D3B11",
"P. c #8D3F18",
"I. c #833A16",
"U. c #923D11",
"Y. c #803F20",
"T. c #8A411D",
"R. c #994215",
"E. c #9C491D",
"W. c #964319",
"Q. c #834A2F",
"!. c #8B4422",
"~. c #874626",
"^. c #874C32",
"/. c #944822",
"(. c #944D2B",
"). c #9C4C23",
"_. c #904622",
"`. c #96502B",
"'. c #99512E",
"]. c #9C5532",
"[. c #9E5935",
"{. c #A34C1E",
"}. c #A24D21",
"|. c #A55024",
" X c #A6582F",
".X c #A95428",
"XX c #AE592D",
"oX c #A85327",
"OX c #A55D39",
"+X c #AD5D33",
"@X c #A15935",
"#X c #B25B2D",
"$X c #B05F34",
"%X c #AA613C",
"&X c #A6613E",
"*X c #B36238",
"=X c #BB663A",
"-X c #845B4E",
";X c #855643",
":X c #8A5F50",
">X c #965B42",
",X c #8C6152",
"<X c #876357",
"1X c #96614B",
"2X c #926452",
"3X c #9A6652",
"4X c #9D6A55",
"5X c #A0654B",
"6X c #AB6542",
"7X c #AE6844",
"8X c #B76840",
"9X c #B06E48",
"0X c #C76735",
"qX c #C66A3B",
"wX c #C27249",
"eX c #C6784F",
"rX c #CA7C53",
"tX c #D57848",
"yX c #CB8B5E",
"uX c #DD804E",
"iX c #DBA573",
"pX c #E18553",
"aX c #E58B59",
"sX c #EE905C",
"dX c #F5935E",
"fX c #ED9362",
"gX c #F49B6A",
"hX c #F59B67",
"jX c #EAA36F",
"kX c #FFA26B",
"lX c #FFAD75",
"zX c #FFB37A",
"xX c #84858C",
"cX c #868891",
"vX c #8B8C94",
"bX c #8D8F98",
"nX c #8E9099",
"mX c #979797",
"MX c #92939B",
"NX c #9597A0",
"BX c #9698A0",
"VX c #9B9CA3",
"CX c #9FA0A6",
"ZX c #A0A0A7",
"AX c #A3A4AB",
"SX c #A7A8AE",
"DX c #A8A9AD",
"FX c #ACACB3",
"GX c #B0B0B6",
"HX c #B4B4BA",
"JX c #B7B8BE",
"KX c gray75",
"LX c #BBBCC1",
"PX c #FFBC82",
"IX c #C3C3C8",
"UX c #C1C2C7",
"YX c None",
/* pixels */
"YXYXYXYXYXYXYXYXYXYXYXYXYXYX  SX    YXYXYXYXYXYXYXYXYXYXYXYXYXYX",
"YXYXYXYXYXYXYXYXYXYXYXYX  KXS.6.4.9.6.> YXYXYXYXYXYXYXYXYXYXYXYX",
"YXYXYXYXYXYXYXYXYXYXYX; $.m.VXFXJXJXHXVXl.} % YXYXYXYXYXYXYXYXYX",
"YXYXYXYXYXYXYXYXYX5 c.VXFXJXLXUXIXLXGXDXGXDXVXxX=.o YXYXYXYXYXYX",
"YXYXYXYXYXYXYX, M.SXGXSXSXSXLXIXLXLXGXCXMXZXAXFXFXZX9.  YXYXYXYX",
"YXYXYXYXYXYX$.ZXFXAXZXmXxXxXSXHXFXFXSXbXbXMXMXm.c.MXFXbX% YXYXYX",
"YXYXYXYXYX=.FXFXZXVXMXvXn.v.xXMXVXAXVXMXbXxXxXC.l.0.C.SXxX  YXYX",
"YXYXYXYXo VXAXVXVXMXcXA.n.c.m.xXMXMXMXbXV.n.xXS.C.b.4.V.AX9 YXYX",
"YXYXYXYX6 CXnXbXAXMXS.S.n.n.N.C.cXcXC.n.z.0.z.z.b.N.6.m.MXl.  YX",
"YXYXYXYXl.bXS.V.MXcXV.N.N.n.n.n.n.v.z.8.:.;.&.*.0.x.c.N.xXV.  YX",
"YXYXYXM.V.m.b.x.b.b.x.z.z.l.l.l.k.k.6.2.&.e q q t 7.z.v.n.V.$ YX",
"YXYXmXm.b.q.7.:.7.8.4.4.5.a.r.y.p.p.5.<.} 0 7 7 q &.7.q.x.N.> YX",
"YX  m.v.8.*.r q &.4.,.X.X.X.' O.j.j.a.r.| 8 4 5 7 w *.7.q.v.&.  ",
"YX6.v.0.*.q 1 7 %.a.o.{ { { +.g.h.-Xs.t.w.v x 3 2 8 | -.7.q.9.  ",
"  =.x.:.e 1 < 5 b y.s.s.d.d.;X-X<X:Xf.@.O.] A x l l b 2.-.7.0.$ ",
"  0.q.*.q 9 7 2 c e.g.-X:X,X2X2X2X2Xd.+.{ ' ] B M v Z 1.$.-.7.% ",
"o 8.7.-.1.} 8 2 z ] @.;X1X3X3X3X4X3X^.[ U I U ) _ A A b | $.-.$ ",
"O -.4.<.,.A x z g I [ ^.[.1X5X3X>X^.[ ~ R ~ P I ( _ m x b >.}   ",
". ;.2.,...] ( k L J R ^ !.(.].]._.K.F.E Y T R ~ K k z x C >.;   ",
"  } <...A _ ( I J R E E J.T.).).E.U.H.J.D.E T F H j p V A n   YX",
"  2 e.A B ( K F D Y E H.W.E.E.|.}.}.).U.U.J.Y S a a g _ A X   YX",
"YX# o.] ( H d s u D ! P.).oXXX#X#XXX.X}.W.H.T u u a H ) =   YXYX",
"YX  3 ' I H s u s F ~ !.(. X*X*X$X$X+XoX/.I.J u u G I -   YXYXYX",
"YX    - H R D D R ^ [ ~.(.[.OX%X%XOX@X'./.I.~ F S D i .   YXYXYX",
"YXYX    @ y D.J.J.F.W.].@X&X7X7X7X7XOX[.`._.K.E D.S X   YXYXYXYX",
"YXYXYX      y R.{.|.E.XXwXeXtXyXrXrX9X8X*X).U.U.T @   YXYXYXYXYX",
"YXYXYXYXYX    i .X0XtXuXaXsXgXjXgXfXpXtXqX#XoXU.&   YXYXYXYXYXYX",
"YXYXYXYXYXYX    * '.tXdXkXlXzXPXzXkXdXuXtX0X).&   YXYXYXYXYXYXYX",
"YXYXYXYXYXYXYX      : +.7XyXiXiXjXhXsXtX=XU +     YXYXYXYXYXYXYX",
"YXYXYXYXYXYXYXYXYX          . . X = - - X     YXYXYXYXYXYXYXYXYX",
"YXYXYXYXYXYXYXYXYXYXYXYX                    YXYXYXYXYXYXYXYXYXYX",
"YXYXYXYXYXYXYXYXYXYXYXYXYXYXYXYXYXYXYXYXYXYXYXYXYXYXYXYXYXYXYXYX"
};
