/* XPM */
static char *katomic-16[] = {
/* columns rows colors chars-per-pixel */
"16 16 152 2",
"   c black",
".  c #007F7F",
"X  c #0037F9",
"o  c #0055AA",
"O  c #0055D4",
"+  c #005DD2",
"@  c #0048EC",
"#  c #005AFA",
"$  c #0066CC",
"%  c #007FD4",
"&  c #0063FA",
"*  c #006CFC",
"=  c #007FEC",
"-  c #0077F6",
";  c #0073FA",
":  c #0076F9",
">  c #00AAAA",
",  c #00BFBF",
"<  c #059ADE",
"1  c #079CDD",
"2  c #099DDC",
"3  c #089EDD",
"4  c #0C9FDB",
"5  c #1496DE",
"6  c #0080F9",
"7  c #0080FF",
"8  c #0189F9",
"9  c #008EFA",
"0  c #038CF9",
"q  c #0589FA",
"w  c #0689FA",
"e  c #068AF9",
"r  c #068AFA",
"t  c #058DFA",
"y  c #048EFA",
"u  c #0091EF",
"i  c #059CE3",
"p  c #0F97EF",
"a  c #0F9CE1",
"s  c #0B9DEE",
"d  c #0D9EEC",
"f  c #0691FA",
"g  c #0693FA",
"h  c #0496FA",
"j  c #0795FA",
"k  c #0697F9",
"l  c #009DF7",
"z  c #0098FA",
"x  c #009BFA",
"c  c #009FFA",
"v  c #059AFA",
"b  c #0698F9",
"n  c #0798F9",
"m  c #069AF9",
"M  c #059EFA",
"N  c #138EFB",
"B  c #1D8AFB",
"V  c #1E8BFD",
"C  c #1397EB",
"Z  c #1492F6",
"A  c #1494F6",
"S  c #1390FB",
"D  c #1599F4",
"F  c #149DF3",
"G  c #1899F6",
"H  c #00AFD3",
"J  c #00B7CC",
"K  c #00BFD4",
"L  c #16A2DA",
"P  c #08A4E2",
"I  c #00A5F0",
"U  c #00A5F5",
"Y  c #00A3F8",
"T  c #03A1F9",
"R  c #00A4FA",
"E  c #05A1FA",
"W  c #00A8F8",
"Q  c #00A8F9",
"!  c #00A8FA",
"~  c #00A9FA",
"^  c #00ABF9",
"/  c #00AAFF",
"(  c #00ADF9",
")  c #00AEFA",
"_  c #04A9FA",
"`  c #05AAFA",
"'  c #00BBEE",
"]  c #00B1F3",
"[  c #00B0FB",
"{  c #00B8F8",
"}  c #00B9F9",
"|  c #00BAFA",
" . c #00BCF9",
".. c #259ACD",
"X. c #2088FF",
"o. c #2089FF",
"O. c #208AFF",
"+. c #218AFF",
"@. c #2F94F2",
"#. c #369FF4",
"$. c #26A4D1",
"%. c #28A4DB",
"&. c #35A3D9",
"*. c #3BA2D7",
"=. c #3EA3D5",
"-. c #00CCCC",
";. c #00CCE5",
":. c #00C5F7",
">. c #00C2F9",
",. c #00C5FA",
"<. c #00C9FA",
"1. c #00CAF9",
"2. c #00CDFA",
"3. c #00CEF8",
"4. c #00CFF9",
"5. c #00D4F0",
"6. c #00D1F9",
"7. c #00D4FA",
"8. c #00D6FA",
"9. c #00D8FA",
"0. c #00DBF9",
"q. c #00E7E7",
"w. c #00E7F3",
"e. c #00E5F6",
"r. c #00E2F9",
"t. c #00EBF7",
"y. c #00EDF7",
"u. c #00EAFA",
"i. c #00ECFA",
"p. c #00FFE5",
"a. c #00F1F1",
"s. c #00F1FA",
"d. c #00F2F8",
"f. c #00F8F8",
"g. c #00FAFA",
"h. c #2EEAF8",
"j. c #37F0F7",
"k. c #46AAFB",
"l. c #43DCFA",
"z. c #52E7FA",
"x. c #C9E7FD",
"c. c #C8E7FF",
"v. c #C7F9FC",
"b. c #D8EEFF",
"n. c #DEFCFD",
"m. c #E8F9FB",
"M. c #F4FAFF",
"N. c #F5FDFD",
"B. c #FFFFFB",
"V. c #FCFDFD",
"C. c #FDFFFD",
"Z. c None",
/* pixels */
"Z.Z.O.O.Z.Z.Z.Z.Z.Z.Z.Z.V O.Z.Z.",
"Z.O.n.V.S X Z.Z.Z.Z.@ S N.v.V Z.",
"Z.p.i k.m ; : , Z.l # 0 #.P / Z.",
"Z.> R & ,.I f  .3.y M 7.* u % Z.",
"Z.Z.- 6 ] Z.. M M ;.Z.Z.: + Z.Z.",
"Z.Z.Z.{ k a.y.<.3.i.q.,.R O Z.Z.",
"Z.Z.Z.3.0 M 2 &.%.< E x e.Z.Z.Z.",
"Z.Z.! y 0.0.L B.m.4 3.M ! 6 Z.Z.",
"Z.D 8 >.Z.f.2 =.*.1 u.-.( e V Z.",
"F V.z.6.' n / 8.7.` k Z.s.l.V.D ",
"C b.O.e ( ( v f.s.k z ! t @.x.d ",
"K a J U e.i.g Z.Z.m <.{ ! ) d H ",
"Z.Z.Z.Z.Z.5.e h.j.e w.Z.Z.Z.Z.Z.",
"Z.Z.Z.Z.Z.Z.{ $.../ Z.Z.Z.Z.Z.Z.",
"Z.Z.Z.Z.Z.Z.A x.M.Z Z.Z.Z.Z.Z.Z.",
"Z.Z.Z.Z.Z.Z.o 5 C $ Z.Z.Z.Z.Z.Z."
};
