/* XPM */
static char *kbattleship-16[] = {
/* columns rows colors chars-per-pixel */
"16 16 68 1",
"  c black",
". c #090909",
"X c gray5",
"o c #11110F",
"O c gray9",
"+ c #262624",
"@ c gray19",
"# c gray21",
"$ c #505050",
"% c #585858",
"& c #5E5E5D",
"* c #5F5F5F",
"= c #656563",
"- c #676767",
"; c #6D6D6D",
": c #666672",
"> c #727272",
", c #737573",
"< c #767674",
"1 c #767675",
"2 c #878886",
"3 c #888887",
"4 c #8B8B89",
"5 c #8E8E8D",
"6 c #90909B",
"7 c #9A9A98",
"8 c #9B9B99",
"9 c #9C9C9B",
"0 c #9E9E9C",
"q c #9E9E9D",
"w c #9F9F9D",
"e c #A0A09E",
"r c #ABABA8",
"t c #ACACA9",
"y c #AEAEAB",
"u c gray69",
"i c #B2B2B1",
"p c #B4B4B3",
"a c #B6B6B4",
"s c #B7B8B8",
"d c #B8B8B6",
"f c #B8B8B7",
"g c #BABAB8",
"h c #BCBCBA",
"j c #BDBDBB",
"k c #BEBEBC",
"l c gray78",
"z c #C7C7C8",
"x c gray82",
"c c #D3D3D2",
"v c LightGray",
"b c #D7D7D7",
"n c #D7D7D9",
"m c gray85",
"M c #E1DFE1",
"N c #E3E1E3",
"B c gray89",
"V c #E7E7E7",
"C c gray92",
"Z c #EDF1ED",
"A c #F1F1F1",
"S c gray95",
"D c #F3F3F3",
"F c #F2F2F4",
"G c #F4F4F4",
"H c #F8F8F8",
"J c #FEFEFE",
"K c None",
/* pixels */
"KKKKKK.#+o KKKKK",
"KKKKK 2gBp KKKKK",
"KKKKKXalcc$KKKKK",
"KKKKK@MDGJ<KKKKK",
"KKKKK&usVn3 KKKK",
"KKKK <,-pa8 KKKK",
"KKKK e;8>w; KKKK",
"KKKK aDHDCj KKKK",
"KKKK uwwtrt KKKK",
"KKKK wZz4Bv KKKK",
"KKKK *D5DJ3 KKKK",
"KKKKKO6nJn KKKKK",
"KKKKK :jj- KKKKK",
"KKKKK  nJ KKKKKK",
"KKKKKKK%9 KKKKKK",
"KKKKKKK  KKKKKKK"
};
