/* XPM */
static char *kbounce-16[] = {
/* columns rows colors chars-per-pixel */
"16 16 186 2",
"   c black",
".  c #060000",
"X  c #080000",
"o  c #080400",
"O  c #0A0500",
"+  c #0C0804",
"@  c gray3",
"#  c #0C0C0C",
"$  c #1D1309",
"%  c #1D190C",
"&  c #101010",
"*  c gray10",
"=  c #2E0C00",
"-  c #2E150A",
";  c #390B00",
":  c #331200",
">  c #2C2C2C",
",  c #2B3134",
"<  c #4D1700",
"1  c #5E2B0A",
"2  c #653F1B",
"3  c #444444",
"4  c #4B4B4B",
"5  c #515151",
"6  c #626262",
"7  c #6A6A6A",
"8  c #717171",
"9  c gray45",
"0  c gray50",
"q  c #802703",
"w  c #8D2A00",
"e  c #882A0B",
"r  c #A43606",
"t  c #A83300",
"y  c #AA3400",
"u  c #A44826",
"i  c #AE6C2E",
"p  c #C34000",
"a  c #C44F0A",
"s  c #CE671D",
"d  c #E35606",
"f  c #F95303",
"g  c #FC5503",
"h  c #FF5700",
"j  c #FF5902",
"k  c #FF5E04",
"l  c #FE5A0C",
"z  c #FD6412",
"x  c #FF6A10",
"c  c #FF6D13",
"v  c #FE6F17",
"b  c #FE691A",
"n  c #FE6A18",
"m  c #FF781B",
"M  c #FF781F",
"N  c #E96B3A",
"B  c #FF7628",
"V  c #FF7B22",
"C  c #FE7C2B",
"Z  c #F87234",
"A  c #F87C3F",
"S  c #F97C47",
"D  c #B38546",
"F  c #FE812A",
"G  c #FF8229",
"H  c #FF862E",
"J  c #FF882E",
"K  c #FE8230",
"L  c #FE813F",
"P  c #FF863A",
"I  c #FF8831",
"U  c #FF8E33",
"Y  c #FF8F37",
"T  c #FF9337",
"R  c #FF9437",
"E  c #FF9038",
"W  c #FF9238",
"Q  c #FF913D",
"!  c #FF963B",
"~  c #D79E7F",
"^  c #F1804C",
"/  c #F7834A",
"(  c #FB8447",
")  c #FE8341",
"_  c #FF8642",
"`  c #FF8942",
"'  c #FF8A46",
"]  c #F18452",
"[  c #F58752",
"{  c #FE9240",
"}  c #FF9340",
"|  c #FF9145",
" . c #FF9046",
".. c #FE9441",
"X. c #FF9642",
"o. c #FF944B",
"O. c #FF9940",
"+. c #FF9A42",
"@. c #FF9D44",
"#. c #FF9E45",
"$. c #FF9F46",
"%. c #FF994D",
"&. c #F18C60",
"*. c #F68B61",
"=. c #F09772",
"-. c #E1AA5B",
";. c #FFA043",
":. c #FFA249",
">. c #FEA54D",
",. c #FFA64E",
"<. c #FFA950",
"1. c #FFAA51",
"2. c #FFAE56",
"3. c #FFB057",
"4. c #FFB159",
"5. c #FFB75A",
"6. c #FFB65D",
"7. c #E5BE6F",
"8. c #FFA96D",
"9. c #FFB860",
"0. c #FFBD65",
"q. c #FFBF67",
"w. c #FFC870",
"e. c #FFCA70",
"r. c #FFCD75",
"t. c #FFCF76",
"y. c #F3D17D",
"u. c #888888",
"i. c #898989",
"p. c #8E8E8E",
"a. c gray56",
"s. c #929292",
"d. c #9B9B9B",
"f. c #A4AAAE",
"g. c gray69",
"h. c #DDB59E",
"j. c #FFB282",
"k. c #F2BC96",
"l. c #FFBA93",
"z. c #F3DA85",
"x. c #FFDB83",
"c. c #FFDD84",
"v. c #FCC1A4",
"b. c #F9D2B6",
"n. c #C0C0C0",
"m. c #C5C5C6",
"M. c #CBCCCC",
"N. c #D0D0D0",
"B. c #D4D4D3",
"V. c #DADADA",
"C. c #DADDDE",
"Z. c gray87",
"A. c #F7D1C1",
"S. c #F7DED4",
"D. c #FDE4D1",
"F. c #FFECDF",
"G. c #E3E5E5",
"H. c #E6E6E6",
"J. c #E7E7E7",
"K. c #E9E9E9",
"L. c #ECECEC",
"P. c gray93",
"I. c #EEEEEE",
"U. c #EFEFEF",
"Y. c #EDF3F8",
"T. c #FFF5EF",
"R. c #F1F1F2",
"E. c gray95",
"W. c #F3F3F3",
"Q. c #F4F4F4",
"!. c gray96",
"~. c #F6F6F6",
"^. c gray97",
"/. c #F7FFFF",
"(. c #F9F9F9",
"). c gray98",
"_. c #FBFBFB",
"`. c #FFFDFB",
"'. c gray99",
"]. c #FDFDFD",
"[. c #FDFFFF",
"{. c #FEFEFE",
"}. c #FEFFFF",
"|. c #FFFFFE",
" X c gray100",
".X c None",
/* pixels */
".X.X.X.X& 4 u.d.g.s.5 * .X.X.X.X",
".X.X  6 n.R.(._._._.^.M.9 # .X.X",
".X  p.L._._._._._._._._.S.u   .X",
"  9 K.^.(._._._._._._.A.=.*.e .X",
"> N.R.W.(._._._._._.v.[ [ &.N ; ",
"7 J.L.^._._._._._.l._ ( / ^ S 1 ",
"i.J.L.^._._._.T.j.' ' P L S Z y ",
"p.Z.K.^.(._.F.8.| %.' P B z g y ",
"u.V.J.R./.D.%.Y X.Q I V c k h t ",
"8 B.G.Y.b.Q T #.#.+.W I M x j w ",
"3 m.C.k.J ! ,.3.3.1.$.W G v f < ",
"@ f.h.b U :.4.q.q.6.1.! G l p X ",
".X, ~ m H ` 6.e.r.0.X.C b d = .X",
".X.X- a R >.t.c.x.w.5.;.s : .X.X",
".X.X.X. 1 i -.y.z.7.D 2 O .X.X.X",
".X.X.X.X.X  o $ % +   .X.X.X.X.X"
};
