/* XPM */
static char *kenolaba-16[] = {
/* columns rows colors chars-per-pixel */
"16 16 168 2",
"   c black",
".  c gray1",
"X  c gray2",
"o  c #060606",
"O  c gray4",
"+  c #0C0C0C",
"@  c gray5",
"#  c gray7",
"$  c #181818",
"%  c #20201B",
"&  c gray15",
"*  c #282828",
"=  c #2D2D2D",
"-  c #323232",
";  c #393939",
":  c #3A3A3A",
">  c #3C3C3C",
",  c gray25",
"<  c #464646",
"1  c #505050",
"2  c #515151",
"3  c #555555",
"4  c #5B5B5B",
"5  c #5A5D5D",
"6  c gray37",
"7  c gray38",
"8  c #626262",
"9  c gray39",
"0  c #686868",
"q  c #6D6D6D",
"w  c #717171",
"e  c #727272",
"r  c #747474",
"t  c gray46",
"y  c #797979",
"u  c #D75F34",
"i  c #E3622E",
"p  c #E56D3E",
"a  c #E56E3F",
"s  c #D76A42",
"d  c #D97C58",
"f  c #E57143",
"g  c #E07449",
"h  c #F27E4B",
"j  c #DF835E",
"k  c #CF896F",
"l  c #D48064",
"z  c #DE977D",
"x  c #EE8353",
"c  c #E08B67",
"v  c #F69C6F",
"b  c #FA9967",
"n  c #FD9F6F",
"m  c #EEA27D",
"M  c #F0A078",
"N  c #818181",
"B  c #838383",
"V  c gray52",
"C  c gray53",
"Z  c #88898A",
"A  c gray54",
"S  c #8E8F8F",
"D  c #8C8E90",
"F  c #8D8F91",
"G  c #8F9193",
"H  c #909192",
"J  c #929292",
"K  c #919395",
"L  c gray58",
"P  c gray59",
"I  c #97999A",
"U  c #989898",
"Y  c #9B9B9B",
"T  c #9C9D9D",
"R  c #A1A1A2",
"E  c #A1A2A2",
"W  c #A2A2A2",
"Q  c #A5A5A5",
"!  c #AAAAAA",
"~  c #A9AEB1",
"^  c #B5ACA9",
"/  c gray69",
"(  c #B1B1B1",
")  c #B2B2B2",
"_  c #B6B8B8",
"`  c #B6B8B9",
"'  c gray73",
"]  c gray74",
"[  c gray75",
"{  c #BEC1C1",
"}  c #BDC4C6",
"|  c #CB9787",
" . c #CC9888",
".. c #DFA891",
"X. c #DEA896",
"o. c #DBAD98",
"O. c #CFADA2",
"+. c #DBBFB2",
"@. c #E6A78F",
"#. c #E4AE96",
"$. c #E6B498",
"%. c #EAB596",
"&. c #F1AF8E",
"*. c #F6AE89",
"=. c #F8AD85",
"-. c #FFB083",
";. c #FDB187",
":. c #FEB48B",
">. c #F9BE99",
",. c #E8C7B5",
"<. c #EFCBB9",
"1. c #F7C5AB",
"2. c #C3C3C3",
"3. c #C5C5C5",
"4. c #C4C8C9",
"5. c #CAC8C7",
"6. c gray79",
"7. c #CACACA",
"8. c #CECECD",
"9. c gray81",
"0. c #C5CED1",
"q. c #C8CFD2",
"w. c #CFD2D3",
"e. c #CED2D4",
"r. c #D6D0CB",
"t. c gray82",
"y. c LightGray",
"u. c #D0D6D7",
"i. c gray83",
"p. c gray84",
"a. c #D6D7D7",
"s. c #D8D6D6",
"d. c #DFD7D5",
"f. c #D9DAD9",
"g. c #DADADA",
"h. c gray86",
"j. c #DCDEE1",
"k. c #DFE1E2",
"l. c #E4D7D2",
"z. c #E4DAD7",
"x. c #F0DDD6",
"c. c #FCE1CE",
"v. c #F2E7DD",
"b. c #F6EADF",
"n. c gray88",
"m. c #E4E4E4",
"M. c gray90",
"N. c #E6E6E6",
"B. c #E7E7E7",
"V. c gray91",
"C. c #E8EBEC",
"Z. c #E9ECED",
"A. c #ECECEC",
"S. c gray93",
"D. c #EFEFEF",
"F. c #EAEFF1",
"G. c #E6F3FA",
"H. c #EFF2F4",
"J. c #F6EBE2",
"K. c #F1EDE9",
"L. c #F5EEEB",
"P. c #F1F0EE",
"I. c gray94",
"U. c #F0F2F3",
"Y. c #F3F3F3",
"T. c #F1F5F7",
"R. c #F4F4F5",
"E. c None",
/* pixels */
"E.E.E.@ B V B B H H H C   E.E.E.",
"E.E.E.6 R F S H H S F I 2 E.E.E.",
"E.E.% P f.b.P.K.b.H.J.r.A $ E.E.",
"E.  0 } 1.-.*.=.:.&.:.;.^ 5   E.",
"E.= T G.@.i j g a c a f z.K & E.",
"  q 5.c.,.k $.o.| s. .O.C.2.9   ",
", ~ <.b v m n M e.t.q.u.8.i.Q ; ",
"9 4.x.s d ..u z { R 7.' R f.] 1 ",
": A C.d.%.>.+.j.a.w.h.i.s.M.y * ",
"O < ` L.x h #.0.2.7.7.2.B./ -   ",
"  @ 9 k.X.l l.` ! f./ / h.3 X   ",
"E.  # U T.F.U.B.M.D.M.S.T @   E.",
"E.E.  ; t.R.S.S.Y.S.Y.f.>   E.E.",
"E.E.  X 4 r e e e e r 9 X   E.E.",
"E.E.E.                    E.E.E.",
"E.E.E.                    E.E.E."
};
