/* XPM */
static char *kenolaba[] = {
/* columns rows colors chars-per-pixel */
"32 32 161 2",
"   c #000000",
".  c #0C0C0C",
"X  c #111111",
"o  c gray10",
"O  c #222222",
"+  c #2B2B2B",
"@  c #343434",
"#  c #3C3C3C",
"$  c #454545",
"%  c #4D4D4D",
"&  c #545454",
"*  c #5A5A5A",
"=  c #646464",
"-  c #6C6C6C",
";  c #737373",
":  c #7C7C7C",
">  c #7E7F80",
",  c #DE5119",
"<  c #CF4E29",
"1  c #CF5025",
"2  c #CF502A",
"3  c #CD5630",
"4  c #CC5A33",
"5  c #CD5E38",
"6  c #D24E25",
"7  c #D2512A",
"8  c #DF5B25",
"9  c #DC5C29",
"0  c #DC6334",
"q  c #E35B24",
"w  c #EE6729",
"e  c #E56532",
"r  c #E76D3B",
"t  c #E86934",
"y  c #E96F3C",
"u  c #EF753E",
"i  c #F16A2B",
"p  c #F06F33",
"a  c #F17033",
"s  c #F0753C",
"d  c #F4783D",
"f  c #CB6442",
"g  c #CB7559",
"h  c #DF7245",
"j  c #DE7449",
"k  c #CC7D63",
"l  c #E77342",
"z  c #EA7949",
"x  c #F47F47",
"c  c #DF8B69",
"v  c #DF9375",
"b  c #E0835F",
"n  c #EC8657",
"m  c #EB8758",
"M  c #ED8B5E",
"N  c #F1804B",
"B  c #F58550",
"V  c #F58C5B",
"C  c #FC955D",
"Z  c #E09475",
"A  c #EC9B76",
"S  c #F0946A",
"D  c #F59A68",
"F  c #FE9962",
"G  c #FB9B69",
"H  c #F79C71",
"J  c #F6A071",
"K  c #F4A379",
"L  c #FFA571",
"P  c #F8A37A",
"I  c #FFAE7D",
"U  c #828282",
"Y  c #8A8A8A",
"T  c #8F9294",
"R  c #949494",
"E  c #9B9B9B",
"W  c #A4A5A5",
"Q  c #AAAAAA",
"!  c #AFB2B4",
"~  c #B4B4B4",
"^  c #BBBBBB",
"/  c #BEC0C1",
"(  c #CC9481",
")  c #CE9987",
"_  c #CB9E8C",
"`  c #C6A49C",
"'  c #CEA093",
"]  c #C7B5B0",
"[  c #C7BAB7",
"{  c #C5BDBB",
"}  c #CABDBA",
"|  c #D1AEA2",
" . c #DABFB5",
".. c #E4A087",
"X. c #E1AC97",
"o. c #E3B08D",
"O. c #ECB297",
"+. c #F0AF8C",
"@. c #F8AA85",
"#. c #F9AD89",
"$. c #FFB183",
"%. c #FFB58A",
"&. c #F1B393",
"*. c #F1BB9F",
"=. c #FFBB92",
"-. c #F0BDA2",
";. c #D9C5BE",
":. c #F7C39F",
">. c #F9C49C",
",. c #E8C0A2",
"<. c #E9C5AA",
"1. c #EAC9B3",
"2. c #F5C5A5",
"3. c #F1C2A9",
"4. c #F7CAA5",
"5. c #F4C9AC",
"6. c #F9C6A1",
"7. c #FCC8A5",
"8. c #FFCAAA",
"9. c #F3CCB8",
"0. c #F2D3BD",
"q. c #C3C3C3",
"w. c #C4C9CB",
"e. c #CCC4C2",
"r. c #CEC9C7",
"t. c #CBCBCB",
"y. c #C6CED2",
"u. c #D4C3C0",
"i. c #DECBC4",
"p. c #DCD0CC",
"a. c #D3D3D3",
"s. c #D4D7D8",
"d. c #D7D9DA",
"f. c #DAD6D4",
"g. c #DBDBDB",
"h. c #DDDFE0",
"j. c #D7E3E8",
"k. c #DEE0E1",
"l. c #E3CAC0",
"z. c #E1D4CA",
"x. c #EDD0C4",
"c. c #E3DEDC",
"v. c #E9D9D4",
"b. c #F1DFD4",
"n. c #ECE1DC",
"m. c #F3E0D7",
"M. c #F1E2D8",
"N. c #E3E3E3",
"B. c #E6EAEC",
"V. c #EEE7E4",
"C. c #ECECEC",
"Z. c #E6EEF1",
"A. c #ECEFF0",
"S. c #ECF1F3",
"D. c #EFF7FA",
"F. c #F0EEEC",
"G. c #F2F2F2",
"H. c #F2F6F9",
"J. c #F4FAFC",
"K. c #F8FCFE",
"L. c None",
/* pixels */
"L.L.L.L.L.L.L.L.L.L.L.L.L.L.L.L.L.L.L.L.L.L.L.L.L.L.L.L.L.L.L.L.",
"L.L.L.L.L.L.L.L.# & & % % & & % % % % % & % & @ L.L.L.L.L.L.L.L.",
"L.L.L.L.L.L.L.+ { q.^ ^ ^ ^ ^ ^ ^ ^ ^ ^ ^ ~ ^ Q O L.L.L.L.L.L.L.",
"L.L.L.L.L.L.  R ~ * & * * & & * * * * * * & * W :   L.L.L.L.L.L.",
"L.L.L.L.L.L.& ^ Y t.d.d.f.d.f.s.d.d.a.a.a.g.q.> Q $ L.L.L.L.L.L.",
"L.L.L.L.L.O Q Y ^ J.S.F.H.S.G.D.F.G.G.G.D.F.J.~ U R o L.L.L.L.L.",
"L.L.L.L.  : E E G.M.>.>.5.D.n.:.6.4.C.C.5.>.>.n.T R -   L.L.L.L.",
"L.L.L.L.% W Y h.V.C =.8.C *.H $.8.G &.*.F 8.%.F a.: R # L.L.L.L.",
"L.L.L.o R Y ~ J.x.i P #.x m u H #.V m M N #.K w b.~ > U . L.L.L.",
"L.L.L.* R T C.G.v.q y z q v h t z q c Z q z r 9 c.B.U U % L.L.L.",
"L.L.O R U t.J.S.Z.v 6 1 f f.| 1 7 3 u.p.5 6 1 ) A.H.r.: U O L.L.",
"L.  : U Q H.0.6.5.z.[ _ o.4.1.} ` ;.g.g.r.` ] s.g.g.G.W : -   L.",
"L.% Y Y C.9.C 7.=.D c.G =.7.F 3.j.s.B.d.w.C.a.d.V.t.a.B.U : $ L.",
"O : > t.J.A d @.P t O.p P @.x S / w.d.a.Q N.^ a.d.q.~ A.r.; ; O ",
"* : Q H.D.X., r t 9 1.0 e y , ..w.W ~ Q E N.~ Q ~ W ~ C.G.E - $ ",
"% ; R N.G.N.k 2 3 ' S.] 3 7 g c.k.W E R ^ G.t.E R E t.G.g.: = @ ",
"# = - ^ H.A.d.e.e.,.>.<.r.e.s.B.g.t.q.w.h.N.g.t.q.t.C.G.W = % O ",
"o % = > g.G.A.B.K I 8.L +.Z.s.g.N.w.g.V.a.h.g.w.n.B.F.t.- & @ . ",
"  O $ = R F.G.V.d D #.V z N./ g.h.{ w.d.w.n.g.~ a.G.B.T * + .   ",
"    O $ - ^ H.C.j q l q b N.Q ~ ^ W q.a.Q ^ ^ E a.H.~ = + X     ",
"L.  . o & : c.D.;.5 < f i.S.~ E E E d.N.W E E Q C.g.> @ .     L.",
"L.L.    o * E G.A.f.;.g.A.G.c.q.^ a.C.C.d.{ ^ g.F.W % .     L.L.",
"L.L.      O - q.G.A.A.A.C.C.C.C.B.C.F.C.C.C.B.S.w.- o       L.L.",
"L.L.L.      $ Y N.G.C.C.F.C.C.F.C.C.C.C.C.C.F.V.E #       L.L.L.",
"L.L.L.      o = ~ G.G.G.G.G.H.G.G.G.G.G.G.G.H.q.- .     L.L.L.L.",
"L.L.L.L.      + U w.a.r.w.r.r.t.t.t.t.t.t.t.t.R +       L.L.L.L.",
"L.L.L.L.L.    . $ * & & * & & & & & & & & & = %       L.L.L.L.L.",
"L.L.L.L.L.L.      . X X X X X X X X X X X X X       L.L.L.L.L.L.",
"L.L.L.L.L.L.                                        L.L.L.L.L.L.",
"L.L.L.L.L.L.L.                                    L.L.L.L.L.L.L.",
"L.L.L.L.L.L.L.                                    L.L.L.L.L.L.L.",
"L.L.L.L.L.L.L.L.L.L.L.L.L.L.L.L.L.L.L.L.L.L.L.L.L.L.L.L.L.L.L.L."
};
