/* XPM */
static char *kfouleggs-16[] = {
/* columns rows colors chars-per-pixel */
"16 16 153 2",
"   c black",
".  c #000300",
"X  c #000600",
"o  c #000C00",
"O  c #000811",
"+  c #000A14",
"@  c #000819",
"#  c #001200",
"$  c #001300",
"%  c #001500",
"&  c #021702",
"*  c #001800",
"=  c #021C02",
"-  c #021E02",
";  c #041800",
":  c #091200",
">  c #00121B",
",  c #000521",
"<  c #020E24",
"1  c #000B31",
"2  c #001E28",
"3  c #042302",
"4  c #0A2600",
"5  c #033300",
"6  c #053000",
"7  c #10230D",
"8  c #172A00",
"9  c #192F11",
"0  c #113F00",
"q  c #062430",
"w  c #002B3D",
"e  c #0C2D3C",
"r  c #031E41",
"t  c #0A2556",
"y  c #0E3655",
"u  c #0F3856",
"i  c #163F4B",
"p  c #0B3377",
"a  c #113560",
"s  c #1A4E05",
"d  c #18590A",
"f  c #186E0B",
"g  c #284B00",
"h  c #255107",
"j  c #2F6C02",
"k  c #257411",
"l  c #0F516E",
"z  c #14537E",
"x  c #155C73",
"c  c #165B79",
"v  c #225266",
"b  c #446322",
"n  c #476827",
"m  c #1A4880",
"M  c #174997",
"N  c #1C5EAB",
"B  c #1E5EBE",
"V  c #187C9D",
"C  c #3C7994",
"Z  c #1E5AC0",
"A  c #2068C4",
"S  c #256CD0",
"D  c #26880D",
"F  c #3E8618",
"G  c #3FBE14",
"H  c #3BB918",
"J  c #4C8E13",
"K  c #4BAB06",
"L  c #42BD12",
"P  c #45B815",
"I  c #41B91B",
"U  c #40BC19",
"Y  c #42BC1B",
"T  c #55A90A",
"R  c #5CB213",
"E  c #5FB524",
"W  c #65AA2C",
"Q  c #4CC507",
"!  c #48C613",
"~  c #4EC814",
"^  c #59CC07",
"/  c #53C516",
"(  c #51C914",
")  c #58CF15",
"_  c #5FD319",
"`  c #60CF19",
"'  c #61D216",
"]  c #62D216",
"[  c #67D616",
"{  c #62D71C",
"}  c #68D215",
"|  c #6AD413",
" . c #6AD917",
".. c #78C61E",
"X. c #69D824",
"o. c #7ADF31",
"O. c #7DE91C",
"+. c #2A84AF",
"@. c #2289BA",
"#. c #3190C3",
"$. c #2680E1",
"%. c #2E8DED",
"&. c #2A9BEE",
"*. c #2D97F5",
"=. c #2F9AFF",
"-. c #38B2DE",
";. c #2EBDFF",
":. c #30A3F7",
">. c #36A8F6",
",. c #31ABFF",
"<. c #33AEFF",
"1. c #38ADFF",
"2. c #34B1FF",
"3. c #39B5F8",
"4. c #3AB9FF",
"5. c #34CCFF",
"6. c #38C0FF",
"7. c #4E93AB",
"8. c #69A7BB",
"9. c #6EAAC6",
"0. c #57C0D9",
"q. c #50D1FF",
"w. c #57D6FF",
"e. c #51DFFF",
"r. c #5CD9FF",
"t. c #4EE6FF",
"y. c #5BF3FF",
"u. c #69EAFF",
"i. c #6BEAFF",
"p. c #6EEAF9",
"a. c #82E520",
"s. c #95E546",
"d. c #9CEA46",
"f. c #B5EF6E",
"g. c #BCF46D",
"h. c #BBF964",
"j. c #BCF376",
"k. c #BFEB81",
"l. c #81ECFF",
"z. c #89F2FD",
"x. c #90F8FF",
"c. c #ADFFFF",
"v. c #BEFCFF",
"b. c #D7FBA2",
"n. c #DAFBA0",
"m. c #DFF8B0",
"M. c #ECFFAE",
"N. c #E6FFB1",
"B. c #C2FFFF",
"V. c #E9FFFF",
"C. c #EAFFFF",
"Z. c #EFFFFF",
"A. c None",
/* pixels */
"A.A.A.+ C 9.v A.A.q 7.8.i A.A.A.",
"A.A.  @.c.Z.z.V c -.B.V.p.w A.A.",
"A.A.O &.w.i.e.5.;.<.r.i.t.x A.A.",
"A.A.  N =.,.1.z r A *.:.>.e A.A.",
"A.A.A.@ p M a   A.< B %.u   A.A.",
"A.A.A.% b n : A.A.  #.q.2 A.A.A.",
"A.A.o E N.M...o A.+.v.V.0.> A.A.",
"A.A.0 { s.d.O.g 1 3.l.x.y.l A.A.",
"A.A.4 L / ) _ 8 , $.2.6.4.y A.A.",
"A.A.  s G P h     t Z S m   A.A.",
"A.A.A.% } R   A.A.  9 7   A.A.A.",
"A.A.  F b.n.J A.  W m.k.j A.A.A.",
"A.A.5 X.f.g.a.T K o.j.h.| * A.A.",
"A.A.6 ! ] [ _ ^ Q ~ ]  ./ ; A.A.",
"A.A.  f H Y k   $ D Y I d   A.A.",
"A.A.A.  - -   A.A.X 3 %   A.A.A."
};
