/* XPM */
static char *kgoldrunner[] = {
/* columns rows colors chars-per-pixel */
"32 32 257 2",
"   c #000000",
".  c #0C0000",
"X  c #0A0A00",
"o  c #03060D",
"O  c #140000",
"+  c #190500",
"@  c #1B0800",
"#  c #140B02",
"$  c #1F1F26",
"%  c #13242E",
"&  c #200000",
"*  c #2A0800",
"=  c #261200",
"-  c #2D1B02",
";  c #341700",
":  c #3F1400",
">  c #321D02",
",  c #3B2404",
"<  c #3C2D0A",
"1  c #352516",
"2  c #3A2B1A",
"3  c #242328",
"4  c #28282E",
"5  c #212626",
"6  c #342522",
"7  c #373A39",
"8  c #374856",
"9  c #3C4D5C",
"0  c #460200",
"q  c #4F0D00",
"w  c #401300",
"e  c #481805",
"r  c #550000",
"t  c #541000",
"y  c #422702",
"u  c #492213",
"i  c #4C3108",
"p  c #552700",
"a  c #513C0C",
"s  c #5A3108",
"d  c #573302",
"f  c #503E28",
"g  c #523C26",
"h  c #601E00",
"j  c #6E1E00",
"k  c #711C00",
"l  c #672E14",
"z  c #6C3114",
"x  c #712200",
"c  c #782E00",
"v  c #7D3E00",
"b  c #723300",
"n  c #763614",
"m  c #67460C",
"M  c #6F4100",
"N  c #7A4401",
"B  c #704C0E",
"V  c #7D5C1C",
"C  c #614B2D",
"Z  c #634A31",
"A  c #6F563C",
"S  c #744128",
"D  c #70583B",
"F  c #7F7F00",
"G  c #494E51",
"H  c #485158",
"J  c #55514D",
"K  c #59595C",
"L  c #455767",
"P  c #40617A",
"I  c #5D6269",
"U  c #546472",
"Y  c #7D5C42",
"T  c #60666D",
"R  c #75776C",
"E  c #7D8797",
"W  c #8D2E02",
"Q  c #823B0A",
"!  c #8A3817",
"~  c #923800",
"^  c #953B0F",
"/  c #913F18",
"(  c #864E01",
")  c #8A4300",
"_  c #864514",
"`  c #914800",
"'  c #924716",
"]  c #945000",
"[  c #935900",
"{  c #9B5508",
"}  c #8B5708",
"|  c #8A4226",
" . c #966500",
".. c #9C6201",
"X. c #997A1E",
"o. c #9D6028",
"O. c #AD4D00",
"+. c #A25603",
"@. c #A35E02",
"#. c #AB5400",
"$. c #AC5C01",
"%. c #B15906",
"&. c #A46A0B",
"*. c #A96B05",
"=. c #A57609",
"-. c #A1781D",
";. c #B76601",
":. c #B06E05",
">. c #BE7B02",
",. c #BA7103",
"<. c #B07F13",
"1. c #A86822",
"2. c #AC7C25",
"3. c #B67620",
"4. c #A36D56",
"5. c #BF7E47",
"6. c #C06200",
"7. c #C46B01",
"8. c #C87300",
"9. c #CB7A04",
"0. c #C07D14",
"q. c #BF820F",
"w. c #B78516",
"e. c #BE951D",
"r. c #AB8815",
"t. c #AA8822",
"y. c #B9952B",
"u. c #B0A33F",
"i. c #8D895D",
"p. c #958C5B",
"a. c #9C827D",
"s. c #919064",
"d. c #9F9D7F",
"f. c #B09F6C",
"g. c #B88875",
"h. c #C2850C",
"j. c #C9820A",
"k. c #CC8B11",
"l. c #C29418",
"z. c #D68B0B",
"x. c #D48507",
"c. c #D58B12",
"v. c #DE940F",
"b. c #DE9414",
"n. c #DD9A16",
"m. c #DE9D18",
"M. c #D59116",
"N. c #C29626",
"B. c #C2A728",
"V. c #C9A12A",
"C. c #C4A324",
"Z. c #C0A238",
"A. c #DEAF2A",
"S. c #D7A329",
"D. c #DFB42C",
"F. c #DDBC35",
"G. c #E19D19",
"H. c #E09916",
"J. c #E4A41D",
"K. c #E5AC23",
"L. c #E9AC24",
"P. c #EBB125",
"I. c #E7B329",
"U. c #E0B834",
"Y. c #F0B72A",
"T. c #F1BB2C",
"R. c #F4BF30",
"E. c #CC8B50",
"W. c #D18E54",
"Q. c #D69559",
"!. c #C4AF54",
"~. c #C2BC4F",
"^. c #F68349",
"/. c #E19C64",
"(. c #E79A70",
"). c #EA9E73",
"_. c #E6BF4F",
"`. c #EDA076",
"'. c #F2A378",
"]. c #DBC53B",
"[. c #EECE3D",
"{. c #EBC337",
"}. c #F5C02F",
"|. c #F6C331",
" X c #F2CB3B",
".X c #FBC935",
"XX c #FACB38",
"oX c #F3D33D",
"OX c #FFD037",
"+X c #FCD23C",
"@X c #FFDC3F",
"#X c #C1C65F",
"$X c #DAC848",
"%X c #DBD34A",
"&X c #DED95D",
"*X c #D8D878",
"=X c #E4CD47",
"-X c #EDD646",
";X c #EDDC52",
":X c #FEDA42",
">X c #F6D845",
",X c #F3DF59",
"<X c #E2C87A",
"1X c #ECCE7D",
"2X c #E7DA7B",
"3X c #EAE659",
"4X c #FDE045",
"5X c #FDE44A",
"6X c #FCEB4D",
"7X c #F6E34B",
"8X c #F4E45C",
"9X c #F7EA50",
"0X c #FCED52",
"qX c #FCEC59",
"wX c #FEF253",
"eX c #FFF856",
"rX c #FEFC5C",
"tX c #E7E869",
"yX c #EEF164",
"uX c #FAE763",
"iX c #F2ED77",
"pX c #FEFE63",
"aX c #FEFD6B",
"sX c #FEFE73",
"dX c #FFFF79",
"fX c #869482",
"gX c #9AA4B7",
"hX c #A4928D",
"jX c #A5AAB6",
"kX c #A2AFC0",
"lX c #AEB8C5",
"zX c #B3B9C3",
"xX c #B3BDCC",
"cX c #B5B9C2",
"vX c #B7C0CD",
"bX c #BBC5D0",
"nX c #B4C0D1",
"mX c #F1EB93",
"MX c #FEFE82",
"NX c #FBF687",
"BX c #F0F098",
"VX c #FFFE92",
"CX c #FFFF98",
"ZX c #FFFFA6",
"AX c #FEFEAF",
"SX c #FBFCB1",
"DX c #FEFFBF",
"FX c #C2C9D3",
"GX c #D2DAE5",
"HX c #ECEDF1",
"JX c #E8EDFA",
"KX c #EDF0F6",
"LX c #F1F3F5",
"PX c #F5F6FA",
"IX c #F7F8FB",
"UX c #FDFDFE",
"YX c None",
/* pixels */
"YXYXYXYXYXYXYXYXYXYXYXYXYXYXYXYXYXYXYXYXYXYXYXYXYXYXYXYXYXYXYXYX",
"YXYXYXYXYXYXYXYXYXYXYXYXYXYXYXYXYXYX4 I YXYXYXYXYXYXYXYXYXYXYXYX",
"YXYXYXYXYXYXYXYXYXYXYXYXYXYXYXYXYX$ zXKXT   YXYXYXYXYXYXYXYXYXYX",
"YXYXYXYXYXYXYXYXYXYXYXYXYXYXYXYX5 cXIXUXbX% YXYXYXYXYXYXYXYXYXYX",
"YXYXYXYXYXYXYXYXYXYXYXu S   YX3 zXIXUXFXL o YXYXYXYXYXYXYXYXYXYX",
"YXYXYXYXYXYXYXYXYXYX+ ^ ^.4.H cXIXUXbX9     YXYXYXYXYXYXYXYXYXYX",
"YXYXYXYXYXYXYXYXYXYXO t W g.xXPXUXvX9     YXYXYXYXYXYXYXYXYXYXYX",
"YXYXYXYXYXYXYXYXYXYX  6 a.E gXLXlX8     YXYXYXYXYXYXYXYXYXYXYXYX",
"YXYXYXYXYXYXYXYXYXYXYXG GXxXFXlXU     YXYXYXYXYXYXYXYXYXYXYXYXYX",
"YXYXYXYXYXYXYXYXYXYXK HXIXLXkXP hXY YXYXYXYXYXYXYXYXYXYXYXYXYXYX",
"YXYXYXYXYXYXYXYXYX7 LXUXHXjXJ 3 | '.Y YXYXYXYXYXYXYXYXYXYXYXYXYX",
"YXYXYXYXYXYXYXYX  jXUXHXgXi.%.k 0 ! `.D YXYXYXYXYXYXYXYXYXYXYXYX",
"YXYXYXYXYXYXYXYX7 PXPXgXp.3X$X{ x 0 ! ).D YXYXYXYXYXYXYXYXYXYXYX",
"YXYXYXYXYXYXYXYXR UXxXs.3XsXyX~.2.Q q ! ).A YXYXYXYXYXYXYXYXYXYX",
"YXYXYXYXYXYXF t.d.JXfX3XsXsXaX*X*X'.o.h / (.Z YXYXYXYXYXYXYXYXYX",
"YXYXYXYXYX>.e.V.f.vX#XaXsXdXMXVXBXBXmX1.b ' /.C YXYXYXYXYXYXYXYX",
"YXYXYXYXQ <.N.S.!.fXyXsXdXuXNXZXSXDXSX1X<.v ' /.f YXYXYXYXYXYXYX",
"YXYXYX#.*.<.S.,X;Xu.qXaXsXsXdXCXAXSXmX2X_.:.b _ /.f YXYXYXYXYXYX",
"YXYX  [ *.q.K.qX0X0XrXpXaXaXsXMXVXVXiX&X$XA.*.d B Q.u YXYXYXYXYX",
"YXYX` [ :.k.c.m.:XwXrXrXpXaXaXaXsX8X3X%X3XsX{...w n Q.2 YXYXYXYX",
"YXYXN ] ,.j.G.R.XXoX0XrXrXpXpXpXpXrX9X].].-X Xv.( + n W.2 YXYXYX",
"YXr c +.;.8.m.4X:X+X5X0XeXrXpXrXrXwX5XF.B.w.h.c.c.p O z W.1 YXYX",
"YX  j +.O.7.z.b.K.|.+X4X5X0XsXpX6X5X:X{.C.r.<.>.H.@.* O l E.1 YX",
"YXs Z.0.O.6.8.9.H.P.}.XX+XP.XX5X:X+X.XI.l.=. .@.#.#.w O . l 5.  ",
"  V.XXL.P.J.7.7.x.b.K.L.T.T.}.}.|.T.P.G.h...( ) ~ M.V . . O e . ",
"X { H.Y.aX>XL.c.9.9.z.n.P.K.J.J.m.m.n.m.k...N N w.XX=XX   O     ",
"    , &.L.+XOX:X:XoXoX6XrXrX8X-X[.oX:X4X+XI.e.e.0Xy.y           ",
"YX      ; B -.N.F.-X9XrXpXaXaXpXrX0X7X[.F.[.X.m } <     YXYXYXYX",
"YXYXYX      . @ = > y m a a a a a i , - = i #       YXYXYXYXYXYX",
"YXYXYXYXYX          .   . . O X .                 YXYXYXYXYXYXYX",
"YXYXYXYXYXYXYXYXYXYXYXYXYXYXYXYXYXYXYXYXYXYXYXYXYXYXYXYXYXYXYXYX",
"YXYXYXYXYXYXYXYXYXYXYXYXYXYXYXYXYXYXYXYXYXYXYXYXYXYXYXYXYXYXYXYX"
};
