/* XPM */
static char *kjumpingcube[] = {
/* columns rows colors chars-per-pixel */
"32 32 257 2",
"   c #000000",
".  c #08000D",
"X  c gray6",
"o  c #110013",
"O  c #150019",
"+  c #18001B",
"@  c #190919",
"#  c #160D16",
"$  c #1C1C1C",
"%  c #141614",
"&  c #1C0020",
"*  c #200022",
"=  c #2B0030",
"-  c #36003B",
";  c #38003D",
":  c #202020",
">  c gray17",
",  c gray21",
"<  c #3B0341",
"1  c #430549",
"2  c #48034E",
"3  c #55045B",
"4  c #461948",
"5  c #5D0865",
"6  c #670F6E",
"7  c #6C1574",
"8  c #701F79",
"9  c #464646",
"0  c #4B4B4B",
"q  c #535353",
"w  c #626262",
"e  c #686868",
"r  c #746C77",
"t  c #717171",
"y  c #757278",
"u  c #797A78",
"i  c #9E0BA8",
"p  c #892291",
"a  c #902997",
"s  c #952DA2",
"d  c #A30EAE",
"f  c #AA0EB2",
"g  c #A412AB",
"h  c #A612B1",
"j  c #AF17B7",
"k  c #B016B8",
"l  c #B519BD",
"z  c #A326AB",
"x  c #A334AA",
"c  c #BA0DC2",
"v  c #B717C3",
"b  c #BB1AC4",
"n  c #BC20C3",
"m  c #BC29C3",
"M  c #8A4A8E",
"N  c #935896",
"B  c #966AA3",
"V  c #AF45B8",
"C  c #A55CAB",
"Z  c #AD5CB5",
"A  c #A362A8",
"S  c #A964AE",
"D  c #AE66B2",
"F  c #B462BE",
"G  c #B46AB7",
"H  c #B945C5",
"J  c #BF48D5",
"K  c #BD55C7",
"L  c #B857C5",
"P  c #B76FCD",
"I  c #BA64C4",
"U  c #BC68C6",
"Y  c #B363C5",
"T  c #C11DC7",
"R  c #C11BC9",
"E  c #C41FD1",
"W  c #C91FD1",
"Q  c #CF2AD5",
"!  c #CB23D4",
"~  c #D228D7",
"^  c #DA2CDE",
"/  c #D834DD",
"(  c #D427E0",
")  c #DC2BE7",
"_  c #DE26E3",
"`  c #E129E5",
"'  c #E42DEB",
"]  c #E230E5",
"[  c #E531E9",
"{  c #E933ED",
"}  c #ED33F1",
"|  c #F635F8",
" . c #F238F5",
".. c #F63AF9",
"X. c #F937FB",
"o. c #FB3CFD",
"O. c #C34CC7",
"+. c #C74FCB",
"@. c #C049D6",
"#. c #C64CDD",
"$. c #CC50CF",
"%. c #CA5BD1",
"&. c #D741DD",
"*. c #D648D9",
"=. c #D052D3",
"-. c #CC4FE2",
";. c #D353E9",
":. c #D45EED",
">. c #C265CC",
",. c #C16CCB",
"<. c #C76BD1",
"1. c #CB66D3",
"2. c #C96AD3",
"3. c #C97FD0",
"4. c #CC72D6",
"5. c #D060D5",
"6. c #D667DB",
"7. c #D16ADB",
"8. c #DA73DD",
"9. c #DC6DE1",
"0. c #D262EB",
"q. c #E74EEA",
"w. c #E449F0",
"e. c #EE40F0",
"r. c #E952F7",
"t. c #EE52FB",
"y. c #EB5AFB",
"u. c #F344F6",
"i. c #FC44FE",
"p. c #FB4CFE",
"a. c #F258F4",
"s. c #F65AFF",
"d. c #FB52FF",
"f. c #FB5CFF",
"g. c #E56CEA",
"h. c #EF67F2",
"j. c #EE6CF0",
"k. c #E172E4",
"l. c #E675E9",
"z. c #E57CE8",
"x. c #EB7CEE",
"c. c #F56BFE",
"v. c #F863FE",
"b. c #FD6CFF",
"n. c #F362F6",
"m. c #F573FE",
"M. c #F279FE",
"N. c #FE72FF",
"B. c #FD7CFF",
"V. c #F17CF3",
"C. c #8E8F8C",
"Z. c #9A9A9A",
"A. c gray58",
"S. c #AF8EB3",
"D. c #B48ABB",
"F. c #A2A3A3",
"G. c #A5ACA5",
"H. c #ADADAD",
"J. c #B5ACBA",
"K. c #B4B4B4",
"L. c #BABABA",
"P. c #B486C8",
"I. c #BB8ACF",
"U. c #B284C6",
"Y. c #BF8DD4",
"T. c #BEB4C3",
"R. c #C28FD7",
"E. c #CC83D2",
"W. c #CE88D5",
"Q. c #C596CE",
"!. c #C69AC7",
"~. c #CC9BCD",
"^. c #CE95D3",
"/. c #C994DE",
"(. c #CF9AD4",
"). c #C595DB",
"_. c #D284D7",
"`. c #D485D9",
"'. c #D08AD6",
"]. c #D48BD9",
"[. c #D885DC",
"{. c #D98ADD",
"}. c #D194D6",
"|. c #D595D9",
" X c #D19CD5",
".X c #D59AD9",
"XX c #D995DD",
"oX c #CC96E1",
"OX c #DC87E0",
"+X c #DC8BE0",
"@X c #DE98E1",
"#X c #C7A2C7",
"$X c #C0B4C6",
"%X c #C3B5C9",
"&X c #C5B9CB",
"*X c #C9BECE",
"=X c #CBBCD2",
"-X c #D3AADC",
";X c #D3A1DA",
":X c #D2B3DB",
">X c #CDA3E5",
",X c #D0A4E7",
"<X c #D0A5E8",
"1X c #E380E5",
"2X c #E18BE5",
"3X c #E78DEA",
"4X c #EA8EED",
"5X c #ED87FD",
"6X c #E192E4",
"7X c #E992EB",
"8X c #EF92F1",
"9X c #EF98F0",
"0X c #EB92FC",
"qX c #F384FF",
"wX c #FD84FE",
"eX c #F385F9",
"rX c #F294F4",
"tX c #F09AF1",
"yX c #F39EFF",
"uX c #FA96FB",
"iX c #FA98FB",
"pX c #EDAAFD",
"aX c #C3C3C3",
"sX c #C9C7C9",
"dX c #CBCBCB",
"fX c #C2CBC2",
"gX c #CCC1D1",
"hX c #CFD5CF",
"jX c #D0C0D7",
"kX c #D4C7DA",
"lX c #D1CFD1",
"zX c #D7C8DC",
"xX c #D8C2DF",
"cX c #D8C9DE",
"vX c #D0D3CF",
"bX c #D3D3D4",
"nX c #D3D2DA",
"mX c #D6DCD6",
"MX c #D8D7DF",
"NX c #D8DAD7",
"BX c #DBDBDB",
"VX c #DBD9E2",
"CX c #DEE2DD",
"ZX c #DCE0E2",
"AX c #E0E2DF",
"SX c #E3E3E3",
"DX c #E5EBE4",
"FX c #E8EAE7",
"GX c #EAEBEA",
"HX c #ECF2EC",
"JX c #EDF8EC",
"KX c #F0F8EE",
"LX c #F3F5F3",
"PX c #F3F8F3",
"IX c #F8FCF7",
"UX c #FBFBFB",
"YX c None",
/* pixels */
"YXYXYXYXYXYXYXYXYXYXYXYXYXYXYXYXYXYXYXYXYXYXYXYXYXYXYXYXYXYXYXYX",
"YXYXYXYXYXYXYXYXYXYXYXYXYXYXYXYXYXYXYXYXYXYXYXYXYXYXYXYXYXYXYXYX",
"YX> 9 9 9 0 0 0 0 q 0 q q q q q q q q q q 4 1 1 1 1 < < 1 2 & YX",
"YXw bXbXbXbXBXBXNXAXL.aXFXDXSXSXFXSXFXGXdXC `.].].W.].W.W.2.2 YX",
"  w NXNXBXBXBXBXBXSXK.&XSXSXSXAXSXSXSXSXsXC .X.X.X.X X(. XE.1 YX",
"  e nXNXbXBXBXBXBXSXK.aXSXSXAXSXSXSXSXDXdXS XX.X.X^.}.^.(.E.3 YX",
"  t BXbXNXBXBXBXBXDXL.sXFXSXSXDXSXSXSXGXlXD @XXX|.|.|.}.^._.5   ",
"  u CXBXBXCXCXSXSXDXaXbXGXGXGXFXGXFXGXGXbXG 6X@X@XXXXX|.|.].6   ",
"  y $XT.%X&X*XsX=XzXJ.%XcXzXzXzXzXzXcXcX*XZ 1.2.2.>.>.K U L 7   ",
"  8 F F G ,.,.,.2.4.V K 7.7.7.7.7.7.7.7.%.D.zX:X=X=X&X%X%X%Xr   ",
"  p `.].{.{.+X6X6X6XO.8.tX9X9X9XtXtXtXtX1X#XKXHXGXGXFXDXSXDXC.  ",
"  a _._.`.{.+X2X6X7X$.8.rX7XrXrXrXrXrXtXz.!.HXHXGXGXFXSXAXDXA.  ",
"  s [.`.[.OX2X2X4X7X$.k.rXrXrXrXrXrXrXuXz.!.HXGXGXGXFXDXAXBXZ.  ",
"  x [.[.OXOX2X3X4XrX=.l.uXuXuXuXuXuXuXuXeX~.HXGXFXFXVXBXlXdXZ.  ",
". z %.%.6.k.k.l.x.V.*.j.wXwXwXwXB.B.b.f.p.~.SXSXSXBXBXBXbXvXZ.  ",
"  g T T W ~ ^ ` {  ./ u.p.p.p.d.p.p.p.p.p.~.DXSXSXSXCXCXNXmXF.. ",
"o h v b E ! ( ) ) } / w.t.t.y.y.y.y.y.y.r.Q.ZXVXVXMXMXnXlXkXF.% ",
"# B P.U.Y.Y.Y./.oXoXP.).<X<X<XoX<X<X<X<X>XP 0.:.;.;.-.#.@.@.s o ",
"% G.mXmXZXZXSXSXDXHXbXDXLXLXLXLXLXLXPXPXJX].s.d.i.o.X.{ ' ) h O ",
"$ H.BXBXCXAXSXSXFXGXlXFXLXLXLXLXLXLXPXPXKX}.c.c.s.i.o. .{ [ k + ",
"$ H.BXBXAXSXSXFXFXGXnXGXLXLXUXLXIXLXIXIXLX.XM.c.v.p.i...{ { l & ",
"$ H.BXBXBXSXSXSXFXGXlXGXLXIXUXUXIXUXUXUXPX-XqXM.c.d.i.o.} { b * ",
": K.BXVXAXSXSXFXGXGXlXLXUXIXUXUXUXUXUXUXIX-X0XqXm.f.p.o. .{ T = ",
"> L.CXCXSXSXSXGXGXGXnXLXUXUXUXUXUXUXUXUXIX:X0XqXm.v.p.i. .} ! - ",
", aXBXBXDXSXSXGXGXLXnXLXUXUXUXUXUXUXUXUXUXxXpXyX5XM.v.p.u.e.Q ; ",
", H.dXbXNXNXBXMXNXlXH.lXAXLXLXLXIXLXLXFXmXS.2.9.g.h.n.a.q.&.m < ",
"0 sXSXFXGXGXGXGXDXNXF.L.BXGXLXIXUXLXFXAXfXN c _ o.f.wXN.i.{ R ; ",
"q L.aXsXdXdXsXsXaXL.Z.F.K.aXsXdXdXsXaXK.G.M i k b H Y L m l d ; ",
"X : : $ : : : : $ $ $ $ $ $ $ $ $ $ $ $ $ @ o o o o o o o o + . ",
"                                                                ",
"YXYXYXYXYXYXYXYXYXYXYXYXYXYXYXYXYXYXYXYXYXYXYXYXYXYXYXYXYXYXYXYX",
"YXYXYXYXYXYXYXYXYXYXYXYXYXYXYXYXYXYXYXYXYXYXYXYXYXYXYXYXYXYXYXYX"
};
