/* XPM */
static char *kjumpingcube-16[] = {
/* columns rows colors chars-per-pixel */
"16 16 206 2",
"   c black",
".  c #09000D",
"X  c #0F030F",
"o  c #0F090F",
"O  c #0E0E0E",
"+  c #0F0012",
"@  c gray7",
"#  c #161616",
"$  c #181818",
"%  c #230023",
"&  c #2C052F",
"*  c #35053A",
"=  c gray16",
"-  c #3A3A3A",
";  c #3E2540",
":  c #3F2841",
">  c #4B124D",
",  c #570B5B",
"<  c #551B58",
"1  c #59265E",
"2  c #59385E",
"3  c #64066B",
"4  c #6D0974",
"5  c #6D0D73",
"6  c #404340",
"7  c #4E504E",
"8  c #515151",
"9  c #565954",
"0  c #626662",
"q  c DimGray",
"w  c #6F6F6F",
"e  c #767676",
"r  c #7B7B7B",
"t  c #7B1081",
"y  c #801486",
"u  c #993DA0",
"i  c #AD17B2",
"p  c #9C43A5",
"a  c #9E49A6",
"s  c #9A7A9D",
"d  c #9D76A0",
"f  c #A049A6",
"g  c #CD2DD3",
"h  c #CE3ED5",
"j  c #D137D7",
"k  c #E426EC",
"l  c #F02FF6",
"z  c #F133F5",
"x  c #F836FA",
"c  c #FB3FFE",
"v  c #C054CF",
"b  c #C559D3",
"n  c #CF5ED9",
"m  c #D543DA",
"M  c #CD7CD3",
"N  c #D260D6",
"B  c #D160DE",
"V  c #D277D9",
"C  c #D37ED7",
"Z  c #D764E5",
"A  c #D36CE0",
"S  c #DE6EE0",
"D  c #DC7DE0",
"F  c #E34BE7",
"G  c #EA4AEB",
"H  c #EB4EED",
"J  c #EF58FA",
"K  c #F544F9",
"L  c #F841FE",
"P  c #FD46FF",
"I  c #FF52FF",
"U  c #FA5BFF",
"Y  c #FE5EFF",
"T  c #E57BE6",
"R  c #E17EEA",
"E  c #E37EF2",
"W  c #EF78FA",
"Q  c #F76BFF",
"!  c #FD63FF",
"~  c #FD66FF",
"^  c #FF66FF",
"/  c #F872FE",
"(  c #909090",
")  c #939393",
"_  c gray60",
"`  c #9B9B9B",
"'  c #A2A2A2",
"]  c #A4A4A4",
"[  c #A5A5A5",
"{  c #B7B7B7",
"}  c #B9BEB9",
"|  c #C28AC8",
" . c #C48ACA",
".. c #CC8ED2",
"X. c #C194C8",
"o. c #C592CC",
"O. c #C29FC4",
"+. c #C59ACC",
"@. c #C998D1",
"#. c #CB9DD1",
"$. c #CE99D5",
"%. c #CD9CD3",
"&. c #CF9CD5",
"*. c #D481D9",
"=. c #D38AD9",
"-. c #D08CDD",
";. c #D78ADB",
":. c #DB83DF",
">. c #D693D9",
",. c #D496D8",
"<. c #D184E0",
"1. c #D38EE0",
"2. c #DD82E2",
"3. c #DD8AE0",
"4. c #DB94E7",
"5. c #D89BE5",
"6. c #C6A1C9",
"7. c #D8A1DE",
"8. c #D9A2DF",
"9. c #D8A4DC",
"0. c #DAA4DE",
"q. c #DAA3E1",
"w. c #DEBBE4",
"e. c #E58FE7",
"r. c #E689E9",
"t. c #EA89EE",
"y. c #EC89EF",
"u. c #EC8AEF",
"i. c #E181F2",
"p. c #E383F3",
"a. c #E184F2",
"s. c #EE85F1",
"d. c #EE8FFD",
"f. c #E095E1",
"g. c #FA8FFC",
"h. c #F797F8",
"j. c #F895FA",
"k. c #F896F9",
"l. c #C0C0C0",
"z. c #C5C5C5",
"x. c #C7CDC7",
"c. c gray79",
"v. c #CBD2CB",
"b. c #D7C6DB",
"n. c #D0D0D0",
"m. c gray82",
"M. c #D2D2D2",
"N. c #D5D5D5",
"B. c gray84",
"V. c #D7D7D7",
"C. c #D4D9D7",
"Z. c gray86",
"A. c #D8DED8",
"S. c #D9DFDB",
"D. c #DBDCDB",
"F. c gray87",
"G. c #DBE1DB",
"H. c #DBE1DD",
"J. c #DBE5DA",
"K. c #DCE3DC",
"L. c #DEE3DD",
"P. c #DCE6DB",
"I. c #DFE6E2",
"U. c #E6CCE9",
"Y. c #EAD8EF",
"T. c #E0EEDE",
"R. c gray88",
"E. c #E1E1E1",
"W. c #E1E2E1",
"Q. c #E2E3E1",
"!. c #E2E2E2",
"~. c #E4E4E4",
"^. c gray90",
"/. c #E6E6E6",
"(. c #E6E7E6",
"). c #E7E7E7",
"_. c #E2ECE1",
"`. c #E4EAE4",
"'. c #E4EBE4",
"]. c #E5EAE5",
"[. c #E7E8E7",
"{. c #E5ECE5",
"}. c #E6EEE6",
"|. c #E8E8E7",
" X c gray91",
".X c #E9E9E9",
"XX c #EAEAE9",
"oX c #EAEAEA",
"OX c #E8EDE8",
"+X c gray93",
"@X c #E7F4E6",
"#X c #E9F0E9",
"$X c #EEF3F0",
"%X c #EEF3F1",
"&X c #EEF4F1",
"*X c #EFFCF2",
"=X c #F8F8F7",
"-X c #F8F9F8",
";X c #F9F9F8",
":X c #F9F9F9",
">X c #FAFCFA",
",X c #FBFFF9",
"<X c #FDFDFD",
"1X c #FEFEFE",
"2X c gray100",
"3X c None",
/* pixels */
"3X3X3X3X3X3X3X3X3X3X3X3X3X3X3X3X",
"= ) ` ` ` ) ' [ { } d p a f u % ",
"- Z.F.F.F.c.oXoX).}.O.,.0.0...& ",
"6 A.F.T.G.v.`.{.{.@X6.C =.=.M * ",
"; X.+.#.%.| 8.8.8.q. .$.&.@.o.- ",
"> V *.2.C N t.t.u.s.>.}.+X{.Y.7 ",
"< 2.3.e.t.S k.k.k.g.f.|.+XF.D.8 ",
", j m F H G ^ ^ ! I T T.T.J.J.9 ",
"1 v b B Z B E a.a.p.<.5.4.1.-.2 ",
"0 A.H.I.I.C.%X%X%X*Xw.J L l k 3 ",
"q F.!.oX{.F.=X;X;X,XU.W U c z 5 ",
"w ).F.).oXL.1X1X1X1XY.d.Q P x t ",
"r ).oX+X).N.;X1X1X>Xb.R / Y K y ",
"e M.N.c.l.[ z.N.V.x.s i h n g 4 ",
"O $ # # @ @ @ @ @ @ o + + X + . ",
"3X3X3X3X3X3X3X3X3X3X3X3X3X3X3X3X"
};
