/* XPM */
static char *klickety[] = {
/* columns rows colors chars-per-pixel */
"32 32 257 2",
"   c black",
".  c #090305",
"X  c #011C00",
"o  c #001200",
"O  c #140108",
"+  c #000023",
"@  c #002400",
"#  c #012900",
"$  c #013A02",
"%  c #003402",
"&  c #2C0300",
"*  c #240509",
"=  c #300300",
"-  c #300801",
";  c #2C0910",
":  c #341326",
">  c #02024E",
",  c #050654",
"<  c #111357",
"1  c #141859",
"2  c #141857",
"3  c #0E105A",
"4  c #050D72",
"5  c #13682A",
"6  c #461A1E",
"7  c #481E1E",
"8  c #50130E",
"9  c #461C20",
"0  c #5B1C21",
"q  c #662124",
"w  c #792928",
"e  c #041D95",
"r  c #6A7BE8",
"t  c #18AB00",
"y  c #1DB100",
"u  c #308300",
"i  c #25A300",
"p  c #2DB700",
"a  c #39B800",
"s  c #60A13E",
"d  c #4A9B40",
"f  c #56A741",
"g  c #5FB142",
"h  c #62B742",
"j  c #43C200",
"k  c #4DCA00",
"l  c #52CD00",
"z  c #59D201",
"x  c #41C118",
"c  c #65D907",
"v  c #62D01A",
"b  c #6BD426",
"n  c #71D825",
"m  c #6CE300",
"M  c #73E400",
"N  c #7CE900",
"B  c #79E700",
"V  c #7FE029",
"C  c #65C244",
"Z  c #1C8EF9",
"A  c #1D98FC",
"S  c #1DAAFF",
"D  c #239CF3",
"F  c #23A7FA",
"G  c #23B4FE",
"H  c #2BBBFF",
"J  c #38ACF8",
"K  c #38C6FF",
"L  c #5B9BE4",
"P  c #5C9BF1",
"I  c #4E9DF5",
"U  c #4AA3E9",
"Y  c #49BAFF",
"T  c #5BAEF5",
"R  c #5AB8FB",
"E  c #53A1EB",
"W  c #6495DE",
"Q  c #6A8AE4",
"!  c #6292EB",
"~  c #67ABF1",
"^  c #64B2F5",
"/  c #65BAFA",
"(  c #76ABEC",
")  c #7ABBF5",
"_  c #73B7F4",
"`  c #6EAAEF",
"'  c #53C3FF",
"]  c #5CC3FF",
"[  c #5ACCFF",
"{  c #57C8FF",
"}  c #63C3FE",
"|  c #69C2FD",
" . c #69CAFF",
".. c #75C3FC",
"X. c #8A1E13",
"o. c #892218",
"O. c #962413",
"+. c #A82B12",
"@. c #B83613",
"#. c #BF3207",
"$. c #9C6577",
"%. c #AE5F5C",
"&. c #B55C4F",
"*. c #AA5F62",
"=. c #A06475",
"-. c #C43B11",
";. c #DB3B00",
":. c #D93402",
">. c #C03B07",
",. c #E13D00",
"<. c #CD4818",
"1. c #DE4000",
"2. c #DE5A19",
"3. c #DB4A11",
"4. c #D7582E",
"5. c #DF6726",
"6. c #DF7532",
"7. c #E24201",
"8. c #EB4300",
"9. c #E74A0D",
"0. c #E95417",
"q. c #F34A00",
"w. c #FA4D00",
"e. c #F24200",
"r. c #FE5300",
"t. c #FF5A03",
"y. c #FF5D09",
"u. c #E85713",
"i. c #ED5C21",
"p. c #FF620C",
"a. c #FF6410",
"s. c #FF6A15",
"d. c #FF6C18",
"f. c #FF721C",
"g. c #FF781D",
"h. c #E46728",
"j. c #E2793A",
"k. c #F56224",
"l. c #FF7621",
"z. c #FF7925",
"x. c #F7702C",
"c. c #EE703B",
"v. c #C25D42",
"b. c #DE775C",
"n. c #DD7C64",
"m. c #ED7B4D",
"M. c #E97449",
"N. c #E37C5C",
"B. c #E67954",
"V. c #ED7749",
"C. c #E07F64",
"Z. c #92D706",
"A. c #95D70F",
"S. c #82ED00",
"D. c #85F000",
"F. c #8CF400",
"G. c #94F900",
"H. c #9BFE00",
"J. c #97FB06",
"K. c #A3D832",
"L. c #A2FF0B",
"P. c #A5FF07",
"I. c #A3FE12",
"U. c #A7FF18",
"Y. c #A8FF1D",
"T. c #B1FF1B",
"R. c #AEFF2B",
"E. c #ABFF24",
"W. c #B1FF34",
"Q. c #B4FF3C",
"!. c #B5FF24",
"~. c #93EA34",
"^. c #ABD44E",
"/. c #B5D270",
"(. c #B8FF44",
"). c #B6FD47",
"_. c #BCFE51",
"`. c #A4F340",
"'. c #BCF576",
"]. c #FF822D",
"[. c #FF842B",
"{. c #FF8A35",
"}. c #FF8A35",
"|. c #FF923C",
" X c #DC836E",
".X c #DB8B79",
"XX c #DA8574",
"oX c #DF9B60",
"OX c #DEAB74",
"+X c #E28241",
"@X c #E8805C",
"#X c #E08F51",
"$X c #F18257",
"%X c #FF9543",
"&X c #FF9A44",
"*X c #FF9F4A",
"=X c #FF8D4B",
"-X c #E48264",
";X c #E3886E",
":X c #E5886B",
">X c #E18D78",
",X c #E08D77",
"<X c #EA9379",
"1X c #FFA34D",
"2X c #FFA84E",
"3X c #FFA552",
"4X c #FFAB53",
"5X c #FFAD58",
"6X c #FFB35E",
"7X c #FFA861",
"8X c #FFBB64",
"9X c #FFB765",
"0X c #FFB076",
"qX c #C1FF5D",
"wX c #C0FF57",
"eX c #C3FE64",
"rX c #C8FF6B",
"tX c #CAFF72",
"yX c #CFFF7F",
"uX c #FFC16B",
"iX c #FFCB74",
"pX c #FFC675",
"aX c #FFD57D",
"sX c #81ABEA",
"dX c #8BABEB",
"fX c #8CACF2",
"gX c #8CB3EC",
"hX c #81B3EE",
"jX c #8CBAF1",
"kX c #86B6F3",
"lX c #90B0F5",
"zX c #ADE789",
"xX c #ACCE95",
"cX c #8CC2F7",
"vX c #DC9283",
"bX c #DE9C8E",
"nX c #D9938C",
"mX c #DD9C93",
"MX c #D88C82",
"NX c #DFA09A",
"BX c #E09381",
"VX c #E09C8D",
"CX c #EA9A82",
"ZX c #E19D94",
"AX c #FFB885",
"SX c #FEB388",
"DX c #F0AA92",
"FX c #D7FF92",
"GX c #D4E2AB",
"HX c #FFDA87",
"JX c #FFCE84",
"KX c #FFE49B",
"LX c #E3FFA6",
"PX c #FFF4AD",
"IX c #FFEDA7",
"UX c #E7D2AB",
"YX c None",
/* pixels */
"YXYXYXYXYXYXYXYXYXYXYXYXYXYXYXYXYXYXYXYXYXYXYXYXYXYXYXYXYXYXYXYX",
"YXYXYXYXYXYXYXYXYXYXYXYXYXYXYXYXYXYXYXYXYXYXYXYXYXYXYXYXYXYXYXYX",
"YX* 6 9 9 9 9 9 6 6 6 6 6 6 7 : 3 3 1 3 < < < < 1 1 1 < 1 3 + YX",
"YX0 nXmXZXmXZXmXZXZXZXZXZXZXDX$.Q jXlXlXfXkXfXfXfXfXfXdXfXr > YX",
"  6 nXmXmXmXbXbXVXVXVXVXVXVXDX=.W cXcXjXjXjXjXgXgXgXdXdXdXQ > YX",
"  0 MXnXnXvXvXvXvXBXBXBXBXvX<X=.W cXjXkXhX) hXhXhXsXsXsXdXQ > YX",
"  0 .XMX.X.XXX>X.X>X>X>X>X>X<X%.L ....) ) ) ) _ ( ( ( ( ( Q , YX",
"  q n. X X X X;X;X;X;X;X;X;X<X%.L ........_ _ _ _ _ ` ` ` ! 4 YX",
"  q n.n.n.n.C.C.C.-X-X-X-X:X$X%.E  .|  .| / / / / ^ ^ ~ ~ P 4   ",
"  w b.b.b.b.N.N.N.N.@XN.N.-X$X%.U  .| } | } } / / / ^ T T P 4   ",
". o.B.b.N.B.B.B.B.B.$XB.m.m.$X&.U [ ] ] ] ] } ] R ] R R T I 4   ",
"  o.4.4.4.M.M.M.m.m.m.m.m.m.+Xv.U [ { { { { ' Y ' J J J F A 4   ",
"  o.:.;.;.7.9.0.0.0.0.k.k.k.k.4.J K K K K H H H G G G S F A e   ",
"  o.;.;.;.,.,.7.8.8.8.7.8.7.8.-.D G G G G F F F D S A A Z Z e   ",
"  O.;.;.;.;.;.;.7.7.7.7.7.7.7.>.s C s b h g g f f f d d d d 5   ",
"  O.e.8.q.q.w.r.r.r.r.t.y.y.y.9.Z.H.G.J.G.F.F.F.S.N N B M m i   ",
". +.q.q.q.q.r.w.r.y.p.a.a.s.s.2.Z.H.H.G.F.F.F.F.F.S.N B B M i   ",
". +.q.q.w.w.y.y.a.d.f.f.g.g.[.5.Z.H.H.H.H.H.H.F.F.S.S.N B B i   ",
". @.r.w.r.y.a.d.f.z.[.].{.{.|.6.A.U.U.I.L.H.H.G.G.G.F.N S.N p o ",
"O @.r.r.p.s.f.z.].}.|.|.%X&X|.+XK.W.R.E.U.I.P.P.H.F.F.F.S.D.a o ",
"O -.t.y.d.l.[.}.|.&X*X3X2X4X4X#X^.(.Q.W.W.E.U.L.H.H.G.F.D.F.a o ",
"O -.p.d.z.].}.%X*X3X5X6X8X8XuXoX^.wX_.(.Q.W.R.Y.I.H.H.G.F.G.j X ",
"O <.d.z.{.|.&X1X3X9X8XuXiXiXiXOX/.tXeXqX_.(.Q.R.Y.L.H.G.G.G.l X ",
"* <.g.].}.&X1X5X8XuXiXiXaXaXaXDX/.yXtXeXqX_.(.W.R.U.P.H.G.G.l @ ",
"; 4.}.%X3X7X0XpXJXHXKXKXIXPXPXUXGXLXLXFXFXyXtXqX_.Q.R.U.L.J.c % ",
"8 i.z.c.=X=X7X0X0XAXSXAXSXSXSXDXxXzXzXzX'.'.eXeX_.).`.~.V b x $ ",
"8 ,.w.r.s.z.|.1X4X2X&X[.f.y.w.,.u p l m S.H.L.!.T.P.G.M z a p % ",
"8 :.;.8.u.h.h.j.+Xj.j.h.2.3.;.#.u p p a k l b b n c c k j p t $ ",
"O - & & & & & = = & & & & & * * X # @ @ @ @ @ @ # # # # # @ # o ",
"                                                                ",
"YXYXYXYXYXYXYXYXYXYXYXYXYXYXYXYXYXYXYXYXYXYXYXYXYXYXYXYXYXYXYXYX",
"YXYXYXYXYXYXYXYXYXYXYXYXYXYXYXYXYXYXYXYXYXYXYXYXYXYXYXYXYXYXYXYX"
};
