/* XPM */
static char *klickety-16[] = {
/* columns rows colors chars-per-pixel */
"16 16 220 2",
"   c black",
".  c #001000",
"X  c #001500",
"o  c #001800",
"O  c #001A00",
"+  c #051A00",
"@  c #140000",
"#  c #180200",
"$  c #1D0500",
"%  c #1F0500",
"&  c #1D0800",
"*  c #000029",
"=  c #03062E",
"-  c #050535",
";  c #050A3F",
":  c #200500",
">  c #25080C",
",  c #321114",
"<  c #361313",
"1  c #3E1616",
"2  c #040B46",
"3  c #02134D",
"4  c #0D450D",
"5  c #165B00",
"6  c #0B6B01",
"7  c #1D6600",
"8  c #237100",
"9  c #2C7A00",
"0  c #4B1109",
"q  c #461412",
"w  c #501409",
"e  c #5F180A",
"r  c #6A1B09",
"t  c #722109",
"y  c #7A2810",
"u  c #197BC8",
"i  c #444EB6",
"p  c #4A5CB7",
"a  c #5062BE",
"s  c #5163BE",
"d  c #5261BF",
"f  c #5166C0",
"g  c #5167C3",
"h  c #2B8107",
"j  c #38950B",
"k  c #3FBF05",
"l  c #52A421",
"z  c #5CA421",
"x  c #719B1C",
"c  c #62A921",
"v  c #69AE21",
"b  c #6DB421",
"n  c #6FBB21",
"m  c #46C309",
"M  c #6AD707",
"N  c #6BD709",
"B  c #74F000",
"V  c #7DF200",
"C  c #3687AA",
"Z  c #1F8AC9",
"A  c #2490C9",
"S  c #2896C8",
"D  c #2D9BC8",
"F  c #3899F9",
"G  c #2EA2C9",
"H  c #5F9DEE",
"J  c #52A7DB",
"K  c #5DA4D9",
"L  c #46B3FF",
"P  c #4FBCFF",
"I  c #6A9FD5",
"U  c #6896E6",
"Y  c #7B99E2",
"T  c #7EA4D5",
"R  c #66B2F5",
"E  c #65B7F8",
"W  c #66BEFC",
"Q  c #75AEF0",
"!  c #74B1F1",
"~  c #75B7F4",
"^  c #76BBF7",
"/  c #54C2FF",
"(  c #56C6FF",
")  c #56CBFF",
"_  c #66C2FE",
"`  c #67C8FF",
"'  c #76C2FC",
"]  c #8F2201",
"[  c #903414",
"{  c #824E5A",
"}  c #945859",
"|  c #995F5C",
" . c #9A5F5C",
".. c #99605D",
"X. c #9D605A",
"o. c #D73603",
"O. c #DE3602",
"+. c #DB3D07",
"@. c #DE3800",
"#. c #DE3904",
"$. c #E33B00",
"%. c #E53E00",
"&. c #CB400C",
"*. c #CE4C1F",
"=. c #D84705",
"-. c #DF430B",
";. c #E2460E",
":. c #E84000",
">. c #E94001",
",. c #E9470F",
"<. c #EA4906",
"1. c #E75A1B",
"2. c #F94A02",
"3. c #FB4F00",
"4. c #FF5202",
"5. c #FF5703",
"6. c #FF5E09",
"7. c #EA621D",
"8. c #E96718",
"9. c #FF610C",
"0. c #FF620E",
"q. c #FF6B16",
"w. c #FF6F1A",
"e. c #FF701D",
"r. c #E87937",
"t. c #FF7722",
"y. c #FF7B25",
"u. c #FF7E29",
"i. c #CE6648",
"p. c #C46A57",
"a. c #C06E63",
"s. c #C17C79",
"d. c #DD7861",
"f. c #E06340",
"g. c #E47049",
"h. c #E7744B",
"j. c #EA774D",
"k. c #EC7A4D",
"l. c #F27C4C",
"z. c #E07E62",
"x. c #E27E60",
"c. c #9BD900",
"v. c #82EF00",
"b. c #86E31B",
"n. c #8AF200",
"m. c #8AF500",
"M. c #88F900",
"N. c #88F215",
"B. c #93F900",
"V. c #92FB00",
"C. c #94FA00",
"Z. c #96FF00",
"A. c #99FF00",
"S. c #9BFE01",
"D. c #9DFF00",
"F. c #9FFF03",
"G. c #9EFF05",
"H. c #84E122",
"J. c #A5D823",
"K. c #A3FF0E",
"L. c #A8FF1A",
"P. c #A8FF1C",
"I. c #A9FF1E",
"U. c #A4FC26",
"Y. c #B1FF32",
"T. c #B5FF3D",
"R. c #B1D747",
"E. c #B7FF44",
"W. c #BAFF43",
"Q. c #E88035",
"!. c #EA803C",
"~. c #FF8131",
"^. c #FF8935",
"/. c #FF8B37",
"(. c #FF903C",
"). c #FF923C",
"_. c #D88172",
"`. c #DE8873",
"'. c #DE8875",
"]. c #E98B47",
"[. c #EC835F",
"{. c #E89A52",
"}. c #FF9C47",
"|. c #FF994C",
" X c #E48060",
".X c #E68160",
"XX c #E08973",
"oX c #E28A73",
"OX c #E78C72",
"+X c #FFA752",
"@X c #FFA954",
"#X c #FFB15C",
"$X c #E9B872",
"%X c #FFB46A",
"&X c #FFBB64",
"*X c #C2D96C",
"=X c #C0FF58",
"-X c #C6FF5C",
";X c #CAFF6D",
":X c #C7FF70",
">X c #FFC67F",
",X c #FFCB74",
"<X c #FFD77E",
"1X c #8FBCF2",
"2X c #91BAF2",
"3X c #B7D082",
"4X c #90C0F5",
"5X c #90C4F6",
"6X c #92C9FB",
"7X c #DF988D",
"8X c #E9A08F",
"9X c #EEA48F",
"0X c #E6A091",
"qX c #E7A090",
"wX c #E6A394",
"eX c #F0B482",
"rX c #C0F882",
"tX c #FFCD88",
"yX c #FFCD8B",
"uX c None",
/* pixels */
"uXuXuXuXuXuXuXuXuXuXuXuXuXuXuXuX",
"> } ..| | |  .{ p g g s s s i * ",
", 7XwX0X0X8X9Xs.T 6X5X4X2X2XY = ",
"< _.'.`.oXoXOXa.I ' ^ ~ ! Q U - ",
"1 d.z.z.[.x.[.p.K ` _ W E R H ; ",
"q f.g.h.j.k.l.i.J ) ( / P L F 2 ",
"0 #.o.+.-.;.,.*.C G D S A Z u 3 ",
"w O.@.$.%.:.:.=.x n b v c z l 4 ",
"e 2.3.5.9.q.e.8.c.D.A.V.m.v.B 5 ",
"r 4.6.w.u./.(.Q.J.P.K.D.V.n.V 7 ",
"t 9.t./.}.@X#X{.R.E.Y.L.G.C.M.8 ",
"y y.(.+X&X,X<X$X*X;X=XT.U.D.Z.9 ",
"[ ~.|.%X>XtXtXeX3XrX:X-XW.U.N.h ",
"] <.7.!.].r.1.&.j m N H.b.M k 6 ",
"@ % % % & % % @ X + + X + + + . ",
"uXuXuXuXuXuXuXuXuXuXuXuXuXuXuXuX"
};
