/* XPM */
static char *klines[] = {
/* columns rows colors chars-per-pixel */
"32 32 257 2",
"   c black",
".  c #1B0606",
"X  c #2C080C",
"o  c #210709",
"O  c #300B0E",
"+  c #370E11",
"@  c #380E11",
"#  c #3B1012",
"$  c #551416",
"%  c #561618",
"&  c #591616",
"*  c #59181A",
"=  c #6D191A",
"-  c #741E1D",
";  c #791F1B",
":  c #701E20",
">  c #76211F",
",  c #742023",
"<  c #7D3247",
"1  c #7A3652",
"2  c #7D6064",
"3  c #705883",
"4  c #6C7082",
"5  c #6677B3",
"6  c #797BB6",
"7  c #7A881F",
"8  c #7EB139",
"9  c #72D81B",
"0  c #76D703",
"q  c #7AC030",
"w  c #7AD23E",
"e  c #7BEB00",
"r  c #75ED01",
"t  c #7CE11E",
"y  c #73EA1B",
"u  c #7AF201",
"i  c #6EEA1E",
"p  c #7DE226",
"a  c #7CE128",
"s  c #2EB9FF",
"d  c #28BAFF",
"f  c #38B6FE",
"g  c #2FA5F4",
"h  c #24C9FF",
"j  c #2DD8FF",
"k  c #28D3FF",
"l  c #30D4FF",
"z  c #7D8280",
"x  c #61819A",
"c  c #71ACB4",
"v  c #448CC7",
"b  c #508EC1",
"n  c #5598E3",
"m  c #6ABDC8",
"M  c #65B5F7",
"N  c #63B8FC",
"B  c #78B9F6",
"V  c #5CDFF5",
"C  c #5CE2F8",
"Z  c #821C1C",
"A  c #9E1C05",
"S  c #9D200D",
"D  c #9C2512",
"F  c #9A291A",
"G  c #98390A",
"H  c #892324",
"J  c #8B2826",
"K  c #982F25",
"L  c #9B352B",
"P  c #9D3225",
"I  c #983832",
"U  c #963A36",
"Y  c #AD1C01",
"T  c #A41E06",
"R  c #BA1C00",
"E  c #B21400",
"W  c #A3240B",
"Q  c #AC2304",
"!  c #AB2409",
"~  c #AC2B04",
"^  c #AD280B",
"/  c #A42608",
"(  c #A02710",
")  c #A42912",
"_  c #A52D1A",
"`  c #A92B11",
"'  c #A63405",
"]  c #A4301D",
"[  c #B32404",
"{  c #B42806",
"}  c #B12908",
"|  c #BB2301",
" . c #BA2902",
".. c #B02109",
"X. c #B43717",
"o. c #A63828",
"O. c #AB3B33",
"+. c #823D50",
"@. c #85394C",
"#. c #8F710C",
"$. c #87731B",
"%. c #997808",
"&. c #986107",
"*. c #AB5306",
"=. c #BB401F",
"-. c #AD480B",
";. c #A1453C",
":. c #AB4233",
">. c #A94638",
",. c #B0402B",
"<. c #B24B38",
"1. c #B95239",
"2. c #AA4B31",
"3. c #A36105",
"4. c #8F621C",
"5. c #9F5350",
"6. c #9F4A45",
"7. c #814A69",
"8. c #8B6A61",
"9. c #A55956",
"0. c #A45C58",
"q. c #B65A4B",
"w. c #B65644",
"e. c #BB5E52",
"r. c #B45F51",
"t. c #A04942",
"y. c #B5614E",
"u. c #B96255",
"i. c #BB6558",
"p. c #BC6B5E",
"a. c #B87C56",
"s. c #BD6C61",
"d. c #BF6D69",
"f. c #BE7366",
"g. c #BF7468",
"h. c #C01F03",
"j. c #C32C00",
"k. c #C63803",
"l. c #C23914",
"z. c #C43814",
"x. c #CB580B",
"c. c #CE5016",
"v. c #C84715",
"b. c #D85A24",
"n. c #CC583A",
"m. c #D96E0E",
"M. c #DC6734",
"N. c #F17F01",
"B. c #EA7004",
"V. c #EA742F",
"C. c #C05D4B",
"Z. c #CF6E54",
"A. c #D66949",
"S. c #D96643",
"D. c #D86A48",
"F. c #D86648",
"G. c #D16F56",
"H. c #DE7B4C",
"J. c #CA6747",
"K. c #C0736B",
"L. c #C0796E",
"P. c #CC7C60",
"I. c #C17B71",
"U. c #C37774",
"Y. c #8D77A5",
"T. c #8B8A09",
"R. c #8C8C38",
"E. c #81A22E",
"W. c #AD8417",
"Q. c #AF9B1C",
"!. c #A9A81E",
"~. c #90B55E",
"^. c #8EB159",
"/. c #B98F58",
"(. c #BF8F7E",
"). c #B79365",
"_. c #B8B05E",
"`. c #B1AC6E",
"'. c #B5A878",
"]. c #B1B76D",
"[. c #80C304",
"{. c #9AFF18",
"}. c #95F317",
"|. c #99EB16",
" X c #A4F92D",
".X c #88E454",
"XX c #90E159",
"oX c #81E44B",
"OX c #92E660",
"+X c #8EE56E",
"@X c #ABF45C",
"#X c #AEED74",
"$X c #A9F372",
"%X c #BEFB66",
"&X c #BCF665",
"*X c #FD8912",
"=X c #FF940D",
"-X c #FF9E00",
";X c #FF961C",
":X c #F49013",
">X c #EE9626",
",X c #EFA31F",
"<X c #FFAB0A",
"1X c #FFA604",
"2X c #FDBE31",
"3X c #F3A229",
"4X c #D5894C",
"5X c #C28178",
"6X c #CB8165",
"7X c #D4A053",
"8X c #FE9D51",
"9X c #FC9346",
"0X c #EF986B",
"qX c #F09E73",
"wX c #F0996C",
"eX c #FFA654",
"rX c #FFAA5A",
"tX c #FFAD66",
"yX c #FFB26E",
"uX c #FFB472",
"iX c #9180B1",
"pX c #BABB93",
"aX c #89A1E0",
"sX c #98ED82",
"dX c #B8CD98",
"fX c #B7D695",
"gX c #A3EB89",
"hX c #BEED9D",
"jX c #B6EF97",
"kX c #B9F399",
"lX c #98C4FD",
"zX c #A4C7F5",
"xX c #BEDAFE",
"cX c #B8CBF5",
"vX c #C58880",
"bX c #C68E88",
"nX c #C88F88",
"mX c #C58781",
"MX c #C8908B",
"NX c #C39389",
"BX c #C99590",
"VX c #CB9C98",
"CX c #CA9995",
"ZX c #CCA09D",
"AX c #CEA4A0",
"SX c #D0A6A3",
"DX c #D4B0AD",
"FX c #D5B2B0",
"GX c #F8BB97",
"HX c #CBF5BC",
"JX c #FFC79C",
"KX c #FFD1AC",
"LX c #FFD0AD",
"PX c #C1D7FA",
"IX c #FFDDC3",
"UX c #FFE5D1",
"YX c None",
/* pixels */
"YXo @ @ @ @ @ @ @ @ @ @ @ @ @ @ @ $ O + # + + + + @ # + @ # X YX",
"  * J : Z Z Z : Z : Z Z Z Z Z Z Z Z Z Z Z Z Z Z Z Z Z Z Z H ,   ",
"  % H 5.0.9.9.9.5.0.0.0.9.9.9.9.9.9.9.9.9.9.9.9.9.9.9.9.9.J -   ",
"  $ U SXFXDXDXDXDXDXDXFXDXDXDXDXDXDXDXDXDXDXDXDXDXDXDXDXDX6.=   ",
"  $ U ZXSXAXAXAXAXAXAXAXAXAXAXAXAXAXAXAXAXAXAXAXAXSXSXSXAXt.=   ",
"  $ U CXVXVXVXVXVXVXVXVXVXVXVXVXVXCXVXVXVXVXVXVXCXVXCXVXVX;.=   ",
"  $ U bXBXCXBXMXMXBXBXBXBXBXBXBXMXBXBXBXBXBXBXBXMXBXBXCXBX;.=   ",
"  $ U bXbXbXpXdXpXNXbXbXbXbXbXbXnXnXnXnXnXnXnXnXnXnXnXnXnX;.=   ",
"  $ I 5XmXdXHXHXHXdX(.5XbXvXvXmXvXvXvX5XvXvXvXvX5XnXvXvXbX;.=   ",
"  $ I U.'.jXjXhXhXjX'.U.5X5X(.U.5X5X5X5X5X5X5Xg.5X5X5X5Xs.K -   ",
"  % L K.`.#X#X#X#X$X].U.5Xg.g.g.L.L.L.L.I.L.g.(.L.g.(.r.F D =   ",
"  $ P d.).@X@X@X@X@X).g.g.g.g.f.K.f.f.f.f.K.g.g.L.Z.:.D D D :   ",
"  & K i.p._.&X%X%X_.p.p.p.p.s.p.p.s.s.s.K.Z.s.u.>._ S D D ) :   ",
"  & o.u.i.r.a././.i.u.i.i.i.e.r.y.J.u.u.q.<.o.W / W D ( ( ( >   ",
"  & o.q.r.q.e.Z.Z.q.q.w.<.,.R.~.^.$._ _ _ T Z 1 < D W W W ) ;   ",
"  & _ w.w.J.GXUXIX0X^ ) T 7 +XgXsX+X$.T ! , aXxXcX6 J ! ( ) ;   ",
"  & _ 1.<.qXLXJXJXJXb.T G w XX.XXXOXq / D 5 zXzXzXlX3 Y W ) -   ",
"  & _ <.1.8XtXeXeXrXV.T G 9 |.oXa a 9 ' J n N M M N b D ! ^ >   ",
"  % _ O.X.*X=X=X=X=XB.! G 0 r e e u [.! L g d s s d v ^ ! ^ -   ",
"  % ) ` / B.<X1X<X<Xx.W W %.}.{.{.}.*.! ^ 4 j j j l 2 Q ^ ^ -   ",
"  % ) ^ ! ~ m.,X,Xx.! ^ ^ [ *.W.W.-.Y ^ } ` z m c 8.{ ^ ^ ^ -   ",
"  % ) { ^ ^ Q / A Y { ^ ^ ^ Y E E Y } } } { R [ Q R { { { ^ -   ",
"  % ^ ^ { Q +.Y.Y.7.W { { [ b.qXqXM. .Q { [ ~ R.R.$.' [ { { -   ",
"  % ^ { | 7.aXPXPXlX2 Q Q b.JXIXIXLXV.[ [ ' E.sXgXsXE.} { { -   ",
"  % ^  .! 5 B B B B n P  .>XuXtXtXyX9Xk.R #..XXXXXXXoX&.| { -   ",
"  % `  .} v f f f s g o.j.*X;X;X;X;X=Xk.R T.i t t t y %.j.| -   ",
"  % }  .h.4 h h h k b { | B.=X-X-X1X:XR R 3.r r e u e *.j. .-   ",
"  % X.l.z.X.c V C m 1.z.z.v.>X2X2X3Xc.l.l.l.!. X X XQ.z.z.z.,   ",
"  % n.D.F.F.S.P.6XD.M.D.D.D.D.H.H.D.F.D.D.D.F.4X7X4XF.D.D.S.-   ",
"  % P >.:.:.:.O.O.:.O.O.:.:.,.O.:.:.:.:.:.:.:.O.O.O.:.>.:.o.:   ",
"  . O X X X X X X X X X X X O X X X X X X X X X X X X X X X o   ",
"                                                                "
};
