/* XPM */
static char *kmahjongg[] = {
/* columns rows colors chars-per-pixel */
"32 32 213 2",
"   c #000000",
".  c #0B0704",
"X  c #0E0E00",
"o  c #1D1108",
"O  c #221309",
"+  c #29160B",
"@  c #341E0F",
"#  c #3E2512",
"$  c #402614",
"%  c #422915",
"&  c #4D321E",
"*  c #4F3220",
"=  c #5D3D26",
"-  c #633C21",
";  c #6D4326",
":  c #694428",
">  c #6F482E",
",  c #734829",
"<  c #7A4D2D",
"1  c #7A502E",
"2  c #7E5130",
"3  c #46494B",
"4  c #514D49",
"5  c #5F554E",
"6  c #585655",
"7  c #5A5A5A",
"8  c #5B5E60",
"9  c #665B53",
"0  c #6A615A",
"q  c #6B6A6A",
"w  c #7D756E",
"e  c #767675",
"r  c #7B7774",
"t  c #797B7C",
"y  c #7B7E81",
"u  c #835433",
"i  c #865936",
"p  c #8A5B39",
"a  c #945E37",
"s  c #92613F",
"d  c #9C633A",
"f  c #A3653B",
"g  c #A5693E",
"h  c #AD663E",
"j  c #8A5F40",
"k  c #926442",
"l  c #966B4B",
"z  c #9B7152",
"x  c #887568",
"c  c #8B7B6F",
"v  c #AA6D41",
"b  c #A2704C",
"n  c #AE7145",
"m  c #A9734C",
"M  c #A87652",
"N  c #AC7C5B",
"B  c #B17347",
"V  c #B2774A",
"C  c #B6784B",
"Z  c #B97A4C",
"A  c #B47551",
"S  c #B77B5A",
"D  c #BC7D50",
"F  c #C16F3B",
"G  c #D36F3F",
"H  c #F65836",
"J  c #C05B43",
"K  c #C37F4E",
"L  c #C77858",
"P  c #E46744",
"I  c #FF7257",
"U  c #84817F",
"Y  c #8C8178",
"T  c #938479",
"R  c #BD8540",
"E  c #B1835F",
"W  c #AF8566",
"Q  c #AD927F",
"!  c #BA8867",
"~  c #B98D6D",
"^  c #B09079",
"/  c #BE9472",
"(  c #C68542",
")  c #C48352",
"_  c #C88556",
"`  c #CB8758",
"'  c #CD8959",
"]  c #D38443",
"[  c #D38752",
"{  c #D48B56",
"}  c #D68D5A",
"|  c #D98457",
" . c #D88D58",
".. c #D5905E",
"X. c #DA925D",
"o. c #D99857",
"O. c #C28268",
"+. c #C69774",
"@. c #C0997C",
"#. c #C89B7F",
"$. c #DB8B60",
"%. c #D39162",
"&. c #D4986A",
"*. c #DB9563",
"=. c #DD9866",
"-. c #DE9A69",
";. c #D29272",
":. c #D69A71",
">. c #DC9E71",
",. c #DCA35F",
"<. c #DFA174",
"1. c #E1865F",
"2. c #F28347",
"3. c #EA8F63",
"4. c #E49562",
"5. c #E6956D",
"6. c #E49B65",
"7. c #E29C6B",
"8. c #EC9D65",
"9. c #EB9E6A",
"0. c #E09F70",
"q. c #F49F6C",
"w. c #F99A6B",
"e. c #F79274",
"r. c #FB9174",
"t. c #EFA14C",
"y. c #F4AA53",
"u. c #F5B755",
"i. c #F0B953",
"p. c #E2A162",
"a. c #E5A16F",
"s. c #E9A16D",
"d. c #E3A273",
"f. c #E5A679",
"g. c #E6A97C",
"h. c #E9A473",
"j. c #ECA877",
"k. c #EBAB7C",
"l. c #F3A36B",
"z. c #F1A773",
"x. c #F1AD7A",
"c. c #FAAC73",
"v. c #F7B06E",
"b. c #F5B07C",
"n. c #FBB577",
"m. c #FFB57C",
"M. c #848282",
"N. c #8B8580",
"B. c #8C8987",
"V. c #908C88",
"C. c #97908B",
"Z. c #A59080",
"A. c #A3948A",
"S. c #AB9B91",
"D. c #CB9D82",
"F. c #C4A186",
"G. c #CDA384",
"H. c #CBA88E",
"J. c #C4AB99",
"K. c #D3A385",
"L. c #D7AA87",
"P. c #DAA68A",
"I. c #DDAB84",
"U. c #DAA98F",
"Y. c #D4B095",
"T. c #DDB296",
"R. c #DDB498",
"E. c #DBB99E",
"W. c #E5AC83",
"Q. c #E0AF8C",
"!. c #E9AD81",
"~. c #E4AB90",
"^. c #E1B18C",
"/. c #EBB185",
"(. c #ECB48B",
"). c #E4BA9A",
"_. c #EFB991",
"`. c #F1A980",
"'. c #FDA285",
"]. c #F4B282",
"[. c #F4B689",
"{. c #F5B98C",
"}. c #F9B484",
"|. c #FAB48A",
" X c #FCBB8C",
".X c #F1BB93",
"XX c #F2BE98",
"oX c #FABD91",
"OX c #E1BDA1",
"+X c #ECC09F",
"@X c #FFC08F",
"#X c #F4C19B",
"$X c #FEC394",
"%X c #FDC499",
"&X c #FFC895",
"*X c #FEC99A",
"=X c #E4C0A5",
"-X c #E9C2A5",
";X c #EAC5A9",
":X c #ECCAAC",
">X c #F4C4A2",
",X c #F6C8A6",
"<X c #F4CAAA",
"1X c #FFCAA0",
"2X c #FACEAD",
"3X c #FACFB0",
"4X c #FCD0AE",
"5X c #FBD2B4",
"6X c #FCD6B9",
"7X c #FFD8B7",
"8X c #FDD9BC",
"9X c #FEDCC2",
"0X c None",
/* pixels */
"0X0X0X0X  & , > : : : : : : - : : : = X 0X0X0X0X0X0X0X0X0X0X0X0X",
"0X0X0X0X= m.&X*X*X%X*X&X*X&X&X$X&X$Xm.Z   0X0X0X0X0X0X0X0X0X0X0X",
"0X0X0X0Xk *X9X9X9X9X9X9X9X9X8X9X9X9X%X9.O 0X0X0X0X0X0X0X0X0X0X0X",
"0X0X0X0Xp *X9X9X9X9X8X8X6X6X6X6X5X6X%X*.O 0X0X0X0X0X0X0X0X0X0X0X",
"0X0X0X0Xp *X9X8X8X6X6X5X5X5X5X5X3X5X%X*.o 0X0X0X0X0X0X0X0X0X0X0X",
"0X0X0X0Xi &X3X5X5X:X;X;X=X=XE.E.R.R./.*.O 0X0X0X0X0X0X0X0X0X0X0X",
"0X0X0X0Xp  XI r.:X~.P.K.K.D.D.F.! J :.} +         0X0X0X0X0X0X0X",
"0X0X0X0Xi oX'.e.~. .o.4.s.s.s.h.9.5.h.0.=.*.*.*...& 0X0X0X0X0X0X",
"0X0X0X0Xi @X5X>XR.;.4. X7X8X8X7X8X8X7X6X8X7X8X7X&XV   0X0X0X0X0X",
"0X0X0X0Xu @X|.l.U.D.6.*X9X9X8X9X8X8X8X8X6X6X6X8X1XD   0X0X0X0X0X",
"0X0X0X0Xu  Xn.u.| _ 6.%X9X8X8X6X8X6X5X6X5X5X5X5X%XZ   0X0X0X0X0X",
"0X0X0X0Xu |.c.y.] ( p.$X6X6X6X5X5X5X5X5X5X5X2X5X%XZ   0X0X0X0X0X",
"0X0X0X0Xu }.w.2.P h X.&X6X5X5X5X5X5X2X2X2X2X2X2X$XC   0X0X0X0X0X",
"0X0X0X0X2 }.v.i.] R ,.oX5X3X5X3X4X2X2X2X<XOXOX2XoXC   0X0X0X0X0X",
"0X0X0X0X2 }.l.t._ A X. X2X<X2X<X-XE.J.S.V.t A.,XoXV   0X0X0X0X0X",
"0X0X0X0X2 x.x.5./ N {  XOXJ.S.V.B.M.t t U A.).>X XB   0X0X0X0X0X",
"0X0X0X0X1 x.(.I.! h { }.,X>X+X).Y.M.U t Y.%X#XXX[.B   0X0X0X0X0X",
"0X0X0X0X1 z.j.1.S f { [.>X>X#X*XH.e H.r Z.%XXXXX[.n   0X0X0X0X0X",
"0X0X0X0X1 l.H P E z ' [.#X#X#X#XY T $XQ q I..X_.`.n   0X0X0X0X0X",
"0X0X0X0X< 8.3...N l ' x.#X.X#XF.r I.oXG.7 Q {.(.x.n   0X0X0X0X0X",
"0X0X0X0X, s.d.&.M k ` x._..XL.c L.{.(.I.7 x (./.k.v   0X0X0X0X0X",
"0X0X0X0X< 8.7...b p ) x.(.(./ I.[./.].W.6 0 g.W.j.v   0X0X0X0X0X",
"0X0X0X0X; 8.-.%.m s ) g.(./././.W.W.W.+.3 9 f.g.h.g   0X0X0X0X0X",
"0X0X0X0Xo s n v d a ) h./.!.k.g.g.k.~ 5 4 W j.d.h.g   0X0X0X0X0X",
"0X0X0X0X        . . v h.g.g.g.g.f.d.<.&.>.d.d.>.7.g   0X0X0X0X0X",
"0X0X0X0X0X          v h.f.f.d.d.0.d.d.d.0.-.-.-.6.f   0X0X0X0X0X",
"0X0X0X0X0X0X0X0X0X  v s.d.d.7.7.7.-.-.-.7.=.=.*.*.f   0X0X0X0X0X",
"0X0X0X0X0X0X0X0X0X  v 9.7.-.-.-.-.-.*.*.*.X.X...X.g   0X0X0X0X0X",
"0X0X0X0X0X0X0X0X0X  v 6.=.=.=.=.=.*.*...X. . .} X.d   0X0X0X0X0X",
"0X0X0X0X0X0X0X0X0X  ,  .X.X. .X.}  . . .{ { } } [ -   0X0X0X0X0X",
"0X0X0X0X0X0X0X0X0X  . @ % % $ $ $ $ $ $ $ $ $ % @     0X0X0X0X0X",
"0X0X0X0X0X0X0X0X0X0X                                0X0X0X0X0X0X"
};
