/* XPM */
static char *kmahjongg-16[] = {
/* columns rows colors chars-per-pixel */
"16 16 167 2",
"   c black",
".  c #050000",
"X  c #140A0A",
"o  c #1F0F07",
"O  c #22120A",
"+  c #22150A",
"@  c #27150A",
"#  c #24160C",
"$  c #25160C",
"%  c #27180C",
"&  c #382615",
"*  c #422817",
"=  c #432E1B",
"-  c #462B18",
";  c #462E1D",
":  c #4A2E1B",
">  c #463020",
",  c #493020",
"<  c #4B3320",
"1  c #4B3323",
"2  c #4E3521",
"3  c #573722",
"4  c #583821",
"5  c #593922",
"6  c #5B3B24",
"7  c #5D3B24",
"8  c #5C3C24",
"9  c #5F3D26",
"0  c #604029",
"q  c #614128",
"w  c #61412A",
"e  c #634028",
"r  c #65432C",
"t  c #6F4E36",
"y  c #704C34",
"u  c #7A5135",
"i  c #776558",
"p  c #825739",
"a  c #997F6C",
"s  c #A36C44",
"d  c #A86F46",
"f  c #AE764E",
"g  c #B5784B",
"h  c #B07C55",
"j  c #B47F56",
"k  c #BF7D52",
"l  c #C37954",
"z  c #88817C",
"x  c #9A8576",
"c  c #B6805B",
"v  c #BB845B",
"b  c #BD865C",
"n  c #A1846E",
"m  c #B08769",
"M  c #C7885C",
"N  c #D08854",
"B  c #D08A56",
"V  c #D08A57",
"C  c #D08C50",
"Z  c #D28C59",
"A  c #D38D5C",
"S  c #D6905F",
"D  c #D7955D",
"F  c #D9925E",
"G  c #C28D67",
"H  c #C38D68",
"J  c #C38D69",
"K  c #C38F68",
"L  c #CA8866",
"P  c #C8936B",
"I  c #CA9F7F",
"U  c #D49262",
"Y  c #D4986C",
"T  c #DB976E",
"R  c #DE9865",
"E  c #D89B76",
"W  c #DD9F71",
"Q  c #DBA47B",
"!  c #DFA27B",
"~  c #DDA47A",
"^  c #DDA57F",
"/  c #E08744",
"(  c #ED8C5E",
")  c #E59451",
"_  c #E2976D",
"`  c #E19A67",
"'  c #E59963",
"]  c #E09C6A",
"[  c #E19D6C",
"{  c #E19F6F",
"}  c #E79F6B",
"|  c #EBA36E",
" . c #E4A170",
".. c #E5A576",
"X. c #E7A879",
"o. c #EEA375",
"O. c #EEA671",
"+. c #EEAA77",
"@. c #ECAC7D",
"#. c #F3AA75",
"$. c #F3AB76",
"%. c #F8A570",
"&. c #FFA77F",
"*. c #FAAE77",
"=. c #948D87",
"-. c #9F8E81",
";. c #A8998F",
":. c #B39782",
">. c #B5A090",
",. c #CEA688",
"<. c #C4AC99",
"1. c #CCAA92",
"2. c #D2A787",
"3. c #DCAC89",
"4. c #D9BAA2",
"5. c #E7AD8A",
"6. c #E9AE83",
"7. c #EEB082",
"8. c #F1A98C",
"9. c #F2B386",
"0. c #F3B88D",
"q. c #F9B380",
"w. c #F9B887",
"e. c #FABC8C",
"r. c #FBBC8E",
"t. c #FCBA8D",
"y. c #F4BD94",
"u. c #F5BD98",
"i. c #F3C099",
"p. c #F4C09A",
"a. c #F6C199",
"s. c #FDC296",
"d. c #FFC69D",
"f. c #FFC79E",
"g. c #E7C1A6",
"h. c #E8C4A8",
"j. c #EAC5A9",
"k. c #EEC9AE",
"l. c #F1C3A1",
"z. c #F2C9AB",
"x. c #FFC8A2",
"c. c #FCCAA4",
"v. c #FECFAC",
"b. c #F4CFB5",
"n. c #FFD0A8",
"m. c #FDD0AE",
"M. c #FFD6A9",
"N. c #FFD6AD",
"B. c #FFD3B1",
"V. c #FDD5B7",
"C. c #FED5B6",
"Z. c #FFD5B6",
"A. c #FFD6B6",
"S. c #FDD5B8",
"D. c #FDD7BB",
"F. c #FED6B8",
"G. c #FED6BB",
"H. c #FFDAB1",
"J. c #FED8B7",
"K. c #FFD8BA",
"L. c #FFE0BD",
"P. c #FEDAC0",
"I. c #FFDEC1",
"U. c #FFDFC2",
"Y. c #FFE0C3",
"T. c #FFE4C9",
"R. c None",
/* pixels */
"R.R.o c P K J G J b & R.R.R.R.R.",
"R.R.2 N.T.Y.Y.U.U.H.p R.R.R.R.R.",
"R.R.< x.V.b.k.j.g.u.u R.R.R.R.R.",
"R.R.< &.8.Q ! ^ E _ h t y X R.R.",
"R.R., t.5.T d.K.V.V.K.L.M.0 R.R.",
"R.R.> *.) D m.P.K.V.V.V.n.r R.R.",
"R.R.> %./ C c.V.N.m.z.j.f.0 R.R.",
"R.R.; $.U M u.4.<.;.=.>.s.0 R.R.",
"R.R.; o.L k y.l.1.z x p.r.8 R.R.",
"R.R.= ( l j 0.a.:.,.x 2.e.8 R.R.",
"R.R.- | v f 9.3.,.e.a n q.7 R.R.",
"R.R.+ g s d @.6.@.! i m $.6 R.R.",
"R.R.  .   e $.X...W Y  .} 3 R.R.",
"R.R.R.R.R.8 O. .[ [ R R ' 5 R.R.",
"R.R.R.R.R.: F U A Z V N N * R.R.",
"R.R.R.R.R.  + % # # # # O   R.R."
};
