/* XPM */
static char *kmines-16[] = {
/* columns rows colors chars-per-pixel */
"16 16 119 2",
"   c black",
".  c #130000",
"X  c #1B0900",
"o  c #181818",
"O  c #221100",
"+  c #380800",
"@  c #3C0B00",
"#  c #321703",
"$  c #331805",
"%  c #381605",
"&  c gray14",
"*  c gray19",
"=  c gray20",
"-  c #343434",
";  c #393636",
":  c gray22",
">  c #3A3A3A",
",  c #3C3C3C",
"<  c #413F3F",
"1  c #680200",
"2  c #790300",
"3  c #7C1D00",
"4  c #763114",
"5  c #643529",
"6  c #414141",
"7  c #424040",
"8  c #434343",
"9  c #4B4B4B",
"0  c gray31",
"q  c #555858",
"w  c #585858",
"e  c gray36",
"r  c #5E6165",
"t  c #5E6266",
"y  c #626265",
"u  c #636565",
"i  c #656565",
"p  c #6F6F70",
"a  c gray46",
"s  c #767879",
"d  c #77797A",
"f  c #787979",
"g  c #787A7B",
"h  c #7B7C7C",
"j  c #7D7E7F",
"k  c #7E8081",
"l  c #7F8081",
"z  c #880000",
"x  c #8A1D06",
"c  c #930C00",
"v  c #901F06",
"b  c #8F2008",
"n  c #97390F",
"m  c #A20D00",
"M  c #A61C07",
"N  c #BC0300",
"B  c #C83200",
"V  c #CF3400",
"C  c #CD3C00",
"Z  c #D42409",
"A  c #F34903",
"S  c #F24804",
"D  c #F65F1B",
"F  c #E7701F",
"G  c #838383",
"H  c #848484",
"J  c #878686",
"K  c #88898C",
"L  c #8E8E8E",
"P  c #909090",
"I  c gray58",
"U  c #979797",
"Y  c #999797",
"T  c gray60",
"R  c #9B9B9B",
"E  c #9D9D9D",
"W  c #A0A0A0",
"Q  c gray63",
"!  c #A4A3A3",
"~  c #A7A7A7",
"^  c gray66",
"/  c gray67",
"(  c #B1B0B0",
")  c #B6B6B6",
"_  c gray73",
"`  c #BBBBBB",
"'  c #BBBBBC",
"]  c #BCBDBE",
"[  c #C2C1C2",
"{  c #C3C4C5",
"}  c gray77",
"|  c #C5C6C7",
" . c #C7C9C9",
".. c #C8C8C8",
"X. c gray79",
"o. c #CACACA",
"O. c #CDCDCD",
"+. c #CDCECF",
"@. c #CFCDCF",
"#. c #D0D0D0",
"$. c #D1D4D4",
"%. c #D5D5D5",
"&. c #D7D8D9",
"*. c #D9D8D9",
"=. c #E3E2E3",
"-. c #E4E4E4",
";. c #E6E5E5",
":. c #E7E4E7",
">. c #E7E7E7",
",. c #E9E7E9",
"<. c gray92",
"1. c #EEEDEE",
"2. c #EEEEEE",
"3. c #F0EEF0",
"4. c #F0EFF0",
"5. c #F4F3F4",
"6. c gray96",
"7. c gray100",
"8. c None",
/* pixels */
"8.8.8.8.8.8.8.8.. @ 4 5 8.8.8.8.",
"8.8.8.O % X + 2 c B A b   8.8.8.",
"8.8.8.# F D Z N m V S x   8.8.8.",
"8.8.8.8.$ n M z 1 3 C v   8.8.8.",
"8.8.8.8.8.    ; <   2.r 8.8.8.8.",
"8.8.8.8.8.  q $. .u 2.r 8.8.8.8.",
"8.8.8.8.: h 2.<.:.@.4.y 8.8.8.8.",
"8.8.  w -.} k %.X.k 4.P i   8.8.",
"8.  Y 4.4.X.) d k O.4.L #.E   8.",
"8.8 -.*.W ^ g ^ g I [ G R O.8 8.",
"8., Y ( / d X.} } j p X.U W = 8.",
"8.  8 H d @.<.4.5.&.K g H w   8.",
"8.8.  o 0 Y =.7.7.:.` g &   8.8.",
"8.8.8.    e ! -.6._ a     8.8.8.",
"8.8.8.8.8.  : _ ] 9   8.8.8.8.8.",
"8.8.8.8.8.8.  = -   8.8.8.8.8.8."
};
