/* XPM */
static char *knetwalk[] = {
/* columns rows colors chars-per-pixel */
"32 32 70 1",
"  c #000000",
". c gray4",
"X c #131313",
"o c #191919",
"O c #242424",
"+ c #2F2F2F",
"@ c gray19",
"# c #33333B",
"$ c #3A3A3A",
"% c #343442",
"& c #35354D",
"* c #383846",
"= c #38384A",
"- c #343454",
"; c #34345B",
": c #2F2F6E",
"> c #2E2E74",
", c #2C2C7C",
"< c #333363",
"1 c #32326B",
"2 c #323273",
"3 c #31317B",
"4 c #434353",
"5 c #5C5C60",
"6 c #64645D",
"7 c #767676",
"8 c #2D2D85",
"9 c #2E2E8B",
"0 c #25259D",
"q c #2D2D93",
"w c #2C2C9B",
"e c #303083",
"r c #2727A2",
"t c #2626AA",
"y c #2B2BA3",
"u c #2A2AAB",
"i c #2525B4",
"p c #2525BB",
"a c #2929B3",
"s c #2828BA",
"d c #2525C4",
"f c #2626CA",
"g c #2828C1",
"h c #2525D2",
"j c #2525D9",
"k c #7E7EB3",
"l c #7B7BCC",
"z c #7F7FD1",
"x c #10DE10",
"c c #7FED7F",
"v c #848467",
"b c #95956A",
"n c #A2A269",
"m c #888888",
"M c gray62",
"N c #8181BB",
"B c gray65",
"V c #BEBEBE",
"C c #8181C3",
"Z c #8080CB",
"A c #87EF87",
"S c #BFF6BF",
"D c #FFFF80",
"F c #C2C2C2",
"G c #CECECE",
"H c #DADADA",
"J c #EEEEEE",
"K c #F4F4F4",
"L c #FEFEFE",
"P c None",
/* pixels */
"PPPPPPPPPPPPPPPPPPPPPPPPPPPPPPPP",
"  XXXXXXXXXXXXXXXXXXXXXXXXXXXX  ",
" @LLLLLLLLLLLLLLLLLLLLLLLLLLLL@ ",
" @LLJJJJJJJJJJJJJJJJJJJJJJJJLL@ ",
" @LJ#%%&=-;;<<11>>,8889qq0r0JL@ ",
" @LJ#*=&=;;<<12233399qwwyuutJL@ ",
" @LJ#*4n4;;<<12233e9qqwwyuutJL@ ",
" @LJ%=nDb;<<112238e99qwwyuutJL@ ",
" @LJ%-6v5;;112233ee9qqwwyuatJL@ ",
" @LJ&--;;;<112233e99qqwyyuatJL@ ",
" @LJ-;;;;<111233ee99qwwyyuatJL@ ",
" @LJ;;<<1112223ee99qqwyyuuatJL@ ",
" @LJ;<11112233eee99qwwyyuastJL@ ",
" @LJ<111222333e99qqqwyyuuasiJL@ ",
" @LJ:2222333eee9qqqwwyuuaasiJL@ ",
" @LJ:>23333eee99qqqyyuuaassiJL@ ",
" @LJ>3333eee99qqqwyyyuaassgsJL@ ",
" @LJ,ee89e99qqqwywyyuuassgfsJL@ ",
" @LJ88899qqqqqwwyyyuaaasggfsJL@ ",
" @LJ8qqqqqqwwwwyyyuaassggffgJL@ ",
" @LJ9qqqqqwyyyyuaaaassggffhfJL@ ",
" @LJ9wwywyyyyuuuaaasggfffhhfJL@ ",
" @LJqwyyyyyuauaiaasggfffhhjhJL@ ",
" @LKNNNNNNNNNNNkCCCCCCZZzlzlKL@ ",
" @LLLLLLLLHVJLGVLKVGLLLLScSLLL@ ",
" @LLLLLLLLVmHLMmKJmBLLLLAxALLL@ ",
" OGGGGGGFFFFFFFFFFFFFFFGGGGGGGO ",
" XoooooXo$$$$$$$$$$$$$+oooooooX ",
"PPPPPPP 7LLLLLLLLLLLLLGOPPPPPPPP",
"PPPPP   X+++++++++++++O.   PPPPP",
"PPPPP                      PPPPP",
"PPPPPPPPPPPPPPPPPPPPPPPPPPPPPPPP"
};
