/* XPM */
static char *kolf[] = {
/* columns rows colors chars-per-pixel */
"32 32 99 2",
"   c #000000",
".  c #0C0C0C",
"X  c #0F1010",
"o  c #111212",
"O  c #121B1B",
"+  c #1B1C1C",
"@  c #1F2020",
"#  c #222424",
"$  c #262630",
"%  c #2D2D30",
"&  c #313234",
"*  c #343438",
"=  c #3B3B3F",
"-  c #2C3144",
";  c #31364B",
":  c #34384D",
">  c #3E3E44",
",  c #434343",
"<  c #4B4B4B",
"1  c #45495D",
"2  c #4C4C54",
"3  c #555555",
"4  c #4B4F63",
"5  c #4D5163",
"6  c #55596C",
"7  c #5A5F74",
"8  c #63636E",
"9  c #606578",
"0  c #67697A",
"q  c #747474",
"w  c #707078",
"e  c gray50",
"r  c #757A8A",
"t  c #7A7E8B",
"y  c #7D8393",
"u  c #858585",
"i  c #88888C",
"p  c #808497",
"a  c #858A9A",
"s  c #888C9B",
"d  c #8E9297",
"f  c #8C919D",
"g  c #97979D",
"h  c gray60",
"j  c #8D91A1",
"k  c #9093A0",
"l  c #9498A5",
"z  c #9499A9",
"x  c #9C9FAF",
"c  c #9CA0AB",
"v  c #9DA2B1",
"b  c #A1A3A9",
"n  c #AAAAAA",
"m  c #A1A4B2",
"M  c #A5A8B5",
"N  c #A7ABB8",
"B  c #A8AAB6",
"V  c #AAADBA",
"C  c #ADB0BD",
"Z  c #B6B6B6",
"A  c gray75",
"S  c #B1B4C1",
"D  c #B5B8C5",
"F  c #B8BBC4",
"G  c #BCBEC9",
"H  c #BFC1C7",
"J  c #BEC0CB",
"K  c #C0C3CD",
"L  c gray80",
"P  c #C3C5D1",
"I  c #C5C8D3",
"U  c #C9CBD4",
"Y  c #CCCDD8",
"T  c #CED0DB",
"R  c gray83",
"E  c #D2D4DD",
"W  c gainsboro",
"Q  c #D7D7EB",
"!  c #D6D9E1",
"~  c #DADCE4",
"^  c #DBDCEB",
"/  c #D0E7E7",
"(  c #D4E9E9",
")  c #DCE0E5",
"_  c #DEE1E9",
"`  c #DDEEEE",
"'  c #E4E4E4",
"]  c #E3E5EC",
"[  c #E4EAED",
"{  c #E9EAEE",
"}  c #E4E4F1",
"|  c #E5EAF1",
" . c #EAEBF2",
".. c #EEF0F5",
"X. c #F0F2F6",
"o. c #F3F5F8",
"O. c #F6F8FB",
"+. c #F8F9FA",
"@. c None",
/* pixels */
"@.@.@.@.@.  n R ( } ] ~ g t s f l b !  .|  .| / A e @.@.@.@.@.@.",
"@.@.@.@.e L (  . .Y p F { O.+.+.+.{ ~ b H  . .` ' A   @.@.@.@.@.",
"@.@.@.e A ( ] | s J O.O.O.O.o.+.O.o.O.O.] x R |  .) e @.@.@.@.@.",
"@.@.@.n ' [  .z { O.O.O.o.o.o.o.o.o.o.o.+.+.B K | [ A   @.@.@.@.",
"@.@.  W |  .k ] X.O.O.O.o.o.o.X.o.o.o.o.o. .{ l ]  .W u @.@.@.@.",
"@.@.e ' ] b U  .O.O.o.o.o.X.o.o.O. .X.o.O.O.{ ~ 0 [ ' n @.@.@.@.",
"@.  n ^ | f { X.O.X.o.X.X.X.X.X.o.X.o.o.o.o.{ ) M d ( n   @.@.@.",
"@.  n ^ i F ' { o.o.X.X.X.X.X.X. .O.X.o.o. . .E ! 1 ^ L   @.@.@.",
"@.  n Q 5 ~ ]  .+.o.o.o.....X.X.o.X.o.O.O.o. .] ) r } R   @.@.@.",
"@.@.e / 4 ~ [ | O.o.o.X.X.X.X.o...o.o.X. ... .E ~ c w R   @.@.@.",
"@.@.e ' 7 ~ ! [ {  . . .X.......o. . .X.o.W ! ! E V 3 W e @.@.@.",
"@.@.e ' 5 ~ ~ ) ~ _ [  . . .X.] | |  ._ ! E E Y E m 2 R   @.@.@.",
"@.@.e R : E T _ E ! ] ! ] ! ! ~ | E ! E ! Y E I I y 3 L   @.@.@.",
"@.@.e R @ D J J _ Y E E Y ^ ] Y ! E ! T ! G G P K 6 u A   @.@.@.",
"@.@.  L & z P P I P Y E | I E Y E E ! J G G G G S $ ' n   @.@.@.",
"@.@.  A 8 : J I ! G E G G I U ! ! D J K G D D S r > R e @.@.@.@.",
"@.@.@.e W * y D S D G U I P G V S P J S S V C M # u A   @.@.@.@.",
"@.@.@.  A q # x G S D S S S D D S C V S V M V ; > R t @.@.@.@.@.",
"@.@.@.@.e R < # s D V S N C V S V V m M V v ; * h n   @.@.@.@.@.",
"@.@.@.@.  e Z < # 1 j v m B v M m N V v 9 # % q n   @.@.@.@.@.@.",
"@.@.@.@.@.  n Z 2 * + - 9 a j j s r 1 + % , e n   @.@.@.@.@.@.@.",
"@.@.@.@.@.@.  e A R o . . . o o X X . o A A e   @.@.@.@.@.@.@.@.",
"@.@.@.@.@.@.@.@.  u O   .   . . . .   o e   @.@.@.@.@.@.@.@.@.@.",
"@.@.@.@.@.@.@.@.@.@.                      @.@.@.@.@.@.@.@.@.@.@.",
"@.@.@.@.@.@.@.@.@.@.@.                @.@.@.@.@.@.@.@.@.@.@.@.@.",
"@.@.@.@.@.@.@.@.@.@.@.@.              @.@.@.@.@.@.@.@.@.@.@.@.@.",
"@.@.@.@.@.@.@.@.@.@.@.@.            @.@.@.@.@.@.@.@.@.@.@.@.@.@.",
"@.@.@.@.@.@.@.@.@.@.@.@.            @.@.@.@.@.@.@.@.@.@.@.@.@.@.",
"@.@.@.@.@.@.@.@.@.@.@.@.            @.@.@.@.@.@.@.@.@.@.@.@.@.@.",
"@.@.@.@.@.@.@.@.@.@.@.@.            @.@.@.@.@.@.@.@.@.@.@.@.@.@.",
"@.@.@.@.@.@.@.@.@.@.@.@.            @.@.@.@.@.@.@.@.@.@.@.@.@.@.",
"@.@.@.@.@.@.@.@.@.@.@.@.            @.@.@.@.@.@.@.@.@.@.@.@.@.@."
};
