/* XPM */
static char *kolf-16[] = {
/* columns rows colors chars-per-pixel */
"16 16 113 2",
"   c black",
".  c gray3",
"X  c #131313",
"o  c gray16",
"O  c gray19",
"+  c #313133",
"@  c #373737",
"#  c gray24",
"$  c #3E3E3E",
"%  c gray28",
"&  c #484848",
"*  c #494949",
"=  c #4E4E4E",
"-  c #505052",
";  c gray35",
":  c #606060",
">  c gray40",
",  c #656569",
"<  c gray42",
"1  c #6E6E71",
"2  c gray50",
"3  c blue",
"4  c #7F7FFF",
"5  c #8D8D8E",
"6  c #939393",
"7  c #939494",
"8  c gray58",
"9  c gray59",
"0  c #9E9EA2",
"q  c #A7A7A7",
"w  c #A6A6AB",
"e  c #A6A8A8",
"r  c #ACACAC",
"t  c #AEAEAE",
"y  c #AEAFAF",
"u  c #B2B2B2",
"i  c gray70",
"p  c #B6B6B6",
"a  c #B7B7B7",
"s  c gray72",
"d  c #B9B9B9",
"f  c #B9BBBC",
"g  c #BCBCBC",
"h  c gray",
"j  c gray75",
"k  c #C0C0C0",
"l  c gray76",
"z  c #C3C3C4",
"x  c gray78",
"c  c #C7CECE",
"v  c gray79",
"b  c #CACACA",
"n  c #CBCBCB",
"m  c gray80",
"M  c #CDCDCE",
"N  c #CECECE",
"B  c gray81",
"V  c gray82",
"C  c LightGray",
"Z  c #D2D3D4",
"A  c #D3D3D4",
"S  c gray83",
"D  c #D5D7D7",
"F  c #D6D6D7",
"G  c #D7D7D8",
"H  c #D8D8D9",
"J  c #DADADA",
"K  c #DADADC",
"L  c #DBDCDC",
"P  c #DCDCDD",
"I  c #DCDDDD",
"U  c #DDDEDF",
"Y  c #DFDFDF",
"T  c #DFDFE0",
"R  c #E1E1E1",
"E  c #E2E2E2",
"W  c #E2E3E4",
"Q  c gray90",
"!  c #E6E6E6",
"~  c gray92",
"^  c #EBEBEC",
"/  c gray93",
"(  c #EDEDEE",
")  c #EEEEEE",
"_  c #EDEDF0",
"`  c #EEEFF0",
"'  c #E2F0F0",
"]  c #F0F0F1",
"[  c #F1F1F2",
"{  c gray95",
"}  c #F3F3F4",
"|  c #F3F4F5",
" . c #F4F4F4",
".. c #F4F5F5",
"X. c #F4F4F6",
"o. c #F5F5F6",
"O. c #F5F5F7",
"+. c #F5F6F7",
"@. c #F1F1F8",
"#. c #F7F7F8",
"$. c #F7F8F9",
"%. c #F8F9FB",
"&. c #F9F9FB",
"*. c #F9FAFA",
"=. c #FAFAFC",
"-. c #FAFBFC",
";. c #FAFBFD",
":. c #FBFBFC",
">. c #FBFBFD",
",. c #FBFCFD",
"<. c #FCFCFD",
"1. c #FDFDFE",
"2. c None",
/* pixels */
"2.2.j E X.0 t D J f w @.} U j 2.",
"2.3 j ) 5 ) 1.1.-.-.X.e c ) B 2.",
"2.3 J 1 X.1.1.$.-.1.$.$.6 ' C 2 ",
"2.4 ; j X.#.$.$.$.$.#.[ D , C 2 ",
"2.3 # B ! [ } X.#.} _ ! J > D 2 ",
"2.2.& C J E ) _ ) ) W F F < B   ",
"2.2.O l B Z J U J U Z v v - j 2.",
"2.2.  8 v x B B C c l l q o   2.",
"2.2.2.O u j g j s a d a =     2.",
"2.2.2.  @ 6 r i i t 8 &     2.2.",
"2.2.2.2.2.. # : : % X   2.2.2.2.",
"2.2.2.2.2.            2.2.2.2.2.",
"2.2.2.2.2.2.        2.2.2.2.2.2.",
"2.2.2.2.2.2.        2.2.2.2.2.2.",
"2.2.2.2.2.2.        2.2.2.2.2.2.",
"2.2.2.2.2.2.        2.2.2.2.2.2."
};
