/* XPM */
static char *konquest-16[] = {
/* columns rows colors chars-per-pixel */
"16 16 95 2",
"   c black",
".  c #000003",
"X  c #020000",
"o  c #000005",
"O  c #070600",
"+  c #03030A",
"@  c #0A0001",
"#  c #0E0000",
"$  c #0B0510",
"%  c #0D0D1F",
"&  c #050B26",
"*  c #00003F",
"=  c #0F1227",
"-  c #16192D",
";  c #121735",
":  c #151B3E",
">  c #181A35",
",  c #0E343E",
"<  c #253330",
"1  c #2E3234",
"2  c #382124",
"3  c #2F3351",
"4  c #2E345A",
"5  c #303248",
"6  c #383D62",
"7  c #386B6F",
"8  c #413E43",
"9  c #464941",
"0  c #414158",
"q  c #50505B",
"w  c #5A5F5F",
"e  c #484B71",
"r  c #535561",
"t  c #635D64",
"y  c #77685E",
"u  c #647B6D",
"i  c #697572",
"p  c #7A6862",
"a  c #727979",
"s  c #5A5E86",
"d  c #71748D",
"f  c #6F75A6",
"g  c #7D857E",
"h  c #578987",
"j  c #7F9B92",
"k  c #8C766A",
"l  c #8B907D",
"z  c #81818B",
"x  c #808A80",
"c  c #828390",
"v  c #898A96",
"b  c #8C8C97",
"n  c #8B8FB6",
"m  c #8B8FB9",
"M  c #8F93B0",
"N  c #9596AD",
"B  c #9FA6AD",
"V  c #A49F84",
"C  c #A1A482",
"Z  c #A6A09D",
"A  c #B8B99E",
"S  c #BBB7A4",
"D  c #BABAA0",
"F  c #9DA0C8",
"G  c #ADAFCE",
"H  c #B1B4CD",
"J  c #BEBCCB",
"K  c #97C1A8",
"L  c #9EEEE5",
"P  c #B9D7C2",
"I  c #A6F0D9",
"U  c #BEF6D5",
"Y  c #C7C3A6",
"T  c #C6C6AE",
"R  c #C6C7DA",
"E  c #CCD0C1",
"W  c #C8DCCE",
"Q  c #D9D2CF",
"!  c #D2DDD1",
"~  c #DADAD4",
"^  c #DCDFD4",
"/  c #D1D2E7",
"(  c #D3D4ED",
")  c #D3D9E1",
"_  c #D0D3F6",
"`  c #E4E1E4",
"'  c #E1E2ED",
"]  c #EAEBF2",
"[  c #EAFFFF",
"{  c #F4FBF3",
"}  c #F7FFFC",
"|  c #F7FFFF",
" . c #FDFFFC",
".. c gray100",
"X. c None",
/* pixels */
"X.X.X.X.X.X.X.X.X.X.X.X.X.X.X.X.",
"X.X.X.X.X.X.X.X.X.X.X.X.X.X.X.X.",
"% s e >   X.X.* X.X.X.X.X.X.X.X.",
"0 _ n 3 ; = w v h ,   X.X.X.X.X.",
"+ ( d     t W | [ L 7   X.X.X.X.",
"  r / $ 2 Z {  .| } I < X.X.X.X.",
"X.  c J k S ^  . .} U g   X.X.X.",
"X.X.  b ` Y A E ! P K i   X.X.X.",
"X.X.X.  z ] T C l g g 8 &   X.X.",
"X.X.X.    a ) ~ D C y @   :   X.",
"X.X.X.X.  # 9 B ' Q p   X.6 4   ",
"X.X.X.X.X.    O 1 b R H M m f - ",
"X.X.X.X.X.X.          q N G F 5 ",
"X.X.X.X.X.X.X.X.X.X.X.      o   ",
"X.X.X.X.X.X.X.X.X.X.X.X.X.X.X.X.",
"X.X.X.X.X.X.X.X.X.X.X.X.X.X.X.X."
};
