/* XPM */
static char *konquest[] = {
/* columns rows colors chars-per-pixel */
"32 32 233 2",
"   c #000000",
".  c #00000D",
"X  c #07090C",
"o  c #0C0000",
"O  c #0A090A",
"+  c #0C0C12",
"@  c #0F141B",
"#  c #130000",
"$  c #150805",
"%  c #120A0D",
"&  c #101012",
"*  c #16191B",
"=  c #18181B",
"-  c #141424",
";  c #141823",
":  c #1A1A24",
">  c #191C2C",
",  c #1B1F30",
"<  c #2B150F",
"1  c #261815",
"2  c #321914",
"3  c #231F22",
"4  c #231E28",
"5  c #281F24",
"6  c #2F2018",
"7  c #202421",
"8  c #26262C",
"9  c #282520",
"0  c #232434",
"q  c #24283A",
"w  c #2C2D33",
"e  c #2E312E",
"r  c #21323F",
"t  c #3C2E2C",
"y  c #302933",
"u  c #3C342B",
"i  c #34343C",
"p  c #393830",
"a  c #3A3B3F",
"s  c #272B44",
"d  c #2A2E44",
"f  c #2D3149",
"g  c #363641",
"h  c #31354B",
"j  c #363A47",
"k  c #37394E",
"l  c #3B3D4A",
"z  c #353651",
"x  c #343954",
"c  c #33395A",
"v  c #353D62",
"b  c #374039",
"n  c #3E483F",
"m  c #3F4153",
"M  c #3E415A",
"N  c #3F4566",
"B  c #41281E",
"V  c #412C33",
"C  c #42383D",
"Z  c #563D49",
"A  c #59463D",
"S  c #48484D",
"D  c #484856",
"F  c #4C5951",
"G  c #55444C",
"H  c #5A464C",
"J  c #524F5A",
"K  c #5A5C5F",
"L  c #404463",
"P  c #444C74",
"I  c #5B5D6A",
"U  c #5A5A70",
"Y  c #46646F",
"T  c #5B6A60",
"R  c #6A4945",
"E  c #695E65",
"W  c #636160",
"Q  c #626E67",
"!  c #6B696C",
"~  c #696972",
"^  c #7B6567",
"/  c #7F6862",
"(  c #796C6B",
")  c #796E76",
"_  c #70727E",
"`  c #7B7C7A",
"'  c #535981",
"]  c #4C7E8A",
"[  c #5D6184",
"{  c #5C6189",
"}  c #597E80",
"|  c #65698D",
" . c #6C6E87",
".. c #636994",
"X. c #6D729E",
"o. c #797C82",
"O. c #75799D",
"+. c #777CA0",
"@. c #7A7EA3",
"#. c #6C8784",
"$. c #738B8B",
"%. c #788381",
"&. c #7C809D",
"*. c #7C81AA",
"=. c #60A9AD",
"-. c #6EADAC",
";. c #6ABCBB",
":. c #7EDED2",
">. c #8C726A",
",. c #957D72",
"<. c #97877E",
"1. c #968876",
"2. c #828984",
"3. c #85898D",
"4. c #8C8D8A",
"5. c #87899E",
"6. c #8D948F",
"7. c #8C9791",
"8. c #8B9A91",
"9. c #968E8E",
"0. c #979186",
"q. c #93948B",
"w. c #979A89",
"e. c #95929C",
"r. c #949891",
"t. c #979F9E",
"y. c #888AA7",
"u. c #8387B1",
"i. c #8D91BC",
"p. c #9394A3",
"a. c #9599BE",
"s. c #92A198",
"d. c #9FA0B1",
"f. c #95B2A2",
"g. c #AD9E88",
"h. c #A0A28A",
"j. c #AAAC8C",
"k. c #A2A398",
"l. c #ACAC99",
"z. c #B1A88C",
"x. c #B3B591",
"c. c #B3B39A",
"v. c #BCB29F",
"b. c #BABA9A",
"n. c #A5A6B2",
"m. c #A0BDAC",
"M. c #ABB0AB",
"N. c #A7BFB0",
"B. c #B6AEA6",
"V. c #959AC2",
"C. c #999DC1",
"Z. c #A9ACCE",
"A. c #AAAED2",
"S. c #AEB0C5",
"D. c #B6BACC",
"F. c #B9B3C3",
"G. c #BCBECD",
"H. c #B3B6D8",
"J. c #B6B9D6",
"K. c #BCBED4",
"L. c #BABCDA",
"P. c #9FC5B2",
"I. c #A1CAB3",
"U. c #A8C3B2",
"Y. c #BEC0A9",
"T. c #B1C3B7",
"R. c #B6CBBB",
"E. c #8FDDD0",
"W. c #96DFC8",
"Q. c #8DE5D3",
"!. c #BBC0C3",
"~. c #BEC1DA",
"^. c #B3DDC4",
"/. c #BFC1E1",
"(. c #ADE1C2",
"). c #B1EDDB",
"_. c #B3F0CE",
"`. c #B0F7EB",
"'. c #C5BFA0",
"]. c #C5BFAD",
"[. c #C0C09F",
"{. c #C5C5AC",
"}. c #CAC8A4",
"|. c #CEC8A9",
" X c #C4C5B3",
".X c #C3C5BD",
"XX c #C4CABF",
"oX c #C8C6BF",
"OX c #CFCDB9",
"+X c #D2CFBE",
"@X c #C1CEC0",
"#X c #CECEC4",
"$X c #C1C3D6",
"%X c #C6C8D9",
"&X c #C8C8D5",
"*X c #D0D2C4",
"=X c #D6D7CE",
"-X c #D4D4DB",
";X c #DADBDB",
":X c #CBCCE2",
">X c #CED0EB",
",X c #D5D5E2",
"<X c #DDDEEA",
"1X c #D3D4F2",
"2X c #DBDCF2",
"3X c #C1E3CD",
"4X c #C7F2DD",
"5X c #C7F9DB",
"6X c #CCF0D9",
"7X c #D6EFDE",
"8X c #DFE2D6",
"9X c #DFE3DA",
"0X c #DAE9DC",
"qX c #C2FDE8",
"wX c #C3FEF2",
"eX c #DEE0F1",
"rX c #D7FFEC",
"tX c #DCFFF9",
"yX c #E4E4EB",
"uX c #E7ECE1",
"iX c #E3E5F5",
"pX c #E2E4FE",
"aX c #EDEDFD",
"sX c #E6FBEC",
"dX c #ECF2E6",
"fX c #EAF4E8",
"gX c #EFF1FF",
"hX c #ECFFF6",
"jX c #F2F3FE",
"kX c #F3FCF2",
"lX c #F4FCFF",
"zX c #FDFEFE",
"xX c None",
/* pixels */
"xXxXxXxXxXxXxXxXxXxXxXxXxXxXxXxXxXxXxXxXxXxXxXxXxXxXxXxXxXxXxXxX",
"xXxXxXxXxXxXxXxXxXxXxXxXxXxXxXxXxXxXxXxXxXxXxXxXxXxXxXxXxXxXxXxX",
"xXxXxXxXxXxXxXxXxXxXxXxXxXxXxXxXxXxXxXxXxXxXxXxXxXxXxXxXxXxXxXxX",
"xXxXxXxXxXxXxXxXxXxXxXxXxXxXxXxXxXxXxXxXxXxXxXxXxXxXxXxXxXxXxXxX",
"xXxXxXxXxXxXxXxXxXxXxXxXxXxXxXxXxXxXxXxXxXxXxXxXxXxXxXxXxXxXxXxX",
"xX@ x d d > O xXxXxXxXxXxXxXxXxXxXxXxXxXxXxXxXxXxXxXxXxXxXxXxXxX",
". +.V.V.i.@.{ L 0 X xXxXxXxXxXxXxXxXxXxXxXxXxXxXxXxXxXxXxXxXxXxX",
": a.L.2XJ.a.@.{ ' P f - S ~ %.#._ Y r   xXxXxXxXxXxXxXxXxXxXxXxX",
". y.2X2XV.' +   O ; z U 2.N.3X4X).E.;.] q xXxXxXxXxXxXxXxXxXxXxX",
"  D :XaXA.D       % G 4.U.7XkXzXlXtX`.:.=.l xXxXxXxXxXxXxXxXxXxX",
"xXX 5.gX2X .xXxX# Z ) M.0XzXzXzXzXzXlXwXQ.-.y xXxXxXxXxXxXxXxXxX",
"xX  = S.lX:Xw xXV ^ 9.@XfXzXzXzXzXzXzXlXqXW.$.o xXxXxXxXxXxXxXxX",
"xXxX  8 $XzXD.4 R <.B.oX9XzXzXzXzXzXzXzXrX_.P.a xXxXxXxXxXxXxXxX",
"xXxXxX  w %XzXF.>.g.]. X#XuXzXzXzXzXzXhX5X(.P.W   xXxXxXxXxXxXxX",
"xXxXxXxX  8 G.zX-X'.].].{.#X8XdXkXkXsX6XR.I.f.!   xXxXxXxXxXxXxX",
"xXxXxXxXxX  * n.lXyX+X}.b.]. X.XXX!.R.U.P.f.8.~ , xXxXxXxXxXxXxX",
"xXxXxXxXxXxX  O e.gXgX=X[.x.c.l.k.r.6.8.8.8.` J v s   xXxXxXxXxX",
"xXxXxXxXxXxXxX  7 ` <XlXyX Xx.j.h.w.q.w.4.` E 9 X c x . xXxXxXxX",
"xXxXxXxXxXxXxX  % e Q !.gXjX;X{.b.b.c.l.0.^ H O   @ v c   xXxXxX",
"xXxXxXxXxXxXxXxX  1 p F 7.-XjXaX;X+X'.z.1.>.t   xX  h P L   xXxX",
"xXxXxXxXxXxXxXxX  o 2 u n T r.;XjXaX-XB.,.A   xXxXxXk ..' M xXxX",
"xXxXxXxXxXxXxXxXxX  o < t p b F 3.&XgXjX,Xp.I g 0 j +.u.{ X.0 xX",
"xXxXxXxXxXxXxXxXxXxX    $ < 6 6 6 e I n.iXlXaX1XL.H.Z.a.*.*.|   ",
"xXxXxXxXxXxXxXxXxXxXxX      .           w o.G.2XpX1X:XA.C.a.i.: ",
"xXxXxXxXxXxXxXxXxXxXxXxXxX                  O a _ n.K.~.J.Z.&.+ ",
"xXxXxXxXxXxXxXxXxXxXxXxXxXxXxXxXxXxXxXxXxXxX        + w i w O   ",
"xXxXxXxXxXxXxXxXxXxXxXxXxXxXxXxXxXxXxXxXxXxXxXxXxX              ",
"xXxXxXxXxXxXxXxXxXxXxXxXxXxXxXxXxXxXxXxXxXxXxXxXxXxXxXxXxXxXxXxX",
"xXxXxXxXxXxXxXxXxXxXxXxXxXxXxXxXxXxXxXxXxXxXxXxXxXxXxXxXxXxXxXxX",
"xXxXxXxXxXxXxXxXxXxXxXxXxXxXxXxXxXxXxXxXxXxXxXxXxXxXxXxXxXxXxXxX",
"xXxXxXxXxXxXxXxXxXxXxXxXxXxXxXxXxXxXxXxXxXxXxXxXxXxXxXxXxXxXxXxX",
"xXxXxXxXxXxXxXxXxXxXxXxXxXxXxXxXxXxXxXxXxXxXxXxXxXxXxXxXxXxXxXxX"
};
