/* XPM */
static char *kpat[] = {
/* columns rows colors chars-per-pixel */
"32 32 220 2",
"   c black",
".  c #1A1A1D",
"X  c #101125",
"o  c #1D1D21",
"O  c #1E1F32",
"+  c gray14",
"@  c #393227",
"#  c #353546",
"$  c #6A3C46",
"%  c #46464A",
"&  c #4C4C4F",
"*  c #4D4D53",
"=  c #4B4C5B",
"-  c #505156",
";  c #525358",
":  c #5D5E62",
">  c #595A68",
",  c #5E6062",
"<  c #5E6370",
"1  c #6B5C6E",
"2  c #6B7C5A",
"3  c #606063",
"4  c #63646B",
"5  c #69696F",
"6  c #6C6C74",
"7  c #717176",
"8  c #74747A",
"9  c #77787C",
"0  c #233C94",
"q  c #1C52AE",
"w  c #1952BA",
"e  c #124AC1",
"r  c #6E3E84",
"t  c #5F708F",
"y  c #5579AF",
"u  c #577CB8",
"i  c #757582",
"p  c #7D7D82",
"a  c #7C7E88",
"s  c #5B7EC2",
"d  c #7D8085",
"f  c #7C8598",
"g  c #6280CD",
"h  c #6B8DC7",
"j  c #6387D3",
"k  c #6E8CD2",
"l  c #708FD2",
"z  c #7090D7",
"x  c #7F9EDD",
"c  c #B63944",
"v  c #CB4245",
"b  c #CD446F",
"n  c #D74E6C",
"m  c #D85F73",
"M  c #E55665",
"N  c #F05B6A",
"B  c #FC5A69",
"V  c #EF6E6A",
"C  c #E56875",
"Z  c #EC7474",
"A  c #813780",
"S  c #9C4894",
"D  c #905486",
"F  c #807E87",
"G  c #937FA0",
"H  c #A65D8A",
"J  c #E67984",
"K  c #938E68",
"L  c #BC9D74",
"P  c #ABA076",
"I  c #B2D03C",
"U  c #CD8F57",
"Y  c #E69075",
"T  c #FC917A",
"R  c #F6BB69",
"E  c #C1C71B",
"W  c #C3C626",
"Q  c #C3CC25",
"!  c #C5CD2B",
"~  c #CAC528",
"^  c #D3D223",
"/  c #DAD13A",
"(  c #FFDA0E",
")  c #EAE52F",
"_  c #E0F220",
"`  c #FFE833",
"'  c #D7DD42",
"]  c #D5DC49",
"[  c #DED543",
"{  c #CFD76F",
"}  c #D9CC61",
"|  c #818286",
" . c #83848A",
".. c #858A8D",
"X. c #898A8D",
"o. c #8C8D93",
"O. c #8E8F98",
"+. c #8F9194",
"@. c #8F909A",
"#. c #909792",
"$. c #93949A",
"%. c #97989D",
"&. c #99999E",
"*. c #888CA6",
"=. c #9B9BA1",
"-. c #909BBB",
";. c #BB8E98",
":. c #A1A1A6",
">. c #A3A4AA",
",. c #AAAAAF",
"<. c #A7A2B3",
"1. c #ACACB3",
"2. c #B4A3B4",
"3. c #B0B2B5",
"4. c #B4B5BC",
"5. c #B6B8BE",
"6. c #BBBDBC",
"7. c #999AC7",
"8. c #87A1DC",
"9. c #9DA1CC",
"0. c #9CABCF",
"q. c #98AEDC",
"w. c #8AA6E3",
"e. c #93AAE6",
"r. c #9BB4EA",
"t. c #A1A3D1",
"y. c #A9ABD9",
"u. c #A0BBCF",
"i. c #B3BAC3",
"p. c #BBBCC2",
"a. c #BEBEC8",
"s. c #A3B7EB",
"d. c #ADBDE5",
"f. c #BCBEE0",
"g. c #B0C19D",
"h. c #BDC3AB",
"j. c #BDCBA3",
"k. c #BCC9AD",
"l. c #BDC5C5",
"z. c #BCC4CC",
"x. c #ADC1EB",
"c. c #BCC9E5",
"v. c #BBC9EB",
"b. c #C88489",
"n. c #C98D82",
"m. c #CC9A9A",
"M. c #DC8293",
"N. c #C8AEA1",
"B. c #C4AEBA",
"V. c #CBB1AC",
"C. c #C5B4BB",
"Z. c #C5BEBE",
"A. c #D3A5AD",
"S. c #E28D8E",
"D. c #EC8F99",
"F. c #FF939C",
"G. c #E09CA0",
"H. c #EF93A0",
"J. c #F89CA5",
"K. c #EFA38C",
"L. c #EBA8AF",
"P. c #E3A7B7",
"I. c #FFB3A3",
"U. c #C4B8CC",
"Y. c #C2B7DC",
"T. c #DAA7C5",
"R. c #EBB4C4",
"E. c #EFB8C0",
"W. c #C0CEAB",
"Q. c #C1C3C4",
"!. c #C3C4CA",
"~. c #C5C8CC",
"^. c #C8C8CD",
"/. c #C6CFD3",
"(. c #CBCCD1",
"). c #C6D2C1",
"_. c #CCD2D4",
"`. c #D2D1D4",
"'. c #D4D4D9",
"]. c #D6DDD2",
"[. c #DAD9DB",
"{. c #CDD6EE",
"}. c #C2D2F4",
"|. c #CBD5F3",
" X c #CFDBF7",
".X c #D2D9EB",
"XX c #D9D3EF",
"oX c #DBDCE2",
"OX c #D0DAF1",
"+X c #DEE0E9",
"@X c #D7E1F7",
"#X c #DEE3F9",
"$X c #DFE9FA",
"%X c #E0C5C9",
"&X c #EFC2C8",
"*X c #EBC8DD",
"=X c #E4DBDE",
"-X c #FCD2D6",
";X c #FBD6DA",
":X c #FDDFE3",
">X c #E3E3E5",
",X c #E7E7EA",
"<X c #ECE6E8",
"1X c #EAEAED",
"2X c #E1E7F8",
"3X c #E5EAF4",
"4X c #E5E9F9",
"5X c #EDEEF1",
"6X c #EFF2F7",
"7X c #EBF4FB",
"8X c #F1E3E5",
"9X c #F1EAED",
"0X c #F9E9ED",
"qX c #F0EFF3",
"wX c #F2F2F3",
"eX c #F5F6F8",
"rX c #F3F9FC",
"tX c #FBF4F6",
"yX c #FDFDFE",
"uX c None",
/* pixels */
"uXuXuXuXuXuX+ : < , , , 3 3 , 7 X.X.X.X.X.X.X.o.#.* uXuXuXuXuXuX",
"uXuXuXuXuXuX| yX;XyXyXyXyXyXyXyXyXyXyXyXyXyXyXyXyX,.  uXuXuXuXuX",
"uXuXuXuXuX  X.:XC <X1X1X1XwXwXwXwXwXwXeXeXeXyXyXyX>.  uXuXuXuXuX",
"uXuXuXuXuX  ..-XJ C.l.!.~.~.^.^.`.(.(.`.`.(.`.[.[.:.  uXuXuXuXuX",
"uXuXuXuXuX  | 9XL.=X1X1X1X1XwX5XqXwXwXwXwXqX,XwXeX:.  uXuXuXuXuX",
"uXuXuXuXuX   .0XM &XrXwXwXwXwXwXwX1XqX5XqX1X1X1XyX:.  uXuXuXuXuX",
"uXuXuXuXuX  p tXD.A.~.!.~.p.i.U.!.!.!.!.!.Q.3.[.wX:.  uXuXuXuXuX",
"uXuXuXuXuX  d 0XN ;.'.%X%X(.y.7.7.t.y.!.[.`.5.<XeX:.  uXuXuXuXuX",
"uXuXuXuXuX  F 1XC.=XwX8X<XwX5X1X,X1X1X5XwX9X1X^.[.=.  uXuXuXuXuX",
"uXuXuXuXuX   .wX< [.eXwXwXwXwXwXwXwXwX6X5XwX9X,XyX=.  uXuXuXuXuX",
"uXuXuXuXuX   .1X..1.^.(.(.p.6.p.i.3.3.5.Q.6.1.1XeX&.  uXuXuXuXuX",
"uXuXuXuXuX   .oX< ,.5.:.1.l.! ] { ' ! i.oX'.p.1XyX&.  uXuXuXuXuX",
"uXuXuXuXuX  p yX1X(.6 X # oXg.j.).k.k.4X3X>X!.1XyX&.  uXuXuXuXuX",
"uXuXuXuXuX  p yXyX(.'.a 1.2Xe.s.4X#X|.3X3X>XQ.wXyX=.  uXuXuXuXuX",
"uXuXuXuXuX  9 yXeX^.qXyXyX.Xl v. Xd.l d.6X,X!.wXyX&.  uXuXuXuXuX",
"uXuXuXuXuX  9 yXyX^.1XyX3X8.x h g w r R.rX,X~.wXyX&.  uXuXuXuXuX",
"uXuXuXuXuX  8 yXyX^.1XR.9X4XXXG E W T *XrX5X~.wXyX&.  uXuXuXuXuX",
"uXuXuXuXuX  7 yXyX/.E.B m.N.G.H _ ( Z K h.5X(.eXyX&.  uXuXuXuXuX",
"uXuXuXuXuX  7 yXyX(.P.n n.K.L b P L v *.u.5X(.eXyX$.  uXuXuXuXuX",
"uXuXuXuXuX  7 yXyX`.0.q.1 c R U S G Y M.T.wX(.yXyX$.  uXuXuXuXuX",
"uXuXuXuXuX  7 yXyX'.#.2 @ H.` I 1 J N.V F.rX(.yXyX$.  uXuXuXuXuX",
"uXuXuXuXuX  7 yXyX[.-.t $ I.) I 0 Y.eXJ.-XwX`.yXyX$.  uXuXuXuXuX",
"uXuXuXuXuX  5 yXyX`.c.9.m D q g s e z eXyXeX`.yXyXO.  uXuXuXuXuX",
"uXuXuXuXuX  5 yXyX`.c.}.z.g 8. XXXj v.yXeXeX'.yXyXO.  uXuXuXuXuX",
"uXuXuXuXuX  6 yXyX`.c.x.wX}.v.$Xx.r.4X=.> `.[.yXyXO.  uXuXuXuXuX",
"uXuXuXuXuX  5 yXyX`.c.x.rXZ.2.U.B.<.6X= O O.>XeXyXo.  uXuXuXuXuX",
"uXuXuXuXuX  4 yXyX^.oX{._.W / } [ ^ ].oX'.oX(.i 4.F   uXuXuXuXuX",
"uXuXuXuXuX  4 eXyX>X`.[.~.Q.~.~.z.l.~.[.[.'.oX=.Q.7   uXuXuXuXuX",
"uXuXuXuXuX  4 eXyXyXyXyXyXyXyXyXyXyXyXyXyXyXyXO.1.9   uXuXuXuXuX",
"uXuXuXuXuX  : 1XyXeXeXeXeXeXeXwXwXwXwXwXwXwXwX!.(.4   uXuXuXuXuX",
"uXuXuXuXuX  o - ; - ; - - * * * * * * * * * * * % .   uXuXuXuXuX",
"uXuXuXuXuX                                            uXuXuXuXuX"
};
