/* XPM */
static char *kpoker-16[] = {
/* columns rows colors chars-per-pixel */
"16 16 128 2",
"   c black",
".  c gray1",
"X  c gray2",
"o  c #00000D",
"O  c gray3",
"+  c #0C0C0C",
"@  c #111111",
"#  c #111313",
"$  c #1E1E1E",
"%  c #1E1F1F",
"&  c #031224",
"*  c #232323",
"=  c #272523",
"-  c gray17",
";  c gray21",
":  c #3F3F3F",
">  c #0C1E42",
",  c #142845",
"<  c #142E55",
"1  c #102A5A",
"2  c #164170",
"3  c #225B7C",
"4  c #494242",
"5  c #4A4441",
"6  c #4B4B4B",
"7  c gray30",
"8  c #505050",
"9  c gray36",
"0  c #5D5D5D",
"q  c gray37",
"w  c #605856",
"e  c #645B58",
"r  c gray38",
"t  c gray40",
"y  c DimGray",
"u  c #6D6D6D",
"i  c #766F6F",
"p  c #786161",
"a  c #727272",
"s  c gray45",
"d  c #767676",
"f  c gray50",
"g  c #0C478E",
"h  c #1362B1",
"j  c #245C96",
"k  c #2C5390",
"l  c #3F71C3",
"z  c #3D84A6",
"x  c #2083CC",
"c  c #24A5F2",
"v  c #26BCFB",
"b  c #30BCFF",
"n  c #3AC8FF",
"m  c #3BCFFF",
"M  c #3CCDFF",
"N  c #34E0FF",
"B  c #39E6FF",
"V  c #4E92AA",
"C  c #469BEE",
"Z  c #59B7FE",
"A  c #59B9FF",
"S  c #55E6FF",
"D  c #DC0A0A",
"F  c #E55858",
"G  c #E85C5C",
"H  c #E87979",
"J  c gray52",
"K  c #898989",
"L  c #8B8B8B",
"P  c gray55",
"I  c #8E8E8E",
"U  c #939393",
"Y  c #9B9B9B",
"T  c #B6A3A3",
"R  c #BCBEBE",
"E  c #C4BCBC",
"W  c #EB8787",
"Q  c #EC8080",
"!  c #EA8F8F",
"~  c #EDBCBC",
"^  c #F9B4B4",
"/  c #C0C0C0",
"(  c #C1C1C1",
")  c #C3C4C4",
"_  c #C5C5C5",
"`  c #C8C8C8",
"'  c gray79",
"]  c #CACACA",
"[  c #D4C2C2",
"{  c #D2CCC5",
"}  c #D3CFC8",
"|  c #D5D0CC",
" . c #D8D7D6",
".. c #DDDAD6",
"X. c #D8DADB",
"o. c #E7DEDE",
"O. c #EAD9D9",
"+. c #F9DCDC",
"@. c gray89",
"#. c #E5EAEA",
"$. c gray91",
"%. c #E9E9E9",
"&. c #EAEAEA",
"*. c #EBECEC",
"=. c #ECECEC",
"-. c gray93",
";. c #EEEEEE",
":. c #EEEFEF",
">. c #EFEFEF",
",. c #EDF0F0",
"<. c #EDF1F1",
"1. c #EFF0F0",
"2. c #EFF5F5",
"3. c #F4E6E6",
"4. c gray94",
"5. c #F4F4F4",
"6. c gray96",
"7. c #F5F6F6",
"8. c #F6F6F6",
"9. c gray97",
"0. c #F6F9F9",
"q. c #F8F7F7",
"w. c #F8F8F8",
"e. c #FAFDFD",
"r. c #FDFCFC",
"t. c #FEFFFF",
"y. c gray100",
"u. c None",
/* pixels */
"u.u.u.u.u.u.u.u.u.u.u.u.u.u.u.u.",
"u.u.u.u.u.u.u.u.u.u.u.u.u.u.u.u.",
"4 p i d s s s s s s 9   < l k o ",
"T ^ O.,.>.;.;.;.>.8..., C Z A j ",
"R #.) ) R ) R ) R @.{ 2 b n m x ",
"_ &.R 8.! H 3.0.R &.} 1 v B N h ",
"_ >.R q.F D W y._ ;.| > c S M g ",
"_ >.R y.H G +.y.) >. .X 3 V z & ",
"' ;._ R R ) ) R R 8.X.# 5 e w = ",
"' 8.&.&.;.&.&.>.o.~ [ % 7 9 9 ; ",
"R ) ) E ) R R R R R E # 6 u u - ",
"' y.q.q.q.q.8.8.>.5._ + : f s $ ",
"s Y U I I I L L J J y   * r 8 O ",
"                      u.        ",
"u.u.u.u.u.u.u.u.u.u.u.u.u.u.u.u.",
"u.u.u.u.u.u.u.u.u.u.u.u.u.u.u.u."
};
