/* XPM */
static char *kreversi-16[] = {
/* columns rows colors chars-per-pixel */
"16 16 199 2",
"   c black",
".  c #030400",
"X  c #091300",
"o  c #0F1A00",
"O  c #182C01",
"+  c #1B2D07",
"@  c #1E2A0B",
"#  c #232F09",
"$  c #2A3613",
"%  c #393146",
"&  c #3F354C",
"*  c #2C4F00",
"=  c #334817",
"-  c #354D12",
";  c #3A5F09",
":  c #384820",
">  c #3F4F24",
",  c #3B6100",
"<  c #46385D",
"1  c #425727",
"2  c #4A5A2F",
"3  c #40630A",
"4  c #4C7111",
"5  c #516F1D",
"6  c #536534",
"7  c #586F31",
"8  c #5B7F23",
"9  c #5D7E27",
"0  c #5B7D2F",
"q  c #597331",
"w  c #5A7131",
"e  c #5A7331",
"r  c #607C31",
"t  c #4C4E4C",
"y  c #544E5F",
"u  c #504465",
"i  c #534765",
"p  c #554A68",
"a  c #5B5860",
"s  c #615F63",
"d  c #61517A",
"f  c #666E56",
"g  c #727179",
"h  c #7D7487",
"j  c #7C758B",
"k  c #548900",
"l  c #5B801F",
"z  c #519000",
"x  c #599104",
"c  c #5B9A00",
"v  c #5F9115",
"b  c #608B16",
"n  c #608D16",
"m  c #618F16",
"M  c #608D19",
"N  c #618D19",
"B  c #609609",
"V  c #629709",
"C  c #609805",
"Z  c #649F05",
"A  c #64990E",
"S  c #669E0C",
"D  c #619214",
"F  c #619315",
"G  c #629214",
"H  c #639316",
"J  c #639513",
"K  c #629415",
"L  c #619218",
"P  c #66921A",
"I  c #66901C",
"U  c #669A17",
"Y  c #6C9C1F",
"T  c #628233",
"R  c #618530",
"E  c #658334",
"W  c #668635",
"Q  c #688635",
"!  c #68853C",
"~  c #698F36",
"^  c #6B8C35",
"/  c #69883E",
"(  c #6A9623",
")  c #719532",
"_  c #719637",
"`  c #61A100",
"'  c #68A10C",
"]  c #6CA80B",
"[  c #6FA613",
"{  c #6DA11B",
"}  c #70A51F",
"|  c #74AA1C",
" . c #77AD19",
".. c #73B108",
"X. c #75A924",
"o. c #76AC22",
"O. c #76AC23",
"+. c #77AD22",
"@. c #77A829",
"#. c #7DAD2F",
"$. c #7FAF2F",
"%. c #7AA934",
"&. c #7FB424",
"*. c #7EB528",
"=. c #718D45",
"-. c #7E9C4D",
";. c #7F965E",
":. c #7E8176",
">. c #817B89",
",. c #8C7BA6",
"<. c #80AC3B",
"1. c #85BC26",
"2. c #85BD2D",
"3. c #81B333",
"4. c #82B530",
"5. c #88B53F",
"6. c #8ABA36",
"7. c #89BF34",
"8. c #8DBB3B",
"9. c #8B9F6B",
"0. c #80A448",
"q. c #82A748",
"w. c #8AAD51",
"e. c #8BAF52",
"r. c #8CAB5D",
"t. c #8DAC5C",
"y. c #87B343",
"u. c #86B344",
"i. c #8CBA42",
"p. c #8CB150",
"a. c #8CB152",
"s. c #8DB352",
"d. c #90BD4B",
"f. c #8CA168",
"g. c #94B363",
"h. c #95B563",
"j. c #98B965",
"k. c #9ABA65",
"l. c #98B370",
"z. c #9DB573",
"x. c #9FB978",
"c. c #A2BB77",
"v. c #A3BE77",
"b. c #8FCC2E",
"n. c #8EC537",
"m. c #8FC735",
"M. c #90C53F",
"N. c #92C04A",
"B. c #99C84D",
"V. c #98C553",
"C. c #99C555",
"Z. c #9CC357",
"A. c #9CC161",
"S. c #A0CB56",
"D. c #A0CA5B",
"F. c #A1C863",
"G. c #A7C676",
"H. c #AAC978",
"J. c #ABD668",
"K. c #AFD277",
"L. c #929B82",
"P. c #9486A8",
"I. c #9DA986",
"U. c #B1B2B2",
"Y. c #B6B6B4",
"T. c #AEC390",
"R. c #BEDE8D",
"E. c #BFE288",
"W. c #C4D5A8",
"Q. c #C4D5A9",
"!. c #C5D8A7",
"~. c #C6D9A7",
"^. c #C5D8A8",
"/. c #C8D7A9",
"(. c #C8DCA9",
"). c #C9DCA9",
"_. c #C8DEA8",
"`. c #CEDDB6",
"'. c #CBE898",
"]. c #CDE6A9",
"[. c #CCE8A3",
"{. c #D3EDAB",
"}. c #D3DBC8",
"|. c #D4D2D4",
" X c #D9E6C3",
".X c #D9E1CA",
"XX c #E5F4CF",
"oX c #EEFFD2",
"OX c #F8FFD9",
"+X c #E6EBE2",
"@X c #EBE1F8",
"#X c #F3EFF7",
"$X c #F4EAFF",
"%X c #FCEDFF",
"&X c #FFF2FF",
"*X c #FFFBFF",
"=X c #FFFCFF",
"-X c gray100",
";X c None",
/* pixels */
";X;X;X;X;X;X;X;X;X;X;X;X;X;X;X;X",
". / 7 w w e r 0 ) ^ W Q W R _   ",
"+ OX!.(.(.].Q.Y.U.~.(.^.W.W.oXX ",
"@ [.l.x.v.G.g >.h :.H.v.c.z.{.o ",
"$ R.r.g.k.A.% a y t A.k.h.t.'.O ",
": K.0.w.w.V.6 u p / C.s.a.0.'.# ",
"> D.{ o.*.u.2.V ' n.y.o.A k J.= ",
"1 n.;.L.%.] @..X`.{ ' %..XT.n.- ",
"5 f.,.P.h c #X-X-X}.z -X-X-XXX* ",
"R f i s < C $X-X-X|.V %X*X*X+X, ",
"T I & d 2 ..f.-X&X-.` I.-X@Xp.4 ",
"=.b.' ( 1.6. .P P &.8.[ v k n.~ ",
"l O.| *.3.y.N.B.S.Z.d.i.4.X.#.8 ",
", Y v v L K K K G G G v b M J 3 ",
"                                ",
";X;X;X;X;X;X;X;X;X;X;X;X;X;X;X;X"
};
