/* XPM */
static char *kshisen-16[] = {
/* columns rows colors chars-per-pixel */
"16 16 209 2",
"   c black",
".  c #080400",
"X  c #110A03",
"o  c #6E4327",
"O  c #6A492F",
"+  c #754A2D",
"@  c #785234",
"#  c #875B3D",
"$  c #925B36",
"%  c #925E39",
"&  c #99633D",
"*  c #9C653D",
"=  c #9C6741",
"-  c #9D6640",
";  c #9F6943",
":  c #9F6B46",
">  c #9E6D49",
",  c #A06B46",
"<  c #A16E49",
"1  c #A16F4A",
"2  c #A46F4C",
"3  c #A6744E",
"4  c #A77250",
"5  c #A97652",
"6  c #AA7553",
"7  c #AA7A56",
"8  c #AC7A56",
"9  c #AE7855",
"0  c #AD7D58",
"q  c #BB794A",
"w  c #BC7A4C",
"e  c #BE7C4D",
"r  c #BF7E4F",
"t  c #C17D4C",
"y  c #C37E4E",
"u  c #C57C4D",
"i  c #E87F55",
"p  c #8A9A3A",
"a  c #929640",
"s  c #979E43",
"d  c #9B9744",
"f  c #93A24B",
"g  c #92A14C",
"h  c #AF805C",
"j  c #B4815A",
"k  c #B9845F",
"l  c #A1A755",
"z  c #A0A857",
"x  c #B3A161",
"c  c #B8A061",
"v  c #C4804F",
"b  c #C6804F",
"n  c #C7814F",
"m  c #C58353",
"M  c #C68251",
"N  c #C78454",
"B  c #C88355",
"V  c #CC8959",
"C  c #CC8B5B",
"Z  c #CF8A58",
"A  c #CF8C5C",
"S  c #D08B58",
"D  c #C38F67",
"F  c #C59067",
"G  c #C5916A",
"H  c #C6916B",
"J  c #C39E60",
"K  c #CE9561",
"L  c #C89268",
"P  c #C8956C",
"I  c #D19060",
"U  c #D29161",
"Y  c #D49365",
"T  c #D59664",
"R  c #D7976A",
"E  c #D19B67",
"W  c #DD9764",
"Q  c #DB976A",
"!  c #DD9A65",
"~  c #DF9967",
"^  c #DA9B6A",
"/  c #D8996C",
"(  c #D89B6E",
")  c #DE9A6B",
"_  c #DF9F6E",
"`  c #DC9F72",
"'  c #DF9D70",
"]  c #C1A363",
"[  c #D6AC7A",
"{  c #DEA275",
"}  c #DFA277",
"|  c #DCA573",
" . c #DEAC7A",
".. c #D2B07F",
"X. c #EE9856",
"o. c #EA995F",
"O. c #EE9A58",
"+. c #F38949",
"@. c #F48F4D",
"#. c #F58E4D",
"$. c #F1885C",
"%. c #F5914E",
"&. c #F39357",
"*. c #F29456",
"=. c #F79B56",
"-. c #F59F5B",
";. c #F89553",
":. c #FA9852",
">. c #FB9F5B",
",. c #E98C63",
"<. c #E19765",
"1. c #E19967",
"2. c #E59B65",
"3. c #E19C69",
"4. c #E29C69",
"5. c #E29E6C",
"6. c #E69F6D",
"7. c #EB9E6C",
"8. c #EC9E6C",
"9. c #E09F72",
"0. c #F59C72",
"q. c #F99979",
"w. c #F7B654",
"e. c #F7B658",
"r. c #FAB058",
"t. c #E7A06D",
"y. c #E3A072",
"u. c #E0A376",
"i. c #E2A575",
"p. c #E7A270",
"a. c #E6A676",
"s. c #E0A478",
"d. c #E1A579",
"f. c #E3A77C",
"g. c #E5AA7E",
"h. c #E7AB7C",
"j. c #E7AD7E",
"k. c #EAA577",
"l. c #EEA77A",
"z. c #EEAA75",
"x. c #E9A97A",
"c. c #EDA87C",
"v. c #FAAA6C",
"b. c #FFA969",
"n. c #FFA86A",
"m. c #FBA17F",
"M. c #F7B472",
"N. c #F9B679",
"B. c #FFB87B",
"V. c #F9C05B",
"C. c #F9CA5D",
"Z. c #CEB780",
"A. c #D1B381",
"S. c #D0BA86",
"D. c #D2BE92",
"F. c #D4BC90",
"G. c #EDAF82",
"H. c #E6B286",
"J. c #E9B386",
"K. c #E6BB91",
"L. c #F2AF82",
"P. c #F7B082",
"I. c #F6B78C",
"U. c #F8B284",
"Y. c #F0BA91",
"T. c #F1BC96",
"R. c #F3BC96",
"E. c #F7BD92",
"W. c #F7BC98",
"Q. c #F8B595",
"!. c #FABA92",
"~. c #F8BB95",
"^. c #FBBD94",
"/. c #F9BF99",
"(. c #EBC49B",
"). c #F0C199",
"_. c #F7C39D",
"`. c #FBC29F",
"'. c #FCC59D",
"]. c #EEC9A3",
"[. c #EDCBA8",
"{. c #F6CCA8",
"}. c #FFC3A1",
"|. c #FCC4A2",
" X c #F8C8A4",
".X c #FFCBA8",
"XX c #F7D1B2",
"oX c #F9D2B0",
"OX c #FAD4B6",
"+X c #FFD1B1",
"@X c #FDD3B4",
"#X c #FBD6BA",
"$X c #FCD8BB",
"%X c #FFD8B8",
"&X c #FDD8BC",
"*X c #FEDABD",
"=X c #FFDDBE",
"-X c #FFDDBF",
";X c #FFDEBD",
":X c #FFDEBF",
">X c #FFDCC0",
",X c #FFDDC1",
"<X c #FFDCC2",
"1X c #FFDEC0",
"2X c #FFDFC2",
"3X c #FFE1C5",
"4X c #FFE1C8",
"5X c #FFE8C7",
"6X c None",
/* pixels */
"6X6X6X6X6X6X6X6X6X6X6X6X6X6X6X6X",
"O P G G F D L # > h.s.s.} } i.@ ",
"k 5X3X2X-X-X-Xx.G.3X4X2X-X2X-Xj ",
"h -X$X$X#XOX@X{ g.$XD.XX[.F.%X0 ",
"9 m.|.~.!._.q./ f.XXf ].S.z +X7 ",
"9 }.~.>.;.P.Q./ u.{.f (...z .X5 ",
"6 B.N.-.r.M.n.T `  X..(.K...'.3 ",
"4 n.@.V.C.%.:.U / `.`.R.R.R.E.3 ",
"3 n.&.w.w.&.=.C R Y.x H.[ c I.3 ",
"> U.c.%.+.8.k.V Y J.p  .] s G.; ",
", 0.8.*.X.o.,.y I j.p | J d l.* ",
"* $.9.9.` ) $.u C a.R _ ^ K t.& ",
", z.5.4.) W ! n Z p.t.4.1.<.2.* ",
"+ S N M M t u $ % m r e w q t o ",
"  X X X X X X     . . . . . .   ",
"6X6X6X6X6X6X6X6X6X6X6X6X6X6X6X6X"
};
