/* XPM */
static char *ksirtet[] = {
/* columns rows colors chars-per-pixel */
"32 32 257 2",
"   c #000000",
".  c #010A00",
"X  c #060408",
"o  c #00091A",
"O  c #021100",
"+  c #0A1800",
"@  c #130100",
"#  c #1C1107",
"$  c #000D24",
"%  c #000D32",
"&  c #021020",
"*  c #031939",
"=  c #0F3D00",
"-  c #102000",
";  c #1A3700",
":  c #0B2C00",
">  c #31110B",
",  c #272B05",
"<  c #032151",
"1  c #0A2650",
"2  c #142E73",
"3  c #004A00",
"4  c #074A00",
"5  c #0C5900",
"6  c #19550E",
"7  c #066B00",
"8  c #264F00",
"9  c #2F7104",
"0  c #481706",
"q  c #561602",
"w  c #47150E",
"e  c #53321B",
"r  c #5B2420",
"t  c #742400",
"y  c #6B322C",
"u  c #673B4E",
"i  c #704633",
"p  c #083993",
"a  c #1F4A9F",
"s  c #0F63BB",
"d  c #2A509B",
"f  c #3E57A8",
"g  c #2C6FB7",
"h  c #105ECB",
"j  c #0B56D9",
"k  c #0F61DB",
"l  c #1165C7",
"z  c #126CE2",
"x  c #3375D7",
"c  c #2A6FD3",
"v  c #2970E2",
"b  c #5D66A1",
"n  c #685D88",
"m  c #6D608C",
"M  c #7278A4",
"N  c #4C6DC8",
"B  c #009B00",
"V  c #09A500",
"C  c #15A903",
"Z  c #1AA410",
"A  c #369700",
"S  c #3E8A17",
"D  c #26AD07",
"F  c #27B301",
"G  c #33BC00",
"H  c #32A900",
"J  c #3DC800",
"K  c #58AC06",
"L  c #50A124",
"P  c #45C800",
"I  c #59C300",
"U  c #56CF00",
"Y  c #5BCC19",
"T  c #59D801",
"R  c #5AD012",
"E  c #49D100",
"W  c #65DC00",
"Q  c #64D319",
"!  c #77D613",
"~  c #67CF31",
"^  c #6AD82A",
"/  c #6DD330",
"(  c #60CD28",
")  c #6FE506",
"_  c #7EE02B",
"`  c #73D572",
"'  c #3CACB0",
"]  c #1F86EC",
"[  c #299BDE",
"{  c #3AB6C6",
"}  c #32A9D5",
"|  c #3BBDFF",
" . c #36B9FB",
".. c #39ADEC",
"X. c #35C4D8",
"o. c #5A84D8",
"O. c #5998E7",
"+. c #4B95EB",
"@. c #47A8F9",
"#. c #45BCFF",
"$. c #4DB5FC",
"%. c #4ABAFE",
"&. c #5CA4ED",
"*. c #5BA8EF",
"=. c #55ABF3",
"-. c #58A7F1",
";. c #58A9F1",
":. c #51ABFD",
">. c #52B0F9",
",. c #55B0F6",
"<. c #7697DE",
"1. c #669DE6",
"2. c #6B9AE3",
"3. c #6998E7",
"4. c #7B9CE5",
"5. c #739AE5",
"6. c #608AE5",
"7. c #62A1E9",
"8. c #6CA3ED",
"9. c #70A2EE",
"0. c #55C58C",
"q. c #47C9B3",
"w. c #40C1FF",
"e. c #892300",
"r. c #B82B08",
"t. c #B83412",
"y. c #A92A15",
"u. c #B43E24",
"i. c #886435",
"p. c #BA4F3E",
"a. c #B0783B",
"s. c #9C7D7F",
"d. c #83607C",
"f. c #A05A55",
"g. c #B5665B",
"h. c #AF7C58",
"j. c #B16B65",
"k. c #8F4E4A",
"l. c #CE3300",
"z. c #CC3508",
"x. c #CD4013",
"c. c #D44513",
"v. c #D45023",
"b. c #E24100",
"n. c #EF4F04",
"m. c #E85515",
"M. c #F34C00",
"N. c #F55400",
"B. c #FD5B06",
"V. c #FE6009",
"C. c #FD6714",
"Z. c #FF7216",
"A. c #E76916",
"S. c #E8652C",
"D. c #E36837",
"F. c #ED7433",
"G. c #F06E32",
"H. c #FF7B29",
"J. c #F97A3A",
"K. c #ED722B",
"L. c #D3782E",
"P. c #D66B49",
"I. c #D67458",
"U. c #D06C50",
"Y. c #CA7663",
"T. c #C97767",
"R. c #CA7F71",
"E. c #D37B64",
"W. c #E87748",
"Q. c #EC7A4A",
"!. c #837991",
"~. c #9BDE25",
"^. c #87D83B",
"/. c #82EE00",
"(. c #94FB00",
"). c #97FA07",
"_. c #87ED0D",
"`. c #95F032",
"'. c #8AEB2A",
"]. c #ABDA2B",
"[. c #A1FE0B",
"{. c #A6FE1C",
"}. c #A6FE17",
"|. c #ABFD2C",
" X c #ACFB35",
".X c #A3F536",
"XX c #B2FE37",
"oX c #86DA67",
"OX c #97E84A",
"+X c #94E456",
"@X c #98E559",
"#X c #8DE751",
"$X c #99E669",
"%X c #AAF44A",
"&X c #ABFA46",
"*X c #A8F448",
"=X c #ADF457",
"-X c #AEF459",
";X c #B6FD48",
":X c #B8FA55",
">X c #A3ED50",
",X c #A7EA65",
"<X c #B5F36A",
"1X c #B1EC74",
"2X c #CA822B",
"3X c #D68832",
"4X c #E0871D",
"5X c #FF822A",
"6X c #FF853A",
"7X c #FF9136",
"8X c #FF963D",
"9X c #DE9547",
"0X c #CF816F",
"qX c #CB8679",
"wX c #C88075",
"eX c #D8846D",
"rX c #D38977",
"tX c #CAA745",
"yX c #CEB152",
"uX c #FF8F48",
"iX c #FF9643",
"pX c #FF9D51",
"aX c #FDA44C",
"sX c #FFA94C",
"dX c #FFA95B",
"fX c #FFB358",
"gX c #FEB563",
"hX c #C5FF5F",
"jX c #C9FD72",
"kX c #CBFF79",
"lX c #C6FF68",
"zX c #FFC871",
"xX c #FFC374",
"cX c #FFC971",
"vX c #BEEF9D",
"bX c #B5ED87",
"nX c #CC8C82",
"mX c #CB938C",
"MX c #CD9591",
"NX c #D08B81",
"BX c #D2968B",
"VX c #D0A29F",
"CX c #D3FE8A",
"ZX c #D8FF9A",
"AX c #D5FF91",
"SX c #C2F295",
"DX c #C6F0A5",
"FX c #FED984",
"GX c #FEE892",
"HX c #E0FFAE",
"JX c #E8FFBB",
"KX c #E5FFB9",
"LX c #F4FFDD",
"PX c #EAFFC8",
"IX c #FEFFF7",
"UX c #FAFFE8",
"YX c None",
/* pixels */
"YXYXYXYXYXYXYXYXYXYXYXYXYXYXYXYXYXYXYXYXYX  2 % YXYXYXYXYXYXYXYX",
"YXYXYXYXYXYXYXYXYXYXYXYXYXYXYXYXYXYXYXYX$ f 5.N 2   YXYXYXYXYXYX",
"YXYXYXYXYXYXYXYXYXYXYXYXYXYXYXYXYXYXYX* b 9.<.<.o.a $ YXYXYXYXYX",
"YXYXYXYXYXYXYXYX  @ YXYXYXYXYXYXYXYX2 N 4.<.<.2.3.3.x < YXYXYXYX",
"YXYXYXYXYXYXYX  y j.> YXYXYXYXYX  2 3.<.2.2.2.2.2.O.v p   YXYXYX",
"YXYXYXYXYXYXX i MXVXnXr   YXYXX d 9.<.2.2.2.1.O.O.l j a   YXYXYX",
"YXYXYXYXYX@ k.MXMXmXBXNXk.  o g 9.9.2.2.7.7.7.-.x k h *   YXYXYX",
"YXYXYXYX# f.mXnXnXnXnXrXeXu x 9.9.2.7.7.7.7.+.c z l *     YXYXYX",
"YXYXYX> g.nXnXR.qXrXrXE.d.o.8.7.7.7.&.&.*.*.@.] s o     YXYXYXYX",
"YXYXw Y.qXR.R.R.R.eXI.m o.8.&.&.&.&.*.=.=.=.=.$.g o YXYXYXYXYXYX",
"  r Y.R.T.E.E.E.E.g.b O.8.&.&.-.*.=.:.>.,.$.$.$.w.[ 1 YXYXYXYXYX",
"w p.T.T.E.I.E.I.P.n @.1.O.&.-.-.=.@.' @.$.%.%.w.w.w.} 6 YXYXYXYX",
"0 y.u.U.Y.U.P.I.W.U.M @.&.-.-.:.} ` ,X0. .w.w.w.| { ` #X9 YXYXYX",
"0 r.y.z.v.P.I.W.W.Q.G.!.@.:.@.} oX<X1X,X` ..|  .q.oX1XbX$XS   YX",
"q l.r.z.z.z.D.Q.W.Q.Q.J.!...{ +X<X<X<X<X-X` X.q.@X,X$X$X$X$XL O ",
"@ e.l.l.v.v.b.m.G.Q.J.J.H.h.^.:X=X-X-X-X-X%XOXOX-X@X@X+X$X#X^ 5 ",
"    e.b.b.m.S.n.M.C.H.6XuXuX2X~. X%X%X&X%X*X%X*XOX>XOXOX^.R C 3 ",
"YX    t M.M.m.S.B.B.Z.H.uXpXdX3X~.|.XXXX X X.X.X`.'._.! Q Z V 3 ",
"YXYX    q N.B.V.S.H.5X7XiXaXfXgX9X].{.{.}.[.).(.(.) /.Q Z B V 3 ",
"YXYXYX. . 0 A.Z.Z.F.pXaXfXgXgXzXxXtX|.|.{.[.[.(.(.)./ D B V 7 . ",
"YXYXYXYX    > L.7XH.F.gXzXcXGXFXtX:X:X;XXX|.}.[.}./ D C C 5     ",
"YXYXYXYXYXYX  # a.sX7XF.gXGXGXyXjXkXjXlXhX;XXX X/ D F F 5     YX",
"YXYXYXYXYXYXYX  X a.fX8XS.gXtXCXZXZXAXCXjXhX:X~ F G H 4     YXYX",
"YXYXYXYXYXYXYXYX    i.fXiX4X1XKXKXKXHXZXCXlX( G P H :     YXYXYX",
"YXYXYXYXYXYXYXYXYX    i aX4XY vXUXLXPXKXbXY P E A +   YXYXYXYXYX",
"YXYXYXYXYXYXYXYXYXYX    e 2XU R DXIXLXSXQ P T A O   YXYXYXYXYXYX",
"YXYXYXYXYXYXYXYXYXYXYX    , I T T bXDXQ T T 9 .   YXYXYXYXYXYXYX",
"YXYXYXYXYXYXYXYXYXYXYXYXYX  ; I W _ OXW W 9     YXYXYXYXYXYXYXYX",
"YXYXYXYXYXYXYXYXYXYXYXYXYX    - K '.`.W 8     YXYXYXYXYXYXYXYXYX",
"YXYXYXYXYXYXYXYXYXYXYXYXYXYXYX  O K ! ;     YXYXYXYXYXYXYXYXYXYX",
"YXYXYXYXYXYXYXYXYXYXYXYXYXYXYXYX  . -     YXYXYXYXYXYXYXYXYXYXYX",
"YXYXYXYXYXYXYXYXYXYXYXYXYXYXYXYXYX      YXYXYXYXYXYXYXYXYXYXYXYX"
};
