/* XPM */
static char *ksmiletris[] = {
/* columns rows colors chars-per-pixel */
"32 32 257 2",
"   c #000000",
".  c #0B0500",
"X  c #0D0900",
"o  c #120B00",
"O  c #131313",
"+  c #231300",
"@  c #261900",
"#  c #281800",
"$  c #311A00",
"%  c #2E2000",
"&  c #372000",
"*  c #3D2600",
"=  c #3D3D3C",
"-  c #442C00",
";  c #482E00",
":  c #472600",
">  c #5F3F00",
",  c #683F00",
"<  c #663B00",
"1  c #5D4000",
"2  c #6F4600",
"3  c #684800",
"4  c #784C00",
"5  c #7B5600",
"6  c #4A4A4A",
"7  c #5F5F5F",
"8  c #525252",
"9  c #5E6064",
"0  c #636363",
"q  c #6F6F6F",
"w  c #646568",
"e  c gray47",
"r  c #834C00",
"t  c #8D5000",
"y  c #8D5E00",
"u  c #905600",
"i  c #935D00",
"p  c #886100",
"a  c #9E6B00",
"s  c #9E7300",
"d  c #AA5500",
"f  c #A76000",
"g  c #AB6300",
"h  c #AC6B00",
"j  c #A77B00",
"k  c #AA7100",
"l  c #AC7900",
"z  c #B16700",
"x  c #BB7200",
"c  c #B47900",
"v  c #C67600",
"b  c #C77A00",
"n  c #CC7F00",
"m  c #D57700",
"M  c #D37900",
"N  c #D87A00",
"B  c #B48100",
"V  c #BD8C05",
"C  c #AE9D7C",
"Z  c #B4A17D",
"A  c #C58A05",
"S  c #CA9206",
"D  c #DD8100",
"F  c #D79600",
"G  c #DC9F0B",
"H  c #DAA409",
"J  c #E38B00",
"K  c #E08500",
"L  c #EA9504",
"P  c #ED9B01",
"I  c #EC9F15",
"U  c #F09B00",
"Y  c #EBA300",
"T  c #E5A709",
"R  c #EBAF13",
"E  c #EAB201",
"W  c #EFB80D",
"Q  c #ECB415",
"!  c #EDB91B",
"~  c #F6A201",
"^  c #F8AA1A",
"/  c #F3BB00",
"(  c #FAB404",
")  c #FFBB00",
"_  c #F9B60A",
"`  c #F3BB18",
"'  c #F0BC10",
"]  c #EDBC20",
"[  c #F4BE3E",
"{  c #F3B33D",
"}  c #CAAC75",
"|  c #CDB17C",
" . c #E7AC42",
".. c #EEBE50",
"X. c #E1B055",
"o. c #F4B848",
"O. c #E2BA69",
"+. c #FEC400",
"@. c #FECC01",
"#. c #FECD0A",
"$. c #F5C500",
"%. c #FFCC1B",
"&. c #FEC813",
"*. c #FED500",
"=. c #FFD10D",
"-. c #FEDA01",
";. c #FFD313",
":. c #FFD218",
">. c #FED812",
",. c #FECC2C",
"<. c #FECF25",
"1. c #FDCC31",
"2. c #FFCC3C",
"3. c #F6CD38",
"4. c #FFD520",
"5. c #FFD028",
"6. c #FFDA23",
"7. c #FFDD28",
"8. c #FFD333",
"9. c #FFD939",
"0. c #FFE401",
"q. c #FFE20C",
"w. c #FFEB04",
"e. c #FFE019",
"r. c #FFEC1A",
"t. c #FFE613",
"y. c #FFEC2A",
"u. c #FFE531",
"i. c #FFE83C",
"p. c #FFF324",
"a. c #FFFF26",
"s. c #FFFD2C",
"d. c #FFF22C",
"f. c #FFF233",
"g. c #FFF73E",
"h. c #FFFE32",
"j. c #FFFF39",
"k. c #FCC94A",
"l. c #FFCD42",
"z. c #F5C35B",
"x. c #FCCD54",
"c. c #F8C359",
"v. c #FFDA42",
"b. c #FFDF49",
"n. c #F9D245",
"m. c #FAD350",
"M. c #FED35D",
"N. c #FCDB59",
"B. c #FADE52",
"V. c #ECC264",
"C. c #EDCA7A",
"Z. c #F5C96E",
"A. c #F8CA63",
"S. c #F4CD76",
"D. c #FBD46B",
"F. c #FFD568",
"G. c #FADC7C",
"H. c #FDD677",
"J. c #FFE243",
"K. c #FFE24C",
"L. c #FFEC4D",
"P. c #FDED41",
"I. c #FFEC55",
"U. c #FAE059",
"Y. c #FFF04D",
"T. c #FFFE43",
"R. c #FFFD4B",
"E. c #FFF541",
"W. c #FFF254",
"Q. c #FFF45D",
"!. c #FFFC53",
"~. c #FFF95C",
"^. c #FCE264",
"/. c #FDE469",
"(. c #FEE976",
"). c #FFF462",
"_. c #FFF66F",
"`. c #FFFF6C",
"'. c #FFFF70",
"]. c #FFFC7B",
"[. c #FEF379",
"{. c #8D8D8D",
"}. c #85868B",
"|. c #9C9EA2",
" X c #A99B81",
".X c #B3A081",
"XX c #B0A694",
"oX c #BFB49E",
"OX c #A1A1A0",
"+X c #A3A5A9",
"@X c #AEAEAE",
"#X c #B9B2A3",
"$X c #B2B2B2",
"%X c #BCBCBC",
"&X c #CBB58A",
"*X c #CBB796",
"=X c #D1BE9B",
"-X c #C2B9A9",
";X c #C3BCB0",
":X c #DEC697",
">X c #D9C7A3",
",X c #ECCC8F",
"<X c #ECD28F",
"1X c #E8D09E",
"2X c #FBD986",
"3X c #FFDE9E",
"4X c #EECBA4",
"5X c #E5D1AB",
"6X c #E4DCBD",
"7X c #F2D4AA",
"8X c #F5DBA9",
"9X c #F4DFB2",
"0X c #FFE68F",
"qX c #F8E083",
"wX c #FBE19C",
"eX c #FFEB96",
"rX c #FFFD84",
"tX c #FFFD8B",
"yX c #FFFF93",
"uX c #ECE1BB",
"iX c #FEE1A1",
"pX c #F8E4AA",
"aX c #F3E5B4",
"sX c #FFE4B0",
"dX c #FEE8B1",
"fX c #FEECBC",
"gX c #F5E5BC",
"hX c #C6C6C6",
"jX c #C0C3CA",
"kX c #C3C6D1",
"lX c #CCCED4",
"zX c #CED1D9",
"xX c #D1D2D4",
"cX c #DEDEDF",
"vX c #CDD2E1",
"bX c #D1D5E2",
"nX c #E4DCC1",
"mX c #E4E0DA",
"MX c #EEE9DF",
"NX c #FEEBC3",
"BX c #FDEECC",
"VX c #F6E5C8",
"CX c #F7ECD6",
"ZX c #FFF4CE",
"AX c #FFF1D5",
"SX c #FCF3DA",
"DX c #FFF9DB",
"FX c #EBEBEB",
"GX c #E5E5E5",
"HX c #F1F0EE",
"JX c #FFF9E4",
"KX c #FEF8EB",
"LX c #FAF2E8",
"PX c #FEFBF4",
"IX c #FEFEFE",
"UX c #FCF3F3",
"YX c None",
/* pixels */
"YXYXYXYXYXYXYXYXYXYXYXYXYXYXYXYXYXYXYXYXYXYXYXYXYXYXYXYXYXYXYXYX",
"YXYXYXYXYXYXYXYXYXYXd m M m m N N N d r : YXYXYXYXYXYXYXYXYXYXYX",
"YXYXYXYXYXYXYXYXA m N J I { z.A.A.o.^ L m t $ YXYXYXYXYXYXYXYXYX",
"YXYXYXYXYXYXYXg D L c.dXJXPXIXIXIXIXKXNXD.^ K r   YXYXYXYXYXYXYX",
"YXYXYXYXYXYXf J [ fXKXPXKXLXKXLXKXLXKXPXPXZXM.~ z + YXYXYXYXYXYX",
"YXYXYXYXYXr P F.DXJXDXAXAXAXAXAXAXAXAXAXAXJXJX0X_ v # YXYXYXYXYX",
"YXYXYXYXt ~ (.BX5X=X>XgXBXNXNXNXNXNXNXNX5X=X>XVXeX_ x X YXYXYXYX",
"YXYXYX: P B.5XC XX;X#X X&XdXsXsXsXdX1XC XX;X#X X*X(.( u   YXYXYX",
"YXYX  b 5.<X.XmXFXxXmXHXoX| 8X3XwX,X.XmXFXxXcXHX-X&XJ.Y : YXYXYX",
"YXYX< ( /.} FXxX@XxX%X$XIX&XC.2X2X} MXxX@XxX%X@XUX*XC.:.h   YXYX",
"YX  x 6.S.:XFXe {.{.{.0 +XCXO.H.Z.:XFXe {.{.{.0 +XCXX.4.Y $ YXYX",
"YX# Y J.V.9XjX= 8 7 6 O w LXV.F.c.9XhX= 8 7 6 O 9 LXI +.@.4 YXYX",
"YX3 +.K.k.iXkX6 0 e q 6 }.SXx.x.k.3XlX6 0 e q 6 }.BX( ) -.c   YX",
"YXi >.v.2.M.FX|.OXhX$X{.zXwX2.l.2.M.FX|.OXhX$X}.vXG.) ) 0.F . YX",
"YXk t.8.1.,.2XGXkXlXjXbXVX1.,.1.1.&.F.GXkXlXjXzXaX&.) +.-.E + YX",
"YXk q.4.%.%.;.N.aX6XuXqX4.%.%.%.#.@.@.n.pX6X6XG.&.+.@.@.0.E # YX",
"YXk 0.>.=.#.=.@.*.:.=.@.*.=.=.@.@.@.@.@.@.#.@.@.@.@.*.#.w.E # YX",
"YXa q.q.;.*.*.*.*.*.*.*.*.*.*.*.*.*.*.*.*.*.*.*.*.*.=.:.w.H o YX",
"YX2 >.r.7.*.-.*./ / / / / / / / / / / / / E / $.*.*.6.e.r.A   YX",
"YX* ` d.u.e.-.*. .7X7X7X7X7X7X7X7X7X7X7X7X7X4XQ -.0.i.r.u.y   YX",
"YX  S I.y.L.w.-...IXIXIXIXIXIXIXIXIXIXIXIXIXUXW 0.i.i.E.,.- YXYX",
"YXYX4 v.g.Y.L.w.' UXIXIXIXIXIXIXIXIXIXIXIXIX7X$.f.).p.Q.A . YXYX",
"YXYXo H ~.d._.~.>.S.IXIXIXIXIXIXIXIXIXIXIXPX[ P.].f.R.1.>   YXYX",
"YXYXYX3 ,.!.d.rX].3.8XIXIXIXIXIXIXIXIXIXIXZ.B.tXR.h.I.B   YXYXYX",
"YXYXYX  a b.R.h.rXrXn.2XKXIXIXIXIXIXIXAXA.U.yXR.a.).T @   YXYXYX",
"YXYXYXYXX B K.R.a.`.yX^.m.2XdXNXfXiXH.m.[.rXj.h.Q.Q -   YXYXYXYX",
"YXYXYXYXYXX l 9.~.s.j.`.rX(./.^.^./.[.].R.a.R.I.T -   YXYXYXYXYX",
"YXYXYXYXYXYX  5 ` I.!.h.s.j.R.R.R.T.s.s.T.Q.8.B @   YXYXYXYXYXYX",
"YXYXYXYXYXYXYX  % s ! J.W.!.R.T.T.!.!.L.1.S 1     YXYXYXYXYXYXYX",
"YXYXYXYXYXYXYXYXYX  + 3 j H Q ] ! H V p -     YXYXYXYXYXYXYXYXYX",
"YXYXYXYXYXYXYXYXYXYXYX      . X X .       YXYXYXYXYXYXYXYXYXYXYX",
"YXYXYXYXYXYXYXYXYXYXYXYXYXYXYXYXYXYXYXYXYXYXYXYXYXYXYXYXYXYXYXYX"
};
