/* XPM */
static char *ksmiletris-16[] = {
/* columns rows colors chars-per-pixel */
"16 16 201 2",
"   c black",
".  c #1C0E00",
"X  c #1E0F00",
"o  c #191100",
"O  c #1A1000",
"+  c #241600",
"@  c #261900",
"#  c #322200",
"$  c #342200",
"%  c #3A2400",
"&  c #3D2900",
"*  c #493102",
"=  c #483203",
"-  c #502F00",
";  c #513904",
":  c #673C00",
">  c #5E4709",
",  c #604601",
"<  c #674500",
"1  c #6F4F00",
"2  c #685009",
"3  c #724700",
"4  c #7B620A",
"5  c #7E640C",
"6  c #414245",
"7  c #4F4F50",
"8  c #565757",
"9  c gray39",
"0  c #696C73",
"q  c #70737B",
"w  c #865801",
"e  c #8D5500",
"r  c #816100",
"t  c #896600",
"y  c #946F03",
"u  c #9C6706",
"i  c #AD7F03",
"p  c #A27E16",
"a  c #CA7B00",
"s  c #D97A00",
"d  c #9F8014",
"f  c #BA991C",
"g  c #C29801",
"h  c #CC9405",
"j  c #C89B03",
"k  c #DA8401",
"l  c #DD8F15",
"z  c #CCA723",
"x  c #D8BA26",
"c  c #DCB826",
"v  c #E3971E",
"b  c #FBBF02",
"n  c #E5A52D",
"m  c #E9A534",
"M  c #E8A438",
"N  c #E9B123",
"B  c #F7BF31",
"V  c #F4BB4F",
"C  c #FFC400",
"Z  c #FBCF00",
"A  c #FFCF00",
"S  c #FFCF04",
"D  c #FFC910",
"F  c #FFCC1D",
"G  c #F8D204",
"H  c #FFD000",
"J  c #FFD100",
"K  c #FFD200",
"L  c #FFD300",
"P  c #FFD203",
"I  c #FFD004",
"U  c #FCD400",
"Y  c #FFD400",
"T  c #FFD503",
"R  c #FFD70A",
"E  c #FFDC01",
"W  c #FBDC0A",
"Q  c #FFDD0A",
"!  c #FFDF0E",
"~  c #EDD32F",
"^  c #F3C32F",
"/  c #FFCE27",
"(  c #F5C736",
")  c #F5C93F",
"_  c #F6CB3F",
"`  c #FEC834",
"'  c #FFD822",
"]  c #F4D335",
"[  c #F3DD35",
"{  c #FFD63E",
"}  c #F9DF36",
"|  c #FFDB38",
" . c #FFE70A",
".. c #FFE016",
"X. c #FFE81A",
"o. c #FFEE24",
"O. c #FAE637",
"+. c #FFE639",
"@. c #FFF138",
"#. c #FFF53D",
"$. c #FFFD38",
"%. c #FFFF3A",
"&. c #F5CB40",
"*. c #F6CC40",
"=. c #F6CC41",
"-. c #FCC74A",
";. c #FFD147",
":. c #FBD44D",
">. c #FFD648",
",. c #FFD656",
"<. c #FED258",
"1. c #F7CD6A",
"2. c #F7D769",
"3. c #F3D477",
"4. c #F7D871",
"5. c #FAD272",
"6. c #FDD372",
"7. c #F8DC75",
"8. c #FEEF42",
"9. c #FEF44D",
"0. c #FFFF40",
"q. c #FFFF42",
"w. c #FFFD47",
"e. c #FFFF48",
"r. c #FFFF4E",
"t. c #FFFF50",
"y. c #FFFF55",
"u. c #FFFC5A",
"i. c #FFFF5C",
"p. c #FEEF66",
"a. c #FEED6B",
"s. c #FDF265",
"d. c #FDF068",
"f. c #878B98",
"g. c #8B8E99",
"h. c #8C8F98",
"j. c #97999F",
"k. c #9FA0A0",
"l. c #9CA0AA",
"z. c #A6A6A8",
"x. c #B8B4AC",
"c. c #B8B9BB",
"v. c #BBBCBE",
"b. c #BBBDC1",
"n. c #BDC0C3",
"m. c #C0BBAD",
"M. c #DAC59D",
"N. c #CFC5B2",
"B. c #CFC8B9",
"V. c #CDC8BE",
"C. c #D9CCA8",
"Z. c #DACEAD",
"A. c #D2C8B3",
"S. c #D6CAB2",
"D. c #D0C8BB",
"F. c #DCD5BD",
"G. c #E0C899",
"H. c #E6D099",
"J. c #F2CD86",
"K. c #F8D185",
"L. c #F8D782",
"P. c #FCD883",
"I. c #F1DC91",
"U. c #E6D3AB",
"Y. c #E7DBAF",
"T. c #E1D8B9",
"R. c #F4DAA8",
"E. c #FEEC85",
"W. c #FEEC87",
"Q. c #FAE29A",
"!. c #FAE4A0",
"~. c #FFE6A3",
"^. c #FDE2AB",
"/. c #FFE4AD",
"(. c #F9E7B8",
"). c #FEE9BD",
"_. c #C5C3C4",
"`. c #C7C7C9",
"'. c #D0CBC3",
"]. c #DAD5C4",
"[. c #F5DFC2",
"{. c #F4E9CC",
"}. c #F5EAD3",
"|. c #F8EBD2",
" X c #FFF1D4",
".X c #FFF3D5",
"XX c #FFF7E0",
"oX c #FEF5E6",
"OX c #FEF6E9",
"+X c #FFF9E8",
"@X c #FFFCEE",
"#X c #FFFCEF",
"$X c #FFFBF8",
"%X c #FFFBF9",
"&X c #FCF9FE",
"*X c #FCF9FF",
"=X c #FDFAFF",
"-X c #FFFDFF",
";X c #FFFEFF",
":X c gray100",
">X c None",
/* pixels */
">X>X>X>Xs k v M m l e O >X>X>X>X",
">X>X  a V ).+X#X#XXX~.n : >X>X>X",
">X  u 5.{.|. X X X X}.(.-.3 >X>X",
">Xw <.A.V.N.G./.^.M.B.'.C.B - >X",
"o N H.`.v.b.S.K.J.D.n.c._.3.h   ",
"< { U.q 9 6 x.6.P.k.8 7 0 1.b & ",
"i | L.l.j.f.Z.;.,.m.g.h.z.` K 1 ",
"j ' / I.].Y.>.F D :.T.F.2.C E t ",
"g ! S S R L K L K A L L K S  .4 ",
"y o.! Z ( _ _ _ &.&.) ^ L ..X., ",
"= +.@.G {.&X*X*X*X*X*XR.W #.] + ",
"  z r.8.2.%X;X;X;X;X;X7.9.w.p   ",
">X= } i.d.!.OX$X$XoXQ.s.r.c . >X",
">X>X; ~ r.u.a.W.E.p.y.w.x $ >X>X",
">X>X>X% f O.%.w.%.%.[ p o >X>X>X",
">X>X>X>X  # 2 5 4 > @   >X>X>X>X"
};
