/* XPM */
static char *ksnake[] = {
/* columns rows colors chars-per-pixel */
"32 32 210 2",
"   c #000000",
".  c #060C00",
"X  c #0A0D01",
"o  c #0E1402",
"O  c #101207",
"+  c #131B03",
"@  c #141908",
"#  c #172105",
"$  c #1C240B",
"%  c #1F290B",
"&  c #232609",
"*  c #242C0A",
"=  c #282C0A",
"-  c #22320C",
";  c #2C310C",
":  c #2C3A0B",
">  c #2E3610",
",  c #2D3E11",
"<  c #32350C",
"1  c #333B0D",
"2  c #333510",
"3  c #303C13",
"4  c #3C3811",
"5  c #3D3F1B",
"6  c #2F420E",
"7  c #32420E",
"8  c #354B0B",
"9  c #3B440F",
"0  c #394C0E",
"q  c #354410",
"w  c #334811",
"e  c #3B4312",
"r  c #3B4C12",
"t  c #3C530E",
"y  c #3C5311",
"u  c #3F5815",
"i  c #413D0F",
"p  c #433F12",
"a  c #42490F",
"s  c #424712",
"d  c #424419",
"f  c #444B12",
"g  c #494A14",
"h  c #494B1A",
"j  c #445D0F",
"k  c #465213",
"l  c #45531A",
"z  c #435B13",
"x  c #445D1C",
"c  c #4C5414",
"v  c #4D511C",
"b  c #485D14",
"n  c #4C591A",
"m  c #525315",
"M  c #525518",
"N  c #535A15",
"B  c #545C18",
"V  c #5C5E17",
"C  c #595B19",
"Z  c #494D24",
"A  c #435525",
"S  c #4C5D2A",
"D  c #505420",
"F  c #545822",
"G  c #525C28",
"H  c #585C27",
"J  c #446611",
"K  c #4A6414",
"L  c #4B6519",
"P  c #4A6813",
"I  c #4D6C19",
"U  c #526117",
"Y  c #55621C",
"T  c #516B1A",
"R  c #5C6516",
"E  c #5B621B",
"W  c #5D6A1C",
"Q  c #527415",
"!  c #53731A",
"~  c #537915",
"^  c #547818",
"/  c #5A731C",
"(  c #5B7A1D",
")  c #4E6525",
"_  c #546523",
"`  c #536C23",
"'  c #5B6024",
"]  c #5F632D",
"[  c #576B39",
"{  c #586E30",
"}  c #5C6D38",
"|  c #557222",
" . c #597720",
".. c #5C7A21",
"X. c #666F19",
"o. c #63721D",
"O. c #617A1C",
"+. c #636622",
"@. c #616C23",
"#. c #646A28",
"$. c #636B32",
"%. c #677725",
"&. c #60702A",
"*. c #607925",
"=. c #647C2A",
"-. c #687026",
";. c #6C742B",
":. c #6C7C24",
">. c #687B2A",
",. c #677631",
"<. c #737F33",
"1. c #677250",
"2. c #5D801A",
"3. c #5E8024",
"4. c #65841C",
"5. c #64891D",
"6. c #6A9519",
"7. c #6F9B1D",
"8. c #638224",
"9. c #678229",
"0. c #678927",
"q. c #6B842B",
"w. c #698B23",
"e. c #6A8C2A",
"r. c #678132",
"t. c #6D8433",
"y. c #6A853C",
"u. c #6D8C30",
"i. c #6C9424",
"p. c #6C9229",
"a. c #73842E",
"s. c #728B2D",
"d. c #748B32",
"f. c #788136",
"g. c #788E3D",
"h. c #71942C",
"j. c #749C23",
"k. c #71992E",
"l. c #7F9620",
"z. c #78912C",
"x. c #7D9C2A",
"c. c #739233",
"v. c #769038",
"b. c #769C32",
"n. c #7A9433",
"m. c #799539",
"M. c #7B9D33",
"N. c #7C9B3C",
"B. c #75A226",
"V. c #75A02A",
"C. c #7CA42C",
"Z. c #7FAA2F",
"A. c #7EA631",
"S. c #7EA538",
"D. c #788C54",
"F. c #7D9B41",
"G. c #7F994B",
"H. c #7E915D",
"J. c #798761",
"K. c #7FA444",
"L. c #80933C",
"P. c #849D3B",
"I. c #82A32F",
"U. c #8CA52A",
"Y. c #83A13C",
"T. c #81AA32",
"R. c #83AC3C",
"E. c #8CAD3D",
"W. c #89B23C",
"Q. c #819649",
"!. c #859C4D",
"~. c #84945E",
"^. c #8B985D",
"/. c #869B61",
"(. c #85A247",
"). c #83A14D",
"_. c #85A941",
"`. c #84A84B",
"'. c #89A242",
"]. c #8AA54A",
"[. c #8AAC42",
"{. c #88A352",
"}. c #8DA65D",
"|. c #8BAB50",
" X c #8BB147",
".X c #8FB34C",
"XX c #91AA43",
"oX c #91AC5C",
"OX c #91B34D",
"+X c #96BB55",
"@X c #9ABA5B",
"#X c #8FA766",
"$X c #8FA964",
"%X c #91AA66",
"&X c #93AA6C",
"*X c #98AF6F",
"=X c #96A673",
"-X c #98A775",
";X c #9AAA74",
":X c #9BA97A",
">X c #97B16A",
",X c #99B26B",
"<X c #9BB271",
"1X c #A4C367",
"2X c #A6C56B",
"3X c #BCDB7C",
"4X c #9DAE80",
"5X c #A5B385",
"6X c #AAB98B",
"7X c None",
/* pixels */
"7X7X7X7X7X7X7X7X7X7X7X  o * q S A , * .   7X7X7X7X7X7X7X7X7X7X7X",
"7X7X7X7X7X7X7X7X7X  - } ~.:X6X6X6X5X-XD.{ *   7X7X7X7X7X7X7X7X7X",
"7X7X7X7X7X7X7X7X. 8 y.:X:X=X;X;X;X=X:X4X;X=.8 o 7X7X7X7X7X7X7X7X",
"7X7X7X7X7X7X7X+ j z ) H./.#X#X%X,X,X#X&X~.) t t + 7X7X7X7X7X7X7X",
"7X7X7X7X7X7Xo K b q K [ J.{.oXoX%XoXoX^.1.t 1 u K + 7X7X7X7X7X7X",
"7X7X7X7X7X7X0 / _ l I 3XG.P.].oX{.`.XXf.3X( r l ..x   7X7X7X7X7X",
"7X7X7X7X7X+ I t.] n T ~ K l.Y.].`.P.U.Y ~ ^ l 5 r.3.# 7X7X7X7X7X",
"7X7X7X7X7X6 3.{ h 1 K x b x.[.|.|.[.I.*.8 u > 3 G e.7 7X7X7X7X7X",
"7X7X7X7X  r c.G s h 9 ( e.G.oX*X,X}.).0.^ 1 2 h Z 9.u   7X7X7X7X",
"7X7X7X7X  y c.D m M e r ..x x x x x x ! s ; v H d =.|   7X7X7X7X",
"7X7X7X7X  u F.h c ' H 2 = I T I T | T 1 & d H H Z t.`   7X7X7X7X",
"7X7X7X7X  : n.} H H #.< & = q : : q ; & = F C p 4 q.r   7X7X7X7X",
"7X7X7X7X7XX e.,.i C ;.e < 9 J J J J r ; < C +.d v h.# 7X7X7X7X7X",
"7X7X7X7X7X  1 b.#.m ;.c s z P P P P b s f R N $.N.L   7X7X7X7X7X",
"7X7X7X7X7X    K E.-.#.M f K Q ^ Q ^ P g g E +.Y.e.O   7X7X7X7X7X",
"7X7X7X7X7X7X  . t M.<.m g K T ( / ^ I c a B z.T +   7X7X7X7X7X7X",
"7X7X7X7X7X7X7X    q w.N c *.p.h.k.p.0.U c X.Q .     7X7X7X7X7X7X",
"7X7X7X7X7X7X7X7X    j N n ..9.u.u.q.9.Y c O.*   7X7X7X7X7X7X7X7X",
"7X7X7X7X7X7X7X7X7X  ; R W b.S.R.R.T.M.=.N k   7X7X7X7X7X7X7X7X7X",
"7X7X7X7X7X7X7X7X7X7X< B Y d.v.m.F.m.d.{ B 9   7X7X7X7X7X7X7X7X7X",
"7X7X7X7X7X7X7X7X7X7Xa X.O.E..X+X+XOX Xs.R N   7X7X7X7X7X7X7X7X7X",
"7X7X7X7X7X7X7X7X7X  k V U q.Q.!.{.!.v.W c N   7X7X7X7X7X7X7X7X7X",
"7X7X7X7X7X7X7X7X7X  l X.( j.OX1X2X@XA.4.R R   7X7X7X7X7X7X7X7X7X",
"7X7X7X7X7X7X7X7X7X  c W W O.q.m.N.s.:./ X.Y   7X7X7X7X7X7X7X7X7X",
"7X7X7X7X7X7X7X7X7X  l :.O.7.C.W.W.T.j.4.o.B   7X7X7X7X7X7X7X7X7X",
"7X7X7X7X7X7X7X7X7X7Xe %.W 4.w.c.z.s.4.( @.n   7X7X7X7X7X7X7X7X7X",
"7X7X7X7X7X7X7X7X7X7X2 d.8.6.B.Z.T.C.7.4.a.r   7X7X7X7X7X7X7X7X7X",
"7X7X7X7X7X7X7X7X7X7XO >.<.( 2.6.i.5.( q.L.= 7X7X7X7X7X7X7X7X7X7X",
"7X7X7X7X7X7X7X7X7X7X  _ '.K.V.B.B.B.S.).>.. 7X7X7X7X7X7X7X7X7X7X",
"7X7X7X7X7X7X7X7X7X7X  @ e. XK.|.|.`.[.n.$   7X7X7X7X7X7X7X7X7X7X",
"7X7X7X7X7X7X7X7X7X7X7X  X ` p.p.p.h...@     7X7X7X7X7X7X7X7X7X7X",
"7X7X7X7X7X7X7X7X7X7X7X      O % % @       7X7X7X7X7X7X7X7X7X7X7X"
};
