/* XPM */
static char *ksokoban[] = {
/* columns rows colors chars-per-pixel */
"32 32 257 2",
"   c #000000",
".  c #0B0000",
"X  c #0F0F00",
"o  c #1C0202",
"O  c #170705",
"+  c #2B0502",
"@  c #2B0907",
"#  c #3F0000",
"$  c #370604",
"%  c #381908",
"&  c #391716",
"*  c #3F3F00",
"=  c #2A2A00",
"-  c #4B1514",
";  c #540705",
":  c #4E0F06",
">  c #55381C",
",  c #4C3319",
"<  c #681403",
"1  c #6A1614",
"2  c #7F0000",
"3  c #77140B",
"4  c #7A1C1D",
"5  c #691F22",
"6  c #66271B",
"7  c #7C2726",
"8  c #71302B",
"9  c #7F3032",
"0  c #622727",
"q  c #6D4824",
"w  c #7F7F00",
"e  c #881A16",
"r  c #980202",
"t  c #9D1A19",
"y  c #951D12",
"u  c #941308",
"i  c #951F22",
"p  c #852119",
"a  c #89261D",
"s  c #93241A",
"d  c #94291C",
"f  c #992916",
"g  c #9A2818",
"h  c #852206",
"j  c #822322",
"k  c #8C2A23",
"l  c #882A28",
"z  c #8A312A",
"x  c #863433",
"c  c #973429",
"v  c #943934",
"b  c #933F3E",
"n  c #902A29",
"m  c #A1110D",
"M  c #A41818",
"N  c #A51913",
"B  c #B5160C",
"V  c #B41B11",
"C  c #B70906",
"Z  c #A4260E",
"A  c #AA260B",
"S  c #AD2C0F",
"D  c #A42414",
"F  c #A52B12",
"G  c #AB2A11",
"H  c #AB2716",
"J  c #A2301C",
"K  c #AB3217",
"L  c #B12909",
"P  c #BA2B04",
"I  c #B82F0C",
"U  c #B52408",
"Y  c #BA300D",
"T  c #BB3B0F",
"R  c #B23519",
"E  c #B8371B",
"W  c #A73927",
"Q  c #A03E35",
"!  c #B43C24",
"~  c #9F5F1F",
"^  c #864137",
"/  c #9B423C",
"(  c #AA5500",
")  c #AB422E",
"_  c #A74933",
"`  c #BB482D",
"'  c #BB4324",
"]  c #B24734",
"[  c #BB503C",
"{  c #AE573A",
"}  c #BF7F3F",
"|  c #954844",
" . c #A85249",
".. c #AF5950",
"X. c #B15041",
"o. c #B95B49",
"O. c #B15C53",
"+. c #AA4D43",
"@. c #B46156",
"#. c #BA6E65",
"$. c #C70902",
"%. c #CA1904",
"&. c #DC0301",
"*. c #D51A04",
"=. c #DD1410",
"-. c #CD1A14",
";. c #C22D01",
":. c #C82A07",
">. c #C5350A",
",. c #CD3302",
"<. c #CA3806",
"1. c #C73D16",
"2. c #DA2B05",
"3. c #D42608",
"4. c #D9281C",
"5. c #D43B04",
"6. c #D93D02",
"7. c #D03301",
"8. c #C83624",
"9. c #EB0400",
"0. c #E40401",
"q. c #FD0000",
"w. c #F00000",
"e. c #E51202",
"r. c #E82116",
"t. c #C8421C",
"y. c #C6431A",
"u. c #DC430B",
"i. c #D64206",
"p. c #D4451B",
"a. c #C74A28",
"s. c #CF572D",
"d. c #C8573C",
"f. c #D14920",
"g. c #D3552C",
"h. c #DE582B",
"j. c #D65730",
"k. c #D85C36",
"l. c #C14D35",
"z. c #CC6633",
"x. c #D2643A",
"c. c #DC643B",
"v. c #D47F2A",
"b. c #DF7F3F",
"n. c #E24F18",
"m. c #E95517",
"M. c #F6570B",
"N. c #F05E1D",
"B. c #E74A08",
"V. c #E15B28",
"C. c #FD6416",
"Z. c #EA642A",
"A. c #EA6A37",
"S. c #E5783B",
"D. c #F56B2A",
"F. c #F46421",
"G. c #F97638",
"H. c #CB664C",
"J. c #C66958",
"K. c #C8705F",
"L. c #D36244",
"P. c #DB6B46",
"I. c #DA6E52",
"U. c #D9755A",
"Y. c #D37058",
"T. c #C77566",
"R. c #CA7768",
"E. c #DA7C63",
"W. c #D27965",
"Q. c #E16D45",
"!. c #E67245",
"~. c #E2724A",
"^. c #EB7545",
"/. c #EF7F4F",
"(. c #E87A4D",
"). c #E07A5B",
"_. c #EA7D52",
"`. c #E47750",
"'. c #F37E45",
"]. c #F0784C",
"[. c #F27B50",
"{. c #DE856E",
"}. c #D5806C",
"|. c #D88875",
" X c #DE907D",
".X c #CE877A",
"XX c #EA835B",
"oX c #EE8052",
"OX c #FB834A",
"+X c #F98148",
"@X c #F68757",
"#X c #FC935F",
"$X c #E78A6A",
"%X c #E58C71",
"&X c #ED906B",
"*X c #EB967B",
"=X c #ED997E",
"-X c #E2917B",
";X c #F58E61",
":X c #F3946C",
">X c #FE9662",
",X c #FC9969",
"<X c #F7996F",
"1X c #F49A74",
"2X c #FE9E70",
"3X c #F59B78",
"4X c #FDA173",
"5X c #DC9788",
"6X c #DFB1AA",
"7X c #D9ADA7",
"8X c #E59A86",
"9X c #E49C89",
"0X c #EB9C83",
"qX c #EBA28C",
"wX c #E6A28F",
"eX c #EAA592",
"rX c #EDA995",
"tX c #EBAC9A",
"yX c #E3A394",
"uX c #EEB29F",
"iX c #F2A285",
"pX c #F2A98D",
"aX c #F9A987",
"sX c #F1AB94",
"dX c #FCB18F",
"fX c #F2B39F",
"gX c #FCB595",
"hX c #FCB798",
"jX c #FBB798",
"kX c #E5AEA1",
"lX c #E1B4AC",
"zX c #ECB4A4",
"xX c #E8B5A8",
"cX c #EBB9AC",
"vX c #E4B1A6",
"bX c #E2BAB3",
"nX c #EBBCB0",
"mX c #F2B9A6",
"MX c #F4BCAB",
"NX c #F6BAA6",
"BX c #F1BFB1",
"VX c #FAC2AA",
"CX c #F2C5B9",
"ZX c #F9C9B8",
"AX c #FDD0BC",
"SX c #E9C5BD",
"DX c #E7C8C2",
"FX c #EBD1CE",
"GX c #EFD9D7",
"HX c #F2CCC2",
"JX c #F6D5CB",
"KX c #FDDACC",
"LX c #F6DCD6",
"PX c #F2DCDA",
"IX c #F6E0DD",
"UX c #F4E2E0",
"YX c None",
/* pixels */
"YX    #.z.b.(.(._._ c K t.g.x.x.x.s.a.' z ^ /.[.[.'.oXz.} w     ",
"    v.v.S.+X(._  .O.T. X=XaXhXjXdX4XiX5X.X#.| q _.[.^.(.P.} w   ",
"  } z.!.L.v / ..T.|.-X9XqXsXqX|.qXtXeX9X5X}.R.@.^ 8 { [.S.v.( w ",
"( z._ l z / o.K.}.-X9XtXMXnXlX7XvXcXzXtX9X XR.@.O.| x 5 6 b.} w ",
"} b.l v X.J.K.{.8XsXzXzXxXnXlXSX6XcXkXtXrXqX XW.Y.O. .b j - ~ ( ",
"z.4.k ) [ H.U.%X0XqXrXzXCXnXbXDXbXzXzXyX8X-X%XE.J.o.X./ n 7 % ( ",
"P.-.d ! l.L.U.%X9XtXzXMXCXSXFXFXDX6XtXeXwX-XE.I.L.d.] W k s @ ( ",
"H.V J E a.L.E.5XeXmXMXZXJXPXPXPXFXbXpXiX0X-X{.Y.d.a.! J a M & } ",
"o.H K 1.a.J.|.8XeXNXZXKXLXUXIXPXFXbXeXiX=X%X).I.H.` E A f N - } ",
"4.F R W +.T.%X0XsXMXAXKXIXUXIXLXCXxXyX3X:XXX`.P.L.d.W D Z y 1 > ",
"=.d z b ] d.U.*XgXVXAXJXLXLXLXJXCXkX8X%X@X[.A.g.1.1.G s s p s O ",
"r.i 9 W a.c.`.&XaXjXNXCXHXHXCXCXMXeX8XE.[.G.F.n.6.2.;.G a a 4 O ",
"8.B l ! t.k.(.@X2XaXsXtXmXMXNXfXrX0X%XU.!.G.C.m.u.5.,.F j t @ X ",
"H i m z a.V.A.+X#X<X*XiXpXsXpXiX=X&X).Q.c.D.C.m.B.6.F 7 M - @ , ",
"q z y t z ` Z.G.OXoX;X:X:X<X<X,X@XoX].A.V.m.C.M.u.g 7 N 1 @ = YX",
"l 0 p m g v ) Z.D.A.S.'.OXOXOX+XG.G.D.N.m.B.M.y.d a t e @ % w YX",
"2 > 6 e B c c ) oX,X,X,X4X4X4X,X2X>X#X#X@X+Xy.d d s N $ % ; YXYX",
"  # , 1 m V W J H.gXjXgXjXjXjXgXgXgXdXaXdX&XF f f B : + $   YXYX",
"YX  # & 3 C V K R XX3X3X3X3X1X1X1X<X:X:X:Xa.Z F V 3 o       YXYX",
"YXYX  # % r $.U L a.XXXXXXXX$X_.XXXXXXXXc.U L U u +     YXYXYXYX",
"YXYXYX    < C %.I P g.!.~.P.~.Q.P.Q.Q.A.>.P U B $ .   YXYXYXYXYX",
"YXYXYXYX    r 9.%.;.<.g.j.j.j.j.j.g.j.1.;.U %.: . YXYXYXYXYXYXYX",
"YXYXYXYXYXYX  0.9.;.,.1.f.1.y.y.t.y.1.,.;.3.< .   YXYXYXYXYXYXYX",
"YXYXYXYXYXYXYXq.q.0.,.<.I I I I Y Y <.5.:.u .   YXYXYXYXYXYXYXYX",
"YXYXYXYXYXYXYXYXq.q.*.i.P L U L U L 6.,.U +   YXYXYXYXYXYXYXYXYX",
"YXYXYXYXYXYXYXYXYXq.q.2.<.Z A A Z >.5.2.$ o YXYXYXYXYXYXYXYXYXYX",
"YXYXYXYXYXYXYXYXYXYXq.9.6.S f f F i.2.:   YXYXYXYXYXYXYXYXYXYXYX",
"YXYXYXYXYXYXYXYXYXYXYXq.e.<.s s T 3.h .   YXYXYXYXYXYXYXYXYXYXYX",
"YXYXYXYXYXYXYXYXYXYXYXYX9.3.d d >.Z .   YXYXYXYXYXYXYXYXYXYXYXYX",
"YXYXYXYXYXYXYXYXYXYXYXYXYXq.F d t O   YXYXYXYXYXYXYXYXYXYXYXYXYX",
"YXYXYXYXYXYXYXYXYXYXYXYXYXq.&.r o   YXYXYXYXYXYXYXYXYXYXYXYXYXYX",
"YXYXYXYXYXYXYXYXYXYXYXYXYXq.YX      YXYXYXYXYXYXYXYXYXYXYXYXYXYX"
};
