/* XPM */
static char *ktron-16[] = {
/* columns rows colors chars-per-pixel */
"16 16 67 1",
"  c black",
". c #020207",
"X c #050802",
"o c #070907",
"O c #001C00",
"+ c #000024",
"@ c #000036",
"# c #000039",
"$ c #0D1B29",
"% c #113400",
"& c #002959",
"* c #1F2046",
"= c #292545",
"- c #3B3854",
"; c #047400",
": c #057500",
"> c #067D05",
", c #36483F",
"< c #274046",
"1 c #3D514C",
"2 c #3E514D",
"3 c #494346",
"4 c #454856",
"5 c #4A7D46",
"6 c #666980",
"7 c #76758C",
"8 c #079000",
"9 c #009D00",
"0 c #089201",
"q c #1A9E04",
"w c #11B700",
"e c #27A500",
"r c #049557",
"t c #1FC200",
"y c #21C600",
"u c #29CC00",
"i c #518230",
"p c #589B30",
"a c #5B9E31",
"s c #55A02D",
"d c #58A02F",
"f c #5CA631",
"g c #42D800",
"h c #4FE000",
"j c #55E300",
"k c #63D442",
"l c #65D644",
"z c #6ADB44",
"x c #79DE61",
"c c #959FB8",
"v c #B7B5C4",
"b c #B6BECB",
"n c #B1FF8D",
"m c #C1BECA",
"M c #C3C0CD",
"N c #CAC3D0",
"B c #C9C7D3",
"V c #CCC9D4",
"C c #CED0D4",
"Z c #D0CED8",
"A c #D8D0DA",
"S c #E8D2DD",
"D c #F6F5F9",
"F c #FEF9F4",
"G c #FEFCF9",
"H c gray100",
"J c None",
/* pixels */
"JJJJJJJJJJJJJJJJ",
"JJJJJJJJJJJJJJJJ",
"JJJJJJJJJJJJJJJJ",
"JJJ %pdssfai  JJ",
"JJ=115nnnnz.o$JJ",
"J -H5hhjj,-lrX4 ",
",kAS>quuu333x00c",
"9>NFb5etttyw:@:8",
":+ GH5555DH;   :",
":#H G5GVGvH; H :",
":g CBZmM74->g&g:",
" :g: JJJJJJ.:g: ",
"J O JJJJJJJJ   J",
"JJJJJJJJJJJJJJJJ",
"JJJJJJJJJJJJJJJJ",
"JJJJJJJJJJJJJJJJ"
};
