/* XPM */
static char *ktron[] = {
/* columns rows colors chars-per-pixel */
"32 32 233 2",
"   c #000000",
".  c #000B00",
"X  c #080509",
"o  c #001300",
"O  c #071308",
"+  c #001A01",
"@  c #091B00",
"#  c #130F13",
"$  c #180F18",
"%  c #161416",
"&  c #121814",
"*  c #1B171B",
"=  c #1B191B",
"-  c #1F1F22",
";  c #002303",
":  c #002B00",
">  c #003200",
",  c #033A03",
"<  c #0D320F",
"1  c #143C00",
"2  c #1B3D00",
"3  c #242325",
"4  c #282628",
"5  c #2B2A2D",
"6  c #2B352A",
"7  c #362A3D",
"8  c #353435",
"9  c #38323B",
"0  c #3B3B3C",
"q  c #3F3942",
"w  c #004100",
"e  c #014B01",
"r  c #015100",
"t  c #0A5F06",
"y  c #095E09",
"u  c #016201",
"i  c #0D6103",
"p  c #047402",
"a  c #047D00",
"s  c #0C7303",
"d  c #0E7509",
"f  c #167903",
"g  c #2B431E",
"h  c #30531D",
"j  c #2C4320",
"k  c #2E4A20",
"l  c #2D4131",
"z  c #215921",
"x  c #334134",
"c  c #36582B",
"v  c #276C00",
"b  c #2B6400",
"n  c #2D6801",
"m  c #257C0F",
"M  c #326B1D",
"N  c #246025",
"B  c #277225",
"V  c #2A722A",
"C  c #316C24",
"Z  c #347026",
"A  c #367228",
"S  c #3F7125",
"D  c #38742A",
"F  c #3D792F",
"G  c #367736",
"H  c #327832",
"J  c #403D40",
"K  c #466436",
"L  c #42703F",
"P  c #457D37",
"I  c #447F3F",
"U  c #414144",
"Y  c #424C42",
"T  c #464949",
"R  c #4A4A4A",
"E  c #4E4E50",
"W  c #504754",
"Q  c #534D55",
"!  c #515151",
"~  c #5C555F",
"^  c gray35",
"/  c #4F6148",
"(  c #4D684D",
")  c #4D784C",
"_  c #566B51",
"`  c #547B52",
"'  c #597054",
"]  c #605F60",
"[  c #676369",
"{  c #6E6D6E",
"}  c #767576",
"|  c #068B00",
" . c #0E850C",
".. c #069100",
"X. c #049E00",
"o. c #0D9302",
"O. c #0C9D00",
"+. c #15810E",
"@. c #128412",
"#. c #1B8B10",
"$. c #119B11",
"%. c #04A100",
"&. c #0BA400",
"*. c #14A002",
"=. c #1AA800",
"-. c #15A211",
";. c #1BA41A",
":. c #218500",
">. c #2D8E03",
",. c #2E831D",
"<. c #2A8C16",
"1. c #2E9C0D",
"2. c #249615",
"3. c #2B9413",
"4. c #34891F",
"5. c #269F27",
"6. c #2AA200",
"7. c #2CA40B",
"8. c #2AB40E",
"9. c #35A40F",
"0. c #31AE01",
"q. c #30A219",
"w. c #3AAA16",
"e. c #3CAC1F",
"r. c #30B500",
"t. c #32BA00",
"y. c #29A424",
"u. c #3AC200",
"i. c #448A1A",
"p. c #428535",
"a. c #4E8B32",
"s. c #5C993D",
"d. c #40A108",
"f. c #47A80D",
"g. c #4DA015",
"h. c #43BB06",
"j. c #54BF31",
"k. c #4F9E4F",
"l. c #5D8E49",
"z. c #578C51",
"x. c #47AA4A",
"c. c #45BB45",
"v. c #4FB04C",
"b. c #53A155",
"n. c #608960",
"m. c #6E9465",
"M. c #799A66",
"N. c #7D907C",
"B. c #69A84C",
"V. c #65A855",
"C. c #6BBF54",
"Z. c #70A059",
"A. c #77A460",
"S. c #75B766",
"D. c #44C500",
"F. c #47C900",
"G. c #44C80B",
"H. c #48C600",
"J. c #4BCA00",
"K. c #4CD200",
"L. c #5BCC19",
"P. c #44C023",
"I. c #53C436",
"U. c #5AC13E",
"Y. c #63D02A",
"T. c #6AD131",
"R. c #72DF40",
"E. c #7FDD44",
"W. c #7AD150",
"Q. c #69C469",
"!. c #7CD27C",
"~. c #83B86B",
"^. c #87B979",
"/. c #8CBE73",
"(. c #80D54B",
"). c #80DC44",
"_. c #84DD49",
"`. c #80DC51",
"'. c #8ADE55",
"]. c #95E169",
"[. c #95EE6D",
"{. c #94E472",
"}. c #9EE57C",
"|. c #93F366",
" X c #A1F37E",
".X c #838284",
"XX c #8E8C8E",
"oX c #889281",
"OX c #8B9B8D",
"+X c #978E9A",
"@X c #909990",
"#X c #9A999A",
"$X c #9D95A0",
"%X c #8FB082",
"&X c #9DA2A1",
"*X c #A4A4A5",
"=X c #A7A7AB",
"-X c #A9A2AC",
";X c #A8A8A6",
":X c #ABABAC",
">X c #AFA4B1",
",X c #AEB2AB",
"<X c #AFB2B0",
"1X c #B0ACB1",
"2X c #B3B2B3",
"3X c #B4B9B4",
"4X c #B9B7B9",
"5X c #BBBABB",
"6X c #9ACF8D",
"7X c #93D595",
"8X c #9AD69C",
"9X c #9FE581",
"0X c #BBC0BE",
"qX c #BADCBA",
"wX c #A9E498",
"eX c #A6F487",
"rX c #C0BDC0",
"tX c #C4C3C4",
"yX c #C6C2C9",
"uX c #C7CAC7",
"iX c #CACACA",
"pX c #CFC9D0",
"aX c #CAD3CB",
"sX c #D2CFD2",
"dX c #D4D3D4",
"fX c #D5DAD5",
"gX c #DAD6DA",
"hX c #DFDCDF",
"jX c #E7E5E7",
"kX c #EDEBED",
"lX c #F7F9F8",
"zX c #F9F8FA",
"xX c None",
/* pixels */
"xXxXxXxXxXxXxXxXxXxXxXxXxXxXxXxXxXxXxXxXxXxXxXxXxXxXxXxXxXxXxXxX",
"xXxXxXxXxXxXxXxXxXxXxXxXxXxXxXxXxXxXxXxXxXxXxXxXxXxXxXxXxXxXxXxX",
"xXxXxXxXxXxXxXxXxXxXxXxXxXxXxXxXxXxXxXxXxXxXxXxXxXxXxXxXxXxXxXxX",
"xXxXxXxXxXxXxXxXxXxXxXxXxXxXxXxXxXxXxXxXxXxXxXxXxXxXxXxXxXxXxXxX",
"xXxXxXxXxXxXxXxXxXxXxXxXxXxXxXxXxXxXxXxXxXxXxXxXxXxXxXxXxXxXxXxX",
"xXxXxXxXxXxXxXxXxXxXxXxXxXxXxXxXxXxXxXxXxXxXxXxXxXxXxXxXxXxXxXxX",
"xXxXxXxXxXxXxXxXxXxXxXxXxXxXxXxXxXxXxXxXxXxXxXxXxXxXxXxXxXxXxXxX",
"xXxXxXxXxXxXxXxXxXxXxX+ 1 b n n n n n 2     xXxXxXxXxXxXxXxXxXxX",
"xXxXxXxXxXxXxXxX@ v f.T.`.[. XeXeX X|.W._ T 5 #   xXxXxXxXxXxXxX",
"xXxXxXxX8 XX{ P h.T.{.9X}.].'._.).E.W./.~.B.l._ U -   xXxXxXxXxX",
"xXxXxXxX8 zXlXj.G.Y.L.K.H.H.J.J.J.K.g.[ .XoXM.s.a./ 9 =   xXxXxX",
"xXxXxXxX5 jXkXOX,.r.H.G.J.J.J.J.J.K.i.7 9 q W ~ K >.M c :.+ xXxX",
"xXxXxXY @XdXdXdX-X) 0.D.D.F.H.H.H.K.9.h j j j g 6 m.wX6XI.f   xX",
"xX  G !.qXgXiXiXpX*X9.D.D.D.F.H.H.H.H.H.D.t.6.3.v.7X8X7XQ.V   xX",
"xXH c.p z.gXrX:X5X0Xw.u.u.t.u.u.u.u.u.r.1.p.) x.y.u w e @.c.z xX",
"; ;.p + * #XyX5X5X3Xw.t.4.P F D D C C ` &X>Xk.$.e .     :  .$.. ",
"e X.w   8 ^ .XiX0X,X7.3..X+X+X$X$X$X-XsXjXfX;.p o X ] 4   r %., ",
"e &., X iX{ } yX5X,X) N.1X2X;X*X,X1X2XdXhXaX-.p O % iX0 X e &.w ",
"w &.i % = q #XtX5X,XZ.;X2X4X:X;X;X:X*X*XyXiXy.| < $ 3 = & s O.: ",
"+ ..*.z 0 =XyXrX5X3X^.,X:X*X:X1X2X2X2X#X#X2Xb.X.#.l 3 5 B =.a . ",
"  w *.P.V.%XA.z.( E ! R R R T R R R ! R 0 J x p 8.U.S.C.j.o.:   ",
"    , @.<.m i >                               o y 2.e.q.p :     ",
"xX    . + + .     xXxXxXxXxXxXxXxXxXxXxXxXxXxX    o ; + .     xX",
"xXxX            xXxXxXxXxXxXxXxXxXxXxXxXxXxXxXxX          xXxXxX",
"xXxXxXxXxXxXxXxXxXxXxXxXxXxXxXxXxXxXxXxXxXxXxXxXxXxXxXxXxXxXxXxX",
"xXxXxXxXxXxXxXxXxXxXxXxXxXxXxXxXxXxXxXxXxXxXxXxXxXxXxXxXxXxXxXxX",
"xXxXxXxXxXxXxXxXxXxXxXxXxXxXxXxXxXxXxXxXxXxXxXxXxXxXxXxXxXxXxXxX",
"xXxXxXxXxXxXxXxXxXxXxXxXxXxXxXxXxXxXxXxXxXxXxXxXxXxXxXxXxXxXxXxX",
"xXxXxXxXxXxXxXxXxXxXxXxXxXxXxXxXxXxXxXxXxXxXxXxXxXxXxXxXxXxXxXxX",
"xXxXxXxXxXxXxXxXxXxXxXxXxXxXxXxXxXxXxXxXxXxXxXxXxXxXxXxXxXxXxXxX",
"xXxXxXxXxXxXxXxXxXxXxXxXxXxXxXxXxXxXxXxXxXxXxXxXxXxXxXxXxXxXxXxX",
"xXxXxXxXxXxXxXxXxXxXxXxXxXxXxXxXxXxXxXxXxXxXxXxXxXxXxXxXxXxXxXxX"
};
