/* XPM */
static char *ktuberling[] = {
/* columns rows colors chars-per-pixel */
"32 32 257 2",
"   c #000000",
".  c #0B0B0B",
"X  c #0B0707",
"o  c #0E0E11",
"O  c #0D1017",
"+  c #140B03",
"@  c #1C1402",
"#  c #17110B",
"$  c #131314",
"%  c #1C1C1C",
"&  c #161719",
"*  c #191E23",
"=  c #1B1F2A",
"-  c #0F1A25",
";  c #1C2423",
":  c #231903",
">  c #211F1D",
",  c #362708",
"<  c #2D230A",
"1  c #232322",
"2  c #2B2924",
"3  c #2B2B2C",
"4  c #2D2D30",
"5  c #373229",
"6  c #323333",
"7  c #353639",
"8  c #3C3C3C",
"9  c #373837",
"0  c #3D403D",
"q  c #1E4B78",
"w  c #4C1A13",
"e  c #432600",
"r  c #5C3A09",
"t  c #50370D",
"y  c #493619",
"u  c #403821",
"i  c #76301E",
"p  c #524113",
"a  c #5F430B",
"s  c #5D512E",
"d  c #554C35",
"f  c #714F18",
"g  c #795614",
"h  c #614415",
"j  c #675835",
"k  c #705F33",
"l  c #705C28",
"z  c #766332",
"x  c #434343",
"c  c #47474A",
"v  c #4C4E52",
"b  c #4F5255",
"n  c #525252",
"m  c #5B5C5B",
"M  c #555556",
"N  c #55534E",
"B  c #7F755F",
"V  c #636463",
"C  c #6A6B6B",
"Z  c #7B7B7A",
"A  c #1F5085",
"S  c #125697",
"D  c #0D4D90",
"F  c #0C58A9",
"G  c #135AA1",
"H  c #1763AC",
"J  c #176AB8",
"K  c #395D82",
"L  c #205EA1",
"P  c #2A67AA",
"I  c #266CB6",
"U  c #2574BD",
"Y  c #356CA8",
"T  c #257AC5",
"R  c #317FC8",
"E  c #456B89",
"W  c #506680",
"Q  c #5D7694",
"!  c #557FAF",
"~  c #4A7AB0",
"^  c #62788B",
"/  c #3083CE",
"(  c #2D82CC",
")  c #5782B1",
"_  c #628AB5",
"`  c #5A8DC7",
"'  c #549BDA",
"]  c #6999CD",
"[  c #7499C2",
"{  c #6599D3",
"}  c #7CA3CD",
"|  c #7EB4E4",
" . c #B92B1C",
".. c #885813",
"X. c #965F13",
"o. c #9A6414",
"O. c #856A27",
"+. c #906F2C",
"@. c #916F38",
"#. c #8E7230",
"$. c #BF5E2E",
"%. c #B0701B",
"&. c #B57C23",
"*. c #A17B2C",
"=. c #9D7F4C",
"-. c #8B7959",
";. c #887F74",
":. c #D0261A",
">. c #D23122",
",. c #E7331F",
"<. c #D74428",
"1. c #CA7E19",
"2. c #D67039",
"3. c #EF442D",
"4. c #F04730",
"5. c #F75E4F",
"6. c #F5654B",
"7. c #B28427",
"8. c #AD8731",
"9. c #90805F",
"0. c #878579",
"q. c #9B8E7B",
"w. c #B48645",
"e. c #BA9B47",
"r. c #A28941",
"t. c #A8986C",
"y. c #BDA35C",
"u. c #B9A97C",
"i. c #C88321",
"p. c #D28E3C",
"a. c #D9962C",
"s. c #D29A33",
"d. c #DB9D32",
"f. c #D99935",
"g. c #CC8C2A",
"h. c #DAA335",
"j. c #DCA93B",
"k. c #DCA439",
"l. c #DEB03E",
"z. c #CDA33A",
"x. c #E3982C",
"c. c #E3A233",
"v. c #E1AA39",
"b. c #E9A935",
"n. c #E1B13C",
"m. c #F4B037",
"M. c #DEAB4C",
"N. c #DCA545",
"B. c #DEA957",
"V. c #DDB142",
"C. c #C4A578",
"Z. c #D8A967",
"A. c #D6B472",
"S. c #F6985B",
"D. c #FA8178",
"F. c #E1AD42",
"G. c #E4A948",
"H. c #E1AD55",
"J. c #E0A855",
"K. c #E2B54B",
"L. c #E6B94A",
"P. c #E5BE59",
"I. c #E4B356",
"U. c #E7B768",
"Y. c #E6B771",
"T. c #F2B964",
"R. c #E8C559",
"E. c #EDC655",
"W. c #E9C463",
"Q. c #EAC56C",
"!. c #EBC96A",
"~. c #EECD74",
"^. c #E8C575",
"/. c #F1CA63",
"(. c #F0CD72",
"). c #F4D57B",
"_. c #8B8A8B",
"`. c #939493",
"'. c #999898",
"]. c #94928B",
"[. c #8294A2",
"{. c #A89F88",
"}. c #ACA389",
"|. c #BFB18A",
" X c #B2AA94",
".X c #A4A4A4",
"XX c #AAABAB",
"oX c #AEA9A6",
"OX c #A2AFBE",
"+X c #ACB5BE",
"@X c #B6B5B5",
"#X c #BCBBBA",
"$X c #BAB5AC",
"%X c #8AB3DA",
"&X c #9CAFC2",
"*X c #94B3D6",
"=X c #89ADD7",
"-X c #92B7E1",
";X c #A1BDDC",
":X c #B6BEC7",
">X c #A6C0DC",
",X c #A8C0DF",
"<X c #B9C8D9",
"1X c #B5CAE2",
"2X c #B7D1E9",
"3X c #D7BB96",
"4X c #C0BEBC",
"5X c #FB9484",
"6X c #F8B282",
"7X c #FFA9A5",
"8X c #FEB1B6",
"9X c #F1BCA5",
"0X c #FFBFC7",
"qX c #DEC480",
"wX c #DCCA94",
"eX c #D9CAAD",
"rX c #E1D18D",
"tX c #ECD497",
"yX c #F2D382",
"uX c #FEC59A",
"iX c #F9CEA2",
"pX c #FFF7BD",
"aX c #F8EDBC",
"sX c #C4C3C3",
"dX c #CBCBCA",
"fX c #CDD1D4",
"gX c #D8D2C8",
"hX c #D8D5D3",
"jX c #DBDBDB",
"kX c #D3D5D8",
"lX c #D2CEC6",
"zX c #CBD8E8",
"xX c #CFDFF2",
"cX c #DDE2E8",
"vX c #E5DCC4",
"bX c #E3DEDD",
"nX c #E0DFE0",
"mX c #E4E1DB",
"MX c #E8E2D1",
"NX c #FFF1C2",
"BX c #FDF2CD",
"VX c #FFFADE",
"CX c #FEF0D3",
"ZX c #EBEBEB",
"AX c #E6E5E4",
"SX c #E7EDF4",
"DX c #EBF2FA",
"FX c #F2F1EF",
"GX c #FBF5E9",
"HX c #F4F4F4",
"JX c #F3F6F9",
"KX c #F9F5F1",
"LX c #FBF8F4",
"PX c #FCFDFD",
"IX c #F5F9FD",
"UX c #F0ECE6",
"YX c None",
/* pixels */
"YXYXYXYXYXYXYXYXYXYXYXYXYXYX  & 2 $   YXYXYXYXYXYXYXYXYXYXYXYXYX",
"YXYXYXYXYXYXYXYXYXYXYXYXYX. 9 M V V 0 o YXYXYXYXYXYXYXYXYXYXYXYX",
"YXYXYXYXYXYXYXYXYXYX  .   o 1 4 9 9 6 >   X   YXYXYXYXYXYXYXYXYX",
"YXYXYXYXYXYXYXYXYX  1 x 1 . X . . . . . ; 0 > YXYXYXYX  Z ;   YX",
"YXYXYXYXYXYXYXYXYX  % 6 x 0 3 1 > 1 3 8 x 6 $   YX  Z V sX`.'.1 ",
"YXYXYXYXYXYXYXYXYX    $ & 2 9 0 0 0 7 3 & o     YX  _.ZXXX#XdX6 ",
"YXYXYXYXYXYXYXYXYX    z k 5 $ $ & & % 5 k z     YX    `.kXAX.X  ",
"YXYXYXYXYXYXYXYXYXYX, L.A.u.3X}.{.}.t.u.Q.L.< YXYX  8 Z ZXHX.X  ",
"YXYXYXYXYXYXYXYXYXYXz j > 1 N MXVX0.2 1 5 y.l YXYXn ZXAXZXPX@X  ",
"YXYXYXYXYXYXYXYXYX: e.B #XdXq.eXBX}.$XfX;.t.e.  YXx '.V AXJXC   ",
"YXYXYXYXYXYXYXYXYXO./.CXPXIXGXpXNXVXPXPXGXyX/.p YX      ].C.4 YX",
"YXYXYXYXYXYXYXYX< K.Q.AXZXdXjXaXNXMXZXdXjXtX).e.        r o.  YX",
"YXYXYXYXYXYXYXYX+./.^.lXv 6 4XiXuXgXC 3 XXtXyX/.p YXYX+ i...  YX",
"YXYXYXYXYXYXYX: N.Q.W.wXc x eX7X7X9XC 7  XyX~.~.7.a g %.x., YXYX",
"YXYXYXYXYX: ..i.I.U.P.W.qXrX6X8XvX5XtXwXyX!.W.Q.L.b.m.s.t   YXYX",
"YXYXYXYXr i.x.x.M.K.V.R.!.T.6.D.5X6.S.).~.W.P.P.n.7.g :     YXYX",
"YXYXYXr x.i.X.&.F.V.V.K.R.2.,.3.3.,.>.Q.R.P.K.K.j.,       YXYXYX",
"YXYX  1.%.+   f c.h.j.l.E.2. .>.>.:.2./.R.L.l.j.d., YXYXYXYXYXYX",
"YXYXX 1.e     h c.d.k.j.z.#.y w i w s r.V.n.k.v.s.+ YXYXYXYXYXYX",
"YXYXc 3XN YXYX, f.d.k.O.3 ; - 1 ; & O & u 8.v.c.7.o YXYXYXYXYXYX",
"YX  .XPX`.    # &.d.f.g.+.d M b c b m j *.s.k.c.@.c YXYXYXYXYXYX",
"YXc HXHXnX@XsXQ q.x.f.h.v.j.qXvXmXgX^.K.F.h.d.f.[.[ ^   YXYXYXYX",
"YXV LXFXLXHX:X] _ w.x.f.N.N.G.G.L.G.G.H.M.F.c.-.~ ` { ! - YXYXYX",
"  Z PXIXsX&X_ Y P K 8.G.B.B.B.N.N.N.B.I.H.G.=.A L P I ` &X3 YXYX",
"1 fXkXjXLXsX+X) G D q -.J.I.U.U.Y.Y.Y.T.B.-.D D F F [ kXFX#X  YX",
"3 oXXXZXsXIXeXhX} H S S W 0.C.Y.Z.Z.A.0.E S H J U ;XUXAXAXPXb YX",
"  . m fXkX#X:XnXKX%XT U J U 2X;.@ + oX%XJ T ( / 2XLXFXFXLXxXC YX",
"    X :X=X<XcXHXPXJX' / } SXhX%     x HXzX' ( %XPXPXLXSX1X-X[.  ",
"YXYX  Z IX;X*X;X,X;X,XcXPXsX3   YXYX  n bXPXzX;X;X;X;X*X1XJXx YX",
"YXYX  X `.PXPXSXSXPXPXhXC .     YXYX    % _.AXPXIXDXDXPXHXV   YX",
"YXYXYX    c '.#X#X'.M $     YXYXYXYXYXYX    > C .X#X@X_.4     YX",
"YXYXYXYX                YXYXYXYXYXYXYXYXYX                  YXYX"
};
