/* XPM */
static char *kwin4-16[] = {
/* columns rows colors chars-per-pixel */
"16 16 213 2",
"   c black",
".  c #000003",
"X  c #000004",
"o  c #000021",
"O  c #000022",
"+  c #000023",
"@  c #000024",
"#  c #000025",
"$  c #000026",
"%  c #000027",
"&  c #000028",
"*  c #000029",
"=  c #00002A",
"-  c #00002B",
";  c #00002E",
":  c #000031",
">  c #000072",
",  c #000074",
"<  c #000075",
"1  c #000077",
"2  c #3E437B",
"3  c #41306C",
"4  c #72394A",
"5  c #00008C",
"6  c #00008D",
"7  c #000093",
"8  c #000095",
"9  c #0000B0",
"0  c #0024BE",
"q  c #0037C8",
"w  c #003BC4",
"e  c #003BE5",
"r  c #0044B9",
"t  c #184CBD",
"y  c #0044C7",
"u  c #0043C8",
"i  c #0045CE",
"p  c #004BC9",
"a  c #0049D2",
"s  c #0C5CCF",
"d  c #0050D1",
"f  c #0051D5",
"g  c #0454D0",
"h  c #0056D8",
"j  c #015DD1",
"k  c #005DD5",
"l  c #045BD2",
"z  c #0D5CD2",
"x  c #0E5EDD",
"c  c #1156CD",
"v  c #004DF2",
"b  c #004FF7",
"n  c #005EE2",
"m  c #005EFD",
"M  c #0D5CF5",
"N  c #1157EF",
"B  c #056CDC",
"V  c #0C69D8",
"C  c #166DDC",
"Z  c #006AE3",
"A  c #0064F5",
"S  c #0064FF",
"D  c #006DF4",
"F  c #006EFC",
"G  c #006EFF",
"H  c #006FFF",
"J  c #0F74E6",
"K  c #0A72FF",
"L  c #0F7BFF",
"P  c #146EFF",
"I  c #1F6FFD",
"U  c #1977FF",
"Y  c #2A5CCB",
"T  c #3379D8",
"R  c #3D70D2",
"E  c #3F72D5",
"W  c #3B6AF2",
"Q  c #3272F9",
"!  c #3176FD",
"~  c #3B71F7",
"^  c #57578C",
"/  c #4F7BAE",
"(  c #447BD8",
")  c #557ED7",
"_  c #517ED8",
"`  c #4271F4",
"'  c #4C73F5",
"]  c #506FF5",
"[  c #546CFC",
"{  c #5374F2",
"}  c #5779F6",
"|  c #1D84DE",
" . c #1A9BFF",
".. c #1FA3FF",
"X. c #3F86DE",
"o. c #2780E2",
"O. c #249EF7",
"+. c #3285FF",
"@. c #3582FE",
"#. c #3786FF",
"$. c #3A82F4",
"%. c #3D85F5",
"&. c #3A84FD",
"*. c #3A87FE",
"=. c #3A8AFF",
"-. c #329CF0",
";. c #379CFF",
":. c #3D9CFF",
">. c #21AAFF",
",. c #5286D1",
"<. c #5785D8",
"1. c #5E85D9",
"2. c #4584F1",
"3. c #418DFF",
"4. c #4896FF",
"5. c #4F95FF",
"6. c #4E97FF",
"7. c #5D8BE8",
"8. c #578FF0",
"9. c #5DA0DD",
"0. c #42A3FF",
"q. c #4DA1FF",
"w. c #42B6FF",
"e. c #6285D6",
"r. c #6585D7",
"t. c #6088DB",
"y. c #648AD9",
"u. c #738CD7",
"i. c #7490D8",
"p. c #7593DB",
"a. c #7690D8",
"s. c #7795DB",
"d. c #7996DC",
"f. c #7A95DC",
"g. c #7E95DA",
"h. c #628EE7",
"j. c #6381F5",
"k. c #6983F4",
"l. c #6E91E5",
"z. c #6F92E5",
"x. c #7CACDB",
"c. c #6AA8EE",
"v. c #6FC2FF",
"b. c #A54E45",
"n. c #FF5A00",
"m. c #FF5B00",
"M. c #FF6100",
"N. c #FF6700",
"B. c #FF6D00",
"V. c #FF7000",
"C. c #FF7108",
"Z. c #B07D88",
"A. c #FF982A",
"S. c #FF992F",
"D. c #9C8DAE",
"F. c #918EB1",
"G. c #928EBE",
"H. c #AA8492",
"J. c #A7909D",
"K. c #AD95AD",
"L. c #8094DA",
"P. c #8197DB",
"I. c #8295DA",
"U. c #8197DC",
"Y. c #8398DA",
"T. c #979ED2",
"R. c #8C9CE8",
"E. c #8D9FE8",
"W. c #8D9FEA",
"Q. c #88A0DE",
"!. c #9CB5DD",
"~. c #8BA0E1",
"^. c #8DA1E2",
"/. c #8FA1E4",
"(. c #8DA0E9",
"). c #90A0E2",
"_. c #90A1EB",
"`. c #93ADEC",
"'. c #97AEEC",
"]. c #99AAE0",
"[. c #9CAFE2",
"{. c #9BB1E4",
"}. c #A3A4CE",
"|. c #A5B1E3",
" X c #A5B1E4",
".X c #A6B2E5",
"XX c #A7B3E4",
"oX c #A7B3E5",
"OX c #A7B5E3",
"+X c #A6B4E4",
"@X c #A8B7E9",
"#X c #A6B4F0",
"$X c #85C2FF",
"%X c #94D5FF",
"&X c #C18D8E",
"*X c #C28C8E",
"=X c #C98B86",
"-X c #FFC697",
";X c #FFCE9E",
":X c #C3CCEA",
">X c #C6D0E5",
",X c #C5D5E7",
"<X c #C5D0ED",
"1X c #F2F0EC",
"2X c #F4F1EB",
"3X c LightYellow",
"4X c #FFFFE1",
"5X c #FFFFE4",
"6X c #FFFFED",
"7X c #FFFEEE",
"8X c ivory",
"9X c #FFFFF1",
"0X c #FFFFF3",
/* pixels */
"o 7 > , > , , , 8 6 6 6 6 6 9 @ ",
"* [ #XR.W.W.W._.).).^.^.~.@X' * ",
"o k.:X|.XXOX.X`.'.oXoXoXoX:Xj.o ",
"@ { ].L.L.U.l.}.T.z.Y.Y.U.[.} o ",
"o ' Q.u.a.7.K.;X-XG.h.a.f.{.W @ ",
"@ ` s.e.r.2.*XA.S.D.8.f.p.Y e * ",
"* ~ y.) 1.t.$.J.F.%.E y 0 w N * ",
"* Q <._ R x t =XZ.q i >X!.u M ; ",
"@ ! ( c p v b.C.V.3 $X0X0X,.b * ",
"* U z g z A ^ m.m.r c.4X4XT m @ ",
"@ P k p f l F Z D F a X.C h U @ ",
"@ K V 2X0XJ j *XH.n o.1X,XB L @ ",
"@ S x.5X3Xv.4 N.M.2 %X4X4X9.F @ ",
"@  .-.0X0X>./ N.B.| w.6X0XO...o ",
": 5.3.@.#.&.;.q.0.:.*.*.+.4.6.; ",
"              X                 "
};
