/* XPM */
static char *lskat-16[] = {
/* columns rows colors chars-per-pixel */
"16 16 200 2",
"   c black",
".  c #070700",
"X  c #040900",
"o  c #091300",
"O  c #0A1100",
"+  c #101C00",
"@  c #161616",
"#  c #132500",
"$  c #172900",
"%  c #182203",
"&  c #192403",
"*  c #182A00",
"=  c #1A2A00",
"-  c #1B2B04",
";  c #1A2C00",
":  c #1B2C00",
">  c #1B2D00",
",  c #1E2A06",
"<  c #1C2F00",
"1  c #1F2F09",
"2  c #1F3309",
"3  c #203006",
"4  c #243407",
"5  c #263D01",
"6  c #293E09",
"7  c #31480C",
"8  c #344D0D",
"9  c #354E0E",
"0  c #374520",
"q  c #404C2E",
"w  c #44512F",
"e  c #447700",
"r  c #487A00",
"t  c #497B00",
"y  c #4F7A0A",
"u  c #4F4C4C",
"i  c #515941",
"p  c #595050",
"a  c #666161",
"s  c #6A6C6C",
"d  c gray44",
"f  c #747474",
"g  c gray47",
"h  c #588B07",
"j  c #58890B",
"k  c #5A8A0D",
"l  c #5F8E12",
"z  c #638F1A",
"x  c #628F1E",
"c  c #609806",
"v  c #639C09",
"b  c #679E0C",
"n  c #649319",
"m  c #679D14",
"M  c #648730",
"N  c #6A9920",
"B  c #6F9F24",
"V  c #729A34",
"C  c #77993E",
"Z  c #69A00E",
"A  c #69A010",
"S  c #6BA114",
"D  c #6BA214",
"F  c #6CA114",
"G  c #6DA017",
"H  c #6FA418",
"J  c #6FA518",
"K  c #74A71F",
"L  c #75A81E",
"P  c #76A42E",
"I  c #7BAC28",
"U  c #7FAF2C",
"Y  c #7DAE31",
"T  c #7EAB39",
"R  c #769347",
"E  c #7F9561",
"W  c #7F84AD",
"Q  c #F21818",
"!  c #F36868",
"~  c #F47A7A",
"^  c #F57F80",
"/  c #82B530",
"(  c #82B433",
")  c #86B835",
"_  c #839F55",
"`  c #83AB46",
"'  c #84AB48",
"]  c #89A55F",
"[  c #88A953",
"{  c #89AB53",
"}  c #8CAA5C",
"|  c #91B25E",
" . c #88A460",
".. c #8AA460",
"X. c #8DA667",
"o. c #91AB68",
"O. c #90A86F",
"+. c #9CB871",
"@. c #9EBA73",
"#. c #9FBA73",
"$. c #A4BE7C",
"%. c #A5BF7F",
"&. c #A6C17D",
"*. c #898789",
"=. c #8A8B8B",
"-. c #969698",
";. c #989191",
":. c #8087A7",
">. c #9599B2",
",. c #969DBE",
"<. c #9BAC81",
"1. c #9AA1AB",
"2. c #9BA1B2",
"3. c #ACBA98",
"4. c #A2A4A4",
"5. c #A3A4A4",
"6. c #A3A5A5",
"7. c #A2A6A6",
"8. c #A5A7A7",
"9. c #A6A0B3",
"0. c #BBB7B7",
"q. c #A8C181",
"w. c #ABC285",
"e. c #AFC48D",
"r. c #BFC9B0",
"t. c #F58E8E",
"y. c #F29696",
"u. c #F49191",
"i. c #F19A9A",
"p. c #F59898",
"a. c #F99E9E",
"s. c #F4A7A7",
"d. c #F7A7A7",
"f. c #F3A9A9",
"g. c #F1AFAF",
"h. c #F2AFAF",
"j. c #F4AFAF",
"k. c #F7AFAF",
"l. c #FBA3A3",
"z. c #FAABAB",
"x. c #FAACAC",
"c. c #FAAFAF",
"v. c #F0B2B2",
"b. c #F4B2B2",
"n. c #F5B6B6",
"m. c #F7B6B6",
"M. c #F8B1B1",
"N. c #F9B2B2",
"B. c #F8B9B9",
"V. c #FABBBA",
"C. c #FBBABA",
"Z. c #C2CBB2",
"A. c #C3CDB3",
"S. c #CCD6BA",
"D. c #CDD6BE",
"F. c #D2D5D0",
"G. c #D2D5D2",
"H. c #DDD5D8",
"J. c #DFE6DB",
"K. c #E0D5D7",
"L. c #E0DFD9",
"P. c #EFDADC",
"I. c #F7C0C0",
"U. c #F3C9C9",
"Y. c #F4CFCF",
"T. c #E3E1E7",
"R. c #E8E8EB",
"E. c #EEEEEE",
"W. c #F5E9E9",
"Q. c #F5E9EA",
"!. c #FAE3E3",
"~. c #F9E4E4",
"^. c #F9E8E8",
"/. c #FAE8E8",
"(. c #F8E9EC",
"). c #FBECEA",
"_. c #FBEDEE",
"`. c #F0EEF6",
"'. c #F4F4F6",
"]. c #F6F6F9",
"[. c #F6F7FB",
"{. c #F3FFFF",
"}. c #F4FFFF",
"|. c #FAF6F6",
" X c #FDF1F0",
".X c #FDF3F3",
"XX c #FEF3F3",
"oX c #FFF4F4",
"OX c #FFF6F6",
"+X c #FFF7FA",
"@X c #F9FAFA",
"#X c #FAF8F8",
"$X c snow",
"%X c #FDFBFD",
"&X c #FFF8FF",
"*X c #FFFBFF",
"=X c #FCFFFF",
"-X c #FFFCFC",
";X c gray100",
":X c None",
/* pixels */
":X:X:X:X:X:X:X:X:X:X:X:X:X:X:X:X",
"@ ;.8.7.7.7.8.-.q 1 2 1 1 1 &   ",
"u p.!.~.~.^._.%XA.+.&.q.%.w.] . ",
"p ~ i.v.g.g.y.Q.F.D.e.#.+.$.o.o ",
"a I.f.{.{.}.s.Q.2.H.'.S.{ | } + ",
"s |.b.U.! Y.k.^.:.1.`.Z.V ' { % ",
"d .Xn.u.Q t.m.).W 2.E.R B P ' , ",
"f OXk.@Xd.@XM..X,.T.Z.k D m T 4 ",
"g +XM.=X=X=XC.V.9.]._ c b b Y 6 ",
"=.%Xa.z.x.c.l.^ P.J.n J D b ( 7 ",
"*.=X=X&X+XXXXXB.H.E m L J A ) 8 ",
"w ] ] X.O.R.[.H.0.C U I L m ( 8 ",
"< t e t y M 3.F.<.n N n z j h 5 ",
"X < < $ - # , i 0 $ $ $ $ $ < O ",
":X:X:X:X:X:X:X:X:X:X:X:X:X:X:X:X",
":X:X:X:X:X:X:X:X:X:X:X:X:X:X:X:X"
};
