/* XPM */
static char *lskat[] = {
/* columns rows colors chars-per-pixel */
"32 32 255 2",
"   c #000000",
".  c #080805",
"X  c gray6",
"o  c #061100",
"O  c #0F160F",
"+  c #0A1800",
"@  c #131313",
"#  c #1A1A1A",
"$  c #132500",
"%  c #1A2B00",
"&  c #1C3000",
"*  c #243B00",
"=  c #2E2E2B",
"-  c #3C3D3C",
";  c #2D4B00",
":  c #315000",
">  c #355309",
",  c #365901",
"<  c #39570A",
"1  c #3B5E03",
"2  c #3A590A",
"3  c #3E6402",
"4  c #3D6900",
"5  c #3B4444",
"6  c #425A1E",
"7  c #455A25",
"8  c #456F01",
"9  c #446A0A",
"0  c #437300",
"q  c #497502",
"w  c #4A7209",
"e  c #4D7D02",
"r  c #4E790A",
"t  c #4D7311",
"y  c #517F08",
"u  c #507317",
"i  c #54771B",
"p  c #55791B",
"a  c #506F21",
"s  c #58742C",
"d  c #5B7B27",
"f  c #5E7932",
"g  c #444444",
"h  c #4C4C4A",
"j  c #545454",
"k  c #565955",
"l  c #595B5B",
"z  c #5C6D44",
"x  c #6A7A52",
"c  c #787C7D",
"v  c #727C84",
"b  c #4F8101",
"n  c #518202",
"m  c #55840A",
"M  c #5B8C0D",
"N  c #5C8B13",
"B  c #5D900F",
"V  c #5F9806",
"C  c #628E1A",
"Z  c #63970E",
"A  c #619B07",
"S  c #649C0B",
"D  c #689E0E",
"F  c #609411",
"G  c #65941B",
"H  c #669A14",
"J  c #699F10",
"K  c #6A9E1A",
"L  c #648C21",
"P  c #668731",
"I  c #6A8F35",
"U  c #6C8A3A",
"Y  c #6A9723",
"T  c #6D9E22",
"R  c #6F9B29",
"E  c #6E9137",
"W  c #73913E",
"Q  c #749D33",
"!  c #739838",
"~  c #6BA113",
"^  c #6EA219",
"/  c #72A51C",
"(  c #72A423",
")  c #75A32C",
"_  c #76A821",
"`  c #79AB25",
"'  c #7BAB2B",
"]  c #77A332",
"[  c #78A334",
"{  c #7CA43C",
"}  c #7EA83C",
"|  c #6A8443",
" . c #748A4F",
".. c #76875B",
"X. c #7C9B4B",
"o. c #7C8271",
"O. c #7F9262",
"+. c #7DA044",
"@. c #7A83A3",
"#. c #7C81AB",
"$. c #F31F1F",
"%. c #F22323",
"&. c #F23030",
"*. c #F34444",
"=. c #FB5252",
"-. c #EF6D6D",
";. c #F16464",
":. c #F36C6C",
">. c #F47272",
",. c #F47E7E",
"<. c #FB7A7A",
"1. c #876A90",
"2. c #83AD3D",
"3. c #82B034",
"4. c #86B339",
"5. c #8AB63F",
"6. c #9AA13B",
"7. c #81965F",
"8. c #829465",
"9. c #85946F",
"0. c #80A642",
"q. c #83A947",
"w. c #85AB48",
"e. c #82A251",
"r. c #87AA50",
"t. c #8AAD53",
"y. c #8EAD5C",
"u. c #8CB64B",
"i. c #8EB94D",
"p. c #8EB156",
"a. c #90BA4F",
"s. c #90B654",
"d. c #90B05E",
"f. c #92BA53",
"g. c #97BF58",
"h. c #93A17B",
"j. c #97AD74",
"k. c #98A77E",
"l. c #94B461",
"z. c #96B26A",
"x. c #98B66B",
"c. c #9AB86C",
"v. c #9DB775",
"b. c #9EB974",
"n. c #AFB760",
"m. c #A1BC77",
"M. c #A2BB7A",
"N. c #858F8F",
"B. c #8E9494",
"V. c #9F9E87",
"C. c #939191",
"Z. c #929898",
"A. c #9B9393",
"S. c #8F96BD",
"D. c #9598A5",
"F. c #9298BC",
"G. c #999BB6",
"H. c #99A686",
"J. c #9DA592",
"K. c #AE9EB2",
"L. c #A0A894",
"P. c #A6BE82",
"I. c #A9BF86",
"U. c #AABC8C",
"Y. c #A8B790",
"T. c #A9B39B",
"R. c #AEB89F",
"E. c #A2A3A3",
"W. c #A7A8A8",
"Q. c gray68",
"!. c #B7AFAF",
"~. c #B1B3AC",
"^. c #B2B2B3",
"/. c #B6B5B9",
"(. c #BCBCBC",
"). c #A2ADC7",
"_. c #A4AED4",
"`. c #BFBEC0",
"'. c #ABC386",
"]. c #B2C791",
"[. c #B5CA95",
"{. c #B9CB9C",
"}. c #BECBA9",
"|. c #BEC0C1",
" X c #BDC2CB",
".X c #D89494",
"XX c #CFB4B4",
"oX c #D7ABAB",
"OX c #D4B0B0",
"+X c #E28080",
"@X c #E79999",
"#X c #F28A8A",
"$X c #F69090",
"%X c #F49B9B",
"&X c #F99292",
"*X c #F99B9B",
"=X c #EFA4A4",
"-X c #F3A3A3",
";X c #F5A8A8",
":X c #FBA3A3",
">X c #FAABAB",
",X c #F3B2B2",
"<X c #F0BCBC",
"1X c #FAB1B1",
"2X c #F9BBBB",
"3X c #C4CBBB",
"4X c #C2D2A9",
"5X c #C4C4C4",
"6X c #C9CCC5",
"7X c #CDCCCC",
"8X c #CFD7C3",
"9X c #CDD0C9",
"0X c #CFD2D0",
"qX c #D6CDD2",
"wX c #D1D7C9",
"eX c #D5D5D4",
"rX c #D4D6DA",
"tX c #D6D8D3",
"yX c #D4D8DD",
"uX c #DCD0D0",
"iX c #D9DAD5",
"pX c #DBDBDA",
"aX c #DDDBE0",
"sX c #DBE0D5",
"dX c #DFE0DD",
"fX c #EFC1C1",
"gX c #E1D6D5",
"hX c #EDD3D3",
"jX c #ECDBDB",
"kX c #F1C0C0",
"lX c #F0CBCB",
"zX c #FBCACA",
"xX c #F3D6D6",
"cX c #F4DBDB",
"vX c #FBD3D3",
"bX c #FADADA",
"nX c #E4E4E5",
"mX c #E7E6E8",
"MX c #E1EBEB",
"NX c #ECE7E7",
"BX c #E8E6EB",
"VX c #E9E8E7",
"CX c #EAEAEA",
"ZX c #EFF5F5",
"AX c #F5E6E6",
"SX c #F3EBEB",
"DX c #F9E6E6",
"FX c #FEEDED",
"GX c #F2F3F4",
"HX c #F4F1F8",
"JX c #F3FBFB",
"KX c #FDF1F1",
"LX c #F8F7F9",
"PX c #FCFDFD",
"IX c None",
/* pixels */
"IXIXIXIXIXIXIXIXIXIXIXIXIXIXIXIXIXIXIXIXIXIXIXIXIXIXIXIXIXIXIXIX",
"IXIXIXIXIXIXIXIXIXIXIXIXIXIXIXIXIXIXIXIXIXIXIXIXIXIXIXIXIXIXIXIX",
"IXIX5 l k j l j j j j j j j j - IXIXIXIXIXIXIXIXIXIXIXIXIXIXIXIX",
"IXg gXjXCXCXCXVXCXVXVXmXnXmXnXrXx < 2 < < 2 2 2 < > > > > *   IX",
"IXN.1X@XJXZXGXZXZXZXZXJXGXZXZXPXwXj.'.'.'.].'.'.'.P.M.M.[.I o IX",
"  B.&X+XjXfXfXlXlXlXlXlXhXcXGXLX7XO.M.'.'.'.I.I.I.I.I.I.4XX.o IX",
"  C.bXhX=X,X<X<XfX<X,X,X<X#XcXJXiXJ.U.m.c.b.m.m.m.m.v.v.{.e.+ IX",
"  A.=.;.,XCXJXGXJXZXZXJXJX-XcXLXrX^.nXiX4XM.z.x.x.x.z.z.].e.+ IX",
"@ E.:X-X,XSXGXGXGXGXGXGXJX;XcXPXeX^.nXGXHXCX8Xz.d.l.d.y.I.r.$ IX",
"@ W.PXGX,XSXGXGXGXJXGXGXJX;XAXJXwXV.tXSXGXCXPXY.X.t.t.w.M.y.& IX",
"X Q.PXSX,XGXGXAXxXxXSXLXJX;XcXPXeX6.n.G.pXGXGX8.! w.q.0.c.p.* IX",
"@ Q.PXAX,XGXGX:.&.&.,.LXPX,XxXPXpX@.).F.7XPXtXs Q } { { l.p.* IX",
"@ /.PXSX1XLXGX*.%.%.*.GXLX,XcXPXaXv _. XVXPXH.i ] ] ] Q p.f.* IX",
"# (.PXAX,XLXJX-X%.$.&XLXPX1XbXPXqX1.S.yXPXmXf C ) ) ( T w.f.; IX",
"# (.PXAX,XJXLXPX;X*XLXLXPX2XvXPXgXK.F.BXPXR.w H ^ ^ ^ H } s.,   ",
"# 5XPXDX,XPXLXPXPXPXLXPXPX<XvXPXqXv 7XPXLX| b ~ ~ ~ S Z ) i.1   ",
"# 5XPXDX2XPXLXPXLXPXPXPXPX2XbXPXaXD.mXPX3Xw Z ~ D D A A / i.9   ",
"# 7XPXDX,XPXPXPXPXPXPXPXPXzX1X<.XX`.PXPX7.n ~ ~ D D D A ( a.w   ",
"= eXPXDX>XPXPXPXPXPXPXPXPXvX&X=..XMXPXiXp H / / ~ ~ ~ S ( a.y   ",
"g eXPXKX*X1X>X:X>X>X1X>X1X*XzXbXuXGXPXk.m / / / ~ ~ ~ D / f.m   ",
"g rXPXPXKXKXKXFXFXFXFXFXFXKXvX:.OXv wXU G _ / / / ^ ~ S / f.M   ",
"- `.PXPXPXPXPXPXPXPXPXPXPXPXFX>.!.- o.L ( _ / / / ~ ~ D / g.B   ",
"= x 6XpXeXpXpXnXBXCXVXVXCXCXNXoX^./. .G ` ` _ / / / ^ ~ ^ g.F   ",
"O u P w r i d d ..~.aXCXVXnXiXZ.mXpXW 2.5.4.3.3.` _ ^ ~ ^ u.B o ",
"  1 e q q q y y r t | T.mXPXLX5XHXh.I } } [ Q R Y G N N m m q   ",
"  , n n n n n n n e 0 4 a 9.9XCXJ.9 e n b n b b b b b e e e 0   ",
"  % : : : : : : : : : : ; ; 7 z 6 > : : : : : : : : : : : , *   ",
"                        . # - j h #                             ",
"IXIXIXIXIXIXIXIXIXIXIXIXIXIXIXIXIXIXIXIXIXIXIXIXIXIXIXIXIXIXIXIX",
"IXIXIXIXIXIXIXIXIXIXIXIXIXIXIX    IXIXIXIXIXIXIXIXIXIXIXIXIXIXIX",
"IXIXIXIXIXIXIXIXIXIXIXIXIXIXIXIXIXIXIXIXIXIXIXIXIXIXIXIXIXIXIXIX",
"IXIXIXIXIXIXIXIXIXIXIXIXIXIXIXIXIXIXIXIXIXIXIXIXIXIXIXIXIXIXIXIX"
};
