/* XPM */
static char *akregator-16[] = {
/* columns rows colors chars-per-pixel */
"16 16 50 1",
"  c black",
". c #131317",
"X c #21212E",
"o c gray32",
"O c #58586A",
"+ c #555578",
"@ c #7C7C93",
"# c #F91A00",
"$ c #FF7C00",
"% c #82828D",
"& c #80809B",
"* c #92929E",
"= c #9B9BAF",
"- c #A2A2AE",
"; c #A7A7BC",
": c #B1B1C3",
"> c #B2B2C4",
", c #BDBDC7",
"< c #BDBDCC",
"1 c #BDBDCD",
"2 c #C0A0A4",
"3 c #E4B9AB",
"4 c #E4C49A",
"5 c #C5C5C9",
"6 c #C2C2D2",
"7 c #C5C3D1",
"8 c #C4C4D1",
"9 c #C6C6D3",
"0 c #C6C6D4",
"q c #C9C7D5",
"w c #CECEDA",
"e c #D0CDD9",
"r c #D3CED8",
"t c #D2D2D9",
"y c #D4D2DB",
"u c #D7D7DF",
"i c #DAD0D5",
"p c #D9D9E0",
"a c #DADAE2",
"s c #DCDCE4",
"d c #E0CFC9",
"f c #E5DBE0",
"g c #E3E3E9",
"h c #E4E4E9",
"j c #EAEAEF",
"k c #EDECF1",
"l c #EDEDF1",
"z c #F2F2F4",
"x c gray100",
"c c None",
/* pixels */
"cccccccccccccccc",
"cccccccccccccccc",
"cccccccccccccccc",
"                ",
"############3fp:",
"#xxx$xx$xx$$dkzw",
"#x$x$x$$x$$$i5%.",
"#xx$$$x$$x$4yt  ",
"#x$x$xx$xx$ejk8X",
"#$$$$$$$$$e,-91 ",
"######28q0gs    ",
"      1puohg@   ",
"      =p> *8O   ",
"      +;&       ",
"cccccc         c",
"cccccc        cc"
};
