/* XPM */
static char *akregator[] = {
/* columns rows colors chars-per-pixel */
"32 32 210 2",
"   c #000000",
".  c #05050A",
"X  c #0D0D0D",
"o  c #111115",
"O  c #25252F",
"+  c #2A2A30",
"@  c #32323B",
"#  c #3A3A48",
"$  c #454551",
"%  c #474759",
"&  c #4A4A59",
"*  c #545464",
"=  c #55556A",
"-  c #585861",
";  c #595969",
":  c #646471",
">  c #6F6F77",
",  c #6B6B7E",
"<  c #71717E",
"1  c #6D6D83",
"2  c #747485",
"3  c #7A7A8C",
"4  c #BA5A00",
"5  c #BF752E",
"6  c #BB7D45",
"7  c #DE2900",
"8  c #DE3300",
"9  c #E20000",
"0  c #E90000",
"q  c #EE1E00",
"w  c #F00000",
"e  c #E22800",
"r  c #EB2A00",
"t  c #FD2700",
"y  c #F73000",
"u  c #F93000",
"i  c #CB4B25",
"p  c #CB6200",
"a  c #DD6B00",
"s  c #E37A01",
"d  c #FF7C00",
"f  c #FD6E25",
"g  c #FD7027",
"h  c #FD7129",
"j  c #BB8009",
"k  c #B69016",
"l  c #BC8E3F",
"z  c #AD8056",
"x  c #B68C51",
"c  c #B39557",
"v  c #BF9768",
"b  c #C5880E",
"n  c #CE9A00",
"m  c #DB9900",
"M  c #C68E39",
"N  c #DA8637",
"B  c #C8A42E",
"V  c #E1850A",
"C  c #E39900",
"Z  c #EE9701",
"A  c #FF8200",
"S  c #FF850B",
"D  c #FF8B00",
"F  c #FF8614",
"G  c #FA8B14",
"H  c #F39202",
"J  c #FF9300",
"K  c #FF9D00",
"L  c #F7901C",
"P  c #FF9B10",
"I  c #E58123",
"U  c #F08521",
"Y  c #F4943A",
"T  c #FF9A3C",
"R  c #EFB502",
"E  c #F7AE00",
"W  c #FFA600",
"Q  c #FCAB00",
"!  c #FAAB0D",
"~  c #FEAF1D",
"^  c #FFB100",
"/  c #FFB50B",
"(  c #FFBA00",
")  c #EBB835",
"_  c #FEAF25",
"`  c #FFAC2E",
"'  c #C79159",
"]  c #CE9F5D",
"[  c #C39F6F",
"{  c #CE9E67",
"}  c #CF9F73",
"|  c #C1A546",
" . c #D0A85A",
".. c #D6BD7B",
"X. c #F09B42",
"o. c #FF9F45",
"O. c #E79F7E",
"+. c #E0B643",
"@. c #FFAA48",
"#. c #FFAE52",
"$. c #FFA959",
"%. c #FFBC56",
"&. c #FFBC5B",
"*. c #E5B161",
"=. c #EDB267",
"-. c #FFAE62",
";. c #FFBE6F",
":. c #FFB570",
">. c #FFBC7D",
",. c #FFC200",
"<. c #FFCB00",
"1. c #FACA08",
"2. c #FFD000",
"3. c #FFC64A",
"4. c #FFC272",
"5. c #81818D",
"6. c #818196",
"7. c #838398",
"8. c #8C8C96",
"9. c #8D8D9D",
"0. c #92929E",
"q. c #8C8CA0",
"w. c #9090A6",
"e. c #9595AA",
"r. c #9B9BAD",
"t. c #9D9DB0",
"y. c #A7A7B2",
"u. c #A6A6B8",
"i. c #ADADB7",
"p. c #AAAABC",
"a. c #B6AAB6",
"s. c #BFB5BE",
"d. c #AFAFC1",
"f. c #B4B4C3",
"g. c #B8B8C7",
"h. c #BBBBCA",
"j. c #D898A0",
"k. c #CFAD85",
"l. c #CCAD8F",
"z. c #C6A994",
"x. c #C3AF9C",
"c. c #CFBF99",
"v. c #DEB289",
"b. c #C5B2BB",
"n. c #C6BABF",
"m. c #E3B992",
"M. c #FFBE82",
"N. c #C2BDC9",
"B. c #DDC7A5",
"V. c #DBC4AB",
"C. c #DACBAD",
"Z. c #D8C6B9",
"A. c #EDD192",
"S. c #F4C085",
"D. c #FDC48B",
"F. c #FFCA8E",
"G. c #F7CD96",
"H. c #FFC691",
"J. c #FFCA98",
"K. c #E3C2A9",
"L. c #E0CBB8",
"P. c #F3D6A7",
"I. c #FFD1A7",
"U. c #FFD4AB",
"Y. c #F7D3B2",
"T. c #F1D9B2",
"R. c #FFD7B2",
"E. c #FFDAB3",
"W. c #FFDBB9",
"Q. c #C0C0CD",
"!. c #CFC7C9",
"~. c #C6C6D1",
"^. c #C8C4D0",
"/. c #C8C8D3",
"(. c #D1C6D0",
"). c #D2CDD8",
"_. c #D5D0D3",
"`. c #D4D4DD",
"'. c #D8D6DF",
"]. c #D8D7E2",
"[. c #DCDBE4",
"{. c #DFDFE9",
"}. c #E0CFC7",
"|. c #E2D6C0",
" X c #E3D8C9",
".X c #E3DBD1",
"XX c #E0D9DA",
"oX c #ECDED1",
"OX c #F7DFC9",
"+X c #FFDEC0",
"@X c #E0DEE3",
"#X c #ECE2D8",
"$X c #F3E2CE",
"%X c #F6E8C4",
"&X c #F7E3D1",
"*X c #F3E9DA",
"=X c #FDE5D0",
"-X c #FBEAD9",
";X c #E1E1E7",
":X c #E4E4EA",
">X c #EFE8E2",
",X c #EAEAEF",
"<X c #ECECF2",
"1X c #F5ECE3",
"2X c #FBF7EC",
"3X c #F5F5F8",
"4X c #FBF6F3",
"5X c #FCF9F6",
"6X c #FDFCFC",
"7X c None",
/* pixels */
"7X7X7X7X7X7X7X7X7X7X7X7X7X7X7X7X7X7X7X7X7X7X7X7X7X7X7X7X7X7X7X7X",
"7X7X7X7X7X7X7X7X7X7X7X7X7X7X7X7X7X7X7X7X7X7X7X7X7X7X7X7X7X7X7X7X",
"7X7X7X7X7X7X7X7X7X7X7X7X7X7X7X7X7X7X7X7X7X7X7X7X7X7X7X7X7X7X7X7X",
"7X7X7X7X7X7X7X7X7X7X7X7X7X7X7X7X7X7X7X7X7X7X7X7X7X7X7X7X7X7X7X7X",
"7X7X7X7X7X7X7X7X7X7X7X7X7X7X7X7X7X7X7X7X7X7X7X7X7X7X7X7X7X7X7X7X",
"7X7X7X7X7X7X7X7X7X7X7X7X7X7X7X7X7X7X7X7X7X7X7X7X7X7X7X7X7X7X7X7X",
"7X7X7X7X7X7X7X7X7X7X7X7X7X7X7X7X7X7X7X7X7X7X7X7X7X7X7X7X7X7X7X7X",
"7X7X7X7X7X7X7X7X7X7X7X7X7X7X7X7X7X7X7X7X7X7X7X7X7X        7X7X7X",
"0 0 0 0 9 9 9 9 9 9 9 9 9 9 9 9 9 9 9 9 9 9 9 9 j.(.(.g.r.<     ",
"t f h h h h h h h h h h h h h f h f f f f f f f O.[.).:X`.h.p.w.",
"u M.E.W.W.U.U.U.U.U.R.+XW.U.U.U.U.+XE.U.U.I.I.J.K.`.].6X6X6X6Xp.",
"y :.-X6X6X6XoXH.H.=X6X3X6XV.F.W.6X5X6X#XS.D.D.-.}./.{.3X<X`.h.9.",
"y $.&X5X6 }.6X} M.6Xx.' { v 4.1X Xx ] [ =.;.#.S XXN./.i.0.: +   ",
"y o.OX6Xv.*X>X6 $.1X6X$XG.&.3.T.6X*XY.3.` P J L ;Xb.X           ",
"y S Y.6XoX6Xl.Y T X.k. X6XB._ ~  .C.3X1XZ K J Z.]./.8.          ",
"y d Y.6X4 m.6XN S @.J H *XL.C 3./ E A.6Xb W *.:XQ.:X].r.O       ",
"y d Y.6Xp F 4XL.G 5X4X2X6Xc E %X6X2X6Xc.m ! _.Q.`.<X<X:Xt.:     ",
"y d U 5 a d I 5 s V M x p m ( R B | k n ) !.[.g.;X,X<X<X,Xu.=   ",
"y d d d d d d A D J K Q ( ,.,.<.<.2.<...'.`.i.- 5.r.g.:X<Xp..   ",
"y d d d d d d A D J K Q R ( ,.1.+.l.n.{.h.h.h..     $ 3 e.,     ",
"q r e 7 7 7 7 7 8 8 8 8 i a.n.~.{.{./.d./.:X'.3         .       ",
"                        ; d.g.p.p.r.2 /.,X:X:Xt.                ",
"                        @ g.Q.].;Xy.  > /.,X:XQ.*             7X",
"7X                        f.[.[.'.0.    9.Q.:X:X6.      7X7X7X7X",
"7X7X7X7X7X7X7X7X7X7X7X7X  r.`.[./.2       q.~.p.2       7X7X7X7X",
"7X7X7X7X7X7X7X7X7X7X7X7X  7.Q.[.f.*       X 1 o         7X7X7X7X",
"7X7X7X7X7X7X7X7X7X7X7X7X  , t./.r.#                   7X7X7X7X7X",
"7X7X7X7X7X7X7X7X7X7X7X7X7X  = % % .                 7X7X7X7X7X7X",
"7X7X7X7X7X7X7X7X7X7X7X7X7X              7X7X7X7X7X7X7X7X7X7X7X7X",
"7X7X7X7X7X7X7X7X7X7X7X7X7X7X          7X7X7X7X7X7X7X7X7X7X7X7X7X",
"7X7X7X7X7X7X7X7X7X7X7X7X7X7X7X7X7X7X7X7X7X7X7X7X7X7X7X7X7X7X7X7X",
"7X7X7X7X7X7X7X7X7X7X7X7X7X7X7X7X7X7X7X7X7X7X7X7X7X7X7X7X7X7X7X7X"
};
