/* XPM */
static char * fsview_xpm[] = {
"32 32 246 2",
"  	c None",
". 	c #0032A4",
"+ 	c #0133A5",
"@ 	c #0235A6",
"# 	c #0231C5",
"$ 	c #0438A8",
"% 	c #0330D9",
"& 	c #033ABB",
"* 	c #063CAB",
"= 	c #0840AD",
"- 	c #053FBF",
"; 	c #0641C1",
"> 	c #0A44B0",
", 	c #0844C3",
"' 	c #0C47B2",
") 	c #0A48C5",
"! 	c #0E4BB5",
"~ 	c #0347FD",
"{ 	c #0E4CC7",
"] 	c #114FB7",
"^ 	c #0349FF",
"/ 	c #044AFF",
"( 	c #054BFF",
"_ 	c #1352B9",
": 	c #1151C8",
"< 	c #094FFF",
"[ 	c #1556BC",
"} 	c #1455CA",
"| 	c #0B50FF",
"1 	c #0C52FF",
"2 	c #175ABE",
"3 	c #0F55FF",
"4 	c #185ACC",
"5 	c #195EC1",
"6 	c #1157FF",
"7 	c #1B5ECE",
"8 	c #1359FF",
"9 	c #1B62C3",
"0 	c #165BFF",
"a 	c #1D65C6",
"b 	c #1E63D0",
"c 	c #185EFF",
"d 	c #1A5FFF",
"e 	c #2069C8",
"f 	c #2167D2",
"g 	c #1C62FF",
"h 	c #1E64FF",
"i 	c #226DCB",
"j 	c #256BD3",
"k 	c #2066FF",
"l 	c #2470CD",
"m 	c #2368FF",
"n 	c #2870D5",
"o 	c #256BFF",
"p 	c #2674CF",
"q 	c #276CFF",
"r 	c #2B74D7",
"s 	c #296FFF",
"t 	c #2878D2",
"u 	c #2979D3",
"v 	c #2C71FF",
"w 	c #2A7BD4",
"x 	c #2E79D9",
"y 	c #2B7CD5",
"z 	c #2E73FF",
"A 	c #2C7ED6",
"B 	c #3075FF",
"C 	c #2C7FD7",
"D 	c #327DDB",
"E 	c #3277FF",
"F 	c #2D81D8",
"G 	c #2E82D9",
"H 	c #2F83DA",
"I 	c #00C10F",
"J 	c #347AFF",
"K 	c #367BFF",
"L 	c #3085DA",
"M 	c #3582DD",
"N 	c #3186DB",
"O 	c #3188DC",
"P 	c #397EFF",
"Q 	c #3289DD",
"R 	c #3886DE",
"S 	c #3B80FF",
"T 	c #338BDE",
"U 	c #D56106",
"V 	c #348CDF",
"W 	c #3C82FF",
"X 	c #3B8AE0",
"Y 	c #358EE0",
"Z 	c #3F84FF",
"` 	c #368FE1",
" .	c #3690E2",
"..	c #4186FF",
"+.	c #3792E3",
"@.	c #3F8FE2",
"#.	c #4388FF",
"$.	c #3893E4",
"%.	c #3994E5",
"&.	c #3995E5",
"*.	c #458BFF",
"=.	c #4293E4",
"-.	c #488DFF",
";.	c #498EFF",
">.	c #4597E6",
",.	c #4C91FF",
"'.	c #4E93FF",
").	c #489BE8",
"!.	c #4F94FF",
"~.	c #DE790E",
"{.	c #5297FF",
"].	c #4BA0E9",
"^.	c #768CE3",
"/.	c #FF6D1F",
"(.	c #559AFF",
"_.	c #4EA4EB",
":.	c #589DFF",
"<.	c #E18515",
"[.	c #5BA0FF",
"}.	c #00D1FF",
"|.	c #5EA3FF",
"1.	c #61A6FF",
"2.	c #64A9FF",
"3.	c #7DA0FC",
"4.	c #7DA0FD",
"5.	c #67ABFF",
"6.	c #7EA1FD",
"7.	c #68ACFF",
"8.	c #7FA2FE",
"9.	c #6AAFFF",
"0.	c #82A5FE",
"a.	c #6CB1FF",
"b.	c #6EB2FF",
"c.	c #85A8FF",
"d.	c #70B5FF",
"e.	c #71B6FF",
"f.	c #6EBBF5",
"g.	c #89ACFF",
"h.	c #C0C000",
"i.	c #74B8FF",
"j.	c #76BAFF",
"k.	c #77BBFF",
"l.	c #8DB0FF",
"m.	c #7ABEFF",
"n.	c #90B3FF",
"o.	c #7BBFFF",
"p.	c #7BC0FF",
"q.	c #93B6FF",
"r.	c #80C4FF",
"s.	c #96B9FF",
"t.	c #80C5FF",
"u.	c #9ABCFF",
"v.	c #84C8FF",
"w.	c #85C9FF",
"x.	c #9DBFFF",
"y.	c #A0C2FF",
"z.	c #8ACEFF",
"A.	c #A3C5FF",
"B.	c #A6C8FF",
"C.	c #A9CBFF",
"D.	c #C8C7D4",
"E.	c #ACCEFF",
"F.	c #AFD1FF",
"G.	c #CDCBD8",
"H.	c #CDCCD9",
"I.	c #CECCD9",
"J.	c #B1D4FF",
"K.	c #CECDD9",
"L.	c #CFCDD9",
"M.	c #CFCEDA",
"N.	c #D0CEDA",
"O.	c #B4D6FF",
"P.	c #D0CFDA",
"Q.	c #B1E7B4",
"R.	c #FFC4A4",
"S.	c #D2D1DC",
"T.	c #B7D9FF",
"U.	c #D4D3DD",
"V.	c #D4D3DE",
"W.	c #B9DBFF",
"X.	c #D6D4DF",
"Y.	c #D6D5DF",
"Z.	c #BBDEFF",
"`.	c #D8D6E0",
" +	c #D8D7E1",
".+	c #BDE0FF",
"++	c #DAD8E2",
"@+	c #BFE1FF",
"#+	c #DAD9E3",
"$+	c #DBDAE3",
"%+	c #DDDCE4",
"&+	c #DDDCE5",
"*+	c #DFDEE6",
"=+	c #E7E6AD",
"-+	c #DFDFEC",
";+	c #E1E0E7",
">+	c #E1E0E8",
",+	c #E0E0EC",
"'+	c #B7F2FF",
")+	c #E3E2E9",
"!+	c #E2E2ED",
"~+	c #E3E3EE",
"{+	c #E5E4EB",
"]+	c #E4E4EF",
"^+	c #E5E5EF",
"/+	c #E7E6EC",
"(+	c #E6E6EF",
"_+	c #E6E6F0",
":+	c #E7E7F0",
"<+	c #E9E8ED",
"[+	c #E8E8F1",
"}+	c #E9E9F2",
"|+	c #EBEAEF",
"1+	c #EAEAF2",
"2+	c #EBEBF3",
"3+	c #ECECF0",
"4+	c #ECECF3",
"5+	c #EDEDF4",
"6+	c #EEEEF2",
"7+	c #EEEEF4",
"8+	c #EEEEF5",
"9+	c #EFEFF5",
"0+	c #F0F0F3",
"a+	c #F0F0F6",
"b+	c #F1F1F6",
"c+	c #F1F1F7",
"d+	c #F2F2F5",
"e+	c #F2F2F7",
"f+	c #F3F3F7",
"g+	c #F3F3F8",
"h+	c #F4F4F8",
"i+	c #F4F4F9",
"j+	c #F5F5F9",
"k+	c #F6F6F9",
"l+	c #F6F6FA",
"m+	c #F7F7FA",
"n+	c #F8F8FB",
"o+	c #F9F9FB",
"p+	c #FAFAFC",
"q+	c #FBFBFC",
"r+	c #FBFBFD",
"s+	c #FCFCFD",
"t+	c #FDFDFE",
"u+	c #FEFEFE",
"v+	c #FEFEFF",
"w+	c #FFFFFF",
"                                                                ",
"                                                                ",
"  &._.].).>.=.@.X R M D x r n j f b 7 4 } : { ) , ; - & +       ",
"&.f.z.w.r.m.i.b.7.1.[.(.'.-...S J z q k d 8 1 ( ^ ^ ^ ~ # .     ",
"&.z.w.t.o.j.d.9.2.|.:.{.,.*.Z P E v o h c 6 | / ^ ^ ^ ^ % .     ",
"&.v.r.p.k.e.a.5.1.[.(.!.;.#.W K B s m g 0 3 < ^ ^ ^ ^ ^ % .     ",
"&.@+.+Z.W.T.O.J.F.E.C.B.A.y.x.u.s.q.n.l.g.c.0.8.6.6.4.3.^..     ",
"%.w+w+w+w+w+w+w+w+w+w+w+w+w+w+w+w+w+w+w+u+t+r+p+o+m+l+j+/+.     ",
"$.w+w+~.~.~.~.~.~.~.~.~.~.~.w+~.<.<.<.<.<.<.<.<.<.<.j+h+{+.     ",
"+.w+w+<.R.R.R.R.R.R.R./.U ~.w+~.'+'+'+'+'+'+'+'+}.U h+f+)+.     ",
" .w+w+<.R./././././././.U ~.w+~.'+}.}.}.}.}.}.}.}.U f+c+;+.     ",
"` w+w+<.R./././././././.U ~.w+~.'+}.}.}.}.}.}.}.}.U c+a+*+.     ",
"Y w+w+<.R./././././././.U ~.w+~.'+}.}.}.}.}.}.}.}.U a+9+%+.     ",
"V w+w+~.R./././././././.U ~.u+~.'+}.}.}.}.}.}.}.}.U 9+7+#+.     ",
"T w+w+U /./././././././.U ~.t+~.}.}.}.}.}.}.}.}.}.U 9+5+ +.     ",
"Q w+w+~.<.<.<.<.<.<.<.<.~.~.s+~.<.<.<.<.<.<.<.<.<.<.5+2+Y..     ",
"O w+w+w+w+w+w+w+w+w+w+v+w+s+q+o+n+m+j+h+g+e+a+9+8+5+2+1+V..     ",
"N w+w+~.<.<.<.<.<.<.<.<.~.~.o+~.<.<.<.<.<.<.<.<.<.<.1+}+S..     ",
"L w+w+<.=+=+=+=+=+=+=+h.h.~.n+~.Q.Q.Q.Q.Q.Q.Q.Q.I U }+[+N..     ",
"H w+w+<.=+h.h.h.h.h.h.h.h.~.m+~.Q.I I I I I I I I U [+_+L..     ",
"G w+w+<.=+h.h.h.h.h.h.h.h.~.k+~.Q.I I I I I I I I U _+^+K..     ",
"F w+w+<.=+h.h.h.h.h.h.h.h.~.i+~.Q.I I I I I I I I U ^+]+K..     ",
"C w+w+~.=+h.h.h.h.h.h.h.h.~.g+~.Q.I I I I I I I I U ]+~+I..     ",
"A w+w+U h.h.h.h.h.h.h.h.h.~.e+~.I I I I I I I I I <.1+1+H..     ",
"y w+w+~.~.~.~.~.~.~.~.~.~.~.b+~.<.<.<.<.<.<.<.<.<.<.!+,+H..     ",
"w w+w+w+s+q+p+n+m+k+j+g+e+b+a+8+5+4+1+}+[+:+(+]+~+!+,+-+G..     ",
"u d+0+6+3+|+<+/+{+)+>+*+&+$+++`.X.U.S.P.M.L.K.K.I.H.H.G.D..     ",
"t p l i e a 9 5 2 [ _ ] ! ' > = * $ @ . . . . . . . . . . .     ",
"                                                                ",
"                                                                ",
"                                                                ",
"                                                                "};
