/* XPM */
static char *kalzium[] = {
/* columns rows colors chars-per-pixel */
"32 32 184 2",
"   c black",
".  c #010000",
"X  c #020000",
"o  c #030000",
"O  c #020202",
"+  c #030007",
"@  c #040000",
"#  c #050000",
"$  c #040003",
"%  c #060000",
"&  c #070000",
"*  c #05000D",
"=  c #06000D",
"-  c #080000",
";  c #0A0005",
":  c gray3",
">  c #050013",
",  c #070018",
"<  c #120000",
"1  c #1F0000",
"2  c #111111",
"3  c gray7",
"4  c #151515",
"5  c #161616",
"6  c #1B1B1B",
"7  c #1D1D1D",
"8  c #060029",
"9  c #2A0000",
"0  c #2D0000",
"q  c #310000",
"w  c #232323",
"e  c #0D0041",
"r  c #0F004F",
"t  c #0F0053",
"y  c #0E005E",
"u  c #090075",
"i  c #110061",
"p  c #120060",
"a  c #130067",
"s  c #130069",
"d  c #14006E",
"f  c #110074",
"g  c #150071",
"h  c #150072",
"j  c #160075",
"k  c #160076",
"l  c #160077",
"z  c #160079",
"x  c #16007A",
"c  c #16007B",
"v  c #15007F",
"b  c #16007F",
"n  c #5B0000",
"m  c #760000",
"M  c #7D0000",
"N  c #7F0000",
"B  c gray25",
"V  c #414141",
"C  c gray31",
"Z  c #505050",
"A  c #5B5B5B",
"S  c gray36",
"D  c #6A6A6A",
"F  c gray44",
"G  c #747474",
"H  c #0C0085",
"J  c #0D0095",
"K  c #0E0096",
"L  c #0F009B",
"P  c #0D009F",
"I  c #0E009C",
"U  c #0F009C",
"Y  c #120083",
"T  c #160080",
"R  c #160081",
"E  c #160083",
"W  c #160084",
"Q  c #160085",
"!  c #150088",
"~  c #150089",
"^  c #15008A",
"/  c #15008B",
"(  c #14008D",
")  c #130091",
"_  c #130092",
"`  c #110096",
"'  c #110097",
"]  c #120095",
"[  c #110098",
"{  c #0300A8",
"}  c #0300AB",
"|  c #0300AE",
" . c #0600A8",
".. c #0700A8",
"X. c #0600AA",
"o. c #0400AD",
"O. c #0B00A3",
"+. c #0900A5",
"@. c #0800A6",
"#. c #0800A7",
"$. c #0900A7",
"%. c #0C00A0",
"&. c #0E06AB",
"*. c #0000B3",
"=. c #0200B0",
"-. c #0C0CB6",
";. c #1104A1",
":. c #1919BA",
">. c #1B1BBB",
",. c #3737C3",
"<. c #3B3BC4",
"1. c #4638B0",
"2. c #594FBC",
"3. c #6D60BC",
"4. c #6E62BF",
"5. c #5E58C5",
"6. c #6060CF",
"7. c #746ECB",
"8. c #756ECB",
"9. c #746FCD",
"0. c #7471D0",
"q. c #7474D5",
"w. c #820000",
"e. c #850000",
"r. c #860000",
"t. c #870000",
"y. c #890000",
"u. c #8B0000",
"i. c #8D0000",
"p. c #8E0000",
"a. c #8F0000",
"s. c #900000",
"d. c #910000",
"f. c #920000",
"g. c #930000",
"h. c #940000",
"j. c #950000",
"k. c #960000",
"l. c #970000",
"z. c #980000",
"x. c #990000",
"c. c #9A0000",
"v. c #9B0000",
"b. c #9C0000",
"n. c #9D0000",
"m. c #9E0000",
"M. c #9F0000",
"N. c #A00000",
"B. c #A10000",
"V. c #A20000",
"C. c #A30000",
"Z. c #A40000",
"A. c #A50000",
"S. c #A50202",
"D. c #A60000",
"F. c #A70000",
"G. c #A80000",
"H. c #A90000",
"J. c #AA0000",
"K. c #AB0000",
"L. c #AA0404",
"P. c #A80C0C",
"I. c #AD0C0C",
"U. c #A91010",
"Y. c #B11313",
"T. c #B11515",
"R. c #B32424",
"E. c #B82B2B",
"W. c #C34B4B",
"Q. c #CB6363",
"!. c #D47F7F",
"~. c #D38484",
"^. c #D48989",
"/. c #DCA2A2",
"(. c #E0A3A3",
"). c #E1A8A8",
"_. c #E2ACAC",
"`. c #E2ADAD",
"'. c #E3ACAC",
"]. c #E2AEAE",
"[. c #E3B0B0",
"{. c #E5B3B3",
"}. c gray100",
"|. c None",
/* pixels */
"|.|.|.|.|.|.|.|.|.|.|.|.|.|.|.|.|.|.|.|.|.|.*.*.*.*.*.|.|.|.|.|.",
"|.|.|.|.|.|.|.|.|.|.|.|.|.|.|.|.|.|.|.|.*.*.*.*.*.*.*.*.*.|.|.|.",
"|.|.|.|.|.|.|.|.|.|.|.|.|.|.|.|.|.|.|.*.*.*.*.<.q.q.6.>.*.*.|.|.",
"|.|.|.|.|.|.|.|.|.|.|.|.|.|.|.|.|.|.*.*.*.*.-.q.q.q.q.q.>.*.|.|.",
"|.|.|.|.|.|.|.|.|.|.|.|.|.|.|.|.|.|.*.*.*.*.o.5.7.7.8.0.,.*.*.|.",
"|.|.|.|.|.|.|.|.|.|.|.|.|.|.|.|.|.|.*.| ..$.O.;.1.4.4.2.&.| *.|.",
"|.|.|.|.|.|.|.|.|.|.|.|.|.|.|.|.|.*.| $.P P ' ' ' ) K P P O.| |.",
"|.|.|.|.|.|.|.|.|.|.|.|.|.|.|.|.|.$.$.J ' ) / / / / ( ( ' P @.|.",
"|.|.|.|.|.|.|.  |.|.|.|.|.|.|.|.|.; 8 = f / E E b b E / ( ' $.|.",
"|.|.|.|.              |.|.|.|.- #   # # = b x x k k x b W ( @.|.",
"|.|.        3 C Z V :       # # # #   # # i g s r t a k b J *.|.",
"|.|.        D G G G D 4   #   # #   # # e d i # # # , g Y } |.|.",
"|.          S G G G G V       # # #     x d y   #   > H } |.|.|.",
"|.          4 A G G F w     # # # # |.|.|.H u # # # + *.|.|.|.|.",
"|.              6 7 3         # |.|.|.|.|.|.|.# # # # |.|.|.|.|.",
"|.                            |.|.|.|.|.|.|.|.# #     |.|.|.|.|.",
"|.                            |.|.|.|.|.|.|.|.  # #   |.|.|.|.|.",
"|.                    #     |.|.|.|.|.|.|.|.|.# # # # |.|.|.|.|.",
"|.                    # #     |.|.|.|.|.|.|.|.< 0 1 #   |.|.|.|.",
"|.|.              # # # # # # # # |.|.|.|.K.J.K.J.J.A.A.J.|.|.|.",
"|.|.                # # # # # # #   # K.K.K.J.Q.(.(.!.T.K.K.|.|.",
"|.|.|.|.              # #     # # # # 9 l.K.E.{.{.{.{.).Y.K.J.|.",
"|.|.|.|.|.|.|.  |.|.|.|.  # #   # # #   n K.L.).].].].{.W.K.K.|.",
"|.|.|.|.|.|.|.|.|.|.|.|.|.|.  # #   # # m J.J.R.!././.^.I.J.K.J.",
"|.|.|.|.|.|.|.|.|.|.|.|.|.|.|.|.    - q A.A.A.A.A.U.I.A.A.J.J.J.",
"|.|.|.|.|.|.|.|.|.|.|.|.|.|.|.|.|.|.f.v.A.A.A.A.M.M.M.A.A.A.A.J.",
"|.|.|.|.|.|.|.|.|.|.|.|.|.|.|.|.|.|.A.A.A.M.M.v.v.l.v.v.M.A.A.A.",
"|.|.|.|.|.|.|.|.|.|.|.|.|.|.|.|.|.|.J.A.A.v.l.l.k.k.l.l.v.M.M.|.",
"|.|.|.|.|.|.|.|.|.|.|.|.|.|.|.|.|.|.A.M.v.v.k.f.p.p.f.f.l.v.M.|.",
"|.|.|.|.|.|.|.|.|.|.|.|.|.|.|.|.|.|.|.A.v.l.f.y.t.t.y.p.k.l.|.|.",
"|.|.|.|.|.|.|.|.|.|.|.|.|.|.|.|.|.|.|.|.v.k.y.t.N N w.y.k.l.|.|.",
"|.|.|.|.|.|.|.|.|.|.|.|.|.|.|.|.|.|.|.|.|.l.f.t.N M t.f.|.|.|.|."
};
