/* XPM */
static char *kanagram[] = {
/* columns rows colors chars-per-pixel */
"32 32 257 2",
"   c #000000",
".  c #050209",
"X  c #000010",
"o  c #001F19",
"O  c #001D0A",
"+  c #00231C",
"@  c #003B0A",
"#  c #003216",
"$  c #023817",
"%  c #002408",
"&  c #002726",
"*  c #013424",
"=  c #003A2C",
"-  c #003630",
";  c #271212",
":  c #381717",
">  c #3D0B0B",
",  c #00014F",
"<  c #001144",
"1  c #001652",
"2  c #000163",
"3  c #001265",
"4  c #001869",
"5  c #001072",
"6  c #002C75",
"7  c #00267E",
"8  c #00307B",
"9  c #002B65",
"0  c #330653",
"q  c #3E0A60",
"w  c #004806",
"e  c #004014",
"r  c #00491C",
"t  c #005900",
"y  c #015506",
"u  c #0C5D19",
"i  c #135C14",
"p  c #044521",
"a  c #0C641B",
"s  c #0F691D",
"d  c #11641D",
"f  c #156C18",
"g  c #126F24",
"h  c #137723",
"j  c #156D33",
"k  c #074862",
"l  c #451D1D",
"z  c #5B1A1A",
"x  c #520909",
"c  c #4B2222",
"v  c #472222",
"b  c #522424",
"n  c #592425",
"m  c #6B0C0D",
"M  c #681D1D",
"N  c #750001",
"B  c #790101",
"V  c #770809",
"C  c #790D16",
"Z  c #76171A",
"A  c #672223",
"S  c #722122",
"D  c #001598",
"F  c #002482",
"G  c #002C8C",
"H  c #032A9D",
"J  c #053598",
"K  c #022AA5",
"L  c #0039AB",
"P  c #0034AB",
"I  c #003DB0",
"U  c #0F3EB4",
"Y  c #072CB4",
"T  c #0436C1",
"R  c #034E99",
"E  c #0047B3",
"W  c #0052BC",
"Q  c #1345BA",
"!  c #084FA9",
"~  c #1457D7",
"^  c #0C4ED3",
"/  c #0A59E2",
"(  c #1D71C3",
")  c #0560ED",
"_  c #0668F6",
"`  c #1E72ED",
"'  c #1A73F1",
"]  c #0B74FF",
"[  c #205AC6",
"{  c #2669C9",
"}  c #2C6DDA",
"|  c #2666D5",
" . c #3B7DDE",
".. c #3479D7",
"X. c #2E76CC",
"o. c #2979EE",
"O. c #1A8719",
"+. c #1B971A",
"@. c #198327",
"#. c #198A32",
"$. c #1E972F",
"%. c #19A11E",
"&. c #1CAB2E",
"*. c #219936",
"=. c #21AC33",
"-. c #22A138",
";. c #26B43D",
":. c #20A62B",
">. c #229F42",
",. c #2BB943",
"<. c #2AB448",
"1. c #2DB857",
"2. c #32BF52",
"3. c #26AA4A",
"4. c #2FC059",
"5. c #3BC549",
"6. c #3CC461",
"7. c #4BCF4F",
"8. c #47C766",
"9. c #57CC69",
"0. c #54CC72",
"q. c #53D27C",
"w. c #5AD164",
"e. c #7EDF7E",
"r. c #6AD96A",
"t. c #33888E",
"y. c #1D81FF",
"u. c #308CDC",
"i. c #2688FF",
"p. c #3382EF",
"a. c #388BF6",
"s. c #3C94FD",
"d. c #3794FF",
"f. c #4183DF",
"g. c #468AE5",
"h. c #449AFF",
"j. c #489DFF",
"k. c #4795F5",
"l. c #539AF2",
"z. c #5B9EE8",
"x. c #4AA0FF",
"c. c #5DABFF",
"v. c #56A3FB",
"b. c #65ADC4",
"n. c #63ADFF",
"m. c #63A6F3",
"M. c #6BB2FD",
"N. c #64B1FE",
"B. c #74B6FF",
"V. c #72B8FF",
"C. c #7BBCFF",
"Z. c #65A6EC",
"A. c #74D78E",
"S. c #7ADA83",
"D. c #65D588",
"F. c #85191E",
"G. c #980719",
"H. c #93141D",
"J. c #98111D",
"K. c #9F1214",
"L. c #810D16",
"P. c #88062C",
"I. c #AF090C",
"U. c #BC0104",
"Y. c #B70409",
"T. c #BB0716",
"R. c #A40F12",
"E. c #AD0922",
"W. c #B40822",
"Q. c #B50624",
"!. c #C40104",
"~. c #C40109",
"^. c #CC020E",
"/. c #CF0A0E",
"(. c #C90202",
"). c #C20417",
"_. c #D40808",
"`. c #D40113",
"'. c #D30317",
"]. c #D81617",
"[. c #D00224",
"{. c #DB0022",
"}. c #D6012D",
"|. c #DA0131",
" X c #DD1823",
".X c #C4082C",
"XX c #DD2529",
"oX c #DC2527",
"OX c #E40606",
"+X c #E40E0E",
"@X c #F10909",
"#X c #FB1616",
"$X c #FF1818",
"%X c #F31919",
"&X c #E4051F",
"*X c #EB002C",
"=X c #E2002A",
"-X c #E92C2C",
";X c #E53B3C",
":X c #E83535",
">X c #FE2424",
",X c #F52626",
"<X c #FF3232",
"1X c #FF3F3F",
"2X c #F33333",
"3X c #CA5167",
"4X c #E94747",
"5X c #EB5B5B",
"6X c #EA5151",
"7X c #FE4B4B",
"8X c #FE5959",
"9X c #F65555",
"0X c #EB6565",
"qX c #FF6666",
"wX c #FB6A6A",
"eX c #F87C7C",
"rX c #F06D75",
"tX c #C66B8A",
"yX c #81BEFF",
"uX c #81DA97",
"iX c #93E396",
"pX c #97E2A3",
"aX c #A9E9AF",
"sX c #85C2FF",
"dX c #8BC5FF",
"fX c #93C9FF",
"gX c #9CCDFF",
"hX c #A1CFFF",
"jX c #A4D2FF",
"kX c #ACD5FF",
"lX c #B5DBFF",
"zX c #BBDDFF",
"xX c #BFEEC7",
"cX c #ADEAC1",
"vX c #BFE0FF",
"bX c #D5849A",
"nX c #D997AA",
"mX c #DB9EB1",
"MX c #F28B8B",
"NX c #FF9A9A",
"BX c #FFA7A7",
"VX c #F8A8A8",
"CX c #FDB2B2",
"ZX c #FDB8B8",
"AX c #C7F1C7",
"SX c #C7F0D3",
"DX c #D4F4D9",
"FX c #C1EEC9",
"GX c #CBE5FF",
"HX c #C6E3FF",
"JX c #D7EBFF",
"KX c #FFC1C1",
"LX c #E7F9EA",
"PX c #E9F4FF",
"IX c #FCFEFF",
"UX c #F3F9FF",
"YX c None",
/* pixels */
"YXYXYXYXYXYXYXYXYXW W [ ( X...u.!   YXYXYXYXYXYXYXYXYXYXYXYXYXYX",
"YXYXYXYXYXYXYXYXYXW Z.yXsXfXfXsXz.9 YXYXYXYXYXYXYXYXYXYXYXYXYXYX",
"YXYXYXYXYXYXYXYXYXE M.lXUXIXIXGXm.8 YXYXYXYXYXYXYXYXYXYXYXYXYXYX",
"YXYXYXYXYXYXYXYXYXE { Z.N.JXUXHXm.6 YXYXYXYXYXYXYXYXYXYXYXYXYXYX",
"YXYXYXYXYXYXYXYXYXYX8 J g.jXUXzXm.6 YXYXYXYXYXYXYXYXYXYXYXYXYXYX",
"YXYXYXYXYXYXYXYXYXYXYXE g.fXPXlXl.6 YXYXYXYXYXYXYXYXYXYXYXYXYXYX",
"YXYXYXYXYXYXYXYXYXYXYXI f.fXJXlXl.7 I L I YXYXYXYXYXYXYXYXYXYXYX",
"YXYXYXYXYXYXYXYXYXYXYXP f.yXGXkXl.{ k.l.f.{ G YXYXYXYXYXYXYXYXYX",
"YXYXYXYXYXYXYXYXYXYXYXP  .yXGXhXj.B.gXkXyXn.p.J G YXYXYXYXYXYXYX",
"YXYXYXYXYXYXYXYXYXYXYXP ..C.zXjXhXfXC.kXHXzXM.k.F YXYXYXYXYXYXYX",
"YXYXYXYXYXYXYXYXYXYXYXK ..C.lXkXj.a.} k.B.lXlXv.[ 1 YXYXYXYXYXYX",
"YXYXYXYXYXYXYXYXYXYXYXK } V.kXsXa.5 < H s.fXlXdXs.7 YXYXYXYXYXYX",
"YXYXYXYXYXB N N N N B K } M.jXsXp.4 YXH | n.jXjXh.J   YXYXYXYXYX",
"YXYXYXB G.}.=X*X*X=X|.P.| n.hXC.p.4 YXYXQ j.gXgXh.Q   YXYXYXYXYX",
"YXB V |.=X5XMXVXVXMX5X.X| n.fXV.o.4 YXYXU s.fXfXh.Q   YXYXYXYXYX",
"YXV =XXXCXZX0X;X0XCXKXmX~ v.dXM.o.3 YXYXQ s.dXdXu.k t t @ YXYXYX",
"V G. XCXCX5X=XQ.[.XXCXmX~ v.C.N.` 3 YXD [ s.b.s #.3.1.>.a y YXYX",
"V .X6XBXBXrX[.x m {.eXnX~ x.C.N.' 5 YXD ` t.#.q.cXDXLXSXD.@.w YX",
"m E.XXNXNX4X[.x m [.5XbX~ x.V.V.i.^ K ~ ( #.D.LXaX1.4.SXLX8.i   ",
"YXL.{.]. X'.H.L.Q.'.6XtX/ h.N.c.N.d.' d.j 6.DXFX1.y 3.xXDXA.h   ",
"YX> C E.T.Q.[.'.XX5XeXtX/ s.d.] i.d.x.u.@.uXAXA.h e *.pXAX0.a   ",
"YXZ Z E.`.XX4XwXwX;X6XrXY _ ) D T ^ ) R -.pXaX9.s % a *.4.*.@   ",
"Z Z '.].8XqX9X X`.'.:XqX3Xq 0 X X , 2 * -.iXaX8.a   @ e e $   YX",
"M T. X8X8X4X^.W.Z ).:X8X8X].J.  YXYXYXr $.S.iX8.s O YXYXr e e YX",
"F.^.7X7X7X^.H.> z ).-X7X7X].H.  YXYXYXp @.9.e.w.@.# YXp g -.d # ",
"H./.1X1X2X^.z YXA ).-X1X1X/.H.  YXYXYXp i ;.r.r.;.u e f ;.w.:.# ",
"H./.<X<X,X(.F.A H.(.,X<X<X_.H.n S YXYXYX* O.2.w.7.,.=.;.7.=.d O ",
"S ~.>X>X>X].~.~./.%X,X>X>X].!.~.J.c YXYX= p +.,.5.7.7.;.&.i +   ",
"n T._.$X$X$X$X#X$X_.!.#X#X#X#X+X~.n YXYXYX- * f O.%.+.O.p +   YX",
"l S ~.(.OX@XOX_.(.Y.Y.(.OX@XOX(.I.c YXYXYXYXYX+ & & & & . YXYXYX",
"YXl n K.I.!.U.I.F.n A K.Y.U.I.H.A ; YXYXYXYXYXYXYXYXYXYXYXYXYXYX",
"YXYXYX: c b c v .     : v b l ;   YXYXYXYXYXYXYXYXYXYXYXYXYXYXYX"
};
