/* XPM */
static char *kig[] = {
/* columns rows colors chars-per-pixel */
"32 32 257 2",
"   c black",
".  c #100600",
"X  c #2F0900",
"o  c #310C00",
"O  c #351100",
"+  c #460C00",
"@  c #6A2701",
"#  c gray28",
"$  c #4B4B4B",
"%  c #554C4C",
"&  c #545454",
"*  c #5B5B5B",
"=  c #644A45",
"-  c #606060",
";  c #6C6C6C",
":  c #717171",
">  c #6A89B3",
",  c #5E9BFC",
"<  c #6590C1",
"1  c #6C9FDC",
"2  c #608EEC",
"3  c #6A9AF2",
"4  c #7996E2",
"5  c #68A1EC",
"6  c #64A0FC",
"7  c #6CA2F7",
"8  c #6AA5FB",
"9  c #6EABFC",
"0  c #7EADF8",
"q  c #71A5FA",
"w  c #76B5FD",
"e  c #BC1E00",
"r  c #B11F03",
"t  c #B92B0B",
"y  c #BF391B",
"u  c #AB5F27",
"i  c #985558",
"p  c #985A53",
"a  c #8E6357",
"s  c #A04D4D",
"d  c #A7504E",
"f  c #AD514F",
"g  c #A85945",
"h  c #A55E4C",
"j  c #AF5651",
"k  c #BB5050",
"l  c #B45E5B",
"z  c #A5604E",
"x  c #B76D4D",
"c  c #B26658",
"v  c #BB764F",
"b  c #BE784B",
"n  c #AD7D6E",
"m  c #B36A6A",
"M  c #B57666",
"N  c #B47878",
"B  c #C33109",
"V  c #C03B17",
"C  c #C03C1B",
"Z  c #C03E20",
"A  c #CC5E38",
"S  c #DA573B",
"D  c #DB662F",
"F  c #DF643A",
"G  c #D36A3F",
"H  c #DE702D",
"J  c #D3782B",
"K  c #DD703A",
"L  c #D5783C",
"P  c #C6663A",
"I  c #FF7801",
"U  c #E56736",
"Y  c #E16D35",
"T  c #E37A2D",
"R  c #F57D23",
"E  c #C3554F",
"W  c #D25041",
"Q  c #D85959",
"!  c #C4694A",
"~  c #C2754A",
"^  c #DB7241",
"/  c #D67B78",
"(  c #DF7575",
")  c #D46767",
"_  c #E06F6F",
"`  c #E27C7C",
"'  c #F5777A",
"]  c #F57476",
"[  c #807683",
"{  c #896B86",
"}  c #DA7B8D",
"|  c #B08773",
" . c #FF8400",
".. c #FF9000",
"X. c #FF910B",
"o. c #FF9B03",
"O. c #EE8027",
"+. c #E9802B",
"@. c #E18A3F",
"#. c #ED843B",
"$. c #F2983E",
"%. c #FFA602",
"&. c #FFAB01",
"*. c #FFAC0A",
"=. c #FFB224",
"-. c #FFBA2A",
";. c #FBB02E",
":. c #FEB634",
">. c #FFBC3C",
",. c #D48A4D",
"<. c #D08651",
"1. c #DB944B",
"2. c #DC985B",
"3. c #DA8A70",
"4. c #DF9962",
"5. c #E2844C",
"6. c #E68A4C",
"7. c #E98D4C",
"8. c #ED924C",
"9. c #EB9A42",
"0. c #E69055",
"q. c #EA9455",
"w. c #EA965E",
"e. c #F0954C",
"r. c #E99F6D",
"t. c #F3A744",
"y. c #F4AE5F",
"u. c #FAB346",
"i. c #FEBA42",
"p. c #E5A962",
"a. c #EBB668",
"s. c #FCB66A",
"d. c #F5BB73",
"f. c #F4BC7A",
"g. c #FFC34A",
"h. c #FFC757",
"j. c #FFCB5D",
"k. c #EFC679",
"l. c #FFCC61",
"z. c #FFCF69",
"x. c #F3C46D",
"c. c #FCCB79",
"v. c #FFD162",
"b. c #FFD06E",
"n. c #FFD274",
"m. c #FED47C",
"M. c #F4D17D",
"N. c #FEE079",
"B. c #8B8B8B",
"V. c #919191",
"C. c #A49190",
"Z. c #AB9090",
"A. c #AC9B99",
"S. c #B8888C",
"D. c #B19699",
"F. c #B9A39D",
"G. c gray65",
"H. c #B7A5A4",
"J. c #BFB4B6",
"K. c #87B1F7",
"L. c #8AB3F7",
"P. c #8DBCFB",
"I. c #9CBEE1",
"U. c #94BEF9",
"Y. c #A3BAD0",
"T. c #A1B6EA",
"R. c #96CAFE",
"E. c #93C2FC",
"W. c #A8C8F7",
"Q. c #BBCDEF",
"!. c #B2CCF4",
"~. c #B7D4F9",
"^. c #BCD0F2",
"/. c #C38080",
"(. c #C38F8F",
"). c #C8868B",
"_. c #C08C91",
"`. c #C29096",
"'. c #C89196",
"]. c #CE9298",
"[. c #C29298",
"{. c #D9898E",
"}. c #D2888C",
"|. c #D68F90",
" X c #D49498",
".X c #C69CA2",
"XX c #D48DA1",
"oX c #C9AFB7",
"OX c #DDA8A8",
"+X c #E38B8E",
"@X c #E4969A",
"#X c #ED989C",
"$X c #E8B19D",
"%X c #F4BF87",
"&X c #E7BDB7",
"*X c #F2A0A4",
"=X c #CFBEC6",
"-X c #D5BFC5",
";X c #EDC29A",
":X c #F5C183",
">X c #F5C288",
",X c #FCCA82",
"<X c #F7DA80",
"1X c #FFD682",
"2X c #FBD28D",
"3X c #FFD985",
"4X c #FEDA8C",
"5X c #FFDC94",
"6X c #FFDE9A",
"7X c #ECD5B8",
"8X c #FDDDA5",
"9X c #FCE382",
"0X c #F9E48B",
"qX c #FDE985",
"wX c #FCEA8C",
"eX c #FFE292",
"rX c #FFE09E",
"tX c #FCEB92",
"yX c #FEE99C",
"uX c #FFE2A2",
"iX c #FFE4AB",
"pX c #FFE6B1",
"aX c #FDF3A0",
"sX c #CBCACC",
"dX c #D9C0C7",
"fX c #DDCAC5",
"gX c #D4C5CA",
"hX c #DCCDD3",
"jX c #D2D2D4",
"kX c #D6D6DA",
"lX c #DAD8D9",
"zX c #CFD9E3",
"xX c #C0D3F1",
"cX c #DDDDE6",
"vX c #D9DEED",
"bX c #D0DFF6",
"nX c #DFE2EE",
"mX c #D5E1F5",
"MX c #E6C5CB",
"NX c #EBC8CD",
"BX c #E2D0D7",
"VX c #E8D2D5",
"CX c #F4E2DC",
"ZX c #F8F1DB",
"AX c #E1E1E1",
"SX c #E3E3EA",
"DX c #E8E8ED",
"FX c #E6E8F0",
"GX c #E7EFFA",
"HX c #ECECF1",
"JX c #E2E6F1",
"KX c #F4EAEA",
"LX c #FBEDE8",
"PX c #F1F2F5",
"IX c #F6F6F8",
"UX c #FDFDFD",
"YX c None",
/* pixels */
"YXYXYX# # # $ $ r y Z Z Z C C C C C C C C C C C C C y y y V t t ",
"YXYXYX# $ * & & = 2.aXpXpXiXiXuXuXuX6X6X5X4X4X3X3Xm.m.m.n.b.5.+ ",
"YXYXYX# ; AXAXAXAXA.<.wXuXuXrX6X5X4X4X3X1Xm.m.n.n.b.v.z.l.j.5.X ",
"YXYXYX# ; UXUXUXUXUXlXx 0XyXrX5X5X8X>X>X>X:Xf.f.f.d.d.c.l.j.5.X ",
"YXYXYX# ; UXUXUXUXUXUXPXn k.tXeX5X5Xr.B h h h h h h g 0.j.j.5.X ",
"YXYXYX# ; UXUXUXUXUXUXUXUXH.2.wXeX4X4X%XA fXAXAXAXAXfX0.l.j.5.o ",
"YXYXYX# ; UXUXUXUXUXUXUXUXUXgX~ wXwX4X3X2X^ &XUXUXUXCX0.l.j.6.o ",
"YXYXYX$ ; UXUXUXUXUXUXUXUXUXUXDXM M.wX4X3X4Xw.3.UXUXCX0.l.j.6.o ",
"YXYXYX# ; UXUXUXUXUXUXUXUXKX(.s Y.V.p.wX1Xm.1Xf.G LXCXq.j.j.7.o ",
"YXYXYX# ; UXUXUXUXUXKX/.j M p i W.R.> b wX<Xm.n.,XK $Xq.j.j.7.o ",
"YXYXYX# ; UXUXUXUXVXP ;XZXZXc A.IXUXUXzXa M.qXn.n.m.7.q.l.j.8.o ",
"YXYXYX# ; UXUXUX&XL n.,Xs.7Xd kXUXUXUXUXIX[ a.qXn.b.n.2Xl.j.8.O ",
"YXYXYX# ; UXIXOX6.m.c.X.I ! Z.PXIXUXUXIXUXIX> ,.wXn.b.b.l.j.7.O ",
"YXYXYX# ; UX|.9.1Xb.o. .R j jXIXIXIXUXIXIXIXGX1 b N.N.v.l.j.8.o ",
"YXYXYX# ; / t.4Xl.&...O.l sXIXIXIXIXIXIXIXIXIXw FX| x.N.l.j.8.O ",
"YXYXYX% E u.4Xh.&.o.+.m jXPXPXIXPXIXPXPXIXPXPXR.bXPXH.1.qXv.e.O ",
"YXYX` W u.4Xg.&.%.T N kXPXPXPXPXPXPXPXPXIXHXIXW.~.IXIXV.u wXy.O ",
"YX` S i.6X>.&.&.H { cXPXPXPXHXPXPXPXPXPXHXIXHXP.mXPXIXG.& @ J . ",
"_ U i.5X:.&.*.D S.5 FXHXHXHXHXPXPXPXDXDXHXHXHX9 GXDXIXG.-       ",
"Q >.m.=.%.*.Y D.nXU.!.HXHXHX*X] ] ' ' ' ' ' } 4 HXHXHXG.- YXYXYX",
"_ #.-.*.*.F G.AXDXnX8 mXGXHX#XNXDXDXDXDXDXFX7 XXHXHXIXG.- YXYXYX",
"YXQ $.;.S oXSXDXDXDXxX7 nXFX@XMXDXDXDXDXDX0 T.+XDXDXHXG.- YXYXYX",
"YXYX) k * IXDXDXDXDXDX^.3 !.@XMXDXDXDX^.6 W.BX+XDXSXHXG.- YXYXYX",
"YXYXYX# ; IXSXSXnXSXSXDXnXK.2 3 L.q , 0 vXSXBX{.DXSXHXG.- YXYXYX",
"YXYXYX# ; IXSXSXSXSXSXSXSXSX XdXQ.SXSXSXSXSXhX}.SXSXHXG.* YXYXYX",
"YXYXYX# ; IXSXSXcXSXSXcXSXcX X-XSXcXcXSXcXSXhX).SXcXHXG.- YXYXYX",
"YXYXYX# ; IXcXcXcXcXcXcXcXcX'.-XcXcXcXSXcXcXhX).cXcXHXG.- YXYXYX",
"YXYXYX# ; IXcXcXcXcXcXcXcXcX`._..X.X.X.X.X.X'.S.cXcXDXG.- YXYXYX",
"YXYXYX# ; IXcXcXcXcXcXcXcXcXgXoXoXoXoXoXoXoXoXgXcXcXSXG.- YXYXYX",
"YXYXYX# ; IXHXHXDXPXHXHXDXHXHXHXDXPXHXDXDXHXHXHXHXDXPXG.- YXYXYX",
"YXYXYX# - V.V.V.V.V.V.V.B.B.B.V.B.B.B.B.B.B.B.B.B.B.B.; - YXYXYX",
"YXYXYX# # # # $ $ $ $ $ $ & & & & & & * & & * * * * - - - YXYXYX"
};
