/* XPM */
static char *kiten[] = {
/* columns rows colors chars-per-pixel */
"32 32 159 2",
"   c black",
".  c #040404",
"X  c gray3",
"o  c #0C0C0C",
"O  c #0E0E0E",
"+  c #161616",
"@  c gray12",
"#  c gray15",
"$  c gray19",
"%  c #323232",
"&  c #373737",
"*  c #393939",
"=  c gray23",
"-  c #3F3F3F",
";  c gray26",
":  c #464646",
">  c #494949",
",  c #4B4B4C",
"<  c #525253",
"1  c #535354",
"2  c #5D5D5D",
"3  c #5D5D5E",
"4  c gray37",
"5  c #5F5F61",
"6  c #606060",
"7  c gray38",
"8  c #606062",
"9  c gray39",
"0  c #626264",
"q  c #646464",
"w  c #656566",
"e  c #676769",
"r  c #686869",
"t  c #6A6A6C",
"y  c #6A6A6D",
"u  c #6D6D72",
"i  c #6E6E72",
"p  c #6F6F72",
"a  c #727276",
"s  c #747477",
"d  c #747479",
"f  c #7A7A7D",
"g  c #7A7A7F",
"h  c #7B7B81",
"j  c #D40000",
"k  c #D40202",
"l  c #DD0000",
"z  c #DE0000",
"x  c #DE0202",
"c  c #D83133",
"v  c #E70000",
"b  c #E70303",
"n  c #E70606",
"m  c #E71213",
"M  c #F00000",
"N  c #F10000",
"B  c #F00505",
"V  c #F10405",
"C  c #F00707",
"Z  c #FA0000",
"A  c #E72526",
"S  c #E03739",
"D  c #F63D3F",
"F  c #E25658",
"G  c #EE5B5D",
"H  c #F5484A",
"J  c #ED7376",
"K  c #F27E81",
"L  c #828287",
"P  c #86868A",
"I  c #88888E",
"U  c #8A8A90",
"Y  c #909095",
"T  c #939398",
"R  c #9797A0",
"E  c #9A9AA0",
"W  c #9D9DA4",
"Q  c #A1A1A6",
"!  c #A4A4AA",
"~  c #A9A9B2",
"^  c #AAAAB1",
"/  c #ADADB6",
"(  c #AEAEB4",
")  c #B2B2B7",
"_  c #B5B5BD",
"`  c #B6B6BC",
"'  c #B8B8C0",
"]  c #B8B8C1",
"[  c #B9B9C1",
"{  c #BBBBC4",
"}  c #EF898D",
"|  c #E59599",
" . c #EE979C",
".. c #E29DA1",
"X. c #F09DA1",
"o. c #E3AAAE",
"O. c #EBA6AA",
"+. c #EAB7BD",
"@. c #EBBABF",
"#. c #F0A4A8",
"$. c #C0C0CB",
"%. c #C3C3CE",
"&. c #C4C4CE",
"*. c #C7C7CE",
"=. c #C1C1D0",
"-. c #C2C2D0",
";. c #C7C7D2",
":. c #C7C7D3",
">. c #C9C9D3",
",. c #CCCCD6",
"<. c #CECEDB",
"1. c #CFCFDB",
"2. c #D0D0D6",
"3. c #D0D0D9",
"4. c #D2D2DE",
"5. c #D3D3DE",
"6. c #D3D3DF",
"7. c #D7D7E1",
"8. c #D8D8E0",
"9. c #D8D8E3",
"0. c #DADAE0",
"q. c #DADAE3",
"w. c #DCDCE5",
"e. c #DDDDE4",
"r. c #DEDEE7",
"t. c #DFDFE7",
"y. c #E9C6CC",
"u. c #EBC9CF",
"i. c #E9CDD2",
"p. c #E7D1D7",
"a. c #ECD6DC",
"s. c #EAD9DF",
"d. c #ECD9DE",
"f. c #E9DFE5",
"g. c #E1E1E9",
"h. c #E3E3EA",
"j. c #E5E3EA",
"k. c #E5E5EC",
"l. c #E7E7ED",
"z. c #E9E0E5",
"x. c #E9E4EA",
"c. c #E9E5EB",
"v. c #E8E8EE",
"b. c #E8E8EF",
"n. c #E9E8EE",
"m. c #E9E9EF",
"M. c #EAEAF0",
"N. c #EBEBF1",
"B. c #EFEFF3",
"V. c #F0F0F4",
"C. c #F1F1F4",
"Z. c #F2F2F6",
"A. c #F4F4F7",
"S. c #F6F6F8",
"D. c #F7F7F9",
"F. c #F8F8FA",
"G. c #FCFCFD",
"H. c #FDFDFD",
"J. c None",
/* pixels */
"J.J.J.J.J.J.J.J.J.J.J.J.J.J.J.J.J.J.J.J.J.J.J.J.J.J.J.J.J.J.J.J.",
"J.J.J.J.J.J.J.J.J.J.J.J.J.J.J.J.J.J.J.J.J.J.J.J.J.J.J.J.J.J.J.J.",
"J.J.J.J.J.J.J.J.J.J.J.J.J.J.J.J.J.J.J.J.J.J.J.J.J.J.J.J.J.J.J.J.",
"J.J.J.J.J.J.J.J.J.J.J.J.J.J.J.J.J.J.J.J.J.J.J.q 0 7 J.J.J.J.J.J.",
"J.J.J.J.J.J.J.J.J.J.J.J.J.J.J.J.J.J.7 2 0 a U ! ` ) P d 2 7 J.J.",
"J.7 J.J.J.J.J.J.J.J.J.J.J.J.J.5 2 d / >.w.V.S.D.H.H.S.M.<.5 J.J.",
"J.q f 2 7 J.J.J.J.J.J.7 2 y U { w.l.M.M.N.V.S.D.H.H.S.Z.k.7   J.",
"J.r V.0.~ h e p h L T ` 3.t.M.M.l.M.M.l.N.V.S.S.H.H.S.Z.k.7   J.",
"J.r A.S.M.w.<.<.7.w.k.M.M.M.l.l.M.M.M.M.M.C.A.F.H.D.D.Z.k.5   J.",
"J.r A.S.N.w.7.5.7.w.k.M.l.M.M.M.M.M.k.M.N.C.A.F.H.H.D.Z.k.0   J.",
"J.r A.S.M.w.5.5.9.k.k.k.M.M.M.p.o.| c.M.N.C.A.F.H.H.S.Z.k.5   J.",
"J.r A.S.M.w.5.5.9.w.k.M.M.i.F j j l b O.M.C.A.F.H.H.D.Z.k.0   J.",
"J.r A.S.M.r.5.5.9.w.k.M.@.m z j j l v C a.C.A.F.H.H.D.Z.k.0   J.",
"J.r A.S.M.r.5.5.w.w.k.i.V v z j j l v M X.C.A.F.H.H.D.Z.k.5   J.",
"J.r A.S.M.r.5.5.9.t.k.H N v z j j l v M K C.D.D.H.H.D.Z.k.5   J.",
"J.r A.S.M.r.5.5.9.w.y.Z N v z j j l v M O.V.S.D.H.D.S.Z.k.7   J.",
"J.e Z.D.N.w.<.7.w.t. .Z M v z j j l v C s.V.A.F.H.H.D.Z.k.8   J.",
"J.y Z.D.M.w.7.<.7.w.} Z N v z j j l v J N.V.A.F.H.H.D.Z.k.7   J.",
"J.r A.D.M.w.1.7.w.w.+.Z N v z j j x A f.N.V.A.F.H.G.S.Z.k.5   J.",
"J.r Z.D.N.w.7.<.w.w.h.D N v z j j c z.b.M.V.A.F.H.H.S.Z.k.7   J.",
"J.r S.S.N.w.7.7.9.t.k.f.G n z c ..N.l.M.N.V.A.F.H.H.F.Z.k.5   J.",
"J.r Z.S.N.w.7.<.9.w.j.n.M.x.M.M.N.l.M.M.N.V.A.F.H.H.S.Z.k.0   J.",
"J.r S.S.M.w.5.5.w.t.k.M.M.l.M.M.l.N.l.l.N.B.S.D.H.H.S.Z.k.5   J.",
"J.r Z.S.M.w.5.5.9.w.j.M.M.l.M.M.N.l.N.j.0.:.] / Q ~ *.r.t.0   J.",
"J.r S.S.M.w.7.5.0.w.k.M.M.M.M.k.w.%.R p , * # @ + o & > y 1   J.",
"J.0 2.V.M.w.5.5.7.r.k.M.k.7.[ U 1 = O     J.J.J.J.J.J.        J.",
"J.7 ; p W { { :.:.:.[ E q > $ .   J.J.J.J.J.J.J.J.J.J.J.J.J.  J.",
"J.J.    O - ; : > - $ X     J.J.J.J.J.J.J.J.J.J.J.J.J.J.J.J.J.J.",
"J.J.J.J.J.J.      J.J.J.J.J.J.J.J.J.J.J.J.J.J.J.J.J.J.J.J.J.J.J.",
"J.J.J.J.J.J.J.J.J.J.J.J.J.J.J.J.J.J.J.J.J.J.J.J.J.J.J.J.J.J.J.J.",
"J.J.J.J.J.J.J.J.J.J.J.J.J.J.J.J.J.J.J.J.J.J.J.J.J.J.J.J.J.J.J.J.",
"J.J.J.J.J.J.J.J.J.J.J.J.J.J.J.J.J.J.J.J.J.J.J.J.J.J.J.J.J.J.J.J."
};
