/* XPM */
static char *klatin[] = {
/* columns rows colors chars-per-pixel */
"32 32 79 1",
"  c black",
". c #010101",
"X c #020202",
"o c gray1",
"O c #040404",
"+ c #060606",
"@ c gray3",
"# c gray4",
"$ c #0B0B0B",
"% c #0C0C0C",
"& c gray5",
"* c #0E0E0E",
"= c gray9",
"- c #191919",
"; c gray10",
": c gray11",
"> c #1E1E1E",
", c gray12",
"< c gray13",
"1 c #222222",
"2 c gray14",
"3 c #282828",
"4 c #2A2A2A",
"5 c #2D2D2D",
"6 c gray18",
"7 c #2F2F2F",
"8 c #343434",
"9 c #373737",
"0 c #393939",
"q c #3F3F3F",
"w c #444444",
"e c #464646",
"r c #494949",
"t c #4B4B4B",
"y c #4C4C4C",
"u c #4E4E4E",
"i c #515151",
"p c #606060",
"a c #676767",
"s c #6C6C6C",
"d c #6D6D6D",
"f c #727272",
"g c #767676",
"h c #777777",
"j c #7C7C7C",
"k c gray50",
"l c #808080",
"z c #818181",
"x c #838383",
"c c #898989",
"v c gray55",
"b c gray56",
"n c #909090",
"m c gray58",
"M c gray62",
"N c #AEAEAE",
"B c gray75",
"V c #C0C0C0",
"C c #C1C1C1",
"Z c gray76",
"A c gray79",
"S c gray82",
"D c LightGray",
"F c #D7D7D7",
"G c gray86",
"H c #DDDDDD",
"J c #DFDFDF",
"K c gray89",
"L c #E7E7E7",
"P c gray91",
"I c #E9E9E9",
"U c gray92",
"Y c gray94",
"T c #FBFBFB",
"R c gray99",
"E c #FDFDFD",
"W c #FEFEFE",
"Q c gray100",
"! c None",
/* pixels */
"!!!!!!!!!!!!!!!!!!!!!!!!!!!!!!!!",
"!!!!!!!!!!!!!!!!!!!!!!!!!!!!!!!!",
"!!!!!!!!!!!!!!!QQ!!!!!!!!!!!!!!!",
"!!!!!!!!!!!!QQQQQQQQQ!!!!!!!!!!!",
"!!!!!!!!QQQQQUMtqbJQQQQQ!!!!!!!!",
"!!!!!QQQQQJbw      5lSQQQQQ!!!!!",
"!!QQQQQSl5   =8wt8,O  2hAQQQQQ!!",
"!QQQZf<  O,8tttttttt0,#  ;aBQQQ!",
"QQh*    *,<,,,,,,,,,,,,*    =hQQ",
"QU;                       OO ;UQ",
"!QS ikhhhhhhhhhhhhhhhhhhhhhi SQ!",
"!QF akkkkkkkkkkkkkkkkkkkkkka FQ!",
"!QF alkkkkkkkkkkklkkkkkkkkka FQ!",
"!QK #************#********##OKQ!",
"!QQZ54tbbt44bba45abb44tbbt45ZQQ!",
"!!QQitlQQcttQQZttZQQttcQQltiQQ!!",
"!!QQitlQQcttQQZttZQQttbQQltiQQ!!",
"!!QQitxQQbttQQZttZQQttcQQxtiQQ!!",
"!!QQitxQQcttQQZttZQQttcQQxtiQQ!!",
"!!QQitlQQcttQQZttZQQttcQQltiQQ!!",
"!!QQitxQQcttQQZttZQQttcQQxtiQQ!!",
"!!QQitxQQcttQQZttZQQttcQQxtiQQ!!",
"!!QQitxQQcttQQZttZQQttbQQltiQQ!!",
"!QQTtwhKIkwwKINwwNKIwwkKIhwwQQ!!",
"!QQ8                        0QQ!",
"QQm 800000000000000000000008OmQQ",
"QI**444244244424424442444424**IQ",
"QF5<<2<<<2<<<<<<<<<2<<<<<<<<<5FQ",
"QQQQQQQQQQQQQQQQQQQQQQQQQQQQQQQQ",
"!!QQQQQQQQQQQQQQQQQQQQQQQQQQQQ!!",
"!!!!!!!!!!!!!!!!!!!!!!!!!!!!!!!!",
"!!!!!!!!!!!!!!!!!!!!!!!!!!!!!!!!"
};
