/* XPM */
static char *kturtle[] = {
/* columns rows colors chars-per-pixel */
"32 32 240 2",
"   c black",
".  c #000200",
"X  c #000300",
"o  c #000400",
"O  c #000500",
"+  c #000600",
"@  c #000700",
"#  c #010600",
"$  c #010700",
"%  c #000900",
"&  c #010801",
"*  c #000A00",
"=  c #000B00",
"-  c #010A00",
";  c #020800",
":  c #020900",
">  c #030900",
",  c #020B00",
"<  c #030A00",
"1  c #020B02",
"2  c #000D00",
"3  c #020D00",
"4  c #030D01",
"5  c #030E00",
"6  c #030E01",
"7  c #030E03",
"8  c #040C00",
"9  c #040D02",
"0  c #040E02",
"q  c #040F02",
"w  c #021002",
"e  c #031103",
"r  c #001400",
"t  c #041002",
"y  c #051202",
"u  c #041304",
"i  c #051602",
"p  c #061403",
"a  c #051505",
"s  c #041704",
"d  c #051605",
"f  c #061404",
"g  c #071704",
"h  c #001C00",
"j  c #071A05",
"k  c #051D05",
"l  c #071C05",
"z  c #0A1E00",
"x  c #081C06",
"c  c #091D06",
"v  c #0A1E06",
"b  c #0B2408",
"n  c #0D2509",
"m  c #0D240A",
"M  c #459E35",
"N  c #47A037",
"B  c #48A138",
"V  c #49A239",
"C  c #49A23A",
"Z  c #4BA33B",
"A  c #4BA43C",
"S  c #4EA63E",
"D  c #4FA63E",
"F  c #51A841",
"G  c #51A941",
"H  c #54AA43",
"J  c #57AE47",
"K  c #59AE48",
"L  c #5AAF48",
"P  c #59B049",
"I  c #5AB049",
"U  c #5BB04A",
"Y  c #5BB14A",
"T  c #5CB14B",
"R  c #5CB24B",
"E  c #5CB24C",
"W  c #5DB24D",
"Q  c #5EB34D",
"!  c #5EB34E",
"~  c #5FB44E",
"^  c #5FB44F",
"/  c #60B44F",
"(  c #60B54F",
")  c #61B54F",
"_  c #60B650",
"`  c #61B650",
"'  c #62B650",
"]  c #62B651",
"[  c #62B751",
"{  c #62B752",
"}  c #63B752",
"|  c #63B852",
" . c #63B853",
".. c #64B853",
"X. c #64B953",
"o. c #65B853",
"O. c #65B954",
"+. c #65BA54",
"@. c #66BA54",
"#. c #66BA55",
"$. c #66BB55",
"%. c #67BB55",
"&. c #67BA56",
"*. c #67BB56",
"=. c #67BC56",
"-. c #68BB56",
";. c #68BC56",
":. c #68BC57",
">. c #69BC57",
",. c #68BD58",
"<. c #69BD58",
"1. c #6ABD58",
"2. c #6ABD59",
"3. c #6ABE59",
"4. c #6BBE59",
"5. c #6BBE5A",
"6. c #6BBF5A",
"7. c #6CBE5A",
"8. c #6CBE5B",
"9. c #6CBF5A",
"0. c #6CBF5B",
"q. c #6DBF5B",
"w. c #6DC05B",
"e. c #6DC05C",
"r. c #6EC05C",
"t. c #6EC15C",
"y. c #6FC15C",
"u. c #6FC15D",
"i. c #6FC15E",
"p. c #6FC25D",
"a. c #6FC25E",
"s. c #70C25E",
"d. c #70C35F",
"f. c #71C35E",
"g. c #71C35F",
"h. c #71C460",
"j. c #72C460",
"k. c #72C461",
"l. c #72C560",
"z. c #73C460",
"x. c #73C461",
"c. c #73C561",
"v. c #73C562",
"b. c #73C662",
"n. c #74C561",
"m. c #74C562",
"M. c #74C662",
"N. c #74C663",
"B. c #75C662",
"V. c #75C663",
"C. c #75C764",
"Z. c #76C764",
"A. c #77C864",
"S. c #77C865",
"D. c #77C866",
"F. c #77C966",
"G. c #78C866",
"H. c #78C966",
"J. c #79C967",
"K. c #78CA66",
"L. c #79CA67",
"P. c #7ACA67",
"I. c #7ACA68",
"U. c #7ACB68",
"Y. c #7BCB68",
"T. c #7BCB69",
"R. c #7BCC68",
"E. c #7BCC69",
"W. c #7BCC6A",
"Q. c #7CCD6A",
"!. c #7DCC6A",
"~. c #7DCD6A",
"^. c #7DCD6B",
"/. c #7DCE6B",
"(. c #7ECE6B",
"). c #7FCF6B",
"_. c #7ECF6C",
"`. c #7FCF6C",
"'. c #7FCF6D",
"]. c #80CF6D",
"[. c #80D06E",
"{. c #81D06E",
"}. c #81D16E",
"|. c #81D16F",
" X c #82D16F",
".X c #83D170",
"XX c #82D270",
"oX c #83D270",
"OX c #83D271",
"+X c #83D371",
"@X c #84D271",
"#X c #84D371",
"$X c #84D372",
"%X c #84D471",
"&X c #85D472",
"*X c #85D573",
"=X c #86D473",
"-X c #86D573",
";X c #86D574",
":X c #87D674",
">X c #88D674",
",X c #88D675",
"<X c #89D675",
"1X c #89D776",
"2X c #8AD876",
"3X c #8AD877",
"4X c #8BD978",
"5X c #8BD979",
"6X c #8CDA79",
"7X c #8DDA79",
"8X c #8DDA7A",
"9X c #8EDB7A",
"0X c #8EDB7B",
"qX c #8FDC7B",
"wX c #90DD7C",
"eX c #90DD7D",
"rX c #91DD7D",
"tX c #91DE7E",
"yX c #92DE7F",
"uX c #92DF7F",
"iX c #93DF7F",
"pX c #92E07F",
"aX c #94E080",
"sX c #94E081",
"dX c #95E181",
"fX c #95E182",
"gX c #96E281",
"hX c #96E282",
"jX c #97E283",
"kX c #97E382",
"lX c #97E383",
"zX c #97E384",
"xX c #98E484",
"cX c #99E585",
"vX c #99E586",
"bX c #9AE586",
"nX c #9AE686",
"mX c #9BE787",
"MX c #9CE788",
"NX c None",
/* pixels */
"NXNXNXNXNXNXNXNXNXNXNXNXNXNX        NXNXNXNXNXNXNXNXNXNXNXNXNXNX",
"NXNXNXNXNXNXNXNXNXNXNXNX                NXNXNXNXNXNXNXNXNXNXNXNX",
"NXNXNXNXNXNXNXNXNXNXNX                    NXNXNXNXNXNXNXNXNXNXNX",
"NXNXNXNXNXNXNXNXNXNX                        NXNXNXNXNXNXNXNXNXNX",
"NXNXNXNXNXNXNXNXNX          MXcXcXpX          NXNXNXNXNXNXNXNXNX",
"NXNXNXNXNXNXNXNXNX          cXjXjXpX          NXNXNXNXNXNXNXNXNX",
"NXNXNXNXNXNX            cXcXcXpXaXrX8X8X            NXNXNXNXNXNX",
"NXNXNXNX                cXpXpXrX0X8X8X<X                NXNXNXNX",
"NXNXNX                  pXpXrXqX8X1X<X-X                  NXNXNX",
"NXNXNX                  uXrXrX4X1X<X-X-X                  NXNXNX",
"NXNX        MXcXcXpX        4X1X-X-X    o * P.G.Z.m.        NXNX",
"NXNX        cXcXxXpXo       1X-X-X}.    * g G.m.c.g.        NXNX",
"NXNXNX        o pXrX* o 3X1X-X@X}.).).P.q j m.c.j 2 o     NXNXNX",
"NXNXNX      o * rX0Xq o <X-X@X}.).^.P.F.2 j m.g.m k 2     NXNXNX",
"NXNXNXNX    * 2 t q <X-X-X X].^.W.P.F.C.c.g.v m m z h   NXNXNXNX",
"NXNXNXNX      o o * -X@X}.).^.T.P.C.Z.c.g.g.2 y u 2     NXNXNXNX",
"NXNXNXNX        :X-X X}.^.^.R.G.C.c.c.a.8.8.:.$.        NXNXNXNX",
"NXNXNXNX        %X X}.).^.R.G.C.C.c.a.a.8.8.%.@.        NXNXNXNX",
"NXNXNXNX        }.}.^.^.G.G.V.c.g.a.8.8.%.$.@.]         NXNXNXNX",
"NXNXNXNX        ).^.R.R.V.V.c.a.q.8.:.$.$.] ) ~         NXNXNXNX",
"NXNXNXNX        ^.R.G.C.c.g.a.q.8.:.$.} } ~ ! R         NXNXNXNX",
"NXNXNXNX        P.C.C.m.a.a.q.6.:.%.@.} ~ ~ R Y o       NXNXNXNX",
"NXNXNXNX    2 y y 2 c.g.6.8.8.%.@.} } ~ ~ Y * * * *     NXNXNXNX",
"NXNXNXNX  h z n m v a.a.8.8.$.$.} ) ~ R Y J g i j r     NXNXNXNX",
"NXNXNX    2 k m g.g.j q 8.$.$.] ) ! ! R o e H D y *       NXNXNX",
"NXNXNX    * 2 g g.q.z 2 $.} ] ) ! Y K J * u D D * *       NXNXNX",
"NXNX        g.a.7.:.g 2               o * > D D C M         NXNX",
"NXNX        7.8.:.&.q o                     A C C M         NXNX",
"NXNXNX            o                                       NXNXNX",
"NXNXNX                                                    NXNXNX",
"NXNXNXNX                NXNXNXNXNXNXNXNX                NXNXNXNX",
"NXNXNXNXNXNX        NXNXNXNXNXNXNXNXNXNXNXNX        NXNXNXNXNXNX"
};
