/* XPM */
static char *kverbos[] = {
/* columns rows colors chars-per-pixel */
"32 32 217 2",
"   c black",
".  c #040202",
"X  c #080404",
"o  c #0C0606",
"O  c #0D0606",
"+  c #0F0808",
"@  c #170B0B",
"#  c #201010",
"$  c #281414",
"%  c #321919",
"&  c #351A1A",
"*  c #3A1D1D",
"=  c #3C1E1E",
"-  c #3E1F1F",
";  c #422121",
":  c #432121",
">  c #452323",
",  c #492525",
"<  c #4D2727",
"1  c #4F2626",
"2  c #562929",
"3  c #5A2727",
"4  c #652C2C",
"5  c #672D2D",
"6  c #672E2E",
"7  c #692727",
"8  c #6B2525",
"9  c #6B2727",
"0  c #6E2121",
"q  c #6B2D2C",
"w  c #6E2B2B",
"e  c #6C2D2D",
"r  c #623030",
"t  c #623131",
"y  c #633232",
"u  c #653232",
"i  c #663333",
"p  c #693030",
"a  c #712222",
"s  c #732322",
"d  c #752121",
"f  c #762626",
"g  c #7F2020",
"h  c #7D2525",
"j  c #7E2626",
"k  c #782828",
"l  c #7D2928",
"z  c #912523",
"x  c #932523",
"c  c #9F2A21",
"v  c #96302B",
"b  c #A63D2A",
"n  c #B03223",
"m  c #A5493F",
"M  c #AC413C",
"N  c #B7482E",
"B  c #B64837",
"V  c #BC4231",
"C  c #BA4C3E",
"Z  c #D60000",
"A  c #D40A0A",
"S  c #DB170A",
"D  c #DA1A0B",
"F  c #D71F12",
"G  c #CE361A",
"H  c #CF351F",
"J  c #D42F15",
"K  c #DA2615",
"L  c #DE2E15",
"P  c #D5361C",
"I  c #DF2222",
"U  c #E10000",
"Y  c #E30F07",
"T  c #ED0000",
"R  c #ED0402",
"E  c #E31F0D",
"W  c #F80000",
"Q  c #FF0707",
"!  c #FF1818",
"~  c #E03418",
"^  c #F02510",
"/  c #FF231D",
"(  c #E12C25",
")  c #EB3B3B",
"_  c #FF2929",
"`  c #FF2A29",
"'  c #FF322D",
"]  c #FF3A3A",
"[  c #FF3B3A",
"{  c #C44F3F",
"}  c #CA4C38",
"|  c #CA553D",
" . c #D14A2A",
".. c #D8503D",
"X. c #E6492E",
"o. c #EB4128",
"O. c #FB4A20",
"+. c #F74D38",
"@. c #FC4535",
"#. c #FF4E30",
"$. c #FF5E2D",
"%. c #FF7437",
"&. c #FC7D36",
"*. c #D15C4D",
"=. c #DC5A48",
"-. c #D27267",
";. c #FF4C4C",
":. c #FF4E4D",
">. c #F65353",
",. c #FF5D5D",
"<. c #FF5F5E",
"1. c #E16743",
"2. c #E46A4C",
"3. c #EB6E4B",
"4. c #F66053",
"5. c #F76354",
"6. c #FF605F",
"7. c #F47D59",
"8. c #FF7557",
"9. c #FA7D5D",
"0. c #E67062",
"q. c #E57A6C",
"w. c #FF6B6B",
"e. c #FF6C6C",
"r. c #FF6E6E",
"t. c #F97264",
"y. c #FB7166",
"u. c #FC7B61",
"i. c #FF7170",
"p. c #FF7575",
"a. c #FF7878",
"s. c #FF7978",
"d. c #FF7F7F",
"f. c #F4884B",
"g. c #F6964D",
"h. c #FC9E44",
"j. c #FA905C",
"k. c #FF9C53",
"l. c #FF8268",
"z. c #F98B6B",
"x. c #FE8F79",
"c. c #FF9963",
"v. c #FF9F67",
"b. c #FF9A68",
"n. c #FF986F",
"m. c #FE987B",
"M. c #F8A747",
"N. c #FAA747",
"B. c #F8AC4B",
"V. c #FDB24C",
"C. c #F6B154",
"Z. c #FFBE51",
"A. c #FDBF5C",
"S. c #FFA262",
"D. c #FFA36E",
"F. c #FEA479",
"G. c #FFA67A",
"H. c #FFA87A",
"J. c #FFAE7E",
"K. c #FFBC65",
"L. c #F3C64F",
"P. c #FFC153",
"I. c #FFC352",
"U. c #FFC454",
"Y. c #FFC756",
"T. c #FCC951",
"R. c #FFCB5D",
"E. c #FFCF59",
"W. c #FFD357",
"Q. c #FFDC5C",
"!. c #FFCE64",
"~. c #FFCF77",
"^. c #FFD26C",
"/. c #FFD77B",
"(. c #FFD87B",
"). c #FFD97F",
"_. c #FFE35D",
"`. c #FEE360",
"'. c #FFE362",
"]. c #FFE860",
"[. c #FFF362",
"{. c #EE9087",
"}. c #FF8080",
"|. c #FF8484",
" X c #FF8982",
".X c #FF8A8A",
"XX c #FF8C8B",
"oX c #FF9182",
"OX c #FE9984",
"+X c #F79A91",
"@X c #FF9090",
"#X c #FF9494",
"$X c #FF9796",
"%X c #FB9E97",
"&X c #FE9995",
"*X c #FFAB8C",
"=X c #FFA696",
"-X c #FFA29C",
";X c #FFAD9B",
":X c #FFB98F",
">X c #FFDE8B",
",X c #FFCDA4",
"<X c #FFC8AB",
"1X c #FFD3AA",
"2X c #FFE49A",
"3X c #FFE49B",
"4X c #FFE7A7",
"5X c #FFE8A8",
"6X c #FFEAA9",
"7X c #FFEFB6",
"8X c #FFF0B8",
"9X c #FFEACA",
"0X c #FFF6C7",
"qX c #FFF7CF",
"wX c #FFFAD1",
"eX c #FFFCD6",
"rX c None",
/* pixels */
"rXrXrXrXrXrXrXrXrXrXrXrXrXrXrXrXrXrXrXrXrXrXrXrXrXrXrXrXrXrXrXrX",
"rXrXrXrXrXrXrXrXrXrXrXrXrXrXrXrXrXrXrXrXrXrXrXrXrXrXrXrXrXrXrXrX",
"rXrXrXrXrXrXrXrXrXrXrXrXrXrXrXrXrXrXrXrXrXrXrXrXrXrXrXrXrXrXrXrX",
"rXrXrXrXrXrXrXrXrXrXrXrXrXrXrXrXrXrXrXrXrXrXrXi i i rXrXrXrXrXrX",
"rXrXrXrXrXrXrXrXrXrXrXrXrXrXrXrXrXrXi y i k m C } | z h t i rXrX",
"rXi rXrXrXrXrXrXrXrXrXrXrXrXrXi t l -.{.%XXX}.p.w.r.a.x.7.7 rXrX",
"rXp h t i rXrXrXrXrXrXi t w x =.t.i.d.XX#X.X}.p.w.w.a.|.OX9   rX",
"rXe 9.3.N s 4 9 d g c H o.@.[ ;.,.r.d.XX#X.X}.p.w.w.a.|.OX9   rX",
"rXe u.>.) ( F D E R W Q ! ` [ ;.,.r.|.XX#X.X}.p.w.r.a.|.OX9   rX",
"rXe u.>.) I A Z U T W Q ! ` [ ;.,.i.}.XX#X=X*XG.v.S.n. XOX9   rX",
"rXe u.>.) I A Z U T W Q ! ` [ ;.,.oX<X9XwX8X3X).!.E.Q.].A.9   rX",
"rXe j.>.) I A Z U T W Q ! ' 8.J.5X8X0XeXwX7X3X).!.E.Q._.T.9   rX",
"rXe L.`.g.X.K S Y ^ O.%.k./.>X3X5X8X0XeXwX7X3X).!.E._.].T.8   rX",
"rXe L.[._.W.I.Z.I.U.Y.R.^./.>X3X6X8X0XeXwX7X3X).!.E.Q.].T.8   rX",
"rXe L.[._.W.I.Z.I.U.Y.R.^./.>X3X6X8X0XeXwX7X3X).!.E.Q._.T.9   rX",
"rXe L.[._.W.I.Z.Z.U.Y.R.^./.>X3X6X8X0XeXwX7X3X).!.E.Q._.T.9   rX",
"rXe L.[._.W.I.Z.U.U.E.R.^./.>X3X6X8X0XeXwX8X3X).!.E.Q.].L.9   rX",
"rXe L.[._.W.I.Z.Z.U.U.R.^./.>X3X6X8X0XeXwX8X3X).!.E.Q.].T.7   rX",
"rXe L.[._.W.I.Z.U.U.U.R.^./.>X3X6X8X0XeXqX1X:XF.b.c.K.`.T.9   rX",
"rXe L.[._.W.I.Z.Z.U.E.R.^./.>X3X5X,X;X-X#XXX}.a.w.w.a.|.F.9   rX",
"rXe C.[._.W.U.Z.U.U.Y.R.^.~.D.u.w.w.}.XX$XXX}.i.w.r.a.|.OX8   rX",
"rXe u.5.f.B.M.M.B.h.&.$.#.` [ ;.,.w.}.XX$XXX}.i.w.r.a.|.OX8   rX",
"rXe u.>.) I A Z U T W Q ! ` [ ;.,.r.d.XX#X.X}.r.w.w.p.}.OX9   rX",
"rXe u.>.) I A Z U T W Q ! ` [ ;.,.r.d.&X+Xq.*.*.B V 2.z.m.9   rX",
"rXe u.>.) I A Z U T W Q ! ` [ ;.y.0.M s < = $ # @ O * < f 3   rX",
"rX4 1.4.) ( A Z U T W Q / +...v 2 = +     rXrXrXrXrXrX        rX",
"rXi > 0 b  .G J L ~ P n q < & .   rXrXrXrXrXrXrXrXrXrXrXrXrX  rX",
"rXrX    O : : , < : % X     rXrXrXrXrXrXrXrXrXrXrXrXrXrXrXrXrXrX",
"rXrXrXrXrXrX      rXrXrXrXrXrXrXrXrXrXrXrXrXrXrXrXrXrXrXrXrXrXrX",
"rXrXrXrXrXrXrXrXrXrXrXrXrXrXrXrXrXrXrXrXrXrXrXrXrXrXrXrXrXrXrXrX",
"rXrXrXrXrXrXrXrXrXrXrXrXrXrXrXrXrXrXrXrXrXrXrXrXrXrXrXrXrXrXrXrX",
"rXrXrXrXrXrXrXrXrXrXrXrXrXrXrXrXrXrXrXrXrXrXrXrXrXrXrXrXrXrXrXrX"
};
