/* XPM */
static char *kvoctrain[] = {
/* columns rows colors chars-per-pixel */
"32 32 233 2",
"   c black",
".  c #0D0D0C0C0202",
"X  c #0F0F0F0F0202",
"o  c #121211110202",
"O  c #131312120303",
"+  c #1A1A19190505",
"@  c #1D1D1B1B0505",
"#  c #1E1E1C1C0606",
"$  c #23231D1D1414",
"%  c #24241E1E1515",
"&  c #252525250707",
"*  c #282826260707",
"=  c #2B2B29290707",
"-  c #2A2A29290808",
";  c #2E2E2C2C0909",
":  c #2F2F2E2E0909",
">  c #282825251A1A",
",  c #282827271919",
"<  c #30302F2F0909",
"1  c #313130300A0A",
"2  c #3B3B37372626",
"3  c #070707077272",
"4  c #080808087676",
"5  c #080808087C7C",
"6  c #080808087F7F",
"7  c #41413F3F1111",
"8  c #41413D3D2727",
"9  c #42423E3E2828",
"0  c #4C4C48481313",
"q  c #4F4F4B4B1313",
"w  c #52524E4E1111",
"e  c #515150501010",
"r  c #535350501010",
"t  c #5B5B59591212",
"y  c #4F4F4D4D3333",
"u  c #4E4E4A4A3838",
"i  c #4E4E4B4B3838",
"p  c #63635F5F1D1D",
"a  c #787874741E1E",
"s  c #7A7A77771E1E",
"d  c #656562623F3F",
"f  c #74746D6D2424",
"g  c #7E7E7B7B2020",
"h  c #66665F5F4040",
"j  c #7F7F72724C4C",
"k  c #090909098484",
"l  c #1A1A1A1A8D8D",
"z  c #80807C7C2727",
"x  c #81817F7F5B5B",
"c  c #F2F200000000",
"v  c #F6F600000000",
"b  c #FEFE00000000",
"n  c red",
"m  c #FFFF0D0D0D0D",
"M  c #FFFF11111111",
"N  c #FFFF19191919",
"B  c #FFFF1A1A1A1A",
"V  c #FFFF26262626",
"C  c #FFFF55555555",
"Z  c #FFFF5E5E5E5E",
"A  c #FFFF77777777",
"S  c #8E8E87873939",
"D  c #93938E8E2C2C",
"F  c #93938F8F3B3B",
"G  c #999991912F2F",
"H  c #9E9E97972F2F",
"J  c #9F9F98983030",
"K  c #A9A9A5A52F2F",
"L  c #AAAAA4A43A3A",
"P  c #838381815C5C",
"I  c #888887875D5D",
"U  c #8B8B89895E5E",
"Y  c #91918D8D5D5D",
"T  c #8D8D8B8B6060",
"R  c #959594946464",
"E  c #9A9A99996666",
"W  c #9C9C9A9A6565",
"Q  c #9E9E9C9C6A6A",
"!  c #A3A399994141",
"~  c #A8A89F9F5252",
"^  c #A6A699996767",
"/  c #AEAEA9A94141",
"(  c #AFAFACAC4545",
")  c #B9B9B1B14444",
"_  c #A9A9A7A76C6C",
"`  c #A8A8A7A76E6E",
"'  c #ACACABAB6E6E",
"]  c #AEAEADAD6D6D",
"[  c #AFAFADAD7373",
"{  c #B7B7ABAB6666",
"}  c #B5B5AAAA7373",
"|  c #B4B4B1B16464",
" . c #B7B7B4B46565",
".. c #B3B3B1B16D6D",
"X. c #B4B4B1B16A6A",
"o. c #B6B6B3B36969",
"O. c #B5B5B3B36D6D",
"+. c #B9B9B6B66161",
"@. c #B5B5B3B37474",
"#. c #B8B8B6B67373",
"$. c #BBBBB9B97777",
"%. c #BDBDBBBB7575",
"&. c #BEBEBCBC7878",
"*. c #C0C0BDBD4A4A",
"=. c #C3C3BCBC4848",
"-. c yellow",
";. c #D3D3CCCC5A5A",
":. c #C5C5C0C06A6A",
">. c #C5C5C2C26B6B",
",. c #C7C7C4C46868",
"<. c #CBCBC4C46F6F",
"1. c #C5C5C2C27070",
"2. c #C4C4C1C17474",
"3. c #C4C4C1C17777",
"4. c #C5C5C2C27777",
"5. c #C2C2C0C07878",
"6. c #C3C3C1C17A7A",
"7. c #C3C3C1C17C7C",
"8. c #C3C3C1C17F7F",
"9. c #CFCFCCCC7979",
"0. c #D9D9D2D26767",
"q. c #DBDBD8D87272",
"w. c #DEDEDBDB7575",
"e. c #DEDEDBDB7777",
"r. c #DFDFDCDC7272",
"t. c #DEDEDBDB7D7D",
"y. c #E3E3DDDD6262",
"u. c #E2E2DCDC6C6C",
"i. c #E1E1D8D87070",
"p. c #E8E8DADA7D7D",
"a. c #F3F3EEEE7979",
"s. c #F7F7F4F47C7C",
"d. c #F9F9F5F57B7B",
"f. c #FEFEFBFB7D7D",
"g. c #ABABAAAA8B8B",
"h. c #B8B8B4B48989",
"j. c #B2B2B1B19292",
"k. c #B5B5B4B49292",
"l. c #B8B8B6B69393",
"z. c #BEBEB9B99090",
"x. c #DDDD93939393",
"c. c #C4C4BFBF8C8C",
"v. c #FFFF84848484",
"b. c #FFFF88888888",
"n. c #FFFF8C8C8C8C",
"m. c #F6F6A4A4A4A4",
"M. c #FEFEA9A9A9A9",
"N. c #FFFFAAAAAAAA",
"B. c #FFFFBFBFBFBF",
"V. c #C3C3C1C18282",
"C. c #C3C3C1C18585",
"Z. c #C5C5C3C38787",
"A. c #C7C7C5C59D9D",
"S. c #CFCFCDCD9191",
"D. c #D3D3D1D18181",
"F. c #D5D5D2D28181",
"G. c #DBDBD8D88383",
"H. c #DDDDDADA8080",
"J. c #DDDDDADA8282",
"K. c #DCDCD9D98585",
"L. c #DCDCDADA8989",
"P. c #DCDCDADA8B8B",
"I. c #DCDCDADA8F8F",
"U. c #D9D9D4D49F9F",
"Y. c #DCDCDADA9191",
"T. c #DDDDDBDB9494",
"R. c #D9D9D7D7ABAB",
"E. c #E3E3DADA8C8C",
"W. c #E3E3DFDF9393",
"Q. c #E3E3E0E08181",
"!. c #EBEBE4E48F8F",
"~. c #ECECE7E78B8B",
"^. c #ECECE9E98D8D",
"/. c #E3E3E1E19A9A",
"(. c #F1F1EDED8484",
"). c #F2F2EFEF9898",
"_. c #F6F6F3F38181",
"`. c #F5F5F2F28B8B",
"'. c #F6F6F3F38888",
"]. c #F6F6F3F38B8B",
"[. c #F4F4F1F18E8E",
"{. c #F7F7F4F48888",
"}. c #FEFEFBFB8282",
"|. c #FFFFFCFC8686",
" X c #FEFEFBFB8888",
".X c #FEFEFBFB8A8A",
"XX c #FDFDFAFA8C8C",
"oX c #F6F6F0F09595",
"OX c #F5F5F3F39B9B",
"+X c #F6F6F4F49E9E",
"@X c #F9F9F6F69E9E",
"#X c #FEFEFCFC9F9F",
"$X c #E3E3E1E1A0A0",
"%X c #EEEEECECA2A2",
"&X c #E3E3E2E2B7B7",
"*X c #E6E6E4E4B5B5",
"=X c #E7E7E5E5B4B4",
"-X c #ECECEAEAB6B6",
";X c #EEEEECECB5B5",
":X c #F6F6EFEFB7B7",
">X c #F7F7F5F5A0A0",
",X c #F7F7F5F5AFAF",
"<X c #F9F9F6F6ABAB",
"1X c #FBFBF9F9A4A4",
"2X c #FEFEFCFCA0A0",
"3X c #FFFFFDFDA1A1",
"4X c #FFFFFDFDA2A2",
"5X c #FEFEFCFCA7A7",
"6X c #FFFFFDFDA6A6",
"7X c #FFFFFDFDA7A7",
"8X c #FBFBF9F9ACAC",
"9X c #FFFFFDFDA8A8",
"0X c #FFFFFDFDADAD",
"qX c #FEFEFCFCAFAF",
"wX c #FFFFFDFDAFAF",
"eX c #FFFFFDFDB0B0",
"rX c #FFFFFDFDB3B3",
"tX c #FEFEFCFCB5B5",
"yX c #FFFFFDFDB5B5",
"uX c #FFFFFDFDB6B6",
"iX c #FBFBF9F9BABA",
"pX c #FBFBF9F9BCBC",
"aX c #FBFBF9F9BEBE",
"sX c #FCFCFAFABBBB",
"dX c #FFFFFDFDB8B8",
"fX c #FFFFFDFDBABA",
"gX c #FFFFFDFDBCBC",
"hX c #F8F8F5F5C4C4",
"jX c #F8F8F8F8F8F8",
"kX c #FBFBFBFBFBFB",
"lX c #FEFEFEFEFEFE",
"zX c gray100",
"xX c None",
/* pixels */
"xXxXxXxXxXxXxXxXxXxXxXxXxXxXxXxXxXxXxXxXxXxXxXxXxXxXxXxXxXxXxXxX",
"xXxXxXxXxXxXxXxXxXxXxXxXxX  xXxXxXxXxXxXxXxXxXxXxXxXxXxXxXxXxXxX",
"xXxXxXxXxXxXxXxXxXxXxXxX> } u > xXxXxXxXxXxXxXxXxXxXxXxXxXxXxXxX",
"xXxXxXxXxXxXxXxXxXxXxXxXu :XhXz.d   xXxXxXxXxXxXxXxXxXxXxXxXxXxX",
"xXxXxX                                  8 % xXxXxXxXxXxXxXxXxXxX",
"xXxXxX                                  U.h.Y j     xXxXxXxXxXxX",
"xXxXxX                                  A.;XsXfX<X/.^ y 9 % xXxX",
"xXxXxX  n n n n n n n n n n n n n n n   k.=XpXfXrX9X6X@XE.S   xX",
"xXxXxX  n n n n n n n n n n n n n n n   k.=XaXsXrXwX6X4XoX/   xX",
"xXxXxX  n n n n n v c c c c c c c c c   g.R.;XiXrXrX9X4X(.K   xX",
"xXxXxX  -.-.-.-.-.                              rXrX6X4Xq.< xXxX",
"xXxXxX  -.-.-.-.-.  n n l k k N.n N.k k k n n   ,X8X5X4X<.; xXxX",
"xXxXxX  -.-.-.-.-.  zXzXn n k N.n N.k n n zXzX  $X%X5X#X=.; xXxX",
"xXxXxX              k k zXzXn N.n N.n zXzXk k   S./.OX4Xg O xXxX",
"xXxXxXxXxXxXxXh j.  n n n n n n n n n n n n n   Z.T.+X!.t   xXxX",
"xXxXxXxXxXxX2 c.&X  n n n n n n n n n n n n n   C.Y.OXu.t   xXxX",
"xX                                N.zXn n k k   V.I.).(   xXxXxX",
"xX  n n n n n n n n n n n n n n   m.6 jXkXn n   8.P.~.L   xXxXxX",
"xX  n n n B b.B.B.M n n n n n n   x.3 4 5 kXzX  8.P.w.a   xXxXxX",
"xX  n n n zXzXn.n.v.V n n n n n                 5.K.:.< xXxXxXxX",
"xX  n n b.zXA n n M M Z Z n n n   x P T Q [ @.#.4.J.) = xXxXxXxX",
"xX  n n N.zXC n n n n N.N.n n n   I U R _ $.5.4.9.Q.a O xXxXxXxX",
"xX  n n b.zXA n n M M m M n n n   E W _ &.D.G.J.Q.0.r   xXxXxXxX",
"xX  n n n zXzXn.n.v.V n n n n n   ' ] %.F.^.[.[.{.*.@ xXxXxXxXxX",
"xX  n n n B b.B.B.M n n n n n n   ..O.4.t.`.XX.Xa.J   xXxXxXxXxX",
"xX  n n n n n n n n n n n n n n   X.o.>.t.'..X|.;.q   xXxXxXxXxX",
"xX                                |  .:.e._.}.d.D # xXxXxXxXxXxX",
"xXxXxXxXxXxXxXxXxXxX    X & 7 g F ~ +.,.w.s.f.y.r   xXxXxXxXxXxX",
"xXxXxXxXxXxXxXxXxXxXxXxXxXxX    + r p ! { i.p.J   xXxXxXxXxXxXxX",
"xXxXxXxXxXxXxXxXxXxXxXxXxXxXxXxXxX  X - * f G 0   xXxXxXxXxXxXxX",
"xXxXxXxXxXxXxXxXxXxXxXxXxXxXxXxXxXxXxXxXxX      xXxXxXxXxXxXxXxX",
"xXxXxXxXxXxXxXxXxXxXxXxXxXxXxXxXxXxXxXxXxXxXxXxXxXxXxXxXxXxXxXxX"
};
