/* XPM */
static char * WAVE_SAW_xpm[] = {
"64 64 256 2",
"  	c None",
". 	c #161E54",
"+ 	c #329224",
"@ 	c #2A563C",
"# 	c #223A54",
"$ 	c #36763C",
"% 	c #264E44",
"& 	c #3EC60C",
"* 	c #4A568C",
"= 	c #36AE14",
"- 	c #323E6C",
"; 	c #5E727C",
"> 	c #3A4A74",
", 	c #36664C",
"' 	c #222E64",
") 	c #46E20C",
"! 	c #5A66AC",
"~ 	c #3A566C",
"{ 	c #828EB4",
"] 	c #3A4A8C",
"^ 	c #324274",
"/ 	c #7A82A4",
"( 	c #369E1C",
"_ 	c #4A5E8C",
": 	c #42D60C",
"< 	c #6E769C",
"[ 	c #263664",
"} 	c #3ABA14",
"| 	c #2E5E44",
"1 	c #32427C",
"2 	c #2A4254",
"3 	c #464E8C",
"4 	c #3ECE0C",
"5 	c #527A5C",
"6 	c #3A427C",
"7 	c #469244",
"8 	c #324A64",
"9 	c #222E74",
"0 	c #2A3A74",
"a 	c #4A569C",
"b 	c #46AE2C",
"c 	c #42A22C",
"d 	c #1A2664",
"e 	c #32822C",
"f 	c #3A526C",
"g 	c #565EA4",
"h 	c #727E9C",
"i 	c #6672BC",
"j 	c #52EE14",
"k 	c #42528D",
"l 	c #3A5E54",
"m 	c #32961C",
"n 	c #365664",
"o 	c #465693",
"p 	c #3AA622",
"q 	c #4ACE23",
"r 	c #3AB214",
"s 	c #6A7A94",
"t 	c #424A93",
"u 	c #2A3678",
"v 	c #4EBA34",
"w 	c #365264",
"x 	c #2A3A66",
"y 	c #323A84",
"z 	c #66728C",
"A 	c #3A4E74",
"B 	c #223269",
"C 	c #4E5E9C",
"D 	c #52D62C",
"E 	c #365E54",
"F 	c #364683",
"G 	c #3A4683",
"H 	c #324E64",
"I 	c #222A6C",
"J 	c #3A8634",
"K 	c #3A8E34",
"L 	c #2A5A44",
"M 	c #46C61C",
"N 	c #525A94",
"O 	c #3E6E54",
"P 	c #626EB4",
"Q 	c #425679",
"R 	c #3E9E2C",
"S 	c #6E7AC0",
"T 	c #2A465C",
"U 	c #465290",
"V 	c #2A3276",
"W 	c #525AA4",
"X 	c #32862C",
"Y 	c #52D226",
"Z 	c #26523C",
"` 	c #4A5A94",
" .	c #3A6654",
"..	c #52E61C",
"+.	c #3A4674",
"@.	c #7E8AAC",
"#.	c #36A21C",
"$.	c #3EC214",
"%.	c #32624C",
"&.	c #36428C",
"*.	c #2E3E7C",
"=.	c #4A5A9C",
"-.	c #7A7EAC",
";.	c #5AF624",
">.	c #323E7E",
",.	c #4E629C",
"'.	c #3A468C",
").	c #162254",
"!.	c #2E7E24",
"~.	c #42AA2C",
"{.	c #5E767C",
"].	c #3A4A84",
"^.	c #626AB4",
"/.	c #3E4E8C",
"(.	c #324664",
"_.	c #767AA4",
":.	c #2A366B",
"<.	c #325E4B",
"[.	c #364282",
"}.	c #469A44",
"|.	c #364A74",
"1.	c #263274",
"2.	c #2E3A84",
"3.	c #4AB62C",
"4.	c #1E2A6C",
"5.	c #425284",
"6.	c #5662AB",
"7.	c #767EAC",
"8.	c #5AF21C",
"9.	c #4EEA14",
"0.	c #56DE24",
"a.	c #46DE0C",
"b.	c #4EC234",
"c.	c #42B624",
"d.	c #3A625C",
"e.	c #465A84",
"f.	c #263E56",
"g.	c #326A44",
"h.	c #5E6AB4",
"i.	c #7E86AC",
"j.	c #727AA3",
"k.	c #527E5C",
"l.	c #42963C",
"m.	c #52F21C",
"n.	c #369A24",
"o.	c #4ED224",
"p.	c #2E3E6C",
"q.	c #6A768C",
"r.	c #52DA24",
"s.	c #3E923C",
"t.	c #46CA1E",
"u.	c #3EAE24",
"v.	c #4AE60C",
"w.	c #3E5A6C",
"x.	c #3EBE14",
"y.	c #3ED20C",
"z.	c #6A76BC",
"A.	c #3A5A64",
"B.	c #3AB614",
"C.	c #424E8E",
"D.	c #36624C",
"E.	c #425A74",
"F.	c #367A3C",
"G.	c #42DA0C",
"H.	c #46B22C",
"I.	c #3A6A54",
"J.	c #2E564C",
"K.	c #42C61C",
"L.	c #3E527C",
"M.	c #3EA62C",
"N.	c #3E4E84",
"O.	c #46529C",
"P.	c #2A524C",
"Q.	c #1A2264",
"R.	c #364674",
"S.	c #2A4264",
"T.	c #3A428C",
"U.	c #222A74",
"V.	c #36922C",
"W.	c #2A4E4C",
"X.	c #4E5694",
"Y.	c #262E6C",
"Z.	c #3E4A8F",
"`.	c #3A9E24",
" +	c #4E5E94",
".+	c #364A68",
"++	c #2E3A7B",
"@+	c #46A22C",
"#+	c #1E266B",
"$+	c #368232",
"%+	c #767E9F",
"&+	c #369624",
"*+	c #4ECE24",
"=+	c #2E3679",
"-+	c #2E3A6C",
";+	c #6A7294",
">+	c #26326B",
",+	c #525EA3",
"'+	c #3E4684",
")+	c #364E66",
"!+	c #3E8E38",
"~+	c #2E5A46",
"{+	c #2E4660",
"]+	c #368630",
"^+	c #2A5244",
"/+	c #56E624",
"(+	c #828AB4",
"_+	c #3AA224",
":+	c #4E5AA3",
"<+	c #363E83",
"[+	c #1A225C",
"}+	c #327E2C",
"|+	c #627684",
"1+	c #36466C",
"2+	c #4A9A3C",
"3+	c #4EB634",
"4+	c #5A62AC",
"5+	c #3E6264",
"6+	c #567E64",
"7+	c #4ACA1C",
"8+	c #42AE2C",
"9+	c #5E66AC",
"0+	c #3E566C",
"a+	c #868EB4",
"b+	c #3EBA14",
"c+	c #262E74",
"d+	c #4E569C",
"e+	c #3A5664",
"f+	c #52BA34",
"g+	c #3E4E74",
"h+	c #56D62C",
"i+	c #666EB4",
"j+	c #42C214",
"k+	c #52629C",
"l+	c #3E468C",
"m+	c #3E4A84",
"n+	c #465284",
"o+	c #366A44",
"p+	c #56F21C",
"q+	c #42D20C",
"r+	c #3EB614",
"s+	c #4A529C",
"t+	c #2A5644",
"u+	c #4A5694",
"v+	c #323E74",
"w+	c #5E7284",
"x+	c #3A4A7C",
"y+	c #222E6C",
"z+	c #7A82AC",
"A+	c #369E24",
"B+	c #26366C",
"C+	c #2E5E4C",
"D+	c #324284",
"E+	c #2A425C",
"F+	c #464E94",
"G+	c #42A234",
"                                                    1.V V V V 1.c+9 U.I 4.#+                                                    ",
"                                            I ++[.[.y 2.2.u 1.c+1.c+9 9 I y+[+. . .                                             ",
"                                        =+m+t '+T.[.>.2.=+c+u S %+c+U.9 4.4.4.#+Q.Q.. .                                         ",
"                                  ++N d+u+F+t '.&.<+y 2.2.c+V 7.j.9 9 U.9 9 U.4.4.d Q.. . . .                                   ",
"                                N g g d+s+C.Z.'.&.D+y =+0 9 V _.7.c+9 U.4.4.4.4.U.4.4.#+#+Q.. .                                 ",
"                            X.^.9+6.:+d+O.F+t l+&.<+>.2.=+c+1.7.j.9 9 9 U.U.U.#+4.4.#+4.#+4.Q.. . .                             ",
"                          i+P h.4+g :+a F+t l+'.&.>.y 2.u u 1.1.c+c+U.9 4.4.U.#+4.U.#+4.#+4.#+d Q.. .                           ",
"                      3 z.i ^.! 6.,+:+a O.Z.] T.<+y *.=+u V V c+1.9 y+U.9 U.4.4.#+#+4.#+4.#+#+#+#+Q.. . .                       ",
"                    6 < i i ^.! 6.W a O.F+t l+'.&.y 2.=+u 9 V S _.c+9 U.9 U.4.4.U.#+4.#+#+d #+#+#+#+Q.. . .                     ",
"                  X.S i i h.! 6.,+:+a O.F+Z.'.&.<+>.2.2.u U.1._.j.9 I U.4.4.4.4.4.4.#+4.4.4.d 4.4.#+4.Q.. . .                   ",
"                6 ;+z.i+i+h.! g W d+O.C.Z.'.T.&.>.y =+=+u U.1.j.j.9 y+U.9 4.4.U.#+4.#+d #+4.#+#+4.d #+d Q.. . .                 ",
"              3 S z.i i+h.! g ,+:+a O.F+Z.l+&.<+>.2.2.u V 9 c+_.j.9 4.U.4.U.#+#+4.#+4.4.#+d #+d #+#+4.#+#+Q.. . .               ",
"              i+i i+P 9+! 6.,+:+a O.F+Z.] '.&.>.2.2.=+u V 1.c+c+9 9 9 U.4.4.U.4.4.#+#+4.4.4.4.#+4.#+#+#+d d Q.. .               ",
"            i i i P h.! 4+g W a O.t Z.'.T.&.<+y y u u u 1.1.1.9 U.U.4.4.U.4.U.U.4.U.4.U.4.U.4.4.4.4.4.4.#+#+4.Q.. .             ",
"          m+i+^.^.9+! ,+,+:+d+s+U Z.l+'.&.>.<+>.2.u V V 1.U.c+_._.9 9 9 9 9 4.9 9 9 9 4.U.4.9 4.9 9 4.9 4.4.4.4.d Q..           ",
"          ^.^.9+! 6.,+,+:+d+O.C.m+N.l R.<+>.*.2.=+=+u V 1.4.9 j.j.U.U.4.9 U.9 9 9 9 9 9 9 c+9 c+U.I 9 I 9 I U.I 4.. .           ",
"        X.! ! 6.g g W :+a s+C.Z.> d.2+E v+y 2.2.u u u c+c+U.c+j._.9 1.9 1.9 9 9 9 c+1.1.1.9 B 1.1.y+1.y+9 y+y+U.y+4.d .         ",
"      <+4+6.,+W ,+:+:+a O.C.t f I.7 b.!+, T =+V u 1.1.1.1.9 1.j.7.1.9 c+9 1.1.1.1.1.c+1.1.1.1.1.c+1.c+1.>+c+9 Y.9 I I [+.       ",
"      3 W W :+d+a s+s+F+C.m+m+O v Y 8.*+H.C+x V V 1.V 1.c+c+1.c+1.1.1.V 1.1.1.V 1.B+1.1.u V 1.B+V B+1.1.1.1.1.Y.1.>+y+I d       ",
"      :+d+d+a a s+O.C./.'+f O 2+Y 0./+0.*+K C+f.1.c+1.V 1.1.V 1.1.V 1.1.V V u u u V u u V u u V u V V V B+V 1.1.c+c+Y.B [+      ",
"    :.a o s+O.O.C.F+Z.] R.I.3+h+;./+D ..m.t.u.L >+1.9 1.u U.u _.7.u u u u u u u 0 u u 0 u u 0 u 0 u u u u u u B+1.1.c+V y+d     ",
"    F+F+F+F+t Z.Z.'.6 )+I.l.D Y *+G+F.R 7+7+t.X L # 1.1.1.9 1.7.7.u u u u u u =+=+2.2.=+++2.=+++=+++++=+u u u u u u :.>+' .     ",
"  d Z.Z.Z.Z.l+'.'.F R.I.3+Y 8.Y b g.E+g.u.M j K.p t+[ >+u 9 u 7.7.u 2.++2.2.2.2.++++*.2.++*.++*.++++++++++=+=+=+u u u V :.>+d   ",
"  y l+'.'.'.'.&.<+.+ .s.o.Y o.K C+T B+E+L X K.K.K.X t+# >+Y.u z+z+2.0 u ++++++++++y ++*.>.2.*.y *.++*.++++++++0 u =+:.u V Y..   ",
"  <+T.&.&.&.[.1 ^ , 3.Y p+*+b C+:.>+1.B [ L p j+v.$.p t+[ :.u u 0 2.*.2.*.*.*.>.*.>.>.>.1 >.>.>.>.>.>.>.*.*.++++++=+=+u :.V >+  ",
"  D+<+<+<+y y (.%.s.o.o.*+K | 2 B+1.V c+>+# t+X $.$.x.e @ f.:.=+=+y y >.>.>.>.>.<+D+<+>.<+<+D+<+D+>.>.>.>.v+>.v+++*.++++=+:.V   ",
"c+>.>.2.*.++x %.H.*+m.q 8+| [ >+V 1.1.c+1.B B @ _+$.) x.#.Z x j./ *.y >.>.<+D+D+<+D+[.D+[.[.D+[.[.[.1 [.>.<+>.>.++*.++++++x 0 :.",
"V 2.2.=+=+E+<.K q q 7+K | f.1.c+1.1.V 1.1.>+>+# t+e x.x.x.!.@ ; < ++*.>.>.D+[.[.F [.F F F [.G [.[.[.[.[.[.1 [.1 ^ >.v+*.++++=+u ",
"V =+2.u V P.M.t.j t.~.L B >+1.c+c+1.1.1.V u u >+[ t+#.x.a.x.( k.w+v+>.&.[.&.[.[.'.&.6 F F F '.F F G F F [.[.[.<+>.>.>.v+y ++++=+",
"u u c+I ' % M.c.K.X @ # >+y+U.4.U.4.1.1.9 9 U.y+1.f.Z !.x.} } 2+k.E+v+>.&.[.F F F '.] '.'.'.G '.G '.G G F 1 >.1 1 ^ >.>.v+v+++0 ",
"V 1.V 1.>+W.`._+p t+B ' 9 9 1.9 c+c+1.1.1.u u u 0 0 [ t+#.x.G.} A+L ^ ^ F &.'.'.].'.'+m+].] ].] ].'.'.G G F ^ ^ v+v+1 >.>.>.++++",
"1.V 7.< < ; t+^+k.; z ;+c+c+j.j.j.j.c+V 7.7.7.7.u u s ; 5 l.} b+} e 5 ; h i.G ] (+{ { (+Z.Z.a+a+{ { ].G %+|+6+5 J.{+-./ i.i.v+++",
"9 c+7.j.< < B y+z ;+_.j.9 U._.j.j.7.1.V %+7.z+7.2.u z+s q.k.( b+G.} 8+k.q.%+G ] (+(+{ a+/.Z.(+(+(+(+].F s 5 @+c K t+h / i.i.[.v+",
"9 1.c+c+c+U.9 9 9 c+U.9 U.9 9 U.c+c+c+1.V u u ++++*.*.++++2 L e } } r+e | 8 F G Z./.C./././.k C.C.m+> H ~+e r #.+ J.^ v+[.[.>.++",
"U.9 U.9 9 U.y+U.9 9 U.9 U.4.9 9 9 1.1.u u u u 2.++2.>.*.>.v+S.k.b } : B.n.@ (.].>.*.>.>.k C.1 >.>.++1+<.m r 4 = m ~+x :.u =+[.>.",
"4.U.9 U.9 c+U.9 4.4.4.4.y+U.U.9 1.9 1.1.u u ++u 2.>.>.<+D+1 v+{.k.e B.} } X %.8 x+Z.k U U k C.N.N.)+<.e r r r }+~+(.F F G F [.>.",
"4.U.9 I 4.I I U.U.9 U.4.4.I I U.1.9 1.1.u u ++++++y 1 >.[.[.[.h q.| n.} : B.( <.> m+k k o o U m+.+%.n.r 4 r n.~+(.F G G G F F ^ ",
"d y+4.4.U.9 4.I I 4.4.4.U.4.9 9 9 1.V u u =+++++>.>.>.[.D+G F / h 8 @ $+B.b+b+]+%.H N.k U C.L.w D.e r+B.r e | )+x+G m+x+G G 6 <+",
"  U.U.4.4.U.4.4.U.U.#+4.4.4.y+c+c+1.1.V u u 2.2.*.>.D+[.[.&.'.].G R.(.<.( B.y.B.`.%.> N.o N.A %.`.r 4 B.n.<..+x+C.m+Z.].G F G   ",
"  4.4.U.4.4.4.4.#+4.U.4.4.U.4.9 9 c+V u u ++++++>.>.<+&.[.G G '.] ].].H <.X b+r+} $+%.n L.e+D.$+r B.B.e <.w m+m+C./.N.m+m+G F   ",
"  . 4.#+4.U.4.4.4.4.#+#+#+U.I c+1.1.1.u u 0 2.2.>.>.D+F F F ] (+(+Z.v+].> <.( r+q+b+`.g.f g.A+B.4 r n.D.> L.o k k C./.N.m+G v+  ",
"  [+#+U.#+4.4.4.#+#+4.4.4.4.9 9 9 1.u u u =+++>.*.D+<+&.T.'.G { { /.*.N.].)+%.$+} B.B.V.$ V.r+B.B.J , e+5.U U U k k C.Z.Z.+.'   ",
"    ).4.#+#+#+4.4.#+#+4.4.4.y+9 9 c+1.u 2.++++>.>.D+D+F G ] '.(+(+t >.k k N.A D.`.B.q+& x.$.4 r+A+D.L.n+o o o o k k C.N.].'+    ",
"    d #+4.4.4.#+#+4.4.#+#+U.4.c+1.1.1.u u 0 ++2.>.<+[.[.F G Z.a+a+/.<+k k 5.k w D.]+B.x.& x.r+$+D.0+o ` ` ` ` U U C.k N.N.>+    ",
"      Q.#+#+4.4.#+#+d 4.#+I U.9 1.1.V u =+++>.>.1 >.D+[.F G ] Z././.C.k o k o k N.D.A+r+y.r+`. .Q o ` N ` o ` o o k C.C.C.      ",
"      #+4.4.#+#+4.4.4.#+4.4.y+Y.9 1.u V u ++++++>.[.[.G '.] G /./.C.k U U o o Q * 0+ .}+p }+I.w.`  + +C =.` o o k k 5.N.6       ",
"      . Q.#+#+#+#+#+#+d 4.4.4.c+1.1.B+u u ++*.2.>.D+D+[.[.] G (+{ C.>.k O.O.o o ` 5.Q l J d.e._ k+k+,. +C N ` o U U C.N.'+      ",
"        d 4.4.d #+d 4.4.#+U.y+9 9 1.1.u u u y >.>.<+[.F G G ] a+a+/.D+k o o a ` =.` o Q 5+E._  +k+,.,+C ` ` o o o k k >         ",
"          . #+#+#+#+#+4.#+I y+c+9 1.1.u ++0 ++++>.>.[.[.F G ] (+a+C.>.C.U o o o ` N _ ` `  +k+k+k+,.,.C _ ` ` o U n+C.          ",
"          d 4.4.4.#+d #+4.4.4.y+Y.1.V u u =+++>.*.[.[.F 6 ] G a+(+/.[.k o o o ` =.=.=.=._ C k+,.k+k+,+ +:+` * U o 5.:.          ",
"            . #+d #+d d #+I U.9 c+1.1.V u u ++>.*.>.>.F &.'.'.Z.m+Z.C.C.k o o o ` N _ :+C C k+k+C  +C ` N ` o k U C.            ",
"              #+d #+#+#+#+4.4.y+y+1.1.B+u ++++++y >.[.D+F G G ].Z././.k k U U o =.=.:+_ C C C C  +C ` ` ` o o o 5.              ",
"              . Q.d #+d #+4.4.y+y+c+V u u u ++*.*.>.<+[.[.F G { { N.*.C.k k U U o o ` ` _ C =.:+` _ =.u+u+o U C.+.              ",
"                ).#+d #+d #+I I 9 1.>+1.1.u u ++y *.>.1 F F F (+(+Z.>.C./.k o o o o a a u+` ` ` ` u+` ` o o 5.:.                ",
"                  . ).#+#+#+4.I I 9 1.:.u =+=+++y v+>.>.[.G [.(+(+m+*.C.C.C.k k o o o ` o ` ` ` ` o o o U 5.+.                  ",
"                    . d d d 4.I y+Y.c+1.>+u :.++*.*.>.1 [.[.F (+(+].++Z././.C.k U U o U o o o o o o U U 5.:.                    ",
"                      . [+#+4.4.4.y+Y.1.1.u u u ++y y >.1 [.[.F G m+].m+/./.C.C.k k k U U U U U U o Q k '+                      ",
"                          Q.#+I y+y+9 c+>+u :.=+=+++v+*.>.[.[.[.[.F ].] m+m+/.N./.C.k k k k k k k k C.                          ",
"                            ).#+I y+Y.1.Y.1.u :.0 ++y v+>.>.[.i.i.6 ++].].m+/.N.C.C.C.C.k k k k N.'+                            ",
"                                4.I y+Y.1.V B+u u 0 ++y *.1 1 i.(+F ++G ].'.m+m+m+N.N.N.C.C.C.m+                                ",
"                                  d 4.y+B c+V u :.0 0 ++++>.[.z+i.[.u 6 G G G ].Z.m+m+m+m+m+>                                   ",
"                                        I >+>+V V =+:.++++++*.i.i.[.++F G F G G G ].].^                                         ",
"                                            I ' >+=+=+-+++++v+y v+>.>.1 [.F G F >.[.                                            ",
"                                                    V :.=+:.++*.++>.v+<+^ [.                                                    "};
