/* XPM */
static char * Synth_SHELF_CUTOFF_xpm[] = {
"64 64 180 2",
"  	c None",
". 	c #161E54",
"+ 	c #4A9A2C",
"@ 	c #4A5A94",
"# 	c #2E3E7C",
"$ 	c #62CA2C",
"% 	c #4A8644",
"& 	c #3E4E84",
"* 	c #66E614",
"= 	c #52AE2C",
"- 	c #222E64",
"; 	c #364684",
"> 	c #46725C",
", 	c #8692B4",
"' 	c #6E769C",
") 	c #52629C",
"! 	c #4A529C",
"~ 	c #6EF614",
"{ 	c #2A3674",
"] 	c #7E86AC",
"^ 	c #363E84",
"/ 	c #62DA14",
"( 	c #46568C",
"_ 	c #3E4684",
": 	c #969ECC",
"< 	c #1A2664",
"[ 	c #52A62C",
"} 	c #424E94",
"| 	c #767EA4",
"1 	c #525A94",
"2 	c #222E74",
"3 	c #62D224",
"4 	c #6AEE14",
"5 	c #8E9ABC",
"6 	c #5A62AC",
"7 	c #7EFE1C",
"8 	c #323A84",
"9 	c #56BE1C",
"0 	c #3A4A7C",
"a 	c #6E7ABC",
"b 	c #2E3A74",
"c 	c #868EB4",
"d 	c #36427C",
"e 	c #222A64",
"f 	c #5A9E44",
"g 	c #4E5E94",
"h 	c #32427C",
"i 	c #464E8C",
"j 	c #6EE624",
"k 	c #5E6AB4",
"l 	c #8E92C4",
"m 	c #52669C",
"n 	c #72FE14",
"o 	c #3E4A84",
"p 	c #2A3274",
"q 	c #36428C",
"r 	c #767AA4",
"s 	c #4A5694",
"t 	c #56A644",
"u 	c #425294",
"v 	c #66D224",
"w 	c #6672BC",
"x 	c #162254",
"y 	c #4E5AA4",
"z 	c #323E84",
"A 	c #62CE24",
"B 	c #42528C",
"C 	c #6AEA14",
"D 	c #56BA1C",
"E 	c #26326C",
"F 	c #3A468C",
"G 	c #727AA4",
"H 	c #2E3674",
"I 	c #7E8AB4",
"J 	c #62E214",
"K 	c #1E2A6C",
"L 	c #7E82B4",
"M 	c #525EA4",
"N 	c #263274",
"O 	c #3A427C",
"P 	c #666EB4",
"Q 	c #7AFE14",
"R 	c #3E4A94",
"S 	c #4E5694",
"T 	c #52A22C",
"U 	c #4E5A9C",
"V 	c #323E74",
"W 	c #424E8C",
"X 	c #262E6C",
"Y 	c #3A467C",
"Z 	c #8A96BC",
"` 	c #7276A4",
" .	c #5662AC",
"..	c #9AA2CC",
"+.	c #1E2664",
"@.	c #7A82AC",
"#.	c #6AF214",
"$.	c #929AC4",
"%.	c #5A66AC",
"&.	c #86FE1C",
"*.	c #6EC644",
"=.	c #3A4A8C",
"-.	c #2E3A84",
";.	c #8A8EBC",
">.	c #222A74",
",.	c #56A24C",
"'.	c #626EB4",
").	c #8E96BC",
"!.	c #5666A4",
"~.	c #56AA44",
"{.	c #465294",
"].	c #66D62C",
"^.	c #1A2264",
"/.	c #4E9E2C",
"(.	c #4A5A9C",
"_.	c #62CA34",
":.	c #6A76BC",
"<.	c #3E4E8C",
"[.	c #6AE624",
"}.	c #56AE34",
"|.	c #222E6C",
"1.	c #8A92BC",
"2.	c #6E76A4",
"3.	c #5662A4",
"4.	c #72FA14",
"5.	c #2A367C",
"6.	c #7E86B4",
"7.	c #62DE14",
"8.	c #465694",
"9.	c #5EC22C",
"0.	c #5ED614",
"a.	c #52AA2C",
"b.	c #46528C",
"c.	c #6EEA24",
"d.	c #5ABA2C",
"e.	c #525AA4",
"f.	c #6AEA24",
"g.	c #1A225C",
"h.	c #5AA244",
"i.	c #9A9ECC",
"j.	c #464E94",
"k.	c #262E74",
"l.	c #82FE1C",
"m.	c #626AB4",
"n.	c #76FE14",
"o.	c #3A428C",
"p.	c #5AA644",
"q.	c #6AD224",
"r.	c #66CE24",
"s.	c #828AB4",
"t.	c #66E214",
"u.	c #565EA4",
"v.	c #424A94",
"w.	c #6EF214",
"x.	c #5E66AC",
"y.	c #3E468C",
"z.	c #767EAC",
"A.	c #8E9AC4",
"B.	c #3A4A84",
"C.	c #6E7AC4",
"D.	c #2E3A7C",
"E.	c #868EBC",
"F.	c #364284",
"G.	c #222A6C",
"H.	c #4E5E9C",
"I.	c #324284",
"J.	c #5266A4",
"K.	c #3E4A8C",
"L.	c #2A327C",
"M.	c #4A569C",
"N.	c #2E367C",
"O.	c #26327C",
"P.	c #3A4284",
"Q.	c #7AFE1C",
"R.	c #4E569C",
"S.	c #323E7C",
"T.	c #3A4684",
"U.	c #1E266C",
"V.	c #8E96C4",
"W.	c #46529C",
"                                                    N p p L.L.N k.2 >.G.K +.                                                    ",
"                                            e b F.F.8 -.D.5.O.k.N k.2 2 G.2 ^.. . .                                             ",
"                                        H o v.y.o.F.z -.N.N.5.O.N k.>.2 K K K U.^.^.. .                                         ",
"                                  b U R.s j.v.F q ^ 8 -.D.5.O.k.2 2 2 >.2 2 >.K K < ^.. . . .                                   ",
"                                1 u.M R.! } R F q I.8 N.5.5.5.L.N k.2 >.K K K K >.K K U.U.^.. .                                 ",
"                            S m.x. .e.R.{.} v.y.q ^ z -.N.L.N N k.2 |.2 >.>.>.U.K K U.K U.K ^.. . .                             ",
"                          '.'.k 6 u.y M.j.v.y.F q z 8 -.N.L.O.O.k.k.>.|.K K >.U.K K U.K U.K U.< ^.. .                           ",
"                      i :.w m.%. .M y M.W.R =.o.^ 8 # D.5.5.p N N 2 2 >.2 >.K >.U.U.K U.K U.U.U.U.^.. . .                       ",
"                    O 2.w w m.%.3.e.M.! j.v.y.F F.8 -.D.5.O.O.k.2 k.2 >.|.>.K K K U.K U.U.< U.U.< U.^.. . .                     ",
"                  S a w w m.%.6 M U M.{.} K.F q ^ z N.5.L.L.k.O.k.2 G.>.K K K K K K U.K K K U.K K U.K ^.. . .                   ",
"                O 2.:.P '.k %.u.e.R.W.} R y.o.q z z -.N.{ L.k.k.2 2 |.>.2 >.K K U.>.U.U.U.K < U.K < U.< ^.. . .                 ",
"              i :.w w P k %.u.M y M.W.} R F F.z z D.N.5.L.N N N k.2 K >.K K U.U.K U.K K U.U.U.< U.U.K U.U.^.. . .               ",
"              w :.P '.x.%. .M y M.{.j.v.K.F q z 8 D.D.5.5.O.2 2 2 2 2 K K K >.K K U.U.K K K K U.K U.< U.< < ^.. .               ",
"            w w P ..i.%.6 M y M.! j.<.K.o.q ^ 8 -.-.5.5.N k.k.k.>.>.K >.>.>.K >.K K K K K K K K K K K K U.U.K ^.. .             ",
"          o P P m.: : u.M e.R.W.j.v.y.F o.F.^ 8 N.5.L.L.N N 2 k.X 2 2 2 2 2 K 2 2 2 2 K >.>.2 >.2 2 >.2 K K K K < ^..           ",
"          m.m.%.%. .M M e.M.! W.} v.=.F F.^ z D.D.5.5.N O.k.k.2 2 >.>.K |.>.2 2 2 2 2 2 2 2 2 |.G.G.|.G.2 G.>.G.K . .           ",
"        S %.6  . .u.y y R.8.j.} R y.F o.z z 8 N.N.5.L.N O.N 2 2 k.2 N 2 N k.2 2 2 k.N N N X N N N 2 N |.2 |.|.>.|.K < .         ",
"      ^ 6 u.) y.e.V.V.M.W.j.} R R F o.z ^ D.D.D.5.N N N k.2 N k.N N k.k.2 N N N N N k.N N N N N k.N k.N E k.2 X 2 G.G.g..       ",
"      i M e.y F M.l 1.W.} v.R F o.q q z 8 -.5.5.5.L.O.N N k.N N N N N p N p N p N { N N 5.N N { N { N N N E N X N E |.G.<       ",
"      y R.R.R.P.! , E.} v.R y.o.q ^ z 8 -.N.N.L.L.N p O.p N N N N O.O.N N O.{ { 5.O.5.{ p 5.{ N { N p p { p N N k.k.|.E g.      ",
"    H ! W.W.j.^ j.E.s.R y.o.F P.^ 8 # 8 D.5.5.p L.N N O.5.p L.L.{ { 5.5.{ 5.5.{ D.H 5.D.{ 5.D.5.b 5.5.{ 5.{ { { N p X p |.<     ",
"    j.u } } } <.R y.y.F ; o.^ z z S.-.D.5.5.p O.{ L.L.N N 5.N { L.5.{ N.N.N.5.N.5.D.D.5.D.D.5.D.5.b D.{ { { { { { { { E - .     ",
"  +.v.v.R R y.y.y.y.o.o.F.^ z z 8 N.5.N.5.L.{ O.N p 5.5.N 5.L.5.{ 5.D.D.D.D.D.D.D.D.# D.D.S.D.# D.D.D.D.D.N.5.{ { { { p { E +.  ",
"  b F F y.o.F -.F 6.6.^ z z z -.N.D.N.L.p { O.p L.5.5.p 5.5.b D.5.D.D.5.D.D.D.D.D.D.8 # # D.# 8 # D.# D.D.D.b D.{ 5.{ { p - .   ",
"  ^ P.q o.q ^ 5.I.6.6.z 8 8 N.-.N.5.5.O.O.N L.{ N L.5.5.5.5.5.D.D.D.# D.# # # z S.# z S.h S.S.S.S.S.S.S.# S.D.8 b H { { H p E   ",
"  ^ q ^ I.^ z L.8 L @.-.D.5.D.5.L.5.N p p L.{ O.5.5.{ N.D.5.D.D.D.D.D.# S.z z S.z F.^ ^ z ^ I.z I.S.z S.S.# S.# D.# D.b { { p   ",
"N z z 8 z z 8 p D.z.@.-.N.5.5.5.N L.O.N N O.{ { 5.5.5.{ D.D.D.-.D.z 8 z S.^ I.d z h I.F.F.F.d F.F.d I.F.^ S.S.S.D.S.D.b b b b { ",
"N D.-.-.N.-.D.D.-.D.N.5.5.L.p N L.N N O.5.p L.5.5.5.D.D.D.D.D.D.z S.h z z I.F.F.; F.; ; ; F.; F.F.F.F.d I.d F.d h S.S.S.D.b { { ",
"L.N.N.-.N.5.5.5.L.L.p 5.O.O.N k.k.k.k.N O.{ p 5.b 5.D.D.-.# z S.z z I.d F.F.F.F.T.P.P.; T.T.T.T.; T.; T.F.F.I.^ S.S.S.# D.b b H ",
"N 5.5.L.5.5.L.|.5.| z.N N N k.N N N N N { O.5.5.5.D.D.D.8 8 # z z F.F.F.F.F.; T.; ; =.T.T.F F ; T.T.F ; ; ; O ; F.F.S.S.S.S.D.D.",
"p L.5.N L.5.L.>.O.r r > h.p.,.,.,.h.,.h.p.t p.t t t ~.~.~.~.~.}.~.~.,.; ; ; ; F =.T.y.=.B.B.K.=.=.T.T.T.T.; F.; d F.d h S.# D.b ",
"k.N k.O.N k.N G.N G G f &.&.&.l.l.7 7 7 Q Q Q Q Q n.Q n.n.n.n n.n n n [.= F F =.K.=.=.K.K.K.=.K.o =.K.=.B.=.B.T.; ; F.^ h S.S.D.",
"k.O.k.k.O.2 N G.N G G % v v v v v v 3 r.r.A A A A $ A A 3 j [.c.n n n 4.w.= B.=.K.<.<.<.<.W <.<.<.<.& K.o _ B.T.T.; ; d d h h S.",
"2 2 2 2 2 k.2 2 2 2 2 2 G.G.G.G.X |.k.N N 5.b D.D.# # S.^ I.F.F.].[.C 4.n w.a.K.<.K.K.<.<.<.W <.W <.v.<.K.<.K.=.T.T.T.P.d ^ ^ D.",
">.k.k.2 2 >.>.>.2 >.2 2 |.G.|.G.k.N N 5.{ 5.5.D.D.8 # S.^ F.; F.; F =.3 f.~ #.a.W B } } B B } W W B <.<.K.K.& K.o T.B.; ; d d S.",
"G.2 2 G.>.k.2 K >.G 2.>.K 2 >.2 N k.p N L.5.b D.D.# z I.I.F.F.F F F F K.=.].w.4 = } B B u u b.B u W B B B & v.& =.B.T.T.T.d d S.",
"U.K 2 |.K >.G.K G.G 2.G.K K |.K N N N { { 5.5.D.D.8 S.z I.F.; T.B.=.=.<.<.<.].#.4 a.{.{.{.8.8.{.8.u u B u B <.W K.=.B.T.T.; ; d ",
"K >.>.K >.K K U.K ` G K K >.K 2 2 k.N O.5.5.D.D.S.z S.F.; ; q ; F K.<.K.W W u v 4 C a.( 8.{.{.8.{.8.{.u b.B B <.W & K.B.B.T.O S.",
"  K >.K >.>.G.U.K ` 2.U.K >.|.2 N N { N { D.D.D.# z h F.F.T.F B.=.K.<.<.u W u 8.3 4 * a.@ @ 8.@ 8.8.s 8.{.{.b.B W <.K.B.T.; T.  ",
"  K K >.K K K K K K G.>.K K >.|.2 k.N { 5.5.D.D.z h ^ F.; ; T.F =.K.<.<.<.u {.u 8.9 C * [ 8.@ 8.s @ 8.8.( u B W W W <.o o T.;   ",
"  . +.K K U.K >.U.K K U.K K >.2 N N L.{ { D.D.8 S.z S.F.F.; =.o <.K.} u B B 8.8.M.8.a.* * [ (.@ @ @ @ 8.s 8.8.b.B W <.<.o T.V   ",
"  g.K K K K U.< K 2.2.K K G.|.X k.k.N 5.D.5.D.# z h F.F.F F T.=.=.<.B W u 8.{.8.@ (.@ [ * J [ H.U U @ (.@ 8.( 8.B B W o o Y -   ",
"    ^.U.K K U.< U.` ` U.K K K 2 N N N p D.D.D.D.z I.F.F.T.=.F o K.K.} B u 8.8.8.8.(.g @ a.* J [ g U g @ @ 8.8.{.B W W <.B._     ",
"    ^.K U.U.K U.K ' ' K U.>.|.2 k.N p 5.{ D.D.S.S.S.F.; ; T.o K.<.<.B } b.8.s M.@ @ (.H.g [ 7.7.[ H.(.(.(.s ( 8.b.B B & & E     ",
"      ^.K U.U.+.U.2.` K U.>.G.|.k.N N 5.{ D.D.z z I.F.F.; F =.K.<.<.B u {.{.@ @ (.(.H.H.H.) [ 7.7.[ g U g @ 8.8.8.B W W W       ",
"      U.U.K K < K U.< U.K K |.2 N N { p 5.D.D.D.S.^ I.T.F T.B.K.W W } B 8.8.8.8.@ g (.H.H.) ) [ 7./ 9 /.(.@ @ 8.B B B & O       ",
"      . ^.< U.U.U.U.< < U.G.|.|.N N { { 5.D.# S.S.^ h F.; F =.=.<.B } B 8.8.@ (.(.g H.) ) m m m d.7.J / D + @ s {.b.W & _       ",
"        U.U.U.< K 2.` K K K G.2 2 N N 5.{ b 8 D.S.I.F.; T.T.B.K.K.<.B u u {.8.8.@ U H.H.H.) ) J.J.A 7.7.7.0.}.8.( B B 0         ",
"          ^.U.^.U.' 2.U.U.K G.X 2 N N { 5.b # # S.S.F.F.; T.B.K.K.<.W b.8.8.@ M.@ (.H.) ) ) ) ) ) M $ A 3 0./ 8.b.b.W           ",
"          < U.K U.' ` 2.` K |.` G r | 5.{ z.z.@.@.F.d 6.6.s.s.=.<.c c E.c {.8.Z Z ).Z H.H.A.A.: A.) g 5 Z *.7.b.( B H           ",
"            . U.U.' ' ' ` K |.G G r r { H @.L ] @.z d s.I s.s.o K.c c , 1.{.8.Z Z ).Z H.H.$.).5 5 H.g ).5 1.Z b.B W             ",
"              < < ^.U.+.K U.K |.N N N p { H { D.S.S.h d F.T.T.F <.<.<.W B B 8.s @ @ U (.g H.g H.H.g (.@ s ( b.( B               ",
"              . ^.< < ^.+.U.G.+.K |.|.{ { N E E N z z { { b b T.=.S.S.S.h b.B F.F.; Y (.@ B.T.T.T.@ U ; Y 8.B i Y               ",
"                . U.U.< < K K |.|.|.N N { { N.D.S.S.S.d F.; F B.o K.<.W W } 8.b.( 8.8.s @ @ @ @ @ @ @ s 8.( b.{                 ",
"                  . g.U.U.U.K G.2 2 N N { { D.b D.S.S.d F.; T.; B.=.<.<.B W u u b.8.8.8.8.s s @ @ 8.( ( b.B Y                   ",
"                    . < < U.U.G.G.X k.N N { { D.D.# S.z S.F.F.T.T.o B.<.K.<.B B u b.( 8.s 8.8.8.( ( 8.b.B H                     ",
"                      . g.K K G.K |.X N N { { b D.# S.h d d F.; ; B._ & & K.W B B u b.B ( ( b.{.{.b.B B Y                       ",
"                          ^.K K |.|.N k.p N { 5.H D.# z S.I.F.P.T.F B.F K.<.& W W W B B u B u B B B B                           ",
"                            . U.K G.X E N N { 5.H b D.S.S.h h F.F.T.B.B.B.K.o <.<.<.W W W B B B & Y                             ",
"                                K |.|.2 E p p { b N.b D.S.S.h ^ ; F.F.T.T.B.B.o & v.<.& <.W & o                                 ",
"                                  g.G.X |.E N N { N.b D.8 V h ^ d ; d T.T.T.B._ B.o o & o o _                                   ",
"                                        e E p p { { { b # 8 # V h ^ d F.P.T.T.B.B.B.B.d                                         ",
"                                            - - { { { H b b # 8 h d d h ; d F.T.V V                                             ",
"                                                    { { { H b # 8 # S.d ^ h                                                     "};
