/* XPM */
static char *noname[] = {
/* width height ncolors chars_per_pixel */
"64 64 242 2",
/* colors */
"   c #374482",
" . c #3BA318",
" X c #39477A",
" o c #354280",
" O c #395766",
" + c #313E7C",
" @ c #303C7B",
" # c #2F3C7A",
" $ c #33921A",
" % c #338C1A",
" & c #2C3877",
" * c #1A2462",
" = c #4D5D94",
" - c #253070",
" ; c #36A316",
" : c #2E711F",
" > c #46558D",
" , c #838CB5",
" < c #202A6B",
" 1 c #1C2667",
" 2 c #32801C",
" 3 c #39B212",
" 4 c #283276",
" 5 c #384289",
" 6 c #364287",
" 7 c #242E72",
" 8 c #283A62",
" 9 c #232E71",
" 0 c #343E85",
" q c #333E84",
" w c #747AA6",
" e c #202A6E",
" r c #424F8C",
" t c #212D65",
" y c #1E286C",
" u c #2E387F",
" i c #3FC111",
" p c #1C266A",
" a c #2B367C",
" s c #314A5A",
" d c #2A3771",
" f c #1A235E",
" g c #495996",
" h c #32741F",
" j c #475594",
" k c #232E74",
" l c #445391",
" z c #333F7D",
" x c #243261",
" c c #27523C",
" v c #313D7B",
" b c #3B4988",
" n c #374584",
" m c #848DB5",
" M c #376948",
" N c #2E3B7B",
" B c #2D397A",
" V c #33871C",
" C c #1B2565",
" Z c #648088",
" A c #2E5249",
" S c #222D6F",
" D c #323D82",
" F c #55C733",
" G c #1F296C",
" H c #1D276A",
" J c #404E89",
" K c #1C2769",
" L c #283378",
" P c #263176",
" I c #394682",
" U c #3AA915",
" Y c #242F74",
" T c #475693",
" R c #232D73",
" E c #455491",
" W c #25306B",
" Q c #202B70",
" ! c #43528F",
" ~ c #33407C",
" ^ c #5F7286",
" / c #1E296E",
" ( c #404E8C",
" ) c #2E3A77",
" _ c #2D3876",
" ` c #3BBA0F",
" ' c #1B2661",
" ] c #3A4886",
" [ c #374483",
" { c #354281",
" } c #232E6C",
" | c #2E3A7A",
".  c #3B488A",
".. c #7C84AC",
".X c #283474",
".o c #384487",
".O c #475299",
".+ c #38457D",
".@ c #232E6F",
".# c #323F77",
".$ c #1E286A",
".% c #1C2668",
".& c #2B367A",
".* c #3C468E",
".= c #4B5996",
".- c #273276",
".; c #4B5796",
".: c #629174",
".> c #354087",
"., c #767EA9",
".< c #757CA8",
".1 c #222C71",
".2 c #212C70",
".3 c #44538F",
".4 c #737AA6",
".5 c #202A6F",
".6 c #1F2A6E",
".7 c #2F3A81",
".8 c #1E286D",
".9 c #414F8C",
".0 c #1D286C",
".q c #606BB1",
".w c #4D5B9B",
".e c #3B4986",
".r c #1F3150",
".t c #364381",
".y c #34417F",
".u c #435191",
".i c #555FA6",
".p c #69E23B",
".a c #3E4D8C",
".s c #2A3575",
".d c #394787",
".f c #293574",
".g c #384586",
".h c None",
".j c #263171",
".k c #222D6D",
".l c #434D94",
".z c #3E498F",
".x c #1D2768",
".c c #346146",
".v c #1B2566",
".b c #487453",
".n c #2A3578",
".m c #3C4D79",
".M c #263174",
".N c #2D5049",
".B c #59D62E",
".V c #2F6C23",
".C c #45548F",
".Z c #202B6E",
".A c #313B82",
".S c #285A30",
".D c #1E296C",
".F c #2E397F",
".G c #1D276B",
".H c #3E4C88",
".J c #2A357B",
".K c #1F2D59",
".L c #1C2860",
".P c #213947",
".I c #283379",
".U c #3B4885",
".Y c #3BAD17",
".T c #28346F",
".R c #6B76BE",
".E c #435090",
".W c #2C6623",
".Q c #313C7B",
".! c #1E2A65",
".~ c #4D589D",
".^ c #357B25",
"./ c #2B3675",
".( c #3A4687",
".) c #384685",
"._ c #485498",
".` c #273271",
".' c #48598E",
".] c #273567",
".[ c #334080",
".{ c #313E7E",
".} c #838CB4",
".| c #39B811",
"X  c #273274",
"X. c #364086",
"XX c #171F57",
"Xo c #222C6F",
"XO c #1D286A",
"X+ c #6E769F",
"X@ c #23493E",
"X# c #293479",
"X$ c #283278",
"X% c #253075",
"X& c #2E7524",
"X* c #5965A8",
"X= c #465592",
"X- c #222C72",
"X; c #212C71",
"X: c #42518E",
"X> c #323F7B",
"X, c #202B66",
"X< c #2F3B78",
"X1 c #3D4B89",
"X2 c #394785",
"X3 c #364382",
"X4 c #344180",
"X5 c #323F7E",
"X6 c #303D7C",
"X7 c #24503B",
"X8 c #404B8F",
"X9 c #8089B0",
"X0 c #2D3979",
"Xq c #40B517",
"Xw c #2B3777",
"Xe c #3C478B",
"Xr c #2D3F65",
"Xt c #2E7A20",
"Xy c #3C526D",
"Xu c #47568F",
"Xi c #212B6D",
"Xp c #369A17",
"Xa c #43528B",
"Xs c #2C377B",
"Xd c #3E4C86",
"Xf c #3A458C",
"Xg c #2F7824",
"Xh c #273176",
"Xj c #485893",
"Xk c #252F74",
"Xl c #222D71",
"Xz c #212B70",
"Xx c #6570B6",
"Xc c #1F296E",
"Xv c #42508D",
"Xb c #1E296D",
"Xn c #2E3980",
"Xm c #2C377E",
"XM c #3E4C89",
"XN c #213652",
"XB c #1C2661",
"XV c #2A3672",
/* pixels */
".h.h.h.h.h.h.h.h.h.h.h.h.h.h.h.h.h.h.h.h.h.h.h.h.h.h.j 4 L.IX$ P Y k.1 e.D.x.h.h.h.h.h.h.h.h.h.h.h.h.h.h.h.h.h.h.h.h.h.h.h.h.h.h",
".h.h.h.h.h.h.h.h.h.h.h.h.h.h.h.h.h.h.h.h.h.hXV.Q 5.> q.7Xm a.IX$X% Y RX-X; Q.5Xc * f.h.h.h.h.h.h.h.h.h.h.h.h.h.h.h.h.h.h.h.h.h.h",
".h.h.h.h.h.h.h.h.h.h.h.h.h.h.h.h.h.h.h.h.e.lX8.* 5.> q.7Xm 7.I.< w Y RX-X; Q.5.5Xc / y f.h.h.h.h.h.h.h.h.h.h.h.h.h.h.h.h.h.h.h.h",
".h.h.h.h.h.h.h.h.h.h.h.h.h.h.h.h.h o.~.~.O.lX8.* 5.> D.7Xm 7.I.< w k RX-X; Q.5.5XcXb.8.8 y.% f.h.h.h.h.h.h.h.h.h.h.h.h.h.h.h.h.h",
".h.h.h.h.h.h.h.h.h.h.h.h.h.h.h.h.iX*.i.~.O.lX8.* 5 0.AXnXm 7.I.< w k RX-X; Q.5.6XcXb.8 y y.0.G.%.h.h.h.h.h.h.h.h.h.h.h.h.h.h.h.h",
".h.h.h.h.h.h.h.h.h.h.h.h.h.h.w.qX*.i.i.~.O.l.zXf 5 0.AXnXm 7.I.< w k RX-X; Q.5XcXcXb.8 y y.G.G.G.% f.h.h.h.h.h.h.h.h.h.h.h.h.h.h",
".h.h.h.h.h.h.h.h.h.h.h.h.hXxXx.qX*.i.~.~.O.l.zXf 5 0.A.FXm.JX$ PXk k R.1Xz.5.5XcXcXb.8 y y.G.G.G H H.v.h.h.h.h.h.h.h.h.h.h.h.h.h",
".h.h.h.h.h.h.h.h.h.h.hXa.RXx.q.qX*.i.~.O.O.l.zXf 6 q.7 u aX#X$ PXk RXlX;Xz.5.5XcXc.8 y y.0.G.G H H H H.%XX.h.h.h.h.h.h.h.h.h.h.h",
".h.h.h.h.h.h.h.h.h.h.;.R.RXx.qX*.i.i.~.O.lX8.* 5.> D.7Xm aXlX$.<.4 RXlX;Xz.5.6XcXb.8 y y.G.G.G H H H H.% 1XX.h.h.h.h.h.h.h.h.h.h",
".h.h.h.h.h.h.h.h.h =.R.RXx.q.qX*.i.~.~.O.l.zXf 5 0.AXnXm.J.@Xh w.4 RX-X; Q.5.6XcXb.8 y y.G.G.G H H H H.%.% 1XX.h.h.h.h.h.h.h.h.h",
".h.h.h.h.h.h.h.h.;.R.RXxXx.qX*.i.i.~.O.lX8.*Xf 6 q.7.F a.JXo P w.4 R.1Xz.5.5XcXcXb y y.G.G.G H H H H K.%.%.%.vXX.h.h.h.h.h.h.h.h",
".h.h.h.h.h.h.hXa.R.RXxXx.qX*.i.i.~.~.O.l.z.* 5X. D.7Xm aX#Xo P w.4XlX;Xz.5.6XcXc.8 y y y y.G.G H H H H H.%.%.%.vXX.h.h.h.h.h.h.h",
".h.h.h.h.h.h.hXxXx.q.qX*.i.i.w.=._.l.lX8.*Xf 6 0.A.FXm.J.IXhX% Y RX-X; Q.5.6XcXcXbXb y.D.GXO C C C CXB C * 1.v.%.v.h.h.h.h.h.h.h",
".h.h.h.h.h.hXxXx.q.qX*X*.i = =Xj.C.EX8.zXf 5X. D.7Xm aX#X$ PXk 7 R.1Xz Q.5.5 e e e e eXc G.!.L.L.L.L.L.L 'XB.x.%.x C.h.h.h.h.h.h",
".h.h.h.h.h.;.qX+ Z.:.:.:.:.:.:.b.bXy.U.o 5X. q.A.FXm.J.I.-Xi Y.4.4.1.2.2.2.2.2.2.2.2.ZX,.!.rX@X@X7X7X7X@X@.r.!.x.$.$ f.h.h.h.h.h",
".h.h.h.h.hX*X* Z.p.p.p.p.p.p.p F F.b X.tX. q D.7Xm aX#X$ PXi k.4.4 RXlXlXlXlXl 9 9Xl SX,.KX7Xp U.|.|.| ; $X@.!.! < <.x.h.h.h.h.h",
".h.h.h.h.iX*.i ^.p.p.p.p.p.p.p.p.B.b MXyX> @.7 u a.J.IXh PXi k.4.4 7 Y Y Y Y Y Y 7 } tXNX7Xg.|.| `.|.| ; $X@ tX,XiXi <.x.h.h.h.h",
".h.h.h oX*.i.w ^ F.p.p.p.p.p.p.p.p.B F MXr ) u a.JX#X$ PX%XiXk w wXkXkXkXk.M.MXk.j t xX7Xp.| i i ` `.| ; $X@ t <.@ S.kXiXB.h.h.h",
".h.h.h.~.i.~.~.' ^.b.b.b.b.b.b F.B.B.B.^.cXrXV.X.I L.-Xh P P P P P P P.-.-.-X  - WXNX7Xg.|.|.| V.S.S c cX@XN W } -.@.@.k <.h.h.h",
".h.h.h.~.~.~._ j.3 r JXd.e X X.b F.B.B FXq.c.].TX$ P.-.-.-.-.-.-.-.- L L L 4.X W x c $ 3 i.|Xp c x x.].].] W.j.j.j.j -.@.@.h.h.h",
".h.h.e.O.O.O.O.lX8X8Xe.(.o.t.y s M.^ F F F.^ AXN W - P.- L.@ L.,.,X#.n.n L.` WXN cXg 3 3 3Xg cXN.].T.T.T.T.T.X.X.X.`.j.j -.!.h.h",
".h.h.l.l.l.l.l.lX8.z.*.*Xf 5 0 vXr.cXq F.BXq . c x W.-.- L.@X#.,.,.&.&.&.n.T x c $ 3 i 3Xp c 8.T & &X0 &XwXwXw.s.f.X.X.`.j -.h.h",
".hXVX8X8X8.z.z.z.*XfXf 5 6X. D @ _Xr.c.^ iXqXq.^ cXN W.` L.@.n.,.,.&.&.f.TXN cXg.Y 3 3Xg cXN d _ B N | BX0X0 & &././.f.X.`.` t.h",
".h.Q.*.*.*XfXfXf 5 5 6X. 0 D.A.FXmXV.] A .Xq iXqXp c x WX#.@.&.,.,XsXs.T.] c $ U i.Y $ c 8 d N NX6X6X6 N N | |X0 & &./.s.X.X t.h",
".h 5 5 5 5 5 5 6.> 0 q D.A.7.FXm.J.X.TXN A.^XqXqXqXg cXN.T.f.&XsXsXw dXN cX& U U UXg c 8 _X<.{X5X5.{.{ +X6X6 N # |X0 &Xw./.f.`.h",
".h.>.>.> 0 0 0 q D.A.7.7.FXmXm a.J L.- W x cXpXq i.Y $ c.].TXs B B d.] c % U i U $ cXr )X5.[.[.[.[.[.[X5X5 + +X6 N N |X0 &./.f.h",
".j q q D.A.A.A.7.7Xn.FXmXm a.JX#.IX$ P - WXN cXg.Y.Y.YX& cXN dX+X+ 8 cX& ; ; UX& AXr.#X> {X3 { { { {X4X4.[.[X5X5 + @ # |X0 &./.T",
" 4.7.7.7XnXn.F uXmXm a a.JX#.IX$Xh PXh PX  W x c $.Y i U %X7 8 ^ ^ c V ; ` ; % AXr.# {X3 [ [ [ [X3X3X3 { {X4.[.[X5 + v #X< ) &XV",
" LXmXmXmXmXmXm a a.J.JX#.IX$.- P PX% P.-.-.j WXN cX& U . .X& c.b.bX& ; ; ;X& AXr.#.y n.g.g.).g.).).) n [X3X3 {X4.yX5X5 + #X< )./",
".I a 7 7 7 7.JX#Xl.@XoXoXh PXiXiXiXi P.-.@ S.k t x c V ; ` U ; . . U ` ; V AXr.# n.g.d.(.(.(.(.dX2X2.).) n [ [X3 o.yX5X5 + #X< _",
"X$.I.I.I.I.IX$X$X$Xh P PX%Xk Y k kXk P.- LX#X#.X.TXN cXg.Y.Y 3 U U U UX& AXr.#.t.d b.  b b b b b b b ].(X2.) n [X3 {X4X5X5 + # )",
" PX$.<.<.<.< P P.< w w w Y 7.4.4.4 w P.-.,.,.,.,Xs.T ^.b .Xq ` ` ` U ..b ^.4.d b.}.}.} ,X1X1.}.}.}.}X1 b.}X9X9X9 [  X9...... vX<",
" YX% w w w wXkXk.4.4.4.4 R R.4.4.4 w P.-.,.,.,.,Xs.T ^.b ..Y ` ` ` U ..b ^ w b.  , , m m.a.a m m m mXMX1.}.}X9X9.) [X9X9....X> #",
" k Y Y k k k k R R R RXlX-.1.1 R 7Xk P.-X#.&.&Xs B d 8 cXp ; ` ` ` UXp cXr ~X1X1.a.a.a ( ( ( ( ( ( (.a.aXMX1 b.e ]X2 [  .t.y ~ v",
".1 R R R R R RXlXlX-.1X;X;Xz.2Xl YXk P L.n.&.&./ d 8X@.VXp ; ; U U ;Xp.VX@XN.+.e +X5 z zX:X: z z z z.9 ( + + v #.e.e ) _ _./.y +",
" eX-X-X-X-X-.1X;X;X;XzXz Q Q.2Xl YXk.- L.n.&.&.T.]X@Xg % UXp $ . .Xp U $.^.N.# I (Xv.u.u.u.u ! !.u !X:Xv.9 (.aXMX1.e ]X2 I.t o ~",
".DX;X;X;X;X;XzXzXz Q.5.5.5.5.2Xl YXk.- L L.X.TXNX@.S % % %.V c.b.b.V % % %.W.NXr IXM.u l E E E E l l l !X:Xv (.aXMX1.e ] I I.t ~",
".x Q Q Q Q Q.5.5.5.5.5.6.6.5.2Xl Y.M.- 4.n.T xX@X& V ; %Xg.NXr ^ ^.NXt % ; %Xg A XXd l EX= j jX=X=X= E l ! !Xv.9.aXMX1.eX2 I.t ~",
".h.5.5.5.5.5.5.5.6.6XcXcXc e.2Xl Y.MX .j WXNX@.S V V V.S.N 8.# ~ ~Xr.N.W % V V.S AXyXdXa TXjXjXj T T TX= E lX:Xv (XM.H.e.U I I.h",
".hXc.5.5.6XcXcXcXcXcXcXcXc e.2 9 YXkX  W xX@.V 2Xp VX&.NXr.#.) ] b.+.#.NXg VXp VX& A.m J T g g g g gXj TX= E lX:Xv (XMXd.eX2 I.h",
".h *XcXcXcXcXcXcXbXbXb.8Xb e.2 9 7 } WXNX@.S 2 2 2.SX@ 8.# o.d.}.}.U dXr A.S V V 2.S AXyXa.C.=.=.=.= g g TX= E !Xv.9XM.H.e.U.#.h",
".h f /XbXbXbXb.8.8.8 y yXb e.2Xl 7 t x.P.V 2 $ 2 :X@Xr.# [.g b.} ,.a + I X AX& 2Xp 2X& A.mXa.=.=.w.=.=.=Xj TX=.C !Xv (XMX1.e.#.h",
".h.h y.8.8.8.8 y y y y y y e.Z < t.r.P.S 2 2 2.SX@ 8X< ~ n.d. .} m.a +.HXdXy A.S 2 2 2.S AXy >Xj.w.w.w.=.=Xj T E !Xv.9XMXd.U.h.h",
".h.h f.8 y y y y y y.G y.DXcXiX,.K.P.W h %Xt.VX@.] _X4X3.g.( b , m ( zX: !Xd.m AX& 2 % 2.V A.m >.w.w.w.w.= gXjX=.3X:.9XM.H.#.h.h",
".h.h.h y y y y.0 H.% C C C.!.!.r.P.S : h h.SX@XN d # { [.g.( bX1.a (X:.u lXa JXy A.S 2 2Xt.S AXy >.'Xj.'XuXu T T.C !Xv J.H.h.h.h",
".h.h.h.%.0.G.G p.% C ' '.L.L.K.P.W : V :.W.P.] d +.[X3 [.).( bX1.a (X:.u EX= T J.m A.VXt % h.V A.mXa >XaXa >XjX=.C !Xv J.e.h.h.h",
".h.h.h f.G.G.G.% CXX.P.P.P.PX@.S : : :.S.PXN.T _.{.[ { [.g.( b.} m ( z ! E j T.CXaXy A.S h h h.S A A s s sXy >.C.C !Xv J.+.h.h.h",
".h.h.h.h.%.G.G C '.P.S.W.W : : h 2 :.W.P x.T | NX5.[ { [.).d b.} m ( z ! EX=Xj g.=Xa.m A.V h 2 h : :.V.V.W O >Xa.C !XvXd.h.h.h.h",
".h.h.h.h.h.% H C '.P.W.W h h h : :.S.P.r WXV BX6X5.[ {X3.)X2 b.} m ( z.u lX= T g.=Xu >Xy A.S h h h h h.V.V O.'Xa.CX: J.h.h.h.h.h",
".h.h.h.h.h f H C '.P.W h 2 2 2.V.W.P.K W./ & NX6.{.[ {X3.)X2 b.} m ( z ! lX= T g.=.=.w >.m s.W.V.^ h h.^.^.b >Xa.CX: I.h.h.h.h.h",
".h.h.h.h.h.h.v 1XBXN c.c M.c.cX7.P.r t -.sX0 |X6.{.[X4X3 n.) ]X1XM.a.9X: l E TXj g.=.=Xj >Xy O O.b.b.b.b.bXy >Xa.3 J.h.h.h.h.h.h",
".h.h.h.h.h.h.h.v 1.! x 8 8 8 8 x t }.j.X.n & B N +X5X4 { [.).( bX1.a (Xv ! lX= T g.=.=.= =Xj.'.'.'.'.'.'.' >.C.3Xa.h.h.h.h.h.h.h",
".h.h.h.h.h.h.hXX.v.v.!.!.!.! tX, < }.j.X.sXwX0 NX6X5.[ {X3 nX2.}.}XM +.9X: ! EX= TXj.=.=.=Xj.'.'.'.'.' > > >.3Xa X.h.h.h.h.h.h.h",
".h.h.h.h.h.h.h.hXX 1.%.% H.$ <Xi.@ -.j.X.fXwX0 |X6 +.[X4X3 [.)X9.}X1 + (Xv ! l EX= TXj g.=.=.=.=.=.=XjXjX=.CXa X.h.h.h.h.h.h.h.h",
".h.h.h.h.h.h.h.h.hXX.v.%.%.$ GXi.@ -.jX .XXw & | N +X5.[ { [ nX9X9 b v.a (XvX: l EX= TXjXjXjXjXjXjXj TX=.CXa X.h.h.h.h.h.h.h.h.h",
".h.h.h.h.h.h.h.h.h.hXX.v.% H.$Xi S.@ -.`.X.s &X0 #X6X5.[X4X3 [X9X9.e #XM.a.9XvX: !.C EX= T T T TX=X=.C.CXa X.h.h.h.h.h.h.h.h.h.h",
".h.h.h.h.h.h.h.h.h.h.hXX.v.x.$ <Xi.@ -.j.X.f./ & | N +X5.y oX3 [.) ].eX1XM.a (XvXv ! !.3.C.C.C.C.C.C.3Xa X.h.h.h.h.h.h.h.h.h.h.h",
".h.h.h.h.h.h.h.h.h.h.h.h.h C.$ <Xi S.@.j.`.X./ &X0 N @ +X5.y {   [X2.e.eX1XMXM (.9XvXvX: ! ! ! !X:X: J.h.h.h.h.h.h.h.h.h.h.h.h.h",
".h.h.h.h.h.h.h.h.h.h.h.h.h.h f.x <.k.@ -.j.X.f./ & | # vX5X5X4X9X9 [ ) ].eX1.HXMXM (.9.9XvXvXvXv J I.h.h.h.h.h.h.h.h.h.h.h.h.h.h",
".h.h.h.h.h.h.h.h.h.h.h.h.h.h.h.h.xXi.k.@.j.`.X.sXwX0 | # +X5X5..X9   _X2 ].e.eXd.HXMXMXM J J JXd.h.h.h.h.h.h.h.h.h.h.h.h.h.h.h.h",
".h.h.h.h.h.h.h.h.h.h.h.h.h.h.h.h.hXB <.@ -.j.`.X./ &X0X< # +X5.....t _ I IX2.U.e.eX1Xd.H.H.e.+.h.h.h.h.h.h.h.h.h.h.h.h.h.h.h.h.h",
".h.h.h.h.h.h.h.h.h.h.h.h.h.h.h.h.h.h.h.h.! -.`.X.f./ & )X< # +.....y./.t I I IX2.U.e.U.#.h.h.h.h.h.h.h.h.h.h.h.h.h.h.h.h.h.h.h.h",
".h.h.h.h.h.h.h.h.h.h.h.h.h.h.h.h.h.h.h.h.h.h t t.`.f./ & )X< # vX> ~.y o.t.t I I.#.#.h.h.h.h.h.h.h.h.h.h.h.h.h.h.h.h.h.h.h.h.h.h",
".h.h.h.h.h.h.h.h.h.h.h.h.h.h.h.h.h.h.h.h.h.h.h.h.h.h.TXV./ _ )X< # v + ~ ~ ~.h.h.h.h.h.h.h.h.h.h.h.h.h.h.h.h.h.h.h.h.h.h.h.h.h.h"
};
