/* XPM */
static char * WAVE_SQUARE_xpm[] = {
"64 64 256 2",
"  	c None",
". 	c #161E54",
"+ 	c #429224",
"@ 	c #465A84",
"# 	c #56CA0C",
"$ 	c #2E3E64",
"% 	c #66E614",
"& 	c #3A4E74",
"* 	c #3E821C",
"= 	c #96E64C",
"- 	c #222E64",
"; 	c #7AD63C",
"> 	c #4EAE1C",
", 	c #5A6A9C",
"' 	c #324674",
") 	c #5EDA0C",
"! 	c #565EA4",
"~ 	c #464E8C",
"{ 	c #263664",
"] 	c #52BE0C",
"^ 	c #6ACE2C",
"/ 	c #6EF614",
"( 	c #6A7694",
"_ 	c #52629C",
": 	c #92FE2C",
"< 	c #4E5A8C",
"[ 	c #7E86AC",
"} 	c #2E3E7C",
"| 	c #3E4684",
"1 	c #82FE24",
"2 	c #1A265C",
"3 	c #5EBE24",
"4 	c #4AA21C",
"5 	c #5AD20C",
"6 	c #AAFE44",
"7 	c #425684",
"8 	c #222E74",
"9 	c #465684",
"0 	c #2E3674",
"a 	c #767AA4",
"b 	c #3E4E8C",
"c 	c #82DE44",
"d 	c #7AFE1C",
"e 	c #52BA0C",
"f 	c #364684",
"g 	c #56C60C",
"h 	c #4E5A9C",
"i 	c #363E84",
"j 	c #1E266C",
"k 	c #62CA24",
"l 	c #6A7294",
"m 	c #56BE1C",
"n 	c #6AD62C",
"o 	c #72FE14",
"p 	c #469A14",
"q 	c #4A5A94",
"r 	c #56669C",
"s 	c #9EFE3C",
"t 	c #42527C",
"u 	c #22325C",
"v 	c #5E6AB4",
"w 	c #6A76BC",
"x 	c #222A64",
"y 	c #465694",
"z 	c #2E367C",
"A 	c #52B61C",
"B 	c #4A5E84",
"C 	c #5ECA1C",
"D 	c #2E3E6C",
"E 	c #6AEE14",
"F 	c #A2E65C",
"G 	c #96D26C",
"H 	c #3A467C",
"I 	c #62E20C",
"J 	c #46528C",
"K 	c #2A3674",
"L 	c #3E4A84",
"M 	c #1E2A5C",
"N 	c #4EAA1C",
"O 	c #B6FE4C",
"P 	c #2A3274",
"Q 	c #7A82AC",
"R 	c #8EE24C",
"S 	c #4E5E9C",
"T 	c #36427C",
"U 	c #56C21C",
"V 	c #569E34",
"W 	c #5AB624",
"X 	c #3E527C",
"Y 	c #82DA41",
"Z 	c #72D234",
"` 	c #6EFA14",
" .	c #9AFE38",
"..	c #4E5E94",
"+.	c #828EB4",
"@.	c #324283",
"#.	c #42528F",
"$.	c #3A4A88",
"%.	c #469E1C",
"&.	c #4E569A",
"*.	c #36428C",
"=.	c #162254",
"-.	c #4A5A8B",
";.	c #9EE65C",
">.	c #4EB21C",
",.	c #5662AA",
"'.	c #2A3A6C",
").	c #6AD22C",
"!.	c #727E9C",
"~.	c #8AFE2C",
"{.	c #1E2663",
"].	c #5EC61C",
"^.	c #4AA61C",
"/.	c #66D224",
"(.	c #263274",
"_.	c #767E9C",
":.	c #1E2A6C",
"<.	c #62CE24",
"[.	c #72D634",
"}.	c #76FE1A",
"|.	c #5E66AC",
"1.	c #26326C",
"2.	c #626EB3",
"3.	c #2E3A7D",
"4.	c #52BA1C",
"5.	c #324274",
"6.	c #46529C",
"7.	c #3E4A94",
"8.	c #5ACE0C",
"9.	c #666EB4",
"0.	c #727AA4",
"a.	c #626EA4",
"b.	c #6676AC",
"c.	c #32425C",
"d.	c #5E6EA4",
"e.	c #7E8AAC",
"f.	c #6E7AC0",
"g.	c #A6EA64",
"h.	c #66EA14",
"i.	c #7ADA3C",
"j.	c #62DE0C",
"k.	c #52C20C",
"l.	c #5ED60C",
"m.	c #6AF214",
"n.	c #B2FE4C",
"o.	c #A6FE44",
"p.	c #96E254",
"q.	c #3E8624",
"r.	c #2E3A72",
"s.	c #5ECE24",
"t.	c #3A4A7A",
"u.	c #6672BC",
"v.	c #8ADE44",
"w.	c #5EC224",
"x.	c #5ABA24",
"y.	c #3E4E84",
"z.	c #9AE65C",
"A.	c #5AC61C",
"B.	c #4A9A24",
"C.	c #5A66AC",
"D.	c #1A2264",
"E.	c #767EAC",
"F.	c #3E4E7C",
"G.	c #9AE654",
"H.	c #262E6C",
"I.	c #364677",
"J.	c #2A366C",
"K.	c #72F614",
"L.	c #96FE34",
"M.	c #525A94",
"N.	c #323E7E",
"O.	c #AEFE4C",
"P.	c #424E8E",
"Q.	c #7EFE20",
"R.	c #3A4685",
"S.	c #525AA4",
"T.	c #5ABE22",
"U.	c #263264",
"V.	c #4A5696",
"W.	c #323E74",
"X.	c #66E214",
"Y.	c #BAFE54",
"Z.	c #525EA3",
"`.	c #3A427C",
" +	c #5AC21D",
".+	c #1A225C",
"++	c #5A62AC",
"@+	c #6ED22E",
"#+	c #62C624",
"$+	c #222A6E",
"%+	c #66CE25",
"&+	c #323A84",
"*+	c #828AB4",
"=+	c #469224",
"-+	c #5ACA0C",
";+	c #52AE1C",
">+	c #62DA0C",
",+	c #86FE24",
"'+	c #4EA21C",
")+	c #5ED20C",
"!+	c #262E74",
"~+	c #86DE44",
"{+	c #6ED62C",
"]+	c #5A669C",
"^+	c #A2FE3C",
"/+	c #626AB4",
"(+	c #56B61C",
"_+	c #52AA1C",
":+	c #7E82AC",
"<+	c #92E24C",
"[+	c #72FA14",
"}+	c #525E94",
"|+	c #868EB4",
"1+	c #4A9E1C",
"2+	c #3A428C",
"3+	c #52B21C",
"4+	c #8EFE2C",
"5+	c #4EA61C",
"6+	c #76D634",
"7+	c #56BA1C",
"8+	c #4A529C",
"9+	c #424A94",
"0+	c #6AEA14",
"a+	c #7EDA3C",
"b+	c #56C20C",
"c+	c #6EF214",
"d+	c #7A7EAC",
"e+	c #465A8C",
"f+	c #3E8224",
"g+	c #222E6C",
"h+	c #464E94",
"i+	c #26366C",
"j+	c #6EF61C",
"k+	c #92FE34",
"l+	c #4E5A94",
"m+	c #3E468C",
"n+	c #1A2664",
"o+	c #46568C",
"p+	c #4E5AA4",
"q+	c #72FE1C",
"r+	c #469A1C",
"s+	c #4A5A9C",
"t+	c #425284",
"u+	c #223264",
"v+	c #4A5E8C",
"w+	c #5ECA24",
"x+	c #2E3E74",
"y+	c #62E214",
"z+	c #465294",
"A+	c #2A367C",
"B+	c #3E4A8C",
"C+	c #1E2A64",
"D+	c #B6FE54",
"E+	c #2A327C",
"F+	c #364284",
"G+	c #3E5284",
"                                                    (.P P E+E+(.!+8 $+$+:.{.                                                    ",
"                                            x r.F+F+&+3.3.A+(.!+(.!+8 8 $+8 D.. . .                                             ",
"                                        0 L 9+m+2+F+N.3.z !+A+0.E.!+$+8 :.:.:.j D.D.. .                                         ",
"                                  r.h &.V.h+9+R.*.i &+3.3.!+(.E.0.8 8 $+8 8 $+:.:.n+D.. . . .                                   ",
"                                M.! ! &.8+P.7.m+*.@.&+z 3.!+E+a E.!+8 $+:.:.:.:.$+:.:.j j D.. .                                 ",
"                            &./+|.++S.&.6.h+7.m+*.i i 3.A+8 (.E.0.8 8 8 $+$+$+j :.:.j :.j :.D.. . .                             ",
"                          a.2.v ,.Z.p+V.h+9+m+m+@.i &+3.A+A+(.(.!+!+$+8 :.:.$+j :.:.j :.j :.j n+D.. .                           ",
"                      ~ w u./+C.++Z.p+V.6.7.7.*.i &+} z z E+E+!+(.8 8 $+8 $+:.:.j j :.j :.j j j j D.. . .                       ",
"                    `.w u.u./+C.,.S.V.6.h+7.m+m+*.&+&+A+A+8 (.0.0.!+8 $+8 $+:.:.:.j :.j j n+j j n+j D.. . .                     ",
"                  &.a u.u./+C.,.Z.p+V.6.h+7.f *.i } &+3.A+$+E+a 0.8 $+$+:.:.$+:.:.:.j :.:.:.j :.:.j :.D.. . .                   ",
"                `.u.w 9.2.v C.! S.&.6.h+7.m+*.*.i &+A+A+A+$+(.a 0.8 8 $+8 :.:.:.j :.j j j :.n+j :.n+j n+D.. . .                 ",
"              ~ f.w u.9.v C.! Z.p+V.6.b 7.m+*.i } &+3.z E+8 !+0.0.8 :.$+:.:.j j :.j :.:.j j j n+j j :.j j D.. . .               ",
"              9.u.9.2.|.C.,.Z.p+V.6.h+7.7.f *.i &+3.A+A+E+(.!+!+8 8 8 $+$+$+:.:.:.j j :.:.:.:.j :.j n+j n+n+D.. .               ",
"            b.b.a.u., , ++_ Z.s+o+9+B+R.F+i N.} 3.A+i+1.(.i+g+g+8 $+:.:.:.:.$+:.:.:.:.:.:.:.:.:.:.:.:.:.j j :.D.. .             ",
"          | G g.F F p.G.p.R v.v.c Y a+; 6+[.@+).^ ^ %+k w+w+A.%+%+B.8 8 8 8 $+8 8 8 8 :.$+$+8 $+8 8 $+8 :.:.:.:.n+D..           ",
"          a.F Y.O O n.6 o.o.o.s  .L.: 4+4+~.,+,+Q.Q.d d }.}.}.[+j+ +g+$+8 $+8 8 8 8 8 8 8 8 8 8 $+$+8 $+8 $+$+$+:.. .           ",
"        &., G.O O.G.<+<+v.v.Y Y a+a+i.6+Z [.).)./.%+<.k w+A.s.j+j+U u+!+(.8 !+8 !+!+(.(.(.!+(.(.(.g+(.g+8 8 g+$+g+:.n+.         ",
"      W.++}+p.O.= B l+-.V.#.t+P.L $.T ' 5.x+r.r.0 '.i+i+1.- u /.`  +1.8 8 (.(.(.(.(.!+(.(.(.(.(.!+(.!+(.1.H.8 H.- - x . .       ",
"      ~ S.M.R o.R J 6.z+h+9+B+$.`.2+i N.&+&+z A+E+E+(.(.(.(.U. +/ U i+E+E+(.E+(.(.A+(.(.i+(.(.i+(.i+(.(.(.(.(.- f+^.q.M 2       ",
"      h h -.R o.v.#.h+P.b 7.R.2+*.@.i &+3.3.A+A+(.(.E+E+(.P i+ +/ T.U.(.(.E+i+A+A+(.A+A+E+A+K E+A+E+P E+i+P (.U.^.8.4 u+.+      ",
"    0 8+6.P.~+s Y L 7.m+m+m+2+*.i N.N.&+A+z E+A+(.(.(.E+(.$+i+k / m i+A+A+A+A+A+3.0 z '.A+A+'.A+'.A+K A+K K i+{ ^.8.4 U.g+2     ",
"    h+P.h+L c  .Y $.m+m+R.*.*.N.i &+3.3.z A+K E+E+E+(.i+A+8 J.<.m. +'.K A+0 A+z A+3.3.z 3.3.z 3.z 3.3.0 A+K z U.^.8.4 U.- .     ",
"  2 9+7.9+| a+L.; H f *.i i i &+3.z A+A+A+(.(.(.(.E+E+(.A+g+J.k m.m '.3.3.3.3.r.3.3.} 3.3.} 3.} 3.r.3.3.3.K '.J.^.8.4 U.J.1.{.  ",
"  &+B+m+R.t.i.: i.i *.i i i } 3.&+3.z A+(.E+E+A+E+A+A+A+A+!+i+k c+m r.A+3.3.3.3.3.3.3.N.N.&+N.&+} 3.} 3.3.3.&+{ ^.8.4 J.P H..   ",
"  &+F+*.*.T i.~.[.T N.i &+&+3.A+A+A+E+E+(.A+E+K E+A+K A+A+z '.m E m D 3.} } } N.N.N.N.N.@.N.N.N.N.N.N.N.N.3.W.'.^.8.4 { J.P U.  ",
"  F+F+F+N.W.Z ~.[.x+&+3.3.A+A+A+E+E+E+(.E+(.(.E+K E+A+K 3.3.r.m m.m '.} N.N.N.N.N.@.N.N.N.N.@.i @.N.N.N.N.N.r.'.4 8.4 '.K J.P   ",
"!+N.&+N.3.r.{+,+).'.3.A+z A+A+A+A+(.E+(.(.E+i+A+A+A+A+A+3.u+r.#+E m r.N.N.i @.*.i F+F+F+F+F+@.T F+T @.@.@.T i $ 4 8.4 '.r.'.'.K ",
"P &+3.&+&+'.@+1 @+E+A+A+A+A+E+(.!+(.(.(.(.A+E+E+K z 3.3.3.!+x+].E 7+5.i N.@.F+@.f F+f f f F+R.F+F+F+T T T N.@.D ^.# 4 r.3.3.z K ",
"(.3.A+A+A+'.).Q./.1.A+A+E+(.(.(.(.(.(.E+(.A+i+A+A+A+3.3.N.(.x+].E 4.x+F+F+F+F+F+f F+F+R.f f R.f f R.f F+f F+@.D ^.# 4 $ r.3.r.0 ",
"E+E+!+!+!+x %+Q.k - $+:.E+(.$+$+$+$+(.(.8 8 !+!+K 3.!+!+(.P x+#+E 7+5.F+*.F+R.f R.R.$.R.R.R.R.R.R.f R.R.`.I.`.5.4 -+4 x+N.W.3.3.",
"E+E+E+(.A+1.%+Q.k 1.(.!+(.!+8 8 8 !+(.P (.P K 3.A+3.3.3.} N.x+7+E 7+5.f f f R.f $.R.R.B+$.$.$.$.B+R.$.$.R.f R.5.^.# 4 D N.N.r.3.",
"(.(.E.E.0.l <.d {+l a 0.8 8 0.a 0.0.(.(.E.E.E.E.3.3.Q :+Q [ x+7+h.7+!.[ *+*+R.B+*++.+.*+B+B+|+|+*+|+$.R.*+*+e._.4 -+5+!.[ [ N.r.",
"8 8 a a a l w+}.n l 0.a !+!+0.a a 0.!+E+_.E.d+d+3.3.[ [ Q [ 5.4.h.m Q e.*+*+7.$.*+*++.|+b B+*+|+*+|+b B++.*+*+_.4 -+_+!.[ [ @.N.",
"!+(.8 8 8 C+w+}.w+g+8 8 8 8 $+$+8 !+(.(.A+A+i+3.3.} 3.N.@.@.5.(+% A 5.m+R.$.$.b b P.P.b b b #.b P.b b b B+L t.I.4 # 1+5.T @.i 3.",
"$+8 !+8 !+u+C }.C x $+:.:.$+8 $+(.(.(.(.A+A+A+3.3.} 3.N.i @.5.w.% 7+'.} N.&+B+9+N.N.N.N.#.P.N.@.i i P.P.N.N.N.'.4 # %.J.0 J.T N.",
":.$+8 $+$+x A.[+A.:.:.$+$+8 :.8 8 8 (.E+K 3.3.A+3.N.N.N.@.F+' T.% A D $.$.b b G+#.#.#.z+z+#.z+#.#.#.#.#.P.P.y.t.4 g 1+' I.R.T N.",
":.:.8 8 :.g+A.[+A.C+8 :.:.$+8 8 !+!+(.(.E+K 3.3.3.N.@.@.F+F+I. +% A r.b b b P.b P.z+#.#.y y J z+#.#.#.#.#.P.y.t.4 g 1+I.f f I.T ",
"j $+$+:.$+C+A.` U :.:.:.:.:.$+$+(.(.(.A+K A+3.3.N.N.i i *.`.5.3 I A D b b P.P.6.#.#.z+y z+y y y y y z+o+#.#.#.t.4 g %.I.R.R.`.N.",
"  :.$+:.:.n+U j+U {.$+j :.:.8 $+8 (.(.A+A+A+3.3.} N.@.F+f f T (+X.3+H b #.#.#.y y y y y y y y V.y y y o+o+J J t.4 g 1+I.R.f R.  ",
"  :.:.$+:.C+ +/ m :.:.$+$+$+$+8 !+(.E+i+K 3.3.3.N.N.i @.*.R.I.A I A $.P.b #.#.#.z+y V.q V.s+q q q q y y z+z+#.F.4 g %.t.L R.I.  ",
"  . j :.j n+m c+U C+:.j :.:.8 8 !+(.E+A+A+3.3.&+} @.F+F+F+f I.x.j.A D #.P.6.y y y y y q q s+q s+q q s+e+y y J F.1+g 1+t.L R.N.  ",
"  D.:.j :.- m m.m n+j :.:.$+$+8 !+(.(.A+K A+3.} N.N.F+f R.R.I.T.y+3+x+P.#.#.6.y V.s+s+s+s+l+h l+h h q s+e+y o+F.1+b+%.H $.H -   ",
"    n+:.j 2 m E m n+j j :.:.8 8 8 (.(.A+r.3.3.N.N.N.@.F+f R.I.x.j.3+x+#.z+y y s+y q v+S S S S S ..h l+h q V.y X 1+b+%.t.t.|     ",
"    D.j :.n+e E e n+:.:.:.$+$+g+(.(.P K A+3.3.3.N.@.F+f R.$.I.x.j.3+W.#.#.y y y s+S h s+S S _ _ S S S q h e+V.F.%.k.p t.y.U.    ",
"      D.:.{.4.0+7+n+n+j :.:.8 g+!+(.(.A+A+3.} N.N.N.@.*.F+R.t.>.) >.F.z+z+y y q q s+S S S S S _ _ S S q h q q t 1+b+p t.P.      ",
"      n+j M + 4.+ n+j n+:.$+$+!+(.(.K P K 3.&+} N.F+F+f f $.I.3+>+;+L #.y z+q V.s+..S S _ _ r _ _ _ _ S v+q V.t 1+k.1+t.`.      ",
"      . n+j M M 2 j :.j :.$+:.g+(.(.i+A+K 3.3.&+N.N.F+R.`.R.I.W ) A $ & t+y.7 t+7 9 @ e+e+-.v+v+v+e+-.o+9 7 t t.1+] p t.H       ",
"        n+n+j n+j n+j n+j :.8 8 8 (.P A+A+K 3.} N.F+F+*.f f I.(+l.5 > _+> ;+N N N N N N N N N ^.^.5+5+'+4 1+1+4 ] ] p c.        ",
"          D.:.:.:.j :.:.:.$+$+H.8 (.(.K 3.r.3.3.N.N.@.F+R.f t.W l.l.l.5 5 5 )+8.8.8.-+-+# # -+A.g g g g b+k.k.] ] ] 1+c.        ",
"          D.j j j n+j n+{.:.g+$+!+(.P K K 3.3.N.} @.F+f f $.T V (+> N _+N N N _+N N N ^.5+5+5+^.4 4 4 1+4 1+p %.1+p *           ",
"            . j :.j j :.j j g+g+8 (.(.E+K r.3.&+N.@.i F+F+R.f H t.t.& y.y.y.t+#.t+7 e+e+o+o+-.-.-.@ @ 9 9 9 F.F.F.t.            ",
"              n+j n+n+n+j :.:.8 H.8 (.i+K A+0 } r.N.@.F+R.f $.$.$.b b #.J o+o+y s+V.q h S ..S ....h q q q o+V.o+t               ",
"              . D.j j n+j j :.g+H.!+P (.K 3.K N.N.N.@.@.f `.R.*+*+B+} b P.#.y J V.V.q q S q S s+..S q V.V.o+J P.|               ",
"                . n+n+j C+:.$+:.8 H.(.P K K 3.3.3.W.i T F+f f *+*+b N.P.#.P.#.y y y y q V.q q q q V.q e+y o+J J.                ",
"                  . =.n+j j $+g+8 8 (.(.P K K r.3.} N.i F+`.R.*+*+L } b #.#.#.#.y y y e+q V.q y e+y y o+z+#.H                   ",
"                    . D.n+{.:.:.g+H.(.(.i+K z 3.x+&+N.@.@.f f *+*+R.r.B+L P.P.#.#.J z+z+y y y V.V.y z+z+t J.                    ",
"                      . =.j C+$+:.g+!+(.P K K z r.3.W.N.N.T F+T R.B+$.b L b P.P.#.#.J #.o+J 7 #.J o+o+#.|                       ",
"                          D.j :.g+$+g+!+(.i+K A+r.3.3.N.N.N.T R.f f | R.b L y.P.P.#.#.J #.#.z+J #.t+P.                          ",
"                            . j g+g+g+!+!+P K K r.3.r.N.N.@.@.[ *+f r.R.$.L y.y.L y.b P.#.P.#.#.P.H                             ",
"                                {.$+!+u+P (.K K A+r.3.N.N.N.N.[ [ f r.R.$.$.$.$.b b P.y.P.b y.L                                 ",
"                                  2 $+g+1.!+(.K K r.K r.} N.i [ [ F+'.`.R.R.L L L $.L L y.L |                                   ",
"                                        C+1.P (.K K 3.3.r.W.} Q :+F+0 f `.R.f R.R.| $.T                                         ",
"                                            x x P K K z r.N.W.N.N.@.i @.T `.f H W.W.                                            ",
"                                                    J.K K K 3.r.x+r.N.T T @.                                                    "};
