/* XPM */
static char *noname[] = {
/* width height ncolors chars_per_pixel */
"64 64 234 2",
/* colors */
"   c #535B83",
" . c #34427F",
" X c #DBDDE4",
" o c #303C7B",
" O c #2E3A79",
" + c #4A517A",
" @ c #2C3877",
" # c #4D589E",
" $ c #2C356D",
" % c #354283",
" & c #B8BAC8",
" * c #334081",
" = c #1E2869",
" - c #283476",
" ; c #3F4A7C",
" : c #475591",
" > c #37437E",
" , c #232E71",
" < c #202A6E",
" 1 c #43518D",
" 2 c #1F2A6D",
" 3 c #1E286C",
" 4 c #1D286B",
" 5 c #2B367C",
" 6 c #46517C",
" 7 c #4D5D9A",
" 8 c #1A235E",
" 9 c #394783",
" 0 c #485795",
" q c #27316E",
" w c #465593",
" e c #525A81",
" r c #515A80",
" t c #34417E",
" y c #323F7C",
" u c #212B68",
" i c #606BB3",
" p c #2E3978",
" a c #252F6F",
" s c #344181",
" d c #323F7F",
" f c #303D7D",
" g c #2F3B7C",
" h c #2D397A",
" j c #3D498D",
" k c #293576",
" l c #283375",
" z c #232D70",
" x c #202B6D",
" c c #53649F",
" v c #1E296B",
" b c #B2B5C4",
" n c #1D276A",
" m c #2D377D",
" M c #2B377B",
" N c #4E5E9A",
" B c #2A357A",
" V c #293379",
" C c #283378",
" Z c #979AB0",
" A c #4B5A97",
" S c #495895",
" D c #485894",
" F c #475693",
" G c #455491",
" H c #43528F",
" J c #33407C",
" K c #C5C8D3",
" L c #30396F",
" P c #3F4B81",
" I c #717591",
" U c #313E7D",
" Y c #202A69",
" T c #D7D9E1",
" R c #D6D7E0",
" E c #2C3878",
" W c #273273",
" Q c #48529A",
" ! c #253071",
" ~ c #6A6F8D",
" ^ c #232E6F",
" / c #3A4475",
" ( c #434E95",
" ) c #B6B8C7",
" _ c #35417A",
" ` c #212C6D",
" ' c #202A6C",
" ] c #232D65",
" [ c #1F2A6B",
" { c #374072",
" } c #2C387B",
" | c #1C2668",
".  c #9A9DB2",
".. c #3B468D",
".X c #29336E",
".o c #384580",
".O c #232E72",
".+ c #465591",
".@ c #333E85",
".# c #212C70",
".$ c #384276",
".% c #202A6F",
".& c #323F7A",
".* c #2F3A81",
".= c #1E286D",
".- c #777C96",
".; c #404F8B",
".: c #3E4D89",
".> c #3D4B88",
"., c #A9ACBD",
".< c #6671BA",
".1 c #313D7C",
".2 c #4D547D",
".3 c #D9DAE2",
".4 c #2F3B7A",
".5 c #D6D8DF",
".6 c #2D3978",
".7 c #D5D6DE",
".8 c #2C3777",
".9 c #2B3776",
".0 c #2B3576",
".q c #283373",
".w c None",
".e c #242F6F",
".r c #444F95",
".t c #222D6D",
".y c #EEEFF3",
".u c #B4B7C4",
".i c #404B91",
".p c #1D2768",
".a c #2B3779",
".s c #3C478D",
".d c #333B6D",
".f c #2A3578",
".g c #293577",
".h c #7E839C",
".j c #36427D",
".k c #333D84",
".l c #303B81",
".z c #1F296D",
".x c #42508C",
".c c #1E296C",
".v c #51629E",
".b c #2E397F",
".n c #51609E",
".m c #1D276B",
".M c #404E8A",
".N c #2A357B",
".B c #4C5C99",
".V c #29337A",
".C c #4A5A97",
".Z c #364280",
".A c #9094AA",
".S c #303C7A",
".D c #1D2664",
".F c #5D68B0",
".G c #293473",
".H c #273271",
".J c #5762AA",
".K c #334080",
".L c #323E7F",
".P c #45538B",
".I c #303C7D",
".U c #2B3678",
".Y c #1B2465",
".T c #2A3677",
".R c #3C4982",
".E c #273274",
".W c #384288",
".Q c #263273",
".! c #263073",
".~ c #253072",
".^ c #171F57",
"./ c #222C6F",
".( c #B5B8C7",
".) c #313C81",
"._ c #1E286B",
".` c #2D387D",
".' c #343E70",
".] c #1C2669",
".[ c #4F5F9B",
".{ c #2C367C",
".} c #293479",
".| c #2C3772",
"X  c #979BB0",
"X. c #4B5B97",
"XX c #273277",
"Xo c #4A5996",
"XO c #9499AD",
"X+ c #253075",
"X@ c #475793",
"X# c #222C72",
"X$ c #445390",
"X% c #1F2A6F",
"X& c #42518E",
"X* c #787E98",
"X= c #727692",
"X- c #2B3574",
"X; c #555FA7",
"X: c #232D6C",
"X> c #2F3B7B",
"X, c #515BA3",
"X< c #4B527C",
"X1 c #293575",
"X2 c #3A4589",
"X3 c #4A559C",
"X4 c #263172",
"X5 c #465198",
"X6 c #B7B9C8",
"X7 c #424D94",
"X8 c #1F296B",
"X9 c #2D397C",
"X0 c #1D2769",
"Xq c #2A3579",
"Xw c #454E79",
"Xe c #3B4883",
"Xr c #273376",
"Xt c #38438A",
"Xy c #273176",
"Xu c #364188",
"Xi c #9498AC",
"Xp c #3C477A",
"Xa c #242F73",
"Xs c #475692",
"Xd c #343F86",
"Xf c #36427E",
"Xg c #323D84",
"Xh c #212B70",
"Xj c #44528F",
"Xk c #43528E",
"Xl c #1F296E",
"Xz c #323E7A",
"Xx c #1E296D",
"Xc c #41508C",
/* pixels */
".w.w.w.w.w.w.w.w.w.w.w.w.w.w.w.w.w.w.w.w.w.w.w.w.w.w.!XX C V CXyX+XaX# < v.p.w.w.w.w.w.w.w.w.w.w.w.w.w.w.w.w.w.w.w.w.w.w.w.w.w.w",
".w.w.w.w.w.w.w.w.w.w.w.w.w.w.w.w.w.w.w.w.w.w.|.1.WXuXg.* m 5.VXXX+X+.OX#.#Xh.%.z 8 8.w.w.w.w.w.w.w.w.w.w.w.w.w.w.w.w.w.w.w.w.w.w",
".w.w.w.w.w.w.w.w.w.w.w.w.w.w.w.w.w.w.w.w.>.r.i.sXtXuXg.* m 5.VXXX+X+.OX#.#Xh.%X%XlXl._ 8.w.w.w.w.w.w.w.w.w.w.w.w.w.w.w.w.w.w.w.w",
".w.w.w.w.w.w.w.w.w.w.w.w.w.w.w.w.w > # # Q.r.i.sXtXdXg.* m.N CXXX+Xa.OX#.#Xh.%X%XlXx.=.= 3.] 8.w.w.w.w.w.w.w.w.w.w.w.w.w.w.w.w.w",
".w.w.w.w.w.w.w.w.w.w.w.w.w.w.w.wX;.JX, # Q (.i..XtXdXg.b m.N CXXX+Xa.OX#XhXh.%XlXlXx.= 3 3 3.m |.w.w.w.w.w.w.w.w.w.w.w.w.w.w.w.w",
".w.w.w.w.w.w.w.w.w.w.w.w.w.w A i.FX;X, # Q (.i...WXdXg.b 5.}Xy.! , ,X#XhXhXh.%XlXlXx.= 3 3 4.m.m.] 8.w.w.w.w.w.w.w.w.w.w.w.w.w.w",
".w.w.w.w.w.w.w.w.w.w.w.w.w.<.<.F.JX;X,X3X5X7 j..Xu.@.).` 5 C.! ! a z.#XhXh.%.%XlXlXx.= 3 3.m.m.m n n |.w.w.w.w.w.w.w.w.w.w.w.w.w",
".w.w.w.w.w.w.w.w.w.w.w.P.<.< i.F.JX; #X3X5.i jXtXu.k.l m.f.|.' {Xp $ u '.%XlX%Xl.z.= 3 3 3.m.m n n n n |.^.w.w.w.w.w.w.w.w.w.w.w",
".w.w.w.w.w.w.w.w.w.wXo.<.<.< i.JX;X, # Q (.i.sXtXuXg.* }.0 {   ~.hXw q u <XlXlXlXx.= 3 3 4.m.m n n nX0.] |.^.w.w.w.w.w.w.w.w.w.w",
".w.w.w.w.w.w.w.w.w A.<.<.< i.F.JX;X,X3X5X7.i...WXdXg.b.U.0 ;.-.A.,   $ u 2.zXlXlXx.= 3 3 4.m.m n n nX0.].] |.^.w.w.w.w.w.w.w.w.w",
".w.w.w.w.w.w.w.wXo.<.<.< i.F.JX;X, # Q.r.i.sXtXu.k.l.b.U.0X<XO b.7 ~.d ] '.zXl.zXx 3 3 4.m.m n n nX0.].].] |.Y.^.w.w.w.w.w.w.w.w",
".w.w.w.w.w.w.w.P.<.<.< i.F.J.JX, #X3X5X7.i...WXdXg.*.`.f.0.2X .u.7 I.d ].z.cXl.z.= 3 3 3._.m.m n n nX0X0.] | |.Y.^.w.w.w.w.w.w.w",
".w.w.w.w.w.w.w.<.<.< i.F.F.JX;X,X3 Q.r.i.sXtXu.@.).b m.g.G.2.  &.3X=.d ].z.cXl.zXxXx 3.c.c.c._._._._._ nX0X0 | |.Y.w.w.w.w.w.w.w",
".w.w.w.w.w.w.<.<.< i.F.J.JX;X, # Q.rX7.i...WXdXg.l.` 5Xr.G.2.  &.3X=.d ].z.z < < < < < < < < < < ' '.zX8._._._X0.p.Y.w.w.w.w.w.w",
".w.w.w.w.w A.< i i.F.J.JX;X, # QX5X7.i.sXtXu.k.).b m.N l.qX<.  &.3X=.d ] x <.#.#.#.#.#.#././.# ` ` ` ` x ' 'X8X8 v = 8.w.w.w.w.w",
".w.w.w.w.w i.F.F.J.JX;X,X, # QX5X7.i.sX2XuXdXg.*.` 5.}.E.HX<. X6.3 I.d ] `./ , , , , , , , , , , z z./.t./ ` ` ' ' [ =.w.w.w.w.w",
".w.w.w.wX;.F.J.JX;X;X, #X3 QX5X7.i.sX2.WXdXg.l.b.{.N V.!.HX<X  ).3X=.d q , ,XaXaXaXa.!.!.!.~.~.~ , , ,.e , ^ ^.t ` ' ' =.w.w.w.w",
".w.w.w >.JX;X;X;X,X, #X3 Q.rX7.i.s...WXd.k.).b m.N.} C.~.HX<X X6.3X=.d q ,.~.!.!.!.!.!.!.E.E.E.Q.!.!X4.~ ! !.e.e ^.t ` `.D.w.w.w",
".w.w.w #X,X,X, # #X3 QX5.rX7.i.sX2.WXd.k.).b.` 5 B CXX.!.HX<X X6.3X=.'.X.!.!XrXrXrXrXrXrXr - - l l.q.E.E WX4X4 ! a.e ^X: Y.w.w.w",
".w.w.w # # #X3X3 QX5.rX7.i.i.sX2.WXd.k.).*.`.{ B VXXXX.!.qX<X  ) TX=.'.X.E l.g.g.f.f.f.f.f.f.g.g k k -X1.q.q.q WX4 ! !.e ^.w.w.w",
".w.w.> Q Q QX5X5 (X7.i.i.s..XtXuXd.k.).*.`.{ B V CXXXX.Q.GX<X X6.3X= { $X1.gXq.U.a.a.a.a.a.a.a.U.U.U.U.T.0X1X1.q.q W.H ! a ].w.w",
".w.w.r.r ( (X7.i.i.i.s..Xt.WXuXdXg.).b.`.{.N V C C C C.E.GX<X  ).3X= { $.T.U } } }X9X9X9X9X9 h h h.6 E E.U.9.U.0X1.G.q WX4 a.w.w",
".w.|.i.i.i.i j j.s..Xt.WXuXd.kXg.l.b.`.{ B V C C C C.} l.G.2X X6.3X= { $ E }X9X9X9X9 g g g g g gX>X> O h.6.6 E.8.0X1X1.G.q.H ].w",
".w.1.s.s......XtXt.WXuXd.@Xg.).*.b m 5 B V C C C V.}XqX1X-.2X  ).3X= / L hX9 g.I.I.I.I f f f.I.I.I.I g gX> O O.6 E.8.0X1.G.q ].w",
".w.WXtXtXt.WXuXuXuXd.kXg.).l.b.`.{.N B V C C C V.}Xq B -.9.2X  ).3.- / LX> g f.L.L.L.L.L d.L.L.L.L U U U f.IX>.4 O.6 @.9.0X-.H.w",
".wXuXuXdXdXd.@.kXgXg.l.*.b.` m 5.N.} CXXXX C C.}Xq B B.0 @.2X  ).3.- / L g f.L d * * * * * s * *.K.K d d.L U.1.IX>.4 O.6 @.0X-.w",
".!XgXgXgXgXg.).l.*.b.b.` m 5.N.} V CXXXXXX C.}Xq B B M.0 p.2X  ).3.- /.' U.L * s s % % % % % % % % s s s.K d d U.1 o.4 O.6 @.9.G",
"XX.*.*.*.b.b.` m }.U.U.f.gXr l.E.!.~.!.!.Q.E lX1 -.0.0.9.| r.  & XX*Xw {Xz y t.K . . . . . . . . t t t J J yXzXz U.1.S.S.4 p @X-",
" C m m m m 5 5.f.0.0.0.0.G.G.q.H.H.H.H.q.G.G.GX-.9 @ p.| L e., & X.h +.$Xz _.jXf > > > > > > > > > >.j.j.j _ _.&Xz y.1 o.S.4 O.9",
" V 5 5.N.N.} C.| { ;X<.2.2.2X<X<X<X<X<X<X<X<.2.2.2.2.2 r e.h K.7.y.,.- ~.2 r e e e         e e e e r r r r.2 + /.'Xz y UXz.S.4 @",
" C.V.V C CXy.!.'  .-XOX . . . . X X X X X X X X X X X . ., K.y.y.y R &.,. X X  ZX XO ZXOXOXOXOXiXiXiXiXiXi.h.h.2 {Xz J y y U.S O",
"XyXXXXXXXX.! ! { ~.A b.u & & &X6 )X6X6 )X6 )X6 ) ) ) ) & &.7.y.y.y X.7 KX6.(.u.u.(.u.u.u.u b b b b b b b b.,X    /.$ t t t y.1.4",
"X+X+X+X+X+ , aXp.h.,.7.7.3.3.3.3.3.3.3 T.3.3.3.3.3.3.3 X X.y.y.y.y.y.y X T T.5.5.5.5 T T T.5.5.5.5.7.7.7.7 K.u ~ /.$XfXf . t y.S",
"XaX+X+XaXa , z $Xw   ~ IX=X=X= IX=X=X=X=X=X=X=X=.-.-.-X*.h., R X.y K. .AX*X*X*X*X*X*X*X*X*X*X*X*X*X*.-.-.- I ~ +.$ _.o.Z.Z . J.1",
"X#.O.O.O.OX#.# u q $.d.d.d.d.d.d.d.d.'.' { { { / / / /Xw +.- &.7.y.  ~   6 6Xw 6 6 6 6 6 6 6 6 6 6 6 6XwXwXwXwXp >.o 9.o.o.Z t y",
" <X#X#X#X#XhXh ' u u ] ] ] ] ] ] q q.X.X $ $ $ L L L.' {.$ ~., K X.A  XwXpXp ; ; P P P P P P P P P P P ; ; ;Xp.o 9 9 9 9.o.Z . J",
" v.#.#.#XhXhXh.% < 2 '.z.z.z x ` , ,.!.EX1.T E hX> g UXzXz.2. X6 TX* 6XpXe.>.:.;.;Xc.xX&XkXkXkXk 1 1.xXc.;.:.:.>.>.>.>Xe 9.o.Z J",
".pXhXhXhXhXh.%XlXl.z.z.c.c.z <./ ,.~.! l.g.U }X9 g f.L y _ rX .( TX* 6Xp.>.MXcX& H HX$ G G G G G G GX$ HX&.x.;.M.:.:.>Xe 9 9.o t",
".w.%.%.%.%.%.%X%XlXlXlXlXl <.# ,Xa.!Xr.gXq }X9 g f.L * t.j eX .u.5X*Xw ;.:Xc H G w w w 0 0 0 0 0X@ F F.+ GX$Xk.x.;.:.:.>Xe 9.o.w",
".w.zX%X%XlXlXlXlXlXl.z.z.z <.# ,Xa.!Xr.g.U }X9.I.L d s.KXf e Z.u.5X* 6 ;.;X& G w w 0 0 S S.C.CXo S S 0 F.+ GX$Xk.x.;.:.>.> 9.o.w",
".w 8XlXlXlXlXl.zXxXxXx.=Xx <.# ,Xa.!Xr.f.a }X9.I.L * s . > eX .(.5X* 6 P.; H w w 0 0 S.C.C A A A A.CXo D F.+ GXj 1Xc.:.:.>XeXz.w",
".w 8XlXxXxXxXx.=.=.= 3 3Xx <.# ,Xa.!Xr.f.aX9X9.I.L * % . >  XO.u.5X* 6 PXc H w 0 0.C.CX..B.B.B.B.B.B AXo D F.+X$Xk.x.;.:.>Xe _.w",
".w.w._.=.=.=.= 3 3 3 3 3 3 <.# ,.!.!Xr.f.aX9 g.I.L * % . >   Z.u TX* 6 P.xX$ w 0 S.C.B.B 7 7 N N N 7.B AXo DXs GXj 1.;.:.>Xe.w.w",
".w.w 8.= 3 3 3 3 3 3 4 3.c <.# ,.!.!Xr.f.aX9 g f.L * % . >  XO.u TX* 6 PX& G 0 S.CX..B 7 N.[.[.[.[ N 7.B A SX@.+X$Xk.;.:.: _.w.w",
".w.w.w 3 3 3 3 3 4 4.m._.c <./ ,.!.EXr.f.aX9 g f d * % . >  XO.u TX* 6 PXk G 0 S.C.B 7 N.[.n.n.n.n.[ N 7X.XoX@Xs GXk.x.M.:.w.w.w",
".w.w.w.] 3 4.m.m.m.m.m.m.c <./ ,.~.E -.f.aX9 g f.L s % . > eXO b.5X* 6 PXk G 0.C A.B 7.[.n.v c c.v.n.[ N.B.C DXs GXk.x.M.>.w.w.w",
".w.w.w 8.m.m.m.m.m.m n.m._ <.# ,.~.E -.g.a h g.I.L * % . > eXO b.5X* 6 PXk G 0.C A.B N.[.n c c c c.v.[ N.B A DXs GXj.x.M.o.w.w.w",
".w.w.w.w |.m.m n n n n n._ < ` ,.~.Q l.g.U h g.I.L * % . > eXi b.5X* 6 PXk G 0Xo A.B N.[.n c c c c.v.[ N.B A DXs GXk.x.>.w.w.w.w",
".w.w.w.w.w.] n n n n n n._ ' ` z ,.! l k.U hX>.I.L.K % t > eXi b.5X* 6 P 1 GX@ S A.B N.[.n.v c c c.n.[ NX.Xo DXsX$Xk.M.w.w.w.w.w",
".w.w.w.w.w 8 n n n nX0 n._ ' ` z ,.!.q k.U.6X>.I U.K s t > rXi b.7X* 6 P 1 G F S.C.B 7 N.[.n.v.v.n.[.[.BX.XoX@.+X$Xk.R.w.w.w.w.w",
".w.w.w.w.w.w | nX0X0.]X0._.z `./ ,X4.E -.U E O g U d s t.j rXi b.7.- 6 P.xX$ F 0Xo A.B 7 N.[.[.[.[.[ 7X. A DXs.+Xj.M.w.w.w.w.w.w",
".w.w.w.w.w.w.w |.].].]X0 nX8 x.t.e.~.EX1.T E h g U d s J.j rXi b.7.-Xw ;Xc H.+ F DXo A.B 7 N N N N.BX. A SX@ :X$.x.w.w.w.w.w.w.w",
".w.w.w.w.w.w.w.^ |.].].]X0._ './ , ! W.q.0.U.6X> f.L.K J.j rXi b.7.-Xw ;.;X& G.+ F DXo AX..B.B.BX.X. A SX@Xs G 1Xp.w.w.w.w.w.w.w",
".w.w.w.w.w.w.w.w.^ | | |X0._ ' ` ^ !X4.qX1.9.6 O.I U d y _.2.h., K IXw ;.:.xX$ G.+ F D SXo.C A AXoXo DX@Xs G 1Xp.w.w.w.w.w.w.w.w",
".w.w.w.w.w.w.w.w.w.^.Y | |._X8 ` ^.eX4.qX1.U E OX>.1 dXz _ +.hX .u ~XwXp.:.;XkX$ G.+XsX@X@ D D D DX@Xs : G 1 /.w.w.w.w.w.w.w.w.w",
".w.w.w.w.w.w.w.w.w.w.^.Y |X0X8 '.t.e ! W.q.0.8.6.4.I UXz.& /.2   ~ +Xp.o.>.M.xXkXjX$ G.+XsXsXsXsXs.+.+X$ 1Xp.w.w.w.w.w.w.w.w.w.w",
".w.w.w.w.w.w.w.w.w.w.w.^.Y.p v ' ` ^ aX4.qX1.0 E OX>.1 UXz.' { / /.$ > 9.>.:.;.x 1XkXjX$ G G G GX$X$Xj.xXp.w.w.w.w.w.w.w.w.w.w.w",
".w.w.w.w.w.w.w.w.w.w.w.w.w.Y = [ '.t.e ! W.GX1.8.6.4 o.1 yXzXz.$.$ _.o 9.>.:.:.;Xc.x 1XkXkXkXjXkXkXk.M.w.w.w.w.w.w.w.w.w.w.w.w.w",
".w.w.w.w.w.w.w.w.w.w.w.w.w.w 8 = ' ` ^ !.H.qX1.0 @ O.4.S.1 y J tXf.o 9 9.>.>.:.:.:.;.;.;.x.x.x.x.M.R.w.w.w.w.w.w.w.w.w.w.w.w.w.w",
".w.w.w.w.w.w.w.w.w.w.w.w.w.w.w.w = `X:.e ! W.GX1.9.6 O.S o U y tXf.Z.o 9XeXe.>.>.:.:.:.:.M.M.M.>.w.w.w.w.w.w.w.w.w.w.w.w.w.w.w.w",
".w.w.w.w.w.w.w.w.w.w.w.w.w.w.w.w.w.D Y ^ aX4.q.G.0 @.6.4.SXz y t ..Z.o.o 9 9Xe.>.>.>.>.:.:.>.o.w.w.w.w.w.w.w.w.w.w.w.w.w.w.w.w.w",
".w.w.w.w.w.w.w.w.w.w.w.w.w.w.w.w.w.w.w.w ] a.H.qX-.0 @ p.4.S U y t ..Z.Z.o 9 9 9XeXeXe _.w.w.w.w.w.w.w.w.w.w.w.w.w.w.w.w.w.w.w.w",
".w.w.w.w.w.w.w.w.w.w.w.w.w.w.w.w.w.w.w.w.w.w ] ].HX-.9 @ O.4.S.1 y J t ..Z.o.o.oXz _.w.w.w.w.w.w.w.w.w.w.w.w.w.w.w.w.w.w.w.w.w.w",
".w.w.w.w.w.w.w.w.w.w.w.w.w.w.w.w.w.w.w.w.w.w.w.w.w.w.GX-.9 @ O.4.S.1 y J J t.w.w.w.w.w.w.w.w.w.w.w.w.w.w.w.w.w.w.w.w.w.w.w.w.w.w"
};
