/* XPM */
static char * Synth_AUTOPANNER_xpm[] = {
"64 64 225 2",
"  	c None",
". 	c #161E54",
"+ 	c #B2821C",
"@ 	c #465284",
"# 	c #2E3A74",
"$ 	c #D2B624",
"% 	c #8A662C",
"& 	c #32465C",
"* 	c #5E6AB4",
"= 	c #CE9E14",
"- 	c #222E64",
"; 	c #4E5E94",
"> 	c #42528C",
", 	c #364684",
"' 	c #36324C",
") 	c #424A7C",
"! 	c #CE8A14",
"~ 	c #2A3674",
"{ 	c #32427C",
"] 	c #FACE14",
"^ 	c #F6A204",
"/ 	c #4E568C",
"( 	c #2A2E5C",
"_ 	c #1A2664",
": 	c #3E4E84",
"< 	c #CA9614",
"[ 	c #363A64",
"} 	c #F6B60C",
"| 	c #3A468C",
"1 	c #D2AA1C",
"2 	c #4A5A94",
"3 	c #22265C",
"4 	c #FAC20C",
"5 	c #AA7E24",
"6 	c #5A62AC",
"7 	c #4A529C",
"8 	c #2E3A7C",
"9 	c #2A3274",
"0 	c #AE922C",
"a 	c #222E74",
"b 	c #3E467C",
"c 	c #424A94",
"d 	c #324284",
"e 	c #FEDA14",
"f 	c #FABE0C",
"g 	c #222A6C",
"h 	c #52526C",
"i 	c #6A76BC",
"j 	c #DEA214",
"k 	c #525EA4",
"l 	c #F6B20C",
"m 	c #4E569C",
"n 	c #2A325C",
"o 	c #D69A14",
"p 	c #AE8A2C",
"q 	c #46568C",
"r 	c #DE920C",
"s 	c #FEB604",
"t 	c #222A54",
"u 	c #BA8224",
"v 	c #926E34",
"w 	c #D2A61C",
"x 	c #CE9214",
"y 	c #D29614",
"z 	c #B27A24",
"A 	c #2E3E7C",
"B 	c #222A64",
"C 	c #B2861C",
"D 	c #4A567C",
"E 	c #6672BC",
"F 	c #D69E14",
"G 	c #26326C",
"H 	c #46529C",
"I 	c #3A4A7C",
"J 	c #2A367C",
"K 	c #3A4274",
"L 	c #FED614",
"M 	c #FEAA04",
"N 	c #3A4A8C",
"O 	c #D2B224",
"P 	c #424E8C",
"Q 	c #2A326C",
"R 	c #162254",
"S 	c #323E74",
"T 	c #926A34",
"U 	c #3E4674",
"V 	c #666EB4",
"W 	c #D2A21C",
"X 	c #262E64",
"Y 	c #4E629C",
"Z 	c #46528C",
"` 	c #424E7C",
" .	c #FED214",
"..	c #F6A604",
"+.	c #4E5A8C",
"@.	c #1E2A6C",
"#.	c #363E84",
"$.	c #F6BA0C",
"%.	c #DAAA1C",
"&.	c #FECA0C",
"*.	c #4A568C",
"=.	c #263274",
"-.	c #3E4A7C",
";.	c #3A428C",
">.	c #FEE21C",
",.	c #5662A4",
"'.	c #4E5A9C",
").	c #262A54",
"!.	c #B27E24",
"~.	c #464E8C",
"{.	c #B6821C",
"].	c #4A527C",
"^.	c #323A6C",
"/.	c #8E6A2C",
"(.	c #626EB4",
"_.	c #D29E14",
":.	c #3A467C",
"<.	c #32366C",
"[.	c #CE8E14",
"}.	c #2E366C",
"|.	c #364274",
"1.	c #FECE0C",
"2.	c #2A2E6C",
"3.	c #1E2664",
"4.	c #CE9A14",
"5.	c #3A3E64",
"6.	c #D2AE1C",
"7.	c #FEC60C",
"8.	c #5A66AC",
"9.	c #BA961C",
"0.	c #4E567C",
"a.	c #3A4674",
"b.	c #FEAE04",
"c.	c #DE9614",
"d.	c #6E7ABC",
"e.	c #DAA61C",
"f.	c #3A364C",
"g.	c #FEDE14",
"h.	c #FEBA04",
"i.	c #D29A14",
"j.	c #D69214",
"k.	c #FEB204",
"l.	c #1A2264",
"m.	c #363E74",
"n.	c #4A569C",
"o.	c #8E6624",
"p.	c #AE7E1C",
"q.	c #323A84",
"r.	c #364284",
"s.	c #2E325C",
"t.	c #323E7C",
"u.	c #3E4A8C",
"v.	c #1A225C",
"w.	c #42466C",
"x.	c #464E7C",
"y.	c #525A94",
"z.	c #525AA4",
"A.	c #B67E1C",
"B.	c #626AB4",
"C.	c #FAA204",
"D.	c #CE9614",
"E.	c #FAB60C",
"F.	c #3E468C",
"G.	c #FEC20C",
"H.	c #262E74",
"I.	c #FEBE0C",
"J.	c #565EA4",
"K.	c #966E34",
"L.	c #D29214",
"M.	c #262A64",
"N.	c #B6861C",
"O.	c #2E367C",
"P.	c #2E326C",
"Q.	c #52629C",
"R.	c #FAA604",
"S.	c #FABA0C",
"T.	c #D28E14",
"U.	c #5E66AC",
"V.	c #222E6C",
"W.	c #4E5E9C",
"X.	c #425294",
"Y.	c #4E5694",
"Z.	c #2A2E64",
"`.	c #3E4E8C",
" +	c #4A5A9C",
".+	c #2E3A84",
"++	c #2A327C",
"@+	c #3E4684",
"#+	c #222A74",
"$+	c #2A3264",
"%+	c #465694",
"&+	c #222A5C",
"*+	c #4A5684",
"=+	c #3A4A84",
"-+	c #3A427C",
";+	c #424E94",
">+	c #262E6C",
",+	c #465294",
"'+	c #4A5694",
")+	c #26327C",
"!+	c #3E4A84",
"~+	c #5662AC",
"{+	c #4E5AA4",
"]+	c #262A5C",
"^+	c #464E94",
"/+	c #B68224",
"(+	c #4A5284",
"_+	c #323A74",
":+	c #D29E1C",
"<+	c #3A4684",
"[+	c #2E3674",
"}+	c #36427C",
"|+	c #FECE14",
"1+	c #1E266C",
"2+	c #D2AE24",
"3+	c #4E5684",
"4+	c #6E7AC4",
"5+	c #FEDE1C",
"6+	c #FEBA0C",
"7+	c #D29A1C",
"8+	c #36428C",
"9+	c #323E84",
"0+	c #3E4A94",
"a+	c #464E84",
"b+	c #B67E24",
"                                                    =.9 9 ++++=.H.a #+g @.3.                                                    ",
"                                            &+_+r.r.q..+8 J )+H.=.H.a a g a l.. . .                                             ",
"                                        <.) 0+F.;.r.9+.+O.O.J )+=.H.#+a @.@.@.1+l.l.. .                                         ",
"                                  _+'.n.%+;+c | 8+#.q..+8 J )+H.a a a #+a a #+@.@._ l.. . . .                                   ",
"                                y.J.k m 7 ;+0+| 8+d q.O.J J J ++=.H.a #+@.@.@.@.#+@.@.1+1+l.. .                                 ",
"                            Y.B.8.~+z.m H ;+c F.8+#.9+.+O.++=.=.H.a V.a #+#+#+1+@.@.1+@.1+@.l.. . .                             ",
"                          (.(.* 6 J.{+n.^+c F.| 8+9+q..+O.++)+)+H.H.#+V.@.@.#+1+@.@.1+@.1+@.1+_ l.. .                           ",
"                      P i E B.U.~+k {+n.H 0+N ;.#.q.A 8 J J 9 =.=.a a #+a #+@.#+1+1+@.1+@.1+1+1+1+l.. . .                       ",
"                    K i E E * 8.~+z.m H ^+c F.| r.q..+8 J )+)+H.a H.a #+V.#+@.@.@.1+@.1+1+_ 1+1+_ 1+l.. . .                     ",
"                  / d.E E * 8.6 k {+n.,+;+0+| 8+#.9+O.J ++++H.)+H.a g #+@.@.@.@.@.@.1+@.@.@.1+@.@.1+@.l.. . .                   ",
"                K E i V V * 8.k z.n.7 ;+0+F.;.8+9+9+.+O.~ ++H.H.a a V.#+a #+@.@.1+#+1+_ 3 @._ 1+@._ 1+_ l.. . .                 ",
"              x.d.i E V * 8.J.k '.n.H ;+u.| r.9+9+8 O.J ++=.=.=.H.a @.#+@.@.1+1+@._ 3.% < 5 3._ 1+1+@.1+1+l.. . .               ",
"              V E V (.U.U.~+J.{+n.,+^+c 0+| 8+9+q.8 8 J J )+a a a a a @.@.#+@.#+@.@.@.t C $.9.& @._ 1+_ 1+_ l.. .               ",
"            E E E (.* 8.~+k {+n.7 ^+`.u.;.8+#.q..+.+J J =.H.H.X Z.B @.M.B @.@.3.@.M.3.3 ' j 4 9.&+@.@.@.1+1+@.l.. .             ",
"          ) V B.B.U.8.J.k z.m 7 ^+c F.| ;.r.#.q.O.J ++++=.=.>+p 1 w 1 W W W W _.W = = 4.F S.G.E.+ ]+@.a @.@.@.@._ l..           ",
"          B.* U.8.~+k k z.n.7 H ;+c N | r.#.9+8 8 J J =.)+a Z.1 L L  . .1.&.&.&.7.7.G.G.G.G.I.G.l o.- g V.#+g g @.. .           ",
"        Y.U.8.~+J.J.z.{+n.%+;+;+0+F.| ;.9+9+q.O.O.J ++=.H.H.X 1 L &.1 w w W W = _._._._.F f I.E.+ ]+a a V.a V.#+V.@._ .         ",
"      #.6 ,.k z.k {+ +n.7 ^+;+0+0+| ;.9+#.8 8 8 J =.=.)+=.=.Q 1  .6.s.n X $+Z.$+$+$+$+X f.j S.+ ( G G =.=.>+a >+a g g v..       ",
"      ~.z.z.{+m n.7 H H ;+c 0+| ;.8+r.9+q..+J J J ++=.=.)+=.s.1  .w Z.9 =.=.9 =.)+=.=.n + l {.n 9 9 =.=.=.=.=.>+=.G V.g _       ",
"      {+n.n.m n.7 H ^+;+c 0+F.;.8+#.9+q..+O.O.++++=.9 ++=.++Q w  .W }.=.~ ~ J J ~ J Q % D.p.n 9 ~ J 9 9 ~ 9 =.=.H.H.V.G v.      ",
"    }.n.n.H H ,+;+;+0+0+F.;.| ;.#.q.A q.8 J J 9 ++)+=.=.=.~ P.w  .W }.++J ~ ~ J ~ ~ ~ ~ }.}.~ J ~ ~ ~ ~ ~ ~ ~ ~ =.9 >+Q V._     ",
"    ^+;+;+;+c 0+c 0+F.| | r.#.9+9+9+.+8 J J 9 )+~ 9 )+++++9 }.w  .w ~ # J J J O.O.8 8 [+# 8 8 8 8 8 8 J J ~ ~ ~ ~ ~ ~ =.- .     ",
"  3 0+c 0+u.F.N | | ;.r.8+#.9+9+q.O.J O.J ++~ )+)+9 ~ ~ J ~ }.w 1.W }.~ 8 8 8 8 8 8 A 8 8 8 8 8 8 8 # 8 8 O.~ ~ ~ ~ ~ 9 ~ G 3.  ",
"  q.F.| F.| | ;.;.8+r.#.#.9+9+8 O.8 O.++9 ~ )+9 9 J )+J ++J <.w 1.w <.8 8 8 8 A q.t.q.9+A A 8 A A 8 A 8 8 8 8 8 J J ~ ~ Q X .   ",
"  S ;.8+;.;.8+r.#.9+9+9+q.q.O.8 O.J J )+)+=.++J 9 J 9 J J 8 <.w &.W ^.8 A A q.A A A t.t.9+t.t.t.t.t.t.t.A t.8 _+8 [+~ J ~ 9 G   ",
"  8+9+#.9+9+#.9+9+9+q..+8 J 8 J ++J =.9 9 ++~ =.J J J 8 ~ J ^.W 1.W _+9+9+9+t.t.#.r.d #.}+r.#.9+d 9+9+t.t.A t.A 8 A 8 # ~ ~ 9   ",
"H.9+9+q.9+q.q.q..+8 8 8 O.J J J )+++)+=.=.)+J ~ J ~ J 8 8 J ^.W 1.W ^.t.t.d r.9+t.#.d d d d }+r.}+}+d r.#.t.t.t.8 t.8 # # # # ~ ",
"9 q..+.+.+8 8 8 O.J J J J ++++=.9 =.=.)+J ++9 )+J 8 J 8 8 q.^.W &.W m.9+d 9+d r., , r.r.;.<+, r.r.r.r.}+d }+r.}+{ t.t.t.8 # J ~ ",
"=.O.8 O.J J J J O.++++J )+=.)+H.H.H.H.=.=.J ~ ++J 8 J 8 A 8 m.W &.W m.#.r.r., r.r.<+<+, , <+<+<+, <+, <+r.r.d #.t.t.t.A 8 _+# [+",
"J J ++J J J ++J )+J =.$+~ Q s.Q Q $+Q $+}.Q }.}.}.}.^.^.^.m.[ w 7._.K , , , r.<+<+<+| <+<+<+| , <+<+<+, , , -+, }+r.t.t.t.A 8 # ",
"9 J ++++++J ++9 =.)+Q 0 $ O O O O O 2+6.6.1 1 1 1 w w W W W e.4 7.= m.r.;.<+, , N =+N N N =+u.N N | <+<+<+, r., r.r.}+{ t.A 8 8 ",
")+H.)+=.=.H.=.)+H.H.2.$ >.>.>.5+g.e e L L L L  .|+ .|+1.1.&.&.7.7.:+K <+, , | u.| N u.u.u.u.N u.u.=+u.N =+N =+<+, , r.#.{ t.t.# ",
"=.H.=.H.=.a H.H.H.a 2.0 O O O 6.2+2+2+1 1 1 w 1 w W w W W _.e.4 7.W K N N u.N N u.u.u.`.`.P `.`.`.`.: u.!+F.=+<+<+, , r.}+{ { t.",
"a a a a a H.a a a H.g X X X X Z.Z.Z.$+P.P.}.^.<.^.^.^.S m.|.5.j G._.:.| @+N u.`.`.`.`.`.`.`.P `.P `.c `.u.: u.=+<+<+<+-+r.#.#.8 ",
"a a a a a a a a V.a #+V.g #+#+V.=.H.=.=.++~ 8 J A 9+t.t.t.d |._.G.i.U N u.N u.u.`.P P ;+> > P ;+P > `.`.u.u.`.!+!+<+=+, , }+}+t.",
"g #+#+#+#+#+V.a @.#+V.#+a V.V.a a =.=.J ~ J J 8 8 8 9+d r.r.K :+G.:+:.N N `.P > P X.X.> X.X.,+> X.P > > > : c `.N =+<+<+:.r.}+t.",
"@.a V.a V.#+@.a @.@.@.@.@.@.#+V.a =.=.J ~ J 8 8 t.q.t.9+r.r.|.:+G.i.b `.`.`.`.X.> > ,+,+Z %+%+,+%+X.X.X.> > `.P u.N =+<+<+, , }+",
"3.g #+@.#+g #+g #+#+#+@.@.#+V.#+H.H.=.=.J 8 8 8 8 t.9+r.r., -+_.G.:+-.`.P X.;+X.X.,+%+%+%+,+,+%+,+q ,+> ,+> > `.P : u.=+=+<+-+t.",
"  @.#+@.@.@.@.@.@.@.1+1+@.@.a a =.H.9 =.~ J 8 A A 9+{ r.r.<+K i.I.i.b `.`.> P ,+X.,+,+%+2 2 %+2 %+%+'+%+,+Z Z > P `.u.=+<+, <+  ",
"  @.@.@.@.#+1+@.@.@.#+#+1+#+g V.a =.~ J J 8 8 q.9+{ 9+d , , :._.G.7+) `.;+X.%+,+%+%+2 2 %+%+2 %+n.2 %+%+%+X.X.P P P : !+!+<+,   ",
"  . 1+#+1+#+#+1+@.@.@.@.@.g a a H.H.=.9 J O.8 8 9+#.r.r.r.<+:.i.I.4.) > P X.%+%+%+%+%+ + + ++. +2 2 2 %+'+q %+Z > P `.`.!+<+S   ",
"  v.@.@.@.@.1+@.1+1+1+1+1+@.g V.=.=.9 J ~ 8 8 t.t.{ r.r.| <+K i.I.i.) ;+,+Z %+%+2  + +2 W. +W.; '.'.2 2 2 %+q %+> > P !+!+a.X   ",
"    l.@.1+@.1+@.@.@.@.@.@.@.#+a =.=.=.J J 8 8 8 9+t.r.r., N :.i.6+7+: > X.X.%+%+'+2  +*++.*+W.W.W.'.W.2  +%+%+,+X.P P `.=+<+    ",
"    v.1+@.1+@.1+1+1+1+1+@.#+V.V.a =.~ ~ # J 8 9+t.d d , ;.<+U 4.I.4.) > ,+%+%+n.2 2 *.T [.!.].; Y W. +2 2 '+%+q Z > > : `.n     ",
"      l.@.1+@.@.@.@.@.1+@.@.#+H.a =.=.++# 8 8 A 9+r.r., <+| b i.h.i.) > ,+,+2 %+ ++.W.@ u ^ /+].Y Q.W.'.W.2 %+%+%+> P P :       ",
"      _ _ @.1+1+_ _ _ 1+@.g V.V.=.=.++~ J 8 8 q.t.t.d r., =+a.D.h.o ) ` @ @ @ q *.*+*+(+h c.R.b+D W.Y ; 2 2 2 %+> X.> `.|.      ",
"      . l.1+_ 1+1+1+@._ 1+g a V.a =.~ ~ ~ 8 A t.9+#.}+r.8+N b 7+h.k.o D.y L.L.L.x L.L.x y R.M C.u ].Y W.'.2 2 '+Z Z P P :.      ",
"        1+@.@.@.@.1+_ 1+@.@.@.H.H.=.=.)+J # 8 8 t.{ r., <+<+a.D.6+6+s s k.s k.k.k.b.b.b.M M M M ^ K.+.W.W.+.'+%+%+> > I         ",
"          . 1+1+@.1+1+1+1+g @.V.G =.~ ~ J 8 8 t.9+{ r.r., <+:.5 D.y L.D.x L.L.L.L.x T.T.j.R.M ^ A.].; W. +2 2 q ,+Z :           ",
"          _ 1+_ _ 1+@._ @.@.V.a a H.=.~ ~ [+8 8 t.9+r., ;.N <+b b -.` a+x.@ @ @ *+3+*+D h c.C.A.].k W.2 2 2 %+,+q > }.          ",
"            l.1+@._ @.1+@.@.g V.=.=.=.~ J # 8 8 t.t.t., }+<+<+u.u.u.`.X.> Z '+%+%+ + +].A.^ A.].; Q.; W.2 '+%+Z > P             ",
"              _ _ 1+_ 3.1+1+@.g V.H.=.9 ~ J 8 8 t.t.r.r., <+<+=+u.`.P P X.%+%+%+2 2 *+T ! z ].; W.2 W.2 2 2 q q >               ",
"              . l.1+_ _ @.@.@.g V.H.=.~ ~ ~ 8 8 t.t.t.r.r., <+=+N !+`.P P X.,+%+'+%+%+@ @ *+'.; W.2 2 '+%+%+X.P a.              ",
"                . _ 1+1+1+1+g V.a G =.=.~ J # 8 8 A 9+}+r.<+| =+!+`.`.`.> > q ,+%+%+'+2 2  +2 2 2 2 '+2 q q @ }.                ",
"                  . . 3.3.@.@.g #+V.=.=.~ J # 8 q.S t.{ d , ;.<+<+!+u.`.`.P > > %+q %+'+'+2 '+'+'+2 %+'+,+> a.                  ",
"                    v._ _ 1+1+V.V.H.>+=.9 9 ~ # A A t.9+}+}+, , <+| : u.P `.P > Z ,+,+q q %+%+%+%+,+Z > > }.                    ",
"                      . R @.1+@.V.a >+=.~ ~ J ~ 8 8 t.t.#.}+r., <+<+=+N `.`.P P > > X.X.Z q q q q %+Z > a.                      ",
"                          l.@.g @.V.=.G =.=.~ O.[+8 t.t.{ { r.<+, | @+!+!+`.`.`.`.> > Z X.> X.> > > >                           ",
"                            . @.@.g V.>+9 =.~ ~ # # 8 q.t.}+t.}+, , <+=+<+!+`.: c P `.> P P P P : :.                            ",
"                                @.V.g a G G ~ ~ J J # A t.t.{ r.}+, , <+N <+!+!+: !+P !+`.P `.:                                 ",
"                                  _ - a =.>+9 ~ [+8 # 8 A t.t.{ }+r.r.<+<+<+=+=+!+=+`.: : !+:.                                  ",
"                                        @.G =.=.~ ~ ~ # # q.t.t.#.}+}+}+<+, <+<+=+!+<+}+                                        ",
"                                            &+- =.~ ~ O.# # q.A t.}+r.{ }+r.<+, S {                                             ",
"                                                    9 ~ # # # _+8 A S #.}+}+                                                    "};
