/* XPM */
static char * Synth_MIDI_ROUTER_xpm[] = {
"64 64 256 2",
"  	c None",
". 	c #161E54",
"+ 	c #AE922C",
"@ 	c #4A5A94",
"# 	c #363E64",
"$ 	c #DECA34",
"% 	c #3E4E84",
"& 	c #D2AE1C",
"* 	c #222E64",
"= 	c #A6721C",
"- 	c #42425C",
"; 	c #3A3A54",
"> 	c #FEE61C",
", 	c #626EB4",
"' 	c #FEAE04",
") 	c #3A4674",
"! 	c #2E3664",
"~ 	c #CE9214",
"{ 	c #52669C",
"] 	c #4A4E84",
"^ 	c #E2DA4C",
"/ 	c #2E3E7C",
"( 	c #CABE5C",
"_ 	c #2A2E5C",
": 	c #CEA21C",
"< 	c #565E94",
"[ 	c #A68224",
"} 	c #FACA14",
"| 	c #3E427C",
"1 	c #CE8A14",
"2 	c #1A2664",
"3 	c #46568C",
"4 	c #D6AE24",
"5 	c #3E4E8C",
"6 	c #B28A24",
"7 	c #3E4A7C",
"8 	c #52629C",
"9 	c #FABE0C",
"0 	c #D29A14",
"a 	c #4A5A9C",
"b 	c #363E84",
"c 	c #22265C",
"d 	c #FEF62C",
"e 	c #4A5694",
"f 	c #2A3274",
"g 	c #D6B624",
"h 	c #464E8C",
"i 	c #3A3E6C",
"j 	c #222E74",
"k 	c #323A74",
"l 	c #2A367C",
"m 	c #FAD214",
"n 	c #DED23C",
"o 	c #364684",
"p 	c #2A3264",
"q 	c #3E4A8C",
"r 	c #D69E14",
"s 	c #BE9A2C",
"t 	c #323664",
"u 	c #5E66AC",
"v 	c #DEA614",
"w 	c #B28224",
"x 	c #525AA4",
"y 	c #6A76BC",
"z 	c #FAB60C",
"A 	c #565EA4",
"B 	c #B68A24",
"C 	c #FAC60C",
"D 	c #CE9E14",
"E 	c #36427C",
"F 	c #222A6C",
"G 	c #DEBA24",
"H 	c #323A64",
"I 	c #BA9224",
"J 	c #364274",
"K 	c #26326C",
"L 	c #FEEE24",
"M 	c #2E3A74",
"N 	c #4A528C",
"O 	c #FEDA14",
"P 	c #32427C",
"Q 	c #DABE2C",
"R 	c #D2AA1C",
"S 	c #FACE14",
"T 	c #3E467C",
"U 	c #1E2A6C",
"V 	c #42528C",
"W 	c #464A84",
"X 	c #FEFE34",
"Y 	c #4A569C",
"Z 	c #D6BA2C",
"` 	c #46528C",
" .	c #E2D644",
"..	c #3A4A84",
"+.	c #2A326C",
"@.	c #36428C",
"#.	c #162254",
"$.	c #525A8C",
"%.	c #323E74",
"&.	c #C6B654",
"*.	c #262E64",
"=.	c #464A64",
"-.	c #2A3674",
";.	c #D69614",
">.	c #5A66AC",
",.	c #CEA61C",
"'.	c #1E266C",
").	c #DEB21C",
"!.	c #424A7C",
"~.	c #FAC20C",
"{.	c #4E5E9C",
"].	c #222A5C",
"^.	c #3A426C",
"/.	c #263274",
"(.	c #2E3A7C",
"_.	c #FAD61C",
":.	c #BA8224",
"<.	c #FABA0C",
"[.	c #5662A4",
"}.	c #D29E14",
"|.	c #363A64",
"1.	c #FEE21C",
"2.	c #DAC634",
"3.	c #3E468C",
"4.	c #DECE3C",
"5.	c #464E74",
"6.	c #D2B224",
"7.	c #3E466C",
"8.	c #FEEA24",
"9.	c #AA7E24",
"0.	c #AE8624",
"a.	c #4E5274",
"b.	c #6672BC",
"c.	c #5A629C",
"d.	c #D6B224",
"e.	c #AE8E2C",
"f.	c #5E6AB4",
"g.	c #6E7ABC",
"h.	c #B6962C",
"i.	c #4E5E94",
"j.	c #D29614",
"k.	c #AA8624",
"l.	c #CE8E14",
"m.	c #B28624",
"n.	c #B68E24",
"o.	c #C69A24",
"p.	c #3A4A7C",
"q.	c #525E9C",
"r.	c #FEF22C",
"s.	c #FEDE14",
"t.	c #DAC234",
"u.	c #E6A614",
"v.	c #FEB204",
"w.	c #FEFA2C",
"x.	c #1A2264",
"y.	c #2A2E6C",
"z.	c #323A84",
"A.	c #4A529C",
"B.	c #FEFE44",
"C.	c #46529C",
"D.	c #464E84",
"E.	c #5666A4",
"F.	c #323E7C",
"G.	c #FECA0C",
"H.	c #1E265C",
"I.	c #DAAE1C",
"J.	c #424E8C",
"K.	c #4E5AA1",
"L.	c #4E5692",
"M.	c #DAB624",
"N.	c #E2D244",
"O.	c #3A4686",
"P.	c #2E3262",
"Q.	c #424A94",
"R.	c #FEB604",
"S.	c #3A427C",
"T.	c #FECE0F",
"U.	c #42467C",
"V.	c #1A225C",
"W.	c #262A64",
"X.	c #FED614",
"Y.	c #FEBA04",
"Z.	c #5A62AC",
"`.	c #B28E24",
" +	c #B2922C",
".+	c #666EB4",
"++	c #D29214",
"@+	c #D2A21C",
"#+	c #FEBE0C",
"$+	c #262E74",
"%+	c #2E367C",
"&+	c #FED214",
"*+	c #DA9E14",
"=+	c #FEC60C",
"-+	c #4E569C",
";+	c #DABA2C",
">+	c #2E326C",
",+	c #3A428C",
"'+	c #363E74",
")+	c #2E3674",
"!+	c #D2A61C",
"~+	c #FEC20C",
"{+	c #DEC634",
"]+	c #626AB4",
"^+	c #BA962C",
"/+	c #D28E14",
"(+	c #B68624",
"_+	c #BA8E24",
":+	c #363E6C",
"<+	c #DECA3C",
"[+	c #D2AE24",
"}+	c #222E6C",
"|+	c #FEE624",
"1+	c #3A467C",
"2+	c #2E366C",
"3+	c #5266A4",
"4+	c #2A2E64",
"5+	c #465694",
"6+	c #3E4A84",
"7+	c #D29A1C",
"8+	c #2A327C",
"9+	c #D6B62C",
"0+	c #464E94",
"a+	c #3A3E74",
"b+	c #DED244",
"c+	c #3E4A94",
"d+	c #32366C",
"e+	c #CE9E1C",
"f+	c #364284",
"g+	c #222A74",
"h+	c #323A6C",
"i+	c #4A5294",
"j+	c #324284",
"k+	c #3E4684",
"l+	c #425294",
"m+	c #FEFE3C",
"n+	c #465294",
"o+	c #E2D64C",
"p+	c #3A4A8C",
"q+	c #525A94",
"r+	c #262E6C",
"s+	c #424A84",
"t+	c #222A64",
"u+	c #3A4274",
"v+	c #26327C",
"w+	c #2E3A84",
"x+	c #5662AC",
"y+	c #D29E1C",
"z+	c #363A6C",
"A+	c #3E4674",
"B+	c #6E7AC4",
"C+	c #525EA4",
"D+	c #FEDE1C",
"E+	c #323E84",
"F+	c #1E2664",
"G+	c #424E94",
"                                                    /.f f 8+8+/.$+j g+F U F+                                                    ",
"                                            ].k f+f+z.w+(.l v+$+/.$+j j F j x.. . .                                             ",
"                                        d+s+q 3.,+f+E+w+%+%+l v+/.$+g+j U U U '.x.x.. .                                         ",
"                                  k K.-+Y G+c+3.@.b z.w+(.l v+$+j j j g+j j g+U U 2 x.. . . .                                   ",
"                                q+A C+Y A.0+c+O.@.j+z.%+l l l 8+/.$+j g+U U U U g+U U '.'.x.. .                                 ",
"                            L.]+>.x+x -+C.G+c+O.@.b E+w+%+8+/./.$+j }+j g+g+g+'.U U '.U '.U x.. . .                             ",
"                          , , f.Z.C+K.Y 0+Q.3.3.@.E+z.w+%+8+v+v+$+$+g+}+U U g+'.U U '.U '.U '.2 x.. .                           ",
"                      % y b.]+u x+A K.Y C.Q.c+@.b z./ (.l l f /./.j j g+j g+U g+'.'.U '.U '.'.'.'.x.. . .                       ",
"                    | y b.b.f.>.x+x -+C.G+c+3.o @.z.w+(.l v+v+$+j $+j g+}+g+U U U '.U '.'.2 '.'.2 '.x.. . .                     ",
"                  L.g.b.b.]+>.c.C+K.Y C.G+c+3.,+b E+%+l 8+8+$+v+$+j F g+U U U U U U '.U U U '.U U '.U x.. . .                   ",
"                | b.y .+, f.E.A x Y A.0+Q.O.@.f+E+E+w+%+-.8+$+$+j j }+g+j g+U U '.g+'.'.'.U 2 '.U 2 '.2 x.. . .                 ",
"              5.g.y b..+f.>.A C+K.Y n+G+c+3.,+E+E+(.%+l 8+/././.$+j U g+U U '.'.U '.U U '.'.'.2 '.'.U '.'.x.. . .               ",
"              .+b..+, u u Z.C+K.Y C.G+c+p+o @.E+z.(.(.l l v+j j j j j U U U g+U U '.'.U U U U '.U '.2 '.2 2 x.. .               ",
"            b.b.b., f.>.x+C+K.Y A.0+G+c+,+,+b z.w+w+l l /.$+$+$+g+g+U g+g+g+U g+U U U U U U U U U U U U '.'.U x.. .             ",
"          W .+]+]+u >.A C+x -+A.G+Q.3.3.,+@.b z.%+l /.y.K r+j $+r+j j j j j U j j j j U g+g+j g+j j g+j U U U U 2 x..           ",
"          f.f.u >.x+A C+K.Y A.C.G+c+c+O.@.b E+(.(.l ! h.&  +_ }+j g+g+U }+g+j j j j j j j j j }+F F }+F j F g+F U . .           ",
"        L.>.>.A c.[.< < q+e N ] D.U.T S.u+'+'+k d+P.s _.O m I *.r+j /.j /.$+j j j $+/././.r+/././.j /.}+j }+}+g+}+U 2 .         ",
"      b Z.[.A @ ( o+o+o+N.N.4.n <+<+{+{+Q Q Z 9+g G _.D+O X.S 6 K /.$+$+j /././././.$+/././././.$+/.$+/.K $+j r+j F F V..       ",
"      h x K.x L.^ B.m+m+m+m+X X w.d r.L 8.|+> 1.1.D+O O O X.X.!+p /./.f /.f /.f /.-././.l /./.-./.-./././.K /.r+/.K }+F 2       ",
"      K.-+-+Y N &. .b+b+n 4.<+$ 2.t.Q Q Q ;+Z 9+4 M._.X.X.X.} 6 +.v+v+/./.v+-.-.l v+l -.f l -./.-./.f f -.f /./.$+$+}+K V.      ",
"    ! Y 5+C.0+0+h ] D.W W !.| | | E '+k h+d+d+2+>+P.^+m X.X.I.; /.-.l l -.l l -.(.)+l (.-.l (.l M l l -.l -.-.-./.f r++.}+H.    ",
"    0+G+0+Q.G+c+c+c+3.O.o @.@.E+E+k w+w+l l v+f /.f P.n.I.G.G._+P.-.-.%+%+%+l %+l (.(.l (.(.l (.l M (.-.-.-.-.-.-.-.-./.* .     ",
"  H.Q.c+Q.c+q 3.O.3.3.@.b b b z.w+w+l %+l f l l v+f v+>+P.I C } B ! M (.(.(.(.(.(.(./ (.(.F.(./ (.(.(.(.(.%+l -.-.-.-.f -.K H.  ",
"  k O.3.3.,+,+O.@.@.b b E+E+/ w+(.%+%+l f v+/./.f l -.l l P.n.C C B ! l (.(.(.(.(.(.k / / (./ k / (./ (.(.(.M (.l l -.-.f * .   ",
"  F.@.o ,+,+@.@.E+j+E+E+w+z.(.%+l l 8+8+f 8+8+l v+l l -.l l ! _+C ~.B ! / / / E+E+/ E+E+P E+E+E+F.F.F.F./ F.(.k M )+-.-.)+f K   ",
"  @.b b j+j+b b E+z.z.z.w+%+l l l l /./.v+/.f f l f l l (.(.%+t o.C ~.B d+k E+F.E+f+b b E+b j+F.j+F.E+F.F./ F./ (./ (.M -.-.f   ",
"$+E+E+z.z.w+w+z.w+w+(.%+l %+l 8+/.8+v+f v+l l -.l l l l (.(.(.(.=.o.#+~.B |.E+f+F.j+j+E f+E f+f+f+E j+f+b F.E+F.(.F.(.M M M M -.",
"f w+w+w+w+w+w+(.(.%+l l l l 8+f 8+/././.-././.8+-.l (.(.(.(.(./ z.H B 9 9 B # '+f+f+o o o f+o f+f+f+f+E j+E E f+P / F.F.(.M l -.",
"8+%+%+%+%+%+l l l l l l v+f v+$+/.$+v+v+v+l l l l -.(.(.w+/ z.F.E+F.|.B <.9 r m.i S.,+o O.O.O.O.o O.o O.f+f+P b b F.F./ (.k M )+",
"-.l l l l l 8+8+>+>+>++.>++.p p y.+.p p 2+P.2+2+d+k 2+%+F.E+/ j+f+j+F.- v #+~+z (+i ) | u+u+u+J a.5.| u+J J a+J J :+k F.F./ (.M ",
"8+8+8+v+/.l /.K + g d.6.6.6.[+& & & R !+R !+!+!+!+!+k.M (.E+F.E+E f+'+w 9 #+~+#+<.0 0 0 j.j.j.j.v u.++++/+~ l.1 l.l.= %.F./ (.(.",
"$+/./.f 8+$+v+y.g 1.1.s.s.O O O X.X.X.X.&+&+&+&+T.G.@+z+E+P E+j+f+f+u+}.#+~+#+#+Y.#+Y.R.Y.R.R.R.R.R.R.v.v.' ' ' ' ' l.i P F.F.M ",
"$+$+j j /.$+/.r+e.6.d.[+[+[+R R R !+!+R !+@+@+@+!+@+[ '+E+j+f+j+o o J m.<.#+#+#+z 0 0 j.j.j.++++~ /+~ ~ l.l.l.1 1 /+w i f+P P F.",
"j v+/.$+j j $+}+*.4+*.4+4+*.4+y.4++.>+p >+! M d+d+h+'+(.F.f+f+f+@.O.O.^.(+<.#+R.(+7.k+7 6+7 % !.!.7 !.A+!.A+A+A+7.^.!.f+E b b (.",
"F g+j j $+g+j j j j }+j g+U j j $+/./.-.-.-.(.(./ (.E+E+E+P f+o o O.O.6+^.w 0 w 7.5 G+V G+J.V J.V J.V 5 J.5 6+p+q 6+..O.o E E F.",
"U j j g+g+}+g+}+U g+U U }+g+U j K j v+/.l l l (.(.E+F.E f+f+O.O.O.p+p+..6+7 7 !.J.V V V ` n+l+l+l+V J.J.5 J.5 6+....O.o O.E E F.",
"U F j }+U j g+g+F g+g+U U g+F g+$+$+/./.-.(.(.(.(.E+E+E+f+f+@.O.O.q q 5 q 5 5 l+l+l+n+5+5+V 5+` l+5+l+` V V V J.6+6+6+O.O.o o E ",
"'.U g+U g+F U F U U U U F U j }+/./.f l l l l (./ F.F.f+f+o O.O.p+p+p+q J.J.l+G+` n+l+l+n+5+5+5+5+n+3 5+l+G+J.5 J.5 p+....1+S.F.",
"  U g+U U g+U U g+U '.U U U j F $+/./.f -.(.(.k / E+j+f+f+o o O.p+q 5 5 G+J.V l+5+3 5+5+e e 5+e @ 5+5+` 3 l+n+J.J.J.6+..O.o O.  ",
"  U U g+U U U g+U g+g+U F g+U j j $+f -.l l w+w+z.F.E+j+@.o O.q q 5 5 l+V l+n+n+n+5+e @ a @ a @ 5+5+5+5+5+3 V V J.5 5 q 6+O.o   ",
"  . 2 g+'.g+U U U U U '.'.F j }+/./.v+-.(.l (./ E+b E o S.O.O.O.q q 5 5 V l+5+5+e @ 5+5+a @ a K.@ @ a 5+5+5+5+V V J.% 5 6+O.%.  ",
"  V.U '.U U '.'.'.'.'.U U U U $+j /./.8+-.(.(.k / P f+@.o o p+q q 5 J.l+n+3 5+5+5+5+a {.@ a @ i.{.K.@ @ e 5+` 5+V V J.6+6+) *.  ",
"    2 U '.U U 2 t+t+c t+W.*.*.4+*.p ! 2+2+M h+'+z+%.'+f+O.o p+p+q 5 J.l+l+l+5+5+a @ @ K.i.{.{.{.i.{.K.@ e @ 5+n+V J.J.5 ..O.    ",
"    x.'.U '.'.t+[ @+,.: : D : D @+: e+D D }.e+7+D 7+9.E o O...q 5 5 G+J.` 5+5+a @ {.a {.{.q.{.{.{.{.i.{.a 5+e 3 ` l+V % % p     ",
"      x.U U '.].,.T.T.T.T.G.T.G.=+=+=+=+~+=+=+~+~+~+0 u+O.O.p+q q 5 l+l+n+5+5+e @ i.{.{.{.{.8 8 8 8 {.i.K.@ e 5+3 V J.J.%       ",
"      2 '.'.U H.[ @+@+D D : y+D @+D y+}.e+0 0 }.0 0 9.a+o O...q J.J.J.V 5+n+5+a a a {.{.8 8 8 8 8 {.i.{.i.@ @ 5+l+l+V 5 J       ",
"      . 2 '.'.'.H.].].].c ].*.*.p p +.! 2+M M h+%.%.J f+O.O.p+p+5 V G+V 5+5+5+e @ @ {.{.8 8 3+8 3+8 8 {.a @ @ e ` ` J.J.1+      ",
"        2 2 2 2 '.2 '.'.U F F }+$+/.-.f -.%+k / F.E j+o o O...5 5 5 V l+` 5+5+@ K.{.{.{.8 3+8 3+8 8 {.i.i.@ e 3 5+V V p.        ",
"          x.'.U '.'.'.'.U F g+}+}+$+-.-.M (.(.z.E+b f+f+O.O.O.q q J.J.l+` 5+5+@ @ {.{.{.{.8 [.E.8 8 {.{.a @ @ 3 n+` %           ",
"          x.U '.'.U U '.'.U }+j j /./.-.l -.(./ / P f+f+o O.q p+5 5 V V l+5+5+5+@ @ {.{.8 8 8 8 8 {.{.@ @ @ 5+n+3 V !           ",
"            . U 2 2 U 2 U '.F }+j /././.l M M k E+F.f+f+o o O.q q q J.V ` 5+e 5+a @ {.{.{.8 {.8 8 8 {.{.@ e 5+` V J.            ",
"              2 '.'.2 U F+U F }+K j /.-.-.l %+(.(.E+P f+o O.O.O.5 5 5 l+l+V 5+e 5+@ @ a {.{.{.{.{.a i.@ @ @ 5+3 V               ",
"              . V.'.F+2 '.U F F r+$+/.-.-.(.(./ F.F.P f+f+O...O.q q q J.l+V l+5+5+5+@ @ @ {.@ @ i.@ @ e 5+3 l+J.1+              ",
"                . 2 2 F+U '.U }+j /././.-.-.M (./ F.E+F.E o o ....% J.5 J.l+5+` 5+5+5+5+@ @ a @ a @ e @ 3 5+` !                 ",
"                  . . 2 2 '.'.F F r+/././.l )+M (.F.j+j+E S.O.O.O...5 5 J.J.V V 5+5+e 5+5+@ @ 5+e @ 5+e ` V )                   ",
"                    V.x.'.'.U }+}+j $+/.-.f l %+(.k F.b j+f+f+O.O.p+6+% 5 J.V n+` ` 5+5+3 5+5+e 5+n+` V V !                     ",
"                      . #.'.'.U F }+r+/.-.-.-.(.(.k / F.P f+f+O.O.O.3.6+% Q.% J.V V ` n+` ` 3 3 3 5+` V 1+                      ",
"                          2 U F }+}+j $+/.-.-.-.M (.F.F.E+P E o O.......p+% Q.5 5 J.J.V V V l+V V V V                           ",
"                            . F+F }+}+r+$+-.-.l M (.(.F.F.P b E f+O.O.......% 5 5 5 J.J.V J.J.J.% 1+                            ",
"                                U F }+j K /.f -.-.-.(.k F.F.P F.E E o O.O.6+q 6+% 5 5 5 5 J.5 %                                 ",
"                                  H.}+}+r+/./.f )+M (.(./ F.P j+f+E f+o o O...k+6+6+6+6+% 6+O.                                  ",
"                                        U }+K -.-.-.M M k (.F.F.P E E S.O.o O...O.....E                                         ",
"                                            t+* /.f -.l M (.F.k E+E j+E E E f+O.%.P                                             ",
"                                                    -.-.M )+(./ k F.F.F.E E                                                     "};
