/* XPM */
static char *noname[] = {
/* width height ncolors chars_per_pixel */
"64 64 234 2",
/* colors */
"   c #394684",
" . c #3AA021",
" X c #33407E",
" o c #313E7C",
" O c #43B123",
" + c #505AA1",
" @ c #1D2865",
" # c #2C3877",
" $ c #283473",
" % c #273272",
" & c #38912C",
" * c #253070",
" = c #37457B",
" - c #232E6E",
" ; c #263F53",
" : c #314175",
" > c #2D3A7B",
" , c #2C387A",
" < c #3E4D85",
" 1 c #3C468D",
" 2 c #283276",
" 3 c #374288",
" 4 c #49BC25",
" 5 c #232E71",
" 6 c #343E85",
" 7 c #465590",
" 8 c #757CA7",
" 9 c #202A6E",
" 0 c #2F3A80",
" q c #1E286C",
" w c #1D286B",
" e c #50619D",
" r c #2D387E",
" t c #3F4D89",
" y c #3A4784",
" u c #253076",
" i c #384582",
" p c #5661A6",
" a c #323F7C",
" s c #303D7A",
" d c #4E599E",
" f c #3A4787",
" g c #293573",
" h c #242F6E",
" j c #285640",
" k c #323F7F",
" l c #44508A",
" z c #2F3B7C",
" x c #2E3B7B",
" c c #2C3979",
" v c #1B2565",
" b c #293576",
" n c #394589",
" m c #263173",
" M c #252F72",
" N c #242F71",
" B c #5864A4",
" V c #34427A",
" C c #212B6E",
" Z c #2F3B7F",
" A c #1E296B",
" S c #344C66",
" D c #43963C",
" F c #1D276A",
" G c #1C2769",
" H c #2C377C",
" J c #2B357B",
" K c #4C5C98",
" L c #4A5A96",
" P c #242F74",
" I c #475693",
" U c #222D72",
" Y c #202B70",
" T c #43528F",
" R c #33407C",
" E c #323E7B",
" W c #41508D",
" Q c #364482",
" ! c #354281",
" ~ c #2E3A7A",
" ^ c #7F88AF",
" / c #2C3B6E",
" ( c #7B84AB",
" ) c #263272",
" _ c #364285",
" ` c #475299",
" ' c #28356A",
" ] c #294357",
" [ c #242E70",
" { c #212C6D",
" } c #1F2A6B",
" | c #1D2869",
".  c #1C2668",
".. c #495994",
".X c #354087",
".o c #242E73",
".O c #232E72",
".+ c #465591",
".@ c #222C71",
".# c #212C70",
".$ c #202A6F",
".% c #1F2A6E",
".& c #42518D",
".* c #1E286D",
".= c #3D4B88",
".- c #3B4986",
".; c #294F49",
".: c #33417E",
".> c #626DB6",
"., c #3FB01F",
".< c #2D3978",
".1 c #2C3777",
".2 c #3D4C81",
".3 c #2A3575",
".4 c #1A2362",
".5 c #283373",
".6 c None",
".7 c #263171",
".8 c #222D6D",
".9 c #365466",
".0 c #323D80",
".q c #202B6B",
".w c #70799F",
".e c #313E75",
".r c #2D397B",
".t c #1D2768",
".y c #2B3779",
".u c #3DAA20",
".i c #293377",
".p c #495893",
".a c #182059",
".s c #222D70",
".d c #333D84",
".f c #45548F",
".g c #35427C",
".h c #313B82",
".j c #42508C",
".k c #347B35",
".l c #2E397F",
".z c #1D276B",
".x c #404E8A",
".c c #4E5E9B",
".v c #4C5C99",
".b c #3C4A86",
".n c #2C3873",
".m c #4A5A97",
".M c #7986A4",
".N c #399729",
".B c #3B7F3F",
".V c #455492",
".C c #6772BA",
".Z c #313E7B",
".A c #303C7A",
".S c #202A67",
".D c #21315E",
".F c #2E3A78",
".G c #41A42A",
".H c #1F2D5C",
".J c #1C2663",
".K c #5D68B0",
".L c #2B3675",
".P c #334080",
".I c #33486C",
".U c #327C2F",
".Y c #1E2B5E",
".T c #2B396E",
".R c #384488",
".E c #253072",
".W c #242E71",
".Q c #212C6E",
".! c #303C80",
".~ c #202A6D",
".^ c #42BA1D",
"./ c #24365D",
".( c #1E286B",
".) c #414F8A",
"._ c #1C2669",
".` c #2B367B",
".' c #4D5D99",
".] c #1F354E",
".[ c #293479",
".{ c #4B5B97",
".} c #273277",
".| c #657096",
"X  c #2C5C40",
"X. c #485794",
"XX c #27336D",
"Xo c #647C81",
"XO c #242F6A",
"X+ c #335B54",
"X@ c #3F4D8B",
"X# c #2F3B78",
"X$ c #307433",
"X% c #48C31F",
"X& c #344180",
"X* c #303D7C",
"X= c #525DA4",
"X- c #303B7C",
"X; c #2B3777",
"X: c #4A559C",
"X> c #48CC18",
"X, c #343F83",
"X< c #222D6E",
"X1 c #313D80",
"X2 c #424D94",
"X3 c #303D7F",
"X4 c #404B92",
"X5 c #1E296A",
"X6 c #2D397C",
"X7 c #3E4990",
"X8 c #1D2769",
"X9 c #327931",
"X0 c #2A3579",
"Xq c #283377",
"Xw c #273376",
"Xe c #263175",
"Xr c #4DAE34",
"Xt c #2B6634",
"Xy c #475692",
"Xu c #294950",
"Xi c #378A2F",
"Xp c #212B70",
"Xa c #44528F",
"Xs c #43528E",
"Xd c #346B4A",
"Xf c #1F296E",
"Xg c #1E296D",
"Xh c #2E3980",
"Xj c #233A54",
"Xk c #1D276C",
"Xl c #2C377E",
"Xz c #3E4C89",
"Xx c #7E8CAA",
"Xc c #495897",
/* pixels */
".6.6.6.6.6.6.6.6.6.6.6.6.6.6.6.6.6.6.6.6.6.6.6.6.6.6.E 2.i.[Xq u P.o.@ 9 A.t.6.6.6.6.6.6.6.6.6.6.6.6.6.6.6.6.6.6.6.6.6.6.6.6.6.6",
".6.6.6.6.6.6.6.6.6.6.6.6.6.6.6.6.6.6.6.6.6.6.n E 3.X.d 0 r J.[.} u P.o U.@ Y.$Xf.4.4.6.6.6.6.6.6.6.6.6.6.6.6.6.6.6.6.6.6.6.6.6.6",
".6.6.6.6.6.6.6.6.6.6.6.6.6.6.6.6.6.6.6.6 fX2X4 1.R.X.d 0 r.W.[ 8 8 P.o U.@ Y.$.$XfXf.(.4.6.6.6.6.6.6.6.6.6.6.6.6.6.6.6.6.6.6.6.6",
".6.6.6.6.6.6.6.6.6.6.6.6.6.6.6.6.6 ! + d `X2X4 1.R.X.h 0 r.W.[ 8 8.o.o U.@ Y.$.$XfXg.*.* q._.4.6.6.6.6.6.6.6.6.6.6.6.6.6.6.6.6.6",
".6.6.6.6.6.6.6.6.6.6.6.6.6.6.6.6 p pX= d `X2X7 1 3 6.h 0Xl.W.[ 8 8.o.o UXp Y.$.%XfXg.* q q q.z. .6.6.6.6.6.6.6.6.6.6.6.6.6.6.6.6",
".6.6.6.6.6.6.6.6.6.6.6.6.6.6 K.K.K p +X: `X2X7 1 3 6.hXh H.W.[ 8 8.o.o UXp Y.$XfXfXg.* q q w.z.z._.4.6.6.6.6.6.6.6.6.6.6.6.6.6.6",
".6.6.6.6.6.6.6.6.6.6.6.6.6.C.>.K.K p +X: `X2X7 1 3 6.h.l H JXq.} P.o.o.@Xp.$.$XfXfXg.* q q.z.z.z F F. .6.6.6.6.6.6.6.6.6.6.6.6.6",
".6.6.6.6.6.6.6.6.6.6.6 l.C.C.>.K pX= dX: `X4X7 n 3.d.h.l.`.[Xq u P.o U.@Xp.$.$XfXf.* q q q.z.z F F F F. .a.6.6.6.6.6.6.6.6.6.6.6",
".6.6.6.6.6.6.6.6.6.6.p.C.C.>.K.K p + d `X2X7 1.R.X.d 0 r J.s.} 8 8.o U.@Xp.$.%XfXg.* q q w.z.z F F FX8._. .a.6.6.6.6.6.6.6.6.6.6",
".6.6.6.6.6.6.6.6.6 K.C.C.C.>.K pX= +X: `X2X7 1 3 6.h 0 H J.s u 8.w.sXp.$.$.$.%XfXg.* q q w.z.z F F FX8._._. .a.6.6.6.6.6.6.6.6.6",
".6.6.6.6.6.6.6.6.p.C.C.C.>.K.K p + d `X2X4 1 n.X.d.h.l HX0 C u.w.w.8 C 9.%XfXfXfXg q q w.z.z F F FX8 G._._.  v.a.6.6.6.6.6.6.6.6",
".6.6.6.6.6.6.6 l.C.C.C.>.K.K pX= dX: `X2X7 1 3.X.d 0 r.`.[.q [.|Xo.Y @X5XfXgXfXf.* q q q.(.z.z F F FX8X8._. .  v.a.6.6.6.6.6.6.6",
".6.6.6.6.6.6.6.C.C.C.>.K.K pX= +X: `X2X4 1 n 3 6.h.l H.[.} *XOXj.;.].H @ qXgXfXfXgXg q q q q.(.(.(.(.( FX8X8. .  v.6.6.6.6.6.6.6",
".6.6.6.6.6.6.C.C.>.>.K.K pX= + d ` `X4X7 1 3.X.d 0 r J 2.7.DXj.;XtXu.H @ qXf 9 9 9 9 9 9 9.~.~.~.~ } q A.(.(.(X8.t v.6.6.6.6.6.6",
".6.6.6.6.6 K.>.>.K.K.K pX= + dX: `X2X7 1 n.X.d.h.l.`.[ %XO.] j DXr j.].Y.~ 9.#.#.#.#.Q.Q.s.s.Q.Q.Q.Q {.~.~.~ AX5X5 |.4.6.6.6.6.6",
".6.6.6.6.6.K.K.K.K p pX= + dX: `X2X7 1 n 3 6.h 0 H.[ %.DXj j.UXr OX .].Y {.s 5 5 5 5 5 5 5 5 5 5.s.s.sX<.Q { {.q.q } |.6.6.6.6.6",
".6.6.6.6 p.K.K p pX= + dX: ` `X2X4 1 n 3.X.d.h r J.5XXXj j.U., 4 4Xt.].D - 5.o.o M M.E.E.E.E.E M N N N [ 5 - -X< {.q.q |.6.6.6.6",
".6.6.6 ! p p pX= + + dX: ` `X2X7 1 1 3.X.d.h rX0.5 'Xj j.U .X%X%X%XtXj.D [.E m m m m m m m m m m m m m.E * M [ [ -X<.8 {.J.6.6.6",
".6.6.6 +X= + + d dX: ` `X2X4X7 1 n 3.X.d.h.l H $XXXjX .U OX%X>X>.^XtXj.D m mXwXqXqXqXqXqXqXqXwXwXw.5 m m % m m * * h -.8.q.6.6.6",
".6.6.6 d dX:X:X: ` `X2X2X4X7 1 n 3.X.d.h.l.`.3 'Xj j.U.N.^X>X>X>.^XtXj.D.5Xw.i bX0X0X0X0X0 b b bXw $.5.5 % % ) % m.7 * h -.6.6.6",
".6.6 f ` ` ` ` `X2X2X4X7 1 1 n 3.X.d.h.l H.3XX ;X .k O.^X%X>X>X>X%XtXj ' $ bX0.y.y.y.y.y.y.y.yX;X; g $ $ $ $.5.5.5 %.7.7 *.Y.6.6",
".6.6X2X2X2X2X2X4X7X7 1 1 n 3.X 6.d.h.l ,.3 ' ]X .k.N O.NXi ..^ 4 4XtXj ' b.y , , ,.r.r.r.r.r ,X; g '././ 'XX.3 b b $.5 %.7 h.6.6",
".6.nX4X4X7X7X7X7 1 1 n 3 3.X.d.h.h r H.3XX ]XdXi O O O.UX X9.N O 4XtXj 'X; ,X6 > > > z z z > >.n.T ].; ]./ ' g.L.L.L g $.5 %.S.6",
".6 E 1 1 1 1 1 n.R 3.X.X 6.d.h 0 r.y g ' ]Xd &.G O &X9 j ;X XiXr 4Xt ; ' , > z ZX3X3X3X3 z x.n / ]X X$.;./ '.n # #.1.L.3 $.5.S.6",
".6 3.R.R 3 3 3 3.X 6.d.d.h 0.l H J $XX ].B DX% 4 OX9.; ;./.;.U.N.,Xt ] ' > zX3X1X1X1.0X1X1X# / ]XdXi.NX  ] '.<.F.F.< #X;.L.3 %.6",
".6.X.X.X 6 6 6.d.d.h.h 0.l r.`.[.5 ' ]Xd D.G 4.NX9.;Xj./ 'Xu.U.N.^X$ ] /.AX3.0 k.P.P k o s / ]X  &.N .X  ].TX#.A z x.F.< #.L.3.6",
".E.d.d.h.h.h.h.h 0 0.l r H J.[ %XX ;Xd &X% 4 OX9.;Xj 'XXXX ;X9XrX%.BX+.I o kX,X, !X,X& E.e ]XdXi.,.u .X  ] / s.Z o.A.A.F.< #.L $",
" 2 0 0 0 0Xh.l.l r H H.`.[ 2 %.DXjX Xi.G 4.NX9 jXj ' g g g ;.UXrX%.BX+.I k.P ! _ !X& a / ]X Xi.N., &X$Xu /.e a a k o.Z.AX#.F # g",
".i r r rXl H H.` J JX0.[.}.7XOXj j.U O O.^.k.;Xj ' g ,X;.n ;X9XrX% DX+.IX& ! _ _ Q.: : ]X .U.u.u.,.k.; ].e E X XX& X a o.AX#.F.L",
".[ J.W.W.W.W J.[.s.s C.q *.D.] j.U.N 4.G &X Xj.D $X; * hXOXu.UXrX% DX+.I ! Q _ !.: : ]X X9.N.,.G DXd S.I V.g ! ! !X& X a.Z.AX# #",
"Xq.[.[.[.[.[XqXq.} u u [XOXj j.U.,.^X% DXdXu ' g.y , z.<.nXu.U.N.^ DX+.I Q Q   ! V ]X X9.u.,.^ D.B.9 = = i i   i Q !X& X a o.A.F",
" u.} 8 8 8 8.} u 8.w.w.|Xj j DXr 4Xr.G.BXoXo.w 8 HX6 ( 8.wXoXi ..^.BXo.w ( ( Q.IXo.B D.G.u.GXrXoXo.w i i ^ ^ ^ ^ i Q ^ ^ ( (.ZX#",
" P u 8 8 8 8 P.o 8.w.|Xo j.U 4 4 4Xr.BX+.w.w 8 8 H z ( 8.wXoXi ..^.kXo.w ( 8 V S.B D O O., DXoXo.MXx.=.= ^ ^ ^ ^   i ^ ^ ^ ( a.A",
".o P P.o.o.o.o U.s.Y.] j.U &.u.N.UXdX+ ] g gX0.` z ZX3.A.eX+ &.G.^X$ S.I =.I SX .k &.u &.kXd.9.9 < <XzXzXz.=.=.- f   i Q !X& X.Z",
".@.o.o.o.o.o.o C.q.] jX$.u.u.uX9 jXu 'XXXqX0 ,X6 z.!X1 s.eX+ &Xr 4Xt ;./ ' ;X .k . . .X9X+.9.I : E a WX@.Z.Z s.A.b.-.F #.n.n.: a",
" 9 U U U U U.@.~.S.]Xt.U.uXiX$ jXj./XX %.iX0 ,X6 ZX3.0 o :X+ &Xr 4X$ ; ] SX .k &.u &.kX+ S.2 <.).&.& T W WX@X@Xz.=.b y   i QX& a",
" A.@.@.@XpXpXp A @.]X$Xi .X$.;.].SXO mXwX0.y.r z ZX1.P o :X+ &Xr 4.k.;X X .k.u.u.u.kX+ S.2 tXaXa.V.VXa T.& W WX@Xz.=.- y   i ! R",
".t Y Y Y Y Y.$.( @.]XtXtXt.;.].H.q hXeXqX0 ,X6 zX3X1.P a :X+XiXrX% &Xt.kXi.N.u &.kX+ S =.)Xs.V.V I.+.V.V T T.& WX@Xz.=.- y i Q.:",
".6.$.$.$.$.$.$X5 @.] j j.;.].Y.q 5.EXw.iX0 ,X6 zX3.0X, X VX+Xi .X%.u.N ..,.u.u.kX+ S.2.j.V IX.X.X. I I.+.VXaXs.&.xX@Xz.b.-   i.6",
".6Xf.$.$.%XfXf.( |.H.].].].Y.S {.O.EXq b.y , > ZX1 kX, X VXu.U .X>.^.,.,.u &.kX+ S.2 l.fX.XcXc LXc..X. I.+.VXaXs.j.xXz.=.b y i.6",
".6.4XfXfXfXfXf.( F.J.Y.Y.J.t 9.s M mXqX0.y , >X3X1.P !.: VXu.U.GX>X>X>.^.u.kX+ S.2.j I...m.m.m.m.m.m LX. I.+.VXa.& WX@Xz.b.-.e.6",
".6.4XfXgXgXgXgXk.z v.J.J @.(.$.s M mXqX0.y.r >X3X1.P !.: VXuX9.GX>.^.^.N.kX+ S.2.j.+...m.v.v.v.v.v K.m LX. I.+.fXs.j.xXz.b.- V.6",
".6.6.(.*.*.*.*.z.z FX8X8 FXf.Q 5.E mXqX0.y.r zX3.0.P !.: VXuX9.GX>.^.u.kX+ S.2 l I...v.v.'.c.c.c.c.'.v.m LX.Xy.VXa.&.) t.= y.6.6",
".6.6.4.* q q q q.z.z G.z wXf.Q 5.E mXqX0.y.r zX3.0.P !.: VXuX9.G.^.NX$X+ S =.j.f...m.v.c.c.c.c.c.c.c.' K.m..X..+XaXs.) tXz V.6.6",
".6.6.6 q q q q q w w.z.( q 9.s 5.E mXqX0.y.r zX3 k.P !.: VXuX9 & ..kX+ S.2.).VX..m.v.'.c.c e e e e e.c.'.{ LX.Xy.fXs.j.xXz.6.6.6",
".6.6.6._ q w.z.z.z.z.z.z q.~.s 5.E mXq b.y.r zX3 kX& !.: V ]XtX$X$X+ S = tXs IXc.m.v.c.c e e e e e e.c.c K L.pXy.fXs.j.x.b.6.6.6",
".6.6.6.4.z.z.z.z.z.z F.z.(.~.Q 5.E mXw b.y.r zX- k.P !.g V ]X .BXo S / < T.VX.Xc.m.v.c.c e e e e e e e.c K L.pXy.fXa.j.x =.6.6.6",
".6.6.6.6. .z.z F F F F F.(.~.Q 5 M mXw b.y.r zX- k.P !X&.g.IXuXoXo =.e.xXa.VX. L.m.v.c.c e e e B e e e.c K L.pXy.fXs.j <.6.6.6.6",
".6.6.6.6.6._ F F F F F F.(.~.Q.s N mXw b.y.r xX- k.P ! ! ! : :.w.M.b E.&.V IX.Xc.m.v.c.c e e e e e e.c.' K L.pXy.fXs.x.6.6.6.6.6",
".6.6.6.6.6.4 F F F FX8 F.( }.Q.s N m.5 b.y c >X- k.P ! ! Q.g V.M (.= a.&.V.+ I...m K.'.c e e e e e e.c.'.{ LX..+.fXs.2.6.6.6.6.6",
".6.6.6.6.6.6.  FX8X8 GX8.( q {.s N m m bX; , ~ z k kX& ! Q i i f.bXz W TXa.V IX. L.m.v.'.c.c e e.c.c.' K L.pXy 7Xa.).6.6.6.6.6.6",
".6.6.6.6.6.6.6. ._._._X8 F A.~X< [.E m bX; #.r z o kX& ! Q i   f.=XzX@ W T.V.+ IX. L.m K.'.c.c.c.'.' K L..Xy.+.f.j.6.6.6.6.6.6.6",
".6.6.6.6.6.6.6.a. ._._._X8.(.~.Q 5 * % $ b.y.< zX* k.P ! Q   f ^ ^Xz.Z W.& T.V.+ IX. L.m.{ K K K K.{ L..X.Xy.f.& =.6.6.6.6.6.6.6",
".6.6.6.6.6.6.6.6.a. . . X8.(.~ { - M m.5 bX; , ~X- o kX& Q i   ^ ^.=.ZX@ W TXa.V.+ IX... L L L L L L.pXyXy 7.& =.6.6.6.6.6.6.6.6",
".6.6.6.6.6.6.6.6.6.a v. . .( A { - [ m.5 bX; #.F z o kX& ! Q   ^ ^.= sX@ W.&XsXa.V.+XyX.X..p.p.p.pX.Xy.+.f.& =.6.6.6.6.6.6.6.6.6",
".6.6.6.6.6.6.6.6.6.6.a v. X8X5.qX< [ * % $ b.1.<.AX- a XX& Q i ^ ^.-.AXzX@ W.&XsXa.f.V.+XyXyXyXyXy.+ 7.f.& =.6.6.6.6.6.6.6.6.6.6",
".6.6.6.6.6.6.6.6.6.6.6.a v.tX5.q { - * m.5 b.L #.F z o kX& ! Q i   f.b.=XzX@.x.j.&XsXaXa.f.f.f.f.f.fXa.j =.6.6.6.6.6.6.6.6.6.6.6",
".6.6.6.6.6.6.6.6.6.6.6.6.6 v | }.qX< h.7 % $.L.1.< x.A o XX& ! Q i  .-.b.=XzX@.x W.j.&XsXsXsXaXsXsXs.).6.6.6.6.6.6.6.6.6.6.6.6.6",
".6.6.6.6.6.6.6.6.6.6.6.6.6.6.4 |.q.8 - *.7.5 g.L #.F.A.Z a XX& ^ ^ i.F y.-.=XzXzX@.x.).).j.j.j.j.x.2.6.6.6.6.6.6.6.6.6.6.6.6.6.6",
".6.6.6.6.6.6.6.6.6.6.6.6.6.6.6.6 | {.8 h.7 % $.3X;.<.F.A o a X ^ ^ Q #   y.-.b.=XzXz t t.x.x.x <.6.6.6.6.6.6.6.6.6.6.6.6.6.6.6.6",
".6.6.6.6.6.6.6.6.6.6.6.6.6.6.6.6.6.J.q - *.7.5 $.L #.<X#.A.Z a ( ^ !.n i   y.-.b.b.b.=XzXz.b =.6.6.6.6.6.6.6.6.6.6.6.6.6.6.6.6.6",
".6.6.6.6.6.6.6.6.6.6.6.6.6.6.6.6.6.6.6.6.Y h %.5.3.L #.FX#.A o ( (X&.n Q i i   y.-.- y V.6.6.6.6.6.6.6.6.6.6.6.6.6.6.6.6.6.6.6.6",
".6.6.6.6.6.6.6.6.6.6.6.6.6.6.6.6.6.6.6.6.6.6.S.S %.3.L #.FX#.A.Z a X.:X& ! Q i i.e V.6.6.6.6.6.6.6.6.6.6.6.6.6.6.6.6.6.6.6.6.6.6",
".6.6.6.6.6.6.6.6.6.6.6.6.6.6.6.6.6.6.6.6.6.6.6.6.6.6 $ g.L #.FX#.A.Z a a R.:.6.6.6.6.6.6.6.6.6.6.6.6.6.6.6.6.6.6.6.6.6.6.6.6.6.6"
};
