/* XPM */
static char *artscontrol[] = {
/* columns rows colors chars-per-pixel */
"16 16 161 2",
"   c black",
".  c gray2",
"X  c #070707",
"o  c #090909",
"O  c gray5",
"+  c gray6",
"@  c #1A0B03",
"#  c #1A0F00",
"$  c #1D1207",
"%  c #121217",
"&  c #191919",
"*  c gray12",
"=  c #211607",
"-  c gray17",
";  c #2F2F3A",
":  c gray20",
">  c #343442",
",  c #4A2F0D",
"<  c #573605",
"1  c #52310C",
"2  c #74450E",
"3  c #494946",
"4  c gray30",
"5  c gray31",
"6  c #4B4B56",
"7  c #565656",
"8  c gray34",
"9  c gray35",
"0  c #5B5B5B",
"q  c gray38",
"w  c #626262",
"e  c #646464",
"r  c #60606B",
"t  c #6C666D",
"y  c #6A6A6A",
"u  c gray42",
"i  c #6F6F6F",
"p  c #727272",
"a  c gray45",
"s  c #747474",
"d  c gray46",
"f  c #777777",
"g  c gray47",
"h  c #797979",
"j  c #7C7C7C",
"k  c gray50",
"l  c #7F7F80",
"z  c #7E7E8A",
"x  c #89847E",
"c  c #C78017",
"v  c #CE951C",
"b  c #C2962C",
"n  c #CA9B25",
"m  c #FD9D13",
"M  c #FAA40E",
"N  c #FFA111",
"B  c #FFA810",
"V  c #FDAC11",
"C  c #FFAD14",
"Z  c #FFB919",
"A  c #DDAE49",
"S  c #E1B343",
"D  c #E9BA57",
"F  c #EEBD5C",
"G  c #FFC125",
"H  c #FFC625",
"J  c #FFCC28",
"K  c #808080",
"L  c #8E8985",
"P  c gray54",
"I  c #8B8B8A",
"U  c #8B8B8B",
"Y  c #8A8A8D",
"T  c gray55",
"R  c #8D8D8D",
"E  c #8E8E8E",
"W  c gray56",
"Q  c #898992",
"!  c #8C8E93",
"~  c #909090",
"^  c #929291",
"/  c #929292",
"(  c #939393",
")  c #9B9B9B",
"_  c #9B9B9C",
"`  c gray62",
"'  c #9F9F9F",
"]  c #9393A4",
"[  c #A39D95",
"{  c #A1A1A0",
"}  c gray63",
"|  c gray64",
" . c #A4A4A4",
".. c #A5A5A5",
"X. c #A5A5A7",
"o. c gray65",
"O. c #A7A7A7",
"+. c gray66",
"@. c #AAAAAA",
"#. c gray68",
"$. c #AEAEAE",
"%. c #AEAEB3",
"&. c #AEAEB4",
"*. c gray69",
"=. c #B5B5B7",
"-. c #B6B6B6",
";. c #B7B7B7",
":. c #B4B4BC",
">. c gray72",
",. c #BBBBBB",
"<. c #B9BABC",
"1. c gray74",
"2. c gray",
"3. c gray75",
"4. c #C0C0BF",
"5. c #C1C1C1",
"6. c gray77",
"7. c #C5C5C5",
"8. c #C6C6C6",
"9. c #C6C6C7",
"0. c #C8C5CA",
"q. c #CAC6C8",
"w. c #CCCCCB",
"e. c gray80",
"r. c #CECECE",
"t. c gray81",
"y. c #C5C5D0",
"u. c #CFCFD3",
"i. c #CED0DE",
"p. c #D0D0D0",
"a. c gray82",
"s. c LightGray",
"d. c gray84",
"f. c #D2D2DE",
"g. c #D8D8D8",
"h. c #D1D3E2",
"j. c #D5D5E1",
"k. c #D7D9E2",
"l. c #DADAE2",
"z. c #DBDBE2",
"x. c #DCDCE1",
"c. c #DFE0E2",
"v. c #E2E2E2",
"b. c #E4E4E4",
"n. c #E6E6EA",
"m. c #E6E6EB",
"M. c #E7E7EB",
"N. c gray91",
"B. c #E9E9ED",
"V. c #EAEAEF",
"C. c #FBF6EB",
"Z. c gray94",
"A. c #F1F1F1",
"S. c #F1F1F9",
"D. c #F6F6F8",
"F. c #F9F9F9",
"G. c #F8F8FA",
"H. c #F9F9FB",
"J. c gray99",
"K. c gray100",
"L. c None",
/* pixels */
"L.L.L.L.: q ~ | #.#.o.f * L.L.L.",
"L.L.L.O R >.W p y u f ` 1.8   L.",
"L.L.  E 6.j d f d d f d R t.8   ",
"L.L.4 s.W R W X.1.>.) E P o.9.& ",
"L.  ~ 9._ { 4.A.H.A.g.$.{ | s.8 ",
"L.X &.B.u.=.w.g.d.t.6.1.=.=.s.i ",
"L.  Y M.K.x.X.X.o.o.' *.w.t.s.0 ",
"r   3 :.H.H.%.P k x ~ t.b.v.*.- ",
"y.Q 6 z.G.m.g.c.1.9.N.J.Z.1.w   ",
"z S.z.B.M.i.0.C.K.K.G.g. .e O L.",
"% ] j.h.i.0.A S [ ! k j 5 o L.L.",
"L.X ; > t D M V b L <.@.& L.L.L.",
"L.L.L.L.$ v J G Z F x &   L.L.L.",
"L.L.L.L.L.= n H N B < L.L.L.L.L.",
"L.L.L.L.L.L.$ c C m , L.L.L.L.L.",
"L.L.L.L.L.L.L.@ 2 1   L.L.L.L.L."
};
