/* XPM */
static char *artsbuilder[] = {
/* columns rows colors chars-per-pixel */
"16 16 133 2",
"   c black",
".  c gray2",
"X  c #060606",
"o  c #070707",
"O  c #090909",
"+  c gray4",
"@  c #161616",
"#  c #181818",
"$  c gray11",
"%  c gray12",
"&  c gray13",
"*  c #222222",
"=  c #282828",
"-  c gray19",
";  c #323232",
":  c gray20",
">  c gray25",
",  c gray26",
"<  c #434343",
"1  c #444444",
"2  c #464646",
"3  c gray28",
"4  c #484848",
"5  c #494949",
"6  c gray29",
"7  c gray31",
"8  c #535353",
"9  c gray33",
"0  c #585858",
"q  c #5A5A5A",
"w  c gray36",
"e  c #5F5F5F",
"r  c #626262",
"t  c #646464",
"y  c #686868",
"u  c #6A6A6A",
"i  c gray42",
"p  c #6C6C6C",
"a  c #6D6D6D",
"s  c #6F6F6F",
"d  c #727272",
"f  c #747474",
"g  c gray46",
"h  c #777777",
"j  c gray48",
"k  c #7B7B7B",
"l  c #7C7C7C",
"z  c gray49",
"x  c #7E7E7E",
"c  c #818181",
"v  c #838383",
"b  c #848484",
"n  c gray53",
"m  c gray54",
"M  c #8B8B8B",
"N  c gray55",
"B  c #8D8D8D",
"V  c #8E8E8E",
"C  c gray56",
"Z  c #909090",
"A  c gray57",
"S  c #929292",
"D  c #939393",
"F  c gray58",
"G  c #959595",
"H  c gray59",
"J  c gray60",
"K  c #9B9B9B",
"L  c gray61",
"P  c #9D9D9D",
"I  c #A0A0A0",
"U  c gray63",
"Y  c #A2A2A2",
"T  c gray64",
"R  c gray65",
"E  c #A7A7A7",
"W  c #A9A9A9",
"Q  c gray67",
"!  c #ACACAC",
"~  c gray68",
"^  c #AFAFAF",
"/  c gray69",
"(  c #B2B2B2",
")  c gray70",
"_  c #B4B4B4",
"`  c gray71",
"'  c #B6B6B6",
"]  c #B7B7B7",
"[  c #B9B9B9",
"{  c gray73",
"}  c #BCBCBC",
"|  c gray74",
" . c gray",
".. c gray75",
"X. c #C1C1C1",
"o. c gray77",
"O. c #C5C5C5",
"+. c gray78",
"@. c #C8C8C8",
"#. c gray79",
"$. c #CACACA",
"%. c #CBCBCB",
"&. c gray80",
"*. c #CDCDCD",
"=. c #CECECE",
"-. c gray81",
";. c #D0D0D0",
":. c #D2D2D2",
">. c LightGray",
",. c gray83",
"<. c gray84",
"1. c #D7D7D7",
"2. c gray85",
"3. c gray86",
"4. c gainsboro",
"5. c #DDDDDD",
"6. c #DFDFDF",
"7. c gray88",
"8. c #E6E6E6",
"9. c #E7E7E7",
"0. c gray91",
"q. c #E9E9E9",
"w. c gray92",
"e. c #ECECEC",
"r. c #EFEFEF",
"t. c gray94",
"y. c #F3F3F3",
"u. c gray96",
"i. c gray98",
"p. c #FDFDFD",
"a. c #FEFEFE",
"s. c gray100",
"d. c None",
/* pixels */
"d.d.d.  6 h V K K M q @ d.d.d.d.",
"d.d.$ c o.E V k l V ( ..8   d.d.",
"d.o V +.c i i i a i i Z >.a   d.",
"  d 1.c l c l k l c c k Z 2.3 d.",
"$ %.W V Z Z ( -.%.E Z D M ..~ + ",
"q >.E P P %.u.i.y.6.{ P P ~ 1.- ",
"k >.( ( { 2.6.5.2.%.+.( ( { >.5 ",
"d -.%.o...) ) { ( ~ W ..o.%.-.< ",
"3 ..5.2.-.J D D D V P 1.1.2.( = ",
"@ V 1.w.9.>.Z l l J 2.0.w.-.k o ",
"  5 K 5.s.s.w.2.5.u.s.i.1.Z -   ",
"d.o 8 V +.w.s.s.s.s.9.{ n 3   d.",
"d.d.o : a l D E K V d a -   d.d.",
"d.d.d.+ q r r t d M ) h   d.d.d.",
"d.d.d.d.$ w c ) 9.9.J @ d.d.d.d.",
"d.d.d.d.d.o & < 3 &   d.d.d.d.d."
};
