/* XPM */
static char *juk[] = {
/* columns rows colors chars-per-pixel */
"32 32 218 2",
"   c #000000",
".  c #060508",
"X  c #000A04",
"o  c #000E0A",
"O  c #0A0A0C",
"+  c #0D0D11",
"@  c #00140A",
"#  c #001A0B",
"$  c #001210",
"%  c #111115",
"&  c #18181D",
"*  c #1C1C22",
"=  c #002108",
"-  c #002315",
";  c #00231F",
":  c #00320B",
">  c #003808",
",  c #003216",
"<  c #023A14",
"1  c #003B1D",
"2  c #002523",
"3  c #002F27",
"4  c #002B29",
"5  c #003323",
"6  c #003128",
"7  c #003C21",
"8  c #003A2A",
"9  c #003431",
"0  c #003A31",
"q  c #25252C",
"w  c #292932",
"e  c #302B38",
"r  c #32323C",
"t  c #353541",
"y  c #393342",
"u  c #393943",
"i  c #3E3E4B",
"p  c #00410B",
"a  c #004B0E",
"s  c #004414",
"d  c #00421B",
"f  c #004B12",
"g  c #024C1C",
"h  c #005607",
"j  c #00540D",
"k  c #005B0D",
"l  c #005312",
"z  c #01511F",
"x  c #005911",
"c  c #004323",
"v  c #00422A",
"b  c #004A21",
"n  c #005121",
"m  c #0B5322",
"M  c #085A21",
"N  c #144F2C",
"B  c #006D0D",
"V  c #006C13",
"C  c #026A19",
"Z  c #057214",
"A  c #06761A",
"S  c #007C16",
"D  c #09711E",
"F  c #0E7D1A",
"G  c #0F6825",
"H  c #0F6D2B",
"J  c #0E7629",
"K  c #157526",
"L  c #247C2E",
"P  c #347E3B",
"I  c #237D40",
"U  c #356746",
"Y  c #41404C",
"T  c #444354",
"R  c #4B465A",
"E  c #494957",
"W  c #4B4B5B",
"Q  c #4D5460",
"!  c #545464",
"~  c #565669",
"^  c #5B5B64",
"/  c #59596A",
"(  c #5D5D70",
")  c #457852",
"_  c #507A55",
"`  c #64646E",
"'  c #616174",
"]  c #65647B",
"[  c #6A6A7B",
"{  c #71717D",
"}  c #6B6B82",
"|  c #747483",
" . c #72728C",
".. c #7A7A86",
"X. c #7B7B8C",
"o. c #757693",
"O. c #7A7A95",
"+. c #7D7C99",
"@. c #00820C",
"#. c #008312",
"$. c #00871A",
"%. c #028819",
"&. c #0D881E",
"*. c #0A931F",
"=. c #048123",
"-. c #0E8325",
";. c #009226",
":. c #00952A",
">. c #148B27",
",. c #14952B",
"<. c #00A109",
"1. c #00A612",
"2. c #00A618",
"3. c #00BF08",
"4. c #00AA25",
"5. c #00AC2A",
"6. c #0DA621",
"7. c #11AD29",
"8. c #19BB2A",
"9. c #31823A",
"0. c #22A237",
"q. c #29BE3B",
"w. c #3FA256",
"e. c #35B445",
"r. c #3EB04D",
"t. c #02C513",
"y. c #00C11E",
"u. c #0AC51C",
"i. c #00D50E",
"p. c #02DB0D",
"a. c #00D413",
"s. c #00DA16",
"d. c #05DF18",
"f. c #0BDB14",
"g. c #03E50F",
"h. c #02EC0C",
"j. c #26CF36",
"k. c #22DC2F",
"l. c #26E629",
"z. c #5A805E",
"x. c #44B956",
"c. c #4CB25E",
"v. c #48BE56",
"b. c #618B63",
"n. c #6B9D6B",
"m. c #4BCA57",
"M. c #53CD5F",
"N. c #47EB45",
"B. c #42E94D",
"V. c #5BF65D",
"C. c #5CE763",
"Z. c #77DE7F",
"A. c #61EE5F",
"S. c #6EF76A",
"D. c #74E97A",
"F. c #867FA3",
"G. c #818193",
"H. c #81819E",
"J. c #8B8B9B",
"K. c #889B91",
"L. c #8686A0",
"P. c #8D85AB",
"I. c #8C8CA1",
"U. c #9393A5",
"Y. c #9494AA",
"T. c #959CA5",
"R. c #9999A7",
"E. c #9A9AAD",
"W. c #9B96B3",
"Q. c #9C9CB2",
"!. c #91A69B",
"~. c #9DA5A5",
"^. c #9CA5A9",
"/. c #9EBEA1",
"(. c #A6A9AE",
"). c #A2A2B4",
"_. c #A4A4BA",
"`. c #ABA9B7",
"'. c #ABABBD",
"]. c #ABB2AF",
"[. c #B2B2BF",
"{. c #ADADC0",
"}. c #B3AEC6",
"|. c #B1B1C4",
" X c #B6B6C8",
".X c #BBBAC7",
"XX c #BABACA",
"oX c #80FF83",
"OX c #9BF79F",
"+X c #9AFB9B",
"@X c #9FF5A2",
"#X c #A1FFA0",
"$X c #AEFFAD",
"%X c #C2C1CE",
"&X c #C3C3D3",
"*X c #CCC7D4",
"=X c #C9C9D6",
"-X c #CDCDDA",
";X c #D2CDDC",
":X c #D2D2DD",
">X c #D5D4E1",
",X c #DAD7E5",
"<X c #DADAE4",
"1X c #DDDCE8",
"2X c #CDFFCA",
"3X c #D7E4D4",
"4X c #DCFFD8",
"5X c #E1DBE9",
"6X c #E3E2EB",
"7X c #E9E4EB",
"8X c #E8E8EF",
"9X c #EBE6F3",
"0X c #ECECF2",
"qX c #F0EAF6",
"wX c #F2F1F5",
"eX c #F5F5F9",
"rX c #FEFEFE",
"tX c None",
/* pixels */
"tXtXtXtXtXtXtXtXtXtXtXtXtXtXtXtXtXtXtXtXtXtXtXtXtXtXtXtXtXtXtXtX",
"tXtXtXtXtXtXtXtXtXtXtXtXtXtXtXtXtXtXtXtXtXtXtXtXtXtXtXtXtXtXtXtX",
"tXtXtXtXtXtX0 4 tXtXtXtXtXtXtXtXtXtXtXtXtXtXtXtXtXtXtXtXtXtXtXtX",
"tXtXtXtXtXtXv =.$ tXtXtXtXtXtXtXtXtXtXtXtXtXtXtXtXtXtXtXtXtXtXtX",
"tXtXtXtXtXtX3 x.w.@ tXtXtXtXtXtXtXtXtXtXtXtXtXtXtXtXtXtXtXtXtXtX",
"tXtXtXtXtXtX3 I 2Xc.1 3 tXtXtXtXtXtXtXtXtXtX/ | J.J.[ ! tXtXtXtX",
"tXtXtXtXtXtXtXn @X4XZ.G 5 tXtXtXtXtXtXtXtX' Y.J.` | '.U.W tXtXtX",
"tXtXtXtXtXtXtX7 m.D.$X#Xx.b 5 tXtXtXtXtX( Q.{ .     * `.X.  tXtX",
"tXtXtXtXtXtXtX5 0.,.G x.oXC.M   tXtXtXtXF.R.X tXtXtXtXW XXw tXtX",
"tXtXtXtXtXtXtX1 J j.X X s e.B.g   tXtX] E.^ tXtXtXtXtX' ).` tXtX",
"tXtXtXtXtXtXtXtXg j.< tX  X -.7.@ tXtX} '.Y tXtXtXtXtXtXU...tXtX",
"tXtXtXtXtXtXtXtXd 8.J   tXtXd S m R ! / ^.[ ~ / / tXtX[ E.[ tXtX",
"tXtXtXtXtXtXtXtXd *.6.X tXtXQ N m `..X[.XXXX|.J.i tXtX .{.u tXtX",
"tXtXtXtXtXtXtXtXtXC u.= tX/ ] T.!.-X-X*X'.'.%XJ.u tX .W.J.. tXtX",
"tXtXtXtXtXtXtXtXtXl t.l R X.&X0X>XXX X|.).J.=XG.[ L.Q.E.* tXtXtX",
"tXtXtXtXtXtXj a a s 1.#.O.5X8X;X=X%XXX|.|.XX&XG.} G./ % tXtXtXtX",
"tXtXtXtXa h A >.%.V #.<.K.9X:X-X=XXXXX|._.Q.{.O.i     tXtXtXtXtX",
"tXtXtXj Z M.OX+XV.h.i.3.) 1X:X-X&X&XXX|.'.).{.X.( tXtXtXtXtXtXtX",
"tXtXj B k.S.A.N.l.g.h.p.K &X<X-X=X&XXX}.'.'.'.} ( tXtXtXtXtXtXtX",
"tXtXh 2.d.f.p.p.a.a.a.s.#.~.1X-X=XXXXX|. X'.[ u tXtXtXtXtXtXtXtX",
"tXF.U 2.y.y.y.y.3.5.y.y.Z (.<X-X=XXXXX&X)./ & tXtXtXtXtXtXtXtXtX",
"tX+.^.&.4.5.5.5.5.5.5.%._ ;X:X-X&X=X&XY./ % tXtXtXtXtXtXtXtXtXtX",
"tXO.W./.F %.;.:.;.%.Z z.*X<X:X-X>XXXO.W E tXtXtXtXtXtXtXtXtXtXtX",
"tXtXo.}.3Xn.9.L 9.b.].6X6X>X<X<X{.} t tXtXtXtXtXtXtXtXtXtXtXtXtX",
"tXtX+.o.=XrXqX7X7XqX0X6X<X6X-XU.W + tXtXtXtXtXtXtXtXtXtXtXtXtXtX",
"tXtXtX+.O.<XrXeXwX0X6X0X6X X} w tXtXtXtXtXtXtXtXtXtXtXtXtXtXtXtX",
"tXtXtXtXo.J.0XeX0X0X0X-XL.T + tXtXtXtXtXtXtXtXtXtXtXtXtXtXtXtXtX",
"tXtXtXtXtXo.Y.eXrX6XQ.( * tXtXtXtXtXtXtXtXtXtXtXtXtXtXtXtXtXtXtX",
"tXtXtXtXtXtXo.Q.|.} w   tXtXtXtXtXtXtXtXtXtXtXtXtXtXtXtXtXtXtXtX",
"tXtXtXtXtXtX+.+.r .   tXtXtXtXtXtXtXtXtXtXtXtXtXtXtXtXtXtXtXtXtX",
"tXtXtXtXtXtXtXtXtXtXtXtXtXtXtXtXtXtXtXtXtXtXtXtXtXtXtXtXtXtXtXtX",
"tXtXtXtXtXtXtXtXtXtXtXtXtXtXtXtXtXtXtXtXtXtXtXtXtXtXtXtXtXtXtXtX"
};
