/* XPM */
static char *kaboodle-16[] = {
/* columns rows colors chars-per-pixel */
"16 16 158 2",
"   c black",
".  c #010102",
"X  c #010103",
"o  c #020203",
"O  c #040406",
"+  c #06060B",
"@  c #07080B",
"#  c #09090F",
"$  c #090910",
"%  c #15151F",
"&  c #141426",
"*  c #17172A",
"=  c #181827",
"-  c #1E1F2D",
";  c #1E1F2F",
":  c #292944",
">  c #2D2E53",
",  c #2F2F54",
"<  c #36365A",
"1  c #383856",
"2  c #3C3C54",
"3  c #393963",
"4  c #3C3E63",
"5  c #3F3F66",
"6  c #3E3F74",
"7  c #3F406B",
"8  c #4A4A5F",
"9  c #46476E",
"0  c #47476F",
"q  c #494A7F",
"w  c #4E5071",
"e  c #52526C",
"r  c #4F4F8C",
"t  c #52548D",
"y  c #5B5B84",
"u  c #585994",
"i  c #5E5E91",
"p  c #626286",
"a  c #63648B",
"s  c #6F6F8B",
"d  c #606094",
"f  c #737499",
"g  c #74749C",
"h  c #6769A0",
"j  c #676AA3",
"k  c #6769AA",
"l  c #6868A7",
"z  c #6B6CA1",
"x  c #6C6FAB",
"c  c #6F6FAB",
"v  c #6D70AC",
"b  c #7273A3",
"n  c #7375A6",
"m  c #7171AC",
"M  c #7171AD",
"N  c #7475A9",
"B  c #7579AB",
"V  c #7779A9",
"C  c #7779AB",
"Z  c #7377B7",
"A  c #7477B6",
"S  c #7579B4",
"D  c #7579B7",
"F  c #7579B9",
"G  c #7779B8",
"H  c #787CB8",
"J  c #7B7EBA",
"K  c #7C7DB8",
"L  c #8384BB",
"P  c #8E8EB4",
"I  c #8C8DBD",
"U  c #8185C3",
"Y  c #878BC4",
"T  c #858AC9",
"R  c #868ACB",
"E  c #8A90CF",
"W  c #8C91CF",
"Q  c #9697C3",
"!  c #9698C3",
"~  c #9B9BC5",
"^  c #9C9CCA",
"/  c #9C9ECA",
"(  c #9C9FCA",
")  c #9D9ECC",
"_  c #9299D6",
"`  c #959BD7",
"'  c #9CA2D7",
"]  c #9DA2D8",
"[  c #A4A4C4",
"{  c #A0A2C9",
"}  c #A1A1CD",
"|  c #A2A3CD",
" . c #A5A7CE",
".. c #A6A6CF",
"X. c #A1A3D1",
"o. c #A7AAD4",
"O. c #A4A8D8",
"+. c #A4A9DB",
"@. c #A9AAD1",
"#. c #ACAED5",
"$. c #AFB0D5",
"%. c #B5B5D6",
"&. c #B2B4DC",
"*. c #B3B6DD",
"=. c #B8B9DB",
"-. c #B9BBDE",
";. c #BEBEDB",
":. c #A7AFE7",
">. c #A9B0E4",
",. c #ACB2E4",
"<. c #AFB4E3",
"1. c #AFB6E7",
"2. c #B2B8E6",
"3. c #B5B9E2",
"4. c #B0B8EE",
"5. c #B3BBEE",
"6. c #B8BDE7",
"7. c #B3BCF2",
"8. c #B7C0F5",
"9. c #B9C3F5",
"0. c #B8C2F6",
"q. c #B9C3F7",
"w. c #BEC8FB",
"e. c #C0C0DC",
"r. c #C1C2DD",
"t. c #C1C2DF",
"y. c #C3C3DC",
"u. c #C7C7E3",
"i. c #C0C5EA",
"p. c #C3C7E9",
"a. c #C0C5ED",
"s. c #C9C9E1",
"d. c #CBCCE8",
"f. c #CBCEEC",
"g. c #CCCFE9",
"h. c #C4CBF6",
"j. c #C2CBFB",
"k. c #C1CCFD",
"l. c #C3CEFF",
"z. c #C7D1FF",
"x. c #CAD2F9",
"c. c #CCD5FF",
"v. c #CDD6FF",
"b. c #D2DAFF",
"n. c #D2DBFF",
"m. c #D7DEFF",
"M. c #D8DFFE",
"N. c #D8DFFF",
"B. c #DFE3FC",
"V. c #DDE4FF",
"C. c #DFE5FF",
"Z. c #E2E3F3",
"A. c #E2E4F6",
"S. c #E0E3F9",
"D. c #E1E6FD",
"F. c #E4E8FE",
"G. c #EAEEFF",
"H. c None",
/* pixels */
"H.H.H.H.H.H.H.H.H.H.H.H.H.H.H.H.",
"H.H.H.H.H.g ! #.;.t.$.! b 1 H.H.",
"<.} ..} ^ ~ e.s.y.e.g.f.o.z = H.",
"@.u.Z.d./ %.[ s 8 e g ( i.O.h < ",
"=.A.G.C.*.P 2       O 0 C 2.] c ",
"-.F.C.m.6.p   H.H.H.H.  4 Y 5.S ",
"&.V.b.c.2.a   c d i 5   @ F 4.E ",
"X.h.l.k.' w ; m {  .N : $ S 8.E ",
"I O.q.>.V & 0 ^ S.C.3.u t _ 7.x ",
"C L n y -   m p.V.m.x.D U :.D , ",
"H.          K i.b.c.j.R Y l , + ",
"H.H.        k ,.z.l.q.k 3 *     ",
"H.H.H.H.H.  7 J q.w.` 6 o   H.H.",
"H.H.H.      $ q Z F t &   H.H.H.",
"H.H.H.H.H.H.H.H.H.H.H.H.H.H.H.H.",
"H.H.H.H.H.H.H.H.H.H.H.H.H.H.H.H."
};
