/* XPM */
static char *kaboodle[] = {
/* columns rows colors chars-per-pixel */
"32 32 113 2",
"   c black",
".  c #424297",
"X  c #4B4B9D",
"o  c #4F50A1",
"O  c #5455A3",
"+  c #5658A8",
"@  c #5B5BA6",
"#  c #5C5EAA",
"$  c #5E61AD",
"%  c #5F63B0",
"&  c #6363AA",
"*  c #6868AC",
"=  c #6063B1",
"-  c #6C6DB1",
";  c #6A6DB9",
":  c #6C71B7",
">  c #6F74BE",
",  c #7373B3",
"<  c #7075BE",
"1  c #777ABE",
"2  c #7A7AB6",
"3  c #7C7EBB",
"4  c #6C79C3",
"5  c #6E7FC9",
"6  c #737DC1",
"7  c #68BE79",
"8  c #7E80BD",
"9  c #7282CB",
"0  c #7980C1",
"q  c #7A86C8",
"w  c #7589D2",
"e  c #7D8CD0",
"r  c #FE8235",
"t  c #E99570",
"y  c #FEDC66",
"u  c #8282BC",
"i  c #8487C3",
"p  c #878AC7",
"a  c #8188CD",
"s  c #8A8BC1",
"d  c #888DCE",
"f  c #8C91CC",
"g  c #8295D9",
"h  c #8A9CDD",
"j  c #9595C5",
"k  c #9193C8",
"l  c #9698CD",
"z  c #9C9DCB",
"x  c #959EDE",
"c  c #989CD3",
"v  c #989ED8",
"b  c #989CFE",
"n  c #9FA0CE",
"m  c #9EA1D3",
"M  c #9BA1DC",
"N  c #9CABE6",
"B  c #A3A3CD",
"V  c #A8A8CF",
"C  c #A3A4D1",
"Z  c #A5AAD6",
"A  c #A6ABDE",
"S  c #AAABD3",
"D  c #ABADD9",
"F  c #AFB0D5",
"G  c #ADB1DD",
"H  c #B2B2D5",
"J  c #B4B5D9",
"K  c #BCBCDB",
"L  c #A8A8FE",
"P  c #A6B4FE",
"I  c #AAB3FB",
"U  c #B4BBEB",
"Y  c #B2BCF2",
"T  c #B3BFF8",
"R  c #95C8B4",
"E  c #A5D3BA",
"W  c #A5D0C3",
"Q  c #BDC1E7",
"!  c #BEC3EA",
"~  c #B7C3FA",
"^  c #BCC3F0",
"/  c #BBC7FE",
"(  c #BDC8FD",
")  c #DEBCA8",
"_  c #CBBFDB",
"`  c #E0CE94",
"'  c #E7DBB6",
"]  c #C0C0DC",
"[  c #C3C6E7",
"{  c #C5C4E9",
"}  c #C6CBEC",
"|  c #C8CCEA",
" . c #C1CCFD",
".. c #CED1ED",
"X. c #C6D0FE",
"o. c #CAD3FD",
"O. c #CFD8FE",
"+. c #D2D4EC",
"@. c #D1D6F5",
"#. c #D3DBFD",
"$. c #D8DEFD",
"%. c #DCE2FE",
"&. c #E2E2EF",
"*. c #E2E4F5",
"=. c #E1E6FE",
"-. c #E4E8FE",
";. c #E8E8F2",
":. c #E9ECFC",
">. c #EDF0FE",
",. c #F3F5FD",
"<. c #F6F8FE",
"1. c #FEFEFE",
"2. c None",
/* pixels */
"2.2.2.2.2.2.2.2.2.2.2.2.2.2.w w w w w w w w w 2.2.2.2.2.2.2.2.2.",
"2.2.2.2.2.2.2.2.2.2.2.2.2.w w w 2.2.2.2.2.w w w 2.2.2.2.2.2.2.2.",
"2.2.2.2.2.2.2.2.2.2.2.2.w w 2.2.2.2.2.2.2.2.2.w w w 2.2.2.2.2.2.",
"2.2.2.2.2.2.2.2.2.2.2.2.w 2.2.2.2.2.2.2.2.2.2.2.w w 2.2.2.2.2.2.",
"2.2.2.2.2.2.2.2.2.2.2.S e 2.2.2.2.2.2.2.2.2.2.2.2.w w 2.2.2.2.2.",
"2.2.2.2.2.2.2.2.2.2.2.B Z j 2.2.2.2.2.2.2.2.2.2.2.2.w w 2.2.2.2.",
"2.2.2.2.2.2.2.2.2.2.z j D z s 2.2.2.2.2.2.2.2.2.2.2.w w 2.2.2.2.",
"2.2.2.2.2.2.2.2.B z n k f ( m u 2.2.2.2.2.2.2.2.2.2.2.w 2.2.2.2.",
"2.2.2.2.2.2.V B S { O.Y v o.#.j 2.2.2.2.2.2.2.2.2.2.2.w 2.2.2.2.",
"2.2.2.2.S S H } $.#.#.O.#.:.<.z 2.2.2.2.2.2.2.2.2.2.2.w 2.2.2.2.",
"2.2.2.H J +.=.%.$.$.$.=.>.:.*.u 2.2.2.2.2.2.2.2.2.2.w w 2.2.2.2.",
"2.2.2.K :.-.=.=.%.%.=.=.#.$.$.u 2.2.2.2.2.2.2.2.2.2.w w 2.2.2.2.",
"2.2.2.] 1.:.=.$.%.#.o.o.o.#...u 2.2.2.2.2.2.2.2.w w w 2.2.2.2.2.",
"2.2.2.K <.<.#.o./ (  .O.;.+.U z 2.2.2.2.2.2.2.w w w 2.2.2.2.2.2.",
"2.2.2.J ,.,.P I L  .o.{ J B n z 2.2.2.2.2.w w w w 2.2.2.2.2.2.2.",
"2.2.2.J >.%.I { b R W J u * H z 2.2.2.w w w w 2.2.2.2.2.2.2.2.2.",
"2.2.2.H :.%.t r o.7 E -.| *.&., 2.2.w w w 2.2.2.2.2.2.2.2.2.2.2.",
"2.2.2.S -.#.] ) y ' #. .>.<.1.& 2.u q 8 2 , , * 2.2.2.2.2.2.2.2.",
"2.2.2.S =.O. .+.` } / / -.1.<.u u s K ,.<.:.J , * 2.2.2.2.2.2.2.",
"2.2.2.C %.O.o.( / / / Z z z K u z ] u 2 , 8 S @.i # 2.2.2.2.2.2.",
"2.2.2.C $.#. .( / o.[ F <.-.C u j 8 2 2.2.2.* , ! p # w 2.2.2.2.",
"2.2.2.z #.#.#.( =.=.z *.:.-.@.u 0 w 2.2.w w w 9 & U ; 4 2.2.2.2.",
"2.2.2.l O.#.-.@. .#.m -.%.#.#.s 2.w w w w w w 2.% 6 Y o 2.2.2.2.",
"2.2.2.l O.#.N g h g c %.#.O.( p 2.w w w w w w w w + ( ; 2.2.2.2.",
"2.2.2.s  .#.h  .A , i  .o.( ~ , w w 4 & , @ + 2.2.# / > 2.2.2.2.",
"2.2.2.2 u ^ h a & & u c ( ( f 6 w : * +.:.D O 2.X a T O 2.2.2.2.",
"2.2.2.2., , * w w w w 0 8 3 : w 2.& D -.%.#.: X $ T > . 2.2.2.2.",
"2.2.2.2.2.2.2.2.w w w w w w 2.2.2.& U #.#.o.d + x = . 2.2.2.2.2.",
"2.2.2.2.2.2.2.2.2.2.2.w w 2.2.2.2.+ U o. .( a # . . 2.2.2.2.2.2.",
"2.2.2.2.2.2.2.2.2.2.2.w w w w w w $ M  ./ / ; . 2.2.2.2.2.2.2.2.",
"2.2.2.2.2.2.2.2.2.2.2.2.w w w w w 6 # T ( x . 2.2.2.2.2.2.2.2.2.",
"2.2.2.2.2.2.2.2.2.2.2.2.2.2.2.2.2.2.X o = . . 2.2.2.2.2.2.2.2.2."
};
