/* XPM */
static char *kaudiocreator[] = {
/* columns rows colors chars-per-pixel */
"32 32 257 2",
"   c #000000",
".  c #13151D",
"X  c #1D033F",
"o  c #1A1C28",
"O  c #1E202B",
"+  c #222535",
"@  c #390D7C",
"#  c #292D43",
"$  c #2E334C",
"%  c #303450",
"&  c #353A58",
"*  c #39415E",
"=  c #3C4264",
"-  c #404767",
";  c #444B72",
":  c #4A5476",
">  c #4B527D",
",  c #011DA9",
"<  c #002D80",
"1  c #002A8A",
"2  c #002694",
"3  c #00229C",
"4  c #002D94",
"5  c #0620A6",
"6  c #0721BF",
"7  c #0C28B3",
"8  c #1622BD",
"9  c #1E3DAD",
"0  c #2537BB",
"q  c #171FC3",
"w  c #0923C5",
"e  c #172ADF",
"r  c #1C20DA",
"t  c #1C33C9",
"y  c #1A3BC7",
"u  c #1B33D1",
"i  c #1F31D8",
"p  c #193CD1",
"a  c #1D27E9",
"s  c #1B34EC",
"d  c #2D3DD2",
"f  c #313CC5",
"g  c #2429F4",
"h  c #2139EF",
"j  c #2335F5",
"k  c #2136FF",
"l  c #253BFD",
"z  c #283CFB",
"x  c #004B80",
"c  c #2542BB",
"v  c #3B5AB3",
"b  c #2E45C6",
"n  c #2948CC",
"m  c #384ED0",
"M  c #3951C5",
"N  c #2F51FD",
"B  c #3C4AFF",
"V  c #3543FB",
"C  c #3C57E0",
"Z  c #5E2C9F",
"A  c #4F31B6",
"S  c #5031BA",
"D  c #4033EF",
"F  c #4E3DE9",
"G  c #4A37FF",
"H  c #493BFF",
"J  c #5C3BFF",
"K  c #553BF9",
"L  c #4E5582",
"P  c #515A85",
"I  c #535A8A",
"U  c #575E92",
"Y  c #4355BD",
"T  c #56628E",
"R  c #576192",
"E  c #596494",
"W  c #5B6498",
"Q  c #5D699A",
"!  c #7750B2",
"~  c #636DA5",
"^  c #646DA8",
"/  c #6570A7",
"(  c #6773AB",
")  c #6874AE",
"_  c #6978AF",
"`  c #6D79B4",
"'  c #6F7DBA",
"]  c #6A75B2",
"[  c #7B6FBC",
"{  c #707CB9",
"}  c #4D4EDA",
"|  c #4756C5",
" . c #4B5FC3",
".. c #4958CB",
"X. c #554DC6",
"o. c #5A4EDC",
"O. c #5358DF",
"+. c #5D55D1",
"@. c #495BE1",
"#. c #4453FF",
"$. c #565BE4",
"%. c #555DED",
"&. c #5254FF",
"*. c #535FFF",
"=. c #4D63C6",
"-. c #5366C7",
";. c #556BC5",
":. c #556DCC",
">. c #596EC6",
",. c #5E6DC8",
"<. c #5967DA",
"1. c #5E75C6",
"2. c #5A70CB",
"3. c #4E60E6",
"4. c #5F60ED",
"5. c #5867FE",
"6. c #5B6CFE",
"7. c #6851C2",
"8. c #605FD6",
"9. c #7A5EC0",
"0. c #6541FF",
"q. c #6155FF",
"w. c #6E51FF",
"e. c #6063DE",
"r. c #646FD4",
"t. c #6964D8",
"y. c #6F68D4",
"u. c #6378CD",
"i. c #6C79CB",
"p. c #6377D2",
"a. c #6C66ED",
"s. c #676DF7",
"d. c #636DF8",
"f. c #6371FE",
"g. c #647DFE",
"h. c #6A74FE",
"j. c #6E7BFE",
"k. c #796CFE",
"l. c #7674E0",
"z. c #737BE5",
"x. c #7976E4",
"c. c #7273FB",
"v. c #757BFC",
"b. c #7982BD",
"n. c #6E88DC",
"m. c #7584C3",
"M. c #7081C9",
"N. c #7B85C2",
"B. c #7C8ACB",
"V. c #7288D1",
"C. c #7D8ED0",
"Z. c #7E91D1",
"A. c #6B82F7",
"S. c #7785ED",
"D. c #7482FE",
"F. c #7888FE",
"G. c #7A93E5",
"H. c #8573BF",
"J. c #8078DA",
"K. c #8A7DD0",
"L. c #8572FE",
"P. c #8188C5",
"I. c #878DCA",
"U. c #8780D9",
"Y. c #8590CD",
"T. c #8A90CD",
"R. c #8091D4",
"E. c #8597DE",
"W. c #8699DF",
"Q. c #8C95D0",
"!. c #9487CB",
"~. c #9F86C3",
"^. c #9D85CB",
"/. c #939AC6",
"(. c #9491DF",
"). c #939ED8",
"_. c #9F97D7",
"`. c #9E93DD",
"'. c #8684E3",
"]. c #8690EA",
"[. c #8499E3",
"{. c #889CE3",
"}. c #8192FE",
"|. c #9E97E0",
" X c #9A98E2",
".X c #9299F5",
"XX c #9A9FF6",
"oX c #9BA4DB",
"OX c #97A8DB",
"+X c #8CA1E9",
"@X c #93A2E4",
"#X c #93A3ED",
"$X c #91A6F0",
"%X c #93A9F4",
"&X c #96ACF8",
"*X c #9CA4FE",
"=X c #9BB0F7",
"-X c #A094DC",
";X c #A9A6DB",
":X c #A8ACDF",
">X c #A3ABE2",
",X c #ABADE2",
"<X c #A2ADFE",
"1X c #A6B1E7",
"2X c #ABB3E4",
"3X c #ADB6E9",
"4X c #AAB8E3",
"5X c #ABBFEE",
"6X c #A5B9FD",
"7X c #ABB9F0",
"8X c #AFBBFE",
"9X c #B0BAEB",
"0X c #B2BDE3",
"qX c #B9BEF0",
"wX c #AFC0FC",
"eX c #B1C1EB",
"rX c #BDC0E8",
"tX c #BECAED",
"yX c #B2C2FA",
"uX c #B9C0FE",
"iX c #BBC9F6",
"pX c #BBCBFA",
"aX c #BDD2FF",
"sX c #C3C2EF",
"dX c #C2CCEE",
"fX c #C5C9F5",
"gX c #C1CEFC",
"hX c #C8CEF4",
"jX c #CFD1EE",
"kX c #C4D5FF",
"lX c #C6D8FF",
"zX c #CAD4FD",
"xX c #CBDAFF",
"cX c #D1D4E8",
"vX c #D2D9EF",
"bX c #D8DBEB",
"nX c #D0D3F1",
"mX c #D4DBF3",
"MX c #D1DDFE",
"NX c #DCDCF4",
"BX c #D8DAFE",
"VX c #D6E0F4",
"CX c #D5E1FF",
"ZX c #DCE1F5",
"AX c #DBE4FD",
"SX c #DEE8FF",
"DX c #E2E6F5",
"FX c #E2E6FF",
"GX c #E5E9F6",
"HX c #E4EBFE",
"JX c #E9EBF5",
"KX c #E9EEFD",
"LX c #ECF1FE",
"PX c #F2F5FE",
"IX c #F6F8FE",
"UX c #F9FAFE",
"YX c None",
/* pixels */
"YXYXYXYXYXYX< 3 5 3 YXYXR.C.B.B.m.b.~     YXYXYXYXYXYXYXYXYXYXYX",
"YXYXYXYX1 3 0 x...v W.W.@X1X3X3X1X@XY.m.` R     YXYXYXYXYXYXYXYX",
"YXYXYX3 8 F w.L.z.=.u.mXKXKXKXKXkXzXzXfXoXm.^ =   YXYXYXYXYXYXYX",
"YXYXYX3 q 0.J H q.c.S.>.ZXLXKXKXxXkXkXxXBXzXQ.) >     YXYXYXYXYX",
"YXYXYXYX2 8 K G r g #.A.>.KXKXHXxXzXzXCXAXMXFX,X) ;     YXYXYXYX",
"3 3 3 4 $X[.0 z M.i.a #.C 4XLXHXxXxXxXCXCXKXIXPX2X) &     YXYXYX",
"7 e.| 9 %XnXNXY 0XUX,.j N :.LXKXCXxXAXAXSXIXIXIXKX;X~     YXYXYX",
"w k.r.G.uXPXUXUXUXUXmXi z n PXHXCXCXSXSXPXIXIXIXIXFXN.L     YXYX",
"6 &.<.G.LXKXLXPXUXUXIXn z p IXKXAXSXFXPXIXIXIXIXIXIXfX^ o   YXYX",
", V s.=.SXtX1.ZXPXUXGXt h y IXKXSXHXKXUXUXUXUXUXIXIXKXI.;     YX",
"3 e &.@.V.OX<. .VXLXKX;XOX4XPXKXFXKXUXUXUXUXUXIXIXPXIX3XU     YX",
"* 7 z *.3.M .XXX>.VXLXUXUXLXJXZXZXDXIXUXUXIXIXIXjX,X(.J.J.7.X YX",
"YXA.b j B 6.6.B D.-.dXLXLXLXJXmXZXJXJXUXNX#X].z..XuXBXuX<XD.@   ",
"YX%XiX:.u s k k z m Z.KXKXVX{._ b.cXDXJX@X=X8X8X8X=Xj.d.d.f.S   ",
"YX%XaXlX5Xy j t ;.eXSXSXKXwX:   > /.NXZX@XF.}.}.D.h.d.f.%.o.S   ",
"YX&XaXlXiXc 1.yXSXLXPXLXLXwX:   E /.ZXSXrXf.$.+.y.U.K._.H.>     ",
"YX%XlXxXSXKXPXPXPXUXPXPXKXVX+Xm.N.bXDXJXsXd.`.SXAXCXMXxXT.$     ",
"YX+XaXLXPXPXPXPXUXUXUXUXLXKXZXvXJXJXJXUXNX$. XSXSXSXAXzXb.%     ",
"YXZ.wXPXPXPXPXUXUXUXUXUXPXSXSXSXDXKXUXUXUX$. XKXSXSXAXzX^       ",
"YX  &XLXPXPXUXPXPXUXUXUXKXHXKXLXIXUXUXUXUX}  XPXLXKXSX>XI       ",
"YX  +XkXUXUXUXUXUXUXUXLXSXAXKXLXPXIXUXUXUX+.-XIXLXKXBXP.=     YX",
"YXYXE =XLXLXPXUXPXUXPXSXSXCXLXLXtXC.:X;X!.t.-XUXIXPXqX~       YX",
"YXYX  {.iXUXUXPXPXPXSXCXCXxXKXeXp.BXBXBXBXl.-XUXUXFXP.=       YX",
"YXYXYXT +XxXPXPXUXHXCXCXlXlXHXp.*X*X*X*X}.g.`.IXIX).Q       YXYX",
"YXYXYX  / #XAXIXLXCXCXCXaXxXKXi.s.h.f.6.6.%.^.LX,X^ o       YXYX",
"YXYXYXYX  Q +XzXAXzXxXlXaXxXHXdXX.c.v.v.a.Z NX>X) #       YXYXYX",
"YXYXYXYX    E {.5XAXCXaXaXxXHXHXnXH.9.! ~.sXT./ +         YXYXYX",
"YXYXYXYXYX    $ m.#X9XzXxXxXSXHXKXSXFXhX).' I           YXYXYXYX",
"YXYXYXYXYXYX      * _ Z.@X>X9X3X3XOXB.` P o           YXYXYXYXYX",
"YXYXYXYXYXYXYXYX        $ ; W Q R = o             YXYXYXYXYXYXYX",
"YXYXYXYXYXYXYXYXYX                            YXYXYXYXYXYXYXYXYX",
"YXYXYXYXYXYXYXYXYXYXYXYX                YXYXYXYXYXYXYXYXYXYXYXYX"
};
