/* XPM */
static char *kmid-16[] = {
/* columns rows colors chars-per-pixel */
"16 16 104 2",
"   c black",
".  c #010101",
"X  c #020202",
"o  c gray1",
"O  c #040404",
"+  c gray2",
"@  c gray4",
"#  c #0C0C0C",
"$  c #101010",
"%  c #111111",
"&  c gray7",
"*  c #161616",
"=  c gray9",
"-  c gray10",
";  c gray11",
":  c #1D1D1D",
">  c #1E1E1E",
",  c gray12",
"<  c #222222",
"1  c #232323",
"2  c gray14",
"3  c #252525",
"4  c gray15",
"5  c #282828",
"6  c #2A2A2A",
"7  c gray17",
"8  c #2D2D2D",
"9  c gray18",
"0  c #2F2F2F",
"q  c gray19",
"w  c gray20",
"e  c #393939",
"r  c #3A3A3A",
"t  c gray24",
"y  c #3F3F3F",
"u  c gray25",
"i  c gray26",
"p  c #444444",
"a  c #464646",
"s  c #494949",
"d  c gray29",
"f  c #4B4B4B",
"g  c #505050",
"h  c #555555",
"j  c #565656",
"k  c gray34",
"l  c #585858",
"z  c gray35",
"x  c #5B5B5B",
"c  c #626262",
"v  c gray39",
"b  c gray40",
"n  c #686868",
"m  c #727272",
"M  c gray45",
"N  c gray46",
"B  c #777777",
"V  c gray48",
"C  c #7B7B7B",
"Z  c gray49",
"A  c #7E7E7E",
"S  c #808080",
"D  c #838383",
"F  c #868686",
"G  c gray53",
"H  c #898989",
"J  c gray54",
"K  c #8D8D8D",
"L  c #8E8E8E",
"P  c gray56",
"I  c gray57",
"U  c #929292",
"Y  c #959595",
"T  c gray59",
"R  c #9A9A9A",
"E  c #9B9B9B",
"W  c gray61",
"Q  c #9D9D9D",
"!  c gray64",
"~  c #A4A4A4",
"^  c gray65",
"/  c #A7A7A7",
"(  c #AFAFAF",
")  c #B2B2B2",
"_  c gray70",
"`  c gray71",
"'  c gray73",
"]  c gray74",
"[  c gray",
"{  c #C0C0C0",
"}  c gray76",
"|  c #CACACA",
" . c gray81",
".. c gray82",
"X. c gray84",
"o. c #D8D8D8",
"O. c #E2E2E2",
"+. c gray89",
"@. c #E6E6E6",
"#. c gray93",
"$. c #F8F8F8",
"%. c #F9F9F9",
"&. c gray100",
"*. c None",
/* pixels */
"            *.*.*.*.*.*.*.*.*.*.",
"  : 1 3 f 1 *.*.*.*.*.*.*.*.*.*.",
"  6 t i C : *.*.*.*.*.*.*.*.*.*.",
"  6 t a C = *.*.*.*.*.*.*.*.*.*.",
"  6 i f C @ *.*.*.*.            ",
"  6 a f B   *.*.l + D l v l :   ",
"  3 r n F 1 H P 3 n | U M -   *.",
"  = U [ r ! &.Q f t C |     *.*.",
"  F %.: a #.&.' C & v &.[ *.*.*.",
"*.^ ..E E %.&.^ o.X.] &.@.: *.*.",
"*.k &.] E &.&.Q O.&.` ` k   *.*.",
"*.q ] ) D ( ] H U X.! 3   *.*.*.",
"*.# 3 0 i [ +.U U &.P     *.*.*.",
"*.& i t a | &./ B U k b :   *.*.",
"*.@ 6 0 1 & q :   + r f r     *.",
"*.          *.*.*.            *."
};
