/* XPM */
static char *kmix[] = {
/* columns rows colors chars-per-pixel */
"32 32 79 1",
"  c #000000",
". c #00000B",
"X c #000014",
"o c #00001A",
"O c #001B16",
"+ c #000021",
"@ c #00002B",
"# c #000030",
"$ c #1D1D31",
"% c #00350D",
"& c #003C0F",
"* c #003310",
"= c #003B11",
"- c #252525",
"; c #2C2C2C",
": c #353535",
"> c #3B3B3B",
", c #373745",
"< c #00460C",
"1 c #004A0D",
"2 c #005402",
"3 c #005D02",
"4 c #005B09",
"5 c #005011",
"6 c #006302",
"7 c #006C01",
"8 c #007401",
"9 c #007108",
"0 c #007B02",
"q c #007808",
"w c gray27",
"e c #4B4B4B",
"r c #4F4F56",
"t c #515151",
"y c #52525A",
"u c #5C5C5D",
"i c #5F5F61",
"p c #626262",
"a c #606068",
"s c #6A6A6A",
"d c #6F6F72",
"f c #737373",
"g c #767678",
"h c #7B7B7B",
"j c #008301",
"k c #008108",
"l c #008B00",
"z c #009302",
"x c #009A00",
"c c #00A300",
"v c #00AA00",
"b c #00B400",
"n c #00BC00",
"m c #00C300",
"M c #00CC00",
"N c #00D400",
"B c #00DB00",
"V c #00E300",
"C c #00EA00",
"Z c #00F400",
"A c #00FB00",
"S c #828282",
"D c #8B8B8B",
"F c #939393",
"G c #9B9B9B",
"H c #A3A3A3",
"J c #ABABAB",
"K c #B3B3B3",
"L c #B4B4BA",
"P c #BBBBBB",
"I c #C2C2C2",
"U c #C6C6C8",
"Y c #CBCBCB",
"T c #D4D4D4",
"R c #DBDBDB",
"E c gray89",
"W c #EEEEEE",
"Q c gray100",
"! c None",
/* pixels */
"!!!!!!!!!mMNBVCZAACVBMm!!!!!!!!!",
"!!!!!!!bnmMNBNBNBBNNNMmbvz!!!!!!",
"!!!!!cvbmnbxq%.X...68xvbbcj@!!!!",
"!!!!ccvcq*X            2lxxk@!!!",
"!!!xxx9X    !!!!!!!!!!!! 3jzq@!!",
"!!lzl*.   !!!!!!!!!!!!!!!! 8j6o!",
"!!ljO   !!!!!!!!!!!!!!!!!!!!88o ",
"!!l=.  !!!!!!!!!!!!!!!!!!!!!38< ",
"!!0X  !!!!!!NBCZAZCBN!!!!!!!!8< ",
"!!6. !!!!bmMNBCZAACNMmbz!!!!!62 ",
"!!#  !!cvbnnvzq9763cvvbcz#!!!!X ",
"!!! !!xcvx1X          8zxj5!!!! ",
"!!!!!zxz=X   !!!!!!!!!! 7lqo!!!!",
"!!!!!l0o   !!!!!!!!!!!!!!201o!!!",
"!!!!ljO   !!!PPPIUU!!!!!!!76o !!",
"!!!!l4  KJHFDFGHHJJKPPYL!!!7X !!",
"!!!!0XhGhhhsppppsfhDGJPPIL!7. !!",
"!!!!!FfgsppppppsdhhDDGHJPIP@  !!",
"!!!!FfsppppppppdghDDGHJKKIIP@!!!",
"!!!GssppppppppsfhDDFGJJKIUYIHo!!",
"!!!hfpppppppDITWWRUKHJKIUTTYUo !",
"!!!pfpppppfJIUPKJPRYPKPIYTRYYo !",
"!!!pfpppppFfSFDhgghGHGIYTRETIo !",
"!!!efppppspttttttttuspKYRREYJo !",
"!!!>sfpppit:::::::>w>eIRRETIio !",
"!!!w-shspsuw>::::>>>eGTRERUgo  !",
"!!!!>-eSSggfpwwwweefJRERTHd$  !!",
"!!!!!;:-tSFGHHGHJJURRRIGfiX   !!",
"!!!!!! ->::tsSFGGHFFSsay$.   !!!",
"!!!!!!!! ->tw>>weysSfpo    !!!!!",
"!!!!!!!!!!>wewwwtpfsp,. !!!!!!!!",
"!!!!!!!!!!!-wtyuppitX   !!!!!!!!"
};
