/* XPM */
static char *krec[] = {
/* columns rows colors chars-per-pixel */
"32 32 160 2",
"   c black",
".  c #173517",
"X  c #343434",
"o  c #3C3C3B",
"O  c #1E461E",
"+  c #204920",
"@  c #294429",
"#  c #2C482C",
"$  c #265626",
"%  c #275927",
"&  c #2C532C",
"*  c #295E29",
"=  c #344E34",
"-  c #395239",
";  c #2B652B",
":  c #2E682E",
">  c #3D663D",
",  c #357835",
"<  c #3A743A",
"1  c #3B7E3B",
"2  c #433A36",
"3  c #413B3A",
"4  c #503227",
"5  c #58392E",
"6  c #603C2F",
"7  c #56423B",
"8  c #6C402F",
"9  c #6C483A",
"0  c #77412D",
"q  c #754432",
"w  c #774C3B",
"e  c #7A4532",
"r  c #7D4A36",
"t  c #404040",
"y  c #4B4B4B",
"u  c #455D45",
"i  c #504D4C",
"p  c #565656",
"a  c #5D5856",
"s  c gray37",
"d  c #4E654E",
"f  c #457745",
"g  c #5C725C",
"h  c #66524B",
"j  c #685D59",
"k  c #765042",
"l  c #765E55",
"z  c #7A5E52",
"x  c #746058",
"c  c #646464",
"v  c #686868",
"b  c #617561",
"n  c #7A7776",
"m  c #7A7A79",
"M  c #3A843A",
"N  c #3C8A3C",
"B  c #478947",
"V  c #409340",
"C  c #449C44",
"Z  c #529052",
"A  c #5D935D",
"S  c #46A146",
"D  c #48A448",
"F  c #4BAB4B",
"G  c #4EB24E",
"H  c #55A455",
"J  c #58AB58",
"K  c #50B750",
"L  c #54BC54",
"P  c #5FB05F",
"I  c #5ABA5A",
"U  c #638A63",
"Y  c #6F886F",
"T  c #748574",
"R  c #61A461",
"E  c #61A961",
"W  c #69A469",
"Q  c #69AF69",
"!  c #63B663",
"~  c #65BA65",
"^  c #6AB16A",
"/  c #6BBA6B",
"(  c #70A070",
")  c #73B573",
"_  c #55C255",
"`  c #5ACB5A",
"'  c #5CD35C",
"]  c #5FD85F",
"[  c #61C161",
"{  c #60CA60",
"}  c #69C869",
"|  c #64D464",
" . c #61DC61",
".. c #68D068",
"X. c #71C171",
"o. c #75CC75",
"O. c #7FC87F",
"+. c #76D276",
"@. c #71DA71",
"#. c #7AD17A",
"$. c #7FD97F",
"%. c #64E364",
"&. c #66E966",
"*. c #6BE06B",
"=. c #6BEB6B",
"-. c #70E470",
";. c #76EC76",
":. c #78EC78",
">. c #84452F",
",. c #834731",
"<. c #804A36",
"1. c #854D39",
"2. c #83523F",
"3. c #8C503A",
"4. c #93543C",
"5. c #855441",
"6. c #875D4D",
"7. c #8C5946",
"8. c #9A5A42",
"9. c #8A6355",
"0. c #88675B",
"q. c #906555",
"w. c #8C7268",
"e. c #937266",
"r. c #A35F45",
"t. c #A56045",
"y. c #B46B4F",
"u. c #B66C50",
"i. c #84817F",
"p. c #808080",
"a. c gray55",
"s. c gray59",
"d. c #81BB81",
"f. c #AD9085",
"g. c #A29F9E",
"h. c #AAA19D",
"j. c #A8A2A0",
"k. c #ABAAAA",
"l. c #A9BFA9",
"z. c #B2B2B2",
"x. c #B9B9B9",
"c. c #81D281",
"v. c #83D883",
"b. c #90C790",
"n. c #95D195",
"m. c #93DE93",
"M. c #98D898",
"N. c #83EC83",
"B. c #9EF39E",
"V. c #AEC8AE",
"C. c #A0DBA0",
"Z. c #A1ECA1",
"A. c #C6C6C6",
"S. c #C9C9C9",
"D. c #D5D5D5",
"F. c #DADADA",
"G. c #D5E2D5",
"H. c #DEF5DE",
"J. c #E4DAD7",
"K. c None",
/* pixels */
"K.K.K.K.K.K.K.K.K.K.K.K.K.K.K.K.K.K.K.H.B ( K.K.K.K.K.K.K.K.K.K.",
"K.K.K.K.K.K.K.K.K.K.K.K.K.K.b.H ^ K.K.^ M A K.K.K.K.K.K.K.K.K.K.",
"K.K.K.K.K.K.K.K.K.K.K.K.K.K.~ S Q K.m.D N 1 K.K.K.K.K.K.K.K.K.K.",
"K.K.K.K.K.K.K.K.K.K.K.K.K.K.~ D C H @.C N Z K.K.K.K.K.K.K.K.K.K.",
"K.K.K.K.K.K.K.K.K.K.K.K.K.K.I D S d.| C N Q K.K.K.K.K.K.K.K.K.K.",
"K.K.K.K.K.K.K.K.K.K.K.K.K.M._ N : O.] D H K.K.K.K.K.K.K.K.K.K.K.",
"K.K.K.K.K.K.K.K.K.K.K.K.K.` _ ; . c. .F J K.K.K.K.K.K.K.K.K.K.K.",
"K.K.K.K.K.K.K.K.K.K.K.K.K.' ` $ . v.&.F / K.K.K.K.K.K.K.K.K.K.K.",
"K.K.K.K.K.K.K.K.K.K.K.K.K.` ] ; . X.&.L / K.K.K.K.K.K.K.K.K.K.K.",
"K.K.K.K.K.K.K.K.K.K.K.K.K.C.%., . Y %.] I K.K.K.K.K.K.K.K.K.K.K.",
"K.K.K.K.K.K.K.K.K.K.K.K.K.K.*.F . u @.=._ n.K.K.K.K.K.K.K.K.K.K.",
"K.K.K.K.K.K.K.K.k.X o k.K.K.@. .+ # M. .&.[ K.K.K.K.K.K.K.K.K.K.",
"K.K.K.K.K.K.K.p o o o t c K.#.&.V . g #.%.&.v.K.K.K.K.K.K.K.K.K.",
"K.K.K.K.K.K.p o o t t o X v K.| %.% @ K.o.%.&.;.B.K.K.K.K.K.K.Z.",
"K.K.K.K.K.D.t o t t t o X o K.o.%.` O d K.) { %.&.:.=.N.N.*.../ ",
"K.K.K.K.K.a.X o t t t o o X m K.+.%._ + b K.K.) / I [ I J R U K.",
"K.K.K.K.K.s.X o o t t 3 o X y K.K.#.%.' * - u K.K.K.K.K.K.K.K.K.",
"K.K.K.K.K.K.y X o t t o o X o K.K.K.o. .&.C & u T K.K.K.K.K.K.K.",
"K.K.K.K.K.K.c X p.x.m o o 7 w e.K.K.K./ `  . .F < > = f H ) C ) ",
"K.K.K.K.K.K.p.m F.D.S.h r 4.1.5.K.K.K.K.G.! } `  .' ` L G G G F ",
"K.K.K.K.K.K.S.S.S.S.S.0.8.t.8.7.J.K.K.K.K.K.K.V.P ! G G G H W V.",
"K.K.K.K.K.S.S.S.S.S.h.r >.4.4.1.9.K.K.K.K.K.K.K.K.K.K.K.K.K.K.K.",
"K.K.K.K.S.S.S.A.A.h.5.y.y.4.3.0 q.K.K.K.K.K.K.K.K.K.K.K.K.K.K.K.",
"K.K.K.S.S.S.A.A.g.4 8.r.y.y.8.1.6.K.K.K.K.K.K.K.K.K.K.K.K.K.K.K.",
"K.K.A.S.S.S.A.z.2 q 8.r.4.,.1.e k K.K.K.K.K.K.K.K.K.K.K.K.K.K.K.",
"K.S.S.S.A.A.k.y a 1.1.4.4.1.r 6 z K.K.K.K.K.K.K.K.K.K.K.K.K.K.K.",
"F.S.S.S.S.k.2 o K.f.w q q 8 5 x K.K.K.K.K.K.K.K.K.K.K.K.K.K.K.K.",
"K.x.A.A.z.3 i.K.K.K.w.9 x 7 j K.K.K.K.K.K.K.K.K.K.K.K.K.K.K.K.K.",
"S.S.z.x.m n K.K.K.K.K.K.K.K.K.K.K.K.K.K.K.K.K.K.K.K.K.K.K.K.K.K.",
"S.A.z.z.K.K.K.K.K.K.K.K.K.K.K.K.K.K.K.K.K.K.K.K.K.K.K.K.K.K.K.K.",
"A.x.x.K.K.K.K.K.K.K.K.K.K.K.K.K.K.K.K.K.K.K.K.K.K.K.K.K.K.K.K.K.",
"x.x.K.K.K.K.K.K.K.K.K.K.K.K.K.K.K.K.K.K.K.K.K.K.K.K.K.K.K.K.K.K."
};
