/* XPM */
static char *krec-16[] = {
/* columns rows colors chars-per-pixel */
"16 16 72 1",
"  c black",
". c gray5",
"X c #0E0E0E",
"o c gray6",
"O c #190C07",
"+ c #1F110B",
"@ c gray7",
"# c gray8",
"$ c #151515",
"% c gray9",
"& c #1B1B1B",
"* c #1D1D1D",
"= c gray12",
"- c #20120D",
"; c #21120D",
": c #211715",
"> c #271711",
", c #281812",
"< c #2A1912",
"1 c #2B1913",
"2 c #2F1C14",
"3 c #391A0F",
"4 c #311B13",
"5 c #311D16",
"6 c #2F211C",
"7 c #362017",
"8 c #392016",
"9 c #3B231A",
"0 c #202020",
"q c gray13",
"w c #252525",
"e c gray15",
"r c #282828",
"t c gray16",
"y c #2A2A2A",
"u c gray17",
"i c #2C2C2C",
"p c gray18",
"a c #2F2F2F",
"s c #352823",
"d c #382A25",
"f c #313131",
"g c #323232",
"h c #3F3F3F",
"j c #432115",
"k c #42251B",
"l c #47281C",
"z c #47291D",
"x c #4E2A1C",
"c c #573426",
"v c #523429",
"b c #5D3728",
"n c #5D3729",
"m c #633525",
"M c #673B2B",
"N c #6E402F",
"B c #724332",
"V c #784532",
"C c #7B4936",
"Z c #7C4A37",
"A c #454141",
"S c #636161",
"D c DimGray",
"F c #6F6B6A",
"G c #7C7C7C",
"H c #8D543E",
"J c #817E7C",
"K c #9C9B9B",
"L c #A0A0A0",
"P c #AEADAD",
"I c gray72",
"U c None",
/* pixels */
"UUUUUpy=$UUUUUUU",
"UUUUUpy*@XUUUUUU",
"UUUUUpw&XXXUUUUU",
"UUUUUy=&XX.UUUUU",
"UUUUgy*$..XUUUUU",
"UUUUgy*@..XUUUUU",
"UUUUpw&XXXXUUUUU",
"UUUUkv6XAKIUUUUU",
"UUUHZb4<KIIUUUUU",
"UUUmNb9<AIIUUUUU",
"UUUVBc52&JIIUUUU",
"UUUZMl5;sFPIUUUU",
"UUUxj52;dSDIUUUU",
"UUU3z2;;,UGIIUUU",
"UUUUUO>,UUUUUUUU",
"UUUUUUUUUUUUUUUU"
};
