/* XPM */
static char *kscd-16[] = {
/* columns rows colors chars-per-pixel */
"16 16 231 2",
"   c black",
".  c #010306",
"X  c #020912",
"o  c #1F1D19",
"O  c #05133C",
"+  c #202023",
"@  c #091846",
"#  c #081948",
"$  c #0B1F58",
"%  c #132D71",
"&  c #152F72",
"*  c #182F70",
"=  c #183072",
"-  c #193172",
";  c #1A3172",
":  c #1D3374",
">  c #1F3677",
",  c #242D49",
"<  c #28365E",
"1  c #2D3A63",
"2  c #2E3C62",
"3  c #2F3C62",
"4  c #2F3C63",
"5  c #2F3C64",
"6  c #213572",
"7  c #303D64",
"8  c #2E4EAC",
"9  c #3B70DA",
"0  c #546BAB",
"q  c #6C7F9A",
"w  c #436BD1",
"e  c #4F74D3",
"r  c #5176D3",
"t  c #597DD5",
"y  c #5A7DD4",
"u  c #5B7DD5",
"i  c #4B7DE1",
"p  c #5C8DDB",
"a  c #5885E2",
"s  c #6980C2",
"d  c #6586D8",
"f  c #628BDD",
"g  c #6A8AD9",
"h  c #728FDB",
"j  c #7D97DF",
"k  c #7E99DD",
"l  c #6284E4",
"z  c #6092EE",
"x  c #6B97E6",
"c  c #6999E2",
"v  c #6E9CE7",
"b  c #6B9BEA",
"n  c #729CE7",
"m  c #749CE3",
"M  c #759FE6",
"N  c #769EE7",
"B  c #769EE8",
"V  c #7895E4",
"C  c #7A9DE1",
"Z  c #7B9CE6",
"A  c #7C9FE1",
"S  c #7B9FE8",
"D  c #7D9EE8",
"F  c #60A4EF",
"G  c #6FB3F1",
"H  c #75A0E1",
"J  c #76A2EB",
"K  c #75A5EA",
"L  c #76A6EE",
"P  c #70ACEE",
"I  c #79A1E1",
"U  c #7BA2E7",
"Y  c #79A2EF",
"T  c #7FA0E8",
"R  c #7FA6E9",
"E  c #7DAAEE",
"W  c #7EA9ED",
"Q  c #78B4ED",
"!  c #77B4F1",
"~  c #7EB9F3",
"^  c #7EBAF3",
"/  c #889FDF",
"(  c #8DA4C7",
")  c #8AA4DD",
"_  c #81A0E7",
"`  c #80A3E4",
"'  c #82A1E6",
"]  c #81A6E5",
"[  c #82A2E8",
"{  c #85A4EA",
"}  c #87A7EB",
"|  c #87A6EC",
" . c #80AAEB",
".. c #82A9EA",
"X. c #83AFEB",
"o. c #84AAEA",
"O. c #87AFEC",
"+. c #88A7EC",
"@. c #89A8E7",
"#. c #89ABE7",
"$. c #8BABE6",
"%. c #8DA9E5",
"&. c #8CA9E6",
"*. c #89A8EC",
"=. c #89A8ED",
"-. c #8DADEA",
";. c #8FB6ED",
":. c #82B1F1",
">. c #80B5F2",
",. c #84B0F0",
"<. c #86B1F1",
"1. c #82BAF3",
"2. c #8BB4F0",
"3. c #8FB6F0",
"4. c #88BAF4",
"5. c #8CBBF3",
"6. c #90AFE7",
"7. c #90AFE9",
"8. c #90AFEE",
"9. c #95ADED",
"0. c #90B1EB",
"q. c #90B1ED",
"w. c #90B2ED",
"e. c #92B1ED",
"r. c #92B1EE",
"t. c #91B4E9",
"y. c #90B6ED",
"u. c #96B0E9",
"i. c #94B9ED",
"p. c #95B8EE",
"a. c #9FB4E7",
"s. c #99B4EB",
"d. c #9FB7E9",
"f. c #9FB8E8",
"g. c #9FBAEA",
"h. c #9FBBEE",
"j. c #9DBCEA",
"k. c #9DBDEE",
"l. c #93B9F3",
"z. c #92BAF2",
"x. c #94B9F0",
"c. c #97B9F0",
"v. c #96BCF2",
"b. c #96BEF3",
"n. c #96BDF5",
"m. c #98BCF3",
"M. c #98BDF3",
"N. c #ACBEDA",
"B. c #A2BFEC",
"V. c #A4BCED",
"C. c #A1BFF0",
"Z. c #8FC0F4",
"A. c #93C1F4",
"S. c #9FC0F1",
"D. c #9EC0F4",
"F. c #B3C4DA",
"G. c #AFC3E7",
"H. c #ABC0EB",
"J. c #A9C0ED",
"K. c #ACC2EB",
"L. c #ACC1EE",
"P. c #AEC3EE",
"I. c #A2C1F2",
"U. c #A3C2F3",
"Y. c #A4C2F0",
"T. c #A2C0F9",
"R. c #A8C2F0",
"E. c #ABC2F2",
"W. c #ABC5F3",
"Q. c #ADC5F0",
"!. c #ACC7F3",
"~. c #AEC6F2",
"^. c #AFC9F4",
"/. c #B4C9EF",
"(. c #BBCEE9",
"). c #BACDEF",
"_. c #B0CAF0",
"`. c #B1CBF2",
"'. c #B1CCF4",
"]. c #B2CCF6",
"[. c #B4CCF6",
"{. c #B4CEF5",
"}. c #B9CFF2",
"|. c #BACDF0",
" X c #BACDF1",
".X c #BBCFF0",
"XX c #BAD0F3",
"oX c #BDD3F3",
"OX c #BCD2F5",
"+X c #BDD2F4",
"@X c #BFD4F1",
"#X c #C0CCE0",
"$X c #C3D2E8",
"%X c #C6D5EA",
"&X c #CFDAEB",
"*X c #CFDBEA",
"=X c #CFDBEE",
"-X c #C0D3F4",
";X c #C4D4F3",
":X c #C5D7F3",
">X c #C6D7F3",
",X c #C7D7F4",
"<X c #C7D8F4",
"1X c #CAD7F4",
"2X c #CADAF1",
"3X c #CADBF3",
"4X c #C9D8F6",
"5X c #C9DAF6",
"6X c #CBDCF5",
"7X c #CBDDF7",
"8X c #CFDDF3",
"9X c #CFDEF6",
"0X c #D0D9E7",
"qX c #D1DDEF",
"wX c #D2DDF0",
"eX c #D0DEF6",
"rX c #D0DFF6",
"tX c #D1DFF6",
"yX c #CEE0F7",
"uX c #D2E0F6",
"iX c #D4E0F6",
"pX c #D3E1FB",
"aX c #DCE8FB",
"sX c #DCE9FA",
"dX c #DCEAFB",
"fX c #DEE9F9",
"gX c #E0E2E4",
"hX c #E1ECFC",
"jX c #E3EEFC",
"kX c #E4EFFD",
"lX c None",
/* pixels */
"lXlXlXlXlX8X(.$X%XF.(.gXlXlXlXlX",
"# s 0 $ ( 0X*X*X=XqXwXN.X lXlXlX",
"j 1X4XpXa.) G.2X2X6X6XrX-X. lXlX",
"/  X-X>X>X;XV.&.9.s.q.q.T.q lXlX",
"k ~.}.oXoXoX XK.V.E.P.~.V.' > lX",
"h h.`.`.'.].B.U.Y.B.E.'.~.J.9.@ ",
"d q.j.k.S.D.i.M.M.M.S.].].!.&.6 ",
"t R t.i.v.M.3.2.2.P Q 5.b.x.f : ",
"r B O.;.l.b.l.J z F G ! ~ c 9 % ",
"r n W ;.o.W K ,.,.~ ~ 1.2.p i & ",
"w x L v  XtX).m d.X.A.A.H b a & ",
"t B W M tXkXpX] sXtXg.I ..J U ; ",
"g &.sX$.9XjX9XA sXjX/.U 5XJ.r.; ",
"t @.0.] ,XdX,XC .X6.q.x.7.-.' * ",
"8 V { { D ' D ' D *.*.| | ' l O ",
"+ < 7 7 7 1 5 7 7 1 5 5 5 1 , o "
};
