/* XPM */
static char *kscd[] = {
/* columns rows colors chars-per-pixel */
"32 32 192 2",
"   c #000000",
".  c #010419",
"X  c #020817",
"o  c #020A1F",
"O  c #030B20",
"+  c #000E3C",
"@  c #031136",
"#  c #04133B",
"$  c #3F3E3A",
"%  c #001453",
"&  c #061B55",
"*  c #0B1E54",
"=  c #091F5C",
"-  c #0B205B",
";  c #0D2872",
":  c #38475B",
">  c #403E3A",
",  c #41403E",
"<  c #4C5B6F",
"1  c #42597E",
"2  c #072787",
"3  c #0E2B80",
"4  c #082C8E",
"5  c #102E85",
"6  c #19368E",
"7  c #1D3A94",
"8  c #213F95",
"9  c #1E44B1",
"0  c #234296",
"q  c #244398",
"w  c #284EBB",
"e  c #264DC0",
"r  c #2654CC",
"t  c #2857CE",
"y  c #2C59CE",
"u  c #3157C7",
"i  c #3358C6",
"p  c #335BCA",
"a  c #315ED0",
"s  c #385ED1",
"d  c #3B61CC",
"f  c #3662D1",
"g  c #3A63D1",
"h  c #3B6BD5",
"j  c #566B8A",
"k  c #4067C5",
"l  c #4065CB",
"z  c #4469CE",
"x  c #4A6DCE",
"c  c #416BD3",
"v  c #496FD4",
"b  c #4C7BCD",
"n  c #4372D5",
"m  c #4B71D5",
"M  c #4A79DB",
"N  c #5274D0",
"B  c #577AD1",
"V  c #537DDA",
"C  c #5C7BD2",
"Z  c #6F85A6",
"A  c #7E96BB",
"S  c #4D80DF",
"D  c #5182D6",
"F  c #5F82D6",
"G  c #5C83DC",
"H  c #5C8AD2",
"J  c #5C8DDA",
"K  c #5484E0",
"L  c #5C8CE3",
"P  c #5C95EE",
"I  c #599EEF",
"U  c #55A4EA",
"Y  c #5AA2EE",
"T  c #6482D6",
"R  c #6385DE",
"E  c #6589DB",
"W  c #6B87D7",
"Q  c #6B8CDC",
"!  c #6A95D7",
"~  c #6C91DB",
"^  c #718DDA",
"/  c #7492DC",
"(  c #749DDA",
")  c #7894DD",
"_  c #7E9BD6",
"`  c #7B9BDD",
"'  c #628EE2",
"]  c #6394EB",
"[  c #679AE6",
"{  c #6798EF",
"}  c #6B93E2",
"|  c #6B97EE",
" . c #6D9AE4",
".. c #6C9AE9",
"X. c #6B96F0",
"o. c #7194E0",
"O. c #739CE4",
"+. c #729FEB",
"@. c #7997E0",
"#. c #7D9CE3",
"$. c #7EA1DF",
"%. c #68A3EF",
"&. c #6BAFEE",
"*. c #74A0E6",
"=. c #74A2EA",
"-. c #71AFED",
";. c #7CA1E4",
":. c #79A5EC",
">. c #7DA8E6",
",. c #7CA8ED",
"<. c #75A6F0",
"1. c #7CA4F1",
"2. c #7CABF0",
"3. c #73B3F2",
"4. c #7DB3F2",
"5. c #78B8F3",
"6. c #809EE3",
"7. c #89A1C3",
"8. c #8CA4CA",
"9. c #88A5DC",
"0. c #8EA9DF",
"q. c #84A4E3",
"w. c #80A2E9",
"e. c #86A8E6",
"r. c #84ACEC",
"t. c #8AA5E4",
"y. c #8BA9E5",
"u. c #8CABE9",
"i. c #83AEF1",
"p. c #85B3EF",
"a. c #8CB2EB",
"s. c #82B2F1",
"d. c #83BAF2",
"f. c #8CB4F1",
"g. c #8BBCF2",
"h. c #92ACE5",
"j. c #98ADE0",
"k. c #93B4EC",
"l. c #95BBEE",
"z. c #9BB4E8",
"x. c #9DBBE6",
"c. c #9CBAEC",
"v. c #90B6F1",
"b. c #94BAF2",
"n. c #9ABDF3",
"m. c #A8BBD7",
"M. c #B3BECF",
"N. c #A4BCE5",
"B. c #A3BCEB",
"V. c #ABBFEB",
"C. c #A3BFF1",
"Z. c #93C1F4",
"A. c #9DC1F2",
"S. c #A0C0EF",
"D. c #AAC3E6",
"F. c #ACC2ED",
"G. c #AEC8EE",
"H. c #A2C1F1",
"J. c #ABC4F1",
"K. c #ADC9F3",
"L. c #AAC9FB",
"P. c #B3C6E3",
"I. c #B0C4ED",
"U. c #B5C8EE",
"Y. c #BBCDE7",
"T. c #BBCAEC",
"R. c #B3C7F0",
"E. c #B2CBF3",
"W. c #BACDF1",
"Q. c #BFD0EB",
"!. c #B7D0F4",
"~. c #BBD1F3",
"^. c #C2CDDC",
"/. c #C1CEEF",
"(. c #C4D2E7",
"). c #C3D2EB",
"_. c #CBD5E3",
"`. c #C9D6EA",
"'. c #CDD9EC",
"]. c #C2D3F2",
"[. c #C5D9F4",
"{. c #C6DBFA",
"}. c #C9D6F2",
"|. c #CBDBF3",
" X c #C8DDFC",
".X c #D2DCEB",
"XX c #D7E1ED",
"oX c #D3E1F7",
"OX c #D2E2F9",
"+X c #DEEAFA",
"@X c #E0ECFB",
"#X c None",
/* pixels */
"#X#X#X#X#X#X#X#X#X#X#X+XW.x.D.Y.Q.D.7.m.^.#X#X#X#X#X#X#X#X#X#X#X",
"#X#X#X#X#X#X#X#X#X'.B.P._..XXX.X.XXXXX.X(.8.M.#X#X#X#X#X#X#X#X#X",
"#X+ 4 6 2 % . #X1 P._.'.'..X.X'.XX'..X.X'.XXQ.j #X#X#X#X#X#X#X#X",
"= R }.}.}.B.} p 9._._.`.`.`.`.'.}.'.'.'.|.'.'.|.A   #X#X#X#X#X#X",
"e /./.]./.].}.|.j.B _ (.`.`.`.'.'.|.|.|.|.[.'.[.|.Z #X#X#X#X#X#X",
"x /././././.}.}.}.}.N.F / T.[.[.[.[.[.[.[.{.{.|.[.{.: #X#X#X#X#X",
"C T.W.W.~.[.}.}.].].].].B.E W z.~.[.OX X X X X X{.{.G.  #X#X#X#X",
"C V.R.E.!.].[.[.].].].W.~.Q.U.y./ E E Q E E G L } ;.L.< #X#X#X#X",
"C V.V.R.!.Q.~.[.~.~.~.~.~.W.E.I.I.U.F.F.R.R.J.V.V.u.} k &   #X#X",
"C B.C.J.!.!.~.~.~.~.~.~.!.F.N.B.B.B.B.J.V.V.K.K.J.V.V.B.W 9   #X",
"N z.C.C.K.U.U.!.!.!.~.!.K.N.J.H.C.C.C.C.K.J.K.K.K.J.C.C.j.) ;   ",
"m h.k.C.G.G.K.K.K.K.K.K.c.n.H.H.H.H.C.C.J.C.E.E.K.K.J.C.h.h.i   ",
"x 6.u.b.B.B.S.S.A.A.H.A.l.n.n.n.n.n.n.n.S.S.W.E.E.K.J.F.0.6.l . ",
"x 6.t.a.c.k.c.c.A.A.H.n.b.k.b.b.b.b.b.b.A.S.E.L.L.K.K.H.9.6.v o ",
"x @.6.r.k.k.l.l.n.b.A.b.b.a.f.f.v.f.v.g.g.l.A.H.K.K.K.n.` #.v o ",
"l / +.r.a.h.k.l.l.b.Z.b.v.f.p.f.f.<.I U U 3.5.2.4.s.r.=.b v p O ",
"d } O.:.r.a.a.l.b.b.b.b.v.f.f.1.] P I Y &.3.3.5.4.p.4.J n f r o ",
"d Q o.:.,.a.k.v.f.b.b.b.n.f.+.| X.{ %.&.3.5.3.5.5.p.4.b M h y o ",
"d E } =.,.r.a.a.b.b.n.g.s.2.s.r.i.2.4.5.5.5.5.4.d.d.O.D M n y o ",
"d E } =.,.,.a.a.+.;.;.*.*...g.,.s.d.d.d.d.d.g.d.d.p.H L K M y o ",
"p G } +.:.2.,. .y.W.W.W.W.y.*.~ #.;.g.g.g.g.g.g.g.! [ ] L M p O ",
"p G E ..=.<.<.} W.+X+X+X+XT.;.e.].W.y.>.Z.Z.n.g.( ..=...' V f O ",
"d E } +.<.2.,.O.W.+X@X@X+XW.q.y.|.@XOXF.q.a.a.$.*.2.:.=.} E f o ",
"d h.;.;.;.k.e.O.W.+X@X@X+X!.e.y.|.@X+X+X|.c.~ ,.e.k.;.:.;.y.a O ",
"d k.y.y.].@XB.;.W.@X@X@X+XW.$.e.|.@X+X@X+X~.) +.c.@X].u.e.y.g O ",
"z h.u.t.~.@Xc.#.W.+X+X@X+XW.;.q.|.+X+X|.B.6.u.v.N.@X~.u.u.h.g O ",
"l h.q.u.r.z.e.q.W.@X+X+X@XW.q.e.OXOXW.q.e.b.b.c.e.k.u.u.q.y.s o ",
"i ^ ` u.k.k.a.@.V.|.|.|. XB.` #.B.h.;.h.c.k.k.v.k.k.h.u.#.W p X ",
"w ^ ) 6.q.u.u.q.~ q.q.q.q.Q t.} / e.u.u.u.u.u.u.u.u.e.q.) W e   ",
"& s C ^ @.#.6.#.6.#.#.6.#.6.#.6.6.6.6.6.#.6.6.6.6.6.@.^ C g =   ",
"#X@ 5 7 8 q 8 q q q q q q q q q q q q q q q q q 8 8 0 7 5 #     ",
"#X#X> > $ $ $ $ $ $ $ $ $ > $ $ $ $ $ > $ > > > > > > > > , #X#X"
};
