/* XPM */
static char *kappfinder[] = {
/* columns rows colors chars-per-pixel */
"32 32 207 2",
"   c black",
".  c #635B67",
"X  c #0032A4",
"o  c #053AA9",
"O  c #083FAD",
"+  c #0234C7",
"@  c #0336E3",
"#  c #0941AE",
"$  c #0A44B0",
"%  c #0E4AB3",
"&  c #104EB6",
"*  c #1353BA",
"=  c #1759BE",
"-  c #185BBF",
";  c #29448D",
":  c #195EC1",
">  c #0349FF",
",  c #0A4FFF",
"<  c #0D53FF",
"1  c #1157FF",
"2  c #145AFF",
"3  c #195FFF",
"4  c #1D64C5",
"5  c #1F68C8",
"6  c #1C62FF",
"7  c #226CCA",
"8  c #2572CE",
"9  c #2775D0",
"0  c #297AD3",
"q  c #2166FF",
"w  c #2368FF",
"e  c #286EFF",
"r  c #2B70FF",
"t  c #3174FE",
"y  c #357BFF",
"u  c #3A7FFF",
"i  c #666685",
"p  c #757793",
"a  c #787793",
"s  c #7B7B96",
"d  c #2E82D9",
"f  c #3186DB",
"g  c #338BDE",
"h  c #368FE1",
"j  c #3D82FF",
"k  c #3894E4",
"l  c #7F8AA7",
"z  c #5D99DD",
"x  c #4187FF",
"c  c #4489FF",
"v  c #498EFF",
"b  c #4E93FF",
"n  c #5A8EF9",
"m  c #5196FF",
"M  c #559AFF",
"N  c #589DFF",
"B  c #4AA1EB",
"V  c #5EA3FF",
"C  c #609CDF",
"Z  c #609EE0",
"A  c #63A3E3",
"S  c #66A8E6",
"D  c #65ABE9",
"F  c #69ADE9",
"G  c #65A9FF",
"H  c #6AAEFF",
"J  c #6DB1FF",
"K  c #71B5FF",
"L  c #76BAFF",
"P  c #78BCFF",
"I  c #7DC2FD",
"U  c #8A5D38",
"Y  c #955E28",
"T  c #9B6428",
"R  c #A26929",
"E  c #A96F2A",
"W  c #AD7026",
"Q  c #AD7129",
"!  c #B47526",
"~  c #B17529",
"^  c #B6792A",
"/  c #BB7B27",
"(  c #BC7D29",
")  c #A27447",
"_  c #A2774C",
"`  c #DF951E",
"'  c #C28027",
"]  c #C3832A",
"[  c #C98628",
"{  c #CC892A",
"}  c #C98A30",
"|  c #D18C29",
" . c #E0971F",
".. c #E39A21",
"X. c #C89246",
"o. c #D39B43",
"O. c #D09849",
"+. c #D9A863",
"@. c #E3AF4B",
"#. c #F1BB56",
"$. c #F1BC59",
"%. c #F3C75F",
"&. c #EDC565",
"*. c #E9C071",
"=. c #F0C661",
"-. c #868296",
";. c #82869E",
":. c #8989A2",
">. c #8590AD",
",. c #8D99AE",
"<. c #8499B4",
"1. c #938FA1",
"2. c #9394AB",
"3. c #999EB2",
"4. c #A7A7BB",
"5. c #ABAABC",
"6. c #8FAED0",
"7. c #99A9C7",
"8. c #A4B1C2",
"9. c #A8B5C4",
"0. c #A4B5D0",
"q. c #A7B8D4",
"w. c #ACBCD7",
"e. c #B2B2C3",
"r. c #BBBBCB",
"t. c #A5B7E6",
"y. c #AFBBEB",
"u. c #86C4F6",
"i. c #82C6FF",
"p. c #89C7F7",
"a. c #88CCFF",
"s. c #95C1EB",
"d. c #98C4EF",
"f. c #9ECCEF",
"g. c #95CDF3",
"h. c #91CDF8",
"j. c #96D1F8",
"k. c #99D4F8",
"l. c #9ED8F9",
"z. c #A0C5D8",
"x. c #ADC2D4",
"c. c #B0C1CE",
"v. c #B0C5D1",
"b. c #B1CAD5",
"n. c #BBC9DD",
"m. c #A6C3E7",
"M. c #A0CEE7",
"N. c #A9C6E9",
"B. c #A9CEE9",
"V. c #ADD1E6",
"C. c #A0D6F4",
"Z. c #A3DCFA",
"A. c #B5C7F5",
"S. c #BCCEF0",
"D. c #BACCFB",
"F. c #BED0FE",
"G. c #A7E0FA",
"H. c #ABE3FA",
"J. c #BAE7EF",
"K. c #B0E7FB",
"L. c #B3EAFC",
"P. c #BAE9F4",
"I. c #BBEFFD",
"U. c #BDF2FD",
"Y. c #D8BB84",
"T. c #C2BEC4",
"R. c #F8DB96",
"E. c #F8DD99",
"W. c #FEF3BD",
"Q. c #C0C0CE",
"!. c #CCC7CD",
"~. c #CEC9CF",
"^. c #C3C5D2",
"/. c #CACAD5",
"(. c #CECDD9",
"). c #D1CFDB",
"_. c #D5D4DE",
"`. c #C4CCE1",
"'. c #C3D2E6",
"]. c #C2D3E8",
"[. c #CBD3E9",
"{. c #CFDBE2",
"}. c #CEDFFC",
"|. c #D6D5E0",
" X c #D8D7E0",
".X c #DCDCE4",
"XX c #C2F5FD",
"oX c #C6FAFE",
"OX c #CCF1F4",
"+X c #CAF5FD",
"@X c #CBFCFE",
"#X c #D8EBEF",
"$X c #D4E5FF",
"%X c #DAECFF",
"&X c #D3FEFE",
"*X c #DFF0FF",
"=X c #DBFEFF",
"-X c #E4E3EB",
";X c #E9E9EE",
":X c #EDEDF1",
">X c #E3FFFF",
",X c #EBFEFE",
"<X c #F1F1F5",
"1X c #F5F5F8",
"2X c #F3FFFF",
"3X c #FEFEFE",
"4X c None",
/* pixels */
"4X4X4X4X4X4X4X4X4X4X4X4X4X4X4X4X4X4X4X4X4X4X4X4X4X4X4X4X4X4X4X4X",
"k k k h g f d 0 0 9 8 7 5 4 : - = * % % $ O o o X X 4X4X4X4X4X4X",
"k I a.i.I P J H V N m v x u t r q 6 2 < > > > > + X 4X4X4X4X4X4X",
"B a.i.I L J H G V M b c j u t e q 3 1 , > > > > @ X 4X4X4X4X4X4X",
"B i.I P J J G G N m b x j y n t 6 2 1 , > > > > @ X 4X4X4X4X4X4X",
"D >X%X%X%X%X$X$X$X$X}.S.[.'.'.'.`.t.A.F.D.D.D.D.y.X 4X4X4X4X4X4X",
"F 3X3X3X3X3X3X3X3X;X'.d.u.h.j.k.j.f.n._.1X1X1X1X-XX 4X4X4X4X4X4X",
"F 3X3X3X3X3X3X3X;XN.p.k.l.Z.G.H.H.L.Z.B./.<X1X1X-XX 4X4X4X4X4X4X",
"F 3X3X3X3X3X3X;Xm.h.l.H.L.L.L.Z.l.K.I.L.V.^.<X<X-XX 4X4X4X4X4X4X",
"F 3X3X3X3X3X1Xn.u.Z.L.U.oX@XL.oXK.K.L.U.L.x.|.<X.XX 4X4X4X4X4X4X",
"S 3X3X3X3X3X.Xs.j.H.U.@X=X=XL.+XU.U.U.U.@XP.9.<X.XX 4X4X4X4X4X4X",
"F 3X3X3X3X3X^.u.Z.L.oX=X,X2XI.XX@XoXoX@X@X@X5.-X_.X 4X4X4X4X4X4X",
"A 3X3X3X3X1Xq.j.Z.L.@X=X2X>XU.+X&X&X&X&X&X&Xb.(._.X 4X4X4X4X4X4X",
"A 3X3X3X3X;Xw.l.Z.H.L.+X+XXXoX>X&X=X&X=X=X=Xx.r._.X 4X4X4X4X4X4X",
"A 3X3X3X3X;X0.l.G.L.L.H.L.XX=X>X=X=X>X>X>X=Xc.r._.X 4X4X4X4X4X4X",
"A 3X3X3X3X3X7.j.G.Z.L.oX+X=X=X=X=X>X,X,X,X,X9.).).X 4X4X4X4X4X4X",
"A 3X3X3X3X3X5.g.H.G.G.L.U.@X&X=X>X,X2X2X2X,X;..X).X 4X4X4X4X4X4X",
"A 3X3X3X3X3X/.6.G.L.G.L.XX@X&X>X>X,X2X3X2X{.2.-X(.X 4X4X4X4X4X4X",
"A 3X3X3X3X3X1X2.g.L.L.L.XX@X&X=X>X,X2X3X3Xl e.-X(.X 4X4X4X4X4X4X",
"C 3X3X3X3X3X3X_.>.l.U.U.U.@X&X=X>X,X,X2X3.:.:.-X(.X 4X4X4X4X4X4X",
"z 3X3X3X3X3X1X3X/.l f.U.@X@X@X=X=X>X#X:.:.2.5.!.+.; 4X4X4X4X4X4X",
"C 3X3X3X3X1X1X1X1X.X:.<.z.J.@XOXb.,.a 5.2.e.T.O...} | 4X4X4X4X4X",
"z 1X1X<X:X:X:X;X;X-X-XQ.2.s s s :.5._._.|./.X.*.$...| { 4X4X4X4X",
"0 8 7 7 7 4 - = * * & % # O o X X X X X X . @.W.E.$...[ ] 4X4X4X",
"4X4X4X4X4X4X4X4X4X4X4X4X4X4X4X4X4X4X4X4X4X] [ %.W.E.$...' ( 4X4X",
"4X4X4X4X4X4X4X4X4X4X4X4X4X4X4X4X4X4X4X4X4X4X( ( =.W.E.$.../ ^ 4X",
"4X4X4X4X4X4X4X4X4X4X4X4X4X4X4X4X4X4X4X4X4X4X4X~ ^ =.W.E.#.` ! Q ",
"4X4X4X4X4X4X4X4X4X4X4X4X4X4X4X4X4X4X4X4X4X4X4X4XQ ~ &.W.R.#.` W ",
"4X4X4X4X4X4X4X4X4X4X4X4X4X4X4X4X4X4X4X4X4X4X4X4X4XR E &.W.R.o._ ",
"4X4X4X4X4X4X4X4X4X4X4X4X4X4X4X4X4X4X4X4X4X4X4X4X4X4XT R &.Y.) 1.",
"4X4X4X4X4X4X4X4X4X4X4X4X4X4X4X4X4X4X4X4X4X4X4X4X4X4X4XY T U -.i ",
"4X4X4X4X4X4X4X4X4X4X4X4X4X4X4X4X4X4X4X4X4X4X4X4X4X4X4X4X4X4X4X4X"
};
