/* XPM */
static char *kcontrol[] = {
/* columns rows colors chars-per-pixel */
"32 32 257 2",
"   c #000000",
".  c #0C0C0C",
"X  c #001200",
"o  c #001A00",
"O  c gray8",
"+  c #1B1B1B",
"@  c #002500",
"#  c #002900",
"$  c #232323",
"%  c #2C2C2C",
"&  c #343434",
"*  c #3A3A3A",
"=  c #1C5019",
"-  c #0E740E",
";  c #196E17",
":  c #257601",
">  c #337D6D",
",  c #444544",
"<  c #4C4C4C",
"1  c #57565B",
"2  c #505050",
"3  c #4B7744",
"4  c #646464",
"5  c #7B797B",
"6  c #747376",
"7  c #697068",
"8  c #003BAA",
"9  c #0441AC",
"0  c #0B4AB3",
"q  c #104EB3",
"w  c #1452B6",
"e  c #1255BC",
"r  c #1C5BBC",
"t  c #1459B6",
"y  c #1C63BC",
"u  c #2A59AC",
"i  c #275AAD",
"p  c #2160BF",
"a  c #266FBF",
"s  c #3666B5",
"d  c #1D60C2",
"f  c #2464C2",
"g  c #2866C4",
"h  c #2B6AC5",
"j  c #2C6DC8",
"k  c #2D70CB",
"l  c #2E77C5",
"z  c #3373CB",
"x  c #3878CE",
"c  c #3679CB",
"v  c #3B7CD0",
"b  c #3176D0",
"n  c #446AAA",
"m  c #406FBD",
"M  c #4172BB",
"N  c #526FA2",
"B  c #5C76AB",
"V  c #507AB7",
"C  c #617AAF",
"Z  c #427ED0",
"A  c #4576C1",
"S  c #129911",
"D  c #109710",
"F  c #089308",
"G  c #1C833C",
"H  c #08A100",
"J  c #12AA00",
"K  c #18A402",
"L  c #1DA212",
"P  c #3D8A18",
"I  c #20853C",
"U  c #2F852A",
"Y  c #21AB0B",
"T  c #2BB415",
"R  c #39B72D",
"E  c #36B334",
"W  c #388B52",
"Q  c #3DC80C",
"!  c #47883F",
"~  c #40A836",
"^  c #5D986F",
"/  c #57B64B",
"(  c #5DB35C",
")  c #54B254",
"_  c #58AC4B",
"`  c #6C9A58",
"'  c #6EBD4C",
"]  c #64BB5A",
"[  c #70BE4D",
"{  c #77B456",
"}  c #6B8D6B",
"|  c #45CA17",
" . c #4CD413",
".. c #56D326",
"X. c #4DC531",
"o. c #64E02F",
"O. c #58C54C",
"+. c #62CE46",
"@. c #62CB49",
"#. c #69CA55",
"$. c #73D25A",
"%. c #6BD646",
"&. c #6AC569",
"*. c #6FC86F",
"=. c #71CD68",
"-. c #78CA77",
";. c #79D461",
":. c #79D663",
">. c #3E80D3",
",. c #4492AF",
"<. c #5C82BA",
"1. c #58A0B4",
"2. c #718EBB",
"3. c #6E8BB9",
"4. c #4381CF",
"5. c #4384D5",
"6. c #4789D7",
"7. c #4688D9",
"8. c #4A8CDA",
"9. c #4587D7",
"0. c #4E90DC",
"q. c #4991D3",
"w. c #5987C5",
"e. c #508DD8",
"r. c #5293DD",
"t. c #4D92E0",
"y. c #5396E0",
"u. c #5A9BE2",
"i. c #579BE4",
"p. c #5DA0E6",
"a. c #5CA2EA",
"s. c #6794CA",
"d. c #6D9CD1",
"f. c #7095C7",
"g. c #6299EA",
"h. c #6691FB",
"j. c #73A3D5",
"k. c #7CACDA",
"l. c #63A2E5",
"z. c #62A6EA",
"x. c #65A9EC",
"c. c #68AEF1",
"v. c #6CB3F4",
"b. c #857587",
"n. c #849E7D",
"m. c #81A954",
"M. c #80AA57",
"N. c #85AB47",
"B. c #9ABD60",
"V. c #8AAB7A",
"C. c #8ED84E",
"Z. c #82DA64",
"A. c #85DA6A",
"S. c #8ADA76",
"D. c #96D071",
"F. c #90ED5E",
"G. c #8EEA5D",
"H. c #92E96A",
"J. c #97E775",
"K. c #98F162",
"L. c #A2FF5B",
"P. c #BFE37C",
"I. c #A3F668",
"U. c #E7DA5D",
"Y. c #FFE161",
"T. c #FFEF7F",
"R. c #8B8B8B",
"E. c gray52",
"W. c gray62",
"Q. c #938D95",
"!. c #9780A1",
"~. c #9F9BA0",
"^. c #88A986",
"/. c #8EB08E",
"(. c #96BA8C",
"). c #9BBD9B",
"_. c #A2A2A2",
"`. c #A7AAA6",
"'. c #B2BFAD",
"]. c #B2B2B2",
"[. c #BCBCBD",
"{. c #B7B4B9",
"}. c #A7BFA3",
"|. c #829FC8",
" X c #81B2DE",
".X c #9FACC2",
"XX c #84B5E0",
"oX c #A3ABC0",
"OX c #A4BADE",
"+X c #A4B9E0",
"@X c #9EC09E",
"#X c #94DD88",
"$X c #83D283",
"%X c #9DE688",
"&X c #A1DB8A",
"*X c #A3D097",
"=X c #A7C9A3",
"-X c #BCC0BC",
";X c #A5EB88",
":X c #ABE895",
">X c #AAF68A",
",X c #B1EB98",
"<X c #BBF797",
"1X c #BCF1A4",
"2X c #B8EDA6",
"3X c #BCC9DF",
"4X c #B9C3C1",
"5X c #ACC1E3",
"6X c #FEB18C",
"7X c #FEB596",
"8X c #C0BCC0",
"9X c #C2D7BC",
"0X c #C6E388",
"qX c #C9EB9D",
"wX c #C7F9A7",
"eX c #C8F7B3",
"rX c #D6ECA5",
"tX c #D4F6A9",
"yX c #D2F8BA",
"uX c #D0E5B6",
"iX c #E3CD96",
"pX c #E5D29D",
"aX c #E5DFA0",
"sX c #F3CFB0",
"dX c #E8DEB8",
"fX c #FFF391",
"gX c #FFF39E",
"hX c #FFFFA7",
"jX c #E4EFB3",
"kX c #C3C3C3",
"lX c #CBCBCB",
"zX c #C7CBC7",
"xX c #CBCED0",
"cX c #D3D2D3",
"vX c #DBDBDB",
"bX c #D8D4D7",
"nX c #D2D6D2",
"mX c #DFDFE1",
"MX c #D3F8C0",
"NX c #C8F2C3",
"BX c #E2DBD3",
"VX c #E5E1DC",
"CX c #E7FEC2",
"ZX c #F2E9DF",
"AX c #E2E2E3",
"SX c #E2E5EA",
"DX c #E5E9EC",
"FX c #EAEAEB",
"GX c #EBE9E6",
"HX c #EBEEF1",
"JX c #EDF1F6",
"KX c #F0E6F1",
"LX c #F4F3F3",
"PX c #FEFEFE",
"IX c #F8F7F5",
"UX c #F3EFEA",
"YX c None",
/* pixels */
"$ 5 _._._._._._._._._._._._._._._._._._._._._._._.E.$ YXYXYXYXYX",
"4 FXPXPXPXPXPXPXPXPXPXPXPXPXPXPXPXPXPXPXPXPXPXPXPXPX`.. YXYXYXYX",
"].PXPXLXLXJXLXLXLXLXLXLXLXLXLXLXLXLXLXLXLXLXLXUXPXPXFX& YXYXYXYX",
"[.PXAXN V s.s.d.j.j.k. XXXXXXXk.k.j.d.s.s.w.<.s 3XPXFX* YXYXYXYX",
"[.PXAXu j >.7.t.i.a.x.c.v.v.v.c.z.a.y.t.>.>.b e OXPXFX& YXYXYXYX",
"[.PXAXs b >.7.0.y.u.a.x.x.x.x.z.p.y.t.8.>.v b f 5XPXFX& YXYXYXYX",
"-XPXAXM j v 5.7.0.r.u.p.p.p.l.u.y.t.8.7.>.x k f OXUXvX* YXYXYXYX",
"kXPXSXs j c v >.6.8.0.r.y.r.r.r.8.7.>.v b k f e OXGXAX& YX6 R.$ ",
"kXPXDXu r z z x Z 5.6.e.e.6.6.6.d.f.f.f.<.<.<.n .XzX8X4 , ].LX* ",
"kXPXDXu 8 r j z x v v 5.5.5.5.Z cXZXVXVXVXBXBXBXbXcXbXGXKXIXLX& ",
"zXPXFXu 8 8 w p j z z x x x x x f.|.d.2.3.B B B ].oX8X5 1 1 1 + ",
"zXPXFXu 8 0 q w p p h h j j j h y > ^ W ; G G G _ ' #.P : : X   ",
"lXPXHXs 9 w r r p p g h a h h g t { hXCXeXrXaXtXwXwXwXtXCXL.# YX",
"lXPXLXs q r p g h j z z z z z j p m.hXjX1XdXsXjXyXyXyXwXwXI.# YX",
"lXPXHXm e p g j z x x x Z Z x v h M.gXrX2X;X%XyXyXMX<XtXrXK.# YX",
"cXPXLXM d j k c x 5.5.6.9.9.6.5.l M.fXrX:X,X1X1XH.wX>XaX7XK.# YX",
"cXPXFXA d j z x 5.6.8.8.0.0.0.8.c M.fXqX%X*X2X;XH.wX>XpX7XK.# YX",
"cXPXJXw.j Z 6.8.r.r.p.l.l.l.l.g.q.{ Y.aXeX'.{.9X,X,XH.iX6XG.# YX",
"cXPXIXJXJXFXHXHXFXHXDXDXDXDXSXSXxXB.fXP.#Xn.Q.*XJ.J.;XqX0XG.# YX",
"W.PXPXPXPXIXLXLXFXFXGXSXBXVXvXvXzXD.gXC.X.$.&XS.,XH.H.&X9X&X# YX",
"+ `.AXvXvXvXbXcXvXvXbXnXcXcXcXcX-XN.U.0XO.=.&XS.A.%.J.V.!.(.# YX",
"YX  + $ + + + * _.xXzXzXkXkXkX[.-X^.! ] h.h.#XA.Z.Z.:X[ ` ' # YX",
"YXYXYXYXYX& R.bXvXbXUXGXFXDXDXDXFXFX/.] 1.,.S.$.$.Z.Z...o. .# YX",
"YXYXYXYX% vXPXPXPXAXAXLXIXIXIXLXAXbX).] R T =.@.$.$.$.....| # YX",
"YXYXYXYX5 PXPXIXLXLXAXvXvXAXvXnXlXbX/.( E E }.*X#.(.=X..| Q @ YX",
"YXYXYXYX* AXIXLXUXFXFXDXSXBXmXBXAXLX@X( E U b.-X' 7 ~.$.%.Q @ YX",
"YXYXYXYX  < {.AXFXFXFXDXDXFXDXGXFXLX).( E ; 2 _./ , 5 #.S.+.@ YX",
"YXYXYXYXYX  O 2 R.].kXlXbXbXbXnXlX8X} ( E - < ^./ = 3 Y +.#.@ YX",
"YXYXYXYXYXYXYX    . % * , , , , & + o ( E D -.$XE H J J #.O.# YX",
"YXYXYXYXYXYXYXYXYXYXYX            YXX ) $X&.*.*.=.=.=.=.#XX.# YX",
"YXYXYXYXYXYXYXYXYXYXYXYXYXYXYXYXYXYXo F S S S S S S L L Y K # YX",
"YXYXYXYXYXYXYXYXYXYXYXYXYXYXYXYXYXYX  X o o o o o o o o o o   YX"
};
