/* XPM */
static char *kdeprintfax[] = {
/* columns rows colors chars-per-pixel */
"32 32 94 2",
"   c #000000",
".  c gray4",
"X  c #131313",
"o  c #1C1C1C",
"O  c #212121",
"+  c gray17",
"@  c #343434",
"#  c #3B3B3B",
"$  c #434343",
"%  c #4B4B4B",
"&  c #545454",
"*  c #5E5E5E",
"=  c #626262",
"-  c gray42",
";  c #717171",
":  c #797979",
">  c #286CC6",
",  c #3474CB",
"<  c #09C709",
"1  c #46BA46",
"2  c #5EBD5C",
"3  c #62BB62",
"4  c #74C274",
"5  c #7FC57E",
"6  c #79DD79",
"7  c #568BD3",
"8  c #DF6363",
"9  c #DD7777",
"0  c #E07474",
"q  c gray52",
"w  c #8C8C8C",
"e  c #949494",
"r  c #9C9C9C",
"t  c #87BF88",
"y  c #95BC95",
"u  c #A09F9E",
"i  c #A2A2A2",
"p  c #ACABAB",
"a  c #B4B4B4",
"s  c #BCBCBC",
"d  c #84A3D6",
"f  c #92AEDD",
"g  c #96B0DE",
"h  c #9EBAE1",
"j  c #9CC79B",
"k  c #ABC5AB",
"l  c #AECCAE",
"z  c #BBC8BB",
"x  c #B0C7E2",
"c  c #B5CBE5",
"v  c #B8C7E2",
"b  c #BBCDE1",
"n  c #B8CFE8",
"m  c #BCD2EC",
"M  c #DB8383",
"N  c #DA8F8F",
"B  c #DD9595",
"V  c #DE9999",
"C  c #DDA0A0",
"Z  c #DCBABA",
"A  c #C3C3C3",
"S  c #C7CFC7",
"D  c #CACACA",
"F  c #CED0D3",
"G  c #CED1D8",
"H  c #DEC3C3",
"J  c #D3D3D3",
"K  c #D2D5DB",
"L  c #D5D8DF",
"P  c #DFD2D2",
"I  c #D9D6D9",
"U  c #DBDADB",
"Y  c #D6D9E0",
"T  c #D9DBE1",
"R  c #DEE3E3",
"E  c #E3DADA",
"W  c #E4E1DD",
"Q  c #E4E4E4",
"!  c #E4E5EC",
"~  c #E7E8E8",
"^  c #E9E6E2",
"/  c #EDE9E5",
"(  c #EBEBEB",
")  c #E4EDF7",
"_  c #E8ECF3",
"`  c #ECF2F2",
"'  c #F2EEEB",
"]  c #F4F1ED",
"[  c #F2F2F2",
"{  c #F5F7FB",
"}  c #F9F6F2",
"|  c #FCF9F5",
" . c #FCFCFC",
".. c None",
/* pixels */
"......................& ] ( ( ( ~ ~ ~ ( ~ ~ ^ ~ E $ ............",
"......................&  . . . . . . . . . . . .[ @ ............",
"......................=  .{ { {  . . . . . . . .` #   ..........",
"....................& p ( ] } } } {  . . . . . .~ r @ ..........",
"....................* A ~ ( ( ( ( ( ( ] ] ` [ { Q s % ..........",
"..............# ; % : A Q Q ~ ^ ~ ~ ( ( ( ( ( ] E s = @ =   ....",
"..% * @   ....: { [ I D ~ ^ Q ~ ( ~ ( ( _ ] ] { Q A s a r . ....",
"+ A I D = ; - r  . .D u p p p p p p p p p p p p i r s I s @ ....",
"e  . . .J W s ~ { _ ! Y U Y L L L K K K G G G F K D z U Q z + ..",
"r  . . .F z a  .v d f f f f f f f f f g g f f g U 5 6 4 J Q :   ",
"r  . .{ D s D  .h > , , , , , , , , , , , , , 7 T 2 < 1 I Q w   ",
"r  .} [ D s I  .) m K n m m m n n c c c c c x b E L k S I I q   ",
"r  .` ( D s I  . . . .| | | | } ] ] / / ^ ^ W W U U U I J J q   ",
"u } ( ~ A s ~  . .{ { [ [ [ ( ( ( R J U W I J I I J F D J J w   ",
"u ` Q ~ A s Q  .{ { [ ] ] ` ( ~ ( J F J J D I F J D U D D D w   ",
"i ! Q E A s (  .{ [ ] ` ( ( ~ ~ Q W J J U J D J I D D D D D w   ",
"i ~ U I s s ( { } ] ` ( ( ( Q ! Q F D I J S J D D D U A D S w . ",
"i E I J s A ( } ` ( ` ( ~ ~ Q Q R U D J I D J J J D D A A A w   ",
"i U J J s s ( ] ( ` ( ~ Q Q Q E W J D I J D F F D D J A A A w . ",
"i J F D a A ( ` ( ^ ~ E Q Q U U U J J J D A I D D A P A A A w X ",
"i F D D a A ~ ` E B E N E U y J U F S D J D A D D D A s s s w X ",
"i D A z a s ~ ` 9 0 M 8 ! t 3 U I S J I A A U D A D U A s s w X ",
"i D A s p A G ( V H V Z Q j l I J J D J D D D D A A A A s i ;   ",
"= a p i s ~ A D R Q R R I U I J J D D D D A A A A A s a r ; O   ",
"& Q F F ~ [ ( I D A I J J J J J J D D D S A Z s p u e : $ .   ..",
"+ U ] ~ E U L J D s p p s z s s s a a p p i r i p p %       ....",
"  X O O O O o o o o @ s (  ._ ~ R U U J T R ( _ ] D # ..........",
"....................+ A [  . . . . . . .{ { ` ] ( F $ ..........",
"....................+ F }  . . .{ } [ ] ] ( ( ~ ~ L $ ..........",
"....................+ E ( ` ( ( ] ( ( ( ( ( Q Q Q ] % ..........",
"....................o s F A D A A D D A A D D A D D @ ..........",
"....................    .     .     .   .     .       .........."
};
