/* XPM */
static char *kdeprintfax-16[] = {
/* columns rows colors chars-per-pixel */
"16 16 168 2",
"   c black",
".  c gray2",
"X  c gray3",
"o  c #111111",
"O  c gray7",
"+  c gray9",
"@  c #191919",
"#  c gray10",
"$  c #202020",
"%  c gray14",
"&  c gray15",
"*  c #2D292D",
"=  c gray20",
"-  c #373737",
";  c #3F3F3F",
":  c gray28",
">  c #484848",
",  c gray29",
"<  c #4C4C4C",
"1  c #4E4C4E",
"2  c #505050",
"3  c gray32",
"4  c #5B5B5B",
"5  c #5F5F5F",
"6  c #646464",
"7  c #676767",
"8  c DimGray",
"9  c #6A6A6A",
"0  c #6C6C6C",
"q  c #6F6F6F",
"w  c gray44",
"e  c gray46",
"r  c #7EC97C",
"t  c #7BA3D9",
"y  c #7EA6DB",
"u  c #7FA7DB",
"i  c #7CA6DD",
"p  c #7FA8DC",
"a  c gray51",
"s  c #898989",
"d  c #939393",
"f  c #959595",
"g  c #989898",
"h  c #A7A7A7",
"j  c #ACACAC",
"k  c gray68",
"l  c gray71",
"z  c gray72",
"x  c #BAB8BA",
"c  c gray73",
"v  c #BABBBB",
"b  c gray74",
"n  c gray",
"m  c #81A9DE",
"M  c #8DADE0",
"N  c #A1B6D7",
"B  c #A3B8D8",
"V  c #A4B8D9",
"C  c #A4B9DA",
"Z  c #A5B9DA",
"A  c #A7BCDF",
"S  c #AAB9DA",
"D  c #9BD39A",
"F  c #ADCDAF",
"G  c #B7CDB9",
"H  c #B4D2B8",
"J  c #BEC1C1",
"K  c #BEC2C1",
"L  c #A8C4E8",
"P  c #E19A9C",
"I  c #E1A5A5",
"U  c #C3BEC3",
"Y  c #C1CBB9",
"T  c #C0C0C0",
"R  c gray76",
"E  c #C3C3C3",
"W  c gray77",
"Q  c #C5C5C5",
"!  c gray78",
"~  c #C7C8C8",
"^  c #C9C7C9",
"/  c #CAC8C5",
"(  c #CAC9C6",
")  c #CCCAC7",
"_  c #C8C8C8",
"`  c #CACACA",
"'  c #CBCBCB",
"]  c #CBCDCB",
"[  c #CDCBC9",
"{  c #CCCBCB",
"}  c #CFCDCA",
"|  c gray80",
" . c #CDCCCD",
".. c #CDCDCD",
"X. c #CECECE",
"o. c #CFCECF",
"O. c gray81",
"+. c #C8D3C8",
"@. c #C8D4C8",
"#. c #DFC1C1",
"$. c #D1D0CC",
"%. c #D0D0D0",
"&. c gray82",
"*. c #D3D1D3",
"=. c #D2D2D2",
"-. c #D3D3D2",
";. c gray83",
":. c #D5D5D4",
">. c #D5D5D5",
",. c gray84",
"<. c #D7D7D7",
"1. c #DBD7D7",
"2. c #D8D2D9",
"3. c #D8D5D8",
"4. c #D8D8D8",
"5. c gray85",
"6. c #DBD8DB",
"7. c gray86",
"8. c #DADDDA",
"9. c #DCDBD9",
"0. c #DEDFDE",
"q. c #C7D6EE",
"w. c #E2C6C8",
"e. c #E0DFDF",
"r. c #E1E0DE",
"t. c #E2E1DE",
"y. c #E2E2E2",
"u. c #E4E3E3",
"i. c gray90",
"p. c #E6E5E5",
"a. c #E6E6E6",
"s. c #E7E7E7",
"d. c #E9E9E9",
"f. c #EAE9E9",
"g. c #EBEAE8",
"h. c #EBEAEA",
"j. c gray92",
"k. c #ECECEC",
"l. c #ECEDED",
"z. c gray93",
"x. c #EDEEEE",
"c. c #EEEDED",
"v. c #EEEEED",
"b. c #EEEEEE",
"n. c #EEEFEF",
"m. c #EFEFEF",
"M. c #F0F0EF",
"N. c #F1F1F1",
"B. c #F3F2F0",
"V. c gray95",
"C. c #F2F3F3",
"Z. c #F3F3F2",
"A. c #F3F3F3",
"S. c #F5F4F2",
"D. c #F4F4F4",
"F. c gray96",
"G. c #F7F6F4",
"H. c #F6F6F6",
"J. c gray97",
"K. c #F8F8F8",
"L. c #F9F9F9",
"P. c #FBFAF8",
"I. c gray98",
"U. c #FBFBFB",
"Y. c #FDFDFD",
"T. c #FFFFFE",
"R. c gray100",
"E. c None",
/* pixels */
"E.E.E.E.E.= z.H.V.C.V.R.d   E.E.",
"E.E.E.E.E.5 V.P.P.R.R.R.j . E.E.",
"E.E.E.@ > f M.v.z.V.V.P...: @ E.",
"6 d ; q S.( ( / _ } } $.x U 9 E.",
"=.R.=.1.q.A Z Z Z Z N S G D ] * ",
",.H.{ z.L i m m y y t M H r 8.1 ",
"=.j.! V.R.P.H.M.g.t.t.9.3.2.,., ",
"_ y.E H.H.V.z.j.0.-.-.,.=...=., ",
"Q 1.U B.C.z.j.s.3.,.%.%...{ { < ",
"U } n M.l.i.y.e.6.+...%.{ ! ! 2 ",
"b ! x g.I P Y F 2.%.{ ..' _ W 3 ",
"h x ) e.U w.@.+.;.%._ _ E W g % ",
"s 1.1.X.J J ..! E n z l k 4 o   ",
". @ + + X e P.H.z.s.i.n.=.$ E.E.",
"E.E.E.E.E.a R.R.R.P.P.H.i.& E.E.",
"E.E.E.E.E.- q 8 8 7 7 q 7 o E.E."
};
