/* XPM */
static char *keditbookmarks-16[] = {
/* columns rows colors chars-per-pixel */
"16 16 176 2",
"   c black",
".  c #020000",
"X  c #030100",
"o  c #050000",
"O  c #050100",
"+  c #060100",
"@  c #080100",
"#  c #0B0200",
"$  c #120600",
"%  c #220B00",
"&  c #290900",
"*  c #2A0E00",
"=  c #2F0E00",
"-  c #390E00",
";  c #3B0F00",
":  c #3B1300",
">  c #391500",
",  c #3C1500",
"<  c #461400",
"1  c #4B1500",
"2  c #4F1700",
"3  c #4F1C00",
"4  c #501400",
"5  c #501900",
"6  c #511900",
"7  c #6C1E00",
"8  c #642800",
"9  c #6A2500",
"0  c #742400",
"q  c #7F3A00",
"w  c #822700",
"e  c #852300",
"r  c #8D2900",
"t  c #923001",
"y  c #993700",
"u  c #A23700",
"i  c #A73D00",
"p  c #A83700",
"a  c #A93E00",
"s  c #964203",
"d  c #B84800",
"f  c #BC4D00",
"g  c #BF5500",
"h  c #B76108",
"j  c #CB3E00",
"k  c #CF4200",
"l  c #CE4600",
"z  c #CC4F00",
"x  c #C05900",
"c  c #D04E00",
"v  c #DB4600",
"b  c #DB4700",
"n  c #D84A00",
"m  c #DD4C00",
"M  c #DD5000",
"N  c #C96500",
"B  c #D16200",
"V  c #D26600",
"C  c #DD6D01",
"Z  c #DD741C",
"A  c #E04C00",
"S  c #E44800",
"D  c #E05100",
"F  c #E35001",
"G  c #E05A00",
"H  c #E15B00",
"J  c #E05C00",
"K  c #E15C00",
"L  c #E15D00",
"P  c #E25E00",
"I  c #E66100",
"U  c #E66200",
"Y  c #E76300",
"T  c #E76400",
"R  c #E86300",
"E  c #E86400",
"W  c #E96700",
"Q  c #E47407",
"!  c #EE7A00",
"~  c #ED7F00",
"^  c #F66400",
"/  c #F16900",
"(  c #F56A00",
")  c #F56C00",
"_  c #F76E00",
"`  c #FB6600",
"'  c #FD6B00",
"]  c #F67200",
"[  c #F67300",
"{  c #F67400",
"}  c #F67500",
"|  c #F37F00",
" . c #F67900",
".. c #F77800",
"X. c #F67803",
"o. c #FB7500",
"O. c #F87900",
"+. c #F97900",
"@. c #FB7A00",
"#. c #FB7B00",
"$. c #FC7900",
"%. c #FE7A00",
"&. c #D88427",
"*. c #EE8604",
"=. c #F08100",
"-. c #F68E01",
";. c #F68B08",
":. c #FD8000",
">. c #FE8100",
",. c #FE8200",
"<. c #FE8400",
"1. c #FE8500",
"2. c #FE8800",
"3. c #FE8900",
"4. c #F89700",
"5. c #FC9900",
"6. c #FE9E00",
"7. c #F59A1A",
"8. c #FE9C13",
"9. c #E08528",
"0. c #E89827",
"q. c #F89F26",
"w. c #FEA800",
"e. c #FEAA02",
"r. c #FEAE03",
"t. c #FEAF02",
"y. c #FEAB08",
"u. c #FEA01D",
"i. c #FEB701",
"p. c #FEB602",
"a. c #FEB802",
"s. c #FCBB0C",
"d. c #FCA724",
"f. c #FCAB2A",
"g. c #FDAC2E",
"h. c #FEA830",
"j. c #F8AF39",
"k. c #FBB631",
"l. c #FEC308",
"z. c #FEC408",
"x. c #FEC809",
"c. c #FEC909",
"v. c #FEC416",
"b. c #FED311",
"n. c #FED611",
"m. c #FED711",
"M. c #FED818",
"N. c #FEDC1D",
"B. c #FEE619",
"V. c #FEE719",
"C. c #FEE61A",
"Z. c #FEE71B",
"A. c #FEED1A",
"S. c #FEF825",
"D. c #FEF827",
"F. c #FEF926",
"G. c #FEFC2D",
"H. c #FEFE2C",
"J. c #FEFE31",
"K. c #FEFE34",
"L. c #FEFE35",
"P. c #FEFE39",
"I. c #FEFE3D",
"U. c #FCCB4A",
"Y. c #FCD84D",
"T. c #FEE851",
"R. c #FEE85A",
"E. c #FEFD47",
"W. c #FEFE48",
"Q. c #FEFE49",
"!. c #FEFE50",
"~. c #FEFE52",
"^. c #FEED72",
"/. c #FEF763",
"(. c gray100",
"). c None",
/* pixels */
").).).).).).).#.w ).).).).).).).",
").).).).).).} u.h X ).).).).).).",
").).).).).).} ^.k., ).).).).).).",
").).).).).( d.~.T.s ).).).).).).",
").:.#.o._ _ Y.J.~.&.p m k j ).).",
"3.8.h.f.k.U.W.H.L.R.j.0.9.Z F 2 ",
"=.7./.W.I.L.S.D.S.H.P.I.W.d.t # ",
").B *.M.A.B.B.Z.Z.B.B.N.;.w O ).",
").).g C s.n.b.b.b.n.v.Q 7 X ).).",
").).).f -.x.z.z.z.z.y.u X ).).).",
").).).R 4.i.t.t.p.i.e.d O ).).).",
").).).T 5.6.1./ X.6.e.H & ).).).",
").).M W :.' a > 0 c o.` - ).).).",
").).I ( z 3 O ).).< r S e ).).).",
").).M 8 # ).).).).).).1 - X ).).",
").).).).).).).).).).).).).).).)."
};
