/* XPM */
static char *keditbookmarks[] = {
/* columns rows colors chars-per-pixel */
"32 32 248 2",
"   c black",
".  c #351600",
"X  c #381600",
"o  c #381B00",
"O  c #522A00",
"+  c #5E2200",
"@  c #5B2900",
"#  c #6B2500",
"$  c #722D00",
"%  c #722E00",
"&  c #7C3400",
"*  c #7B4000",
"=  c #8E3600",
"-  c #8C3F00",
";  c #973C00",
":  c #9C3500",
">  c #9C3E00",
",  c #A33600",
"<  c #A23D00",
"1  c #A93B00",
"2  c #AA3F00",
"3  c #9B5200",
"4  c #A64100",
"5  c #A94D00",
"6  c #A65A00",
"7  c #B54F00",
"8  c #BD4500",
"9  c #B84800",
"0  c #B84900",
"q  c #BE4E00",
"w  c #B25700",
"e  c #B65100",
"r  c #BD5A00",
"t  c #C24100",
"y  c #C64400",
"u  c #C74700",
"i  c #C14B00",
"p  c #C24E00",
"a  c #C44800",
"s  c #C84800",
"d  c #CB4A00",
"f  c #CC4E00",
"g  c #CE4F00",
"h  c #CA5300",
"j  c #CC5200",
"k  c #CC5B00",
"l  c #D05200",
"z  c #D05300",
"x  c #D15500",
"c  c #D25400",
"v  c #D25500",
"b  c #D45700",
"n  c #D35A00",
"m  c #D55900",
"M  c #D65A00",
"N  c #D65B00",
"B  c #D85B00",
"V  c #D85C00",
"C  c #D95E00",
"Z  c #DA5F00",
"A  c #DE5F00",
"S  c #C66300",
"D  c #C36C00",
"F  c #D56100",
"G  c #D76F00",
"H  c #DA6000",
"J  c #DB6200",
"K  c #DE6200",
"L  c #DC6700",
"P  c #DF6400",
"I  c #DF6500",
"U  c #DF6900",
"Y  c #DE6D00",
"T  c #D37100",
"R  c #D67C00",
"E  c #D87A00",
"W  c #DF7800",
"Q  c #E05F00",
"!  c #E06700",
"~  c #E46700",
"^  c #E16800",
"/  c #E16C00",
"(  c #E46A00",
")  c #E46E00",
"_  c #E56E00",
"`  c #E56F00",
"'  c #E66F00",
"]  c #EE6E00",
"[  c #E17100",
"{  c #E37000",
"}  c #E47300",
"|  c #E67100",
" . c #E77100",
".. c #E77200",
"X. c #E27D09",
"o. c #E97000",
"O. c #E97500",
"+. c #EB7600",
"@. c #E87900",
"#. c #EA7900",
"$. c #E97C00",
"%. c #EC7800",
"&. c #EC7A00",
"*. c #ED7A00",
"=. c #EE7A00",
"-. c #ED7C00",
";. c #F27500",
":. c #F27B00",
">. c #F17D00",
",. c #F97300",
"<. c #F87D00",
"1. c #FC7B00",
"2. c #E58405",
"3. c #E68404",
"4. c #EC8100",
"5. c #ED8100",
"6. c #E88A00",
"7. c #E78915",
"8. c #E5881E",
"9. c #EE9F14",
"0. c #F18300",
"q. c #F28100",
"w. c #F18500",
"e. c #F28500",
"r. c #F48500",
"t. c #F68400",
"y. c #F78500",
"u. c #F78700",
"i. c #F28E00",
"p. c #F38E00",
"a. c #F98300",
"s. c #FF8300",
"d. c #F88800",
"f. c #F88900",
"g. c #F88A00",
"h. c #F98A00",
"j. c #F98C00",
"k. c #F88E00",
"l. c #FB8D00",
"z. c #FD8F00",
"x. c #FF8E00",
"c. c #FF8F00",
"v. c #F89003",
"b. c #F99600",
"n. c #FD9000",
"m. c #FE9200",
"M. c #FF9400",
"N. c #FF9500",
"B. c #FF9600",
"V. c #F89903",
"C. c #F99E00",
"Z. c #FF9800",
"A. c #FF9900",
"S. c #FF9A00",
"D. c #FF9C00",
"F. c #FF9D00",
"G. c #FF9E00",
"H. c #FF9F00",
"J. c #FF9E05",
"K. c #EB9522",
"L. c #FDA700",
"P. c #FFA603",
"I. c #FFA504",
"U. c #FDA209",
"Y. c #FCA60E",
"T. c #FFA800",
"R. c #FFAA00",
"E. c #FFAD00",
"W. c #F8A115",
"Q. c #F9A215",
"!. c #FDA815",
"~. c #FFB000",
"^. c #FFB200",
"/. c #FFB301",
"(. c #FFB307",
"). c #FFB501",
"_. c #FFB600",
"`. c #FFB707",
"'. c #FFBE05",
"]. c #FFB90F",
"[. c #FCB31C",
"{. c #FFBE16",
"}. c #F1A62E",
"|. c #FCAF22",
" X c #FBB22E",
".X c #FFB82E",
"XX c #FFBF2E",
"oX c #F3B54B",
"OX c #F3B64B",
"+X c #F8BC4B",
"@X c #FFC60A",
"#X c #FFCA13",
"$X c #FFCD11",
"%X c #FFD417",
"&X c #FFD91F",
"*X c #FFDB1D",
"=X c #FFC020",
"-X c #FFC829",
";X c #FFC82B",
":X c #FFCD2E",
">X c #FFC33D",
",X c #FFDA2A",
"<X c #FFD030",
"1X c #FFD933",
"2X c #FFD939",
"3X c #FFE424",
"4X c #FFE72D",
"5X c #FFEC2B",
"6X c #FFE132",
"7X c #FFE635",
"8X c #FFE738",
"9X c #FFE43D",
"0X c #FFF232",
"qX c #FFF63B",
"wX c #FFFB39",
"eX c #FDC34B",
"rX c #FDC44B",
"tX c #FCC759",
"yX c #FED367",
"uX c #FFD467",
"iX c #FCD371",
"pX c #FFFF41",
"aX c #FFFF43",
"sX c #FFFF4B",
"dX c #FFF855",
"fX c #FFFF53",
"gX c #FFFF58",
"hX c #FFFF60",
"jX c #FFFF72",
"kX c #FFFF75",
"lX c #FFFF78",
"zX c #FFFF81",
"xX c #FFFF83",
"cX c #FFFF89",
"vX c #FFF098",
"bX c #FFF39F",
"nX c #FFFF92",
"mX c #FFFF94",
"MX c #FFF2A8",
"NX c #FFF3A8",
"BX c #FFFFA5",
"VX c #FFFCB0",
"CX c #FFFDB0",
"ZX c #FFFFB7",
"AX c #FFFCB8",
"SX c #FFFFCA",
"DX c gray100",
"FX c None",
/* pixels */
"FXFXFXFXFXFXFXFXFXFXFXFXFXFXk.f.FXFXFXFXFXFXFXFXFXFXFXFXFXFXFXFX",
"FXFXFXFXFXFXFXFXFXFXFXFXFXk.f.y.6 FXFXFXFXFXFXFXFXFXFXFXFXFXFXFX",
"FXFXFXFXFXFXFXFXFXFXFXFXFXf.b.W.}   FXFXFXFXFXFXFXFXFXFXFXFXFXFX",
"FXFXFXFXFXFXFXFXFXFXFXFXf.f.uXuXw.* FXFXFXFXFXFXFXFXFXFXFXFXFXFX",
"FXFXFXFXFXFXFXFXFXFXFXFXf.k.ZXZXi.T   FXFXFXFXFXFXFXFXFXFXFXFXFX",
"FXFXFXFXFXFXFXFXFXFXFXf.r.eXjXkXtX&.O FXFXFXFXFXFXFXFXFXFXFXFXFX",
"FXFXFXFXFXFXFXFXFXFXFXf.y.CXaXsXCX5.S   FXFXFXFXFXFXFXFXFXFXFXFX",
"FXFXFXFXFXFXFXFXFXFXFXy. XzXaXaXxX+X)   FXFXFXFXFXFXFXFXFXFXFXFX",
"FXFXFXFXFXFXFXFXFXFXy.r.NXaXpXaXfXMX .w FXFXFXFXFXFXFXFXFXFXFXFX",
"FXFXFXB.B.n.z.z.f.f.t.W.mXaXaXaXpXmX}.Y I ! I H H V m FXFXFXFXFX",
"F.F.A.B.B.z.U.!.|.eXeXMXfXaXaXpXaXfXAXOXOXK.7.X.V B m b v l FXFX",
"F.A.XXvXSXSXBXBXnXzXzXgXpXpXpXpXpXpXhXlXzXzXcXBXBXBXiX8.l 9   FX",
"FX6.B.>XkXwXwXwXwXwXwXwXwXwXwXwXwXwXwXwXwXwXwXwXqX9X9.v 9     FX",
"FXFXR n..XdX0X0X0X0X0X0X0X0X0X0X0X0X0X0X0X0X0X7X2X3.l 4     FXFX",
"FXFXFXE f.Y.8X5X5X5X5X5X5X5X5X5X5X5X5X5X5X4X1X:X3.v >     FXFXFX",
"FXFXFXFXD r.V.6X3X3X3X3X3X3X3X3X3X3X3X3X,X<X;XY v %     FXFXFXFX",
"FXFXFXFXFXT $.w.$X*X*X*X*X*X&X&X&X*X*X&X;X[.Y n %     FXFXFXFXFX",
"FXFXFXFXFXFX3 @.w.%X%X%X%X%X%X%X%X%X%X%X=XY h .     FXFXFXFXFXFX",
"FXFXFXFXFXFXFX&.i.$X$X$X$X$X$X$X$X$X$X$X{. .p     FXFXFXFXFXFXFX",
"FXFXFXFXFXFXFX&.C.@X@X@X@X@X@X@X@X@X@X@X].5.j   FXFXFXFXFXFXFXFX",
"FXFXFXFXFXFXFX%.I.'.'.'.'.`.`.'.'.'.'.'.`.v.l X FXFXFXFXFXFXFXFX",
"FXFXFXFXFXFX&.+.~._._._.P.J.J.I._._._._._.J.g =   FXFXFXFXFXFXFX",
"FXFXFXFXFXFX+.&.~.~.R.A.B.>.I K &.I.R.~.~.A.m 2   FXFXFXFXFXFXFX",
"FXFXFXFXFXFX+.q.R.F.z.y.( H e 7 m V :.F.R.B.( 8   FXFXFXFXFXFXFX",
"FXFXFXFXFXFX .f.z.s.o.! k @     & q v A <.n.] d   FXFXFXFXFXFXFX",
"FXFXFXFXFXo. .1.;.^ F -       FXFX  ; p g A ,.y # FXFXFXFXFXFXFX",
"FXFXFXFXFX . .) U 5       FXFXFXFXFXFX  < y d y :   FXFXFXFXFXFX",
"FXFXFXFXFXo.Y r o     FXFXFXFXFXFXFXFXFXFX+ 1 t ,   FXFXFXFXFXFX",
"FXFXFXFXFXFX        FXFXFXFXFXFXFXFXFXFXFXFX        FXFXFXFXFXFX",
"FXFXFXFXFXFXFXFXFXFXFXFXFXFXFXFXFXFXFXFXFXFXFXFXFXFXFXFXFXFXFXFX",
"FXFXFXFXFXFXFXFXFXFXFXFXFXFXFXFXFXFXFXFXFXFXFXFXFXFXFXFXFXFXFXFX",
"FXFXFXFXFXFXFXFXFXFXFXFXFXFXFXFXFXFXFXFXFXFXFXFXFXFXFXFXFXFXFXFX"
};
