/* XPM */
static char *kfind[] = {
/* columns rows colors chars-per-pixel */
"32 32 186 2",
"   c black",
".  c #381E06",
"X  c #4F4F74",
"o  c #545477",
"O  c #56567B",
"+  c #5B5A7E",
"@  c #5F5E82",
"#  c #5E658F",
"$  c #4B69AD",
"%  c #5167A2",
"&  c #526CAC",
"*  c #605E80",
"=  c #636284",
"-  c #63668B",
";  c #66698B",
":  c #686788",
">  c #6B6A8A",
",  c #6E6E90",
"<  c #6F7294",
"1  c #6F799F",
"2  c #74728F",
"3  c #757492",
"4  c #757896",
"5  c #7F7E9B",
"6  c #6A76A4",
"7  c #7593CB",
"8  c #77ABF7",
"9  c #83460C",
"0  c #965208",
"q  c #945D24",
"w  c #8E6035",
"e  c #AA6B0C",
"r  c #BB6F08",
"t  c #A46A2D",
"y  c #A46B31",
"u  c #A97030",
"i  c #B4792D",
"p  c #866045",
"a  c #D07D02",
"s  c #B08350",
"d  c #B89675",
"f  c #DC8501",
"g  c #DF921A",
"h  c #D9982F",
"j  c #E6A134",
"k  c #E5A238",
"l  c #E9A73D",
"z  c #ECAD37",
"x  c #FFB935",
"c  c #FFBB39",
"v  c #C69C6C",
"b  c #D6A45B",
"n  c #EBB85D",
"m  c #E5B878",
"M  c #F4C44E",
"N  c #F9CF5C",
"B  c #F9D05C",
"V  c #F6CC72",
"C  c #81819D",
"Z  c #848C9D",
"A  c #918C9F",
"S  c #90949D",
"D  c #8386A3",
"F  c #8788A4",
"G  c #8A8AA5",
"H  c #8D8EA9",
"J  c #8E90AA",
"K  c #8394B1",
"L  c #8890B7",
"P  c #9494AD",
"I  c #9896AE",
"U  c #9A9AB2",
"Y  c #9CA0B7",
"T  c #A38C81",
"R  c #AC9FA0",
"E  c #A09FB6",
"W  c #A2A2B6",
"Q  c #A5A6BB",
"!  c #A9A9BC",
"~  c #91A3C3",
"^  c #99A9C4",
"/  c #8EB5E2",
"(  c #84B2F5",
")  c #87BDFA",
"_  c #89B5F7",
"`  c #A1ADC4",
"'  c #A3ABCE",
"]  c #AAABC0",
"[  c #A5B1C4",
"{  c #ACB0C7",
"}  c #AEB9D6",
"|  c #AEBEDD",
" . c #B1B1C3",
".. c #B5B7CA",
"X. c #B4BACF",
"o. c #BABACC",
"O. c #B5BDD0",
"+. c #ABBCE0",
"@. c #99C0F5",
"#. c #9AC4FB",
"$. c #9EC9FE",
"%. c #B5C3DC",
"&. c #BAC0D5",
"*. c #BBC6DE",
"=. c #A2C2ED",
"-. c #A5C4F4",
";. c #A3CAF6",
":. c #A6CAFE",
">. c #A4D0FE",
",. c #AFD0F3",
"<. c #ABD2FE",
"1. c #ADD9FD",
"2. c #B5C5E0",
"3. c #BDCAE2",
"4. c #B8CFEE",
"5. c #B8D0ED",
"6. c #B3D4FE",
"7. c #B0DCFF",
"8. c #BADBFF",
"9. c #B6E0FE",
"0. c #BDE5FE",
"q. c #CCBDB1",
"w. c #C1BFCF",
"e. c #FFE696",
"r. c #FFE897",
"t. c #FFE99C",
"y. c #FFFDB3",
"u. c #FFFEB8",
"i. c #C2C0CF",
"p. c #C4C3D2",
"a. c #C5C8D7",
"s. c #C3C9DB",
"d. c #CACAD7",
"f. c #CACCDA",
"g. c #C8D0DF",
"h. c #D3D3DE",
"j. c #DBD4D2",
"k. c #DAD8DD",
"l. c #C1CEE4",
"z. c #C4D0E5",
"x. c #C4D2E9",
"c. c #CBD1E2",
"v. c #CAD6EA",
"b. c #CED9EC",
"n. c #C2DFFF",
"m. c #CEDAF0",
"M. c #D5D7E2",
"N. c #D1DEE6",
"B. c #D2DBED",
"V. c #DCDBE2",
"C. c #DADFEE",
"Z. c #D3DEF0",
"A. c #C4E2F5",
"S. c #C3E4FE",
"D. c #C4EAFF",
"F. c #C8E4FF",
"G. c #CBEAFE",
"H. c #CDF0FF",
"J. c #D6E0F2",
"K. c #D3EDFE",
"L. c #DBE4F3",
"P. c #DBE6F8",
"I. c #DBE9F3",
"U. c #DEE8FA",
"Y. c #D4F4FF",
"T. c #DCF5FE",
"R. c #DEF9FF",
"E. c #E6DBD0",
"W. c #E1DEDB",
"Q. c #E4E0DC",
"!. c #E2E2E9",
"~. c #EBEBEF",
"^. c #E0E7F6",
"/. c #E1E9F6",
"(. c #E3EBF9",
"). c #EBEEF3",
"_. c #E8EEFB",
"`. c #E4F9FE",
"'. c #ECF1F4",
"]. c #EBF2FD",
"[. c #EDFCFE",
"{. c #F3F3F6",
"}. c #F0F6FE",
"|. c #F4FAFE",
" X c #FEFEFE",
".X c None",
/* pixels */
".X.X.X.X.X.X.Xz.z.z.z.z.z.z.z.z.z.z.z.z.z.z.Y .X.X.X.X.X.X.X.X.X",
".X.X.X.X.X.X.Xz. X X X X X X X X X X|.].(.J.x.[ .X.X.X.X.X.X.X.X",
".X.X.X.X.X.X.Xz. X X X X X X X X X X}.].^.Z.3.].[ .X.X.X.X.X.X.X",
".X.X.X.X.X.X.Xz. X X X X X X X X X X|.]._.J.z.}.U.[ .X.X.X.X.X.X",
".X.X.X.X.X.X.Xz. X X X X X X X X X X|.}._.L.z. X_.P.[ .X.X.X.X.X",
".X.X.X.X.X.X.Xz. X X X X X X X X X X X}.].^.z. X X].U.[ .X.X.X.X",
".X.X.X.X.X.X.Xz. X X X{.V.k.k.V.~.{. X|.].(.3.}.]./.P.A.Y .X.X.X",
".X.X.X.X.X.X.Xz. X XM.]  ...&.i.&.d.). X}._.v.^ ^ ^ ^ ^ ^ ^ .X.X",
".X.X.X.X.X.X.Xz.'.! U ! X.s.g.g.a.a.&.h.}.]._./.J.l.%.%.| K   .X",
".X.X.X.X.X.X.X*.I I ` A.T.`.[.|.[.I.f.p.f.].(.^.v.3.3.2.%.K   .X",
".X.X.X.X.X.X.XH G ~ 0.Y.R.`.[.[.[.`.Y.f.p.M._.B.c.z.l.l.3.K   .X",
".X.X.X.X.X, , C K 1.D.Y.T.R.`.`.`.R.T.G.a.p.B.B.v.v.x.c.x.K   .X",
".X.X.X.X.X: > 5 / 1.0.H.Y.Y.T.T.T.Y.H.0.5.i.a.B.b.b.v.v.v.K   .X",
".X.X.X.X.X: 3 6 ) 1.8.0.G.H.Y.T.Y.H.D.9.,.&.p.J.Z.Z.B.B.m.K   .X",
".X.X.X.X.X: 2 & 8 #.1.8.0.D.D.D.0.0.8.1.;.| d.J.J.J.Z.Z.Z.K   .X",
".X.X.X.X.X* > $ _ #.:.<.7.8.8.8.7.<.>.>.#.| i.L.L.L.J.J.J.K   .X",
".X.X.X.X.X@ : % _ :.<.8.n.F.F.n.n.6.<.:.) O.w.^.^.L.L.L.J.K   .X",
".X.X.X.X.XO @ # ( <.n.n.K.K.K.Y.G.S.6.<.-.X.w././.^.^.L.P.K   .X",
".X.X.X.X.Xo o = 7 8.S.K.T.`.`.`.T.K.n.6.|  .s.(.(.(.^.^.P.K   .X",
".X.X.X.X.X.XX @ - +.G.T.`.[.[.[.`.T.K.4.] ] C._.(./.^.^.U.K   .X",
".X.X.X.X.X.X.XD @ 6 4.T.[.|. X X}.`.x.{ Q ' W.(.(.(.^.^.U.K   .X",
".X.X.X.X.X.X.Xz.D @ < ` N.'.'.'.L.X.U P W ' q.m E./.U.(.U.K   .X",
".X.X.X.X.X.X.Xz. X! > = 4 P Q Y H J P F L A s z l Q././.U.K   .X",
".X.X.X.X.X.X.Xl. X X!.E F 5 C F I o./.}.R w n y.B j W.(.U.K   .X",
".X.X.X.X.X.X.Xz. X X X X|.'.'.].|.|.}.}.d r c t.u.B k W.U.K   .X",
".X.X.X.X.X.X.Xz. X X X X X|. X|.}.}.}.[.j.u f x e.u.N j W.K   .X",
".X.X.X.X.X.X.Xz. X X X X|. X|.|.|.}.}.}.].!.t f c e.u.N k S   .X",
".X.X.X.X.X.X.Xz. X X X|. X|.|.|.|.|.}.}.].].V.y f c e.u.B h e .X",
".X.X.X.X.X.X.Xz.|. X X X X|. X|.}.|.}.}.].]._.k.t f c r.u.M g   ",
".X.X.X.X.X.X.Xz.K K K K K K K K K K K K K K K K Z q f c V b v   ",
".X.X.X.X.X.X.X.X                                  . 0 a i T P   ",
".X.X.X.X.X.X.X.X.X.X.X.X.X.X.X.X.X.X.X.X.X.X.X.X.X.X9 0 p 3 ;   "
};
