/* XPM */
static char *kfind-16[] = {
/* columns rows colors chars-per-pixel */
"16 16 192 2",
"   c black",
".  c #000104",
"X  c #000204",
"o  c #000205",
"O  c #010204",
"+  c #010205",
"@  c #010305",
"#  c #020305",
"$  c #030405",
"%  c #000308",
"&  c #00040B",
"*  c #050608",
"=  c #07080A",
"-  c #0B0C0E",
";  c #0D0E0F",
":  c #180E08",
">  c #231606",
",  c #2F2D42",
"<  c #3A3C4D",
"1  c #664920",
"2  c #585577",
"3  c #646B78",
"4  c #656D79",
"5  c #6D747E",
"6  c #636181",
"7  c #676484",
"8  c #656F81",
"9  c #6D6C8D",
"0  c #626A96",
"q  c #747B87",
"w  c #7C7F98",
"e  c #7880A3",
"r  c #6F8AC3",
"t  c #698CCE",
"y  c #7C95C2",
"u  c #9B5602",
"i  c #AC7022",
"p  c #9F8472",
"a  c #A2836E",
"s  c #C2873B",
"d  c #D1903E",
"f  c #CCA65A",
"g  c #EABF5F",
"h  c #F7C450",
"j  c #FBC552",
"k  c #FAC654",
"l  c #FFD471",
"z  c #8487A6",
"x  c #8888A2",
"c  c #9396AE",
"v  c #9B9EB5",
"b  c #9A9EB9",
"n  c #93A1B9",
"m  c #93A2BD",
"M  c #9DA3B4",
"N  c #9EA6B7",
"B  c #98A6BD",
"V  c #9CA9BF",
"C  c #A5A7BC",
"Z  c #9FABC0",
"A  c #A0ADC2",
"S  c #A1ADC2",
"D  c #ABADC2",
"F  c #A9ACC7",
"G  c #A2B0C8",
"H  c #AAB3CD",
"J  c #ABB9D8",
"K  c #B2B3C9",
"L  c #B3B6CC",
"P  c #B2BCCD",
"I  c #B3BDCD",
"U  c #B4BECD",
"Y  c #ACBFE2",
"T  c #9FCCFF",
"R  c #B6C0CD",
"E  c #B7C0CD",
"W  c #B9C1CC",
"Q  c #B6C2D2",
"!  c #B5C4D7",
"~  c #B3C1D8",
"^  c #B8C3D8",
"/  c #BAC3D9",
"(  c #BCC8DF",
")  c #BFCFDE",
"_  c #A6C6E4",
"`  c #A5CDFF",
"'  c #A4D1FE",
"]  c #AFD4FF",
"[  c #B8C7E2",
"{  c #B7D0EE",
"}  c #B1D0F2",
"|  c #B4DBFF",
" . c #B5DAFF",
".. c #BADAFF",
"X. c #B2E0FF",
"o. c #BFE1FF",
"O. c #BFE3FF",
"+. c #BDE4FC",
"@. c #DFCEBB",
"#. c #ECC882",
"$. c #F3CD86",
"%. c #FEE786",
"&. c #FFEF90",
"*. c #C7C6D4",
"=. c #C1C6D8",
"-. c #C8C6D1",
";. c #CDCBD8",
":. c #CECEDA",
">. c #CECFDC",
",. c #C3D0DF",
"<. c #CED0DD",
"1. c #C0CDE3",
"2. c #C2CEE4",
"3. c #C0CFE8",
"4. c #C3D1E7",
"5. c #C4D2E7",
"6. c #C7D2E4",
"7. c #C8D2E3",
"8. c #CDD3E1",
"9. c #CFD5E5",
"0. c #C8D3E8",
"q. c #C9DAE8",
"w. c #CCD8EF",
"e. c #C2DFFF",
"r. c #CDDBF2",
"t. c #D4D8E5",
"y. c #D6D9E6",
"u. c #D1DBEB",
"i. c #D2DDEF",
"p. c #D7DEE8",
"a. c #D1DCF1",
"s. c #CAE6FF",
"d. c #C9EDFF",
"f. c #CEE9FF",
"g. c #D4E0EB",
"h. c #DCE3EC",
"j. c #D7E0F0",
"k. c #D7E1F2",
"l. c #D7E1F3",
"z. c #D6E2F5",
"x. c #D9E3F2",
"c. c #DAE3F4",
"v. c #DBE4F4",
"b. c #DDE5F1",
"n. c #DFE5F1",
"m. c #DFE8F7",
"M. c #DFE9FB",
"N. c #D2F5FF",
"B. c #D4F4FF",
"V. c #D9F6FF",
"C. c #DAF5FF",
"Z. c #D8FBFF",
"A. c #E6E4E5",
"S. c #E2E2E8",
"D. c #E5E8EF",
"F. c #E0E7F2",
"G. c #E0E7F3",
"H. c #E1E8F2",
"J. c #E2E8F2",
"K. c #E4EAF3",
"L. c #E1EAF9",
"P. c #E2EBF8",
"I. c #E1ECF9",
"U. c #E4EDFC",
"Y. c #E6EFFF",
"T. c #EAEEF3",
"R. c #E9EDF5",
"E. c #ECEFF2",
"W. c #E8EEF9",
"Q. c #E2FCFF",
"!. c #E3FCFF",
"~. c #ECF0F7",
"^. c #EDF4F7",
"/. c #EEF5F7",
"(. c #E9F1FF",
"). c #EAF0FC",
"_. c #EBF5FF",
"`. c #E8FFFF",
"'. c #ECFEFF",
"]. c #EDFFFF",
"[. c #F0F6FF",
"{. c #F4FAFF",
"}. c #F5FAFF",
"|. c #F6FAFE",
" X c #F8F6F7",
".X c #F8FAFC",
"XX c #F9FFFF",
"oX c #FCFFFF",
"OX c #FDFFFF",
"+X c #FEFEFE",
"@X c gray100",
"#X c None",
/* pixels */
"#X#X2.u.n.J.J.n.n.n.a.4   #X#X#X",
"#X#X1.n.@X@X@X@X@X_.l.P.5   #X#X",
"#X#X1.n.@X@X@X@X@X|.l.~.XXq   #X",
"#X#X5.n. X;.*.:.S.|.P.7.6.3.8   ",
"#X#XH =.C ! g.h.8.<.W.n.( [ m * ",
"#X#X9 z _ Z.`.'.!.q.<.i.0.w.n $ ",
"#X#X7 y X.d.B.C.B.O./ 9.a.l.B # ",
"#X#X6 t T  .O.O.| ` _ t.v.M.V # ",
"#X#X2 r ] e.f.s...` J y.P.Y.C $ ",
"#X#X, 0 } !.'.'.C.{ L K.U.(.Z $ ",
"#X#X- w e ) /./.,.v F -.D._.Z $ ",
"#X#X3 p.-.x c v D K p h #.(.G $ ",
"#X#Xw.n.@X.XT.R.|.T.s h %.$.N & ",
"#X#X5.H.@X@X@X@X@X@XA.d h &.f > ",
"#X#X^ ! U U U I I I ~ M i h l 1 ",
"#X#X#X= # # # # # # # & : u a < "
};
