/* XPM */
static char *kfm[] = {
/* columns rows colors chars-per-pixel */
"32 32 257 2",
"   c black",
".  c #000015",
"X  c #000024",
"o  c #03062E",
"O  c #00003B",
"+  c #050E33",
"@  c #01024C",
"#  c #050C42",
"$  c #000055",
"%  c #00015B",
"&  c #091749",
"*  c #081657",
"=  c #0A1B59",
"-  c #000063",
";  c #00006D",
":  c #050D6E",
">  c #000172",
",  c #040B7A",
"<  c #040973",
"1  c #09186D",
"2  c #081462",
"3  c #07117F",
"4  c #08127A",
"5  c #091874",
"6  c #0E256C",
"7  c #0E2778",
"8  c #091381",
"9  c #0B1985",
"0  c #0A1D89",
"q  c #0E2485",
"w  c #0F298E",
"e  c #0D2389",
"r  c #0F2891",
"t  c #14288F",
"y  c #13218E",
"u  c #142A97",
"i  c #13328D",
"p  c #123299",
"a  c #163B9A",
"s  c #19339C",
"d  c #1636AB",
"f  c #1538AF",
"g  c #1F36A3",
"h  c #1836AA",
"j  c #1B3FA4",
"k  c #153AA2",
"l  c #282F8E",
"z  c #283B99",
"x  c #213FA8",
"c  c #1742A7",
"v  c #1943A6",
"b  c #1B46A8",
"n  c #1D4BAB",
"m  c #1742AE",
"M  c #1B47B8",
"N  c #1E51B1",
"B  c #34419A",
"V  c #2743AB",
"C  c #2249AB",
"Z  c #2D4BAC",
"A  c #2245A6",
"S  c #2B4FBB",
"D  c #294AB5",
"F  c #2C50AF",
"G  c #2055B2",
"H  c #2259B6",
"J  c #235CB9",
"K  c #2858B6",
"L  c #2C59B8",
"P  c #354AA1",
"I  c #304BB3",
"U  c #3252B3",
"Y  c #395CB4",
"T  c #345ABB",
"R  c #2560BC",
"E  c #3462BB",
"W  c #3D62B8",
"Q  c #1B57C3",
"!  c #1D50D7",
"~  c #1F61CA",
"^  c #2054C1",
"/  c #2353D4",
"(  c #3058C2",
")  c #2057E0",
"_  c #2463C5",
"`  c #276DCF",
"'  c #2C66C0",
"]  c #2669D2",
"[  c #2C65D9",
"{  c #2C76DB",
"}  c #3C64C1",
"|  c #3C6FC4",
" . c #3465D6",
".. c #3C6AD4",
"X. c #396BD8",
"o. c #3D74D5",
"O. c #3978DB",
"+. c #2F6DE5",
"@. c #2578EB",
"#. c #336FEB",
"$. c #386FE5",
"%. c #316FE4",
"&. c #346EF0",
"*. c #3571E2",
"=. c #3874E4",
"-. c #3C7AE5",
";. c #3E79ED",
":. c #3577EA",
">. c #3979FE",
",. c #2969F8",
"<. c #435EB2",
"1. c #4567BF",
"2. c #446BBD",
"3. c #4768B7",
"4. c #5061AD",
"5. c #5C6AB6",
"6. c #5171BC",
"7. c #6C7DBF",
"8. c #4469C4",
"9. c #4C78C8",
"0. c #4378D9",
"q. c #547AC4",
"w. c #5378C4",
"e. c #407DE5",
"r. c #437EEA",
"t. c #407FFE",
"y. c #2E81EE",
"u. c #3785E7",
"i. c #3D8CED",
"p. c #3589F5",
"a. c #398BF4",
"s. c #3C93FD",
"d. c #4781D7",
"f. c #4D85DB",
"g. c #4C8ADA",
"h. c #5381CB",
"j. c #5B8ED3",
"k. c #568BD9",
"l. c #5E95DB",
"z. c #4582E5",
"x. c #4A83EA",
"c. c #4A88E7",
"v. c #4582FE",
"b. c #4987FE",
"n. c #4C8AFE",
"m. c #4196FD",
"M. c #4599FE",
"N. c #4B9DFD",
"B. c #548AEA",
"V. c #528EFE",
"C. c #5A93E9",
"Z. c #5C98EE",
"A. c #5492FE",
"S. c #5995FD",
"D. c #5D99FE",
"F. c #5E99F5",
"G. c #4EA0FE",
"H. c #53A3FD",
"J. c #5AA3FE",
"K. c #5CA9FE",
"L. c #6489CA",
"P. c #6A88C7",
"I. c #6C8FCE",
"U. c #648ED0",
"Y. c #6F90D0",
"T. c #7A8DC8",
"R. c #738FCA",
"E. c #7793CC",
"W. c #7B9DD5",
"Q. c #6197E6",
"!. c #639BE7",
"~. c #619EFE",
"^. c #6D9FFE",
"/. c #6CAAEA",
"(. c #65A1FE",
"). c #62ADFE",
"_. c #6AA5FE",
"`. c #6EA9FE",
"'. c #65B0FE",
"]. c #6BB4FE",
"[. c #74AEEC",
"{. c #7AACEE",
"}. c #76A4E9",
"|. c #73ADFE",
" X c #7AAFFE",
".X c #71ABF3",
"XX c #74B2EA",
"oX c #7CB6EC",
"OX c #7CB9ED",
"+X c #73B4FE",
"@X c #73BAFF",
"#X c #7AB5FF",
"$X c #79BBFE",
"%X c #7CC0FF",
"&X c #8E95C7",
"*X c #8A9DD0",
"=X c #85A8DA",
"-X c #99ABD9",
";X c #84ABF0",
":X c #84BBEB",
">X c #8CBAE7",
",X c #82B4FE",
"<X c #82BCFF",
"1X c #8AB0F7",
"2X c #B8BCDB",
"3X c #86C0EF",
"4X c #8EC1ED",
"5X c #82C3FF",
"6X c #87C8FF",
"7X c #8AC3FF",
"8X c #8CCAFF",
"9X c #95C1EB",
"0X c #9DC6EC",
"qX c #93CBFF",
"wX c #99C8FB",
"eX c #93D0FF",
"rX c #9BD3FE",
"tX c #9ED8FF",
"yX c #A7C8EB",
"uX c #ACC8FF",
"iX c #A1D2FF",
"pX c #A4DBFF",
"aX c #AFD6FF",
"sX c #A8DDFF",
"dX c #B5C6E7",
"fX c #B7C8E8",
"gX c #BACCEC",
"hX c #BAD6F7",
"jX c #B9D5FF",
"kX c #BCDAF6",
"lX c #BDDAFF",
"zX c #B2D6F5",
"xX c #ADE1FF",
"cX c #B2E3FF",
"vX c #BBE6FF",
"bX c #CDDAEF",
"nX c #C4DEF5",
"mX c #C1DBFB",
"MX c #C9D9F4",
"NX c #D2DFF3",
"BX c #C3E2FC",
"VX c #C0E9FF",
"CX c #C9E5FF",
"ZX c #CCECFF",
"AX c #CCE1F5",
"SX c #D3E4F5",
"DX c #D2ECFE",
"FX c #D9E8F8",
"GX c #D2E1FA",
"HX c #D7F1FF",
"JX c #DCF2FF",
"KX c #E6F6FF",
"LX c #EBF5FF",
"PX c #EEF9FF",
"IX c gray100",
"UX c #F5FCFF",
"YX c None",
/* pixels */
"YXYXYXYXYXYXYXYXYXYXYXYXYXYXYXn n v v a     YXYXYXYXYXYXYXYXYXYX",
"YXYXYXYXYXYXYXYXYXYXYXYXYXn n n Q @.@.v a &   YXYXYXYXYXYXYXYXYX",
"YXYXYXYXYXYXYXYXYXYXYXN N N ~ y.s.s.s.p.M p 6     YXYXYXYXYXYXYX",
"YXYXYXYXYXYXYXYXYXG N N ` a.M.M.M.m.m.s.s.Q p 7     YXYXYXYXYXYX",
"YXYXYXYXYXYXYXG H N { m.G.G.G.G.G.G.M.M.M.m.] p q &   YXYXYXYXYX",
"YXYXYXYXYXH H _ { N.K.H.H.K.H.H.H.G.H.G.G.M.M.y.k e *     YXYXYX",
"YXYXR J J _ u.H.K.K.K.K.K.K.K.K.K.K.H.H.G.G.G.m.a.f 0 1     YXYX",
"YXR J ` i.H.K.K.).'.'.'.'.].'.'.).K.K.K.H.H.G.G.N.m.Q 0 5     YX",
"YXR }.G.K.K.).).].].].@X@X].@X].].].).K.K.K.H.H.N.M.m.] 0 4     ",
"YXJ B.jX+X).].].@X@X@X@X%X$X@X@X@X@X].].).K.K.H.H.N.m.S.#.8     ",
"YXH #.v.uXwX@X@X$X$X%X5X5X5X%X5X$X$X@X@X].).).K.H.~.D.>.,.8     ",
"YXH :.>.t.,XaX$X%X6X6X6X8X8X6X6X6X5X$X$X@X].#X_.A.&.D D ) ,     ",
"YXG :.v.b.b.^.lXeX6X8XeXeXeXeX8X6X6X5X$X5X|.V.$.( 7.gX5.! ,     ",
"YXG ;.b.n.V.A.D.jXsXrXrXtXtXtXrXeXeXiX+XA.X.} *XMX1X:.f ! ,     ",
"YXN r.V.A.S.S.D.D.wXBXpXxXxXpXsXwX XS.o.w.-XMX;X-.=.%.d / <     ",
"YXN x.S.S.D.D.D.~.~.,XDXvXvXiX|.F.o.Y.fXkX{.c.0.e.-.*.h / >     ",
"YXn c.D.~.~.(._._._.`.|.LX,XZ.d.W.MXkXXX/.0.n 8 z.e.=.u [ >     ",
"YXn B.(._._.`.`.|.|.|.|.lX+Xh.SXzXOXXX/.' k u T 0.S g S r.>     ",
"YXn B.`.`.|.|.|.+X#X#X#XlX#Xh.kX3XOXoX/.E 9.k.U V V 5.5. .>     ",
"YXv B.|.|.+X#X#X#X,X<X<XmX<Xq.nX9X>X:XXXj.T Z U T.MX;XI  .>     ",
"YXv C.#X#X,X<X<X5X7X7X<XBX7Xw.NXyX9XL.8.F W -XNX{.e.+.d  .>     ",
"YXv Q.#X<X<X7X7X7X7X8XwXCX8X6.bXR.2.T q.dXmX{.c.e.=.%.d ..>     ",
"YXk Q.<X<X7X7X8XwXqXqXrXZXrXw.2.| I.NXzX{.C.0.v r.e.*.d ..>     ",
"YXa L .X7X8XqXqXrXrXrXrXZXtXj.=XFXzXoX/.g.K w 9 z.e.D g 0.>     ",
"YX  i C !.qXrXrXtXtXpXpXDXpXh.AX3XoXXX/.n A } k.V U 8.s > $     ",
"YX    7 a q.rXpXsXsXxXcXHXcXq.BX4X:XoXXXl.l.I 1.8.y ; $ .       ",
"YXYX    = w Y wXxXcXvXvXJXvX6.AX0X9X:Xj.Y q.8.4 ; @             ",
"YXYXYX    + q z >XvXZXZXKXDX6.FXyXL.6.U.<., ; O             YXYX",
"YXYXYXYX      5 t E.DXJXPXJX<.T.P.=XB > % O             YXYXYXYX",
"YXYXYXYXYXYX    2 9 4.SXUXPXgX=XB ; - X             YXYXYXYXYXYX",
"YXYXYXYXYXYXYX    # 4 z 2X&Xl < % .             YXYXYXYXYXYXYXYX",
"YXYXYXYXYXYXYXYX    o : , : @               YXYXYXYXYXYXYXYXYXYX"
};
