/* XPM */
static char * kinfocenter_xpm[] = {
"32 32 314 2",
"  	c None",
". 	c #98DBF8",
"+ 	c #ABE2F9",
"@ 	c #BBE7FA",
"# 	c #9CDCF8",
"$ 	c #85D4F6",
"% 	c #3DBBF1",
"& 	c #B8E0F6",
"* 	c #E8F1F9",
"= 	c #97D3F2",
"- 	c #1BA6E6",
"; 	c #C6DFF3",
"> 	c #D4E4F4",
", 	c #ABD6F2",
"' 	c #1399DB",
") 	c #9BCAED",
"! 	c #C0D7F0",
"~ 	c #D5E4F5",
"{ 	c #FFFFFF",
"] 	c #77BFEB",
"^ 	c #0089CF",
"/ 	c #229DE3",
"( 	c #ADCBEB",
"_ 	c #D6E5F5",
": 	c #0093E1",
"< 	c #008DDE",
"[ 	c #269AE0",
"} 	c #98BEE6",
"| 	c #AAC9EA",
"1 	c #F8FBFD",
"2 	c #007DC6",
"3 	c #0088DB",
"4 	c #1990DC",
"5 	c #84B1E1",
"6 	c #A4C6E9",
"7 	c #0083D8",
"8 	c #559CDB",
"9 	c #70A4DC",
"0 	c #AFCCEB",
"a 	c #4698DA",
"b 	c #8A8ABF",
"c 	c #8181BB",
"d 	c #007ED5",
"e 	c #0C81D5",
"f 	c #5796D7",
"g 	c #5C98D7",
"h 	c #AECBEB",
"i 	c #4C93D6",
"j 	c #0680D5",
"k 	c #005A9E",
"l 	c #8888BE",
"m 	c #E4E4E4",
"n 	c #7F7FBA",
"o 	c #0079D2",
"p 	c #057AD2",
"q 	c #3085D2",
"r 	c #498CD2",
"s 	c #A4C5E9",
"t 	c #2B84D2",
"u 	c #006183",
"v 	c #8383BC",
"w 	c #7D7DB9",
"x 	c #0074CF",
"y 	c #0876CE",
"z 	c #1A7ACE",
"A 	c #8EBDE7",
"B 	c #1679CE",
"C 	c #0475CE",
"D 	c #107A39",
"E 	c #178A02",
"F 	c #178E00",
"G 	c #158D00",
"H 	c #138B00",
"I 	c #118900",
"J 	c #0F8800",
"K 	c #0E8600",
"L 	c #005D00",
"M 	c #7B7BB7",
"N 	c #006EBF",
"O 	c #006FCB",
"P 	c #80B7E5",
"Q 	c #46A948",
"R 	c #78D05E",
"S 	c #7AD660",
"T 	c #78D460",
"U 	c #76D260",
"V 	c #73D060",
"W 	c #31B718",
"X 	c #7979B6",
"Y 	c #0E797D",
"Z 	c #006AC8",
"` 	c #80B4E4",
" .	c #0875A4",
"..	c #6AB859",
"+.	c #9EDD8D",
"@.	c #77D360",
"#.	c #75D160",
"$.	c #73CF60",
"%.	c #B1E4A7",
"&.	c #43BC30",
"*.	c #7777B5",
"=.	c #318030",
"-.	c #0065C5",
";.	c #80B2E2",
">.	c #1A9042",
",.	c #6EBD5C",
"'.	c #23B600",
").	c #1FB300",
"!.	c #1CB000",
"~.	c #9ADB8F",
"{.	c #40B930",
"].	c #7575B4",
"^.	c #6CAEC0",
"/.	c #005FC2",
"(.	c #5091D5",
"_.	c #297AAC",
":.	c #8DAD8B",
"<.	c #A2B69F",
"[.	c #9DB497",
"}.	c #7BA073",
"|.	c #31AA1B",
"1.	c #18AD00",
"2.	c #98DA8F",
"3.	c #3DB630",
"4.	c #7373B3",
"5.	c #B9F78F",
"6.	c #369099",
"7.	c #005DC0",
"8.	c #307BCC",
"9.	c #2072BC",
"0.	c #94BB9D",
"a.	c #95959B",
"b.	c #848484",
"c.	c #6A6A6A",
"d.	c #505050",
"e.	c #219110",
"f.	c #14A900",
"g.	c #97D88F",
"h.	c #3AB430",
"i.	c #7070B2",
"j.	c #B7F58F",
"k.	c #B4F28E",
"l.	c #4695A4",
"m.	c #0C7386",
"n.	c #3BA431",
"o.	c #61AE54",
"p.	c #979798",
"q.	c #727272",
"r.	c #585858",
"s.	c #3E3E3E",
"t.	c #1A8A0B",
"u.	c #11A600",
"v.	c #95D78F",
"w.	c #37B130",
"x.	c #6E6EB0",
"y.	c #B6F48F",
"z.	c #B5F38F",
"A.	c #B1EF8E",
"B.	c #74BC7F",
"C.	c #17807B",
"D.	c #0D7386",
"E.	c #1C9135",
"F.	c #24A007",
"G.	c #22A306",
"H.	c #2DB30E",
"I.	c #3BAA24",
"J.	c #2E9D1A",
"K.	c #259413",
"L.	c #1B8B0D",
"M.	c #129E02",
"N.	c #0DA300",
"O.	c #94D58F",
"P.	c #34AE30",
"Q.	c #6C6CAF",
"R.	c #B4F28F",
"S.	c #B3F28F",
"T.	c #B2F08F",
"U.	c #9FEB77",
"V.	c #64CE33",
"W.	c #3AB607",
"X.	c #84B2B0",
"Y.	c #269A35",
"Z.	c #6BAB91",
"`.	c #83B1B0",
" +	c #A3C5AB",
".+	c #ACCBAA",
"++	c #AECDAB",
"@+	c #BADCB5",
"#+	c #C6EABE",
"$+	c #CBEBC4",
"%+	c #D2E4CE",
"&+	c #CBDEC8",
"*+	c #C5D8C2",
"=+	c #BFD1BC",
"-+	c #C0E1BE",
";+	c #93D58F",
">+	c #92D48F",
",+	c #31AC30",
"'+	c #6A6AAE",
")+	c #DCB46B",
"!+	c #DBB46B",
"~+	c #B0EF8F",
"{+	c #D1F5BF",
"]+	c #D0F4BF",
"^+	c #69D539",
"/+	c #BFBFC1",
"(+	c #99999C",
"_+	c #7F7F83",
":+	c #2DB404",
"<+	c #2AB104",
"[+	c #28B502",
"}+	c #26B900",
"|+	c #4DBC38",
"1+	c #B0B0B0",
"2+	c #8A8A8A",
"3+	c #707070",
"4+	c #565656",
"5+	c #479B41",
"6+	c #92D38F",
"7+	c #91D38F",
"8+	c #30AB30",
"9+	c #6868AD",
"0+	c #E9A060",
"a+	c #E89F60",
"b+	c #69DE30",
"c+	c #43D300",
"d+	c #CFF3BF",
"e+	c #63D036",
"f+	c #A3A3A3",
"g+	c #747474",
"h+	c #4F4F4F",
"i+	c #A3E38F",
"j+	c #A2E28F",
"k+	c #A0E18F",
"l+	c #9FDF8F",
"m+	c #9DDE8F",
"n+	c #9CDC8F",
"o+	c #A9DAA1",
"p+	c #A0A0A0",
"q+	c #797979",
"r+	c #5F5F5F",
"s+	c #444444",
"t+	c #86B084",
"u+	c #90D28F",
"v+	c #8FD28F",
"w+	c #6666AC",
"x+	c #66DB30",
"y+	c #3FD000",
"z+	c #CEF2BF",
"A+	c #5DCA33",
"B+	c #8E8E8E",
"C+	c #5B5B5B",
"D+	c #353535",
"E+	c #52C930",
"F+	c #4EC630",
"G+	c #4287CB",
"H+	c #3F72FF",
"I+	c #4185CB",
"J+	c #58BC4B",
"K+	c #72976E",
"L+	c #52774F",
"M+	c #3D633B",
"N+	c #294E27",
"O+	c #2C912B",
"P+	c #24A624",
"Q+	c #6464AB",
"R+	c #AEED8F",
"S+	c #ADEC8F",
"T+	c #60D630",
"U+	c #CDF1BF",
"V+	c #35C600",
"W+	c #CBF0BF",
"X+	c #CAEFBF",
"Y+	c #22B600",
"Z+	c #3782BF",
"`+	c #3580BF",
" @	c #0AA000",
".@	c #069C00",
"+@	c #029900",
"@@	c #009700",
"#@	c #6262A9",
"$@	c #C7F2B3",
"%@	c #90E46B",
"&@	c #5DD330",
"*@	c #CCF1BF",
"=@	c #31C300",
"-@	c #CAEEBF",
";@	c #89BACB",
">@	c #82AEDF",
",@	c #87B8CB",
"'@	c #B3E0B3",
")@	c #5F5FA8",
"!@	c #F3F497",
"~@	c #EAE071",
"{@	c #F3DA70",
"]@	c #D6F47F",
"^@	c #F2DA70",
"/@	c #CBEF74",
"(@	c #F2D970",
"_@	c #D2E873",
":@	c #C7EC74",
"<@	c #F1D870",
"[@	c #307F30",
"}@	c #0C700C",
"|@	c #006C00",
"1@	c #5D5DA7",
"2@	c #FFF489",
"3@	c #FFDD67",
"4@	c #FFD256",
"5@	c #FFFF9A",
"6@	c #5B5BA6",
"7@	c #5959A5",
"8@	c #5A5AA5",
"9@	c #5757A4",
"                                                                ",
"                      . + @ @ # $ %                             ",
"                  & * * * * * * * * = -                         ",
"                ; > > > > > > > > > > , '                       ",
"              ) ! ! ! ! ~ { { ~ ! ! ! ! ] ^                     ",
"            / ( ( ( ( ( _ { { _ ( ( ( ( ( :                     ",
"          < [ } } } } } | 1 1 | } } } } } [ 2                   ",
"          3 4 5 5 5 5 5 5 6 6 5 5 5 5 5 5 3 3                   ",
"          7 7 8 9 9 9 9 0 { { 0 9 9 9 9 a 7 7                   ",
"b b b c   d d e f g g g h { { h g g g i j d d k                 ",
"l m m n   o o o p q r r s { { s r r t p o o o u                 ",
"b v m w   x x x x x y z A { { A B C x x x x x D E F G H I J K L ",
"  b m M   N O O O O O O P { { P O O O O O O O Q R S T U U V W L ",
"  b m X   Y Z Z Z Z Z Z ` { { ` Z Z Z Z Z Z  ...+.@.#.$.$.%.&.L ",
"  b m *.  =.-.-.-.-.-.-.;.{ { ;.-.-.-.-.-.-.>.,.@.'.).!.!.~.{.L ",
"  b m ].  =.^./././././.(.{ { (./././././._.:.<.[.}.|.1.1.2.3.L ",
"  b m 4.  =.5.6.7.7.7.7.7.8.8.7.7.7.7.7.9.0.a.b.c.d.e.f.f.g.h.L ",
"  b m i.  =.j.k.l.7.7.7.7.7.7.7.7.7.7.m.n.o.p.q.r.s.t.u.u.v.w.L ",
"  b m x.  =.y.z.A.B.C.7.7.7.7.7.7.D.E.F.G.H.I.J.K.L.M.N.N.O.P.L ",
"  b m Q.  =.R.S.T.U.V.W.X.Y.Z.`. +.+++@+#+$+%+&+*+=+-+;+;+>+,+L ",
"  b m '+  =.)+!+~+{+]+^+/+(+_+:+<+[+}+'.).|+1+2+3+4+5+6+6+7+8+L ",
"  b m 9+  =.0+a+b+c+d+e+f+g+h+i+j+k+l+m+n+o+p+q+r+s+t+u+u+v+8+L ",
"  b m w+  =.a+a+x+y+z+A+B+C+D+E+F+G+H+I+&.J+K+L+M+N+O+P+P+v+8+L ",
"  b m Q+  =.R+S+d+T+U+V+W+X+E+}+Y+Z+H+`+f.u.N. @.@+@@@@@@@v+8+L ",
"  b m #@  =.$@%@z+&@*@=@X+-@F+Y+m+;@>@,@g.v.O.>+7+v+v+v+v+'@8+L ",
"  b m )@  =.!@~@{@]@^@/@(@(@_@:@<@=.=.=.=.=.[@[@[@[@[@[@[@}@|@L ",
"  b m 1@  =.2@3@4@5@4@5@4@4@2@5@4@=.                            ",
"  b m 6@  =.2@3@4@5@4@5@4@4@2@5@4@=.                            ",
"  b m 7@  =.=.=.=.=.=.=.=.=.=.=.=.=.                            ",
"  b 8@9@                                                        ",
"                                                                ",
"                                                                "};
