/* XPM */
static char * kinfocenter_16_xpm[] = {
"16 16 174 2",
"  	c None",
". 	c #A6DBF4",
"+ 	c #CFEBF9",
"@ 	c #C9EAF9",
"# 	c #A1DCF7",
"$ 	c #CEE0F3",
"% 	c #D9E4F4",
"& 	c #E6EEF8",
"* 	c #E7EEF8",
"= 	c #DCE5F5",
"- 	c #BCE3FF",
"; 	c #256589",
"> 	c #64B0E5",
", 	c #B2CBEA",
"' 	c #A3C5E9",
") 	c #DEEAF7",
"! 	c #B4CDED",
"~ 	c #5CB5F0",
"{ 	c #419CDF",
"] 	c #86B0DF",
"^ 	c #7CACDF",
"/ 	c #B8D2EE",
"( 	c #86AFDF",
"_ 	c #3CA2EB",
": 	c #004D85",
"< 	c #A3A3CF",
"[ 	c #9188AD",
"} 	c #034A82",
"| 	c #0884DF",
"1 	c #428FD6",
"2 	c #5995D6",
"3 	c #DAE7F6",
"4 	c #DBE7F6",
"5 	c #3E8ED5",
"6 	c #0683DD",
"7 	c #005FA0",
"8 	c #8B8BAC",
"9 	c #ACA3B8",
"0 	c #01386D",
"a 	c #0078DA",
"b 	c #0072CE",
"c 	c #1377CD",
"d 	c #CAE0F4",
"e 	c #1177CD",
"f 	c #0071D9",
"g 	c #0F7B8C",
"h 	c #378B1E",
"i 	c #399D25",
"j 	c #34A721",
"k 	c #0D7A05",
"l 	c #4C4C5F",
"m 	c #ABA4C5",
"n 	c #0A3C47",
"o 	c #006DC9",
"p 	c #0067C9",
"q 	c #0067C8",
"r 	c #CAE1F4",
"s 	c #0068C8",
"t 	c #0063C8",
"u 	c #3C9E7A",
"v 	c #80E35A",
"w 	c #5DCF47",
"x 	c #80DB6D",
"y 	c #2B9022",
"z 	c #8989B1",
"A 	c #9D98BD",
"B 	c #254925",
"C 	c #358FAE",
"D 	c #0056C6",
"E 	c #005BC3",
"F 	c #8EB8E3",
"G 	c #005BC2",
"H 	c #0059CC",
"I 	c #2775BB",
"J 	c #8BA78C",
"K 	c #739B66",
"L 	c #14A100",
"M 	c #54C841",
"N 	c #2E8F29",
"O 	c #9D9DCD",
"P 	c #9792B8",
"Q 	c #254B25",
"R 	c #A2ED8B",
"S 	c #3589A8",
"T 	c #0057BA",
"U 	c #0058C3",
"V 	c #0059C8",
"W 	c #005AC2",
"X 	c #096F88",
"Y 	c #4DA653",
"Z 	c #75906A",
"` 	c #415E3E",
" .	c #089000",
"..	c #4CC33F",
"+.	c #2B8D29",
"@.	c #9A9AC8",
"#.	c #9691B8",
"$.	c #204624",
"%.	c #BAED84",
"&.	c #B4EF90",
"*.	c #55B464",
"=.	c #4B9092",
"-.	c #489093",
";.	c #59A87D",
">.	c #67C14F",
",.	c #7ACF60",
"'.	c #96C38D",
").	c #7EAB78",
"!.	c #70C06C",
"~.	c #7ED279",
"{.	c #218821",
"].	c #9491B8",
"^.	c #254022",
"/.	c #D7A95B",
"(.	c #8CE254",
"_.	c #A0E879",
":.	c #86847C",
"<.	c #699351",
"[.	c #6FD35D",
"}.	c #65C173",
"|.	c #79CC6C",
"1.	c #919091",
"2.	c #555455",
"3.	c #70B06E",
"4.	c #88D688",
"5.	c #1F861F",
"6.	c #938FB6",
"7.	c #214325",
"8.	c #BAD581",
"9.	c #86E262",
"0.	c #7BDA61",
"a.	c #92B98F",
"b.	c #3BAB1A",
"c.	c #48AB88",
"d.	c #548DF3",
"e.	c #4BC042",
"f.	c #46AA3E",
"g.	c #31942F",
"h.	c #2AA72A",
"i.	c #62CC62",
"j.	c #289028",
"k.	c #908BB4",
"l.	c #234729",
"m.	c #D6F289",
"n.	c #DAEA82",
"o.	c #C2E56D",
"p.	c #E2EA86",
"q.	c #B0E85D",
"r.	c #8BB66D",
"s.	c #447F68",
"t.	c #4C8F4B",
"u.	c #4A9148",
"v.	c #4B924B",
"w.	c #4D8E4D",
"x.	c #498E49",
"y.	c #0D650D",
"z.	c #A0A0CE",
"A.	c #9490BA",
"B.	c #234A27",
"C.	c #E6E569",
"D.	c #F0E26C",
"E.	c #F1E978",
"F.	c #EFD85C",
"G.	c #F5FA8B",
"H.	c #8EA842",
"I.	c #000100",
"J.	c #686699",
"K.	c #0C1E12",
"L.	c #1E4018",
"M.	c #1D3D18",
"N.	c #1E3E18",
"O.	c #1D3D17",
"P.	c #1E3F1A",
"Q.	c #183815",
"          . + @ #               ",
"        $ % & * = - ;           ",
"      > , ' ) ) ' ! ~           ",
"      { ] ^ / / ^ ( _ :         ",
"< [ } | 1 2 3 4 2 5 6 7         ",
"8 9 0 a b c d d e b f g h i j k ",
"l m n o p q r r q s t u v w x y ",
"z A B C D E F F G H I J K L M N ",
"O P Q R S T U V W X Y Z `  ...+.",
"@.#.$.%.&.*.=.-.;.>.,.'.).!.~.{.",
"@.].^./.(._.:.<.[.}.|.1.2.3.4.5.",
"@.6.7.8.9.0.a.b.c.d.e.f.g.h.i.j.",
"@.k.l.m.n.o.p.q.r.s.t.u.v.w.x.y.",
"z.A.B.C.D.E.F.G.H.I.            ",
"  J.K.L.M.N.O.P.Q.              ",
"                                "};
