/* XPM */
static char *klipper-16[] = {
/* columns rows colors chars-per-pixel */
"16 16 191 2",
"   c black",
".  c #000001",
"X  c #000002",
"o  c #000003",
"O  c #010002",
"+  c #020000",
"@  c #030001",
"#  c #000004",
"$  c #050301",
"%  c #121520",
"&  c #251703",
"*  c #37240B",
"=  c #402514",
"-  c #56331B",
";  c #78787B",
":  c #7B7B7F",
">  c #717189",
",  c #9A560F",
"<  c #9C550E",
"1  c #935117",
"2  c #9F5615",
"3  c #995912",
"4  c #9A5810",
"5  c #995C12",
"6  c #9A5E13",
"7  c #9C681E",
"8  c #9F7331",
"9  c #AD5C09",
"0  c #AD5E0A",
"q  c #B15D08",
"w  c #AC600B",
"e  c #AC610B",
"r  c #AC630C",
"t  c #AC650D",
"y  c #AC660E",
"u  c #AE6A0F",
"i  c #A26715",
"p  c #A06419",
"a  c #AC6613",
"s  c #AC6915",
"d  c #AC6B16",
"f  c #AE6F17",
"g  c #AC7016",
"h  c #AC7019",
"j  c #AD761C",
"k  c #B57A18",
"l  c #A86A20",
"z  c #A7793C",
"x  c #B6821E",
"c  c #B8892A",
"v  c #AD8040",
"b  c #C28F1F",
"n  c #C18326",
"m  c #CC872B",
"M  c #CE8822",
"N  c #CC8928",
"B  c #C09022",
"V  c #CA9D25",
"C  c #D98633",
"Z  c #DA8C37",
"A  c #D5912A",
"S  c #D39E38",
"D  c #DD9139",
"F  c #DF983C",
"G  c #D6AC29",
"H  c #FB8B10",
"J  c #EB943B",
"K  c #FDB125",
"L  c #C2BE68",
"P  c #E19E40",
"I  c #ED9A41",
"U  c #EE9E43",
"Y  c #E3A442",
"T  c #E5AA46",
"R  c #E7AF49",
"E  c #EFA145",
"W  c #E7AE51",
"Q  c #E2B052",
"!  c #E4B354",
"~  c #E8B153",
"^  c #E9BC58",
"/  c #F1A647",
"(  c #F2AA49",
")  c #F4AE4B",
"_  c #F4B14E",
"`  c #F6B44E",
"'  c #CDC766",
"]  c #E7C154",
"[  c #EBC75E",
"{  c #EDD163",
"}  c #EFDB69",
"|  c #F2E75F",
" . c #FFF752",
".. c #FFF45A",
"X. c #F0E470",
"o. c #FAF971",
"O. c #858597",
"+. c #949499",
"@. c #98989C",
"#. c #9191A5",
"$. c #9394AD",
"%. c #9595AA",
"&. c #9C9CA0",
"*. c #9D9DA2",
"=. c #9B9BB1",
"-. c #9C9DB3",
";. c #9E9EB3",
":. c #A7A7AA",
">. c #AAAAAA",
",. c #ACACAE",
"<. c #A0A0B4",
"1. c #A2A2B5",
"2. c #A4A4B7",
"3. c #A6A7BC",
"4. c #AFAFB0",
"5. c #A8A8BA",
"6. c #A9A9BC",
"7. c #B2B2B8",
"8. c #B6B9BE",
"9. c #B8B8BD",
"0. c #BDBDC1",
"q. c #BFBFC3",
"w. c #C1C2C7",
"e. c #C5C5C7",
"r. c #C1C1CA",
"t. c #C2C2CE",
"y. c #C6C6C9",
"u. c #CBCBCB",
"i. c #CCCCCF",
"p. c #CECECD",
"a. c gray81",
"s. c #C5C5D2",
"d. c #C6C6D3",
"f. c #CED0CF",
"g. c #D3D3DB",
"h. c #D3D3DC",
"j. c #D5D5D8",
"k. c #D5D5DD",
"l. c #DDDDDF",
"z. c #CBCDE4",
"x. c #CECEE0",
"c. c #CDCFE4",
"v. c #D1D1E3",
"b. c #D2D2E4",
"n. c #D2D3E4",
"m. c #D3D4E4",
"M. c #D5D5E6",
"N. c #D8D8E2",
"B. c #DBDBE3",
"V. c #DCDCE4",
"C. c #D8DAEA",
"Z. c #E5E6EB",
"A. c #E6E7E8",
"S. c #E5E5EF",
"D. c #EAEAEB",
"F. c #E4E4F1",
"G. c #E4E5F2",
"H. c #E4E5F3",
"J. c #E6E7F3",
"K. c #E7E8F3",
"L. c #E5E9F6",
"P. c #EAEAF1",
"I. c #E9EBF7",
"U. c #EBEBF4",
"Y. c #EAECF5",
"T. c #EBECF7",
"R. c #EBEDF6",
"E. c #ECECF2",
"W. c #ECECF3",
"Q. c #ECECF4",
"!. c #ECEDF6",
"~. c #EEEFF7",
"^. c #E8EBF9",
"/. c #EAEDF8",
"(. c #EFEFF9",
"). c #F0F1F8",
"_. c #F1F2F8",
"`. c #F1F3FB",
"'. c #F1F3FC",
"]. c #F2F3FC",
"[. c #F3F3FC",
"{. c #F1F4FB",
"}. c #F3F5FC",
"|. c #F3F5FD",
" X c #F5F5F9",
".X c #F5F7FF",
"XX c #F6F6FC",
"oX c #FCFCFF",
"OX c #FEFFFF",
"+X c gray100",
"@X c None",
/* pixels */
"@X@X@X@X> -.s.t.s.#.% @X@X@X@X@X",
"@Xm A v %.E.+X+X+XP.O.8 n * @X@X",
"@XS ..L 3.B.g.h.h.V.2.'  .c   @X",
"@XG o.f.=.5.6.1.1.-.$.8.| b $ @X",
"@XV X.[.+XD.l. X~.F.F.c.^ k     ",
"@XB } ).+Xu.>.+X XU.F.x.R g     ",
"@Xx { ).+Xa.,.+X0.r.H.b.T i     ",
"@Xj [ ~.+Xa.,.0.+.N.L.b.Y 6     ",
"@Xg ^ T.+Xi.; : h.).K.b.J 7     ",
"@Xd ~ T.+Xy.@.8.*.~.T.M.F 5     ",
"@Xa W {.+Xe.:.oX&.7.).M.D 4 #   ",
"@Xs ! [.+XA.j.+XZ.r.[.C.Z 4     ",
"@Xh Q ^.[..X[.~./.I.L.z.C < #   ",
"@Xh K _ _ ) ( E E U I J H 1 #   ",
"@X- 7 t a t r r w 9 9 q 2 =     ",
"@X  #     # # # # # # # #       "
};
