/* XPM */
static char *klipper[] = {
/* columns rows colors chars-per-pixel */
"32 32 164 2",
"   c black",
".  c #180E08",
"X  c #353541",
"o  c #452817",
"O  c #633A20",
"+  c #6A3E23",
"@  c #744E17",
"#  c #734425",
"$  c #7D4A25",
"%  c #4B4B5A",
"&  c #76767A",
"*  c #7F7F77",
"=  c #7B7B7D",
"-  c #646484",
";  c #70708B",
":  c #7D7D81",
">  c #737390",
",  c #7A7A95",
"<  c #7E7E98",
"1  c #865227",
"2  c #8F5927",
"3  c #976028",
"4  c #A06728",
"5  c #A96E29",
"6  c #B27429",
"7  c #BB7B29",
"8  c #826B56",
"9  c #8B6F78",
"0  c #8E786D",
"q  c #8E727A",
"w  c #977C64",
"e  c #90767B",
"r  c #947A7E",
"t  c #B07650",
"y  c #D4710D",
"u  c #DC750B",
"i  c #DC7B0E",
"p  c #838379",
"a  c #8B8B7D",
"s  c #D48C1B",
"d  c #DC8312",
"f  c #DC8A16",
"g  c #DC8E18",
"h  c #DC941A",
"j  c #DC981D",
"k  c #C78727",
"l  c #C28129",
"z  c #CA872A",
"x  c #CC8A28",
"c  c #D28E2A",
"v  c #D5902A",
"b  c #DC9D20",
"n  c #D69F38",
"m  c #DCA423",
"M  c #DFAD27",
"N  c #E1971B",
"B  c #E49C1C",
"V  c #FF8602",
"C  c #FF8B04",
"Z  c #FF9007",
"A  c #FF9409",
"S  c #FF9B0D",
"D  c #E7A21E",
"F  c #FFA00F",
"G  c #FFA311",
"H  c #FFAA15",
"J  c #FFAF18",
"K  c #FFB31A",
"L  c #FFBB1E",
"P  c #EAA620",
"I  c #ECAA21",
"U  c #E1B32A",
"Y  c #E3BA2C",
"T  c #EEB928",
"R  c #D69F4B",
"E  c #C89F65",
"W  c #E5C02F",
"Q  c #E7C632",
"!  c #EACD34",
"~  c #ECD337",
"^  c #EED939",
"/  c #FFC423",
"(  c #FFCE28",
")  c #FFD42B",
"_  c #FFDA2E",
"`  c #F0DB3A",
"'  c #FFE333",
"]  c #FFEC38",
"[  c #FFF33C",
"{  c #FFF93F",
"}  c #ECD843",
"|  c #FFFE42",
" . c #F4F351",
".. c #FAF954",
"X. c #E9E961",
"o. c #F4F467",
"O. c #F9F165",
"+. c #FFFF68",
"@. c #858589",
"#. c #85859E",
"$. c #8C8C91",
"%. c #9B8382",
"&. c #909093",
"*. c #96969A",
"=. c #9C9C9D",
"-. c #8787A0",
";. c #8E8EA5",
":. c #9696AB",
">. c #9898AD",
",. c #A18B86",
"<. c #A69189",
"1. c #AB938C",
"2. c #AE9B8E",
"3. c #B19690",
"4. c #B39C92",
"5. c #B99F95",
"6. c #B5A392",
"7. c #B3AA96",
"8. c #BAA495",
"9. c #BEA699",
"0. c #BCA996",
"q. c #B6B19A",
"w. c #B8B59C",
"e. c #BBB99E",
"r. c #A3A3A8",
"t. c #A9A9AF",
"y. c #A2A2B5",
"u. c #B1B1B7",
"i. c #B5B5BC",
"p. c #BCBCC1",
"a. c #BDBDD0",
"s. c #C2AB9B",
"d. c #C6B29D",
"f. c #C7B89D",
"g. c #CABC9F",
"h. c #CEC2A3",
"j. c #D2C9A6",
"k. c #D5CDA8",
"l. c #D7D1AA",
"z. c #DAD5AC",
"x. c #DCD9AF",
"c. c #DFDDB1",
"v. c #F9F181",
"b. c #C5C5CA",
"n. c #C8C8CC",
"m. c #C3C3D3",
"M. c #CBCBD5",
"N. c #CDCDDA",
"B. c #D2D2D7",
"V. c #D3D3DC",
"C. c #D9D9DE",
"Z. c #CFCFE0",
"A. c #D3D3E2",
"S. c #DADAE1",
"D. c #DFDFEC",
"F. c #E0E0E5",
"G. c #E2E2ED",
"H. c #E8E8EE",
"J. c #E6E6F0",
"K. c #EBEBF2",
"L. c #F1F1F5",
"P. c #F4F4F9",
"I. c #FEFEFE",
"U. c None",
/* pixels */
"U.U.U.U.U.U.U.U.U.U.U.U.U.U.U.U.U.U.U.U.U.U.U.U.U.U.U.U.U.U.U.U.",
"U.U.U.U.U.U.U.U.U.U.#.#.-.-.-.#.#.#.#.#.%   U.U.U.U.U.U.U.U.U.U.",
"U.U.U.U.U.U.U.U.U.< < >.P.I.I.I.I.I.P.>., X   U.U.U.U.U.U.U.U.U.",
"U.U.U.U.U.c c x w > ;.L.I.P.I.P.P.I.P.L.;.; 8 k x z     U.U.U.U.",
"U.U.U.c c v v v 0 :.K.K.L.K.K.K.L.H.L.H.L.:.0 c v v x @   U.U.U.",
"U.U.U.z R v.+.+.a y.F.F.F.F.F.F.F.F.F.F.F.y.a +.+.O.n l     U.U.",
"U.U.U.l } | ..o.p >.V.V.B.B.V.V.B.V.V.V.B.>.p X. .| ` l     U.U.",
"U.U.U.7 ^ { c.F.#.- > > > > > ; > > > > ; - , a.e.| T 7     U.U.",
"U.U.U.6 ~ [ x.L.L.B.C.B.V.V.V.N.N.N.m.m.m.a.A.Z.w.] I 6     U.U.",
"U.U.U.5 ~ ] z.L.I.I.I.I.I.I.I.P.L.L.K.K.J.G.G.Z.q.) P 5     U.U.",
"U.U.U.4 Q ' k.L.I.I.I.I.= =.I.P.L.L.K.K.J.G.D.N.7.L D 4     U.U.",
"U.U.U.3 Y ' k.L.I.I.I.I.p =.I.P.L.L.K.J.G.G.D.A.2.K B 3     U.U.",
"U.U.U.2 Y _ j.L.I.I.I.I.= r.P.P.L.L.K.K.G.D.D.D.2.J N 2     U.U.",
"U.U.U.1 U ) h.L.I.I.I.I.= =.I.P.L.S.u.p.D.D.D.D.1.J N 1     U.U.",
"U.U.U.$ M ( h.K.I.I.I.I.= =.I.P.b.& ; N.G.D.D.D.<.J N $     U.U.",
"U.U.U.# m ( g.K.I.I.I.I.= r.I.b.= : B.G.G.G.G.D.<.H h #     U.U.",
"U.U.U.# m / g.H.I.I.I.I.: =.p.& $.S.J.J.J.D.G.D.,.H g #     U.U.",
"U.U.U.# j L f.H.I.I.I.P.& & & & t.J.J.J.J.J.G.G.%.G f #     U.U.",
"U.U.U.# j K d.H.I.P.P.P.= & $.$.& N.K.J.J.J.J.J.%.G f #     U.U.",
"U.U.U.# h J 0.G.P.I.P.P.= &.L.S.: @.J.K.J.J.J.J.%.G d #     U.U.",
"U.U.U.# g H 0.I.I.I.P.P.= *.P.L.i.= r.K.J.J.J.J.%.S d #     U.U.",
"U.U.U.# f H 8.I.I.P.P.I.= *.P.L.L.*.= n.K.K.K.K.r A d #     U.U.",
"U.U.U.# d K 6.I.I.I.I.I.= =.P.P.P.F.: : J.K.J.K.r A d #     U.U.",
"U.U.U.# g K 6.I.I.I.I.P.C.S.I.P.P.P.S.B.F.L.K.K.q Z i #     U.U.",
"U.U.U.# j J 6.I.I.I.I.I.P.I.P.P.P.P.P.P.L.L.K.K.q Z i #     U.U.",
"U.U.U.# j J 2.I.I.I.I.I.I.I.I.P.P.P.P.P.L.L.L.L.9 Z i #     U.U.",
"U.U.U.# h J E d.d.d.s.s.9.9.9.8.5.4.4.3.3.3.1.1.t C u #     U.U.",
"U.U.U.# s H H H G G F F S S A S A A A Z Z C C C C V y #     U.U.",
"U.U.U.# $ g G G G G F S S S S A A A Z Z C C C V V u $ +     U.U.",
"U.U.U.o + # # # # # # # # # # # # # # # # # # # # # O .     U.U.",
"U.U.U.                                                      U.U.",
"U.U.U.U.                                                  U.U.U."
};
