/* XPM */
static char *kmenuedit[] = {
/* columns rows colors chars-per-pixel */
"32 32 255 2",
"   c #000030",
".  c #4D4D4D",
"X  c #545453",
"o  c #595651",
"O  c #595855",
"+  c #5A5A59",
"@  c #686866",
"#  c #6C6C6A",
"$  c #70706E",
"%  c #737372",
"&  c #787876",
"*  c #7B7B79",
"=  c #737FA4",
"-  c #476EE5",
";  c #4C72EC",
":  c #5478E7",
">  c #5178EA",
",  c #627CC6",
"<  c #7BA4FF",
"1  c #B83C00",
"2  c #B74000",
"3  c #B84000",
"4  c #A0684C",
"5  c #A67057",
"6  c #AF7558",
"7  c #BD7C58",
"8  c #A47C6B",
"9  c #C14B03",
"0  c #C04F10",
"q  c #C45109",
"w  c #DB6D15",
"e  c #DE7117",
"r  c #C06F3A",
"t  c #CB763A",
"y  c #D87226",
"u  c #E27A23",
"i  c #C77548",
"p  c #D07941",
"a  c #A18275",
"s  c #B18F61",
"d  c #B08B76",
"f  c #B79D7C",
"g  c #BE9177",
"h  c #B8A179",
"j  c #DDA739",
"k  c #EC8E00",
"l  c #E9961B",
"z  c #F5891F",
"x  c #E68732",
"c  c #FB942B",
"v  c #FF9C2F",
"b  c #F89632",
"n  c #FFA11F",
"m  c #FFBC02",
"M  c #FFB112",
"N  c #FFB71F",
"B  c #E8B236",
"V  c #EEBC3B",
"C  c #FFA126",
"Z  c #FFA032",
"A  c #FFAD34",
"S  c #FFBF2F",
"D  c #F1B631",
"F  c #FFB934",
"G  c #D3814A",
"H  c #D68A59",
"J  c #D88959",
"K  c #C09F6A",
"L  c #CDAB5E",
"P  c #DBB268",
"I  c #E18D50",
"U  c #E99241",
"Y  c #EDA052",
"T  c #FDA646",
"R  c #FFAA42",
"E  c #FFB543",
"W  c #FFB455",
"Q  c #FEB25B",
"!  c #FFBF56",
"~  c #E5A461",
"^  c #EEAB62",
"/  c #EBBD66",
"(  c #FDBC6A",
")  c #F6C700",
"_  c #FFC500",
"`  c #FFC10F",
"'  c #FFC908",
"]  c #F4C61C",
"[  c #F4C916",
"{  c #FFC112",
"}  c #FFC419",
"|  c #FFCE17",
" . c #F8D001",
".. c #FFDD01",
"X. c #FFC621",
"o. c #FFC824",
"O. c #FFC92B",
"+. c #F4C431",
"@. c #F3C33E",
"#. c #FFCB35",
"$. c #FFCF3D",
"%. c #F7D029",
"&. c #FFD62A",
"*. c #FFDD20",
"=. c #FFDB3F",
"-. c #FFE106",
";. c #FEEC01",
":. c #FFE41C",
">. c #FDE919",
",. c #FFF001",
"<. c #FFF00D",
"1. c #FEEA31",
"2. c #FFF428",
"3. c #FFC741",
"4. c #F1C456",
"5. c #FFCE53",
"6. c #FFD144",
"7. c #FFD349",
"8. c #FFD553",
"9. c #FFD85B",
"0. c #FFC166",
"q. c #FFC964",
"w. c #FEC379",
"e. c #FFC877",
"r. c #FFD563",
"t. c #FAD56B",
"y. c #FFD962",
"u. c #FFDD6C",
"i. c #FFD174",
"p. c #FFDC75",
"a. c #FDE845",
"s. c #FFEC4B",
"d. c #FDE255",
"f. c #FFF642",
"g. c #FFF65C",
"h. c #FDE569",
"j. c #FFE17B",
"k. c #FFF365",
"l. c #FFF57D",
"z. c #FFF976",
"x. c #8E8C84",
"c. c #8A8B8C",
"v. c #938E8F",
"b. c #9E8C84",
"n. c #988E91",
"m. c #92908E",
"M. c #9B968E",
"N. c #949494",
"B. c #9A9792",
"V. c #9A9994",
"C. c #9B9A9C",
"Z. c #8493A7",
"A. c #8492A8",
"S. c #8D99A9",
"D. c #9D9EA2",
"F. c #A19E99",
"G. c #A0A09E",
"H. c #BCA298",
"J. c #A4A3A1",
"K. c #A8A8A6",
"L. c #ACABAA",
"P. c #ABABB0",
"I. c #B1B1AF",
"U. c #B2B1B3",
"Y. c #BAB5B7",
"T. c #BCBBBC",
"R. c #849ED9",
"E. c #8AAAD7",
"W. c #93B0DA",
"Q. c #9DB1D4",
"!. c #84ABFF",
"~. c #86B8FF",
"^. c #8CB7FF",
"/. c #8CBBFF",
"(. c #AAB5C4",
"). c #AFB9C6",
"_. c #B3BEC6",
"`. c #BCBCC0",
"'. c #8DC0FF",
"]. c #93C1FF",
"[. c #9AC5FF",
"{. c #9CC9FF",
"}. c #B9C1C5",
"|. c #A9CFFF",
" X c #ACD6FF",
".X c #B6C8E1",
"XX c #BBCBE3",
"oX c #BFD0E3",
"OX c #C3A680",
"+X c #CEB29D",
"@X c #D1A48A",
"#X c #D9BB8C",
"$X c #D9B190",
"%X c #D8BD96",
"&X c #C5B7B9",
"*X c #C0C0BE",
"=X c #D5C8B3",
"-X c #F3CA81",
";X c #F7CC8B",
":X c #FFCC81",
">X c #F6CF9D",
",X c #FFD58C",
"<X c #FFDB87",
"1X c #FFDF96",
"2X c #F4D0A3",
"3X c #FEDFAD",
"4X c #F3D7BD",
"5X c #FFE283",
"6X c #FFE488",
"7X c #FFEB80",
"8X c #FFE09A",
"9X c #FFF98D",
"0X c #FFFA9B",
"qX c #FFEEBE",
"wX c #C3C3C2",
"eX c #C6C6CA",
"rX c #C8C6C6",
"tX c #CECECD",
"yX c #CECED0",
"uX c #CFD0D2",
"iX c #D2CFCB",
"pX c #D0D0CE",
"aX c #D2D2D1",
"sX c #D3D3D8",
"dX c #D8D8D6",
"fX c #DAD9D9",
"gX c #C4D0F2",
"hX c #DFDFE0",
"jX c #D2DCF3",
"kX c #D1DEF8",
"lX c #D4E3F7",
"zX c #D7E4F8",
"xX c #E0DDD6",
"cX c #E0DEDB",
"vX c #FBDDC1",
"bX c #E2E0DC",
"nX c #FEE6D0",
"mX c #FFEED0",
"MX c #FFF6C0",
"NX c #FFF4D6",
"BX c #FFFFD7",
"VX c #E2E1E2",
"CX c #E4E6EC",
"ZX c #ECECEC",
"AX c #EFEFF0",
"SX c #EFF2F6",
"DX c #F0EEEB",
"FX c #FFF7E6",
"GX c #FFF6EA",
"HX c #FFF9EA",
"JX c #F3F3F4",
"KX c #F5F6F8",
"LX c #FFFAF5",
"PX c #FEFEFE",
"IX c None",
/* pixels */
"IXIXIXIXIX1 0 p ~ l k IXIXIXIXIXIXIXIXIXIXIXIXIXIXIXIXIXIXIXIXIX",
"IXIXIXIX3 H 4XLXBX%.h G.K.K.K.K.K.K.K.K.K.K.K.K.C.+ . IXIXIXIXIX",
"IXIXIX1 G HXNX1X*.,.D KXJXKXKXKXKXJXKXKXJXKXKXKXfXX . IXIXIXIXIX",
"IXIXIX1 y Q F m _ ,. .#XpXpXpXpXaXpXpXpXiXaXuXdX*XO . IXIXIXIXIX",
"IXIXIXIX9 z n m m ..;.B pXaXaXtXaXaXaXaXaXaXdXdXwXX IXIXIXIXIXIX",
"IXIXIXIX3 w v M _ ' ,.) h G.J.J.G.G.F.J.J.K.F.C.N.O # $ # # & + ",
"IXIXIXIXIX9 c v m M -.;.j _.).)._._.).)._.c.Y.*X*XwXwXwXwXwXL.O ",
"IXIXIXIXIX3 e Z S } | <.[ `.|.|. X|.|.|. XS.LXSXDXSXSXAXAXJXyXX ",
"IXIXIXIXIXIXq b A X.o.:.>.L /./././././.'.Z.DXaXpXaXaXaXaXsX*XX ",
"IXIXIXIXIXIX3 u R S O.&.2.] Q.^.^.^.^.^./.Z.DXaXpXpXtXpXpXdXT.X ",
"IXIXIXIXIXIXIXq T E #.#.1.1.s ; ; ; ; ; ; = fXm.V.V.V.V.V.V.m.+ ",
"IXIXIXIXIXIXIX3 x W 3.$.=.f.+.dXjXjXjXjXkXC.CX.XXXXXXXXXXXoX).X ",
"IXIXIXIXIXIXIXIXr Q 4.7.7.s.a./ cXcXfXfXcXF.zX].[.[.[.[.[.{.W.o ",
"IXIXIXIXIXIXIXIXd x 0.5.8.9.g.@.=XiXuXaXdXV.lX~./.'./.'./.'.E.o ",
"  IXIXIXIXIXIXIXL.G 0.q.8.9.k.d.P wXwXwXrXV.kX< !.!.!.!.!.!.R.o ",
"      IXIXIXIXIXU.g Y e.y.y.h.z.V M.N.N.V.x.gX- : : : : : : , O ",
"          IXIXIXL.KXp :Xi.u.h.l.h.-XSXDXSXD.JXSXSXSXJXSXSXSXaXX ",
"              IXL.SX@X^ ,Xp.p.j.9X4.iXaXfXV.AXfXdXfXfXfXdXhXwXX ",
"                J.ZXeXI ,X<Xj.7X0Xt.%XuXdXV.ZXdXaXaXpXaXaXfX*XX ",
"                C.eXT.8 w.1X<X6XMX>XK U.Y.c.ZXT.T.}.*X*X*XeXU.X ",
"                J.P.N.v.t 3XMXnXHX>Xf J.J.V.$ @ @ % % % % $ % O ",
"                C.CXCXCX&XJ nXGXFX2X4XKXKXKXN.V.c.. . . . . . . ",
"IX              C.sXT.`.eXU.i vXHX$X+XaXaXaXfXVXeXX IXIXIXIXIXIX",
"IXIXIX          C.sX`.`.`.wXY.7 H.a +XaXaXaXaXdXwXO . IXIXIXIXIX",
"IXIXIXIXIXIX    D.T.N.C.C.N.C.C.4 6 b.K.K.K.K.L.J.+ . IXIXIXIXIX",
"IXIXIXIXIXIXIXIXL.tXL.L.P.P.L.P.I.5 m.*X*X&XT.T.K.+ . IXIXIXIXIX",
"IXIXIXIXIXIXIXIXK.PXJXKXSXJXJXJXJXJXJXJXJXJXSXKXaXX . IXIXIXIXIX",
"IXIXIXIXIXIXIXIXL.JXpXpXyXyXpXaXpXpXpXpXpXpXtXdXwXX . IXIXIXIXIX",
"IXIXIXIXIXIXIXIXP.JXuXpXaXyXyXyXpXpXaXpXaXtXaXdX*X+ . IXIXIXIXIX",
"IXIXIXIXIXIXIXIXG.Y.G.J.J.J.J.J.J.J.J.J.J.J.J.J.C.+ . IXIXIXIXIX",
"IXIXIXIXIXIXIXIX$ X + + + + + + + + + O + + + + + X . IXIXIXIXIX",
"IXIXIXIXIXIXIXIXIXIXIXIXIXIXIXIXIXIXIXIXIXIXIXIXIXIXIXIXIXIXIXIX"
};
