/* XPM */
static char *kmenuedit-16[] = {
/* columns rows colors chars-per-pixel */
"16 16 86 1",
"  c #000010",
". c #000011",
"X c #030111",
"o c gray35",
"O c #1B1BFF",
"+ c #4D73EC",
"@ c #9F2000",
"# c #9E2102",
"$ c #A12401",
"% c #BB3300",
"& c #BE3A05",
"* c #B1431A",
"= c #B84B1E",
"- c #AF4323",
"; c #8A5744",
": c #866359",
"> c #997D74",
", c #AC6C45",
"< c #BB774D",
"1 c #C65615",
"2 c #D24F0E",
"3 c #D4662D",
"4 c #E25A0A",
"5 c #E76E1A",
"6 c #FA7504",
"7 c #AD987F",
"8 c #FA8712",
"9 c #FF9907",
"0 c #E68836",
"q c #FC9F2B",
"w c #FFA101",
"e c #FFAD1C",
"r c #FFB600",
"t c #FFB40E",
"y c #FFBB04",
"u c #EBBE24",
"i c #FFAD24",
"p c #D19F4B",
"a c #C49E7C",
"s c #CEAF7B",
"d c #E0B744",
"f c #F9A84F",
"g c #FFBB4A",
"h c #ECB67D",
"j c #FECD01",
"k c #F1C013",
"l c #FFC919",
"z c #FAD10D",
"x c #FFC427",
"c c #FFC135",
"v c #F9CA3B",
"b c #FCD72B",
"n c #FEDA39",
"m c #FACE5C",
"M c #FDD647",
"N c #FFD54A",
"B c #FDD659",
"V c #FFD75B",
"C c #F9CC6A",
"Z c #FFE05F",
"A c #998682",
"S c #959597",
"D c #979798",
"F c #99999A",
"G c #9B9B9B",
"H c #B0A090",
"J c #A7A7A7",
"K c #8CB7FF",
"L c #95B3E9",
"P c #A9CFFF",
"I c #C99682",
"U c #DAB79C",
"Y c #C1BCBC",
"T c #E7C793",
"R c #F3C589",
"E c #FFD485",
"W c #FFDF9D",
"Q c #CDCDCE",
"! c #D1C8C8",
"~ c #DFD6CC",
"^ c #DEDCDA",
"/ c gray87",
"( c #F7ECE3",
") c gray97",
"_ c gray100",
"` c None",
/* pixels */
"*-1HJJJJJJJJo```",
"=hZp))))))))o```",
"3irk~////JJJJJJo",
"%6wjsPPPPJ)))))o",
"$49yuLKKKJ/////o",
"`&8tzA+++JPPPPPo",
"`@5elv())JKKKKKo",
"``2qxbT^/J+++++o",
"``@0cnd7GJ)))))o",
"..`<gNMC)J/////o",
"...>fBBm/ooooooo",
"...D,EWRGGGGo```",
"...G!IUa))))o```",
"...DQY:;////o```",
"```J////////o```",
"```oooooooooo```"
};
