/* XPM */
static char *konqueror-16[] = {
/* columns rows colors chars-per-pixel */
"16 16 153 2",
"   c black",
".  c #000001",
"X  c #000002",
"o  c #020101",
"O  c #030207",
"+  c #04040C",
"@  c #07070C",
"#  c #080607",
"$  c #090A10",
"%  c #0C0C12",
"&  c #0F0F14",
"*  c #18181C",
"=  c #000321",
"-  c #1B1B22",
";  c #1C1C26",
":  c #313139",
">  c #33333E",
",  c #00215E",
"<  c #102446",
"1  c #153154",
"2  c #153F71",
"3  c #373743",
"4  c #3D3D4B",
"5  c #434349",
"6  c #4E494E",
"7  c #494954",
"8  c #4E4C5B",
"9  c #52525A",
"0  c #53515D",
"q  c #555564",
"w  c #505B77",
"e  c #5E5E71",
"r  c #6C6C75",
"t  c #6C687C",
"y  c #0027C7",
"u  c #0034C8",
"i  c #003ACA",
"p  c #003ECC",
"a  c #225495",
"s  c #0042CF",
"d  c #0656D7",
"f  c #0D50D0",
"g  c #115AD5",
"h  c #0059E7",
"j  c #1F66D9",
"k  c #1E67DB",
"l  c #1E6EDD",
"z  c #1D73E5",
"x  c #256EDD",
"c  c #266FDD",
"v  c #2770DD",
"b  c #3A74DE",
"n  c #2873EB",
"m  c #496697",
"M  c #536E98",
"N  c #597DAD",
"B  c #717182",
"V  c #747181",
"C  c #77778E",
"Z  c #4A7FD8",
"A  c #2D80E3",
"S  c #3088F6",
"D  c #7F8397",
"F  c #6789BA",
"G  c #6C85B1",
"H  c #488EE7",
"J  c #5D93E2",
"K  c #5F9DE9",
"L  c #5F9EEE",
"P  c #7586C7",
"I  c #63A0EA",
"U  c #65A1EB",
"Y  c #66A3EC",
"T  c #65A7EF",
"R  c #64A0F4",
"E  c #64A8F0",
"W  c #67B0F4",
"Q  c #6CB1F4",
"!  c #71AAEF",
"~  c #7AA1E5",
"^  c #8E8A91",
"/  c #9090A4",
"(  c #9795A6",
")  c #9398B0",
"_  c #A0A0AA",
"`  c #A2A2B1",
"'  c #A2A4B1",
"]  c #B0ADB9",
"[  c #8698CE",
"{  c #8999CA",
"}  c #8FBAF5",
"|  c #97B8E7",
" . c #9DBAE9",
".. c #A7B4D1",
"X. c #B4B3C3",
"o. c #B7B7C1",
"O. c #B7B5C8",
"+. c #B9B7C2",
"@. c #B7BAD1",
"#. c #A4BFF2",
"$. c #8CC1F6",
"%. c #8FC9FA",
"&. c #97C6F6",
"*. c #97C7F7",
"=. c #97D0FF",
"-. c #99D7FF",
";. c #99D8FF",
":. c #A1CCF6",
">. c #A4CEF7",
",. c #A4D0F9",
"<. c #A6DDFF",
"1. c #A7DCFF",
"2. c #AADCFF",
"3. c #B9CFF7",
"4. c #BAD1EB",
"5. c #BCD5EC",
"6. c #B5D7FA",
"7. c #B7D7FC",
"8. c #B7D8FD",
"9. c #ACE2FF",
"0. c #C6C6D5",
"q. c #D3D0D8",
"w. c #DBDBE5",
"e. c #DCDBE3",
"r. c #DEDEEA",
"t. c #D3DEF4",
"y. c #C1EEFF",
"u. c #CCE2F6",
"i. c #CAE3FF",
"p. c #C8E7FF",
"a. c #C0F4FF",
"s. c #C8FAFF",
"d. c #CCF9FF",
"f. c #CCFAFF",
"g. c #D8F6FF",
"h. c #DDFDFF",
"j. c #E4E2E7",
"k. c #E2E2EA",
"l. c #E4E4EC",
"z. c #E5E5EF",
"x. c #E3FFFF",
"c. c #E5FFFF",
"v. c #E7FFFF",
"b. c #EBFFFF",
"n. c #ECFFFF",
"m. c #EEFFFF",
"M. c #F6EEF0",
"N. c #F7F5F9",
"B. c #F6F6FF",
"V. c #F4FFFF",
"C. c #F9F7FD",
"Z. c gray100",
"A. c None",
/* pixels */
"A.5 9 & A.A.A.A.A.A.A.A.A.A.A.A.",
"A.* l.l.7   # A.  A.A.A.A.A.A.A.",
"A.  _ Z.N.@.G m F M <   A.A.A.A.",
"A.A.% q.t.} p.m.V.m.g.N   A.A.A.",
"A.A.A.' L &.6.7.>.:.,.2.a   A.A.",
"  @ 6 | A &.*.! K U I Y z = A.A.",
"o.k.M.J d T %.H c c v k h , A.A.",
"r.Z.Z.Z y p Q ;.E s i l S 2 A.A.",
"& > ^ ~ u g ;.a.9.f k E n 1   A.",
"A.A.  ..b 1.s.d.d.$.1.=.R w   A.",
"A.A.  ]  .y.c.c.c.b.x.d.5.t   A.",
"A.  r C.e.u.7.#.3.i.h.4.O.0.; A.",
"A.  w.Z.( 0 ) [ P { D 8 X.B.C   ",
"A.  : q   A.O +.j.V   A.$ e / - ",
"A.A.A.A.A.A.  ` Z.4 A.A.A.      ",
"A.A.A.A.A.A.A.3 B @ A.A.A.A.A.A."
};
