/* XPM */
static char *konqueror[] = {
/* columns rows colors chars-per-pixel */
"32 32 242 2",
"   c #000000",
".  c #040409",
"X  c #000414",
"o  c #000019",
"O  c #00081A",
"+  c #0A0A13",
"@  c #13131B",
"#  c #18181F",
"$  c #00062C",
"%  c #000431",
"&  c #00043F",
"*  c #000933",
"=  c #001238",
"-  c #131321",
";  c #191926",
":  c #1B1B2A",
">  c #111F3D",
",  c #212126",
"<  c #22222C",
"1  c #28282D",
"2  c #252534",
"3  c #2D2D36",
"4  c #2D2C3C",
"5  c #34343F",
"6  c #001B5D",
"7  c #082F74",
"8  c #313146",
"9  c #31314B",
"0  c #3A3A44",
"q  c #3B3B4D",
"w  c #404051",
"e  c #42425D",
"r  c #4A4953",
"t  c #52525B",
"y  c #474762",
"u  c #4F4F65",
"i  c #515164",
"p  c #56566F",
"a  c #5C5C6A",
"s  c #626270",
"d  c #64647A",
"f  c #6B6A7E",
"g  c #002E82",
"h  c #0021BF",
"j  c #002BC5",
"k  c #002DC8",
"l  c #0033C7",
"z  c #0033C8",
"x  c #003ACA",
"c  c #084091",
"v  c #0347AB",
"b  c #2A4EBA",
"n  c #275CA3",
"m  c #2E52BC",
"M  c #3656BA",
"N  c #3758BA",
"B  c #0142CC",
"V  c #0349CE",
"C  c #0846CC",
"Z  c #0046D0",
"A  c #014CD1",
"S  c #004EDC",
"D  c #0955C9",
"F  c #0152D4",
"G  c #045CD8",
"H  c #0B56D4",
"J  c #0F52DB",
"K  c #0958D5",
"L  c #1052D1",
"P  c #1155D9",
"I  c #1D5CD5",
"U  c #015FE5",
"Y  c #1665D9",
"T  c #146ADD",
"R  c #1B67D5",
"E  c #1964DB",
"W  c #1C68DB",
"Q  c #245FD1",
"!  c #236EDC",
"~  c #2A65D3",
"^  c #2B68D9",
"/  c #2271DC",
"(  c #2C76DD",
")  c #3678D9",
"_  c #2171E3",
"`  c #2C7AE2",
"'  c #347CE1",
"]  c #3A7FE2",
"[  c #6D6D80",
"{  c #6E6E8A",
"}  c #70708C",
"|  c #7F7F8E",
" . c #7E7E9B",
".. c #4074DB",
"X. c #5E7AC6",
"o. c #5378DB",
"O. c #3A83E4",
"+. c #398AE3",
"@. c #738FB7",
"#. c #5581DC",
"$. c #598CDB",
"%. c #4185E4",
"&. c #4E81E1",
"*. c #4C8EE5",
"=. c #4693E9",
"-. c #528AE4",
";. c #5193E6",
":. c #5197E9",
">. c #539BEC",
",. c #5C90E2",
"<. c #5897E9",
"1. c #5EA4EF",
"2. c #5DA7F6",
"3. c #738ECF",
"4. c #6494E2",
"5. c #619EEB",
"6. c #7595E4",
"7. c #6FAAEC",
"8. c #61A6F0",
"9. c #66ACF5",
"0. c #6DB5F5",
"q. c #75ADEE",
"w. c #72ABF2",
"e. c #7EB3EF",
"r. c #71B4F5",
"t. c #77BAF6",
"y. c #7BBAF5",
"u. c #818197",
"i. c #82829D",
"p. c #8B8A9A",
"a. c #8C8BA4",
"s. c #9494A6",
"d. c #9393AC",
"f. c #9A99AA",
"g. c #9C9BB2",
"h. c #A1A1B5",
"j. c #A5A5BB",
"k. c #ACABBD",
"l. c #B0AFB7",
"z. c #88A8DD",
"x. c #94B5DE",
"c. c #83A8E5",
"v. c #8CA7EB",
"b. c #8EB1EA",
"n. c #86B9F4",
"m. c #8DBFF4",
"M. c #95B2ED",
"N. c #ADAEC1",
"B. c #A4B3D8",
"V. c #A3BADE",
"C. c #B0AFC1",
"Z. c #B3B2C4",
"A. c #B4B4C9",
"S. c #BAB9C6",
"D. c #BBBAC9",
"F. c #BEBED0",
"G. c #85C0F6",
"H. c #81C6FA",
"J. c #8CC1F6",
"K. c #8BC2F9",
"L. c #8BCAFB",
"P. c #8FD3FF",
"I. c #94C2F4",
"U. c #92C5F9",
"Y. c #90C8FC",
"T. c #9AC6F5",
"R. c #99C3FF",
"E. c #9BC9F7",
"W. c #9ECCFA",
"Q. c #91D2FE",
"!. c #99D8FF",
"~. c #BCC9DE",
"^. c #A4C1E2",
"/. c #A3C8EA",
"(. c #AAC2EC",
"). c #ACC8E7",
"_. c #AAC8E9",
"`. c #A4C9F5",
"'. c #A4CEFB",
"]. c #A8CFF9",
"[. c #ADD1EF",
"{. c #A4D0F9",
"}. c #A2DBFF",
"|. c #ACD3F9",
" X c #B3CAEC",
".X c #BEC9E2",
"XX c #B9CEEB",
"oX c #BFD1EC",
"OX c #B4D5F9",
"+X c #B5D8FA",
"@X c #BAD7FA",
"#X c #BEDBFD",
"$X c #A3E2FF",
"%X c #ACE5FF",
"&X c #AFEBFF",
"*X c #B1E5FF",
"=X c #B1EBFF",
"-X c #B8E1FF",
";X c #BCEDFF",
":X c #BEF2FF",
">X c #C9C7CF",
",X c #C3C3D3",
"<X c #C4C4DA",
"1X c #CAC9D2",
"2X c #CDCDDB",
"3X c #D0CCD3",
"4X c #D0CEDB",
"5X c #D3D1D7",
"6X c #C2CCE3",
"7X c #CEDDF9",
"8X c #D4D4E2",
"9X c #D5DBEB",
"0X c #D9D9E3",
"qX c #DCDCEA",
"wX c #C4EBFF",
"eX c #CCE7FF",
"rX c #CBE9FF",
"tX c #C4F5FF",
"yX c #C8F7FF",
"uX c #CCF9FF",
"iX c #D4EEFF",
"pX c #DCE3F2",
"aX c #D2FCFF",
"sX c #DAF6FF",
"dX c #DBFEFF",
"fX c #E1DDE5",
"gX c #E3E1E5",
"hX c #E2E2EA",
"jX c #E9E4EA",
"kX c #E5EAF2",
"lX c #ECECF3",
"zX c #EBEBF9",
"xX c #E2FFFF",
"cX c #EBFEFF",
"vX c #F2EEF2",
"bX c #F3F2F6",
"nX c #F2F2FB",
"mX c #F4FDFF",
"MX c #FBF6F6",
"NX c #FBF6F9",
"BX c #FEFEFE",
"VX c None",
/* pixels */
"VXVX  t 1 VXVXVXVXVXVXVXVXVXVXVXVXVXVXVXVXVXVXVXVXVXVXVXVXVXVXVX",
"VXVX, zX0X0 s + VXVXVXVXVXVXVXVXVXVXVXVXVXVXVXVXVXVXVXVXVXVXVXVX",
"VXVX  t 2X0XnXN.4   VXVXVXVXVXVXVXVXVXVXVXVXVXVXVXVXVXVXVXVXVXVX",
"VXVXVX. S.BXBXBX2Xp     r   VXVXVXVXVXVXVXVXVXVXVXVXVXVXVXVXVXVX",
"VXVXVX. k.BXBXBXBXhXi.>XbX> & 6 g g 6 %   VXVXVXVXVXVXVXVXVXVXVX",
"VXVXVXVX3 8XBXBXBX0XMX7X4.$.R.iXcXcXiX'.,.7   VXVXVXVXVXVXVXVXVX",
"VXVXVXVX  d zXBX0XMXb.-.@XmXBXmXmXcXmXmXBXsX$.$ VXVXVXVXVXVXVXVX",
"VXVXVXVXVX. d.4XMXc.*.iXiXeXeXeXeXrXrXeXrXiXsXw.* VXVXVXVXVXVXVX",
"VXVXVXVXVXVXi NX(.! '.OXOXOX@X#X+X|.].|.|.|.|.#XO.o VXVXVXVXVXVX",
"VXVXVXVXVX  l.mXR +.].`.].].|.|.I.I.I.I.I.J.J.I.2.v   VXVXVXVXVX",
"VXVXVXVXVX3 BXb.F :.T.I.E.'.'.n.7.q.q.e.q.7.q.q.:.U = VXVXVXVXVX",
"VX. @ 5 q f.BX) G <.m.J.U.U.<.;.;.;.;.;.;.;.;.<.( S c   VXVXVXVX",
"| j.S.8XqX0XpXY T =.n.K.J.K.%.( ' ' ] ' ' ' %.] F x D   VXVXVXVX",
"2XBXBXBXBXgXoXF x V ` y.L.L.r.( W W E E E E W K F S G X VXVXVXVX",
"1XBXBXBXNXgX XB k k k E t.P.P.L.L.O.B A A A B T / T _ O VXVXVXVX",
"Z.nXBXBXBXfXXXB x l l j ) P.P.!.$X8.x x k j ` 0.` ' >.O VXVXVXVX",
"< w f a.k.2X9XV B l h F L.$X%X=X;XY.L V l H H.>.! 9.;.  VXVXVXVX",
"VXVX    + p.NX~ B B B 1.&X;X;XtXyX;X^ C I r.$X:.B J n   VXVXVXVX",
"VXVXVXVXVX0 BXz.l &.L.&X:XtXyXyXyXaXq.~ J.tXr.r.) P @.4   VXVXVX",
"VXVXVXVXVX  S.kXQ -.aX=XyXyXuXaXaXaXuXtXaXyXy.;X|.w.9Xi   VXVXVX",
"VXVXVXVXVXVXf vXV.^ wXdXaXuXaXaXaXaXaXaXuXaXdXdX$X6XN.- VXVXVXVX",
"VXVXVXVXVX1 N.D.jXx.=XxXcXcXxXxXxXxXxXxXcXcXxX=X_.D. .f   VXVXVX",
"VXVXVXVX  s.lXhXD.fX^.*XxXmXBXBXBXBXBXmXmXdX%X).~.p.2Xj.2 VXVXVX",
"VXVXVXVXa 0XBXBX0XD.gX~./.#.o.6.M.v.M.7XwX[..XS.a.2XlX2X}   VXVX",
"VXVXVX, <XBXBXBXBXZ.i.2X9XB.X.M M b N 3.6X2Xf. .,XlXhXhXA.9   VX",
"VXVXVX@ ,XBXBXbXh.e . @ f C.3X5X1X>X2XD.a.q . 5 a.D.hXjX,Xe   VX",
"VXVXVXVX@ Z.8X{ -   VXVX  1 d.C.N.N.d.y     VXVX. u g.F.a.Z.#   ",
"VXVXVXVXVX@ 8   VXVXVXVXVX. h.zXbXbXF.2 VXVXVXVXVX  : 9 w zXa.  ",
"VXVXVXVXVXVX  VXVXVXVXVXVX   .qXlXlXd.+ VXVXVXVXVXVXVX    4 +   ",
"VXVXVXVXVXVXVXVXVXVXVXVXVXVXi 0XbXlX{   VXVXVXVXVXVXVXVXVXVXVXVX",
"VXVXVXVXVXVXVXVXVXVXVXVXVXVX4 <XhX<Xy   VXVXVXVXVXVXVXVXVXVXVXVX",
"VXVXVXVXVXVXVXVXVXVXVXVXVXVX  < : - .   VXVXVXVXVXVXVXVXVXVXVXVX"
};
