/* XPM */
static char *konsole-16[] = {
/* columns rows colors chars-per-pixel */
"16 16 148 2",
"   c black",
".  c #010101",
"X  c #050606",
"o  c #090909",
"O  c #0B0B0B",
"+  c #0C0C0C",
"@  c #0E0D0D",
"#  c gray6",
"$  c #111111",
"%  c gray7",
"&  c #131313",
"*  c #161616",
"=  c #181818",
"-  c #191919",
";  c gray10",
":  c #1B1B1B",
">  c #1D1D1D",
",  c gray12",
"<  c #202020",
"1  c #222222",
"2  c #232323",
"3  c #242323",
"4  c gray14",
"5  c #252525",
"6  c gray15",
"7  c #272727",
"8  c #282828",
"9  c #2A2A2A",
"0  c #2C2C2C",
"q  c gray18",
"w  c #2F2F2F",
"e  c gray19",
"r  c #313131",
"t  c #323333",
"y  c gray20",
"u  c #333535",
"i  c #343434",
"p  c #383737",
"a  c gray22",
"s  c #393838",
"d  c #393939",
"f  c #3A3A3A",
"g  c gray23",
"h  c #3B3D3D",
"j  c #3C3C3C",
"k  c #3D3C3C",
"l  c #3F3F3F",
"z  c gray25",
"x  c #414141",
"c  c #464646",
"v  c gray29",
"b  c #4C4C4C",
"n  c #515151",
"m  c gray33",
"M  c #555555",
"N  c #555757",
"B  c gray34",
"V  c #5B5B5B",
"C  c gray36",
"Z  c #605F5F",
"A  c #606060",
"S  c gray38",
"D  c #626262",
"F  c #606565",
"G  c #646464",
"H  c gray40",
"J  c #676767",
"K  c #6A6A6A",
"L  c gray42",
"P  c #6F6F6F",
"I  c gray44",
"U  c gray45",
"Y  c #717777",
"T  c #747474",
"R  c #7C7C7C",
"E  c #7E7E7E",
"W  c #818181",
"Q  c #838383",
"!  c #848484",
"~  c #868686",
"^  c gray53",
"/  c #828888",
"(  c #848C8C",
")  c gray56",
"_  c #8F9090",
"`  c #8F9797",
"'  c #909090",
"]  c gray58",
"[  c gray60",
"{  c gray62",
"}  c #97A1A1",
"|  c gray64",
" . c gray67",
".. c gray68",
"X. c #AFAFAF",
"o. c #A7B1B1",
"O. c #B6B6B6",
"+. c #B7B7B7",
"@. c #B5BDBD",
"#. c gray73",
"$. c #BBBBBB",
"%. c gray74",
"&. c gray76",
"*. c gray77",
"=. c #C5C5C5",
"-. c #C6C6C6",
";. c #C8C8C8",
":. c #CBCBCB",
">. c #CDCDCD",
",. c #CECECE",
"<. c #CBD8D8",
"1. c #D0D0D0",
"2. c gray82",
"3. c #D2D2D2",
"4. c gray83",
"5. c gray84",
"6. c #D7D7D7",
"7. c #D8D8D8",
"8. c gray85",
"9. c #DADADA",
"0. c gray86",
"q. c #DDDDDD",
"w. c gray87",
"e. c #DFDFDF",
"r. c #E1E1E1",
"t. c #E2E2E2",
"y. c #E3E2E2",
"u. c gray89",
"i. c #E4E3E3",
"p. c #E4E4E4",
"a. c gray90",
"s. c #E6E6E6",
"d. c #E7E7E7",
"f. c gray91",
"g. c #E9E9E9",
"h. c #EAEAEA",
"j. c gray92",
"k. c #ECECEC",
"l. c gray93",
"z. c #EEEEEE",
"x. c #E0F0F0",
"c. c gray94",
"v. c #F1F1F1",
"b. c #F3F3F3",
"n. c #F4F4F4",
"m. c gray97",
"M. c gray100",
"N. c None",
/* pixels */
"M -.;.-.-.-.-.-.-.-.-.-.-.;.| * ",
"1.n.9.y.p.g.g.g.g.g.g.g.y.5.M.L ",
"i.#.o.@._ Q ! ! ! ! ! ! Q J m.T ",
"p.%./ x.<.D Z D D D D D D I j.I ",
"p.%.} ` M a a l x x l x a z y.P ",
"j.+.X @ 3 Y ( F 7 8 1 < O 1 y.I ",
"j.+.. O ; u h e 1 > * @ . 5 e.P ",
"c.%.% > 7 9 q e e 0 7 > O 9 0.I ",
"c.%.; 7 y g z z x a r 7 % q 9.P ",
"c.-.a c M C D F D C n c u v 9.I ",
"e.M.m.b.j.d.u.y.q.7.5.7.5.1.q.J ",
"b ....{ +.0.7.1.,.,.#.] _ [ ^ > ",
". . . J &.q.y.p.y.9.1.X.l . . N.",
"N.N.V M.M.j.p.g.p.5.g.M.9.% N.N.",
"N.N.> ..g.n.j.g.g.j.c.y.R . N.N.",
"N.N.N.. a J ^ ' _ E M 1 . N.N.N."
};
