/* XPM */
static char *kpager[] = {
/* columns rows colors chars-per-pixel */
"32 32 62 1",
"  c black",
". c #010101",
"X c #020202",
"o c gray1",
"O c #040404",
"+ c gray2",
"@ c #070707",
"# c gray3",
"$ c #090909",
"% c #0B0B0B",
"& c #0C0C0C",
"* c gray5",
"= c gray8",
"- c #181818",
"; c #1D1D1D",
": c gray12",
"> c #323232",
", c gray30",
"< c #585858",
"1 c #7A7979",
"2 c #7C7C7C",
"3 c #7E7E7E",
"4 c #008586",
"5 c #00898A",
"6 c #008D8F",
"7 c #009193",
"8 c #009598",
"9 c #00999C",
"0 c #009EA1",
"q c #00A2A5",
"w c #00A6AA",
"e c #00AAAE",
"r c #00AEB3",
"t c #818181",
"y c gray51",
"u c #848484",
"i c #888888",
"p c #8B8B8B",
"a c gray65",
"s c gray66",
"d c #A9A9A9",
"f c #AAAAAA",
"g c #AEAEAC",
"h c #B1B1B1",
"j c gray70",
"k c #B6B6B6",
"l c gray74",
"z c #C3C3C3",
"x c #C5C5C5",
"c c #DADADA",
"v c #DDDBDB",
"b c #E1E1E1",
"n c gray92",
"m c gray93",
"M c #EEEEEE",
"N c #F1F1F1",
"B c gray95",
"V c #F8F8F8",
"C c #FDFDFD",
"Z c #FEFEFE",
"A c gray100",
"S c None",
/* pixels */
"SSSSSSSSSSSSSSSSSSSSSSSSSSSSSSSS",
"SSSSSSSSSSSSSSSSSSSSSSSSSSSSSSSS",
"                          SSSSSS",
" AAA,45678990qwwrAAA,AAA, SSSSSS",
" All,45678990qwwrAll,All, SSSSSS",
" All,45678990qwwrAll,All, SSSSSS",
" ,,,,,,,,,,,,,,,,,,,,,,,, SSSSSS",
" uggAAAAAAAAAACAAAAAAACAz SSSSSS",
" uggAAAAAAAAACACACACACACz SS   S",
" uvvAAAAAAAAAACACACACACAz S    S",
" uvvAAAAAAAAACAAACACACAAz S    S",
" uvvAAAAAAAAAAAAnVCACAAAz S   SS",
" uvvAAAAAAAAAAAMahnbx111<  = SSS",
" uvvAAAAAAAAAAA111111111<  :SSSS",
" uvvAAAAAAAAAAAh2yapy211<    SSS",
" uvvAAAAAAAAAAACAAAAMf12<  O  SS",
" uvvAAAAAAAAACACAACAAV11<  O  %S",
" uvvAAAAAAAAAACAAAACAAu1< %S O  ",
" uvvAAAAAAAAAAACACCAAc11<%SSSOO ",
" uggAAAAAAAAACAACACCk111<  S O:S",
" uggAAAAAAAAAAAAACnf1111<     SS",
" uzzzzzzzzzzzxzzzz2<<<<<< * SSSS",
"                  % -        SSS",
"SSSSSSSSSSSSSSSSS   >SSSS    SSS",
"SSSSSSSSSSSSSSSS   OSSSSSSO :SSS",
"SSSSSSSSSSSSSSSSS OSSSSSS  %SSSS",
"SSSSSSSSSSSSSSSS %OSSSSS  *SSSSS",
"SSSSSSSSSSSSSSS  %SSSSSS   SSSSS",
"SSSSSSSSSSSSSSS  SSSSSSSS   SSSS",
"SSSSSSSSSSSSSSSSSSSSSSSSSS  SSSS",
"SSSSSSSSSSSSSSSSSSSSSSSSSSSSSSSS",
"SSSSSSSSSSSSSSSSSSSSSSSSSSSSSSSS"
};
