/* XPM */
static char *kpersonalizer[] = {
/* columns rows colors chars-per-pixel */
"32 32 251 2",
"   c black",
".  c #040F1F",
"X  c #061802",
"o  c #081C02",
"O  c #051121",
"+  c #08182C",
"@  c #002C00",
"#  c #0D2207",
"$  c #082D6E",
"%  c #002270",
"&  c #00257B",
"*  c #00306C",
"=  c #0C3473",
"-  c #113C78",
";  c #004400",
":  c #004C00",
">  c #084502",
",  c #005000",
"<  c #005C00",
"1  c #105204",
"2  c #0A6B02",
"3  c #0F7304",
"4  c #1C6F08",
"5  c #136311",
"6  c #126910",
"7  c #147C06",
"8  c #1C7813",
"9  c #267E0B",
"0  c #267921",
"q  c #2E782F",
"w  c #002884",
"e  c #032F8B",
"r  c #0B3C94",
"t  c #0133A4",
"y  c #0438A6",
"u  c #063CA9",
"i  c #0131BD",
"p  c #0233C1",
"a  c #0237C8",
"s  c #13458C",
"d  c #194E92",
"f  c #0F47A2",
"g  c #0B43AE",
"h  c #0E49B2",
"j  c #0D4BBD",
"k  c #104BAD",
"l  c #1453B6",
"z  c #1555B9",
"x  c #1659BB",
"c  c #185BBD",
"v  c #256CBD",
"b  c #0641C1",
"n  c #0643CB",
"m  c #0D4DD0",
"M  c #1F49C2",
"N  c #1658C4",
"B  c #1B5FC0",
"V  c #185ACD",
"C  c #0344E7",
"Z  c #0648E1",
"A  c #0347F4",
"S  c #0549F5",
"D  c #0349FF",
"F  c #0A4FFF",
"G  c #0C52FF",
"H  c #1458E4",
"J  c #1559ED",
"K  c #1254FF",
"L  c #1459FF",
"P  c #1E65C3",
"I  c #1E65CB",
"U  c #1E64FF",
"Y  c #256FC2",
"T  c #216BC8",
"R  c #2A6CC4",
"E  c #2268D2",
"W  c #2572CD",
"Q  c #2874CB",
"!  c #2771D2",
"~  c #2A7BD3",
"^  c #3178CC",
"/  c #3278D1",
"(  c #307ED8",
")  c #2469E7",
"_  c #276CEF",
"`  c #2166FF",
"'  c #276CFF",
"]  c #2A6FFF",
"[  c #2F76E3",
"{  c #367CEE",
"}  c #3379FE",
"|  c #496FD2",
" . c #597DC3",
".. c #4075FE",
"X. c #4579FF",
"o. c #178006",
"O. c #1D8A08",
"+. c #23940A",
"@. c #309A19",
"#. c #328D25",
"$. c #359025",
"%. c #2BA00C",
"&. c #2FA212",
"*. c #31AA0E",
"=. c #3DAE1D",
"-. c #3DB517",
";. c #3FB120",
":. c #2F8470",
">. c #419327",
",. c #41A32A",
"<. c #44A82A",
"1. c #4CAF2D",
"2. c #4CA530",
"3. c #47BC23",
"4. c #59BB3A",
"5. c #4F8854",
"6. c #528B56",
"7. c #55886C",
"8. c #61BE44",
"9. c #72A373",
"0. c #7AA87C",
"q. c #4FC02C",
"w. c #59C637",
"e. c #2E80D3",
"r. c #3580D4",
"t. c #3388DC",
"y. c #3983D8",
"u. c #3C8CDC",
"i. c #358FE1",
"p. c #3D86E7",
"a. c #3C81FF",
"s. c #3993E3",
"d. c #5380C8",
"f. c #5885CC",
"g. c #5F9CDF",
"h. c #438BED",
"j. c #478CFE",
"k. c #4A87FF",
"l. c #4A8FFF",
"z. c #449CE7",
"x. c #449DE8",
"c. c #4A95EB",
"v. c #4F9EE5",
"b. c #4E9BEB",
"n. c #4E93FF",
"m. c #5589FF",
"M. c #5297FF",
"N. c #5B97FF",
"B. c #5A9FFF",
"V. c #4DA3EC",
"C. c #54A5ED",
"Z. c #58ABEF",
"A. c #5CA1FD",
"S. c #5CAEF0",
"D. c #6189CB",
"F. c #6792D2",
"G. c #6893D2",
"H. c #748CC9",
"J. c #709EDB",
"K. c #638FFE",
"L. c #609EE0",
"P. c #6498FF",
"I. c #719DFF",
"U. c #7BA4DB",
"Y. c #63A3E3",
"T. c #66A8E6",
"R. c #67AAE8",
"E. c #69ACE9",
"W. c #61A6FF",
"Q. c #66AAFF",
"!. c #6AABFC",
"~. c #66B2F2",
"^. c #6DB1FE",
"/. c #73A7FF",
"(. c #76AEFF",
"). c #7EA1FD",
"_. c #72B5FF",
"`. c #7BB7FF",
"'. c #78BDFF",
"]. c #7CC2FD",
"[. c #80B57B",
"{. c #82CE6A",
"}. c #93D97D",
"|. c #90BC8E",
" X c #9DBF9E",
".X c #87ACDD",
"XX c #91B7E6",
"oX c #96BFEB",
"OX c #8DC383",
"+X c #94CE85",
"@X c #97D385",
"#X c #98D587",
"$X c #9AD58B",
"%X c #A1CB9A",
"&X c #A5DD95",
"*X c #A5CCA0",
"=X c #ACDAA1",
"-X c #B4CAB7",
";X c #BBDFB2",
":X c #81C4FF",
">X c #89C5FF",
",X c #89CDFF",
"<X c #99C5EE",
"1X c #90C3F0",
"2X c #9CCAF2",
"3X c #AFD1FF",
"4X c #B5CFFF",
"5X c #BCCEFD",
"6X c #B5D7F5",
"7X c #B7D9FF",
"8X c #BBD3FF",
"9X c #BEE0FF",
"0X c #C2CECC",
"qX c #D3D8DC",
"wX c #CDD4E7",
"eX c #C3D4FE",
"rX c #C7DDF4",
"tX c #C3DDFF",
"yX c #C8D5FA",
"uX c #CADCF4",
"iX c #CEDFFF",
"pX c #D1D9EA",
"aX c #DBDAE6",
"sX c #DEDDE8",
"dX c #CCEAC4",
"fX c #D0EEC7",
"gX c #D2EFC9",
"hX c #D4F0CB",
"jX c #CBE1F6",
"kX c #CDE4F9",
"lX c #DBE1E1",
"zX c #D8E0EF",
"xX c #D4E3FD",
"cX c #DDE6F9",
"vX c #E1E7E6",
"bX c #E4E3ED",
"nX c #E3EAE7",
"mX c #E5EBE9",
"MX c #E6E6F0",
"NX c #E4E8F1",
"BX c #EBECF3",
"VX c #E7F6E2",
"CX c #E8F6E3",
"ZX c #EBF0F7",
"AX c #F0F7EF",
"SX c #F1F1F6",
"DX c #F5F5F9",
"FX c #F1F9F0",
"GX c #F5FAFE",
"HX c #FDFDFE",
"JX c None",
/* pixels */
"JXJXJXJXJXJXJXJXJXJXJXJXJXJXJXJXu u t w     JXJXJXJXJXJXJXJXJXJX",
"JXJXJXJXJXJXJXJXJXJXJXJXJXJXh g n A p w     JXu y t %     JXJXJX",
"JXJXJXJXJXJXJXJXJXJXJXJXz l m A D D a &   r g b C i &     JXJXJX",
"JXJXJXJXJXJXJXJXJXJXP c V J G D D K | e f j Z D D i &     JXJXJX",
"JXJXJXJXJXJXJXJXT P E _ ` L F K ).uXf.N H G D D D M &     JXJXJX",
"JXJXJXJXJXJXQ W E { } ] U L K.cXJ.I ) ` L F D ..yXH.&     JXJXJX",
"JXJXJXJXe.~ ( h.l.k.} ' I.xXXX/ [ } ] U L X.5XDXDXH.&     JXJXJX",
"JXJXi.t.t.b.A.M.l.} P.xXoXy.p.j.a.} ' m.eXHXDXDXDXH.&   ; < ,   ",
"JXs.s.C.^.Q.A.n./.kX<Xu.c.A.M.j.} j.8XHXHXGXDXDXSXH.* , < < :   ",
"s.S.].'.^.W.(.xX6Xv.b.Q.Q.B.n.N.8XHXHXHXHXDXDXDXvX7.< < < < :   ",
"x.,X]._.`.tXHX<XC.'.'.^.W.!.8XHXHXHXHXHXDXDXmX0.6 2 2 < q -X;   ",
"V.:X>XkXHXGXGXV.,X]._._.3XHXHXHXHXHXHXHXDX|.8 7 7 3 0  XDXSX;   ",
"C.7XGXHXHXHXkXS.:X:X7XGXHXHXHXHXHXHXHX*X$.+.+.O.#.%XHXHXDXBX;   ",
"E.HXHXHXHXHXxX~.9XGXHXHXHXHXHXHXHX;X,.&.*.%.@.OXZXHXHXDXSXBX,   ",
"E.HXHXHXHXHXkX1XHXHXHXHXHXHXHXHXdX=.q.-.=.+XFXHXHXHXDXDXSXbX,   ",
"E.HXHXHXHXHXkXE.HXHXHXHXHXHXHXHX#Xw.3.{.FXHXHXHXHXDXDXSXSXbX,   ",
"E.HXHXHXHXHXkXE.HXHXHXHXHXHXHXHX@X}.CXHXHXHXHXHXHXDXDXSXBXsX,   ",
"R.HXHXHXHXHXkXE.HXHXHXHXHXHXHXHX@XHXHXHXHXHXHXHXHXDXSXBXBXsX,   ",
"R.HXHXHXHXHXkXT.HXHXHXHXHXHXHXHX#XHXHXHXHXHXHXHXDXDXSXBXBXsX,   ",
"T.HXHXHXHXHXjXT.HXHXHXHXHXHXHXDX#XHXHXHXHXHXHXHXDXSXBXBXbXsX,   ",
"Y.HXHXHXHXHXjXT.HXHXHXHXHXHXDXHX#XHXHXHXHXHXHXDXSXSXBXBXbXaX:   ",
"Y.HXHXHXHXGXjXY.HXHXHXHXHXHXDXDX$XCXHXHXHXHXDXDXSXBXMXbX0X5.:   ",
"Y.HXHXHXHXHXrXY.HXHXHXHXHXHXDXDX$XdXHXHXHXHXDXSXBXBXqX6., @     ",
"Y.HXHXHXHXHXDXY.HXHXHXHXHXDXDXSX$XhXHXHXHXDXDXSXlX9.5 @         ",
"Y.HXHXHXHXDXDXY.HXHXHXHXDXDXDXSX#XgXHXHXHXDXmX[.8 >             ",
"Y.HXHXGXDXpX .Y.HXHXHXHXHXDXwX .:.gXHXHXSX%X$.1             JXJX",
"J.GXHXzXG.z = L.HXHXHXHXpXf.k $ >.gXHX=X<.4 X           JXJXJXJX",
"~ NXU.P -     L.GXHXbXF.z =     2.&X8.9 o           JXJXJXJXJXJX",
"~ ^ d O       g.ZX.XR s O       4.1.#           JXJXJXJXJXJXJXJX",
"v +           r.^ d O                       JXJXJXJXJXJXJXJXJXJX",
"          JXJXY +           JXJX        JXJXJXJXJXJXJXJXJXJXJXJX",
"      JXJXJXJX          JXJXJXJXJXJXJXJXJXJXJXJXJXJXJXJXJXJXJXJX"
};
