/* XPM */
static char *kwrite[] = {
/* columns rows colors chars-per-pixel */
"32 32 232 2",
"   c #000000",
".  c #0A0802",
"X  c #000718",
"o  c #1C1802",
"O  c #131413",
"+  c #000C3A",
"@  c #2A2509",
"#  c #362D05",
"$  c #342F0D",
"%  c #38320B",
"&  c #000A58",
"*  c #021855",
"=  c #031A5A",
"-  c #031C64",
";  c #112762",
":  c #443319",
">  c #4A3519",
",  c #524C0B",
"<  c #6F552B",
"1  c #615739",
"2  c #70582D",
"3  c #7E543E",
"4  c #505B63",
"5  c #586162",
"6  c #072D99",
"7  c #082C95",
"8  c #012BA5",
"9  c #032DA9",
"0  c #0630AA",
"q  c #0832AB",
"w  c #0B35B3",
"e  c #0E39BA",
"r  c #163DB8",
"t  c #123CC4",
"y  c #2E498E",
"u  c #2747B1",
"i  c #2548B6",
"p  c #2449BD",
"a  c #2949B1",
"s  c #284DBC",
"d  c #3253B5",
"f  c #3758BB",
"g  c #3F5DBB",
"h  c #1640C5",
"j  c #1A42C4",
"k  c #1B43C9",
"l  c #274BC7",
"z  c #224AC9",
"x  c #2A4EC1",
"c  c #284ECD",
"v  c #2B53C5",
"b  c #2D53D0",
"n  c #3356C4",
"m  c #3759C8",
"M  c #385CC5",
"N  c #3B5FCC",
"B  c #365BDE",
"V  c #2951E0",
"C  c #3E61CA",
"Z  c #3961D0",
"A  c #435DA9",
"S  c #4158B2",
"D  c #425DBA",
"F  c #4261BD",
"G  c #5062A9",
"H  c #546EB6",
"J  c #5C73B6",
"K  c #657691",
"L  c #6075B6",
"P  c #707EBD",
"I  c #4766C9",
"U  c #4C6ACA",
"Y  c #4365D2",
"T  c #456BD7",
"R  c #4970DA",
"E  c #536CC5",
"W  c #5A70C6",
"Q  c #5275D3",
"!  c #5B7ADD",
"~  c #4166E0",
"^  c #5173EA",
"/  c #5679E3",
"(  c #5D7EE4",
")  c #597BEE",
"_  c #697ECC",
"`  c #637EDD",
"'  c #637FE3",
"]  c #7D887B",
"[  c #7681B6",
"{  c #5E80E4",
"}  c #5F83EB",
"|  c #6481C0",
" . c #6381CF",
".. c #6A80CC",
"X. c #6780DD",
"o. c #6981DC",
"O. c #6E88DF",
"+. c #7389D9",
"@. c #7E93DF",
"#. c #7C9DDF",
"$. c #6382E4",
"%. c #6382E8",
"&. c #6A86E4",
"*. c #6886EB",
"=. c #6D88E5",
"-. c #6E8BE8",
";. c #6686F0",
":. c #6A8AF4",
">. c #6F92F1",
",. c #738BE5",
"<. c #758CE8",
"1. c #788EE4",
"2. c #7691E6",
"3. c #7790EB",
"4. c #759AE0",
"5. c #7B92E5",
"6. c #7B95E8",
"7. c #7C9EE2",
"8. c #7395F1",
"9. c #834B0F",
"0. c #844C14",
"q. c #845B28",
"w. c #AC7B49",
"e. c #99851A",
"r. c #98804D",
"t. c #988054",
"y. c #958A7C",
"u. c #BC9552",
"i. c #ABA855",
"p. c #B3AF58",
"a. c #BDA16E",
"s. c #C0A61C",
"d. c #C6BE2B",
"f. c #CFB92F",
"g. c #FA9F12",
"h. c #F58D21",
"j. c #FC8E25",
"k. c #F98D2A",
"l. c #FD9225",
"z. c #FF9529",
"x. c #FF9F34",
"c. c #FAA218",
"v. c #FFBC00",
"b. c #E0AE2E",
"n. c #F9B13F",
"m. c #DAA74A",
"M. c #D0AE69",
"N. c #FFAB44",
"B. c #FFC001",
"V. c #FFCD0B",
"C. c #FFD209",
"Z. c #FFC425",
"A. c #FFD02D",
"S. c #FFEF13",
"D. c #FFED1C",
"F. c #FFF40D",
"G. c #FFF416",
"H. c #FFF11A",
"J. c #FFEB23",
"K. c #FFE63F",
"L. c #D7D357",
"P. c #F7D84D",
"I. c #EFC578",
"U. c #FFD672",
"Y. c #FFDA7E",
"T. c #EFEA70",
"R. c #8D8281",
"E. c #9E9290",
"W. c #9E9798",
"Q. c #9497B3",
"!. c #94A6BA",
"~. c #BCBF8E",
"^. c #8C93C6",
"/. c #8396DA",
"(. c #969ECF",
"). c #8397E4",
"_. c #869AE3",
"`. c #8098EB",
"'. c #94A9DE",
"]. c #9DAEDE",
"[. c #93A6EA",
"{. c #91A9E1",
"}. c #96AAED",
"|. c #9CADEC",
" X c #97ACF1",
".X c #9FB0ED",
"XX c #A1B1DE",
"oX c #A3B4ED",
"OX c #A8B7EE",
"+X c #ABB9EE",
"@X c #A5B4F1",
"#X c #A6B8F0",
"$X c #ACBDF0",
"%X c #B0BEF1",
"&X c #B9C09E",
"*X c #9BC0F4",
"=X c #AAC6EF",
"-X c #ADD2FF",
";X c #B8C3EF",
":X c #B5C1F0",
">X c #B0C3FD",
",X c #BAC6F2",
"<X c #BECAF3",
"1X c #B6D9FF",
"2X c #BBDBFF",
"3X c #C1C28E",
"4X c #C0C69F",
"5X c #C5C89F",
"6X c #FDD381",
"7X c #C1CCF3",
"8X c #C6D0F5",
"9X c #C5D6FE",
"0X c #C6DDF7",
"qX c #C1DFFF",
"wX c #CCD4F4",
"eX c #CCDCFE",
"rX c #D2DAF7",
"tX c #D5DCF9",
"yX c #C3E1FF",
"uX c #CCE6FF",
"iX c #D6E3F7",
"pX c #D4E4FF",
"aX c #D3EBFF",
"sX c #DAE2FB",
"dX c #DAEDFF",
"fX c #E2EBEF",
"gX c #E4E9FA",
"hX c #EAEDFB",
"jX c #EBF4FF",
"kX c #F7FBFF",
"lX c gray100",
"zX c None",
/* pixels */
"zXzXzXzXzXzXzXzXzXzXzXzXzXzXzXzXzXzXzXzXzXzXzXzXzXJ.m.% zXzXzXzX",
"zXzXzXzXzXzXzXzXzXzXzXzXzXzXzXzXzXzXzXzXzXzXzXzXD.D.U.I.< zXzXzX",
"zXzXzXzXzXzXzXzXzXzXzX0 6 zXzXzXzXzXzXzXzXzXzXD.D.D.K.w.r.2 zXzX",
"zXzXzXzXzXq 9 zXzXzX0 0 w = zXzXzXzXzXzXzXzXD.D.D.D.C.b.1 M.: zX",
"zXzXzXzXzXq r 9 zX9 9 T } h * zXzXzXzXzXzXD.D.D.D.V.v.v.n.6Xu.  ",
"zXzXzXzX8 p ,XI 8 0 R pXjX8.t * zXzXzXzXD.D.D.D.V.v.v.c.j.x.q.  ",
"zXzXzXzX8 @.lXsXn v pXlXlXjX>.t *   zXD.D.D.D.V.v.v.c.k.z.0.    ",
"zXzXzX8 x tXhXgXwXU XXlXlXlXjX>.t & , H.H.D.V.v.v.c.k.z.0.    zX",
"zXzXzX9 _.hXwXwXgXwXU XXlXkXdXjX:.i d.H.D.V.v.v.c.k.z.0.    zXzX",
"zXzX9 n 7X7X7XrXtXsX7XU '.dXjXlXfXL.G.D.V.v.v.c.k.z.0.    zXzXzX",
"zX0 w ).:X%X7XwXwXwXrX,XC '.lXjXT.F.D.V.v.v.c.k.z.0.    zXzXzXzX",
"zX8 n |.oX,X7X7X7X7X,X7X%XI {.iXP.G.V.v.v.c.k.z.0.    zXzXzXzXzX",
"0 w o..X=X,X:X:X:X:X+X:X,XoXZ Q.U.A.v.v.c.k.l.9.    zXzXzXzXzXzX",
"0 l 6..XoXoXoX+X+XoX+X+X+X#X.XD E.Y.Z.g.j.l.3 +   zXzXzXzXzXzXzX",
"6 d ~.5XL o.5.5.6.[..X|.}..XoX(.D W.Y.N.h.w.A t * zXzXzXzXzXzXzX",
"O p.[ 5 y D <.$.&.1.1.6.[.|./.[ ^.S R.a.y.!.eX;.t * zXzXzXzXzXzX",
"% f.; h a E } ,.1.&.$.,.5.6...G P _ s [ 0X2XqXaX;.t * zXzXzXzXzX",
". e.s.4 F 4X~.L ` $.,.1.&.$.,.+.O.2.-.N 7.qX2XyXpX;.t *   zXzXzX",
"zX  # @ i.y.K y f 1.1.=.$.,.,.&.-.2.3.%.n 7.yX-X2XpX*.t *   zXzX",
"zXzXzX$ d.; h u W =.=.$.,.,.{ &.&.-.$.$.{ n 4.1X-XaX>XV 7   zXzX",
"zXzXzX. e.s.4 g 5X&XH  .1.$.$.=.&.$.{ $.$.! v *XuX9X^ t *   zXzX",
"zXzXzXzX. # @ i.y.K y g =.$.+.=.$.{ $.$.( ( v =XeX^ t =     zXzX",
"zXzXzXzXzXzX% f.; h a E o.,.,.$.{ &.$.{ { Z  .eX^ t =     zXzXzX",
"zXzXzXzXzXzX. e.s.4 F &X&XJ ! $.&.&.{ { ( M #X) t =     zXzXzXzX",
"zXzXzXzXzXzXzX. # @ i.] K y f ,.&.( ( *.Y Q ) t =     zXzXzXzXzX",
"zXzXzXzXzXzXzXzXzX$ f.; t u E $.$.$.&.` v ~ h =     zXzXzXzXzXzX",
"zXzXzXzXzXzXzXzXzX. e.s.4 g 4X&XH ! -.Y z k =     zXzXzXzXzXzXzX",
"zXzXzXzXzXzXzXzXzXzX. # @ i.] K y g ` z t =     zXzXzXzXzXzXzXzX",
"zXzXzXzXzXzXzXzXzXzXzXzX$ f.; t a E b w =     zXzXzXzXzXzXzXzXzX",
"zXzXzXzXzXzXzXzXzXzXzXzX. e.s.5 c B e =     zXzXzXzXzXzXzXzXzXzX",
"zXzXzXzXzXzXzXzXzXzXzXzXzX. # o - w =     zXzXzXzXzXzXzXzXzXzXzX",
"zXzXzXzXzXzXzXzXzXzXzXzXzXzXzXzX  X     zXzXzXzXzXzXzXzXzXzXzXzX"
};
