/* XPM */
static char *server[]={
"22 22 295 2",
"Qt c None",
".m c #06a66a",
"#6 c #078c5c",
"#N c #079161",
"bk c #079e54",
"bM c #08905e",
".N c #089161",
"bN c #089261",
".1 c #089262",
"bB c #08955e",
"#M c #08955f",
".y c #089561",
".M c #08965f",
"#L c #089759",
"bA c #08975e",
"#f c #08975f",
"bm c #08995a",
"bz c #08995c",
".x c #089a5b",
".L c #089b59",
".0 c #089c58",
"#v c #089c59",
"bl c #089d57",
"#e c #089d58",
"a8 c #08a050",
"b2 c #0a8b56",
"#K c #0a9a4d",
"bO c #0b8a61",
".z c #0b9161",
".K c #0ba14c",
".w c #0bae5e",
"b1 c #0c8864",
"#u c #0ca34b",
"a7 c #0ca44a",
"#d c #0ea349",
".Z c #0ea34a",
"#5 c #118c70",
"a6 c #12a545",
"bH c #147a84",
"b3 c #147f64",
".2 c #148c58",
"#g c #148c59",
"#w c #168b58",
".O c #188c58",
"aQ c #19a742",
".v c #1abe52",
"#O c #1b8a56",
"#7 c #1d7f55",
"bL c #1daaaa",
"bj c #1dac81",
"cg c #1e7e98",
"cs c #1e86b9",
".l c #1ec9ae",
"a5 c #1fa952",
"by c #20b5a2",
"#4 c #219390",
"b0 c #22a9d7",
"ce c #258c9f",
".J c #25a741",
"bt c #26858f",
"#J c #269d53",
"cf c #277562",
"#t c #29a940",
".Y c #2da940",
".k c #2dd2c2",
"bd c #2e8089",
"#3 c #2e9f90",
"#c c #2fa940",
"aP c #2faa3f",
"bK c #32c5fc",
"bG c #389098",
"#1 c #39a43c",
"az c #3cab3c",
"bw c #3ccefb",
"#8 c #3d7360",
"#2 c #3dbaa0",
".n c #3eaa80",
"aO c #3eac3e",
"bx c #3fd1fc",
"cJ c #403f3f",
"a. c #446b74",
"cI c #454545",
"#h c #458653",
"aN c #45ab3b",
"bX c #464646",
".3 c #478753",
"#x c #488553",
"#I c #49a738",
"bh c #4ad7ff",
"cH c #4b4b4b",
"bi c #4bd1ed",
"#P c #4d8352",
"cF c #4f4e4e",
"ar c #4f4f4f",
"ay c #4fb03c",
"#R c #506763",
"bs c #509da4",
"a1 c #515151",
".I c #52b03a",
"a4 c #52c9c5",
"cB c #535453",
"aM c #53ad70",
".j c #54dbeb",
"aq c #555555",
"ap c #565656",
"bc c #57989f",
".X c #57b038",
".u c #57d074",
"ca c #585858",
"co c #595959",
"ax c #59b23a",
"#s c #59b83d",
"aI c #5a5a5a",
"au c #5aa64a",
"cb c #5b5b5b",
"ag c #5bac47",
"#i c #5d7454",
"at c #5db695",
"#0 c #5eac70",
"#b c #5eb941",
"a2 c #5ed3f5",
"ao c #5f5f5f",
"av c #5fb038",
"aw c #5fb538",
"cE c #606160",
"a3 c #60dcfe",
"aK c #61d1ed",
"an c #646464",
"bF c #64a8af",
"#Z c #65a846",
".i c #65dfd0",
"cA c #666665",
"#Q c #667653",
".W c #66ad33",
".t c #66c552",
"#y c #677a53",
"cG c #686767",
"#9 c #687659",
"ct c #696969",
"#H c #69c03d",
"aL c #69cace",
"af c #6ab936",
"ah c #6cc4ad",
"am c #6d6d6d",
"bu c #6d9ca0",
"bI c #6d9ea2",
"bV c #6e9fa3",
"be c #6f989d",
"al c #707070",
".H c #70c33f",
"ak c #717171",
"c# c #727272",
"cp c #747474",
"ae c #75bb34",
"bU c #77a1a5",
"bD c #77abb0",
".A c #77b99c",
".h c #78cec1",
"aY c #79969a",
"ab c #79bd31",
"#r c #79cc48",
"aa c #79cc52",
"bZ c #79ccf3",
"#Y c #7abf2e",
"bE c #7bb5bb",
"ad c #7bbd32",
"ac c #7cbe31",
".s c #7ccd7d",
".C c #7cd5ed",
"cy c #7d7d7d",
"## c #7fb64d",
"cd c #7fbfe0",
"#a c #80ca72",
"bY c #828282",
"aJ c #848383",
"ch c #848384",
"c. c #848484",
".o c #84bfa9",
"br c #85bbc0",
"#X c #85c22c",
"aj c #868686",
"cr c #86b8cb",
".q c #86dee6",
"bT c #87a9ac",
".P c #87b091",
".r c #87dec2",
"b9 c #898989",
".V c #89c431",
"bJ c #89d1ef",
"#. c #8ab755",
"cq c #8ab9d0",
"aX c #8ba5a7",
"a# c #8c9a9e",
"#W c #8dc42a",
"#q c #8dc980",
"b6 c #8e8e8e",
"bS c #8eadb0",
"bb c #8ebabe",
"#U c #8ec929",
"b8 c #8f8f8f",
"#V c #8fc529",
"bR c #90acae",
"b5 c #939394",
"#T c #93e270",
"cK c #959493",
"cx c #959595",
".Q c #95d5e5",
"#G c #95e077",
"bv c #96d5ed",
".G c #96d973",
"b7 c #979797",
"bC c #97afb1",
"a0 c #999999",
"b4 c #9a9a9a",
".6 c #9aeaf1",
"aZ c #9babad",
"bf c #9c9c9c",
"bg c #9ce1f2",
"bP c #9d9d9d",
"bW c #9db0b2",
".9 c #9dc7a4",
"as c #9e9e9e",
"bp c #9ec3c7",
"cC c #9f9f9f",
".4 c #9fab98",
"#j c #9faba6",
"aA c #a0a0a0",
".U c #a0cf27",
"bn c #a1a1a1",
"aW c #a1b9bb",
"#D c #a1cb19",
"a9 c #a3a2a2",
"ck c #a3a3a3",
"#C c #a3cd18",
"aS c #a4a4a4",
"bq c #a4cccf",
"#A c #a4e6b9",
"bo c #a5bcbf",
".T c #a7c719",
"#E c #a7d954",
".F c #a8e27d",
".D c #a9efcf",
"cm c #acacac",
"cz c #adadad",
"bQ c #adbaba",
"#F c #ade977",
"aH c #aeaeae",
"#z c #aeb1a1",
"aV c #aec6c9",
"cc c #afaead",
"b. c #afc7c9",
".g c #afd3d3",
"#p c #afe1c2",
".f c #b0d2d0",
"cD c #b2b2b2",
"ba c #b4d1d4",
".p c #b4e4f0",
"cv c #b5b5b5",
"aU c #b5cdce",
".8 c #b5da82",
"b# c #b6d0d3",
"#B c #b6e137",
"cj c #b7b7b7",
"#o c #b7e4be",
"cw c #b8b8b8",
"cn c #b9b9b9",
".5 c #b9e0e9",
".R c #bbf2b0",
"cl c #bcbcbc",
"cu c #bfbfbf",
".B c #c1d8e0",
".e c #c1ded3",
"#n c #c1e22b",
".E c #c1f263",
"aR c #c3c2c1",
"ci c #c5c5c6",
".S c #c5e157",
"#l c #c5f6a6",
".7 c #c6e35a",
".d c #c7e3e3",
"#k c #c8edea",
"aG c #cacaca",
".c c #cbe3ec",
"#S c #ccd2d4",
"aT c #cddbdc",
".b c #cde5ec",
".a c #cfe5ea",
"#m c #d2e91d",
".# c #d3dfdb",
"ai c #d6d5d4",
"aF c #d6d6d6",
"aB c #dcdcdc",
"aE c #dedede",
"aD c #e7e7e7",
"aC c #ececec",
"QtQtQtQtQtQtQtQtQtQtQtQtQtQtQtQtQtQtQtQtQtQt",
"QtQtQtQtQtQtQtQt.#.a.b.c.d.eQtQtQtQtQtQtQtQt",
"QtQtQtQtQtQt.f.g.h.i.j.k.l.m.n.oQtQtQtQtQtQt",
"QtQtQtQtQt.p.q.r.s.t.u.v.w.x.y.z.AQtQtQtQtQt",
"QtQtQt.B.C.D.E.F.G.H.I.J.K.L.M.N.O.PQtQtQtQt",
"QtQtQt.Q.R.S.T.U.V.W.X.Y.Z.0.M.1.2.3.4QtQtQt",
"QtQt.5.6.7.8.9#.###a#b#c#d#e#f.1#g#h#i#jQtQt",
"QtQt#k#l#m#n#o#p#q#r#s#t#u#v.M.1#w#x#y#zQtQt",
"Qt#A#A#B#C#D#E#F#G#H#I#J#K#L#M#N#O#P#Q#R#SQt",
"Qt#A#T#U#V#W#X#Y#Z#0#1#2#3#4#5#6#7#8#9a.a#Qt",
"Qt#AaaabacadaeafagahaiajakalamanaoapaqarasQt",
"Qt#AatauavawaxayazaiaAaBaCaCaDaEaFaGaHaIaJQt",
"Qt.caKaLaMaNaOaPaQaRaSaTaUaVaWaXaYaZa0a1aJQt",
"Qt.ca2a3a4a5a6a7a8aRa9b.b#babbbcbdbebfa1aJQt",
"QtQtbgbhbibjbkblbmaRbnbobpbqbrbsbtbubfa1aJQt",
"QtQtbvbwbxbybzbAbBaRaAbCbDbEbFbGbHbIbfa1aJQt",
"QtQtQtbJbKbLbMbNbOaRbPbQbRbSbTbUbVbWa0bXbYQt",
"QtQtQtQtbZb0b1b2b3aRb4b5b6b7b4b8b9c.c#cacbcc",
"QtQtQtQtQtcdcecfcgchcicjckclcicmasbfcnb8cocp",
"QtQtQtQtQtQtcqcrcsctcucjcvcwcncxc#cyczcAcBcp",
"QtQtQtQtQtQtQtQtQtaocCcxcxcxcxckcDczb4cEcFcc",
"QtQtQtQtQtQtQtQtQtcGcHcIcIcIcIcIcIcIcIcJcKQt"};
