/* XPM */
static char *kdbg[] = {
/* columns rows colors chars-per-pixel */
"32 32 84 1",
"  c black",
". c #0C0D16",
"X c #10111D",
"o c #11111E",
"O c #151526",
"+ c #17182A",
"@ c #191A26",
"# c #18182C",
"$ c #1D1E33",
"% c #1E1C36",
"& c #22233D",
"* c #21243B",
"= c #23253C",
"- c #23253D",
"; c #272A3C",
": c #313928",
"> c #333A29",
", c #262843",
"< c #2A2B42",
"1 c #2A2C43",
"2 c #2A2D47",
"3 c #292B48",
"4 c #292B4C",
"5 c #2B2F4A",
"6 c #2B2F4B",
"7 c #2A2C4E",
"8 c #2C2F4D",
"9 c #2B2F50",
"0 c #2D2F57",
"q c #2E3153",
"w c #2E3154",
"e c #2E3254",
"r c #2E3256",
"t c #2F3256",
"y c #2E3059",
"u c #303359",
"i c #30345A",
"p c #31355C",
"a c #31355D",
"s c #313761",
"d c #353464",
"f c #323864",
"g c #343A6A",
"h c #353A6C",
"j c #363B6F",
"k c #363C70",
"l c #383E75",
"z c #3A3D75",
"x c #383F7A",
"c c #393F7C",
"v c #225025",
"b c #225425",
"n c #235926",
"m c #236828",
"M c #236F29",
"N c #247E2A",
"B c #3A4180",
"V c #3B4282",
"C c #3C4181",
"Z c #3E4181",
"A c #3C4385",
"S c #3D4488",
"D c #3E4589",
"F c #3E468D",
"G c #3F4793",
"H c #404790",
"J c #404894",
"K c #434C9E",
"L c #444DA1",
"P c #454DA4",
"I c #454EA6",
"U c #4751AE",
"Y c #4954B6",
"T c #4A55B8",
"R c #4B56BC",
"E c #4E5AC6",
"W c #4F5BCB",
"Q c #525FD5",
"! c #5462DD",
"~ c #5A69EF",
"^ c #24882B",
"/ c #25A32E",
"( c #CE0000",
") c None",
/* pixels */
"))))))))))))))))))))))))))))))))",
"))))))))))))))))))))))))))))))))",
"))))))))))))))))))))))))))))))))",
"))))))))))))))))))))))))))))))))",
")))))))))))   ))))   )))))))))))",
")))()))))) vbv )) vbv ))))))()))",
"))))()))) nmMmn  nmMmn ))))())))",
")))))())) mN^NmvvmN^Nm )))()))))",
"))))))()) M^/((((((/^M ))())))))",
")))))))() m((O4it,X((m )()))))))",
"))))))))( (>7kkkgfa*>( ())))))))",
"))))  )))( ycBBBclhs- ()))  ))))",
")))     ()(AFG((((xhs()(     )))",
")   )))(  C(K(PPKG(c(t  ()))   )",
") )))))()%JL(YTYULJ(lfo)())))) )",
"))))))())dK(R(WERU(F(g&))())))))",
"))))))())C(YEQ(QE(PGB(q))())))))",
"))))  ( )H(TW!~!WTPJB(y) (  ))))",
")))  )(  H(YEQ!QEYPGB(a  ()  )))",
"))  ))())F(URE(ER(LFc(t))())  ))",
")  )))())lH(U(TTUL(A(f3))()))  )",
") )))))()0DJ(PPPKGD(ga$)())))) )",
")))))))( #c(F(JJFA(k(q. ()))))))",
")))))   ()(lcB((((hst()(   )))))",
"))))  )))(+sgkkhgfaq2.()))  ))))",
")))) )))()(-iaaaiq81@()())) ))))",
")))) ))()))((55521;(()))()) ))))",
")))  )())))) (((((( )))))()  )))",
"))) )())))))))    ))))))))() )))",
"))  ())))))))))))))))))))))(  ))",
")) ())))))))))))))))))))))))( ))",
"))))))))))))))))))))))))))))))))"
};
