/* XPM */
static char *kbackgammon[]={
"22 22 4 1",
". c None",
"a c #000000",
"b c #a0a0a0",
"# c #c3c3c3",
"......................",
"......................",
"......................",
"......................",
"......................",
".............###......",
"............aaaaa.....",
"...........aab..aa....",
"...........a....aa....",
"...............aaa....",
"...aa..aa.....aaa.....",
"...aabaab....aaa......",
"....aaa.....aab.......",
"....aaa....aab........",
"...aa.aa...aa.........",
"..aa...aa..aaaaaaa....",
"...........baaaaab....",
"......................",
"......................",
"......................",
"......................",
"......................"};
