/* XPM */
static char *kteatime[] = {
/* columns rows colors chars-per-pixel */
"32 32 222 2",
"   c #000000",
".  c #090403",
"X  c #0E0E0E",
"o  c #140905",
"O  c #1E0F09",
"+  c #1D1109",
"@  c gray8",
"#  c #22120A",
"$  c #2D190C",
"%  c #351D0C",
"&  c #381F0E",
"*  c #301C10",
"=  c #28211D",
"-  c #3A220D",
";  c #382112",
":  c #2A2A2A",
">  c gray19",
",  c #492A0F",
"<  c #412810",
"1  c #492A13",
"2  c #56320F",
"3  c #58310C",
"4  c #553213",
"5  c #54311C",
"6  c #593511",
"7  c #6D3A1B",
"8  c #713E1C",
"9  c #633B22",
"0  c #6D3D23",
"q  c #713E21",
"w  c #6B4415",
"e  c #73401C",
"r  c #704916",
"t  c #7B4816",
"y  c #7E4D1F",
"u  c #6F4229",
"i  c #734325",
"p  c #784527",
"a  c #7A4728",
"s  c #784825",
"d  c #7A492A",
"f  c #7E5223",
"g  c #584C45",
"h  c DimGray",
"j  c #776E6C",
"k  c #7A6D66",
"l  c #7B7674",
"z  c #83501D",
"x  c #824C2A",
"c  c #815020",
"v  c #81572C",
"b  c #8E5C22",
"n  c #8F601B",
"m  c #95641D",
"M  c #8E602E",
"N  c #91622E",
"B  c #9A6B2E",
"V  c #976A34",
"C  c #9D713B",
"Z  c #A06D28",
"A  c #A4722B",
"S  c #AA7523",
"D  c #AD7825",
"F  c #A0753E",
"G  c #805D47",
"H  c #826552",
"J  c #876A58",
"K  c #8E7557",
"L  c #88766A",
"P  c #897C74",
"I  c #A67641",
"U  c #A3754B",
"Y  c #A37B44",
"T  c #AA7C5A",
"R  c #CE0100",
"E  c #D4160B",
"W  c #D51A00",
"Q  c #D21B12",
"!  c #DD3F00",
"~  c #D72220",
"^  c #D65607",
"/  c #D74030",
"(  c #E45D00",
")  c #E2542F",
"_  c #EA7600",
"`  c #E76E23",
"'  c #E25242",
"]  c #ED7A4E",
"[  c #BC852E",
"{  c #B8883B",
"}  c #8F816C",
"|  c #90826D",
" . c #948773",
".. c #AA8149",
"X. c #B38B4E",
"o. c #B08853",
"O. c #BD9246",
"+. c #BD9757",
"@. c #AE9366",
"#. c #C79037",
"$. c #C99339",
"%. c #CE993F",
"&. c #DA9E34",
"*. c #EC8303",
"=. c #EE811F",
"-. c #EE8438",
";. c #E2A33C",
":. c #E9AA3C",
">. c #D29D44",
",. c #D19E4F",
"<. c #D59855",
"1. c #CAA65B",
"2. c #CDA95E",
"3. c #D4A147",
"4. c #D1A95A",
"5. c #D8A453",
"6. c #D9A95A",
"7. c #CCA266",
"8. c #CCA860",
"9. c #CAA872",
"0. c #D7AD66",
"q. c #D3B36A",
"w. c #D8B76C",
"e. c #D6B772",
"r. c #DBBA71",
"t. c #DCB87B",
"y. c #EA8A56",
"u. c #E89D5B",
"i. c #F39641",
"p. c #F59552",
"a. c #E28066",
"s. c #F19F61",
"d. c #E4A94C",
"f. c #EFB941",
"g. c #EEB759",
"h. c #F9AB50",
"j. c #F9B651",
"k. c #FCBD55",
"l. c #ECAF7C",
"z. c #EEB57A",
"x. c #EBBC74",
"c. c #F2A869",
"v. c #F0BD64",
"b. c #F7BB76",
"n. c #F0BE7E",
"m. c #F5C24B",
"M. c #F3C45F",
"N. c #FBC052",
"B. c #ECC47E",
"V. c #EECA78",
"C. c #F4C76F",
"Z. c #848484",
"A. c #8B8885",
"S. c #8B8B8C",
"D. c #8F9091",
"F. c #929292",
"G. c #949798",
"H. c #96999B",
"J. c #9B9B9B",
"K. c #9C9FA0",
"L. c #A49B83",
"P. c #AEA889",
"I. c #A3A3A3",
"U. c #A6A7A9",
"Y. c #ABACAC",
"T. c #B5B5B5",
"R. c #BBBBBB",
"E. c #DCBF89",
"W. c #ECAE85",
"Q. c #ECAA8C",
"!. c #EEB993",
"~. c #DFC28A",
"^. c #DFC390",
"/. c #EBC48B",
"(. c #E5C490",
"). c #F6CD81",
"_. c #F2C889",
"`. c #F7CF9A",
"'. c #F8D38B",
"]. c #F4D29A",
"[. c #F6D89C",
"{. c #FFDE95",
"}. c #FAD898",
"|. c #E3CDA0",
" X c #ECD5A0",
".X c #EEDFA7",
"XX c #E3D8B4",
"oX c #E5DABD",
"OX c #F2CFA7",
"+X c #F6D5A2",
"@X c #F4DAA3",
"#X c #F1DEAC",
"$X c #FBDEA2",
"%X c #F4DBB0",
"&X c #F4E1AE",
"*X c #FCE3AA",
"=X c #F5E4BB",
"-X c #FCE6B9",
";X c #FCEBBD",
":X c #FEF3B9",
">X c #FFF9BA",
",X c #C2C2C2",
"<X c #C9C9C9",
"1X c #E6DEC0",
"2X c #E8E1C2",
"3X c #F3E9C2",
"4X c #F9EDC9",
"5X c #F9EBD1",
"6X c #F5F1CF",
"7X c #FFF3CB",
"8X c #F5F1D1",
"9X c #FCF4D2",
"0X c #FDFAD3",
"qX c #FEFCDD",
"wX c #FCF7E6",
"eX c #FDF5ED",
"rX c #FEFEE3",
"tX c #FFFFEB",
"yX c #FCF5FB",
"uX c #FFFEF3",
"iX c #FFFFFE",
"pX c None",
/* pixels */
"pXpXpXpXpXpXpXpXpXpXpXpXpXpXpXpXpXpXpXpXpXpXpXpXpXpXpXpXpXpXpXpX",
"pXpXpXpXpXpXpXpXpXpXpXpXpXpXpX<X<X<XpXpXpXpXpXpXpXpXpXpXpXpXpXpX",
"pXpXpXpXpXpXpXpXpXpXpXpXpXpXpXpX,X,XR.pXpXpXpXpXpXpXpXpXpXpXpXpX",
"pXpXpXpXpXpXpXpXpXpXpXpXpXpXpXpXpXT.T.T.pXpXpXpXpXpXpXpXpXpXpXpX",
"pXpXpXpXpXpXpXpXpXpXpXpXpXpXpXY.Y.Y.Y.Y.Y.pXpXpXpXpXpXpXpXpXpXpX",
"pXpXpXpXpXpXpXpXpXpXpXpXpXI.I.I.I.I.I.U.I.pXpXpXpXpXpXpXpXpXpXpX",
"pXpXpXpXpXpXpXpXpXpXpXJ.J.J.J.J.J.J.J.J.pXpXpXpXpXpXpXpXpXpXpXpX",
"pXpXpXpXpXpXpXpXpXpXpXF.F.F.F.D.F.G.H.pXpXpXpXpXpXpXpXpXpXpXpXpX",
"pXpXpXpXpXpXpXpXpXpXpXS.S.A.S.S.pXpXpXpXpXpXpXpXpXpXpXpXpXpXpXpX",
"pXpXpXpXpXpXpXpXpX0 u j l l l l k 7 7 0 pXpXpXpXpXpXpXpXpXpXpXpX",
"pXpXpXpXpXpX7 7 y M C ..@. .| | K Y C N y e 7 0 pXpXpXpXpXpXpXpX",
"pXpXpXpX7 z X.E. X@X[.[.}.E.L.L.P..X>X:X&X~.1.z 0 pXpXpXpXpXpXpX",
"pXpXpX0 B #X9X/.d.;.:.f.m.m.5.<.u.s.c.b.{.>XqX;X{ $ pXpXpXpXpXpX",
"pXpXpX7 8.uX/.^ ` i.h.k.N.j.h.p.] ' ~ R E ) ].wXV.2   pXpXpXpXpX",
"pXpXpX7 1.tX5XQ.y.-.=.*.*._ ( ! W R R Q / a.%X3Xr.3 o e 7 i pXpX",
"pXpXpX7 1.tXqXrXqX4X%X]._.B.z.l.W.!.OX=X0XqX9XoXe.I T T U p 0 pX",
"pXpXpX7 1.tXqXqXrXtXuXuXuXuXuXuXuXuXuXtXrXqX6XXXoXeXyXyXeXo.* pX",
"pXpXpX7 1.tXqXrXrXrXtXtXuXuXuXuXuXtXtXrXrXqX6XXXoXeXuXuXuXE.1 pX",
"pXpXpX7 1.rXqXrXrXtXtXuXuXuXuXuXuXuXtXrXrXrX6XoX^.(.9.E.5X(.4 pX",
"pXpXpX7 1.rXqXrXtXtXuXuXuXuXiXuXuXuXtXtXrXrX6X1Xe.t f 0.+X7.& pX",
"pXpXpX7 1.rXqXtXtXtXuXuXuXiXiXuXuXuXuXrXrXqX8X1Xq.A 6./.n.v . pX",
"pXpXpX7 1.rXrXrXrXtXuXuXuXiXiXiXiXuXtXtXtXqX8X1Xe.d.x.V.V O pXpX",
"pXpXpX7 1.tXqXrXtXtXtXuXuXiXiXuXuXuXuXrXtXwX6XoXt.d.<.f O pXpXpX",
"pXpXpX7 1.tXqXrXrXtXtXuXuXuXuXuXuXuXtXtXrXqX6XoXr.Z 1 . pXpXpXpX",
"pXpXpX7 1.rXqXqXrXtXtXtXuXuXuXuXuXuXtXrXrXqX8X1Xw.2   pXpXpXpXpX",
"pXpXpX7 2.tXqXrXrXtXtXtXtXtXuXtXtXtXtXrXqXqX8X1Xr.2   pXpXpXpXpX",
"pXpXpXi O.0XtXqXqXrXrXtXtXtXtXtXtXtXrXrXqXqX8X2X4.,   pXpXpXpXpX",
"pXpXpX# w C.-XqXrXtXtXtXtXtXtXtXtXrXtXtXtXqX=XC.m o   pXpXpXpXpX",
"pXpXpX  # m &.g.V.$X;X7X9XqXqXqX0X7X4X*X'.v.;.D ;     pXpXpXpXpX",
"pXpXpX    . - w n S [ #.%.>.>.>.>.#.#.D m r ; o     pXpXpXpXpXpX",
"pXpXpXpXpXpXpX  . . # $ % - - - % $ O o .     pXpXpXpXpXpXpXpXpX",
"pXpXpXpXpXpXpXpXpXpXpXpXpXpXpXpXpXpXpXpXpXpXpXpXpXpXpXpXpXpXpXpX"
};
