/* XPM */
static char *kchart[] = {
/* columns rows colors chars-per-pixel */
"32 32 257 2",
"   c black",
".  c #1D0D00",
"X  c #010216",
"o  c #050D4F",
"O  c #000172",
"+  c #040871",
"@  c #130869",
"#  c #151A75",
"$  c #18227B",
"%  c #281159",
"&  c #2B146A",
"*  c #342777",
"=  c #312D60",
"-  c #0C753A",
";  c #13427D",
":  c #3A4472",
">  c #411E00",
",  c #421C29",
"<  c #5C2839",
"1  c #6A3528",
"2  c #573451",
"3  c #442E61",
"4  c #60195E",
"5  c #622367",
"6  c #7C4235",
"7  c #58566C",
"8  c #73554D",
"9  c #644173",
"0  c #0B1C88",
"q  c #0E2A92",
"w  c #1D2582",
"e  c #1C2C83",
"r  c #153996",
"t  c #143689",
"y  c #203A93",
"u  c #1A449A",
"i  c #1A4F90",
"p  c #1B49A7",
"a  c #1E50AE",
"s  c #1E7AA3",
"d  c #2158AD",
"f  c #2156B3",
"g  c #225AB5",
"h  c #235CB9",
"j  c #2A5BB4",
"k  c #315EA9",
"l  c #2560BB",
"z  c #2B62BA",
"x  c #317FA0",
"c  c #3C6EB9",
"v  c #136E95",
"b  c #156EC8",
"n  c #2C6BC4",
"m  c #2B79CC",
"M  c #3177C8",
"N  c #535E85",
"B  c #536489",
"V  c #476CB1",
"C  c #5675A7",
"Z  c #577AB6",
"A  c #587EC2",
"S  c #188137",
"D  c #1BA52A",
"F  c #328F3D",
"G  c #35A93E",
"H  c #1FB57E",
"J  c #3CA943",
"K  c #2C8968",
"L  c #00C40D",
"P  c #00FE00",
"I  c #0AEB04",
"U  c #00E823",
"Y  c #00E270",
"T  c #3AD763",
"R  c #60B409",
"E  c #56A451",
"W  c #47DE6E",
"Q  c #50E477",
"!  c #47E270",
"~  c #0F91BE",
"^  c #3489BB",
"/  c #3999B5",
"(  c #25BB84",
")  c #3EBC80",
"_  c #26AFA9",
"`  c #10AD95",
"'  c #1483D3",
"]  c #009DFF",
"[  c #1799F3",
"{  c #00A3FF",
"}  c #00ABFE",
"|  c #00B3FE",
" . c #00BAFF",
".. c #0DB9FC",
"X. c #1BA1F9",
"o. c #0FACF0",
"O. c #2A85DA",
"+. c #36A7D6",
"@. c #2CB5FF",
"#. c #33BAFF",
"$. c #3BBBFF",
"%. c #31B7FF",
"&. c #31ADE8",
"*. c #00D1AF",
"=. c #39C795",
"-. c #00C0E1",
";. c #00C3FF",
":. c #00CBFF",
">. c #02D2FE",
",. c #00D8FF",
"<. c #1EC0FF",
"1. c #2BC3FF",
"2. c #24C3FB",
"3. c #33C5FF",
"4. c #3BC8FF",
"5. c #3CCBEE",
"6. c #48A2A0",
"7. c #518FD2",
"8. c #49B3DF",
"9. c #41BEFF",
"0. c #52B3E9",
"q. c #6DA3DA",
"w. c #67B7E9",
"e. c #77BDEC",
"r. c #4AC38B",
"t. c #4ED2AB",
"y. c #5DE388",
"u. c #62EE86",
"i. c #44C0FF",
"p. c #43CAFF",
"a. c #4BC3FF",
"s. c #4BCCFF",
"d. c #53CCFF",
"f. c #54C6FF",
"g. c #5CD0FF",
"h. c #67CAF9",
"j. c #63D2FF",
"k. c #6BD5FF",
"l. c #73D6FF",
"z. c #7CD9FF",
"x. c #76D8FF",
"c. c #933F00",
"v. c #853B0E",
"b. c #82355A",
"n. c #853262",
"m. c #914200",
"M. c #934B24",
"N. c #9B4C34",
"B. c #A74902",
"V. c #BC5300",
"C. c #B35004",
"Z. c #B04F09",
"A. c #BB6607",
"S. c #834C7A",
"D. c #877450",
"F. c #BD684B",
"G. c #FF1509",
"H. c #FF200E",
"J. c #FE2B14",
"K. c #FF3617",
"L. c #C05600",
"P. c #C35B00",
"I. c #C85E00",
"U. c #CE6100",
"Y. c #CD7500",
"T. c #D16400",
"R. c #DB7500",
"E. c #FF461E",
"W. c #EF561E",
"Q. c #E9443B",
"!. c #FF4728",
"~. c #FF4430",
"^. c #FF4C33",
"/. c #FF4B3C",
"(. c #FF5826",
"). c #FF5436",
"_. c #FF5B39",
"`. c #FF553C",
"'. c #E07900",
"]. c #FF682D",
"[. c #FF633C",
"{. c #FF683F",
"}. c #EF792F",
"|. c #CB5559",
" X c #D5684E",
".X c #EA584A",
"XX c #FF4C44",
"oX c #FF4944",
"OX c #FF5442",
"+X c #FF534B",
"@X c #FF5C4B",
"#X c #FF5B53",
"$X c #FB5A54",
"%X c #E2554F",
"&X c #EE6353",
"*X c #FF6B40",
"=X c #F7604D",
"-X c #FF6352",
";X c #FF625D",
":X c #FF6858",
">X c #F96C51",
",X c #FF7142",
"<X c #F4714C",
"1X c #FF6A65",
"2X c #FF6A65",
"3X c #FF726D",
"4X c #FF7A75",
"5X c #C56F6B",
"6X c #AC7A80",
"7X c #80AF15",
"8X c #80A225",
"9X c #B29B2B",
"0X c #A48F34",
"qX c #DF8600",
"wX c #D0B418",
"eX c #E38300",
"rX c #E88500",
"tX c #F59A00",
"yX c #FFB307",
"uX c #FFAD0E",
"iX c #CD805A",
"pX c #FD8B49",
"aX c #F89867",
"sX c #FFD500",
"dX c #FFD900",
"fX c #EFCD08",
"gX c #FFD446",
"hX c #FFD357",
"jX c #FFC542",
"kX c #FFD26F",
"lX c #948797",
"zX c #8893B7",
"xX c #878FA9",
"cX c #80C0ED",
"vX c #83DBFF",
"bX c #8CDCFE",
"nX c #85D1F6",
"mX c #99D0F0",
"MX c #95E2FF",
"NX c #99E1FF",
"BX c #B4EEFF",
"VX c #AAE4FA",
"CX c #C7C692",
"ZX c #C7CBB9",
"AX c #FFD989",
"SX c #E3D88B",
"DX c #E3DEAF",
"FX c #FFEE94",
"GX c #FFE8BA",
"HX c #FFF0A1",
"JX c #FFF3AE",
"KX c #FFF5BC",
"LX c #FFF6C8",
"PX c #FFF9D6",
"IX c #FFFBE2",
"UX c #FFFDEE",
"YX c None",
/* pixels */
"YXYXYXYXYXYXYXYXYXYXYXYXYXYXYXYXYXYXYXg f a p     YXYXYXYXYXYXYX",
"YXYXYXYXYXYXYXYXYXYXYXYXYXYXYXYXYXg g z q.mXj u     YXYXYXYXYXYX",
"YXYXYXYXYXYXYXYXYXYXYXYXYXYXYXh h h 7.BXBXBXmXj r     YXYXYXYXYX",
"YXYXYXYXYXYXT.U.I.P.P.P.P.P.P.k 7.nXMXMXMXMXNXbXz r 1     YXYXYX",
"YXYXYXYXYXT.T.T.T.T.T.I.T.I.I.N e.z.l.l.l.l.l.l.h.j 8 P.m.    YX",
"YXYXYXYXT.T.R.rXrXrXrXrXrXrXrXN cXNXg.d.f.f.d.s.9.m 8 I.P.>   YX",
"YXYXYXYXT.'.yXkXGXGXGXGXGXGXGXZ e.NXbXd.#.#.#.#.$.m D.tXU.B.    ",
"YXYXYXT.T.tXAXUXUXUXUXUXUXUXUX7.e.bXbXbX#.@.@.#.$.m zXuXY.C.    ",
"YXYXYXP.T.uXIXIXIXIXIXIXIXIXIXZ w.vXvXvX$.@.#.$.9.M zXAXeXL.    ",
"YXYXYXP.T.jXPXPXPXPXPXPXPXPXPXZ w.vXvXz.9.@.$.$.9.m zXLXeXV.    ",
"YXYXYXP.U.kXLXLXLXLXLXLXLXLXLXV w.z.x.l.9.#.$.i.9.M xXLXeXL.    ",
"YXYXYXP.U.hXKXKXKXKXKXKXKXZXV j h.k.k.k.9.$.9.i.f.M xXKXqXL.    ",
"YXYXYXP.T.hXJXJXJXJXJXDXZ d 6.t.k.k.j.j.9.$.i.a.9.M D.hXeXV.    ",
"YXYXYXP.U.hXHXHXHXHXHXC x y.Q t.j.j.j.j.9.9.a.a.h.n 7 yXqXV.    ",
"YXYXYXP.U.gXFXFXFXFXFXC r.Q W =.g.g.g.f.i.i.a.w.5X|.q 8 eXV.    ",
"YXYXYXP.U.gXCXCXCXCXSXC r.Q T ( g.d.d.d.4.i.5X=X;X;X X* 2 Z.    ",
"YXYXYX7 7 g z b b l p p H W W ` s.s.s.s.lX%X>X-X-X-X-X$X* & X   ",
"YXYXl n O.[ { } } | | o.o._ T T s.p.p.p.&X:X@X@X@X@X@X@X.X& +   ",
"YXn n [ { { } } | | ..;.:.2._ H p.4.4.4.&X4X@XOXOXOXOXOXOXOX+   ",
"h n [ ] { } } | |  .;.;.:.>.p.~ 4.3.3.3.&X4X4X$X/././.^.)._.+   ",
"h O.] { { } } |  . .;.:.:.>.>.+.3.3.1.1.&X3X3X3XOX~.~.^.)._.O   ",
"h [ ] { } } | |  . .;.:.:.:.,.&.&.2.<.<..X3X1X1X#X~.^.^._._.O   ",
"h X.{ { } |  . .R K.J.J.H.G.G.5 q o.@.<.Q.1X1X;X#X~.^.)._.{.O   ",
"h &.{ } } |  .*.I W.E.K.K.J.J.6X: q ' <.Q.:X:X;X+X^.)._.[.{.O   ",
"f 0.} } | |  .Y P R `.(.!.E.<X9 D.0X0 b %X$X$X$X+X^.).[.[.{.+   ",
"a c 0.} |  . .U I I }.{.].<X X$ 9XdX9X$ n.$X+X+XXX)._.[.{.{.+   ",
"u a / 8...;.-.L L L R pXaXF.3 : dXdXsXwX@ 5 XXoXXX).[.{.*X XO   ",
"  u a s / +.` D J E E iXN.3 e wXdXdXsXsXwX# 4 oX/._.{.=Xb.O o   ",
"    t u i v K F F S - 2 e : wXdXdXdXdXdXsXfX= 4 Q._.5 @ % ,     ",
"YX    o t r y i $ i q = 6 Y.Y.Y.Y.Y.Y.Y.Y.Y.A.% & & & v.B..     ",
"YXYX      c.M.M.M.M.Z.L.P.V.V.V.V.V.V.C.V.V.L.Z.< 1 V.c..       ",
"YXYXYX                                                        YX"
};
