/* XPM */
static char *kivio[] = {
/* columns rows colors chars-per-pixel */
"32 32 248 2",
"   c black",
".  c #1D0D00",
"X  c #210E00",
"o  c #371900",
"O  c #3A2114",
"+  c #00004D",
"@  c #000058",
"#  c #0B1C55",
"$  c #010362",
"%  c #040C68",
"&  c #000072",
"*  c #030778",
"=  c #040B7B",
"-  c #06117C",
";  c #09177C",
":  c #0F277C",
">  c #0F287B",
",  c #261443",
"<  c #440000",
"1  c #4F0000",
"2  c #441E00",
"3  c #5E2D00",
"4  c #6F0000",
"5  c #710000",
"6  c #7B0000",
"7  c #7B0800",
"8  c #721F00",
"9  c #7C1E00",
"0  c #6E3000",
"q  c #723300",
"w  c #7F3800",
"e  c #7D3F0F",
"r  c #7C400F",
"t  c #071381",
"y  c #051A8C",
"u  c #081683",
"i  c #0A1B83",
"p  c #0B1D88",
"a  c #0D2285",
"s  c #0D228C",
"d  c #0F2790",
"f  c #0E2D97",
"g  c #112C86",
"h  c #112D8C",
"j  c #112C93",
"k  c #12308D",
"l  c #133497",
"z  c #13349A",
"x  c #15399D",
"c  c #183F9F",
"v  c #0632A7",
"b  c #0134A9",
"n  c #173BA0",
"m  c #183EA2",
"M  c #1943A4",
"N  c #1B46A8",
"B  c #1D4BA6",
"V  c #1D4BAB",
"C  c #104CB6",
"Z  c #114EB8",
"A  c #1354BC",
"S  c #1F50B0",
"D  c #1C56BC",
"F  c #2053AD",
"G  c #2055B2",
"H  c #2259B5",
"J  c #235CB9",
"K  c #2561BC",
"L  c #0350C6",
"P  c #0B58C7",
"I  c #045CD1",
"U  c #165CC2",
"Y  c #125ACB",
"T  c #0566DC",
"R  c #0868D9",
"E  c #1961C6",
"W  c #1269DC",
"Q  c #046CE3",
"!  c #0C6CE2",
"~  c #0570E5",
"^  c #0473EB",
"/  c #0C74E6",
"(  c #0E79EB",
")  c #146DE0",
"_  c #1478E7",
"`  c #1C7DE7",
"'  c #2777DA",
"]  c #0184FF",
"[  c #0B85FF",
"{  c #0E8AFF",
"}  c #1B80EC",
"|  c #2481E8",
" . c #2C86E8",
".. c #358BEB",
"X. c #3B8EE9",
"o. c #3E95ED",
"O. c #4A87DA",
"+. c #4B88DA",
"@. c #548CDA",
"#. c #5D90DA",
"$. c #4292EB",
"%. c #4A92E7",
"&. c #4B96EA",
"*. c #529BEB",
"=. c #599FEB",
"-. c #4CA8FF",
";. c #5BAFFF",
":. c #5AB0FF",
">. c #60A3EC",
",. c #68A7EC",
"<. c #6EABED",
"1. c #6AB7FF",
"2. c #6BB9FF",
"3. c #78BDFF",
"4. c #840000",
"5. c #83030E",
"6. c #8C0000",
"7. c #8C010A",
"8. c #870510",
"9. c #811F00",
"0. c #940000",
"q. c #93020A",
"w. c #9C0000",
"e. c #842000",
"r. c #8B2100",
"t. c #853B00",
"y. c #893A00",
"u. c #932300",
"i. c #992500",
"p. c #A20000",
"a. c #AA0000",
"s. c #B30000",
"d. c #BB0000",
"f. c #A22700",
"g. c #B83030",
"h. c #854000",
"j. c #8B4200",
"k. c #9D4400",
"l. c #9C4B00",
"z. c #A34700",
"x. c #A74C00",
"c. c #AB4C00",
"v. c #AC5200",
"b. c #B74F00",
"n. c #B35200",
"m. c #BA5200",
"M. c #BE5900",
"N. c #C30000",
"B. c #CB0000",
"V. c #D30202",
"C. c #DD0101",
"Z. c #D51313",
"A. c #DD1313",
"S. c #D42323",
"D. c #DB2323",
"F. c #D43333",
"G. c #D93333",
"H. c #E00000",
"J. c #F30000",
"K. c #F30909",
"L. c #FA0000",
"P. c #FF0909",
"I. c #FF1414",
"U. c #FF1C1C",
"Y. c #FE2222",
"T. c #FD2B2B",
"R. c #F73C3C",
"E. c #FF3C3C",
"W. c #C05600",
"Q. c #C35A00",
"!. c #C95D00",
"~. c #C66A00",
"^. c #CC6000",
"/. c #CA6C00",
"(. c #CA7200",
"). c #D16300",
"_. c #D46A00",
"`. c #D07600",
"'. c #D77C00",
"]. c #D87200",
"[. c #DA7C00",
"{. c #D54242",
"}. c #FE5151",
"|. c #F95959",
" X c #FF6E6E",
".X c #FF7474",
"XX c #D68C00",
"oX c #DD8700",
"OX c #DE8F00",
"+X c #DC8A14",
"@X c #E28200",
"#X c #E18900",
"$X c #E88500",
"%X c #E7992A",
"&X c #EEAD00",
"*X c #EEAC0C",
"=X c #EEA61E",
"-X c #EEAA13",
";X c #EEA819",
":X c #F3B300",
">X c #EEA424",
",X c #EEA02B",
"<X c #F2AC3C",
"1X c #F0B744",
"2X c #F4BC4C",
"3X c #EDCB00",
"4X c #FFCE00",
"5X c #FFD300",
"6X c #FFD10D",
"7X c #FED900",
"8X c #FFDA0A",
"9X c #FFD018",
"0X c #FFDD26",
"qX c #FFDD2B",
"wX c #FFD934",
"eX c #F8E400",
"rX c #FBD758",
"tX c #FFE143",
"yX c #FFE348",
"uX c #FFE054",
"iX c #FFE459",
"pX c #FFE660",
"aX c #FFE76F",
"sX c #FFEA77",
"dX c #86C4FF",
"fX c #95CBFF",
"gX c #9BCFFF",
"hX c #A3D2FF",
"jX c #B1D9FF",
"kX c #BFE0FF",
"lX c #FE8F8F",
"zX c #FF9898",
"xX c #FFD889",
"cX c #FFEB84",
"vX c #FFEE8E",
"bX c #FFED99",
"nX c #FFE7A9",
"mX c #FFE8B8",
"MX c #FFF1A4",
"NX c #FFF0AE",
"BX c #FFF4BA",
"VX c #CCE6FF",
"CX c #FFF3C2",
"ZX c #FFF6D5",
"AX c #FFF8D0",
"SX c #FFFBE4",
"DX c gray100",
"FX c None",
/* pixels */
"FXFXFXFXFXFXFXFXFXFXFXFXFXFXFXFXFXFXFXFXFXFXFXFXFXFXFXFXFXFXFXFX",
"FXFXFXFXFXFXFXFXFXFXFXFXFXFXFXFXFXFXFXFXFXFXFXFXFXFXFXFXFXFXFXFX",
"FXK H H F F B B B M M M c x x z l g     FXFXFXFXFXFXFXFXFXFXFXFX",
"FXJ J E E E E U U A A A A C C l z : v.).^.M.l.    FXFXFXFXFXFXFX",
"FXJ o.2.2.2.2.2.2.2.2.2.2.] P l : j.).$X@X_.^.Q.j.    FXFXFXFXFX",
"FXH <.VXVXVXVXVXVXVXVXVX:.R l > h.).,XmXmXxX<X].!.v.    FXFXFXFX",
"FXH ,.kXkXkXkXkXkXkXkXdXR l > h.).,XZXSXSXSXSXnX%X^.n.    FXFXFX",
"FXG >.jXjXjXjXjXjXjXgXW z g h.).,XCXAXAXAXAXAXAXAX2X!.x.    FXFX",
"FXS =.hXhXhXhXhXhXhX' z h r ).>XNXBXBXBXBXBXBXBXBXBX1XQ.t.    FX",
"FXS *.fXfXfXfXfXfX+.z h r ).=XbXMXMXMXMXMXMXMXMXMXMXbX+Xm.o   FX",
"FXS &.dXdXdXdXdX#.z k r ).;XcXvXvXvXvXvXvXvXvXvXvXvXvXrXQ.t.    ",
"FXB $.3.3.3.3.@.z h r ).;XaXsXsXsXsXsXsXsXsXsXsXsXrXwX9XOXc.    ",
"FXN X.1.1.1.+.z k r ).-XiXiXpXpXpXpXpXpXpXpXiXwX6X4X4X4X:Xm.2   ",
"FXN ..;.;.%.x k r ).*XtXyXyXyXyXyXyXyXyXyXqX5X5X5X5X5X5X7XM.0   ",
"FXM  .-.$.m h r ).&X0X0XqX0X0X0X0X0XqX0X8X7X7X7X7X7X7X7X7X(.y.  ",
"FXM ` X.m k O ).).).^.^.^.!.!.!.Q.Q.Q.Q.W.W.W.m.m.m.m.b.m.b.y.  ",
"FXm ` D z #   i.f.i.u.u.u.u.r.r.r.r.r.r.e.e.e.e.9 9 9 9 9 8 X   ",
"FXm _ ` x j , B.N.N.N.d.d.d.s.s.s.a.a.a.a.p.w.w.w.w.0.0.6.6.<   ",
"FXx / { ( z h 5.N.H.J.|.|.|.|.|.|.|.|.|.|.|.|.|.|.|.K.B.6.5     ",
"FXz ~ ] ] ^ f a 5.d.C.R.zXzXzXzXzXzXzXzXzXzXzXlX}.K.N.6.7 l.    ",
"FXz Q ] ] ] T s i q.d.C.T..X.X.X.X.X.X.X.X.X}.K.J.B.6.7 Q.^.    ",
"FXl Q ] ] ] ] I p ; q.s.C.Y.}.}.}.}.}.}.}.Y.L.L.V.6.4 Q._.n.    ",
"FXj ~ ] ] ] ] ] I u - 7.a.H.U.T.T.T.T.T.Y.P.P.V.6.4 v.@X[.t.    ",
"FXj Q ] ] ] ] ] ] I - % 6.a.A.Y.I.I.I.U.U.Y.Z.6.4 v.#X:Xm.X     ",
"FXj Q ] ] ] ] ] ] ] L = $ 6.p.D.E.E.E.E.E.S.6.4 v.oX7X/.w       ",
"FXs Q ] ] ] ] ] ] ] ] b * $ 4.w.G.}.}.|.F.6.4 v.[.eXXXz.      FX",
"FXs Q ] ] ] ] ] ] ] ] ] b & $ 4.0.{. X{.6.4 v.'.eXXXc..       FX",
"FXs ! [ [ [ [ [ [ [ [ [ [ v & @ 6 0.g.6.4 v.oX3X~.k..       FXFX",
"FXp Y ) W W W ) W W W W W W y & + 6 6.4 v.^.(.m.q         FXFXFX",
"FXp p u t = = = * & & & & & & & &   1 3 Q.c.q           FXFXFXFX",
"FX                                                    FXFXFXFXFX",
"FX                                                FXFXFXFXFXFXFX"
};
