/* XPM */
static char *kformula[] = {
/* columns rows colors chars-per-pixel */
"32 32 159 2",
"   c black",
".  c #270000",
"X  c #600000",
"o  c #650000",
"O  c #660000",
"+  c #670000",
"@  c #690000",
"#  c #6A0000",
"$  c #6C0000",
"%  c #6D0000",
"&  c #6F0000",
"*  c #700000",
"=  c #710000",
"-  c #720000",
";  c #730000",
":  c #740000",
">  c #790000",
",  c #800000",
"<  c #820000",
"1  c #840000",
"2  c #850000",
"3  c #860000",
"4  c #8A0000",
"5  c #8B0000",
"6  c #8D0000",
"7  c #8F0000",
"8  c #900000",
"9  c #920000",
"0  c #930000",
"q  c #940000",
"w  c #950000",
"e  c #970000",
"r  c #970606",
"t  c #970808",
"y  c #990000",
"u  c #9C0000",
"i  c #9D0000",
"p  c #9E0000",
"a  c #9F0000",
"s  c #9D0505",
"d  c #9C1010",
"f  c #A00000",
"g  c #A10000",
"h  c #A20000",
"j  c #A30000",
"k  c #A20404",
"l  c #A50000",
"z  c #A60000",
"x  c #A70000",
"c  c #A60303",
"v  c #A70B0B",
"b  c #A80000",
"n  c #AA0000",
"m  c #AB0000",
"M  c #AB0202",
"N  c #AD0000",
"B  c #AE0000",
"V  c #AD0909",
"C  c #A51D1D",
"Z  c #A91818",
"A  c #B00000",
"S  c #B00101",
"D  c #B20000",
"F  c #B30000",
"G  c #B40000",
"H  c #B50000",
"J  c #B60000",
"K  c #B70000",
"L  c #B80000",
"P  c #B90000",
"I  c #BA0000",
"U  c #BB0000",
"Y  c #BC0000",
"T  c #BD0000",
"R  c #BE0000",
"E  c #BE0101",
"W  c #BF0000",
"Q  c #B61B1B",
"!  c #C00000",
"~  c #C10000",
"^  c #C20000",
"/  c #C20101",
"(  c #C30000",
")  c #C00404",
"_  c #C40000",
"`  c #C50000",
"'  c #C60000",
"]  c #C40909",
"[  c #C80000",
"{  c #C90000",
"}  c #CA0000",
"|  c #D00000",
" . c #D10000",
".. c #D30606",
"X. c #D60D0D",
"o. c #EF0B0B",
"O. c #EE1F1F",
"+. c #F00101",
"@. c #F10101",
"#. c #F20303",
"$. c #F30808",
"%. c #F90101",
"&. c #FA0101",
"*. c #FC0101",
"=. c #FD0000",
"-. c #FC0202",
";. c #FF0101",
":. c #FF0202",
">. c #FF0303",
",. c #FF0707",
"<. c #FF0808",
"1. c #FC0D0D",
"2. c #FF0F0F",
"3. c #F01B1B",
"4. c #F11B1B",
"5. c #F91313",
"6. c #FF1111",
"7. c #FF1313",
"8. c #FF1414",
"9. c #FF1717",
"0. c #FC1B1B",
"q. c #ED2B2B",
"w. c #EC3838",
"e. c #FF2323",
"r. c #FF2424",
"t. c #FF2727",
"y. c #FC2929",
"u. c #FF2D2D",
"i. c #FC3636",
"p. c #FF3636",
"a. c #EB4545",
"s. c #FC4444",
"d. c #FF4646",
"f. c #FF4949",
"g. c #FC5252",
"h. c #FF5656",
"j. c #FF5B5B",
"k. c #FC5F5F",
"l. c #EB7373",
"z. c #F76464",
"x. c #F76F6F",
"c. c #FF6D6D",
"v. c #F67373",
"b. c #FD7F7F",
"n. c #FF7F7F",
"m. c #F78E8E",
"M. c #F89393",
"N. c #FF9191",
"B. c #FF9E9E",
"V. c #FF9F9F",
"C. c #FFA0A0",
"Z. c #FFA1A1",
"A. c #FFA2A2",
"S. c #FFB0B0",
"D. c #FFB1B1",
"F. c #FFB2B2",
"G. c #FFB3B3",
"H. c gray100",
"J. c None",
/* pixels */
"J.J.J.J.J.J.J.J.J.J.J.J.J.J.J.J.J.J.J.J.J.J.J.J.J.J.J.J.J.J.J.J.",
"J.J.J.J.J.J.J.J.J.J.J.J.J.J.J.J.J.J.J.J.J.J.J.J.J.J.J.J.J.J.J.J.",
"J.J.J.J.J.J.J.J.J.J.J.J.J.J.J.J.J.J.J.J.J.J.J.J.J.J.J.J.J.J.J.J.",
"J.J.J.J.J.J.J.J.J.J.J.J.J.J.J.J.J.J.J.J.J.J.J.J.J.J.J.J.J.J.J.J.",
"J.J.J.J.J.J.J.J.J.J.J.J.J.J.J.J.J.J.J.J.J.J.J.J.J.J.J.J.J.J.J.J.",
"J.J.J.J.J.J.J.J.J.J.J.J.J.J.J.J.J.J.J.J.J.J.J.J.J.J.J.J.J.J.J.J.",
"J.J.J.J.J.J.J.J.J.J.J.J.W ` { { ` ` ( ( W P P P P J D D x q     ",
"J.J.J.J.J.J.J.J.J.J.J.W ` x.G.G.G.G.G.G.G.G.G.G.G.G.S.G.m.v 4   ",
"J.J.J.J.J.J.J.J.J.J.W ` z.A.A.A.A.A.A.A.B.A.A.A.B.B.B.B.B.M.C 2 ",
"J.J.J.J.J.J.J.J.J.J.P { N.b.] ( W W W P P J J D D D M V l.v.Q 4 ",
"J.J.J.J.J.J.J.J.J.J.J { b.k.m ; ; : : ; $ $ $ # + + + > r d < . ",
"J.J.J.J.J.J.J.J.J.J.D ` c.g.x                           ; ;     ",
"J.J.J.J.J.J.J.J.J.J.D ( j.s.m                                   ",
"J.J.J.J.J.J.J.J.J.J.M ( f.i.m     J.J.                J.        ",
"{ ` ( W W <   J.J.J.m ( p.y.x     J.J.J.              J.J.J.J.J.",
"| 4.4.4.X.J +   J.J.m E r.0.x     J.J.                J.J.J.J.J.",
"} 9.6.9.6...D X   J.m E 6.1.x     J.J.                J.J.J.J.J.",
"( W ( #.,.>.| x     x W >.>.a                               J.J.",
"    < W #.>.>.( a   p P >.&.p                                 J.",
"      p P #.>.&.P p 6 P >.>.p                                 J.",
"J.J.    p J #.>.>.J p J >.,.y                                 J.",
"J.J.J.    q M $.<.&.D J 2.9.q                               J.J.",
"J.J.J.J.    q M O.r.5.$.r.y.q     J.J.                J.J.J.J.J.",
"J.J.J.J.J.    6 x q.p.u.p.p.9     J.J.                J.J.J.J.J.",
"J.J.J.J.J.J.    4 k w.d.d.d.9     J.J.                J.J.J.J.J.",
"J.J.J.J.J.J.J.    2 s a.h.h.6     J.J.                J.J.J.J.J.",
"J.J.J.J.J.J.J.J.    < 9 r Z 4     J.J.                J.J.J.J.J.",
"J.J.J.J.J.J.J.J.J.                J.J.                J.J.J.J.J.",
"J.J.J.J.J.J.J.J.J.J.              J.J.J.            J.J.J.J.J.J.",
"J.J.J.J.J.J.J.J.J.J.J.J.J.J.J.J.J.J.J.J.J.J.J.J.J.J.J.J.J.J.J.J.",
"J.J.J.J.J.J.J.J.J.J.J.J.J.J.J.J.J.J.J.J.J.J.J.J.J.J.J.J.J.J.J.J.",
"J.J.J.J.J.J.J.J.J.J.J.J.J.J.J.J.J.J.J.J.J.J.J.J.J.J.J.J.J.J.J.J."
};
