/* XPM */
static char *kugar[] = {
/* columns rows colors chars-per-pixel */
"32 32 223 2",
"   c black",
".  c #331600",
"X  c #4E2300",
"o  c #532500",
"O  c #5F3507",
"+  c #5F3508",
"@  c #662C00",
"#  c #692D00",
"$  c #6F3E00",
"%  c #743200",
"&  c #753800",
"*  c #7C3800",
"=  c #744907",
"-  c #724E23",
";  c #755733",
":  c #823C00",
">  c #8A3B00",
",  c #923F00",
"<  c #8D4000",
"1  c #8C560B",
"2  c #825916",
"3  c #904400",
"4  c #9B4400",
"5  c #9B4900",
"6  c #925C00",
"7  c #9E5100",
"8  c #8D7201",
"9  c #9D6E00",
"0  c #9F6B0A",
"q  c #947239",
"w  c #A34600",
"e  c #A24A00",
"r  c #AC4C00",
"t  c #AE5000",
"y  c #B44E00",
"u  c #B84F00",
"i  c #B55200",
"p  c #BB5200",
"a  c #BC5900",
"s  c #BD5B10",
"d  c #A86300",
"f  c #B56F00",
"g  c #B27400",
"h  c #A76F37",
"j  c #8A7A5E",
"k  c #C05600",
"l  c #C45A00",
"z  c #C95D00",
"x  c #C05E10",
"c  c #C46200",
"v  c #C56A00",
"b  c #CD6100",
"n  c #CC6E00",
"m  c #C56110",
"M  c #CD7400",
"N  c #CB7C00",
"B  c #D16300",
"V  c #D36B00",
"C  c #D86F00",
"Z  c #D27200",
"A  c #DA7300",
"S  c #DB7900",
"D  c #D17515",
"F  c #C06520",
"G  c #C46820",
"H  c #CA6C20",
"J  c #CE7323",
"K  c #C57030",
"L  c #E27D00",
"P  c #CA7C40",
"I  c #9F8C00",
"U  c #9F8D2A",
"Y  c #AD8B28",
"T  c #BFAB00",
"R  c #BDA023",
"E  c #9C8F67",
"W  c #9F9769",
"Q  c #B39154",
"!  c #C3961B",
"~  c #D38600",
"^  c #D18800",
"/  c #DC8300",
"(  c #D58910",
")  c #D79C00",
"_  c #D28423",
"`  c #D18430",
"'  c #DF9E20",
"]  c #CFA416",
"[  c #CFB200",
"{  c #DCA700",
"}  c #DDA800",
"|  c #E58400",
" . c #E88500",
".. c #E98A00",
"X. c #E69300",
"o. c #F29400",
"O. c #F69A00",
"+. c #F49D0C",
"@. c #F89E00",
"#. c #E29420",
"$. c #E6AC00",
"%. c #E8A700",
"&. c #E9AF00",
"*. c #E9A908",
"=. c #E3B400",
"-. c #E3BD00",
";. c #E8B400",
":. c #EAB010",
">. c #F6A400",
",. c #FCA300",
"<. c #FCAA09",
"1. c #F7A812",
"2. c #FFAC10",
"3. c #F3BE00",
"4. c #FDB300",
"5. c #FFB708",
"6. c #FFBB00",
"7. c #FFB21F",
"8. c #E0A039",
"9. c #E4B520",
"0. c #E5BE30",
"q. c #FFBE33",
"w. c #FFBC3D",
"e. c #CE8440",
"r. c #C29E54",
"t. c #D58C4C",
"y. c #D38F50",
"u. c #DE9A40",
"i. c #D19050",
"p. c #DEA940",
"a. c #DCA94B",
"s. c #CFBE60",
"d. c #E3AB54",
"f. c #EEB74B",
"g. c #EDB840",
"h. c #E0AC66",
"j. c #E0AD6C",
"k. c #EDC700",
"l. c #EDC800",
"z. c #EFCC0E",
"x. c #ECC61B",
"c. c #FFC500",
"v. c #FCCB00",
"b. c #FFC112",
"n. c #FFCF1B",
"m. c #F6D200",
"M. c #F2DD00",
"N. c #FFD500",
"B. c #FEDA00",
"V. c #FFD90E",
"C. c #FFD312",
"Z. c #F2CF20",
"A. c #FFC526",
"S. c #FFCE24",
"D. c #FFCE30",
"F. c #F4DF20",
"G. c #FFD421",
"H. c #FFDC20",
"J. c #FFDF31",
"K. c #F7E800",
"L. c #FFE200",
"P. c #FEEC00",
"I. c #FEF400",
"U. c #FFFD00",
"Y. c #FFE03C",
"T. c #FFF520",
"R. c #FFFC20",
"E. c #DFCF76",
"W. c #E8C650",
"Q. c #EFD353",
"!. c #EFD85F",
"~. c #FFC146",
"^. c #FFC24A",
"/. c #FFCD42",
"(. c #FFCC53",
"). c #FDD340",
"_. c #FFD64B",
"`. c #FCDA40",
"'. c #F1D650",
"]. c #FBDE5E",
"[. c #ECD475",
"{. c #F2CE66",
"}. c #F1CF70",
"|. c #F5D066",
" X c #F6D76B",
".X c #FBDB60",
"XX c #FFD674",
"oX c #FFD87B",
"OX c #F6E940",
"+X c #FFE143",
"@X c #FFE454",
"#X c #FFE65F",
"$X c #FFE665",
"%X c #FDE36E",
"&X c #FFE975",
"*X c #FFEB7D",
"=X c #CFC8A2",
"-X c #DDD3AE",
";X c #E2C18D",
":X c #EDCA83",
">X c #EECB8B",
",X c #E4CB9D",
"<X c #F6DB87",
"1X c #FFDA84",
"2X c #F1D493",
"3X c #FFDD96",
"4X c #FAE383",
"5X c #FCE28B",
"6X c #FFEB85",
"7X c #FFEA8C",
"8X c #FFEF96",
"9X c #FFE4A2",
"0X c #FFE6AA",
"qX c #FBEBB3",
"wX c #FFF1A7",
"eX c #FFF4B7",
"rX c #FFF5BC",
"tX c #FFF5C6",
"yX c #FFF2D3",
"uX c #FFF9D6",
"iX c #FFFAE3",
"pX c #FFFDF2",
"aX c None",
/* pixels */
"aXaXaXaXaXaXaXaXaXaXb b b b b b B z z l i   aXaXaXaXaXaXaXaXaXaX",
"aXaXaXaXaXaXaXaXB B B B B A A A A V z b z l i     aXaXaXaXaXaXaX",
"aXaXaXaXaXaXb B B B S o.,.<.~.w.g.7.,...A z z l 5   aXaXaXaXaXaX",
"aXaXaXaXaXB B B L ,.w.3XyXpXpXpXpXpXiX9X^.>.A l l t     aXaXaXaX",
"aXaXaXaXB B C o.w.0XiXiXiXiXiXiXiXiXiXiXiXtX~...b k t     aXaXaX",
"aXaXaXB B A ,.XXuXj 5 h -XuXuXuXuXuXuXuXuXuXuX1X+.b l e     aXaX",
"aXaXB B V ,.oXtX-X< B z p ,XtXtX=X; 3 5 ;XtXtXtX9X+.l k *   aXaX",
"aXB B B O.XXeXeXE B z z l t.eXeX- B b z H rXeXeXeX5X..k p     aX",
"aXB B  .A.wXwXwXQ b b l k a rXW l b b z k qXwXwXwXwX(.C p <     ",
"aXB V <.7X8X8X8XQ c l k p p >Xq b z l k k >X8X8X8X8X8X1.k i     ",
"z B  ./.4X6XE.6X[.l k a p u 2Xa.b l k p p :X6X6X6X6X6X).V a #   ",
"B B >.$X%XE.@ f.*X8.a G j.<X*X%XD k p s s 7X&X%X_.A.5.4.X.p 5   ",
"B V b.$X!.O B z {.$X*X&X$X$X$X$X$Xd._ h.4XQ.Y = g 6.6.6.4.p r   ",
"B S S.@X2 B z z J $X@X@X@X@X@X@X@X@X@X`.] & l b z #.6.6.6.z i   ",
"b X.G.U l b l l a {.+X+X+X+X+X+X+X+Xn.c.6 B z z l x D.c.c.n p   ",
"z X.G.! b l l a u  XJ.J.R 1 & 5 5 4 ( c.d z z z a x ).c.c.n p   ",
"b X.C.x.m l p p j.H.H.H.d B B B z b l ).g z l p p y.C.v.v.n p   ",
"b / V.V.*.p p e.Y.V.V.z.< B z b l z z 0.=.z a p x .Xv.N.N.c y   ",
"z V B.N.B.:._ J.B.N.B.8 b b z z z z l u.B.3.` e.}.N.N.N.N.u r   ",
"l b v.B.B.B.B.B.B.B.[ 7 b b z z l l l H H.B.B.B.B.B.B.B.&.u 4   ",
"a b %.B.B.L.L.B.B.I : b z z z l l l k k #.L.B.B.L.B.B.B.~ u #   ",
"e z n P.L.L.P.L.T 5 b b z z z l l k k p p *.P.L.P.L.P.m.u y     ",
"  a l $.P.P.P.P.9 b b z z l l l k k p p p p Z.P.P.P.P.^ u >     ",
"aX< l b M.P.P.P.-.b z z z l l k k k p p p y Q.P.P.P.k.u r       ",
"aX  i l M P.I.I.P.&.z l l k k k p p p i i i.T.I.I.P.a u @       ",
"aXaX  a l M P.U.U.U.l.M l a k p p p p K W.T.U.I.P.v u >       aX",
"aXaX    p l M K.U.U.U.U.F.9.p.p.p.0.OXR.U.U.U.M.a i w         aX",
"aXaXaX    i a z =.U.U.U.U.U.U.U.U.U.U.U.U.I.{ u i >         aXaX",
"aXaXaXaX    5 a p n =.K.U.U.U.U.U.U.U.M.) a u y %         aXaXaX",
"aXaXaXaXaX    o r p p p v ^ { { { N c i u y , .         aXaXaXaX",
"aXaXaXaXaXaX      X 4 r i p p p u p y e :             aXaXaXaXaX",
"aXaXaXaXaXaXaXaX                                  aXaXaXaXaXaXaX"
};
