/* XPM */
static char *kcron-16[] = {
/* columns rows colors chars-per-pixel */
"16 16 37 1",
"  c black",
". c #000F00",
"X c #001000",
"o c #001E00",
"O c #001F00",
"+ c #002000",
"@ c #002F00",
"# c #202020",
"$ c #004000",
"% c #3E4F3E",
"& c #3E5F3E",
"* c gray25",
"= c #4F4F40",
"- c #565665",
"; c #606060",
": c #626262",
"> c #717162",
", c #808060",
"< c #80807F",
"1 c #808080",
"2 c #8F808F",
"3 c #A0A0A0",
"4 c #A2A2A2",
"5 c #A0A0AF",
"6 c #B1B1B1",
"7 c #B6B6B6",
"8 c #C0C0B0",
"9 c #C0C0BF",
"0 c gray76",
"q c #C0CFC0",
"w c #D1D1D0",
"e c #D2D2D2",
"r c #C0C0FF",
"t c #E0E0DF",
"y c #E1E1E1",
"u c gray100",
"i c None",
/* pixels */
"&$$$$$$@@$$$$$$&",
"$eyyyyy6eyyyyy6o",
"$yruuuuiyuuuurio",
"$yuuuuuiyuuuuuio",
"$yyyyy8,,8yyyyio",
"$yuuuuuiyuuuuuio",
"$yruuuuiyuuuuri+",
"$yuuuuuiyuuuuui+",
"$yyyyy8,,8611yi+",
"$yuuuuui4;;u4>*+",
"$yruuuui>5uquy=+",
"$yuuuuui-9u2yy9 ",
"$yyyyy8,#53uie1.",
"$yuuuuui:>#0;;*o",
"$0iiiii40*;1*1;+",
"&oooooo.o++++++%"
};
