/* XPM */
static char *kdat[] = {
/* columns rows colors chars-per-pixel */
"32 32 170 2",
"   c #000000",
".  c #010101",
"X  c #020202",
"o  c #040404",
"O  c #050505",
"+  c #060606",
"@  c #070707",
"#  c #080808",
"$  c #090909",
"%  c #0A0A0A",
"&  c #0B0B0B",
"*  c #0C0C0C",
"=  c #0D0D0D",
"-  c #0E0E0E",
";  c #0F0F0F",
":  c #101010",
">  c #121212",
",  c #131313",
"<  c #141414",
"1  c #171717",
"2  c #181818",
"3  c #191919",
"4  c #1A1A1A",
"5  c #1B1B1B",
"6  c #1C1C1C",
"7  c #1F1F1F",
"8  c #202020",
"9  c #222222",
"0  c #232323",
"q  c #262626",
"w  c #272727",
"e  c #282828",
"r  c #2A2A2A",
"t  c #2B2B2B",
"y  c #2C2C2C",
"u  c #2D2D2D",
"i  c #2E2E2E",
"p  c #2F2F2F",
"a  c #303030",
"s  c #313131",
"d  c #333333",
"f  c #343434",
"g  c #353535",
"h  c #363636",
"j  c #373737",
"k  c #383838",
"l  c #393939",
"z  c #3A3A3A",
"x  c #3B3B3B",
"c  c #3C3C3C",
"v  c #3D3D3D",
"b  c #3E3E3E",
"n  c #3F3F3F",
"m  c #404040",
"M  c #414141",
"N  c #424242",
"B  c #434343",
"V  c #444444",
"C  c #454545",
"Z  c #464646",
"A  c #474747",
"S  c #484848",
"D  c #494949",
"F  c #4A4A4A",
"G  c #4B4B4B",
"H  c #4C4C4C",
"J  c #4D4D4D",
"K  c #4E4E4E",
"L  c #4F4F4F",
"P  c #505050",
"I  c #515151",
"U  c #525252",
"Y  c #535353",
"T  c #545454",
"R  c #555555",
"E  c #565656",
"W  c #585858",
"Q  c #595959",
"!  c #5A5A5A",
"~  c #5B5B5B",
"^  c #5C5C5C",
"/  c #5D5D5D",
"(  c #5E5E5E",
")  c #5F5F5F",
"_  c #626262",
"`  c #636363",
"'  c #646464",
"]  c #656565",
"[  c #666666",
"{  c #676767",
"}  c #686868",
"|  c #696969",
" . c #6A6A6A",
".. c #6B6B6B",
"X. c #6C6C6C",
"o. c #6E6E6E",
"O. c #6F6F6F",
"+. c #707070",
"@. c #717171",
"#. c #727272",
"$. c #737373",
"%. c #757575",
"&. c #767676",
"*. c #777777",
"=. c #787878",
"-. c #797979",
";. c #7A7A7A",
":. c #7B7B7B",
">. c #7E7E7E",
",. c #7F7F7F",
"<. c #808080",
"1. c #818181",
"2. c #828282",
"3. c #838383",
"4. c #848484",
"5. c #858585",
"6. c #868686",
"7. c #888888",
"8. c #898989",
"9. c #8A8A8A",
"0. c #8B8B8B",
"q. c #8C8C8C",
"w. c #8D8D8D",
"e. c #8E8E8E",
"r. c #8F8F8F",
"t. c #909090",
"y. c #919191",
"u. c #929292",
"i. c #939393",
"p. c #949494",
"a. c #959595",
"s. c #969696",
"d. c #979797",
"f. c #989898",
"g. c #999999",
"h. c #9A9A9A",
"j. c #9B9B9B",
"k. c #9C9C9C",
"l. c #9D9D9D",
"z. c #9E9E9E",
"x. c #9F9F9F",
"c. c #A0A0A0",
"v. c #A1A1A1",
"b. c #A2A2A2",
"n. c #A3A3A3",
"m. c #A4A4A4",
"M. c #A7A7A7",
"N. c #A9A9A9",
"B. c #AAAAAA",
"V. c #ABABAB",
"C. c #ACACAC",
"Z. c #ADADAD",
"A. c #B2B2B2",
"S. c #B3B3B3",
"D. c #B4B4B4",
"F. c #BDBDBD",
"G. c #BEBEBE",
"H. c #C0C0C0",
"J. c #C8C8C8",
"K. c #CBCBCB",
"L. c #CCCCCC",
"P. c #D0D0D0",
"I. c #D4D4D4",
"U. c #D5D5D5",
"Y. c #D7D7D7",
"T. c #D8D8D8",
"R. c #DADADA",
"E. c #DCDCDC",
"W. c #E0E0E0",
"Q. c None",
/* pixels */
"Q.Q.Q.Q.Q.Q.Q.Q.Q.Q.Q.Q.Q.Q.Q.Q.Q.Q.Q.Q.Q.Q.Q.Q.Q.Q.Q.Q.Q.Q.Q.Q.",
"Q.Q.Q.Q.Q.Q.Q.Q.Q.Q.Q.Q.Q.Q.Q.Q.Q.Q.Q.Q.Q.Q.Q.Q.Q.Q.Q.Q.Q.Q.Q.Q.",
"Q.Q.Q.Q.Q.Q.Q.Q.Q.Q.Q.Q.Q.Q.Q.Q.Q.Q.Q.Q.Q.Q.Q.Q.Q.Q.Q.Q.Q.Q.Q.Q.",
"Q.Q.Q.Q.Q.Q.Q.Q.Q.Q.Q.Q.Q.Q.Q.        Q.Q.Q.Q.Q.Q.Q.Q.Q.Q.Q.Q.Q.",
"Q.Q.Q.Q.Q.Q.Q.Q.Q.Q.Q.Q.Q.Q.    M c 1     Q.Q.Q.Q.Q.Q.Q.Q.Q.Q.Q.",
"Q.Q.Q.Q.Q.Q.Q.Q.Q.Q.Q.Q.Q.  o U W.C.` p 6     Q.Q.Q.Q.Q.Q.Q.Q.Q.",
"Q.Q.Q.Q.Q.Q.Q.Q.Q.Q.Q.Q.Q.  Q T.b.` ` ( h o $     Q.Q.Q.Q.Q.Q.Q.",
"Q.Q.Q.Q.Q.Q.Q.Q.Q.Q.Q.Q.  ( E.M.` E h 4 - - - > >     Q.Q.Q.Q.Q.",
"Q.Q.Q.Q.Q.Q.Q.Q.Q.Q.Q.  ( U.b.@.` U k t 7 $ $ } ,.C 4     Q.Q.Q.",
"Q.Q.Q.Q.Q.Q.Q.Q.Q.Q.  ` K.z.9.q.5.=.} @.O.G ` H.B.a.` U >     Q.",
"Q.Q.Q.Q.Q.Q.Q.Q.Q.  E J.f.9.M.b.M.a.b.z.q.z.K.C.i.q.9.q.} k o   ",
"Q.Q.Q.Q.Q.Q.Q.Q.  Q G.a.,.M.C.b.M.f.D.f.z.U.C.a.i.q.5.,.} K $   ",
"Q.Q.Q.Q.Q.Q.Q.  G A.i.@.q.b.b.a.a.5.i.D.T.C.f.f.i.9.q.` M k $   ",
"Q.Q.Q.Q.Q.Q.  C B.>.` &.5.a.b.5.=.` ,.W.C.z.f.a.q.9.O.G c h o   ",
"Q.Q.Q.Q.Q.  M b.=.U ( @.>.9.a.a.} =.T.B.z.f.a.i.q.O.G c k p $   ",
"Q.Q.Q.Q.  h i.O.C U K c k M ( >.f.E.B.z.f.a.i.q.@.G c h p $     ",
"Q.Q.    h a.( c G p $ $ > 4 4 U E.b.f.f.a.i.9.O.C c k p $     Q.",
"Q.    p ,.Q h C p $ o h K M Q U.z.a.a.i.q.q.@.C h h p -   Q.Q.Q.",
"    w =.Q d M c 1   c } } q.U.f.i.q.q.q.9.O.C h d t -   Q.Q.Q.Q.",
"  - ` U p k c h > o K Q =.P.i.9.9.9.9.9.O.M h d t -   Q.Q.Q.Q.Q.",
"  $ K C k k k h >   p 5.K.i.5.5.5.,.,.@.C d d t -   Q.Q.Q.Q.Q.Q.",
"  - U U K G c h 4 $ E G.9.=.>.>.,.,.} M h h p -   Q.Q.Q.Q.Q.Q.Q.",
"  $ E E U U K G h K C.9.@.&.&.=.=.` C h h t -   Q.Q.Q.Q.Q.Q.Q.Q.",
"  o t d U U K U U ` ` } @.@.O.@.( c h d t -   Q.Q.Q.Q.Q.Q.Q.Q.Q.",
"Q.    $ 7 d G G K G C K E ` } Q k d d p -   Q.Q.Q.Q.Q.Q.Q.Q.Q.Q.",
"Q.Q.Q.    $ 7 h M C C M M G G c p p t -   Q.Q.Q.Q.Q.Q.Q.Q.Q.Q.Q.",
"Q.Q.Q.Q.Q.  o > 4 h c M M c h d p p -   Q.Q.Q.Q.Q.Q.Q.Q.Q.Q.Q.Q.",
"Q.Q.Q.Q.Q.Q.Q.    - > 7 p h d p t $   Q.Q.Q.Q.Q.Q.Q.Q.Q.Q.Q.Q.Q.",
"Q.Q.Q.Q.Q.Q.Q.Q.Q.    o 1 7 7 w $     Q.Q.Q.Q.Q.Q.Q.Q.Q.Q.Q.Q.Q.",
"Q.Q.Q.Q.Q.Q.Q.Q.Q.Q.Q.    o $ o     Q.Q.Q.Q.Q.Q.Q.Q.Q.Q.Q.Q.Q.Q.",
"Q.Q.Q.Q.Q.Q.Q.Q.Q.Q.Q.Q.Q.        Q.Q.Q.Q.Q.Q.Q.Q.Q.Q.Q.Q.Q.Q.Q.",
"Q.Q.Q.Q.Q.Q.Q.Q.Q.Q.Q.Q.Q.Q.Q.Q.Q.Q.Q.Q.Q.Q.Q.Q.Q.Q.Q.Q.Q.Q.Q.Q."
};
