/* XPM */
static char *kpackage[] = {
/* columns rows colors chars-per-pixel */
"32 32 226 2",
"   c black",
".  c #14172A",
"X  c #181C2F",
"o  c #191D31",
"O  c #242949",
"+  c #2B3254",
"@  c #3A4178",
"#  c #404A7C",
"$  c #414A85",
"%  c #464F8F",
"&  c #45508B",
"*  c #495495",
"=  c #4D599C",
"-  c #505E9C",
";  c #4D57A0",
":  c #4E5AA0",
">  c #505CA5",
",  c #535EA9",
"<  c #52609D",
"1  c #5563A7",
"2  c #5563AB",
"3  c #596AAD",
"4  c #5766B0",
"5  c #5866B2",
"6  c #5B6AB0",
"7  c #5D6DBA",
"8  c #696EA2",
"9  c #6170BE",
"0  c #6873B6",
"q  c #7177AE",
"w  c #7877A0",
"e  c #7A78A0",
"r  c #6374C1",
"t  c #6578C5",
"y  c #687BC7",
"u  c #6A7BCC",
"i  c #6B7DD0",
"p  c #7880B7",
"a  c #6C80CB",
"s  c #6D80D4",
"d  c #7382CB",
"f  c #7C86C1",
"g  c #7282D3",
"h  c #7185DA",
"j  c #7288D3",
"k  c #7489DD",
"l  c #7B8BD6",
"z  c #798CDD",
"x  c #758CE1",
"c  c #7B94ED",
"v  c #7E96F0",
"b  c #7999F0",
"n  c #7EB3FF",
"m  c #F6AE19",
"M  c #F7B11D",
"N  c #FAB31E",
"B  c #F7B221",
"V  c #F9B524",
"C  c #F9B628",
"Z  c #FAB92D",
"A  c #FBBC33",
"S  c #FCBE38",
"D  c #C9AC7B",
"F  c #D1AD6B",
"G  c #D1B176",
"H  c #E3B659",
"J  c #EDBD58",
"K  c #F3B853",
"L  c #F6BD59",
"P  c #FFBE50",
"I  c #E1B879",
"U  c #FFC333",
"Y  c #FCC03C",
"T  c #FFC93D",
"R  c #FEC443",
"E  c #FFC649",
"W  c #FFCC43",
"Q  c #FFC94A",
"!  c #FEC453",
"~  c #FECB52",
"^  c #FFCD5B",
"/  c #FFD04C",
"(  c #FFD254",
")  c #FFD65D",
"_  c #FFC763",
"`  c #FFCB66",
"'  c #FFD360",
"]  c #FFD26B",
"[  c #FFDB67",
"{  c #FFD573",
"}  c #FFD77D",
"|  c #FFDE70",
" . c #FFD87C",
".. c #838DBB",
"X. c #8690BE",
"o. c #8C94B8",
"O. c #9090AE",
"+. c #9499BD",
"@. c #9D9DB2",
"#. c #B2A08C",
"$. c #B9A699",
"%. c #B2A7A5",
"&. c #B2A9A9",
"*. c #B0ABBC",
"=. c #818DC3",
"-. c #8391C9",
";. c #8391DC",
":. c #8B9BD7",
">. c #8D9CDA",
",. c #949CC2",
"<. c #8396E1",
"1. c #8999E8",
"2. c #8199F4",
"3. c #849DF9",
"4. c #909DE7",
"5. c #909EEB",
"6. c #9AA3D5",
"7. c #86A2E9",
"8. c #8EA2E9",
"9. c #86A1FC",
"0. c #83ABFC",
"q. c #8CA0F0",
"w. c #89A4FE",
"e. c #8CAAFD",
"r. c #83B4FF",
"t. c #86B8FF",
"y. c #8BBCFF",
"u. c #95A4EB",
"i. c #9EAEED",
"p. c #91A7FA",
"a. c #90AAFF",
"s. c #9CACF2",
"d. c #90B0F5",
"f. c #93B6FE",
"g. c #94BAFC",
"h. c #9EB3FF",
"j. c #9DBDFB",
"k. c #ADA9C2",
"l. c #A6B0D8",
"z. c #ADB7DB",
"x. c #A1ABE9",
"c. c #A3B2EA",
"v. c #A8B3E7",
"b. c #A1B5FE",
"n. c #A3BAFB",
"m. c #AAB5F2",
"M. c #AAB8F2",
"N. c #A8BCFF",
"B. c #B5BEF3",
"V. c #93C0FF",
"C. c #9BC6FF",
"Z. c #9CC8FF",
"A. c #96D2FF",
"S. c #9CD5FF",
"D. c #A2C2F8",
"F. c #A5CDFF",
"G. c #ABC7FB",
"H. c #ACC8FB",
"J. c #A3D3FF",
"K. c #ACD3FF",
"L. c #B7C1EB",
"P. c #B1C3FF",
"I. c #B2CCF8",
"U. c #BBC6F5",
"Y. c #BBC8F7",
"T. c #B9CBFF",
"R. c #B2D5FF",
"E. c #B6D8FF",
"W. c #BDD4FB",
"Q. c #BCDCFF",
"!. c #C2AB88",
"~. c #CBAC86",
"^. c #CDAE89",
"/. c #C7B193",
"(. c #C5B7B3",
"). c #E2C99C",
"_. c #F1D28D",
"`. c #FFDD83",
"'. c #FFE186",
"]. c #FFE18E",
"[. c #FFE793",
"{. c #FEE299",
"}. c #FFE894",
"|. c #FFEA9B",
" X c #FEE5A1",
".X c #FFEBA4",
"XX c #FFF4B0",
"oX c #FFF7B8",
"OX c #FFFABE",
"+X c #C7C1C6",
"@X c #D6D3CD",
"#X c #C2CBF3",
"$X c #C6D4FF",
"%X c #C1DDFF",
"&X c #CCD4FF",
"*X c #CBDAFF",
"=X c #D1DCFF",
"-X c #C4E2FF",
";X c #CAE3FF",
":X c #C9EBFF",
">X c #D4E4FF",
",X c #D3EAFF",
"<X c #DDE6FE",
"1X c #DCEAFF",
"2X c #DCF0FF",
"3X c #E6E6D5",
"4X c #E3E8DC",
"5X c #EDF0DC",
"6X c #F5F0CA",
"7X c #FFF6C3",
"8X c #FFFEC5",
"9X c #FFFFCD",
"0X c #FFFED7",
"qX c #FFFFD8",
"wX c #E0E6FC",
"eX c #E3ECFF",
"rX c #E8ECFE",
"tX c #E5F1FF",
"yX c #EAF3FF",
"uX c #EDF9FF",
"iX c #F1F5E0",
"pX c LightYellow",
"aX c #F0F5FF",
"sX c #F4FBFF",
"dX c #FEFEFF",
"fX c None",
/* pixels */
"fXfXfXfXfXfXfXfXfXfXfXfXfXfXfXfXfXfXfXfXfXfXfXfXfXfXfXfXfXfXfXfX",
"fXfXfXfXfXfXfXfXfXfXfXfXfX2.v v fXfXfXfXi i u fXfXfXfXfXfXfXfXfX",
"fXfXfXfXfXfXfXfXfXfXfX9.3.c.iX1.3 fXfXh :.4Xd 6 fXfXfXfXfXfXfXfX",
"fXfXfXfXfXfXfXfXfXa.w.w.@XOX8X3Xx   h >.pXpX5X-.7 fXfXfXfXfXfXfX",
"fXfXfXfXfXfXfXfXa.e.+X{.|..XXXoXl.k z.qXqXqXqXqX=.2 fXfXfXfXfXfX",
"fXfXfXfXfXfXfXfXa.s.{ } `.].{..X X!.8X8X8X8X8X8X7X+.5 5 fXfXfXfX",
"fXfXfXfXfXfXfXfXfXw.(.` ] }  .) W N ~ XXXXXXXXXXXXXX@.2 * fXfXfX",
"fXfXfXfXfXfXfXfXfXw.p.L P ! T T / V m S }.|.|.|.|.|.|.%., > fXfX",
"fXfXfXfXfXfXfXfXfXfX9.k.U U T / ( C M V Y '.'.'.'.'.'.'./., % fX",
"fXfXfXfXfXfXfXfXfXfXw.9.*.Q / ( ) Z B C Z S ] { { { { { { 8 $   ",
"fXfXfXfXfXfXfXfXfXfXw.b.e.6.( ) [ A V Z A S R ^ ) ^ ^ _ w *     ",
"fXfXfXfXfXfXfXfXfXfXw.N.F.e.6.] | Y C Z Y S R Q E E P w =     fX",
"fXfXfXfXfXfXfXfXfXfXw.N.F.F.e.<._.S A A Y S Q ~ ~ K e 2 O   fXfX",
"fXfXfXfXfXfXfXfXfXfXe.N.F.F.F.g.;.H A S R R Q ~ #.0 ,.=..., > ; ",
"fXfXfXfXfX9.9.3.3.3.3.N.Z.y.F.F.g.l F S R Q G p ,.6X9X9X6Xo.; @ ",
"fXfXfXw.w.P.*X=X$XP.b.1.e.n t.F.K.j.x D J O.f ).}.}.{.&.2 & .   ",
"fXfXw.b.yXdXsXuX1X$X>X=Xs.c n y.R.E.H.k s d $.^.G ^.q = O       ",
"fXw.b.dXdXdXdXsX1X>X1XsXsXs.b r.t.R.Q.R.H.d.7.7.j d 2       fXfX",
"w.a.uXdXdXdXdXdXtX1XyXdXdXdX1.0.t.y.Q.;X%XF.F.F.K.g.2   fXfXfXfX",
"w.$XyXsXdXdXdXdXaXuXdXdXdXdX&Xx t.t.y.%X%XJ.K.K.E.j.2   fXfXfXfX",
"9.1X1XyXsXdXdXsXrXsXdXdXdXdXsXz r.y.y.-X-XR.E.K.J.C.2   fXfXfXfX",
"h.>X>X2XrXsXaXM.s.rXsXsXrX1X*X5.0.g.y.;X;XE.J.J.S.D.2   fXfXfXfX",
"b.%X;X>XyXuX=Xy < M.rXrX1X>X*Xu.0.V.y.;X,XQ.J.S.A.G.2   fXfXfXfX",
"b.tXuXdXdXdXyXu.<.wXsXsXrX<X>X4.0.V.V.,X2X:XS.A.A.G.2   fXfXfXfX",
"2.dXdXdXdXdXsXeXrXsXdXdXuXrX<Xl f.V.V.1XyX:XA.A.A.I.2   fXfXfXfX",
"2.=XdXdXdXdXyXuXdXdXdXdXdXsX*Xd 1XZ.V.2XuX,XA.A.S.W.2   fXfXfXfX",
"c 1.dXdXdXyX1XyXsXdXdXdXdXdX;.z *XtXF.tXsX2XS.:XaXL.1   fXfXfXfX",
"fXx M.dXsX,X;XrXsXsXdXdXdXm.7 3 x Y.uXdXdXsXsXwX:.7 &   fXfXfXfX",
"fXfXg i.>X>XW.tXuXsXsXsXx.7 o   3 k U.sXdXaXv.y 2 X     fXfXfXfX",
"fXfXfXt z M.T.tXrX>XB.g 6 o     fXt h v.#Xl 9 #       fXfXfXfXfX",
"fXfXfXfX+ 3 t r 9 9 2 +       fXfXfX3 u u <       fXfXfXfXfXfXfX",
"fXfXfXfXfX                fXfXfXfXfXfX        fXfXfXfXfXfXfXfXfX"
};
