/* XPM */
static char *kuser[] = {
/* columns rows colors chars-per-pixel */
"32 32 257 2",
"   c #000000",
".  c #000009",
"X  c #020A00",
"o  c #000818",
"O  c #081001",
"+  c #000C22",
"@  c #051225",
"#  c #001939",
"$  c #151F2D",
"%  c #002B00",
"&  c #0B2603",
"*  c #003B00",
"=  c #0B3200",
"-  c #132903",
";  c #1D3805",
":  c #17263C",
">  c #15253A",
",  c #001F46",
"<  c #00007F",
"1  c #062850",
"2  c #0A2D57",
"3  c #052D5A",
"4  c #1B2B41",
"5  c #002A6A",
"6  c #002E73",
"7  c #0B3669",
"8  c #003574",
"9  c #22385B",
"0  c #034C01",
"q  c #004000",
"w  c #075400",
"e  c #144503",
"r  c #036900",
"t  c #0B7C00",
"y  c #126400",
"u  c #187103",
"i  c #187D10",
"p  c #284806",
"a  c #275608",
"s  c #2E5229",
"d  c #217A19",
"f  c #2D7E26",
"g  c #174374",
"h  c #1A766F",
"j  c #1F7E75",
"k  c #27456A",
"l  c #425C7E",
"z  c #094185",
"x  c #1C569C",
"c  c #0044AA",
"v  c #385A85",
"b  c #205FA8",
"n  c #2267B3",
"m  c #2F71BA",
"M  c #316CAC",
"N  c #306CB1",
"B  c #377BBB",
"V  c #2C73C3",
"C  c #2C79C1",
"Z  c #337CCE",
"A  c #387CC3",
"S  c #405E87",
"D  c #5179A7",
"F  c #178201",
"G  c #1E8418",
"H  c #0BA302",
"J  c #16A701",
"K  c #1DA81B",
"L  c #309007",
"P  c #2D890F",
"I  c #368F2F",
"U  c #3A9834",
"Y  c #23AD01",
"T  c #24A309",
"R  c #2CAA1D",
"E  c #25B400",
"W  c #2BB401",
"Q  c #33AE05",
"!  c #34BB02",
"~  c #39BD01",
"^  c #35B808",
"/  c #31AF22",
"(  c #33AD30",
")  c #3FB729",
"_  c #38B136",
"`  c #1F845E",
"'  c #338D5C",
"]  c #38A54B",
"[  c #3EC100",
"{  c #4AAD13",
"}  c #44B517",
"|  c #55AB14",
" . c #46A60D",
".. c #42BA29",
"X. c #49BD28",
"o. c #40BA25",
"O. c #75BF28",
"+. c #519014",
"@. c #4B9744",
"#. c #41A35A",
"$. c #5EB25C",
"%. c #59BD51",
"&. c #55BB53",
"*. c #51AD66",
"=. c #44C302",
"-. c #44C10A",
";. c #48C700",
":. c #4CCA00",
">. c #45C800",
",. c #51CD00",
"<. c #54CD0C",
"1. c #56D000",
"2. c #5BD300",
"3. c #5ED20E",
"4. c #4DC81C",
"5. c #4DC028",
"6. c #5CC82E",
"7. c #55C428",
"8. c #5AC633",
"9. c #5DC832",
"0. c #56C236",
"q. c #60D601",
"w. c #63D900",
"e. c #6BDE00",
"r. c #66D514",
"t. c #74D11A",
"y. c #6BD634",
"u. c #7ECD3F",
"i. c #7BDC26",
"p. c #7FDF36",
"a. c #6DE100",
"s. c #75E500",
"d. c #7BEA00",
"f. c #5EC151",
"g. c #62C451",
"h. c #6CC45F",
"j. c #7BC848",
"k. c #75CD5E",
"l. c #78CF5E",
"z. c #7CC657",
"x. c #77CD63",
"c. c #7CCA79",
"v. c #76C873",
"b. c #7AD060",
"n. c #3A88AC",
"m. c #3E87DF",
"M. c #5EA49F",
"N. c #698AB3",
"B. c #77B99A",
"V. c #4B83C3",
"C. c #5498C7",
"Z. c #5591D0",
"A. c #4892E7",
"S. c #5B9DE5",
"D. c #529CE7",
"F. c #5798F0",
"G. c #5AA4ED",
"H. c #6293CC",
"J. c #6196E5",
"K. c #6EACC2",
"L. c #66A3DF",
"P. c #77ACDE",
"I. c #69ABEB",
"U. c #66A8E8",
"Y. c #69A6F1",
"T. c #6EB0ED",
"R. c #75B4ED",
"E. c #7AB6EE",
"W. c #7EBBEF",
"Q. c #74B4F2",
"!. c #7CBAF3",
"~. c #7BB4F2",
"^. c #8CD539",
"/. c #84F000",
"(. c #99F41F",
"). c #91ED2C",
"_. c #9AED39",
"`. c #9BF527",
"'. c #92ED33",
"]. c #A6FC29",
"[. c #A2FB25",
"{. c #8ECC7E",
"}. c #96E849",
"|. c #B0F84A",
" X c #B3FA45",
".X c #A7EE48",
"XX c #81AAD4",
"oX c #84ACE3",
"OX c #84BCEE",
"+X c #8ABDED",
"@X c #84BAE7",
"#X c #80BEF0",
"$X c #8ABCF3",
"%X c #82BCF8",
"&X c #90B8E1",
"*X c #9DBDF5",
"=X c #80CD80",
"-X c #8DD08D",
";X c #93D58C",
":X c #99D887",
">X c #99D993",
",X c #97CC94",
"<X c #A1DAA1",
"1X c #A9DDA9",
"2X c #B1DFAF",
"3X c #BEE5BD",
"4X c #8FC3EF",
"5X c #85C1F1",
"6X c #8BC4F2",
"7X c #8EC8F3",
"8X c #8ECAFC",
"9X c #9BC3EE",
"0X c #90C1EF",
"qX c #93C4F1",
"wX c #94CBF3",
"eX c #9DC5F0",
"rX c #98CEF5",
"tX c #91CCFF",
"yX c #9BD1F6",
"uX c #A2C4E8",
"iX c #A3CBF1",
"pX c #A4CBF2",
"aX c #A4D1F4",
"sX c #A3D6F9",
"dX c #A6D9F8",
"fX c #ACDDF9",
"gX c #B6D4F4",
"hX c #B2DCF9",
"jX c #B9D5F3",
"kX c #B8D8F5",
"lX c #B8DFFB",
"zX c #AFE1FB",
"xX c #B3E2FB",
"cX c #BAE5FD",
"vX c #BCEAFE",
"bX c #C0DBF8",
"nX c #CDEBCD",
"mX c #D4F1D4",
"MX c #DAF1DA",
"NX c #C5E0F9",
"BX c #C2EEFF",
"VX c #C8E7FC",
"CX c #CBF1FF",
"ZX c #C6F1FF",
"AX c #D4E5F8",
"SX c #D9EAFC",
"DX c #D4F4FE",
"FX c #DBF4FE",
"GX c #DBFAFF",
"HX c #D7F8FF",
"JX c #E0EEFE",
"KX c #EAF9EA",
"LX c #E5F3FD",
"PX c #E3FCFF",
"IX c #E8FEFF",
"UX c #F3FAFF",
"YX c None",
/* pixels */
"YXYXYXYXYXYXYXYXYXYXYXYXYXYXYXYXYXw r i I U i 0   YXYXYXYXYXYXYX",
"YXYXYXYXYXYXYXYXYXYXYXYXYXYXYXYX0 f ,XMXKXKXKX2X@.% YXYXYXYXYXYX",
"YXYXYXYXYXYXYXYXYXYXYXYXYXYXYX* U 3XMXnXnXnXnXMXmX$.% YXYXYXYXYX",
"YXYXYXYXYXYXYXYXYXYXYXYXYXYXX G >X1X<X<X<X<X<X<X1X<XG O YXYXYXYX",
"YXYXYXYXYXYXYXYXYXYXYXYXYXYX* ( =Xc.c.c.c.c.c.c.c.=X_ * YXYXYXYX",
"YXYXYXYXYXYXYXYX< c 8 5 YX  r K &.&.f.f.g.g.f.f.%.&.K r   YXYXYX",
"YXYXYXYXYXYX6 z m Z.H.V.x # t H R ) ..5.5.7.5.X.) / H F   YXYXYX",
"YXYXYXYXYX# m uXLXUXUXUXSXoXh K J ! ~ [ -.-.-.~ ^ J J F   YXYXYX",
"YXYXYXYX+ N bXSXSXAXAXAXAXSX*X` E [ >.,.,.,.:.>.[ W E u   YXYXYX",
"YXYXYXYXz $XbXgXgXgXgXgXgXjXbXJ.` >.1.2.w.a.2.1.;.[ ! e   YXYXYX",
"YXYXYX+ V qX9XeXiXiXpXpXpX9XpXE.C 5.2.a.s.s.a.2.3.<.L X YXYXYXYX",
"YXYXYX1 A.E.0X0XqXqX9XqXqX+X+XI.m.$.).).`.(.).).i. .&   YXYXYXYX",
"YXYXYX2 D.I.W.OX+X6X6X5X5X@XR.G.A.' t._. X X_.^.{ y   YXYXYXYXYX",
"YXYXYX2 G.T.E.W.5X6X6X6X5XW.R.I.S.M.:Xz.j.u.j.{.-XR w   YXYXYXYX",
"YXYXYX# D.!.5X7XrXyXyXrXwX6XW.R.S.B.:X>X;X;X>X>X>Xc.T = YXYXYXYX",
"YXYXYX. B 8XwXyXdXfXzXfXsXrX7X%XC.h.l.l.l.l.l.k.k.b...F X YXYXYX",
"YXYXYXYX1 R.xXhXxXvXvXcXhXfXaXU.#.7.8.9.6.6.6.9.8.0.) Y e YXYXYX",
"YXYXYXYX  g 0XCXDXHXFXDXCXNX@X] ~ -.-.-.=.=.;.-.-.^ ^ W L   YXYX",
"YXYXYXYXYX3 Z +XcXFXLXDXlX$XB R [ =.:.,.,.,.:.:.=.~ ~ W Q = YXYX",
"YXYXYXYX, Z $XjX9X9XeXuXpXgXOXn.) 1.1.2.2.w.2.1.,.;.~ ! ~ a YXYX",
"YXYXYX. n !.kXkXkXjXgXkXkXkXjXY.n.1.w.e.a.e.e.w.2.,.>.~ ~ L . YX",
"YXYXYX7 G.qXiXiXaXaXaXaXpXyXyX+XF.*.a.s.d.d.s.a.w.2.>.[ 4.{ O YX",
"YXYXo A Q.6X4XwXqXwX9XwXwX4X4X5XI.C.r.d././.d.s.a.3.3.y.y.| O YX",
"YXYX7 I.W.OX5X7X4X7X7X7X6X6X5XW.E.Y.v.[.].].`._._.}.}.^.| ;   YX",
"YX  N %X#X6X7X7XwXyXrXyXrXwX6X5XW.Q.K..X|.|..X.X^.6.+.a O   YXYX",
"YX@ Z.6X6X7XyXyXdXdXdXdXaXyXrX7X5X5XJ.s p p p ; - O       YXYXYX",
"YX2 Q.6XwXyXdXzXxXxXxXxXfXdXyXrX7X5X!.9 YX      YXYXYXYXYXYXYXYX",
"YXb rXrXyXyXfXzXvXvXvXvXcXzXdXyXwXrXtXv YXYXYXYXYXYXYXYXYXYXYXYX",
"YXg 6XcXfXzXxXvXBXZXZXZXvXcXhXhXfXfXtXk   YXYXYXYXYXYXYXYXYXYXYX",
"YX  g P.cXZXGXGXPXIXIXIXGXHXDXCXcX$XS X YXYXYXYXYXYXYXYXYXYXYXYX",
"YXYX  + k D XXuXjXbXAXNXhXaX&XN.S $   YXYXYXYXYXYXYXYXYXYXYXYXYX",
"YXYXYXYX    . @ > : : 4 : @ .       YXYXYXYXYXYXYXYXYXYXYXYXYXYX"
};
