/* XPM */
static char *kuser-16[] = {
/* columns rows colors chars-per-pixel */
"16 16 190 2",
"   c black",
".  c #000009",
"X  c #000C1F",
"o  c #0F1B03",
"O  c #001026",
"+  c #091627",
"@  c #002500",
"#  c #062700",
"$  c #052900",
"%  c #0D2700",
"&  c #083302",
"*  c #1C3E06",
"=  c #19212F",
"-  c #00007F",
";  c #0A284C",
":  c #002A6A",
">  c #084100",
",  c #0F4605",
"<  c #145A0D",
"1  c #177A10",
"2  c #265909",
"3  c #335514",
"4  c #305A2E",
"5  c #256A05",
"6  c #367433",
"7  c #1B4A7E",
"8  c #1E4B7E",
"9  c #204772",
"0  c #254B73",
"q  c #354A60",
"w  c #32577E",
"e  c #507D20",
"r  c #46586D",
"t  c #004499",
"y  c #2F629A",
"u  c #3266A0",
"i  c #425F80",
"p  c #5C7286",
"a  c #657B8F",
"s  c #128A22",
"d  c #1AAE07",
"f  c #208402",
"g  c #2CAB16",
"h  c #2DB202",
"j  c #2BB409",
"k  c #30B302",
"l  c #38B716",
"z  c #3EB13C",
"x  c #39C000",
"c  c #3EC001",
"v  c #3DC118",
"b  c #42BD17",
"n  c #46BF16",
"m  c #43B823",
"M  c #46B232",
"N  c #67981E",
"B  c #639427",
"V  c #50AA7A",
"C  c #67AD61",
"Z  c #41C600",
"A  c #46CD0D",
"S  c #49C800",
"D  c #4ACA00",
"F  c #4DCD00",
"G  c #48C116",
"H  c #51CF00",
"J  c #53CE00",
"K  c #51C61B",
"L  c #51C71A",
"P  c #52C61B",
"I  c #53D000",
"U  c #55D000",
"Y  c #59D400",
"T  c #5ED700",
"R  c #4EC320",
"E  c #62D60E",
"W  c #68DF00",
"Q  c #65C528",
"!  c #6EE100",
"~  c #72E400",
"^  c #78E40A",
"/  c #7AE32C",
"(  c #6EC54E",
")  c #6DC664",
"_  c #6EC764",
"`  c #6EC667",
"'  c #6BCB69",
"]  c #72C96F",
"[  c #479F80",
"{  c #4E9F9A",
"}  c #5F80A7",
"|  c #5787B2",
" . c #5C89BE",
".. c #569FB5",
"X. c #728397",
"o. c #72869A",
"O. c #68A088",
"+. c #67AFA9",
"@. c #6CB6B6",
"#. c #528CC5",
"$. c #5E8FC9",
"%. c #5EA0DF",
"&. c #709CCE",
"*. c #71ABC6",
"=. c #67A9E1",
"-. c #6CACF3",
";. c #73B7F6",
":. c #7FB0FA",
">. c #7CBBFA",
",. c #7EB8F8",
"<. c #81B67D",
"1. c #84EB11",
"2. c #8DF210",
"3. c #98FC19",
"4. c #80E033",
"5. c #87F121",
"6. c #A0FF12",
"7. c #89D354",
"8. c #82CE6E",
"9. c #84CF74",
"0. c #85D171",
"q. c #88D57E",
"w. c #9AE44A",
"e. c #96E052",
"r. c #82BDEF",
"t. c #86BFFA",
"y. c #88BFF5",
"u. c #8DBBFA",
"i. c #9BBAE1",
"p. c #9BBCE2",
"a. c #87CA86",
"s. c #92C58E",
"d. c #B4EAB4",
"f. c #82C3FB",
"g. c #85C6FD",
"h. c #8AC2F1",
"j. c #8AC3F1",
"k. c #8BC6F3",
"l. c #8BC4F5",
"z. c #8FC5F1",
"x. c #8EC5F9",
"c. c #8DC8F4",
"v. c #9BCAEE",
"b. c #90C6F2",
"n. c #92C8F2",
"m. c #96CEF5",
"M. c #97CFF5",
"N. c #9AC6F1",
"B. c #9AC7F1",
"V. c #9BC6F1",
"C. c #9BC7F1",
"Z. c #98CFF5",
"A. c #98CFF6",
"S. c #9ED3F6",
"D. c #9ED4F6",
"F. c #9ED4F7",
"G. c #99D4FF",
"H. c #9FD7FF",
"J. c #A6CDF2",
"K. c #A5CEF7",
"L. c #ADCFFC",
"P. c #A1D0F8",
"I. c #A1D6F8",
"U. c #A1D7F8",
"Y. c #B0D3F5",
"T. c #B2D5F6",
"R. c #AEE0FA",
"E. c #AFE1FB",
"W. c #B6E0FF",
"Q. c #B6E5FF",
"!. c #B8E6FD",
"~. c #B9E7FD",
"^. c #BFEBFF",
"/. c #C2DFF7",
"(. c #C2DFF8",
"). c #C7EAC8",
"_. c #C6ECC8",
"`. c #C7ECC9",
"'. c #C0EDFF",
"]. c #CEF3FF",
"[. c #CFF4FF",
"{. c #D3E7FF",
"}. c #D4E7FB",
"|. c #D3E9FF",
" X c #D4E8FC",
".X c #D1FAFF",
"XX c #D1FBFF",
"oX c #DEFFFF",
"OX c #DFFFFF",
"+X c None",
/* pixels */
"+X+X+X+X+X+X+X+X< C s.<.4   +X+X",
"+X+X+X+X+X+X+X& a._.)._.d.6   +X",
"+X+X+X- t :   1 ' ` ` ) ] z @ +X",
"+X+X; $.p.i.} s j b G n l d > +X",
"+XX &.|.}. X{.*.g F Y I Z h # +X",
"+X7 t.V.B.V.V.:.[ ^ 2.1.E 5   +X",
"+Xy ;.r.j.j.r.-...7.w.e.( , +X+X",
"+X9 g.A.U.U.m.,.+.0.8.9.q.M $ +X",
"+X. | !. X].W.@.m P P P R G f   ",
"+X  u K.'.'.L.{ c I J J D k k % ",
"+X8 z.Y.J.J.Y.u.V W ~ ! W F A 2 ",
"O %.z.z.z.z.z.f.=./ 6.3.5.4.Q , ",
"0 f.c.A.D.D.A.c.,.O.N B e 3 o   ",
"#.H.I.E.!.!.T.F.G. .      +X+X+X",
"w v.^.XXOXOXXX'.F.i   +X+X+X+X+X",
"  + q p X.o.a r =   +X+X+X+X+X+X"
};
