/* XPM */
static char *kget[] = {
/* columns rows colors chars-per-pixel */
"32 32 218 2",
"   c #000000",
".  c #00030B",
"X  c #000514",
"o  c #00011D",
"O  c #000814",
"+  c #000A1A",
"@  c #171717",
"#  c #171718",
"$  c #00042C",
"%  c #000C22",
"&  c #000630",
"*  c #000A33",
"=  c #001027",
"-  c #00122B",
";  c #001335",
":  c #001538",
">  c #17192B",
",  c #171A3D",
"<  c #001443",
"1  c #001A43",
"2  c #171A41",
"3  c #000975",
"4  c #00087E",
"5  c #001E63",
"6  c #171D65",
"7  c #00204B",
"8  c #002254",
"9  c #00265C",
"0  c #00295F",
"q  c #002565",
"w  c #002B6D",
"e  c #002573",
"r  c #002A74",
"t  c #002B7A",
"y  c #00306F",
"u  c #00337C",
"i  c #595959",
"p  c #595D63",
"a  c #596779",
"s  c #000D94",
"d  c #001296",
"f  c #001499",
"g  c #001C9C",
"h  c #171F89",
"j  c #161D9C",
"k  c #0415A2",
"l  c #031AA4",
"z  c #002781",
"x  c #002B85",
"c  c #002B8E",
"v  c #00219E",
"b  c #002B90",
"n  c #002E9A",
"m  c #003082",
"M  c #00328D",
"N  c #003882",
"B  c #003B8C",
"V  c #00349E",
"C  c #04389F",
"Z  c #17208C",
"A  c #17219D",
"S  c #0024A2",
"D  c #0123A9",
"F  c #002CA6",
"G  c #002BAC",
"H  c #0A20AD",
"J  c #0D21B1",
"K  c #0033AB",
"L  c #0039AF",
"P  c #0036B2",
"I  c #003CBE",
"U  c #0F3EBE",
"Y  c #122DB7",
"T  c #152DB9",
"R  c #1033B9",
"E  c #103ABC",
"W  c #0036D9",
"Q  c #013DE4",
"!  c #023CE9",
"~  c #00419B",
"^  c #0042A5",
"/  c #034BAD",
"(  c #0043B2",
")  c #0041BC",
"_  c #0C41B4",
"`  c #0652B8",
"'  c #0D52BA",
"]  c #1042BF",
"[  c #0858C0",
"{  c #095CCA",
"}  c #0353DC",
"|  c #065BD4",
" . c #1246C1",
".. c #154CC2",
"X. c #115DC2",
"o. c #1853C5",
"O. c #1C5CC5",
"+. c #0242E6",
"@. c #0245EC",
"#. c #0249E0",
"$. c #034BEC",
"%. c #0146F3",
"&. c #034BF4",
"*. c #0451EC",
"=. c #0553F5",
"-. c #065CF7",
";. c #065BF8",
":. c #114BF2",
">. c #1966CA",
",. c #0762FA",
"<. c #0865FB",
"1. c #096CFC",
"2. c #0D74FE",
"3. c #1364F8",
"4. c #1074F6",
"5. c #1474FE",
"6. c #1479FF",
"7. c #1E7BF3",
"8. c #1A7DFF",
"9. c #205FCB",
"0. c #334CCE",
"q. c #3952D0",
"w. c #2564CD",
"e. c #2A6BD1",
"r. c #2671D0",
"t. c #2E7CDB",
"y. c #347BD5",
"u. c #2B67F5",
"i. c #277FEE",
"p. c #596C86",
"a. c #596E8A",
"s. c #406DED",
"d. c #1E80FF",
"f. c #2F83EB",
"g. c #2584FF",
"h. c #2987FF",
"j. c #2E8AFE",
"k. c #3281E3",
"l. c #338DFF",
"z. c #3D86FB",
"x. c #3B92FE",
"c. c #4385DA",
"v. c #508FDF",
"b. c #478FE5",
"n. c #4B92EB",
"m. c #4195FF",
"M. c #4698FF",
"N. c #4B9CFE",
"B. c #538CF9",
"V. c #5399EF",
"C. c #5D9AE3",
"Z. c #509FFF",
"A. c #589EF4",
"S. c #54A1FE",
"D. c #5AA5FE",
"F. c #5EA9FF",
"G. c #6782E7",
"H. c #6A8EEF",
"J. c #668DF0",
"K. c #7392EF",
"L. c #7E99EF",
"P. c #63A2EB",
"I. c #69A6EE",
"U. c #65A9F6",
"Y. c #63ABFE",
"T. c #68A8F2",
"R. c #6AACFE",
"E. c #6CB1FF",
"W. c #70AEF0",
"Q. c #72ADFE",
"!. c #73B5FF",
"~. c #77B8FF",
"^. c #7EB3FE",
"/. c #7CBBFE",
"(. c #9D9D9D",
"). c #9D9FA3",
"_. c #9DA0A7",
"`. c #9DA1A9",
"'. c #9DA4B4",
"]. c #9DA7BF",
"[. c #A6A6A6",
"{. c #BFBFBF",
"}. c #9DAAC8",
"|. c #9DAFD2",
" X c #9DB2DF",
".X c #8FAAF2",
"XX c #82B3FD",
"oX c #81BBF5",
"OX c #86BBFE",
"+X c #8ABAFD",
"@X c #9DB3E1",
"#X c #92BFFE",
"$X c #9DBEF9",
"%X c #86C1FE",
"&X c #8CC5FD",
"*X c #93C2FE",
"=X c #91C8FD",
"-X c #9DC5FE",
";X c #A7C3F9",
":X c #A6CBFF",
">X c #A9CDFE",
",X c #B1D2FF",
"<X c #BBD7FF",
"1X c #BCDAFF",
"2X c #C5DDFF",
"3X c #CEE3FF",
"4X c #D4E7FF",
"5X c #D5E8FF",
"6X c #DBE9FF",
"7X c #E7E7E7",
"8X c #E7E7ED",
"9X c #E7E7F0",
"0X c #E7E8F4",
"qX c #E0EFFF",
"wX c #E1F0FF",
"eX c #F5F5F5",
"rX c gray100",
"tX c None",
/* pixels */
"tXtXtXtXtXtXtXtXtXtXtXtXtXtXtXtXtXtXtXtXtXtXtXtXtXtXtXtXtXtXtXtX",
"tXtXtXtXtXtX0X0X0X0X0X0X0X0X0X0X0X0X0X0X0X9X0X0X9XtXtXtXtXtXtXtX",
"tXtXtXtXtXA j j j j j j j j j j j j j j j j A Z h tXtXtXtXtXtXtX",
"tXtXtXtXtXs s T q.q.q.q.q.q.q.q.q.q.q.q.q.q.q.T 4 o tXtXtXtXtXtX",
"tXtXtXtXtXs l .X6X6X6X6X6X6X6X6X6X6X6X6X6X6X4Xs.s $ tXtXtXtXtXtX",
"tXtXtXtXtXf T ;XqX6X6X6X6X6X6X6X6X6X6X6X6X6X6X.Xk &   tXtXtXtXtX",
"tXtXtXtXtXf R -X4X3X3X3X3X3X3X3X3X3X3X3X3X3X6XK.l &   tXtXtXtXtX",
"tXtXtXtXtXf R $X3X2X2X2X2X2X2X2X2X2X2X2X2X2X2XK.l &   tXtXtXtXtX",
"tXtXtXtXtXg E #X2X<X<X<X<X<X<X<X<X<X<X<X<X<X2XH.l *   tXtXtXtXtX",
"tXtXtXtXtXg U XX,X,X,X,X,X,X,X,X,X,X,X,X,X,X<XH.D *   tXtXtXtXtX",
"tXtXtXtXtXv ] oX>X:X:X:X:X:X:X:X:X:X:X:X:X-XXXs.D *   tXtXtXtXtX",
"tXtXtXtXtXS  .^.:X-X-X-X-X-X-X:X*X:X-XXXB.u.:.! D *   tXtXtXtXtX",
"tXtXtXtXtXS ] ^.#X#X#X#X#X*X#X*X#XQ.z.3.=.&.%.@.G * X tXtXtXtXtX",
"tXtXtXtXtXF ..Q.+XOX+XXX+X+XXXQ.z.5.<.,.;.=.&.@.G < z tXtXtXtXtX",
"tXtXtXtXtXF o.R.^.^.^.^.^.Q.N.g.6.2.1.<.,.;.=.$.P < tXtXtXtXtXtX",
" XK K K K F o.D.R.Q.Q.R.Z.m.h.g.d.6.2.2.<.,.;.&.P 5 V K K K c tX",
"@XL _ _ _ L w.S.S.S.S.N.m.x.l.j.g.d.6.2.1.<.,.=.I K P P P K t '.",
"@XL O.n.V.V.A.Y.F.D.D.S.Z.N.m.x.j.h.g.6.2.1.<.;.*.$.+.Q W W e _.",
" Xt C e.T.~.!.E.E.Y.Y.F.D.Z.N.x.x.j.g.8.6.2.<.,.-.=.%.Q W x + (.",
"tX< 1 C w.T././.~.!.E.E.F.D.Z.N.m.l.j.g.8.2.2.<.-.=.#.) w +   tX",
"tXtX+ < M 9.I.&X%X/./.!.E.Y.F.Z.M.x.l.h.g.6.2.1.,.} ( q .   tXtX",
"tXtXtXtX- m ' I.=X%X%X/.!.E.Y.D.S.M.x.j.g.6.2.1.} ( 8 .   tXtXtX",
"tXtXtXtXtX- u ' C.=X=X%X/.!.E.F.S.N.x.j.h.d.4.| ^ 1 . tXtXtXtXtX",
"tXtXtXtXtXtX+ w ` v.=X=X%X/.!.Y.F.S.M.x.j.7.| ~ :   tXtXtXtXtXtX",
"tXtXtXtXtXtXtX- 9 / c.%X&XoX/.E.Y.S.Z.x.f.{ B =   tXtXtXtXtXtXtX",
"tXtXtXtXtXtXtXtX+ 8 / c./.&X/.E.Y.D.Z.f.{ N +   tXtXtXtXtXtXtXtX",
"tXtXtXtXtXtXtXtXtX- : ~ r.W.%X!.E.D.k.` r O   tXtXtXtXtXtXtXtXtX",
"tXtXtXtXtXtXtXtXtXtXtX= N >.P./.Y.k.` q .   tXtXtXtXtXtXtXtXtXtX",
"tXtXtXtXtXtXtXtXtXtXtXtX= u [ b.k./ 7   tXtXtXtXtXtXtXtXtXtXtXtX",
"tXtXtXtXtXtXtXtXtXtXtXtXtXO u / ~ ;   tXtXtXtXtXtXtXtXtXtXtXtXtX",
"tXtXtXtXtXtXtXtXtXtXtXtXtXtXa.p.a i tXtXtXtXtXtXtXtXtXtXtXtXtXtX",
"tXtXtXtXtXtXtXtXtXtXtXtXtXtXtXtXtXtXtXtXtXtXtXtXtXtXtXtXtXtXtXtX"
};
