/* XPM */
static char *knewsticker[] = {
/* columns rows colors chars-per-pixel */
"32 32 39 1",
"  c #000000",
". c #0A0A0A",
"X c gray8",
"o c #1A1A1A",
"O c #232323",
"+ c #2C2C2C",
"@ c #333333",
"# c #3C3C3C",
"$ c #444444",
"% c #4C4C4C",
"& c #545353",
"* c #5A5A5A",
"= c #605E5E",
"- c #646262",
"; c #686666",
": c #6B6A6A",
"> c #706F6F",
", c #737272",
"< c #787777",
"1 c #7C7C7C",
"2 c #838383",
"3 c #888787",
"4 c #8B8B8B",
"5 c #908F8F",
"6 c #939393",
"7 c #9C9C9C",
"8 c #A3A3A3",
"9 c #ABABAB",
"0 c #B3B3B3",
"q c #BCBCBC",
"w c #C3C3C3",
"e c #CBCBCB",
"r c #D3D3D3",
"t c #DBDBDB",
"y c #E3E3E3",
"u c #EBEBEB",
"i c #F3F3F3",
"p c #FDFDFD",
"a c None",
/* pixels */
"aaaaaaaaaaaaaaaa   oO%OaaaX aaaa",
"aaaaaaaaa.O+%&<260qrte*@-49@ +.a",
"aOO@%%&:7qryupppppppp91eppq1q9oa",
"a4yuippppppppuuuyyr9w917rt94e4.a",
".6yiuprr087w1q:7r6462q32et0202 a",
" ,qq@97q>&79&34&t7&4ww619tq204.a",
"a&0t*+0w0$quq$9O404.:r717rw196oa",
"a+7t0%@9y@*yp**&O7u2.2q22ee297+ ",
"aX4eqq$%u%<tpqo9O2re7&q42we280# ",
"aa:qrqr@e,;e0p*w76r>72w41qe480% ",
"aa%0e4u098;49pryuruw8ew42qe470& ",
"aa+7rtupipiippppppuuytq22we570& ",
"aaX4eipppppppppppiuutt024we660* ",
"aa ,quppppppppppiiuytr917ee640& ",
"aaa*0yipppppppppiiuttr719ew640* ",
"aaa*qyipppppppppiuyyte710ew649& ",
"aaa,ryiipppppppiiuytrw53qew639% ",
"aa.6tyiiiippppiiuyttrq26qwq639$ ",
"aao9tyuiiiipiiiuuytrr917wqq529$ ",
"aa#wytyuuuuiiuuyytree918wq0627@ ",
"aa*ttttyuyuuuyyytrrww719w00527+ ",
"a 2trrttyyyyyyttrrewq729009426O ",
"ao9terrttttttttreewwq619099214X ",
"a#wrqwwwwwwewwwqq099q628098221.a",
"a*r07777777777766654971898712: a",
"a:9523333343432222117916977,4& a",
"a%6<<<<<<<<<<<,,,>,:2922774:2@ a",
"ao1:-;::;::::::;;;;;:771771,,. a",
"aa@>:----;---------=-,7214:<+ aa",
"aa o####$$%%%&&&&*&***:2,*%O  aa",
"aaaa         ..  .....XXX.   aaa",
"aaaaaaaaaaaaaaaaaaaa       aaaaa"
};
