/* XPM */
static char *kopete[] = {
/* columns rows colors chars-per-pixel */
"32 32 257 2",
"   c #000000",
".  c #050409",
"X  c #08070D",
"o  c #0C0C18",
"O  c #100F1E",
"+  c #151429",
"@  c #1E1C37",
"#  c #0C1E42",
"$  c #00146F",
"%  c #001A78",
"&  c #1E265F",
"*  c #1E2146",
"=  c #062476",
"-  c #252448",
";  c #2C2B57",
":  c #312D5C",
">  c #31305F",
",  c #2C346E",
"<  c #322F63",
"1  c #37356B",
"2  c #3A3A76",
"3  c #393570",
"4  c #3F407F",
"5  c #021B86",
"6  c #092792",
"7  c #132D96",
"8  c #112F8B",
"9  c #1230A9",
"0  c #3E3F82",
"q  c #2B3791",
"w  c #1A3AC1",
"e  c #1E43A2",
"r  c #2B4589",
"t  c #274897",
"y  c #315093",
"u  c #3C58A3",
"i  c #3757BA",
"p  c #2D4CB0",
"a  c #3B7F9E",
"s  c #3466BA",
"d  c #367AB4",
"f  c #366DAE",
"g  c #1D73CD",
"h  c #176DD0",
"j  c #0C6CF8",
"k  c #0567F8",
"l  c #017DFE",
"z  c #0676F6",
"x  c #156DFA",
"c  c #1A71F8",
"v  c #1B7CFA",
"b  c #1671F7",
"n  c #067BE5",
"m  c #2645CA",
"M  c #2E5BC2",
"N  c #374BCB",
"B  c #385BC7",
"V  c #3B56D3",
"C  c #3257D4",
"Z  c #2C67C8",
"A  c #3366CD",
"S  c #3565C6",
"D  c #3567D5",
"F  c #3A75CD",
"G  c #3C77C7",
"H  c #3976DF",
"J  c #3674D3",
"K  c #2E68DE",
"L  c #2E65E5",
"P  c #2375F6",
"I  c #2478F5",
"U  c #2C7BF5",
"Y  c #2579F9",
"T  c #3268E6",
"R  c #3874E2",
"E  c #3D7AE0",
"W  c #357CF6",
"Q  c #45458B",
"!  c #424185",
"~  c #4B4C99",
"^  c #4C4DA4",
"/  c #4E51A9",
"(  c #4E53B4",
")  c #4B54BC",
"_  c #534EA6",
"`  c #5351A6",
"'  c #5958A6",
"]  c #5858B2",
"[  c #5B5EBD",
"{  c #5259B7",
"}  c #456799",
"|  c #4E76B0",
" . c #6C5C9B",
".. c #747F8F",
"X. c #706298",
"o. c #6473B0",
"O. c #444FC0",
"+. c #4659C8",
"@. c #545AC3",
"#. c #4455D0",
"$. c #446BC9",
"%. c #4668CA",
"&. c #4863DB",
"*. c #4765D6",
"=. c #4673D5",
"-. c #5363C5",
";. c #5365D4",
":. c #5176C9",
">. c #407EE7",
",. c #6563D4",
"<. c #6363C7",
"1. c #30A168",
"2. c #0CC909",
"3. c #15D403",
"4. c #18D317",
"5. c #0CD008",
"6. c #0FE108",
"7. c #23D31C",
"8. c #23CB13",
"9. c #34CC31",
"0. c #26C635",
"q. c #2FE12A",
"w. c #41B858",
"e. c #65F265",
"r. c #79EE77",
"t. c #36898A",
"y. c #0488FE",
"u. c #1884FB",
"i. c #1690FF",
"p. c #0A8CF3",
"a. c #2A88FC",
"s. c #3786F9",
"d. c #3B90FB",
"f. c #318FED",
"g. c #3CA6FE",
"h. c #5E83AF",
"j. c #4580AC",
"k. c #5AB083",
"l. c #79849A",
"z. c #7788A7",
"x. c #648CBA",
"c. c #67BD8C",
"v. c #4C80C7",
"b. c #4785D7",
"n. c #578CD1",
"m. c #4E8CE2",
"M. c #4181E1",
"N. c #438CF9",
"B. c #498FF7",
"V. c #4E9FEC",
"C. c #4394FD",
"Z. c #4D92F9",
"A. c #4899FA",
"S. c #508DE2",
"D. c #5692E3",
"F. c #5498FA",
"G. c #5B9CFA",
"H. c #5794F5",
"J. c #4AA7FE",
"K. c #54A1FC",
"L. c #5CA8FC",
"P. c #57A4ED",
"I. c #6394CF",
"U. c #649FF9",
"Y. c #72A4DB",
"T. c #69A4E5",
"R. c #63A1FA",
"E. c #6CABFB",
"W. c #65A8F8",
"Q. c #65B1FB",
"!. c #73AAE6",
"~. c #75ABFA",
"^. c #7AB2FA",
"/. c #6DC2FF",
"(. c #7BC3FE",
"). c #8E5876",
"_. c #9E6D78",
"`. c #A56171",
"'. c #CF5F2C",
"]. c #DB532E",
"[. c #FD4D00",
"{. c #FE5003",
"}. c #FD5708",
"|. c #E65510",
" X c #FE6817",
".X c #FF6B0A",
"XX c #EF752F",
"oX c #8D8777",
"OX c #B08F6C",
"+X c #DFB01B",
"@X c #D8AC2D",
"#X c #FC873A",
"$X c #FDAA00",
"%X c #FDB200",
"&X c #FEBC00",
"*X c #FFB708",
"=X c #FFB71E",
"-X c #F1B435",
";X c #C19D51",
":X c #C3AB71",
">X c #FF9C4A",
",X c #FDAA4B",
"<X c #FFBC7C",
"1X c #FFC300",
"2X c #FEC91B",
"3X c #F7C92E",
"4X c #FDC155",
"5X c #FFCD6C",
"6X c #FEDB7A",
"7X c #FDDA64",
"8X c #FFE050",
"9X c #A49C84",
"0X c #81ABDA",
"qX c #82B4FA",
"wX c #8CBAFB",
"eX c #84BDF8",
"rX c #93BAF8",
"tX c #8FBDE9",
"yX c #94F888",
"uX c #8CEC86",
"iX c #AFFCAC",
"pX c #87CF94",
"aX c #89C5FB",
"sX c #96C2EB",
"dX c #95C2FC",
"fX c #9BC3FB",
"gX c #9CCAFD",
"hX c #97C6F7",
"jX c #98D7FF",
"kX c #ABCCFB",
"lX c #A2CCFB",
"zX c #AFD3FD",
"xX c #B4D4FB",
"cX c #B8D5FC",
"vX c #BDDBFB",
"bX c #B2D9FA",
"nX c #B1CEFA",
"mX c #C09081",
"MX c #FDB789",
"NX c #FDC98E",
"BX c #FED9AB",
"VX c #FEE8AB",
"CX c #FEE4B7",
"ZX c #C2DCFA",
"AX c #C7DDF4",
"SX c #D0FFCA",
"DX c #C8E2F9",
"FX c #D5E7F9",
"GX c #D7EBF6",
"HX c #E3FFDF",
"JX c #FFEBC6",
"KX c #FFF8D5",
"LX c #FFF4CB",
"PX c #EBFFE6",
"IX c #FFFFFE",
"UX c #F6FBFF",
"YX c None",
/* pixels */
"YXYXZ | ..o.S t YXYXYXYXYXYXYXYXYXYXYXYXYXYXYXYXM S ' X.{ i & YX",
"YXA 9XCXKXVX:X:.r YXYXYXYXYXYXYXYXYXYXYXYXYXYXC ) mXJXJXNX_.D * ",
"M oXVXLXCXVX6X;XT + YXYXYXYXYXYXYXYXYXYXYXYXYXT OXKXJXBXNX>X).i ",
"$.-X5X4X,X=X=X$Xo.3 YXYXYXYXYXYXYXYXYXYXYXYXYX;.>XMX>X>X#X.X|.@.",
":.$X*X%X&X%X&X&Xz.2 YXYXYXYXYXYXYXYXYXYXYXYX   ..X X}.[.[.{.}.-.",
"s @X1X2X7X6X2X&X:.2 YXYXYXYXYXYXYXYXYXYXYXYX. ;.{.{. XMXBXXX].+.",
"u l.1XKXIXUX8XOX*.< YXYXYXYXYXYXYXYXYXYXYXYXYXD `.{.JXUXIX#X .[ ",
"* #.l.@X3X+XoX$._ YXYXYXYXYXYXYXYXYXYXYXYXYXYX< V ).XX#X'. .;.Q ",
"YX> @.D *.*.+.s J J H H R R R H R E E E H >.f.=.F S *.&.&.;.~ YX",
"YXYX+ 2 3 i sXDXZXDXvXbXlXaXaX^.E.Q.W.W.L.L.G.A.d.f > 1 2 ; YXYX",
"YXYXYXYXYXS.GXGXGXDXvXxXfX^.R.G.Z.^.s.d.B.B.N.N.C.q O.X YXYXYXYX",
"YXYXYXYXYXS.DXDXAXAXvXnXrXqX~.R.F.kXFXZ.Z.Z.Z.F.A.8 @.X YXYXYXYX",
"YXYXYXYXYXS.DXvXAXcXxXlXrX^.E.R.F.Z.kXfXF.G.G.G.b.9 { YXYXYXYXYX",
"YXYXYXYXYXm.vXcXcXxXkXdXIXGXE.R.U.U.^.FXU c c x s p ! YXYXYXYXYX",
"YXYXYXYXYXm.xXzXnXkXfXwXcXfX^.^.W.s.U cXk j j u.t V < YXYXYXYXYX",
"YXYXYXYXYXm.gXfXfXfXhXrXwXwXqXN.j j R.wXj b c d.7 +.+ YXYXYXYXYX",
"YXYXYXYXYXS.fXrXfXlXlXrXcXwXc b c j DXU c c c B.8 { . YXYXYXYXYX",
"YXYXYXYXYXD.lXkXnXrX~.B.IXrXc v Y kXU.P P P Y b.9 / YXYXYXYXYXYX",
"YXYXYXYXYXV.B.U P P W P nXZ.v v ^.N.c W W s.C.f N 4 YXYXYXYXYXYX",
"YXYXYXYXYXP.T.H.H.H.H.H.qXf.a.i.i.J.E.T.n.| r % #.- YXYXYXYXYXYX",
"YXYXYXYXYXW.hXrXrXrXfXgXqXT.Q.y.i.| $ % 6 9 m C ( O YXYXYXYXYXYX",
"YXYXYXYXYXb.tX0Xz.} r = $ 5 n.g.a.!.m O.) / Q 2 @ YXYXYXYXYXYXYX",
"YXYXR L C e & 5 9 w m V #.) u Y.(.gXsXZ # YXYXYXYXW T T D s.YXYX",
"YXT d k.pXc.f i ( ^ ! 1 @ o ; q } 0XDXDXD.H YXYXT Z I.Y.v.D A YX",
"D d uXPXPXHXyXt.i YXYXYXYXYXYX! ) q 8 y h.s A K F DXUXGXbXf.F t ",
"A w.yXuXr.r.e.9.=.3 YXYXYXYXYXYX; ^ @.#.p q , S Y.ZXdXE.A.a.h %.",
"G 7.q.7.4.4.7.3.j.` YXYXYXYXYXYXYXYXO < Q ] ( S A.G.a.u.l y.n $.",
"F 8.2.2.4.4.5.3.:.` YXYXYXYXYXYXYXYXYXYXYXYX  F z y.l y.g.i.n %.",
"i 1.6.iXIXIXe.0.;./ YXYXYXYXYXYXYXYXYXYXYXYX. =.h y.J.IXIXjXg -.",
", =.0.yXSXiX0.| ,.! YXYXYXYXYXYXYXYXYXYXYXYXYX( F p./.GXaXg %.{ ",
"YX/ #.| 1.1.$.,.] + YXYXYXYXYXYXYXYXYXYXYXYXYX; [ %.Z h s ;.-.2 ",
"YXYXQ @.@.[ [ ~ @ YXYXYXYXYXYXYXYXYXYXYXYXYXYXYX> ` [ [ [ ] 2 YX"
};
