/* XPM */
static char *kppp[] = {
/* columns rows colors chars-per-pixel */
"32 32 257 2",
"   c #000000",
".  c #00000B",
"X  c #0C0C0E",
"o  c #000017",
"O  c #000618",
"+  c #090C17",
"@  c #121217",
"#  c #12141A",
"$  c #000023",
"%  c #010A26",
"&  c #00092D",
"*  c #010D30",
"=  c #03102E",
"-  c #071437",
";  c #091638",
":  c #0A193F",
">  c #07163C",
",  c #1F1F2A",
"<  c #1B1E24",
"1  c #1F212C",
"2  c #1D2539",
"3  c #2A2D38",
"4  c #2C313C",
"5  c #051741",
"6  c #00154B",
"7  c #0B1941",
"8  c #0A1D4B",
"9  c #081D55",
"0  c #001E66",
"q  c #09215E",
"w  c #13224E",
"e  c #122556",
"r  c #05226A",
"t  c #0A256B",
"y  c #022374",
"u  c #052877",
"i  c #07287A",
"p  c #0C2D7C",
"a  c #0F2B72",
"s  c #122E74",
"d  c #1C3064",
"f  c #11317E",
"g  c #1A3372",
"h  c #1A367B",
"j  c #373945",
"k  c #25386B",
"l  c #233B7B",
"z  c #283D7A",
"x  c #3A4252",
"c  c #444C5C",
"v  c #4B505E",
"b  c #4A5364",
"n  c #4C5769",
"m  c #555A69",
"M  c #5A6679",
"N  c #0F2F80",
"B  c #0F3186",
"V  c #133280",
"C  c #183784",
"Z  c #1C3A85",
"A  c #1E3E8A",
"S  c #213E88",
"D  c #283F80",
"F  c #274287",
"G  c #25418A",
"H  c #2D4584",
"J  c #29448C",
"K  c #2E4A8F",
"L  c #2E4990",
"P  c #2A4693",
"I  c #344B8D",
"U  c #384F8D",
"Y  c #3D4F85",
"T  c #334D92",
"R  c #375094",
"E  c #3A5293",
"W  c #3B5698",
"Q  c #3D57A1",
"!  c #465887",
"~  c #415490",
"^  c #405894",
"/  c #455C9B",
"(  c #485F9E",
")  c #465DA1",
"_  c #4B629D",
"`  c #43629A",
"'  c #576588",
"]  c #53669A",
"[  c #546997",
"{  c #4D62A1",
"}  c #4B62A8",
"|  c #5066A2",
" . c #596FA6",
".. c #596DAA",
"X. c #5468A7",
"o. c #566AB0",
"O. c #596EB2",
"+. c #5C75A7",
"@. c #66758C",
"#. c #64719A",
"$. c #7E7E96",
"%. c #787F99",
"&. c #6174A4",
"*. c #6174AC",
"=. c #657AAD",
"-. c #6171B0",
";. c #6B7CB1",
":. c #36AB39",
">. c #5B997B",
",. c #629C74",
"<. c #658D8C",
"1. c #6E829D",
"2. c #6E84A3",
"3. c #6F81B4",
"4. c #758BAB",
"5. c #7883AF",
"6. c #7C88A6",
"7. c #7A8DAA",
"8. c #7689A2",
"9. c #7282B3",
"0. c #7584BD",
"q. c #7987B9",
"w. c #7A8BB4",
"e. c #7C89BC",
"r. c #7C91AA",
"t. c #7C96B3",
"y. c #7F97B8",
"u. c #7F9AB7",
"i. c #7596B5",
"p. c #77BE85",
"a. c #7181C1",
"s. c #7887C4",
"d. c #7888C6",
"f. c #7F8CC8",
"g. c #7CC385",
"h. c #BA434E",
"j. c #BB5760",
"k. c #BD5F66",
"l. c #A66774",
"z. c #AD6A76",
"x. c #B86169",
"c. c #DA2628",
"v. c #DA2526",
"b. c #C33D45",
"n. c #C05159",
"m. c #D57277",
"M. c #DD7174",
"N. c #E35F5F",
"B. c #E36666",
"V. c #9C7180",
"C. c #957486",
"Z. c #907F94",
"A. c #88909F",
"S. c #91879E",
"D. c #94899B",
"F. c #8E8EA3",
"G. c #818EBE",
"H. c #8094AA",
"J. c #809AAD",
"K. c #8C96AC",
"L. c #8F9BAE",
"P. c #8190BC",
"I. c #829BB5",
"U. c #849DBA",
"Y. c #8A9DB3",
"T. c #8C9CBA",
"R. c #8692B8",
"E. c #919CB7",
"W. c #929FBE",
"Q. c #8CA2BB",
"!. c #86A1BD",
"~. c #97A0AF",
"^. c #93A1B5",
"/. c #94A5BA",
"(. c #94A8BD",
"). c #9AA3B2",
"_. c #99AABA",
"`. c #A1A8B5",
"'. c #A1A9BD",
"]. c #A4B1BF",
"[. c #BBAEBC",
"{. c #8492C2",
"}. c #8B95C9",
"|. c #8E98CB",
" X c #8B9BC1",
".X c #919DC5",
"XX c #939CCB",
"oX c #8BA5C4",
"OX c #8AA9C5",
"+X c #92A2C3",
"@X c #96A0CB",
"#X c #94AAC2",
"$X c #98A2CC",
"%X c #9AAEC3",
"&X c #9AA3D1",
"*X c #9DAAD1",
"=X c #9CB0C5",
"-X c #9BB1C9",
";X c #A3ADC7",
":X c #A3ACCB",
">X c #A4ACD4",
",X c #A5B3C2",
"<X c #A2B5CA",
"1X c #A6B8CD",
"2X c #ABB5CF",
"3X c #AFBAC6",
"4X c #AABACC",
"5X c #A7B0D9",
"6X c #AAB3D2",
"7X c #ACB4D9",
"8X c #ABBDD1",
"9X c #B0B6CA",
"0X c #B2BAD4",
"qX c #B8BED2",
"wX c #B8BFDF",
"eX c #B2BFDB",
"rX c #AEC3D7",
"tX c #B3C3D3",
"yX c #BAC3D3",
"uX c #BDC2DF",
"iX c #B9C8D6",
"pX c #BCCAD8",
"aX c #ACC9E0",
"sX c #BFC6E2",
"dX c #B1C4E0",
"fX c #CE969E",
"gX c #CE9CA5",
"hX c #C5C9D7",
"jX c #C5CCDC",
"kX c #C8CDDF",
"lX c #C5D2DE",
"zX c #C1C6E1",
"xX c #C4CAE1",
"cX c #C8CDE4",
"vX c #CACFEA",
"bX c #C6D3E0",
"nX c #CBD3E4",
"mX c #CED2E8",
"MX c #CEDAE5",
"NX c #D0D5E5",
"BX c #D2D6E9",
"VX c #D4DBE6",
"CX c #D6DAEB",
"ZX c #DADDEC",
"AX c #DCDFF1",
"SX c #DCE1EC",
"DX c #DEE1F0",
"FX c #E0E3ED",
"GX c #E3E5F1",
"HX c #E6E8F3",
"JX c #EAECF5",
"KX c #E8ECFA",
"LX c #EEF0F6",
"PX c #F1F2F7",
"IX c #F3F4FA",
"UX c #FBFBFE",
"YX c None",
/* pixels */
"YXYXYXYXYXYXYXYXYXYXYX0 u C F E K h 9 $ YXYXYXYXYXYXYXYXYXYXYXYX",
"YXYXYXYXYXYXYXYXYX6 s +.2XZXPXIXPXJXuXy.k o YXYXYXYXYXYXYXYXYXYX",
"YXYXYXYXYXYXYXYX6 / cXUXUXIXLXPXIXUXUXUXKXe.- YXYXYXYXYXYXYXYXYX",
"YXYXYXYXYXYXYX&  .HXIXJXHXFXFXJXLXJXJXJXLXIX*X7 YXYXYXYXYXYXYXYX",
"YXYXYXYXYXYX% ) AXHXNXhXyXqXyXFXJXGXHXGXFXGXKX{.* YXYXYXYXYXYXYX",
"YXYXYXYXYX  h 5XnX9X'.'.;X:X2XZXVXZXZXNXCXCXCXvXE . YXYXYXYXYXYX",
"YXYXYXYXYX5 ..*XE.K.T..XT..XcXZXjXkXqXkXCXBXvXcXs.8   YXYXYXYXYX",
"YXYXYXYX  l X.&.6.w.e.w.+XNXHXGXHXFXZXZXBXmXcXhX}.I   YXYXYXYXYX",
"YXYXYXYXO ) S g &.=.=.*.0XPXHXHXHXGXAXCXvXjXcX7X}...% YXYXYXYXYX",
"YXYXYXYX* } ;.~ ~ | | _ =.CXUXUXLXHXDXCXvX0X6X5.{.a.: YXYXYXYXYX",
"YXYXYXYX7 a.XX*X@X[ H W T  .W.T.HXLXDXCXmXhX.X] T O.w   YXYXYXYX",
"YXYXYXYX7 d.}.$X5X:X' h S Z f h qXIXAXBXvXXXz Y -.Q 8   YXYXYXYX",
"YXYXYXYX; 0.|.XX>XwX#.t p f f y R.IXCXvXzXU a U T V 5   YXYXYXYX",
"YXYXYXYX+ O.XXXX7XR.q p p p p y ;.JXCXxX;.r d 9...P & YXYXYXYXYX",
"YXYXYXYX  ~ |.XX#.H i p p p p u J cXCXXXF r e .X&XE . YXYXYXYXYX",
"YXYXYXYXYXw f.0.9 u f p f f C C f ;.R.S r T D ;.s.g   YXYXYXYXYX",
"YXYXYXYXYX2 X...g a V C S S J P S S C V p J J Z A ! . YXYXYXYXYX",
"YXYXYXYXYXc +.{ L F J J T E E ~ E E L J S A S i ` 8.X YXYXYXYXYX",
"YXYXYXYXYXn !.` Z T ( ( ) { | | { _ ( / / T f ^ Q.r.# YXYXYXYXYX",
"YXYXYXYX  ' I.r.] T (  .=.;.;.;.;.;.*.../ J ] ,X_.u.1 YXYXYXYXYX",
"YXYXYXYX  @.U.r.J.2.X.*.0.e.{.{.G.q.;.| _ 4.,X3X%XU.4 YXYXYXYXYX",
"YXYXYXYXX %.!.t.r.J.H.w.w.w.e.e.e.q.9.7./.,X,XyX4XU.x   YXYXYXYX",
"YXYXYXYX@ 7.oXU.Q.U.Y.L.Y.Y.Y.Y.E.^._.].,X4XtXpXtXoXb   YXYXYXYX",
"YXYXYXYX, Q.(.(.#X#X%X(.(.=X(.].,X<X4XtXqXtXiXiXiX-XM   YXYXYXYX",
"YXYXYXYX3 #X#X#X#X#X-X=X=X-X4X4X1XrX4XtXtXtXiXpXiX1X@.  YXYXYXYX",
"YXYXYXYXj jXbXbXbXpXbXlXMXMXlXMXlXVXMXSXVXVXSXSXSXMXK.  YXYXYXYX",
"YXYXYXYXb 1X-X(.(.-X^.=X(./.-X~.].=XQ.(.=X=X%X%X%X-XY.X YXYXYXYX",
"YXYXYXYXc u.i.l.l.%.k.1.z.C.1.x.4.4.,.<.t.t.t.u.t.u.1.@ YXYXYXYX",
"YXYXYXYXb OXS.v.D.h.n.D.v.F.b.j.OX>.:.u.U.U.U.U.U.Q.7.# YXYXYXYX",
"YXYXYXYXm aXgXM.iXB.[.fXm.iXN.[.rXg.p.rX8X8X8X8X8XrX^.@ YXYXYXYX",
"YXYXYXYX1 F.`.).).`.).).).).`.).).`.).).).).).).).).m   YXYXYXYX",
"YXYXYXYX      .     .   .   .     .       .     .       YXYXYXYX"
};
