/* XPM */
static char *kppp-16[] = {
/* columns rows colors chars-per-pixel */
"16 16 181 2",
"   c black",
".  c #000005",
"X  c #060606",
"o  c #00000A",
"O  c #00081C",
"+  c #030A1F",
"@  c #0F0F17",
"#  c #1B1B1E",
"$  c #000024",
"%  c #07112D",
"&  c #0D1123",
"*  c #09122F",
"=  c #181E26",
"-  c #1A1D27",
";  c #121A35",
":  c #19233E",
">  c #2D2F35",
",  c #282F3C",
"<  c #2D343E",
"1  c #042678",
"2  c #062778",
"3  c #08297A",
"4  c #09297A",
"5  c #0F2E7E",
"6  c #112E74",
"7  c #333B55",
"8  c #273767",
"9  c #273F7D",
"0  c #394353",
"q  c #27407E",
"w  c #394670",
"e  c #424752",
"r  c #47515F",
"t  c #50555E",
"y  c #53555D",
"u  c #52575E",
"i  c #53565F",
"p  c #55555D",
"a  c #55575D",
"s  c #50585D",
"d  c #404E7E",
"f  c #4C5563",
"g  c #4D5868",
"h  c #595961",
"j  c #1B3780",
"k  c #1E3B86",
"l  c #1E3B87",
"z  c #1F3C87",
"x  c #1C3B89",
"c  c #2A458D",
"v  c #2C478F",
"b  c #304582",
"n  c #314784",
"m  c #304A90",
"M  c #344E93",
"N  c #344F92",
"B  c #39508B",
"V  c #3C5595",
"C  c #3F579B",
"Z  c #435A89",
"A  c #485683",
"S  c #445B9D",
"D  c #465D9D",
"F  c #495E9E",
"G  c #4F6199",
"H  c #516094",
"J  c #50659A",
"K  c #53659B",
"L  c #57679F",
"P  c #56689C",
"I  c #546C9F",
"U  c #5A6A92",
"Y  c #4E63A1",
"T  c #5166A1",
"R  c #556CA5",
"E  c #5C6FA9",
"W  c #5D70A9",
"Q  c #5F74AA",
"!  c #6C7485",
"~  c #65749E",
"^  c #6A7B91",
"/  c #6376A7",
"(  c #6174AB",
")  c #6C7FA9",
"_  c #6E7FAE",
"`  c #6477B2",
"'  c #6D7BB6",
"]  c #728399",
"[  c #6F81B3",
"{  c #7088AC",
"}  c #798EA9",
"|  c #7D8EAF",
" . c #7B88B8",
".. c #7C89BA",
"X. c #7C88BE",
"o. c #7EB69A",
"O. c #7CA2A1",
"+. c #C27A86",
"@. c #C37E8F",
"#. c #C47E8A",
"$. c #988B9F",
"%. c #9A899C",
"&. c #9D8B9E",
"*. c #808CBD",
"=. c #808FBD",
"-. c #8195AD",
";. c #8191B8",
":. c #8995B4",
">. c #8A95BE",
",. c #9D8EA1",
"<. c #9D99AE",
"1. c #8DA0B2",
"2. c #88A0BB",
"3. c #8DA3BD",
"4. c #8DA4BC",
"5. c #8FA5BF",
"6. c #8AB4A9",
"7. c #90A2BA",
"8. c #90A4B9",
"9. c #93A4BC",
"0. c #93A8BF",
"q. c #99A9BF",
"w. c #8E9EC4",
"e. c #96A4C6",
"r. c #92ABC6",
"t. c #97AEC8",
"y. c #9AA3D4",
"u. c #9CA5D7",
"i. c #9EB4CD",
"p. c #A0A7CC",
"a. c #A7AFD2",
"s. c #A3B2C4",
"d. c #A4B7CD",
"f. c #A8B2CF",
"g. c #ACB5CB",
"h. c #AFBCCA",
"j. c #A0B3D1",
"k. c #A6B1D0",
"l. c #A5BCD7",
"z. c #AFB9D5",
"x. c #B1BFCE",
"c. c #B6BCDB",
"v. c #ABC1D4",
"b. c #AEC4D6",
"n. c #B3C8D8",
"m. c #B3C8DC",
"M. c #B6CADA",
"N. c #BCCAD9",
"B. c #BECBDA",
"V. c #BBC3E3",
"C. c #C3818D",
"Z. c #C68D9B",
"A. c #C0C5D4",
"S. c #C3CEDF",
"D. c #C5D1DF",
"F. c #C6CDE2",
"G. c #C9CDE3",
"H. c #C8CEE0",
"J. c #C4D1E1",
"K. c #CBD6E2",
"L. c #CED3E3",
"P. c #CFD3EE",
"I. c #CFD5E9",
"U. c #D3D7EA",
"Y. c #D5D8E7",
"T. c #D8DCE9",
"R. c #DADDEC",
"E. c #DCDFED",
"W. c #DCE0EF",
"Q. c #E1E3EF",
"!. c #E1E3F2",
"~. c #E1E3F3",
"^. c #E1E5F3",
"/. c #E8EAF7",
"(. c #EAECF5",
"). c #F3F2F9",
"_. c #F5F5F8",
"`. c #F6F7FA",
"'. c #F9FAFF",
"]. c gray100",
"[. c None",
/* pixels */
"[.[.[.[.$ 9 [ e.w.U & [.[.[.[.[.",
"[.[.[.o ~ Q._.`.].'.F.7 [.[.[.[.",
"[.[.  A U.N.g.H.Q.R./.V.; [.[.[.",
"[.[.* ` :.;.k.R.Y.L.U.U.H   [.[.",
"[.[.8 D J R z.).(.W.G.k.' $ [.[.",
"[.[.d y.>.B N / T.~.c.J S % [.[.",
"[.[.w u.p.9 1 1 k.~.P n C O [.[.",
"[.[.: X.n 3 5 3 ( =.6 G P X [.[.",
"[.[.- I 9 k c m v k k x Z X [.[.",
"[.[.< { M F E ( E Y N I -.@ [.[.",
"[.[.0 >.} )  .=..._ | h.0.- [.[.",
"[.[.g r.3.3.4.9.q.s.x.B.d., [.[.",
"[.[.! m.v.b.n.M.B.D.D.K.J.e [.[.",
"[.[.^ <.%.&.$.&.1.O.4.w.t.r [.[.",
"[.[.] Z.+.C.#.@.6.o.i.i.l.f [.[.",
"[.[.> h a y a i s s i i i # [.[."
};
