/* XPM */
static char *krdc[] = {
/* columns rows colors chars-per-pixel */
"32 32 246 2",
"   c #000000",
".  c #07070D",
"X  c #08080E",
"o  c #0B0B14",
"O  c #0F0F1D",
"+  c #111116",
"@  c #11111B",
"#  c #141423",
"$  c #18172F",
"%  c #1A1A23",
"&  c #19192C",
"*  c #1D1D36",
"=  c #1F1F38",
"-  c #23232B",
";  c #28282D",
":  c #26263C",
">  c #232346",
",  c #2E2E40",
"<  c #2D2D4B",
"1  c #353543",
"2  c #36364E",
"3  c #353652",
"4  c #36365F",
"5  c #3A3A5B",
"6  c #3F3E73",
"7  c #414050",
"8  c #43435D",
"9  c #494954",
"0  c #4B4B58",
"q  c #51515C",
"w  c #474766",
"e  c #41416B",
"r  c #4A4A63",
"t  c #4A4A68",
"y  c #454572",
"u  c #48497F",
"i  c #5D5D6A",
"p  c #565673",
"a  c #595974",
"s  c #626270",
"d  c #67677B",
"f  c #0660E9",
"g  c #0E66E9",
"h  c #0E6AE9",
"j  c #136CEB",
"k  c #116EF0",
"l  c #1672EB",
"z  c #1A76EC",
"x  c #1C79EB",
"c  c #1576F5",
"v  c #1875F1",
"b  c #1C7CF3",
"n  c #1B7EFC",
"m  c #227DEC",
"M  c #3B7FEC",
"N  c #474685",
"B  c #555789",
"V  c #585889",
"C  c #5C5B93",
"Z  c #5B5C9C",
"A  c #5F6089",
"S  c #606083",
"D  c #6B6B8A",
"F  c #666692",
"G  c #61629B",
"H  c #6C6C98",
"J  c #727281",
"K  c #70708A",
"L  c #757490",
"P  c #71719C",
"I  c #797995",
"U  c #7F7E9F",
"Y  c #6668A8",
"T  c #767AAE",
"R  c #7D7CA6",
"E  c #7C7EB5",
"W  c #1D82FD",
"Q  c #2280EE",
"!  c #2283F2",
"~  c #2184FA",
"^  c #2689F6",
"/  c #238AFC",
"(  c #298CF5",
")  c #288DFB",
"_  c #2490FE",
"`  c #2D92F7",
"'  c #2D94FB",
"]  c #3788EC",
"[  c #3E83ED",
"{  c #3284F5",
"}  c #388AF5",
"|  c #3096F7",
" . c #329CFD",
".. c #36A2FF",
"X. c #3BA5FC",
"o. c #3DAAFE",
"O. c #4B8AEE",
"+. c #4592EF",
"@. c #4498F2",
"#. c #4D94F7",
"$. c #5894E8",
"%. c #41AFFE",
"&. c #4BA6FE",
"*. c #44B2FF",
"=. c #48B6FF",
"-. c #4BBAFF",
";. c #5FA6F7",
":. c #50BEFF",
">. c #609AF0",
",. c #6AAAE7",
"<. c #61B2EC",
"1. c #6AB8FD",
"2. c #70A3F2",
"3. c #7DA9F1",
"4. c #7DBCFE",
"5. c #53C2FF",
"6. c #5AC3FB",
"7. c #59CAFF",
"8. c #5ED0FF",
"9. c #62D4FF",
"0. c #67D8FF",
"q. c #6CD7FC",
"w. c #6AD9FF",
"e. c #73DBFF",
"r. c #7CDBFC",
"t. c #86869C",
"y. c #88889C",
"u. c #8181A5",
"i. c #8585A9",
"p. c #8988AB",
"a. c #8585B4",
"s. c #8C8CB4",
"d. c #9393B5",
"f. c #9696BD",
"g. c #9A99B0",
"h. c #9B9BBD",
"j. c #8387C9",
"k. c #8B8FC7",
"l. c #8D91CA",
"z. c #9395C5",
"x. c #9195CB",
"c. c #9798CB",
"v. c #9E9EC5",
"b. c #9D9ECC",
"n. c #969BD4",
"m. c #989CD4",
"M. c #9EA1D3",
"N. c #9CA2D9",
"B. c #80AFEA",
"V. c #80AAF1",
"C. c #8ABDE8",
"Z. c #88B4F4",
"A. c #94A7E0",
"S. c #95B4EB",
"D. c #9DBCEA",
"F. c #96B8F3",
"G. c #A09FC9",
"H. c #A4A3C4",
"J. c #A9A8C4",
"K. c #ABABCC",
"L. c #A1A7D7",
"P. c #A4AADA",
"I. c #ACADD4",
"U. c #A9AEDC",
"Y. c #A5B5DF",
"T. c #ABB1DD",
"R. c #B0B0C8",
"E. c #B4B4D5",
"W. c #B3B5DA",
"Q. c #B7B9DD",
"!. c #BABAD4",
"~. c #BCBEDD",
"^. c #A0A8E2",
"/. c #ACB5E3",
"(. c #AEBAE7",
"). c #AEBBEB",
"_. c #A6BDF0",
"`. c #B2B7E4",
"'. c #B3BAE3",
"]. c #B8BEE5",
"[. c #84C0E9",
"{. c #83CCF3",
"}. c #81DFFF",
"|. c #8FDAF7",
" X c #9BCDF0",
".X c #9FCFF9",
"XX c #91D8F7",
"oX c #8BE1FF",
"OX c #92E4FF",
"+X c #9FE5FE",
"@X c #A6C3E6",
"#X c #AAC0E3",
"$X c #A8C7F6",
"%X c #A2D0EF",
"&X c #B1CEED",
"*X c #BFC0E1",
"=X c #BDC3EC",
"-X c #B7C1F3",
";X c #BBC5F3",
":X c #BCD1F2",
">X c #BBD9F7",
",X c #A9EAFE",
"<X c #C7C3D7",
"1X c #C2C2DB",
"2X c #CACADD",
"3X c #C2C3E3",
"4X c #C4C6E9",
"5X c #C7C8E6",
"6X c #C4C8EA",
"7X c #C9CAE3",
"8X c #C9CCEB",
"9X c #C4CBF3",
"0X c #C5CDF9",
"qX c #CACEF3",
"wX c #CFD1EE",
"eX c #C4D2F5",
"rX c #C6D1FF",
"tX c #CBD2F5",
"yX c #CBD4FA",
"uX c #CFDCF7",
"iX c #CED8FE",
"pX c #D6D4E1",
"aX c #D2D4ED",
"sX c #DCDCEB",
"dX c #D2D6F3",
"fX c #D0D7F9",
"gX c #D5DAF5",
"hX c #D3DBFC",
"jX c #D9DBF2",
"kX c #DBDEF9",
"lX c #CCE6FF",
"zX c #DFE1EF",
"xX c #D0E0F7",
"cX c #DBE2F5",
"vX c #DBE0F9",
"bX c #DCEDFE",
"nX c #E2E2F3",
"mX c #E2E6FA",
"MX c #E6E8F4",
"NX c #E4E9FC",
"BX c #EAEDFC",
"VX c #EDF0FD",
"CX c #F3F6FD",
"ZX c #F5F8FE",
"AX c #F9FAFE",
"SX c None",
/* pixels */
"SXSXSXSXSXSXSXSXSXSXSXSXSXSXSXSXSXK I u.s.s.i.u.r SXSXSXSXSXSXSX",
"SXSXSXSXSXSXSXSXSXSXSXSXSXI d L d.v.K.I.W.*XjX*XR % SXSXSXSXSXSX",
"SXSXSXSXSXSXSXJ t.g.J.J.R.E.~.3X8XgXNXBXVXbXbXZXf.: SXSXSXSXSXSX",
"SXSXSXSXSXq R.!.1X*X3X8XfXkXkXvXvXuX>X%X1.&.&.lXK.2 SXSXSXSXSXSX",
"SXSXSXSXi 7XjXtXtXyXqXtX:X&X Xr.6.-.%.o... ./ 4.<Xt SXSXSXSXSXSX",
"SXSXSXSXs 2XhXyX].#X%XXXr.q.6.7.5.-.*.o... .) <.pXa SXSXSXSXSXSX",
"SXSXSXSXi 1XhX0X@X,XOX}.e.0.9.7.5.-.%.o... .W @.zXD SXSXSXSXSXSX",
"SXSXSXSX9 !.kXyX@X+X|.}.q.9.7.7.5.=.*.o... .W ] zXK SXSXSXSXSXSX",
"SXSXSXSXSXt.aXiXY.XX}.e.0.9.7.5.5.=.o.o...` x m cXU SXSXSXSXSXSX",
"SXSXSXSXSX0 5XhX/.{.e.w.9.9.6.5.-.=.o.o.| Q x l uXp.  SXSXSXSXSX",
"SXSXSXSXSX; E.tX=X[.w.0.9.7.5.:.=.%.o.| Q Q x h $XJ.. SXSXSXSXSX",
"SXSXSXSXSXSXH.gX9XC.9.8.7.5.5.-.%.o.| ( Q Q z h Z.E.o SXSXSXSXSX",
"SXSXSXSXSXSXd.7XiXD.7.7.5.5.-.%...` ( ( W x l h >.8X& SXSXSXSXSX",
"SXSXSXSXSXSXI E.hX(.6.5.5.-.o. .` ` ( Q b x l h O.jX: SXSXSXSXSX",
"SXSXSXSXSXSX7 H.tX=X<.-.=.o. .| ` ( ! W x l j g [ NX8   SXSXSXSX",
"SXSXSXSXSXSX- f.tXqX,.=.o...' ' ) ^ ! x v j g f O.VXa   SXSXSXSX",
"SXSXSXSXSXSXSXK 6XgX3.%. . .) ) ~ Q b z k j [ 3.VXzXw   SXSXSXSX",
"SXSXSXSXSXSXSX: E.gXS.X.' ) ) / W W c v O.F.NXmXE.H #   SXSXSXSX",
"SXSXSXSXSXSXSXSXs.qX).@.) / ~ W b { 2.eXBXaXz.G *   SXSXSXSXSXSX",
"SXSXSXSXSXSXSXSXu.=X;X$./ W n { 3.eXcX8Xa.S < O   SXSXSXSXSXSXSX",
"SXSXSXSXSXSXSXSXR W.fXA.} #._.gXdX].E 5 @ X SXSXSXSXSXSXSXSXSXSX",
"SXSXSXSXSXSXSXSXS G.hXtX;XyX6XT.U.=Xl.l.l.T 3 # SXSXSXSXSXSXSXSX",
"SXSXSXSXSXSXSXSX+ H P.=X].I.4XvXhXiXm.U./.(.-XN.T B o SXSXSXSXSX",
"SXSXSXSXSXSXSXSX@ I 3XQ.b.jXVXNXhXiXm.P.^.U.;X0X;Xj.$ SXSXSXSXSX",
"SXSXSXSXSXSXSXSXh.MXCXCX!.7XBXgX`.x.x./.`.;X;XA.Y N o SXSXSXSXSX",
"SXSXSXSXSXSXSX% 2XCXBXBXwXb.W.c.M.`.=X0X;X^.Y u > o   SXSXSXSXSX",
"SXSXSXSXSXSXSX5 MXAXVXVXBXNX6XgXkXhX=Xm.Z 6 o   SXSXSXSXSXSXSXSX",
"SXSXSXSXSXSXSX3 jXAXCXCXBXBXNXNX9XM.G y = o SXSXSXSXSXSXSXSXSXSX",
"SXSXSXSXSXSXSXX H.VXCXVXVXmX4Xz.C 4     SXSXSXSXSXSXSXSXSXSXSXSX",
"SXSXSXSXSXSXSXSXF !.CXVX8Xz.C e & . SXSXSXSXSXSXSXSXSXSXSXSXSXSX",
"SXSXSXSXSXSXSXSXo V z.a.C <   SXSXSXSXSXSXSXSXSXSXSXSXSXSXSXSXSX",
"SXSXSXSXSXSXSXSXSX@ e 5 O   SXSXSXSXSXSXSXSXSXSXSXSXSXSXSXSXSXSX"
};
