/* XPM */
static char *krfb-16[] = {
/* columns rows colors chars-per-pixel */
"16 16 219 2",
"   c #000000",
".  c #000001",
"X  c #000002",
"o  c #010102",
"O  c #010103",
"+  c #020202",
"@  c #020203",
"#  c #050707",
"$  c #07060A",
"%  c #04090D",
"&  c #0B0B0C",
"*  c #090912",
"=  c #0A0A11",
"-  c #0A0A12",
";  c #080D12",
":  c #0C0B10",
">  c #0C0C12",
",  c #0F0F11",
"<  c #0C0C16",
"1  c #0F0E14",
"2  c #0C151C",
"3  c #101010",
"4  c #111013",
"5  c #111313",
"6  c #131317",
"7  c #141B1F",
"8  c #161520",
"9  c #171829",
"0  c #191721",
"q  c #1E1E24",
"w  c #102338",
"e  c #282734",
"r  c #303037",
"t  c #293642",
"y  c #233550",
"u  c #263C54",
"i  c #302F40",
"p  c #3E3E4A",
"a  c #3F3F4D",
"s  c #353751",
"d  c #3D3D56",
"f  c #383959",
"g  c #3A3B58",
"h  c #3D3F64",
"j  c #374148",
"k  c #234878",
"l  c #254B7A",
"z  c #494952",
"x  c #555566",
"c  c #56556C",
"v  c #555570",
"b  c #61626E",
"n  c #2A6ADF",
"m  c #3069DF",
"M  c #3A6DD4",
"N  c #306FE3",
"B  c #337BE9",
"V  c #446D9D",
"C  c #5E6186",
"Z  c #567C9B",
"A  c #4F79A9",
"S  c #6D6C85",
"D  c #686C92",
"F  c #657E86",
"G  c #7579A9",
"H  c #7C7FAB",
"J  c #1C930C",
"K  c #1B9803",
"L  c #1B9C00",
"P  c #24A600",
"I  c #25A008",
"U  c #26AB00",
"Y  c #26AE00",
"T  c #2AAE00",
"R  c #2CA611",
"E  c #30A911",
"W  c #30B600",
"Q  c #31BA00",
"!  c #36BA00",
"~  c #32AE37",
"^  c #3DC300",
"/  c #3DC700",
"(  c #3EC705",
")  c #42B61E",
"_  c #54AE4B",
"`  c #4BBA76",
"'  c #68B863",
"]  c #7CAB7F",
"[  c #77B177",
"{  c #40C500",
"}  c #4BD000",
"|  c #4FD400",
" . c #51D700",
".. c #56D709",
"X. c #50D800",
"o. c #53C02F",
"O. c #5BE000",
"+. c #5FE500",
"@. c #61E600",
"#. c #60E409",
"$. c #6AEF00",
"%. c #6FE61B",
"&. c #6DF400",
"*. c #6EF600",
"=. c #78FC04",
"-. c #7DF21D",
";. c #6ED270",
":. c #338F84",
">. c #7E8290",
",. c #788E9B",
"<. c #658AA3",
"1. c #628FBA",
"2. c #7B80B2",
"3. c #4096DF",
"4. c #458CEE",
"5. c #4B80E4",
"6. c #4C95ED",
"7. c #5899EE",
"8. c #55A2F9",
"9. c #58ACFE",
"0. c #5AADFE",
"q. c #6495E1",
"w. c #639BEE",
"e. c #67B6F1",
"r. c #63B3FF",
"t. c #76C1FF",
"y. c #82FE10",
"u. c #8BFA27",
"i. c #87F037",
"p. c #9CFA46",
"a. c #A1EB6D",
"s. c #899498",
"d. c #8A9B98",
"f. c #8283A6",
"g. c #8B8CA2",
"h. c #8F9AB9",
"j. c #9098AB",
"k. c #9291B1",
"l. c #83A48C",
"z. c #86BB89",
"x. c #90BD98",
"c. c #9CA4B1",
"v. c #97BAA7",
"b. c #9699C7",
"n. c #80A9DB",
"m. c #8CBCE7",
"M. c #87B5F2",
"N. c #81BDF6",
"B. c #85BEF8",
"V. c #8CB3F5",
"C. c #8EB9F1",
"Z. c #91B3ED",
"A. c #92BFF5",
"S. c #9DBFF1",
"D. c #A3A4C0",
"F. c #A8A8C6",
"G. c #A5ABDE",
"H. c #A6ADDF",
"J. c #AAB0C6",
"K. c #B5B5D3",
"L. c #BDBDD9",
"P. c #A0B6EA",
"I. c #AAB3E2",
"U. c #AFB5E3",
"Y. c #ACB5E7",
"T. c #B5B9E2",
"R. c #B8BDE3",
"E. c #99D982",
"W. c #A4DA98",
"Q. c #AFDBA4",
"!. c #B3D6B6",
"~. c #B3D5BA",
"^. c #B7E0AB",
"/. c #9EC3D6",
"(. c #83C7FF",
"). c #85C8FA",
"_. c #90C5F1",
"`. c #93D3FF",
"'. c #95D3FF",
"]. c #94D5FF",
"[. c #B4CFCF",
"{. c #BBC6D0",
"}. c #A0C8EA",
"|. c #A4CCE9",
" X c #A1CCF2",
".X c #A5CCFB",
"XX c #A9CAF1",
"oX c #A5D2F7",
"OX c #A4D3FB",
"+X c #BAC2E1",
"@X c #BBC4E6",
"#X c #BCC0E1",
"$X c #B5D5F7",
"%X c #B4DFFC",
"&X c #ABE2FF",
"*X c #B0E1F8",
"=X c #BCE6FF",
"-X c #BBECFF",
";X c #C1D7CB",
":X c #CCCFED",
">X c #C2D1E2",
",X c #CAD1F7",
"<X c #CFD6F5",
"1X c #C7EDFE",
"2X c #C8ECFF",
"3X c #CAECFE",
"4X c #CBEEFE",
"5X c #C4F1FE",
"6X c #D0F0FE",
"7X c #D5F2FF",
"8X c #D7F3FF",
"9X c #D6F8FF",
"0X c #DCF5FF",
"qX c #DDF7FF",
"wX c #E6F8FF",
"eX c #EBFAFF",
"rX c #EAFEFF",
"tX c #EFFAFE",
"yX c None",
/* pixels */
"yXyXyXyXyXyX& 6 q z S k.K.L.v yX",
"yXyXyXyX3 b g.D.F.{.;XQ.E.W.>.$ ",
"yXyXyXyXz :X>X^.a.i.%...{ o.s.> ",
"yXyXyXyXr #X!.p.=.*.@. .^ ) d.1 ",
"yXyXyXyX5 F.~.u.=.&...} ! E l.0 ",
"yXyX# 0 t h.[.-.*.@. .^ T I ,.e ",
"yX3 F /.|. X_.;.#. .{ W P K ;.p ",
"3 ,.*X9XrX5X`.e.` ( ! T K K z.x ",
"j m.3XwXqX-X'.r.3.~ T R _ x.c.t ",
"<.N.6X7X&X'.t.9.B :.' v.j.v 7 + ",
"1.6.).4X=X(.9.8.N q.@Xb.D s : @ ",
"A n 7.*X4XB.4.w.m V.,XG.I.Y.G 9 ",
"u M A.3X0X$XC.M.5.P.T.U.H.H h < ",
"; V oX7XtXeX6XOX.X<XR.H f < O yX",
"yX2 Z n.Z.S.}.XX+Xf.g -   yXyXyX",
"yXyX% w k l y C d - O yXyXyXyXyX"
};
