/* XPM */
static char *krfb[] = {
/* columns rows colors chars-per-pixel */
"32 32 257 2",
"   c #000000",
".  c #05060C",
"X  c #04090C",
"o  c #08080E",
"O  c #0C0D15",
"+  c #0E100F",
"@  c #10151B",
"#  c #121422",
"$  c #18182E",
"%  c #191B25",
"&  c #1D1D33",
"*  c #212125",
"=  c #242436",
"-  c #323238",
";  c #1D3D5C",
":  c #29284E",
">  c #2F3F46",
",  c #353556",
"<  c #353549",
"1  c #3C3C69",
"2  c #1C4A7B",
"3  c #38494D",
"4  c #2B4D68",
"5  c #43443F",
"6  c #444456",
"7  c #475357",
"8  c #52525D",
"9  c #444477",
"0  c #565669",
"q  c #545376",
"w  c #4E5C6D",
"e  c #5A767F",
"r  c #667675",
"t  c #0D43D2",
"y  c #1346D2",
"u  c #1C58DA",
"i  c #2257DC",
"p  c #236ECE",
"a  c #2F60DB",
"s  c #366CDE",
"d  c #397FCB",
"f  c #296CE3",
"g  c #2B71EF",
"h  c #356CE1",
"j  c #3676E4",
"k  c #5E5E95",
"l  c #5D7881",
"z  c #4A7DAA",
"x  c #666687",
"c  c #63639A",
"v  c #77779A",
"b  c #637B80",
"n  c #696BA7",
"m  c #7575AA",
"M  c #4679E2",
"N  c #128E00",
"B  c #1A9A00",
"V  c #179402",
"C  c #098600",
"Z  c #1DA100",
"A  c #209F00",
"S  c #389C34",
"D  c #259025",
"F  c #23A400",
"G  c #25A800",
"H  c #28AD00",
"J  c #2DB300",
"K  c #31A910",
"L  c #30B600",
"P  c #32BA00",
"I  c #3BBF00",
"U  c #29AE19",
"Y  c #30A620",
"T  c #3CBE28",
"R  c #3CA851",
"E  c #3AAB77",
"W  c #36C000",
"Q  c #3CC300",
"!  c #3EC800",
"~  c #41BC1B",
"^  c #4AB331",
"/  c #469F45",
"(  c #4EB14F",
")  c #50BF7A",
"_  c #6AB95D",
"`  c #74B773",
"'  c #44CB00",
"]  c #49CE00",
"[  c #41C500",
"{  c #4DD200",
"}  c #51D600",
"|  c #53D900",
" . c #59DE00",
".. c #50D60F",
"X. c #56C82A",
"o. c #5CE200",
"O. c #6AD139",
"+. c #61E600",
"@. c #64EA00",
"#. c #69EE00",
"$. c #6CF200",
"%. c #74FA00",
"&. c #7AFE04",
"*. c #7FFF0A",
"=. c #70F500",
"-. c #73ED13",
";. c #6BD35D",
":. c #2B83B3",
">. c #3F83C9",
",. c #3C86EB",
"<. c #3F92EC",
"1. c #5887AF",
"2. c #76949C",
"3. c #478DDA",
"4. c #5C96DA",
"5. c #4488EA",
"6. c #408EF2",
"7. c #4F93EF",
"8. c #4C98F4",
"9. c #5694EA",
"0. c #569BF3",
"q. c #5983E4",
"w. c #4DA2F8",
"e. c #54AAFE",
"r. c #5AADFE",
"t. c #5DA7FF",
"y. c #5EB0FF",
"u. c #629ECF",
"i. c #609CD3",
"p. c #6794E9",
"a. c #65B3D7",
"s. c #6BA2EC",
"d. c #69A3E5",
"f. c #65B5FF",
"g. c #6DBBFF",
"h. c #73A9EA",
"j. c #75AAF1",
"k. c #74BEFF",
"l. c #77B7F9",
"z. c #61A5F7",
"x. c #78C5FE",
"c. c #807F90",
"v. c #83FE12",
"b. c #8AFF1D",
"n. c #81EC30",
"m. c #8AFF20",
"M. c #96FF36",
"N. c #8FF632",
"B. c #84DA55",
"V. c #A1FF4B",
"C. c #A9FF5A",
"Z. c #A1EE60",
"A. c #8DDF63",
"S. c #87879B",
"D. c #8B8BB4",
"F. c #878AB9",
"G. c #9D9DB4",
"H. c #8B8AAB",
"J. c #83BB8A",
"K. c #89A8AC",
"L. c #A4A4BD",
"P. c #A1B7BF",
"I. c #9C9CC1",
"U. c #9496C8",
"Y. c #999ED3",
"T. c #979AD0",
"R. c #8F94D9",
"E. c #9CA1D7",
"W. c #8FB8D1",
"Q. c #8AA7E1",
"!. c #85B8F5",
"~. c #91B3F6",
"^. c #A6A5C9",
"/. c #A1A2D0",
"(. c #A7ACD8",
"). c #ACB1DA",
"_. c #B5B8D8",
"`. c #ACBAC2",
"'. c #A5ABE1",
"]. c #AAB3E2",
"[. c #B5BBE4",
"{. c #B5BBE9",
"}. c #8FC38F",
"|. c #97CF86",
" X c #9AC7A0",
".X c #A4D592",
"XX c #B7D0BF",
"oX c #AECCB6",
"OX c #A8E483",
"+X c #B1E889",
"@X c #86CAFE",
"#X c #89CCFF",
"$X c #87C0F8",
"%X c #81D2FE",
"&X c #99C6E2",
"*X c #98C3F5",
"=X c #9ACAFA",
"-X c #92C6FB",
";X c #93D3FE",
":X c #9DDBFF",
">X c #97D8FF",
",X c #8CC4EB",
"<X c #BFC0DA",
"1X c #BAD5C7",
"2X c #A3D3FB",
"3X c #A3DCFF",
"4X c #AADBFD",
"5X c #A6D4F4",
"6X c #BDC3EE",
"7X c #BAC3F3",
"8X c #B5C0F1",
"9X c #B2DCFC",
"0X c #B9D7F9",
"qX c #A8CCEC",
"wX c #ADE4FF",
"eX c #B4E3FE",
"rX c #BBE4FD",
"tX c #BDECFE",
"yX c #B5EAFF",
"uX c #C0C7DE",
"iX c #C5C8E7",
"pX c #C5CDF6",
"aX c #C9D0ED",
"sX c #CCD5FC",
"dX c #CFD8FE",
"fX c #C6D2FF",
"gX c #D6D8E9",
"hX c #D2D5F3",
"jX c #D6D8F3",
"kX c #D3DAFB",
"lX c #DADDFB",
"zX c #D7D9F3",
"xX c #CCE6C8",
"cX c #D9E9D9",
"vX c #C3EAFE",
"bX c #CAEDFE",
"nX c #C3E5FC",
"mX c #C4F5FF",
"MX c #CAF6FF",
"NX c #CDFAFF",
"BX c #D3E3FC",
"VX c #DCE2FD",
"CX c #DDE4F6",
"ZX c #D4F2FE",
"AX c #DAF4FE",
"SX c #D5FDFF",
"DX c #E1EDE3",
"FX c #E0E6EE",
"GX c #E4ECFE",
"HX c #E5E8F8",
"JX c #E2F6FE",
"KX c #E5F8FF",
"LX c #EBFBFF",
"PX c #F2FCFF",
"IX c #F5F8FC",
"UX c #EFF9EB",
"YX c None",
/* pixels */
"YXYXYXYXYXYXYXYXYXYXYXYXYXYXYXYXYXYXYXYX% = 6 v H.H.I.I.x O YXYX",
"YXYXYXYXYXYXYXYXYXYXYXYXYXYXYXYXYXO 6 x L.I.^.).iXgXCXzXD.< YXYX",
"YXYXYXYXYXYXYXYXYXYX* - 8 S.L.G.L._.uXaXsXzXHXHXDXcXxXUX<X6 YXYX",
"YXYXYXYXYXYXYXYXYXYXG._._.uXaXhXhXzXlXlXgXxXOXB.O.X.~ A.gXq YXYX",
"YXYXYXYXYXYXYXYXYXS.gXhXsXsXaXuXXX.XZ.-.-.o.| { [ [ P ^ gXx YXYX",
"YXYXYXYXYXYXYXYXYX^.HXdX6XoX+XZ.N.v.%.=.@.o.| { ' Q P ^ FXv YXYX",
"YXYXYXYXYXYXYXYXYX0 jXdX_.+XC.M.b.v.%.#.@.o...{ [ [ L K FXv YXYX",
"YXYXYXYXYXYXYXYXYX* <XsX{.Z.V.M.v.v.%.#.@.o.| { [ I H A cXH.  YX",
"YXYXYXYXYXYXYXYXYXYXL.kX7X|.M.b.*.&.=.#.+. .} ] [ I G B oXI.  YX",
"YXYXYXYXYXYXYXYXYXYXG.zXpX Xb.v.&.%.#.@.o. .{ ' I H A B |._.O YX",
"YXYXYXYXYXYXYXYXYXYXH.iXdXoX&.&.=.$.#.+. .} ' Q L H A B _ iX% YX",
"YXYXYXYXYXYXYX@ 3 3 w _.kX[.-.%.$.#.+.o.| { ! P H H A B ( gX= YX",
"YXYXYXYX+ 2.W.&X;Xl.!.l.$X~.;.$.#.+.o.| ' ! P J H F B V ^ DX, YX",
"YXYXYXYXK.5XrXZXbXbXAXrX;X$Xa.;.+.o.| ' ! W L J G F B N S cX0   ",
"YXYX7 P.vXyXmXSXLXLXNXyX:X#Xx.t.) ..' ! W P H H F B N N D xXc.. ",
"YXYXP.0X:XwXMXLXPXPXNXtX:X#Xg.y.<.( ! W P L H F A B N C / DXH.. ",
"YX5 qXx.9XZXLXLXLXLXMXyX3X;Xk.r.w.<.T W J H G Z V V S }.IXHXx   ",
"YXr j.@XAXJXJXLXKXNXtXeX4X#Xf.e.w.g E J H F Z B (  XDXHX^.v &   ",
"3 &X8.4XZXAXJXZXwXwX:X>X@Xx.r.e.w.u :.U F Y ` 1XHXiXU.k $ . YXYX",
"r ,X7.2XZXZXAXMX>X>X;X@Xx.f.r.e.w.t p R J.1XlXiXF.x : @   YXYXYX",
"r h.,.w.%XtXSXZXrX3X#Xg.f.e.e.t.j u f 2XhX).U.q = & o YXYXYXYXYX",
"l d.j 5.w.x.vXZXZXZX4Xf.e.e.e.t.g y ,.Q.{.6X].U.].Y.m , YXYXYXYX",
"e d.p g ,.8.4XvXbXbX9Xr.w.<.9.j.h 5.0.0XlXkX{.T.].].7X{.F.n $ YX",
"3 d.y u j s.9XrXvXbXeX7.f h !.j.t u 9.kXlXkX'.R.].E.8XfX7XR.: YX",
"YX1.i t !.9XnXMXZXZXZXp.s ~.*Xh.y y *XVX[.T.U.).8X7X7XE.n 9 # . ",
"YX3 9.a 2X0XbXZXJXLXJXnX0XvX*X!.s.7.Q./.Y.].iXpX7X'.n 9 : O   YX",
"YXYX1.5.*XrXZXAXLXPXLXKXAXbX9X5X!.=XjXhXVXlX7XY.c 1 @   YXYXYXYX",
"YXYX4 i.2XrXZXJXIXPXPXLXAXmX9X=X!.kXGXGXhX'.n 9 &   YXYXYXYXYXYX",
"YXYXYX. u.5XrX0XBXKXAXCXAXbX:X~.JXGXaX/.n 1     YXYXYXYXYXYXYXYX",
"YXYXYXYX; z 4.j s q.M p.=X,X~.GXjX/.c 9 & o YXYXYXYXYXYXYXYXYXYX",
"YXYXYXYXYXYXO 4 >.5.3.>.2 # c.U.k <   YXYXYXYXYXYXYXYXYXYXYXYXYX",
"YXYXYXYXYXYXYXYXX X X X   YX, 1 # . YXYXYXYXYXYXYXYXYXYXYXYXYXYX"
};
