/* XPM */
static char *ksirc[] = {
/* columns rows colors chars-per-pixel */
"32 32 169 2",
"   c #000000",
".  c #00010B",
"X  c #0A0000",
"o  c #08080B",
"O  c #000211",
"+  c #00021A",
"@  c #0B0C17",
"#  c #120000",
"$  c #1B1B1B",
"%  c #000424",
"&  c #00032B",
"*  c #000633",
"=  c #00053A",
"-  c #310000",
";  c #3F0303",
":  c #232322",
">  c #2B2B2A",
",  c #2D2F3E",
"<  c #363636",
"1  c #393835",
"2  c #3C3C3C",
"3  c #000643",
"4  c #000844",
"5  c #020B4B",
"6  c #080F47",
"7  c #000655",
"8  c #010B54",
"9  c #000B5B",
"0  c #061055",
"q  c #061059",
"w  c #081254",
"e  c #09135C",
"r  c #000264",
"t  c #000B64",
"y  c #010C6C",
"u  c #000770",
"i  c #000D71",
"p  c #000D79",
"a  c #0B1564",
"s  c #051173",
"d  c #00107A",
"f  c #081573",
"g  c #09167B",
"h  c #0E1B74",
"j  c #0D1879",
"k  c #121F7B",
"l  c #162278",
"z  c #1F2B7E",
"x  c #3D404B",
"c  c #4B0000",
"v  c #560000",
"b  c #590000",
"n  c #740606",
"m  c #7F0000",
"M  c #444443",
"N  c #484847",
"B  c #4C4C4C",
"V  c #4F5051",
"C  c #535353",
"Z  c #595857",
"A  c #5B5B5B",
"S  c #5B5C63",
"D  c #646463",
"F  c #686867",
"G  c #6B6B6C",
"H  c #737373",
"J  c #7B7B7B",
"K  c #000D81",
"L  c #01128B",
"P  c #09188F",
"I  c #031490",
"U  c #071896",
"Y  c #07189C",
"T  c #101C83",
"R  c #111D88",
"E  c #111D93",
"W  c #0216A0",
"Q  c #0C1DA3",
"!  c #182388",
"~  c #132192",
"^  c #152198",
"/  c #1A2695",
"(  c #19249C",
")  c #1C299E",
"_  c #1624A1",
"`  c #1B27A3",
"'  c #1C2AAC",
"]  c #1023B4",
"[  c #1629BB",
"{  c #1C2AB2",
"}  c #222D80",
"|  c #253199",
" . c #222DAC",
".. c #202EB4",
"X. c #2832A4",
"o. c #2330B4",
"O. c #373EAD",
"+. c #343FBD",
"@. c #1729C1",
"#. c #2F3EC0",
"$. c #2B3BCA",
"%. c #3D47AA",
"&. c #3241BF",
"*. c #3945BA",
"=. c #3141C3",
"-. c #3445D6",
";. c #3443DD",
":. c #3E4EE6",
">. c #46509A",
",. c #4950B7",
"<. c #4C54C5",
"1. c #4850CD",
"2. c #4853DF",
"3. c #4E58D5",
"4. c #555EC7",
"5. c #595EC3",
"6. c #4E5DEB",
"7. c #545FF4",
"8. c #6E73D0",
"9. c #7179E1",
"0. c #7C81DB",
"q. c #7E82E0",
"w. c #7A82E9",
"e. c #7F8AFF",
"r. c #820505",
"t. c #8C0404",
"y. c #8C1A1A",
"u. c #960000",
"i. c #900808",
"p. c #9F0000",
"a. c #A20303",
"s. c #A61111",
"d. c #BD0404",
"f. c #A52626",
"g. c #D42323",
"h. c #D32A2A",
"j. c #DF2323",
"k. c #EC3E3E",
"l. c #F02B2B",
"z. c #F43737",
"x. c #CE4B4B",
"c. c #DE4444",
"v. c #DF5151",
"b. c #D96262",
"n. c #E65151",
"m. c #F24545",
"M. c #F44949",
"N. c #F35757",
"B. c #F75C5C",
"V. c #FA5C5C",
"C. c #EE6E6E",
"Z. c #FF6666",
"A. c #FF6D6D",
"S. c #FF7C7C",
"D. c #828181",
"F. c gray61",
"G. c #8C92C0",
"H. c #8F98F9",
"J. c #9BA3FA",
"K. c #A4A9DB",
"L. c #A3AAFC",
"P. c #AFB4EC",
"I. c #B2B8F9",
"U. c #FF8484",
"Y. c #FF9C9C",
"T. c #FFA8A8",
"R. c #FFC4C4",
"E. c gray100",
"W. c None",
/* pixels */
"W.W.W.W.W.W.W.W.W.W.W.W.W.W.X X   W.W.W.W.W.W.W.W.W.W.W.W.W.W.W.",
"W.W.W.W.W.W.W.W.W.W.W.W.# r.d.d.a.c   W.W.W.W.W.W.W.W.W.W.W.W.W.",
"W.W.W.W.W.W.W.W.W.W.W.X a.z.B.m.j.d.c   W.W.W.W.W.W.W.W.W.W.W.W.",
"W.W.W.W.W.W.W.W.W.W.W.b l.R.T.A.V.g.u.# W.W.W.W.W.W.W.W.W.W.W.W.",
"W.W.W.W.W.W.W.W.W.W.W.t.m.Y.U.S.S.n.s.-   W.W.W.W.W.W.W.W.W.W.W.",
"W.W.W.W.W.W.W.W.W.W.W.r.k.Z.S.U.U.C.f.-   W.W.W.W.W.W.W.W.W.W.W.",
"W.W.W.W.W.W.W.W.W.W.W.c g.N.A.S.U.b.y.#   W.W.W.W.W.W.W.W.W.W.W.",
"W.W.W.W.W.W.W.W.W.W.W.  r.h.c.n.x.f.;   W.W.W.W.W.W.W.W.W.W.W.W.",
"W.W.W.W.W.W.W.W.W.W.W.W.X v i.i.n -     W.W.W.W.W.W.W.W.W.W.W.W.",
"W.W.W.W.W.W.W.W.W.W.W.W.W.          W.W.W.W.W.W.W.W.W.W.W.W.W.W.",
"W.W.W.W.W.W.W.W.W.W.W.W.      o o     W.W.W.W.W.W.W.W.W.W.W.W.W.",
"W.W.W.W.W.W.W.W.W.W.W.W.  Z B 1 2 $     W.W.W.W.W.W.W.W.W.W.W.W.",
"W.W.W.W.W.W.W.W.W.W.W.  > F.Z C A C $     W.W.W.W.W.W.W.W.W.W.W.",
"W.W.W.W.W.W.W.W.. & 5 * > C C A F G M o 0 a a e q 0 8 0 =   W.W.",
"W.W.W.W.W.W.% t ~ *.*.9 : V A F G H B @ ! o.o.{ { o.' ` g + W.W.",
"W.W.W.W.. 9 _ <.q.0.) 7 : C D G H H B o + & & % & * * % .     W.",
"W.W.W.. y ' 5.8.%.g p 8 > A D H H J B o                   W.W.W.",
"W.W.W.5 Y O.,.~ u y 4 . > A G H J J B o   W.W.W.W.W.W.. 8 f + W.",
"W.W.  d U X.E K y *     1 D G J D.D.V o   W.W.W.W.W.% I o.R +   ",
"W.W.+ p I ( U L 8   W.  < D H J D.D.V X   W.W.W.W.4 Q ` j =     ",
"W.W.+ i L ( Q W 9   W.  < D H J D.D.V o   W.W.+ s [ ` i *     W.",
"W.W.. t p E  .{ W % W.  1 F H J D.D.B     . 9 ] $./ t %     W.W.",
"W.W.W.= i p E 1.2.@.i * , S F J J J x & y [ ;.&.T 7 +     W.W.W.",
"W.W.W.+ 9 i i / 9.L.e.6.-.$.#.&.&.=.$.:.7.3.| y 4 .     W.W.W.W.",
"W.W.W.W.O 5 y y s >.G.K.P.I.L.J.J.H.w.4.| i 7 %     W.W.W.W.W.W.",
"W.W.W.W.W.  % 4 9 r r y h l l z } k f t 7 * .     W.W.W.W.W.W.W.",
"W.W.W.W.W.W.W.  . % & = 6 0 q q 9 e 6 % .     W.W.W.W.W.W.W.W.W.",
"W.W.W.W.W.W.W.W.W.  W.  > M B B C Z :     W.W.W.W.W.W.W.W.W.W.W.",
"W.W.W.W.W.W.W.W.W.W.W.  $ N C D G Z :     W.W.W.W.W.W.W.W.W.W.W.",
"W.W.W.W.W.W.W.W.W.W.W.    : < 2 2 > o     W.W.W.W.W.W.W.W.W.W.W.",
"W.W.W.W.W.W.W.W.W.W.W.W.                  W.W.W.W.W.W.W.W.W.W.W.",
"W.W.W.W.W.W.W.W.W.W.W.W.W.              W.W.W.W.W.W.W.W.W.W.W.W."
};
