/* XPM */
static char *kwifimanager[] = {
/* columns rows colors chars-per-pixel */
"32 32 212 2",
"   c black",
".  c #000007",
"X  c #000009",
"o  c #00000B",
"O  c #03030D",
"+  c #000010",
"@  c #000012",
"#  c #030311",
"$  c #000015",
"%  c #000017",
"&  c #000019",
"*  c #00001C",
"=  c #00001D",
"-  c #00001E",
";  c #080811",
":  c #000021",
">  c #000022",
",  c #000024",
"<  c #000025",
"1  c #000026",
"2  c #000027",
"3  c #00002A",
"4  c #00002B",
"5  c #03032B",
"6  c #00002C",
"7  c #00002D",
"8  c #02022D",
"9  c #04042B",
"0  c #070728",
"q  c #04042E",
"w  c #06062C",
"e  c #07072E",
"r  c #09092E",
"t  c #0A0A2D",
"y  c #0D0D2D",
"u  c #0C0C2E",
"i  c #0D0D2F",
"p  c #0F0F2D",
"a  c #000030",
"s  c #000034",
"d  c #000035",
"f  c #000037",
"g  c #050533",
"h  c #000039",
"j  c #00003A",
"k  c #00003B",
"l  c #00003D",
"z  c #0A0A38",
"x  c #0A0A3D",
"c  c #12122A",
"v  c #11112C",
"b  c #11112D",
"n  c #10102E",
"m  c #13132C",
"M  c #14142E",
"N  c #181820",
"B  c #1B1B20",
"V  c #191925",
"C  c #181838",
"Z  c #252534",
"A  c #272736",
"S  c #333334",
"D  c #000040",
"F  c #000041",
"G  c #00004C",
"H  c #0F0F42",
"J  c #181841",
"K  c #191940",
"L  c #181846",
"P  c #000066",
"I  c #0F0F65",
"U  c #0C0C69",
"Y  c #000076",
"T  c #161671",
"R  c #27274E",
"E  c #292940",
"W  c #2C2C42",
"Q  c #2C2C44",
"!  c #24245F",
"~  c #3E3E44",
"^  c #313152",
"/  c #323252",
"(  c #373754",
")  c #232361",
"_  c #454553",
"`  c #535354",
"'  c #5F5F62",
"]  c #5C5C70",
"[  c #79797D",
"{  c #090988",
"}  c #1A1ABE",
"|  c #3A3AB6",
" . c #0000D3",
".. c #0000D5",
"X. c #0000D8",
"o. c #0000DA",
"O. c #0000DC",
"+. c #0000DE",
"@. c #0F0FD6",
"#. c #0000E0",
"$. c #0000E3",
"%. c #0000E5",
"&. c #0000E7",
"*. c #0000E9",
"=. c #0000EB",
"-. c #0000EE",
";. c #0000FA",
":. c #0808FF",
">. c #1010F8",
",. c #1111FF",
"<. c #1919FF",
"1. c #2323FF",
"2. c #2424FF",
"3. c #2A2AFF",
"4. c #2F2FFF",
"5. c #3333F8",
"6. c #3535FF",
"7. c #3A3AFF",
"8. c #3B3BFF",
"9. c #43439F",
"0. c #494996",
"q. c #56569B",
"w. c #6D6D88",
"e. c #4343C3",
"r. c #4040E7",
"t. c #4040FF",
"y. c #4444FA",
"u. c #4646FF",
"i. c #4747FF",
"p. c #4B4BFF",
"a. c #4C4CFF",
"s. c #5151FF",
"d. c #5656FF",
"f. c #5757FF",
"g. c #5858FF",
"h. c #5C5CFF",
"j. c #6060E8",
"k. c #6F6FE6",
"l. c #6161FF",
"z. c #6262FF",
"x. c #6767FF",
"c. c #6A6AFF",
"v. c #6C6CFF",
"b. c #6D6DFF",
"n. c #7A7AEF",
"m. c #7272FF",
"M. c #7777FF",
"N. c #7878FF",
"B. c #7C7CFF",
"V. c #7D7DFF",
"C. c #7E7EFF",
"Z. c green",
"A. c #97979A",
"S. c #9898A9",
"D. c #9797BD",
"F. c #ACACAC",
"G. c #9090CE",
"H. c #9A9ACA",
"J. c #8383FF",
"K. c #8888F6",
"L. c #8888FF",
"P. c #8989FF",
"I. c #8E8EFF",
"U. c #8F8FFF",
"Y. c #9393FF",
"T. c #9494FF",
"R. c #9999FF",
"E. c #9A9AFF",
"W. c #9F9FFF",
"Q. c #AAAAC2",
"!. c #A6A6DD",
"~. c #A0A0FF",
"^. c #A4A4FF",
"/. c #A5A5FF",
"(. c #AAAAFF",
"). c #ABABFF",
"_. c #AEAEFC",
"`. c #AFAFFF",
"'. c #BFBFE4",
"]. c #B0B0FF",
"[. c #B5B5FF",
"{. c #BABAFF",
"}. c #BBBBFF",
"|. c #C5C5C6",
" X c #C2C2E8",
".X c #C0C0FF",
"XX c #C1C1FF",
"oX c #C5C5FF",
"OX c #C6C6FF",
"+X c #CBCBFF",
"@X c #CCCCFF",
"#X c #D0D0FF",
"$X c #D1D1FF",
"%X c #D2D2FF",
"&X c #D7D7FF",
"*X c #DFDFF0",
"=X c #DCDCFF",
"-X c #DDDDFF",
";X c #EAEAEA",
":X c gray92",
">X c #E2E2FF",
",X c #E3E3FF",
"<X c #E8E8FF",
"1X c #EDEDFF",
"2X c #EEEEFF",
"3X c #F3F3FF",
"4X c GhostWhite",
"5X c #F9F9FF",
"6X c #FEFEFE",
"7X c #FEFEFF",
"8X c gray100",
"9X c None",
/* pixels */
"9X9X9X9X9X9X9X9X9X9X9X9X9X9X9X9X9X9X9XZ.Z.9X9X9X9X9X9X9X9X9X9X9X",
"9X9X9X9X9X9X9X9X9X9X9X9X9X9X9X9X9X9X9XZ.Z.Z.9X9X9X9X9X9X9X9X9X9X",
"9X9X9X9X9X9X9X9X9X9X9X9X9X9X9X9X9X9X9XZ.Z.Z.Z.9X9X9X9X9X9X9X9X9X",
"9X9X9X9X9X9X9X9X9X9X9X9X9X9X9X9X9XZ.9X9X9XZ.Z.Z.9X9X9X9X9X9X9X9X",
"9X9X9X9X9X9X9X9X9X9X9X9X9X9X9X9XZ.Z.Z.9X9XZ.Z.Z.Z.9X9X9X9X9X9X9X",
"9X9X9X9X9X9X9X9X9X9X9X9X9X9X9X9X9XZ.Z.Z.9X9XZ.Z.Z.Z.9X9X9X9X9X9X",
"9X9X9X9X9X9X9X9X9X9X9X9X9X9X9X9X9X9XZ.Z.Z.9X9XZ.Z.Z.Z.9X9X9X9X9X",
"9X9X9X9X9X9X9X9X9X9X9X9X9X9X9X9X9X9X9XZ.Z.Z.9X9XZ.Z.Z.9X9X9X9X9X",
"9X9X9X9X9X9X9X9X9X9X9X9X9X9X9XZ.Z.9X9X9XZ.Z.Z.9X9XZ.Z.Z.9X9X9X9X",
"    9X9X9X9X9X9X9X9X9X9X9X9XZ.Z.Z.Z.9X9X9XZ.Z.Z.9XZ.Z.Z.9X9X9X9X",
"@ * & 4 k f * o   9X9X9X9X9X9X9XZ.Z.Z.9X9XZ.Z.Z.9X9XZ.Z.Z.9X9X9X",
"2 -.>.} T H z g a F l F . 9X9X9X9XZ.Z.Z.9X9XZ.Z.Z.9XZ.Z.Z.9X9X9X",
"2 *.,.1.6.i.g.j.0.R C i q k k k f   Z.Z.Z.9XZ.Z.Z.9X9XZ.Z.Z.9X9X",
"2 *.,.1.6.i.g.c.B.I.~._.H.] V @ a > % Z.Z.9X9XZ.Z.Z.9XZ.Z.Z.9X9X",
"2 %.,.1.6.i.g.c.B.I.~.G._ ` F.c ;.;.G Z.Z.Z.9X9XZ.Z.9X9XZ.Z.Z.9X",
"2 $.,.1.6.i.g.c.B.K.( ' :X8X8Xm ;.;.G 9XZ.Z.9X9XZ.Z.Z.9XZ.Z.Z.9X",
"> $.,.1.6.i.g.c.k.Z |.8X8X8X3Xc ;.;.G 9XZ.Z.Z.9XZ.Z.Z.9X9XZ.Z.9X",
"> $.,.1.6.i.g.c.W :X8X8X4X2X,Xi ;.;.G 9XZ.Z.Z.9X9XZ.Z.9X9XZ.Z.Z.",
"4 O.,.1.6.i.g.9.A.8X8X3X<X-X%Xm ;.;.G 9X9XZ.Z.9X9XZ.Z.9X9XZ.Z.Z.",
"4 O.,.1.6.i.g.W 8X4X2X,X&X@X.Xp ;.;.G 9X9XZ.Z.9X9XZ.Z.Z.9XZ.Z.Z.",
"7 o.,.1.6.i.e.[ 3X<X=X@XOX}.`.i ;.;.G 9X9XZ.Z.9X9XZ.Z.Z.9X9XZ.Z.",
"2 ..,.1.6.i.! *X,X&X@X.X[.).~.i ;.;.G 9X9XZ.9X9X9X9XZ.Z.9X9XZ.Z.",
"* ..,.1.6.r.^ -X%XOX}.`./.E.Y.t ;.;.G 9X9X9X9X9X9X9X9X9X9X9X9X9X",
"%  .,.1.5.L  X+X.X[.).~.T.P.B.t ;.;.G 9X9X9X9X9X9X9X9X9X9X9X9X9X",
"o Y { I C D.OX}._./.E.I.J.N.m.q ;.;.G 9X9X9X9X9X9X9X9X9X9X9X9X9X",
"S S.Q.'.+X}.[.).~.T.P.B.m.c.h.q ;.;.G 9X9X9X9X9X9X9X9X9X9X9X9X9X",
"~ -X%XOX}.`./.E.I.J.N.c.z.f.p.9 ;.;.G 9X9X9X9X9X9X9X9X9X9X9X9X9X",
"B w.!.[.).~.T.J.B.m.c.h.s.i.7.4 ;.;.G 9X9X9X9X9X9X9X9X9X9X9X9X9X",
"9XN Z W ^ q.n.M.c.z.f.p.t.6.3.7 ;.;.G 9X9X9X9X9X9X9X9X9X9X9X9X9X",
"9X9X9X9X  ; m K ) | y.7.6.2.<.7 ;.;.G 9X9X9X9X9X9X9X9X9X9X9X9X9X",
"9X9X9X9X9X9X9X9X  O 0 x U @.:.7 ;.;.G 9X9X9X9X9X9X9X9X9X9X9X9X9X",
"9X9X9X9X9X9X9X9X9X9X9X9X  2 a @ P P a 9X9X9X9X9X9X9X9X9X9X9X9X9X"
};
