/* XPM */
static char *ark-16[] = {
/* columns rows colors chars-per-pixel */
"16 16 195 2",
"   c black",
".  c #000100",
"X  c #000300",
"o  c #030201",
"O  c #000700",
"+  c #050000",
"@  c #090501",
"#  c #0A0602",
"$  c #0B0702",
"%  c #0C0704",
"&  c #001200",
"*  c #140A02",
"=  c #160B06",
"-  c #1E0F03",
";  c #1D0E06",
":  c #1B1005",
">  c #1E1100",
",  c #002500",
"<  c #002F00",
"1  c #221205",
"2  c #2F1E04",
"3  c #331D07",
"4  c #3A2311",
"5  c #3A2512",
"6  c #3E2910",
"7  c #024900",
"8  c #40290E",
"9  c #482E0E",
"0  c #412610",
"q  c #533711",
"w  c #593B13",
"e  c #5D3D1F",
"r  c #583D22",
"t  c #774E19",
"y  c #654523",
"u  c #6E4825",
"i  c #7B572A",
"p  c #008700",
"a  c #009F00",
"s  c #149D02",
"d  c #00A000",
"f  c #00A100",
"g  c #02AE00",
"h  c #00B000",
"j  c #00B700",
"k  c #04B400",
"l  c #0ABE00",
"z  c #10AB03",
"x  c #269B06",
"c  c #2F9B09",
"v  c #38B70E",
"b  c #00C400",
"n  c #00C500",
"m  c #00C600",
"M  c #00CA00",
"N  c #00CF00",
"B  c #0EC800",
"V  c #00D900",
"C  c #00DC00",
"Z  c #00DD00",
"A  c #0CDE0C",
"S  c #11CA00",
"D  c #06E004",
"F  c #00EF00",
"G  c #00F100",
"H  c #18E615",
"J  c #1AFF1E",
"K  c #1CFF1E",
"L  c #1EFF1E",
"P  c #34DE22",
"I  c #4F9C20",
"U  c #509B29",
"Y  c #4CB20C",
"T  c #56A01A",
"R  c #769817",
"E  c #7D9419",
"W  c #74AA3A",
"Q  c #43C522",
"!  c #55C137",
"~  c #56CE56",
"^  c #60D650",
"/  c #77C94F",
"(  c #69EB6B",
")  c #75E365",
"_  c #895D34",
"`  c #886A2A",
"'  c #9D6C3C",
"]  c #A37024",
"[  c #A6753B",
"{  c #BA7D25",
"}  c #BC7F26",
"|  c #8D9A1C",
" . c #85B016",
".. c #81A331",
"X. c #84A232",
"o. c #A9941F",
"O. c #BE811E",
"+. c #AE844C",
"@. c #A38157",
"#. c #BA8947",
"$. c #B58851",
"%. c #ACB454",
"&. c #C98725",
"*. c #CD8829",
"=. c #CF8B2B",
"-. c #C28635",
";. c #CB8F36",
":. c #D18F2A",
">. c #D79227",
",. c #D7952C",
"<. c #DF922C",
"1. c #D49836",
"2. c #D99834",
"3. c #E6912D",
"4. c #E49937",
"5. c #EB9E38",
"6. c #F48D30",
"7. c #ECA328",
"8. c #E3A23C",
"9. c #F3AF3B",
"0. c #F7B03F",
"q. c #FBBC3E",
"w. c #FDBD3D",
"e. c #C79349",
"r. c #C99245",
"t. c #CC9740",
"y. c #CD9B48",
"u. c #D59841",
"i. c #D09848",
"p. c #D19E59",
"a. c #CEA051",
"s. c #DEA442",
"d. c #DAA24C",
"f. c #D2A156",
"g. c #D6A150",
"h. c #D5A860",
"j. c #D4AB6C",
"k. c #E5AF54",
"l. c #E6AF55",
"z. c #E8A654",
"x. c #EFB344",
"c. c #EBB558",
"v. c #EAB45D",
"b. c #EDB65C",
"n. c #F6BA4E",
"m. c #F5BC4B",
"M. c #F0BA57",
"N. c #E1B46B",
"B. c #EEB661",
"V. c #F1BC64",
"C. c #FFC746",
"Z. c #F6C053",
"A. c #F5C054",
"S. c #F6C25E",
"D. c #FFCC5F",
"F. c #FECE5E",
"G. c #FFD55E",
"H. c #EFC572",
"J. c #FBCE6A",
"K. c #FCCC6E",
"L. c #F6C975",
"P. c #FFCD75",
"I. c #FFD266",
"U. c #FFD06F",
"Y. c #FFD36D",
"T. c #FFD469",
"R. c #F4D171",
"E. c #FFD672",
"W. c #FCD378",
"Q. c #FED87D",
"!. c #FFDA7D",
"~. c #9AFF9C",
"^. c #A1EE92",
"/. c #A6F098",
"(. c #A8F39A",
"). c #A0FFA2",
"_. c #A3FFA5",
"`. c #E7C789",
"'. c #EDDE8D",
"]. c #E5D09F",
"[. c #F9D184",
"{. c #FADD9C",
"}. c #EBDCB2",
"|. c #FFE183",
" X c #FFE187",
".X c #FFE28F",
"XX c #FFE291",
"oX c #FFE094",
"OX c #FFE396",
"+X c #FFE397",
"@X c #FFE29E",
"#X c #FFEDA8",
"$X c #FFECB2",
"%X c #FFF1B3",
"&X c None",
/* pixels */
"&X&X&X&XB ) /.^./.^ , &X&X&X&X&X",
"&X&X&X&Xj ( ).~._.~ & &X&X&X&X&X",
"&X&X&X&X| H L L L P ` * &X&X&X&X",
"&X&Xx z v D F F F A Q s 7 &X&X&X",
"&X5.H.! N Z V V V Z M / +.- &X&X",
"&X] P.L.T j b b b h W @X+X#.; &X",
":.t.8.0.Z.I d h d ..z.B.V.i @ . ",
"2 a.{.M.D.R.U p X.E.K.r.[ r 4 . ",
"&X> y.[.c.W.'.%.M.b.h.].}.@.0 . ",
"&X&XO.9.v.d.l.4.u.N.`.j.y o . . ",
"&X&X,.w.x.s.;.-.i.g.1.7.8 . &X&X",
"&X&X2.D.T.E.!.J.A.n.C.w.6 . &X&X",
"&X&Xt l. XoX+X!.Y.I.G.n.5 . &X&X",
"&X&X&X9 f.#X%X.X|.K.e.r % . &X&X",
"&X&X&X&X3 $.$XoXp.u = . . . &X&X",
"&X&X&X&X&X1 ' _ - . . . &X&X&X&X"
};
