/* XPM */
static char *ark[] = {
/* columns rows colors chars-per-pixel */
"32 32 241 2",
"   c black",
".  c #20130A",
"X  c #301C10",
"o  c #382210",
"O  c #007700",
"+  c #007B00",
"@  c #107C06",
"#  c #492B18",
"$  c #533516",
"%  c #543319",
"&  c #5D371C",
"*  c #613920",
"=  c #683D22",
"-  c #64401A",
";  c #6B4021",
":  c #704224",
">  c #754822",
",  c #784725",
"<  c #7C4C24",
"1  c #7D4C29",
"2  c #018300",
"3  c #0E8803",
"4  c #009400",
"5  c #009E00",
"6  c #0D9C03",
"7  c #109308",
"8  c #109A09",
"9  c #00A500",
"0  c #00A800",
"q  c #0EA003",
"w  c #00B300",
"e  c #00BC00",
"r  c #10A20A",
"t  c #238208",
"y  c #308512",
"u  c #308A12",
"i  c #308C1D",
"p  c #309A1C",
"a  c #30A220",
"s  c #30AA23",
"d  c #3CB020",
"f  c #00C500",
"g  c #00C900",
"h  c #00D300",
"j  c #00DE00",
"k  c #1EDB1E",
"l  c #00E200",
"z  c #00E900",
"x  c #00F400",
"c  c #06FE06",
"v  c #08FE08",
"b  c #23D100",
"n  c #3ADF3A",
"m  c #29ED29",
"M  c #37FF37",
"N  c #39FF39",
"B  c #5E9614",
"V  c #5FA012",
"C  c #6F9F16",
"Z  c #7F9C19",
"A  c #68A414",
"S  c #74B641",
"D  c #40D720",
"F  c #4EDA30",
"G  c #5DDD40",
"H  c #56E256",
"J  c #53EF53",
"K  c #60C852",
"L  c #6FFF6F",
"P  c #74E672",
"I  c #71FF71",
"U  c #7DF17D",
"Y  c #814F27",
"T  c #855226",
"R  c #87552D",
"E  c #8B5626",
"W  c #8D5A23",
"Q  c #8E5C2F",
"!  c #915D26",
"~  c #935F31",
"^  c #956121",
"/  c #986325",
"(  c #9A6329",
")  c #9E6836",
"_  c #996B3D",
"`  c #A06728",
"'  c #A56B27",
"]  c #A46B2A",
"[  c #A86F2E",
"{  c #A26D33",
"}  c #AE7424",
"|  c #AB712B",
" . c #B27724",
".. c #B67C23",
"X. c #B5792D",
"o. c #BA7C2B",
"O. c #B07631",
"+. c #B57B32",
"@. c #B1783F",
"#. c #B97F35",
"$. c #AE7D43",
"%. c #AB7D4A",
"&. c #90981D",
"*. c #BF8225",
"=. c #BE802E",
"-. c #BD8334",
";. c #B99B2D",
":. c #9FAF41",
">. c #9FB249",
",. c #9FB552",
"<. c #9FB95A",
"1. c #B7814B",
"2. c #BA8541",
"3. c #BC864B",
"4. c #BD8944",
"5. c #BB9242",
"6. c #B6956B",
"7. c #BFB743",
"8. c #B0C262",
"9. c #C68626",
"0. c #C4832B",
"q. c #CA872A",
"w. c #CE8B2A",
"e. c #C28430",
"r. c #C3883B",
"t. c #CC8E33",
"y. c #D28D2A",
"u. c #D5922A",
"i. c #DD962B",
"p. c #D99631",
"a. c #DD9C35",
"s. c #D89A39",
"d. c #E09D34",
"f. c #E7A12C",
"g. c #ECA62C",
"h. c #E4A032",
"j. c #E4A23A",
"k. c #E6A83D",
"l. c #E9A633",
"z. c #EAAA3B",
"x. c #FCB62E",
"c. c #FFB82E",
"v. c #F3B33F",
"b. c #F8B738",
"n. c #FFBB34",
"m. c #FEBC3A",
"M. c #C08941",
"N. c #CD954B",
"B. c #CC9A4C",
"V. c #D19D4E",
"C. c #DD9F41",
"Z. c #C49C61",
"A. c #CFB954",
"S. c #D5A648",
"D. c #D9A14A",
"F. c #D4A15E",
"G. c #DCA352",
"H. c #DEA954",
"J. c #DBA95B",
"K. c #DDAB61",
"L. c #E2A649",
"P. c #E4A844",
"I. c #E4AA4C",
"U. c #E0A65C",
"Y. c #E8AE52",
"T. c #E7B158",
"R. c #EAB455",
"E. c #EAB45A",
"W. c #EDB854",
"Q. c #EFBF59",
"!. c #F7BC4A",
"~. c #F5B953",
"^. c #F5BB58",
"/. c #E5B666",
"(. c #ECB760",
"). c #ECBB64",
"_. c #E9BC70",
"`. c #F0B76F",
"'. c #F7BF60",
"]. c #F0BF6A",
"[. c #C7C469",
"{. c #CFC76A",
"}. c #CFD07A",
"|. c #EFC15C",
" X c #FFC144",
".X c #FFC44B",
"XX c #FFC651",
"oX c #FBC658",
"OX c #FFC855",
"+X c #FFCA5B",
"@X c #E6C776",
"#X c #F3C060",
"$X c #F1C269",
"%X c #FDC564",
"&X c #F9C368",
"*X c #FECC63",
"=X c #FFCA6A",
"-X c #F2C573",
";X c #F4CE7B",
":X c #FECD71",
">X c #FFD067",
",X c #FED16B",
"<X c #FFD473",
"1X c #FED479",
"2X c #FFD87D",
"3X c #A7FFA7",
"4X c #A8F2A7",
"5X c #A9FFA9",
"6X c #CEB282",
"7X c #D4BD90",
"8X c #E4C68C",
"9X c #EECF90",
"0X c #EFDC92",
"qX c #F2CA80",
"wX c #FFD584",
"eX c #FFD68A",
"rX c #FFDB83",
"tX c #FEDB8B",
"yX c #F7D792",
"uX c #FADA95",
"iX c #FFDF98",
"pX c #FFE08E",
"aX c #FFE294",
"sX c #FFE29B",
"dX c #EFE4A2",
"fX c #FDE5A3",
"gX c #F9E5AD",
"hX c #FFE8A4",
"jX c #FFEAAB",
"kX c #F3E4B4",
"lX c #FFEBB3",
"zX c #F9EBBA",
"xX c #FEF0BC",
"cX c #FFF6C6",
"vX c #FFF7CA",
"bX c #FDF8CF",
"nX c #F9F5D0",
"mX c #FFFFDB",
"MX c #E1FFE1",
"NX c gray100",
"BX c None",
/* pixels */
"BXBXBXBXBXBXBXBXBXBXb F G G G G G G G n b BXBXBXBXBXBXBXBXBXBXBX",
"BXBXBXBXBXBXBXBXBXBXh 4XMXMXMXMXMXMXMXP 2   BXBXBXBXBXBXBXBXBXBX",
"BXBXBXBXBXBXBXBXBXBXl 8.5X5X5X5X5X5X5XH +   BXBXBXBXBXBXBXBXBXBX",
"BXBXBXBXBXBXBXBXBXBXg J I I I I I I I n O   BXBXBXBXBXBXBXBXBXBX",
"BXBXBXBXBXBXBXBXBXBXw m M M M N N N N k &. .BXBXBXBXBXBXBXBXBXBX",
"BXBXBXBXBXBXBXBXBXi.A z c c c c v v v h 8.y. .BXBXBXBXBXBXBXBXBX",
"BXBXBXBXBX0 9 9 B A d l x x x x z x x g K S C 5 9 9 BXBXBXBXBXBX",
"BXBXBXBXBXZ q w f f f l z z z z z z z j f f f 9 6     BXBXBXBXBX",
"BXBXBXi.i.j.[.r g j j j l l j j j l l l j j e s 5.^ BXBXBXBXBXBX",
"BXBXBXi.E.iXiX}.8 g h h g h h h h h h g g e a dXfX4.] BXBXBXBXBX",
"BXBXBXi.j.wXwXwX{.7 e g g f g g g g g g w p 0XfXiXuX4./ BXBXBXBX",
"BXBXBXBXu.^.:X=X'.;.3 w e e e e e e f 0 t @XeXeXeXeXeX4.! BXBXBX",
"BXi.i.i.i.d.~.l.d.!.7.2 0 w w w w w 5 u S.o.].:X1X1XJ.( $   BXBX",
"BXi.i./.I.i.i.v..X+X*X:.+ 5 0 0 0 4 y |.=XT.+.T.%XD.( $     BXBX",
"BXBX*.d.lXbXI.z.+X+X*X<X>.+ 4 5 4 y |.*X=X:X].[ r.! $     BXBXBX",
"BXBXBX9.h.gXcX/.z.*X,X<X2X,.+ 2 @ Q.%X=X=X:X:XM.[ ~ ! E E T BXBX",
"BXBXBXBX..a.yXlXE.a.,X1XrXtX<.i A.%X*X=X:XB.] 6XnXmXmX6.T >   BX",
"BXBXBXBXBXu.i.-XsXT.s.2XpXpXsXtX^.%X=XH.O.Z.kXvXvX7X_ < o     BX",
"BXBXBXBXBXi.f.u.).eXE.t.;XtXW.i.i.C.#.3.9XgXjX8X%.T %       BXBX",
"BXBXBXBXBXi.g.c.i.D.&XR.0.u.i.u.o.+._.eXeX;X2.( (       BXBXBXBX",
"BXBXBXBXBXu.l.n.m.a.t.0.9.o.*.| V.=X=X&X3.( u.c.]   BXBXBXBXBXBX",
"BXBXBXBXBXu.z. X.XXXOXoXW.S.B.-.-.` | ] t.b.n.c.`   BXBXBXBXBXBX",
"BXBXBXBXBXw.k.OXOX*X*X,X,X<X2X>X+XOXXX.X.X Xm.m.(   BXBXBXBXBXBX",
"BXBXBXBXBXq.P.*X*X,X<X<X2X2XpX>X*X+X+XOX.X.X.Xm.(   BXBXBXBXBXBX",
"BXBXBXBXBX0.q.#X<X2X2XrXtXpXpX<X,X>X*X+X+XOX.X.X)   BXBXBXBXBXBX",
"BXBXBXBXBXBX} =.$XrXpXaXaXsXpX2X2X<X,X*X*X+XOX~.Q   BXBXBXBXBXBX",
"BXBXBXBXBXBXBX^ X./.aXhXjXjXsXpX2X2X<X<X*X*X2.1 *   BXBXBXBXBXBX",
"BXBXBXBXBXBXBXBXW ] K.hXlXxXsXpXpXrX2X=XN.R = X     BXBXBXBXBXBX",
"BXBXBXBXBXBXBXBXBXW ` F.lXvXjXaXpX<XG.~ : #       BXBXBXBXBXBXBX",
"BXBXBXBXBXBXBXBXBXBX- ! 3.lXjXeXU.) , %       BXBXBXBXBXBXBXBXBX",
"BXBXBXBXBXBXBXBXBXBXBX< E 1.`.@.1 &       BXBXBXBXBXBXBXBXBXBXBX",
"BXBXBXBXBXBXBXBXBXBXBXBX> < T = .     BXBXBXBXBXBXBXBXBXBXBXBXBX"
};
