/* XPM */
static char *kcalc[] = {
/* columns rows colors chars-per-pixel */
"32 32 192 2",
"   c black",
".  c #17172C",
"X  c #18182E",
"o  c #20203C",
"O  c #212140",
"+  c #262648",
"@  c #2F2F5A",
"#  c #303059",
"$  c #363668",
"%  c #3D3D74",
"&  c #0F7F10",
"*  c #44447C",
"=  c #454584",
"-  c #484889",
";  c #4D4D93",
":  c #525286",
">  c #52529B",
",  c #5454A1",
"<  c #5B5BA4",
"1  c #5C5DA8",
"2  c #656594",
"3  c #747497",
"4  c #6060A2",
"5  c #6364AC",
"6  c #6B6BA3",
"7  c #6C6CAA",
"8  c #6C6DB2",
"9  c #7272A0",
"0  c #7070AE",
"q  c #7273B3",
"w  c #7274B9",
"e  c #7979B3",
"r  c #7D7EB9",
"t  c #088A08",
"y  c #169416",
"u  c #00B500",
"i  c #00BE00",
"p  c #2D8C31",
"a  c #219221",
"s  c #269C29",
"d  c #2E9E31",
"f  c #309430",
"g  c #21AC21",
"h  c #26BC26",
"j  c #3FBF3F",
"k  c #00C600",
"l  c #07CA07",
"z  c #0CCD0C",
"x  c #16C316",
"c  c #16CB16",
"v  c #1FC61F",
"b  c #1ACB1A",
"n  c #12D012",
"m  c #2AC02A",
"M  c #22D422",
"N  c #2BD42B",
"B  c #33C033",
"V  c #44AA45",
"C  c #5DA65F",
"Z  c #58AE58",
"A  c #54B358",
"S  c #5EA660",
"D  c #6DAF6D",
"F  c #6FAF70",
"G  c #67B96C",
"H  c #70A979",
"J  c #77B17C",
"K  c #7CB87C",
"L  c #45D545",
"P  c #4BD64B",
"I  c #67D367",
"U  c #6FDE6F",
"Y  c #7BCA7E",
"T  c #75DE75",
"R  c #79E179",
"E  c #B31F21",
"W  c #AF3A40",
"Q  c #D31818",
"!  c #F40707",
"~  c #FD0C0C",
"^  c #FF2828",
"/  c #D26062",
"(  c #FE6262",
")  c #B47180",
"_  c #BA7180",
"`  c #8384BB",
"'  c #8989BF",
"]  c #9292BC",
"[  c #9C9CBD",
"{  c #8CB898",
"}  c #90BE9F",
"|  c #BF838F",
" . c #B68099",
".. c #A4A4BE",
"X. c #8285C4",
"o. c #8689C5",
"O. c #8D8DC1",
"+. c #898DCB",
"@. c #9393C4",
"#. c #9B9CCB",
"$. c #9A9DD2",
"%. c #9DA1D4",
"&. c #9DA2DA",
"*. c #A3A3CC",
"=. c #AAAACF",
"-. c #A2A4D4",
";. c #A2A6D9",
":. c #A4A9DB",
">. c #ABACD3",
",. c #AAAEDC",
"<. c #AEB1DC",
"1. c #B3B3D5",
"2. c #B2B4DB",
"3. c #BABAD5",
"4. c #BBBBDA",
"5. c #A3AAE2",
"6. c #A8AEE1",
"7. c #AEB3E0",
"8. c #AFB6E8",
"9. c #B6BAE2",
"0. c #B3BAE9",
"q. c #B8BBE1",
"w. c #B9BFEB",
"e. c #B6BFF3",
"r. c #92C29F",
"t. c #90CC96",
"y. c #8DE38D",
"u. c #9EE99E",
"i. c #AAC1BF",
"p. c #A6D3AA",
"a. c #B2D9B2",
"s. c #A7E0A7",
"d. c #A2EAA2",
"f. c #BFE1BF",
"g. c #AAC2C4",
"h. c #BCC4D5",
"j. c #B5D6C4",
"k. c #BEDCCC",
"l. c #BEC1E4",
"z. c #BEC5F2",
"x. c #D6A1AB",
"c. c #D1B0BF",
"v. c #FF9393",
"b. c #EABEBE",
"n. c #C1CFCF",
"m. c #C2C2DE",
"M. c #C7CEDB",
"N. c #D0C5DF",
"B. c #D5C9DF",
"V. c #C3C5E3",
"C. c #C1C5EB",
"Z. c #C6CAEB",
"A. c #CDCDE4",
"S. c #C9CDEC",
"D. c #C4CBF2",
"F. c #C4CCF9",
"G. c #C9CEF0",
"H. c #CED1ED",
"J. c #CCD1F2",
"K. c #CBD4FE",
"L. c #CFD8FF",
"P. c #D0D0E5",
"I. c #D3D4EC",
"U. c #DBDCED",
"Y. c #D1D6F3",
"T. c #D0D7FC",
"R. c #D4D9F5",
"E. c #D3DAFE",
"W. c #DADEF4",
"Q. c #D8DFFF",
"!. c #CAE8CA",
"~. c #C3F1C3",
"^. c #CAF3CA",
"/. c #D2E3DF",
"(. c #D3F5D3",
"). c #D7E2EF",
"_. c #DEE5E6",
"`. c #DCE9E9",
"'. c #DEE0F4",
"]. c #DBE1FE",
"[. c #FFCDCD",
"{. c #E7EEEF",
"}. c #E1E3F4",
"|. c #E1E6FE",
" X c #E5E9FD",
".X c #EBEBF4",
"XX c #E9EDFE",
"oX c #EEF1FF",
"OX c #F1F1F7",
"+X c #F1F4FE",
"@X c #FEFEFF",
"#X c None",
/* pixels */
"#X#X#X#X#X#X#X#X#X#X#X#X#X#X#X#X@.' ' ` 2   #X#X#X#X#X#X#X#X#X#X",
"#X#X#X#X#X#X#X#X#X#X#X#X#X#X#.@.@.' #.r 6     #X#X#X#X#X#X#X#X#X",
"#X#X#X#X#X#X#X#X#X#X#X#X*.#.#.@.>.i./.' 0     #X#X#X#X#X#X#X#X#X",
"#X#X#X#X#X#X#X#X#X#X=.=.*.#.4.{ S Z & V.8 :     #X#X#X#X#X#X#X#X",
"#X#X#X#X#X#X#X#X1.1.=.=.h.H S a.(.y.y r.q <     #X#X#X#X#X#X#X#X",
"#X#X#X#X#Xm.4.4.1.4.M.J D f.(.T x i u p #.< @   #X#X#X#X#X#X#X#X",
"#X#X#XA.M.m.4.m.n.S D !.^.u.v i i k z t g.< ;     #X#X#X#X#X#X#X",
"#X#X#XA.V.P._.F K !.^.d.R x i k z M h p ).` , O   #X#X#X#X#X#X#X",
"#X#X#XV.A.@Xf s.~.u.T P c k z M m d }  X Xq., =     #X#X#X#X#X#X",
"#X#X#X3.4.OXa I U L b l z N h s r. Xc.| B.].5 >     #X#X#X#X#X#X",
"#X#X#X..4.A.p.g c z n N B A j. XXXc.b.[./ B.$., %     #X#X#X#X#X",
"#X#X#X  =.>.{.V c N j G k.XXW.V.J.x.v.( ! ) R., ;     #X#X#X#X#X",
"#X#X#X#X[ =.I.p.Y t.`.oXXX X.X@X'. .^ ~ ~ _ ].o., o   #X#X#X#X#X",
"#X#X#X#X  #.=.+X+X+X'.W.I.W.+X XL.-.W Q E N.].0., -     #X#X#X#X",
"#X#X#X#X  ] @.I.+X X.X@X}.4.T.T.].-.].].J.l.J.Q.8 >     #X#X#X#X",
"#X#X#X#X#X3 @.>.oX}.oX|.K.-.V.2.%.G.].Y.oX@XV.F.:., *     #X#X#X",
"#X#X#X#X#X  ` ' }.}.J.Q.].%.].].R.J.E.W.oX].F.%.F.1 ;     #X#X#X",
"#X#X#X#X#X#X3 ` <.XXS.2.*.J. XY..X@XV.Z.].T.Q.%.T.+., @   #X#X#X",
"#X#X#X#X#X#X  e r ].XX X].V.J.'.+X XF.;.9.V.#.D.L.z., ;     #X#X",
"#X#X#X#X#X#X#X7 q 4. X].}.@X}.<.].L.R.%.E.T.J.}.U.8.w ,     #X#X",
"#X#X#X#X#X#X#X  7 e ].'.oXXXL.:.9.Z.#.D.T.T.U.+X X$.&., =     #X",
"#X#X#X#X#X#X#X  4 1 V.].J.E.].7.].z.D.I.H.z.H.].T.w.e.5 >     #X",
"#X#X#X#X#X#X#X#X* 1 X.].Z.2.<.<.E.Q.).@XoX;.D.D.].$.e.8 ,     #X",
"#X#X#X#X#X#X#X#X  > , J.].].R.S.z.E.}.|.L.6.K.8.$.X.1 , -     #X",
"#X#X#X#X#X#X#X#X#X- , $.].].'.@XXX,.z.T.].$.K.5.5 , > @       #X",
"#X#X#X#X#X#X#X#X#X  > 1 Q.Q.}.XXT.%.K.<.:.$.w , , %           #X",
"#X#X#X#X#X#X#X#X#X#X; , :.Q.J.E.].-.K.F.+., , - X           #X#X",
"#X#X#X#X#X#X#X#X#X#X  > 8 T.z.2.>.6.&.1 , ; +           #X#X#X#X",
"#X#X#X#X#X#X#X#X#X#X  > , 8.T.L.8.w , , $           #X#X#X#X#X#X",
"#X#X#X#X#X#X#X#X#X#X#X% , o.F.X., , -           #X#X#X#X#X#X#X#X",
"#X#X#X#X#X#X#X#X#X#X#X  > , 1 , ; .           #X#X#X#X#X#X#X#X#X",
"#X#X#X#X#X#X#X#X#X#X#X#X; , > $           #X#X#X#X#X#X#X#X#X#X#X"
};
