/* XPM */
static char *kcalc-16[] = {
/* columns rows colors chars-per-pixel */
"16 16 174 2",
"   c #000000",
".  c #000001",
"X  c #010101",
"o  c #010102",
"O  c #010103",
"+  c #020205",
"@  c #030205",
"#  c #020207",
"$  c #030306",
"%  c #040408",
"&  c #040409",
"*  c #070711",
"=  c #090912",
"-  c #0B0B11",
";  c #0B0B15",
":  c #0C0C18",
">  c #0E0E18",
",  c #18171D",
"<  c #18181F",
"1  c #121224",
"2  c #141325",
"3  c #151429",
"4  c #15152B",
"5  c #20203F",
"6  c #36363E",
"7  c #202040",
"8  c #202041",
"9  c #212142",
"0  c #212242",
"q  c #222241",
"w  c #2F2F59",
"e  c #38384C",
"r  c #363651",
"t  c #32315D",
"y  c #393956",
"u  c #353664",
"i  c #3B3B6A",
"p  c #3B3B6D",
"a  c #3E3E71",
"s  c #45467B",
"d  c #4D4D76",
"f  c #545368",
"g  c #555470",
"h  c #6E6E6C",
"j  c #6F6F6E",
"k  c #6F6F6F",
"l  c #686779",
"z  c #7D7D7D",
"x  c #7F7F7F",
"c  c #4E4E91",
"v  c #50518E",
"b  c #545597",
"n  c #585994",
"m  c #5A5B9A",
"M  c #6F6E89",
"N  c #676F9D",
"B  c #6061A1",
"V  c #6B6BA3",
"C  c #6E6FAE",
"Z  c #7777A2",
"A  c #7072AF",
"S  c #7275B3",
"D  c #7174B8",
"F  c #7B7DBD",
"G  c #38B53D",
"H  c #3DA747",
"J  c #0AC40A",
"K  c #1DC91C",
"L  c #1CCA1C",
"P  c #29C92A",
"I  c #2FC332",
"U  c #46CC49",
"Y  c #4CCB4B",
"T  c #42D642",
"R  c #75C475",
"E  c #74C47A",
"W  c #71DA70",
"Q  c #75DC75",
"!  c #7F83C4",
"~  c #7BC681",
"^  c #DB4148",
"/  c #D46875",
"(  c #D87986",
")  c #808080",
"_  c #878788",
"`  c #8A8A8B",
"'  c #898BAB",
"]  c #8585BD",
"[  c #8E8FBD",
"{  c #8898B7",
"}  c #989CB2",
"|  c #89B29B",
" . c #85A5A3",
".. c #99A7BA",
"X. c #A5B7BD",
"o. c #B4B4BD",
"O. c #B7BDB2",
"+. c #878BCA",
"@. c #8D8DC2",
"#. c #989DD6",
"$. c #989DD7",
"%. c #9FA2D5",
"&. c #A4A5D2",
"*. c #A3A7DB",
"=. c #AFAFD5",
"-. c #AEB0C9",
";. c #A9AEE0",
":. c #A9AEE1",
">. c #ABB0E1",
",. c #B0B3E0",
"<. c #B3B8E6",
"1. c #88CF8A",
"2. c #89D393",
"3. c #9CC2A9",
"4. c #9FD9A0",
"5. c #A1C9A8",
"6. c #B4DFBD",
"7. c #B3C8C4",
"8. c #BFC1D5",
"9. c #BCCDD1",
"0. c #BFD8D4",
"q. c #BBC0EA",
"w. c #BCC1EB",
"e. c #BEC2E9",
"r. c #BEC3E9",
"t. c #BCC2ED",
"y. c #BEC5EF",
"u. c #F28589",
"i. c #C8B2CF",
"p. c #C4BFDD",
"a. c #C6D0D7",
"s. c #D8C2D2",
"d. c #C2C7EE",
"f. c #C3C8EF",
"g. c #C5C9EC",
"h. c #C6CAED",
"j. c #C7CCEE",
"k. c #C8CDEE",
"l. c #C9CDEE",
"z. c #CBCFEF",
"x. c #C2C8F0",
"c. c #C5CAF0",
"v. c #C6CBF0",
"b. c #C7CCF0",
"n. c #C7CDF0",
"m. c #CDD0EC",
"M. c #CCD2F5",
"N. c #CED3F5",
"B. c #CED4F4",
"V. c #CED5F6",
"C. c #D2C9E3",
"Z. c #DAD5E9",
"A. c #DAD9E4",
"S. c #D0D5F3",
"D. c #D2D5F0",
"F. c #D1D6F4",
"G. c #D3D8F3",
"H. c #DADEF6",
"J. c #DCDFF4",
"K. c #DCDFF5",
"L. c #D9DDF8",
"P. c #D9DFF9",
"I. c #D3E2E1",
"U. c #DCE1F9",
"Y. c #DDE1F9",
"T. c #DFE3F9",
"R. c #E1E1EF",
"E. c #E1E3F7",
"W. c #E3E7FA",
"Q. c #E6EAFD",
"!. c #E8E9FA",
"~. c #E8EAFC",
"^. c gray100",
"/. c None",
/* pixels */
"/./././././.2 g [ @.r /././././.",
"/././.  , f ' ..|  .g @ /./././.",
"/._ 6 l } X.3.1.Y H N 2 /./././.",
"/.Z.a.7.5.4.W K J G { t   /././.",
"/.R.a.R Q T L I E O.p.n ; /././.",
"/.o.-.E P Y 2.0.s.u.( ] 9 /././.",
"/._ M 9.6.I.E.Q.i.^ / ,.s & /./.",
"/./.e =.!.!.b.b.e.C.Z.f.S 3 /./.",
"/./.- Z z.D.r.F.J.F.P.t.#.u   /.",
"/././.y &.Y.J.D.L.e.f.l.e.m * /.",
"/././.> V z.Y.d.d.f.B.H.f.! 8 /.",
"/./././.i &.F.f.M.Y.b.y.*.D 9 j ",
"/./././.4 C V.W.b.f.>.+.v 9 $ j ",
"/./././.$ p :.B.<.#.B t :     k ",
"/././././.9 F :.S p 1       /./.",
"/././././.; c b 9 &     /./././."
};
