/* XPM */
static char *kdf[] = {
/* columns rows colors chars-per-pixel */
"32 32 161 2",
"   c black",
".  c #001E01",
"X  c #1D0200",
"o  c #003302",
"O  c #200300",
"+  c #005500",
"@  c #006302",
"#  c #00640F",
"$  c #006C15",
"%  c #007705",
"&  c #007B0B",
"*  c #007E10",
"=  c #006B7A",
"-  c #00777F",
";  c #520900",
":  c #5E0500",
">  c #640800",
",  c #7C1300",
"<  c #0033B8",
"1  c #0030C6",
"2  c #00449F",
"3  c #0043BD",
"4  c #004BB9",
"5  c #00669D",
"6  c #204BB6",
"7  c #3058BD",
"8  c #004CCB",
"9  c #0041D1",
"0  c #0050CD",
"q  c #0052D0",
"w  c #1057D3",
"e  c #005DE5",
"r  c #0060DF",
"t  c #006DDF",
"y  c #106EDB",
"u  c #0064E0",
"i  c #006CE2",
"p  c #006CEB",
"a  c #0071EE",
"s  c #0079E4",
"d  c #007CEB",
"f  c #0076F1",
"g  c #00850F",
"h  c #008C00",
"j  c #008E15",
"k  c #009701",
"l  c #00940F",
"z  c #009907",
"x  c #009217",
"c  c #00911A",
"v  c #009B15",
"b  c #00A204",
"n  c #00AE0D",
"m  c #00A414",
"M  c #00AC13",
"N  c #00AC1F",
"B  c #00B707",
"V  c #00B409",
"C  c #00BA02",
"Z  c #00BD0E",
"A  c #00B411",
"S  c #00B218",
"D  c #00BA10",
"F  c #00BB19",
"G  c #00A920",
"H  c #2E931D",
"J  c #00994F",
"K  c #00C20D",
"L  c #00CB0B",
"P  c #00C711",
"I  c #00D405",
"U  c #00D20A",
"Y  c #00DC04",
"T  c #00DA08",
"R  c #00C033",
"E  c #00D325",
"W  c #00E406",
"Q  c #00EB04",
"!  c #00E118",
"~  c #00F302",
"^  c #00FA01",
"/  c #409F21",
"(  c #40A525",
")  c #40AC29",
"_  c #40A736",
"`  c #0082EF",
"'  c #0083F1",
"]  c #008CF3",
"[  c #0091F4",
"{  c #009BF3",
"}  c #009DFF",
"|  c #00A4FF",
" . c #00ABFE",
".. c #00B3FE",
"X. c #00BAFE",
"o. c #26ACFF",
"O. c #00C2FE",
"+. c #00CAFE",
"@. c #00D3FE",
"#. c #00DBFE",
"$. c #00E1FF",
"%. c #831900",
"&. c #9A1B01",
"*. c #962200",
"=. c #A01A02",
"-. c #AE1D01",
";. c #A92A00",
":. c #BB2C03",
">. c #B93503",
",. c #9F6D6A",
"<. c #BF664A",
"1. c #CC3900",
"2. c #CF3B08",
"3. c #DC3308",
"4. c #EE3606",
"5. c #FF3F09",
"6. c #D64103",
"7. c #CF5C35",
"8. c #E14A0D",
"9. c #EE5B13",
"0. c #FF440C",
"q. c #FF4807",
"w. c #FF4B0D",
"e. c #FF4C10",
"r. c #FE5600",
"t. c #FF510D",
"y. c #FE5E06",
"u. c #FF5C0B",
"i. c #FF5412",
"p. c #FF5C14",
"a. c #FF5A18",
"s. c #FE630B",
"d. c #F16315",
"f. c #F5651A",
"g. c #F56918",
"h. c #FF6511",
"j. c #FF641B",
"k. c #FF6914",
"l. c #FD6B1D",
"z. c #FE731C",
"x. c #FE791E",
"c. c #FF6620",
"v. c #FF6C22",
"b. c #FF7323",
"n. c #FF7729",
"m. c #FF7B24",
"M. c #FF7C2A",
"N. c #CF6F45",
"B. c #EF863F",
"V. c #FF8227",
"C. c #FF832C",
"Z. c #FF8A2C",
"A. c #FF8532",
"S. c #FF8C33",
"D. c #FF9334",
"F. c #FF9338",
"G. c #FF9836",
"H. c #FF9B3A",
"J. c #FFA040",
"K. c gray100",
"L. c None",
/* pixels */
"L.L.L.L.L.L.L.L.L.L.L.L.L.L.L.p p { p e L.L.L.L.L.L.L.L.L.L.L.L.",
"L.L.L.L.L.L.L.L.L.L.L.L.L.a p { @.$.+.r 3 L.L.L.L.L.L.L.L.L.L.L.",
"L.L.L.L.L.L.L.L.L.L.L.L.a ] O.$.$.$.$.#.t 3 L.L.L.L.L.L.L.L.L.L.",
"L.L.L.L.L.L.L.L.L.L.f ' O.#.#.#.#.#.#.#.@.r 9 L.L.L.L.L.L.L.L.L.",
"L.L.L.L.L.L.L.L.L.'  .@.@.@.@.@.@.@.@.@.@.+.s < L.L.L.L.L.L.L.L.",
"L.L.L.L.L.L.L.L.L.] #.+.+.+.+.+.+.+.+.+.+.+.+.i 1 L.L.L.L.L.L.L.",
"L.L.L.L.L.L.L.L.L.] $.#.O.X.O.O.O.X.O.X.O.O.O.X.8   L.L.L.L.L.L.",
"L.L.L.L.L.L.L.L.L.] $.$.@.X...X.X.X.X.X.X. .....q   L.L.L.L.L.L.",
"L.L.L.L.L.L.L.L.r.` $.$.#.#... . ... . . . .....q   L.L.L.L.L.L.",
"L.L.L.L.L.L.r.s.Z.` @.#.#.@.+...| | | |  . ...X.0   L.L.L.L.L.L.",
"L.L.L.L.r.y.x.H.H.d @.@.@.@.@.@.o.} } |  . .X.X.0   L.L.L.L.L.L.",
"L.L.L.r.x.G.H.F.D.d +.+.+.+.+.+. .} |  .....X.O.8   L.L.L.L.L.L.",
"L.L.L.x.G.D.D.Z.Z.p O.O.O.+.O.O.| |  . ...X.X.O.8   L.L.L.L.L.L.",
"L.L.L.m.J.Z.V.V.m.,.d X.X.X.O.X.| |  ...X.X.O.O.8   L.L.L.L.L.L.",
"L.L.L.x.H.F.V.z.x.z.<.y ....X... . . ...X.X.X.i = $ L.L.L.L.L.L.",
"L.L.L.z.F.D.D.m.k.k.s.7.w  ... . . ..... .t - ! ^ F c L.L.L.L.L.",
"L.L.L.l.S.S.S.C.z.u.u.p.N.7 [  . . ...d 5 E ^ ^ ^ ^ P c L.L.L.L.",
"L.L.L.g.A.C.V.m.M.b.n.F.F.B.6 ]  .d 5 R ^ ^ ^ ^ ^ ^ ^ P j L.L.L.",
"L.L.L.d.M.M.n.m.b.b.S.A.A.M._ 2 4 J W W W W W W W W W W K g L.L.",
"L.L.L.9.b.b.b.b.l.l.M.n.n.n.) m D U U U U U U U U U U U U n   L.",
"L.L.L.6.f.l.l.j.l.j.b.v.v.c.) m M Z K D K K D K D K K K U V   L.",
"L.L.L.1.>.9.j.j.p.p.c.c.a.a.( M A Z K A M M M M M V K L T B   L.",
"L.L.L.L.  ;.8.p.p.i.a.i.e.e./ A D K L U m v v m S Z L U W B   L.",
"L.L.L.L.L.L.*.2.t.w.e.0.0.3.H A Z L U U T M v M Z K U W W B   L.",
"L.L.L.L.L.L.L.%.:.q.0.4.=.: G Z L L T T W K m A Z L T W ~ C   L.",
"L.L.L.L.L.L.L.L., &.-.> X   G K L U T W Q L M Z K U W Q ~ C   L.",
"L.L.L.L.L.L.L.L.L.; O       N S L U W W ~ U A K U T Q ~ ^ C   L.",
"L.L.L.L.L.L.L.L.L.L.    L.L.L.j M T W ~ ~ T Z L U W Q ^ Y h   L.",
"L.L.L.L.L.L.L.L.L.L.L.L.L.L.L.L.# v T ~ ^ W K U T Q Y k +     L.",
"L.L.L.L.L.L.L.L.L.L.L.L.L.L.L.L.L.* l W ^ Y L T Y b @       L.L.",
"L.L.L.L.L.L.L.L.L.L.L.L.L.L.L.L.L.L.& & I W L z @ .     L.L.L.L.",
"L.L.L.L.L.L.L.L.L.L.L.L.L.L.L.L.L.L.L.  & z % o       L.L.L.L.L."
};
