/* XPM */
static char *kedit-16[] = {
/* columns rows colors chars-per-pixel */
"16 16 164 2",
"   c black",
".  c #020000",
"X  c #050300",
"o  c #050600",
"O  c #060600",
"+  c #1B0000",
"@  c #1C0000",
"#  c #1C0101",
"$  c #1D0000",
"%  c #191603",
"&  c #1D160E",
"*  c #1F190E",
"=  c #3D0000",
"-  c #31300B",
";  c #460406",
":  c #4E000D",
">  c #560207",
",  c #57070C",
"<  c #580107",
"1  c #503C20",
"2  c #660104",
"3  c #54470B",
"4  c #585614",
"5  c #5C5C17",
"6  c #7F4816",
"7  c #990002",
"8  c #9A0306",
"9  c #9A0407",
"0  c #9C0408",
"q  c #9D090C",
"w  c #9E0F17",
"e  c #9A1319",
"r  c #9F273A",
"t  c #A60609",
"y  c #AD0F16",
"u  c #A5171A",
"i  c #A61619",
"p  c #A2293C",
"a  c #A4293B",
"s  c #814712",
"d  c #804816",
"f  c #964212",
"g  c #9F4E1A",
"h  c #934220",
"j  c #975626",
"k  c #985726",
"l  c #A04F1B",
"z  c #A1531C",
"x  c #BA4639",
"c  c #BA4739",
"v  c #B07B2D",
"b  c #B07C2D",
"n  c #8F7748",
"m  c #BB4144",
"M  c #BF4158",
"N  c #BB525D",
"B  c #C9323D",
"V  c #D73E49",
"C  c #CB4D5B",
"Z  c #CA5054",
"A  c #D94754",
"S  c #D05A46",
"D  c #D75E5B",
"F  c #C15665",
"G  c #CB5B7A",
"H  c #D95F66",
"J  c #DD5967",
"K  c #CF624F",
"L  c #CE6250",
"P  c #DC635E",
"I  c #D27D4F",
"U  c #D47E4F",
"Y  c #C6636B",
"T  c #CA6265",
"R  c #CF6A6A",
"E  c #D46361",
"W  c #D8666B",
"Q  c #D0777F",
"!  c #E25F6D",
"~  c #E4606E",
"^  c #E4626F",
"/  c #E1686C",
"(  c #E76B6C",
")  c #E9606B",
"_  c #EC666F",
"`  c #EE666F",
"'  c #E26272",
"]  c #E36474",
"[  c #E46370",
"{  c #E66775",
"}  c #E96671",
"|  c #EA6670",
" . c #EC6473",
".. c #ED6D76",
"X. c #E96E7A",
"o. c #EF6A78",
"O. c #E87F6B",
"+. c #E97E6A",
"@. c #E47777",
"#. c #F06B73",
"$. c #A56787",
"%. c #BF6E81",
"&. c #B47E94",
"*. c #C37699",
"=. c #CF7F94",
"-. c #CC7F9A",
";. c #F07880",
":. c #9D9310",
">. c #B79E7E",
",. c #FC941C",
"<. c #FC9923",
"1. c #FF9A24",
"2. c #FF9A25",
"3. c #FFB407",
"4. c #FFB507",
"5. c #E4BE34",
"6. c #D48351",
"7. c #D89A58",
"8. c #D79C79",
"9. c #C7A150",
"0. c #FDAE46",
"q. c #F0B853",
"w. c #FFC118",
"e. c #FFD702",
"r. c #FFD40A",
"t. c #FFD40B",
"y. c #FFD70A",
"u. c #F2D511",
"i. c #FFEE1C",
"p. c #FFEF1D",
"a. c #FFF11B",
"s. c #FFFB1E",
"d. c #FFFC1E",
"f. c #FFF024",
"g. c #FDF753",
"h. c #AFBFE2",
"j. c #B0C0E0",
"k. c #BDECFF",
"l. c #DB8585",
"z. c #C482A2",
"x. c #EB8585",
"c. c #F0858D",
"v. c #F4969E",
"b. c #F19DA4",
"n. c #EFACAF",
"m. c #F4A8AE",
"M. c #FAA7AA",
"N. c #F9A8AC",
"B. c #F4B2B6",
"V. c #F7B0B4",
"C. c #F7B7BC",
"Z. c #C8BFE3",
"A. c #DDD2D6",
"S. c #C6EDFF",
"D. c #E3D5DD",
"F. c #E6D4DC",
"G. c #F9C0C3",
"H. c #FDC8C9",
"J. c #FACED0",
"K. c #FAD8DB",
"L. c #EAFDFF",
"P. c #FDE2E3",
"I. c gray100",
"U. c None",
/* pixels */
"U.U.U.U.U.U.U.U.U.U.U.U.f.9.& U.",
"U.U.q 8 U.t 2 U.U.U.U.i.i.5.n * ",
"U.U.u m 0 *.=.> U.U.s.i.r.4.0.1 ",
"U.7 T P.Y D.I.-.: :.s.e.4.1.s X ",
"U.u n.K.J.l.D.L.8.u.r.4.1.6   U.",
"8 Z C.G.H.B.Q A.g.e.4.1.6   U.U.",
"y x.N.M.m.V.b.R q.w.,.f   U.U.U.",
"h 6.P o.;.c.v.@.S 7.>.$.< U.U.U.",
"5 l K +.! _ ..W H N j.S.*.,   U.",
"O - b x ( .._ | X.! F j.k.G = U.",
"U.U.3 k U D  .| ^ ] A &.Z.a @ U.",
"U.U.U.4 l K O.~ ^ ' C z.p + U.U.",
"U.U.U.O - v x / { J M r @ U.U.U.",
"U.U.U.U.U.3 j I E V w @ U.U.U.U.",
"U.U.U.U.U.U.4 z B e + U.U.U.U.U.",
"U.U.U.U.U.U.O % ; @ U.U.U.U.U.U."
};
