/* XPM */
static char *kfloppy[] = {
/* columns rows colors chars-per-pixel */
"32 32 242 2",
"   c black",
".  c #000015",
"X  c #02021E",
"o  c #180F07",
"O  c #010122",
"+  c #080836",
"@  c #0C0C3B",
"#  c #181821",
"$  c #10133C",
"%  c #1F143E",
"&  c #35210F",
"*  c #362110",
"=  c #010142",
"-  c #0D0D4B",
";  c #141740",
":  c #16164E",
">  c #191B45",
",  c #1C1F49",
"<  c #141451",
"1  c #1C1C55",
"2  c #1C2A54",
"3  c #21244E",
"4  c #24245C",
"5  c #252953",
"6  c #2B2D5B",
"7  c #25335C",
"8  c #30345E",
"9  c #2B2B61",
"0  c #2C3B64",
"q  c #323265",
"w  c #353963",
"e  c #3A3B6A",
"r  c #3E3E70",
"t  c #2D487C",
"y  c #364065",
"u  c #34426B",
"i  c #3D486E",
"p  c #3D4B74",
"a  c #402713",
"s  c #432A12",
"d  c #553617",
"f  c #553518",
"g  c #643E1A",
"h  c #633F32",
"j  c #774922",
"k  c #7F4E25",
"l  c #44445D",
"z  c #42436E",
"x  c #494964",
"c  c #4E4E6B",
"v  c #434373",
"b  c #424C73",
"n  c #484A74",
"m  c #4B4B78",
"M  c #475277",
"N  c #425179",
"B  c #4C557B",
"V  c #53536D",
"C  c #515174",
"Z  c #52527B",
"A  c #58587F",
"S  c #755F5B",
"D  c #63636F",
"F  c #626273",
"G  c #62627D",
"H  c #6F6F7F",
"J  c #796E78",
"K  c #3C5585",
"L  c #4F5E84",
"P  c #545B80",
"I  c #5B5B83",
"U  c #566286",
"Y  c #556388",
"T  c #5D6186",
"R  c #5C698D",
"E  c #576C96",
"W  c #636389",
"Q  c #65698C",
"!  c #6A6783",
"~  c #6A6A8C",
"^  c #616E91",
"/  c #657396",
"(  c #6A7799",
")  c #6C7A9B",
"_  c #77778C",
"`  c #7B7B8D",
"'  c #737393",
"]  c #727698",
"[  c #737F9E",
"{  c #7F7F94",
"}  c #797A9B",
"|  c #6B7EA2",
" . c #717FA0",
".. c #7F7FA0",
"X. c #7587A9",
"o. c #7788AA",
"O. c #7A84A4",
"+. c #7C89A7",
"@. c #7D8CAC",
"#. c #835223",
"$. c #895526",
"%. c #8F5A26",
"&. c #955C25",
"*. c #945F2A",
"=. c #9D5E21",
"-. c #9A632A",
";. c #A4621F",
":. c #BB751E",
">. c #AB7230",
",. c #B57B32",
"<. c #997B63",
"1. c #A67642",
"2. c #A97742",
"3. c #B27F44",
"4. c #CC7B17",
"5. c #D47E16",
"6. c #B68345",
"7. c #BB8744",
"8. c #BF8B48",
"9. c #D68518",
"0. c #DB911C",
"q. c #C18224",
"w. c #CA8C26",
"e. c #CE9327",
"r. c #CD942B",
"t. c #D59727",
"y. c #DA9720",
"u. c #DA9B25",
"i. c #DB9C28",
"p. c #DFA325",
"a. c #DFA828",
"s. c #E6880D",
"d. c #E1991D",
"f. c #E99411",
"g. c #ED9C15",
"h. c #FF8A04",
"j. c #FE950B",
"k. c #FF9B0E",
"l. c #FF9E10",
"z. c #F0A518",
"x. c #F2AD1B",
"c. c #FEA212",
"v. c #FEAC19",
"b. c #F5B31D",
"n. c #FFB11B",
"m. c #E1A827",
"M. c #E1AB2A",
"N. c #E5B32B",
"B. c #E7B92D",
"V. c #E9BF30",
"C. c #FFB720",
"Z. c #FEBA21",
"A. c #C38E48",
"S. c #CC954B",
"D. c #CE984B",
"F. c #D59D4D",
"G. c #DDA450",
"H. c #E1A853",
"J. c #EBC532",
"K. c #EDCB35",
"L. c #FEC126",
"P. c #FFC628",
"I. c #FFCE2D",
"U. c #FFD531",
"Y. c #FFDF37",
"T. c #FFE038",
"R. c #86848F",
"E. c #868692",
"W. c #84849F",
"Q. c #8C8690",
"!. c #8585A3",
"~. c #8686A8",
"^. c #8188A7",
"/. c #848EAB",
"(. c #8B8BA4",
"). c #8D8DAC",
"_. c #8590AC",
"`. c #8292B1",
"'. c #8A95B0",
"]. c #8A99B6",
"[. c #8D9CB8",
"{. c #918DA7",
"}. c #9393A9",
"|. c #9B97A4",
" X c #9A9AAE",
".X c #9393B2",
"XX c #909BB5",
"oX c #909FBA",
"OX c #9A9AB4",
"+X c #9B9BBA",
"@X c #94A2BB",
"#X c #99A5BE",
"$X c #9EA8BF",
"%X c #A39FB5",
"&X c #A2A2B5",
"*X c #A5A5BC",
"=X c #A9A5B7",
"-X c #ABABBC",
";X c #99A6C0",
":X c #9DAAC2",
">X c #A5A5C1",
",X c #A1ADC3",
"<X c #ACACC4",
"1X c #AFAFCA",
"2X c #A5B0C7",
"3X c #A6B2C8",
"4X c #A8B1C6",
"5X c #A9B5CA",
"6X c #AEB9CD",
"7X c #B3B3C2",
"8X c #B5B5CA",
"9X c #B0BBCE",
"0X c #B9B8C6",
"qX c #BBBCCB",
"wX c #B3BDD0",
"eX c #B6C0D2",
"rX c #BAC3D5",
"tX c #BFC8D7",
"yX c #C0C0CC",
"uX c #C9C5C9",
"iX c #C3C3D2",
"pX c #C7C9D5",
"aX c #C3CBDA",
"sX c #CCCCD6",
"dX c #CDCDD9",
"fX c #CAD1DE",
"gX c #D2CDD0",
"hX c #D4D4DD",
"jX c #DDD9DB",
"kX c #D5D5E0",
"lX c #D3D8E3",
"zX c #DBDBE3",
"xX c #DDE2EA",
"cX c #E0E0E6",
"vX c #E3E4E9",
"bX c #E8E3E2",
"nX c #E9E9ED",
"mX c #ECEDF1",
"MX c #F1F1F4",
"NX c #F6F6F8",
"BX c #FEFEFE",
"VX c None",
/* pixels */
"VXVXVXVXVXVXVXVXVXVXVXVXVXVXVXVXVXVXVXVXVXVXVXVXVXVXVXVXVXVXVXVX",
"VXVXVXVXVXVXVXVXVXVXVXVXVXVXVXVXVXVXVXVXVXVXVXVXVXVXVXVXVXVXVXVX",
"VXVXVXVXVXVXVXVX*XOX}.!.W.} ' ~ Q I A Z n r e q 6 4 1 : @   VXVX",
"VXVXVXVXVXVXVXVX*X@X.X).!.} } ' ~ W I m n v e q 9 4 1 : - X   VX",
"VXVXVXVX0X0X0X7X<XlXnXnXBXmXlXlXzXBXBXBXBXBXBXBXBXBXfX2X4 =     ",
"VXVXVX7X7XvXBXNXvXqXpXlXBX@.t K o.BXBXBXBXBXBXBXBXBX6X[...= O   ",
"VXVXVX  Q.-XmXBXBXBXdXqXBX@.E | :XBXBXBXBXBXBXBXBXBX5X].] = O   ",
"VXVXVX    F -XmXBXBXBXqXnX`.X.].wXBXBXBXBXBXBXBXBXBX2X@.Q = O   ",
" X    VX    D &XMXBXBXmXqX:X@X5XfXBXBXBXBXBXBXBXBXBX#X) T = O   ",
" X(.    VX  `  XmXBXBXNX=XBXBXBXBXBXBXBXBXBXBXBXBXmX_./ P = O   ",
"-X0XO.    (.|.cXNXNXNXNX&XaXtXrXrXwXwX6X5X5X1X:XXX/.( R B = O   ",
"7XMX-X_ D (.zXMXMXMXMXnXOX5X2X,X:X;X;X[.].'.o.) ( ^ R Y n = O   ",
"}.nXnX=XW.hXnXnXnXnXnXvX(.2X,X:X;X@X[._.+. .) / R R Y L z = X   ",
"_ hXvXcXcXvXvXvXvXvXcXlX&X,XwX9X2X$X@X[.'._.+.O.O.) Y B e = O   ",
"A {.jXzXxXzXzXxXzXzX0X7XdX|.H.G.bXvXcXzXkXfXdXiXrXqXQ N w = O   ",
"  G (.hXhXjXhXhXhXiXyXuXuXF.M.K.F.jXkXhXdXdXiXiXqX0XR p 8 = O   ",
"    V ~ }.-X-X=X-XgXsXgXS.i.s.g.J.S.7X1X1X>X>X+X+X%XU u 6 = X   ",
"VX    # l x V l Z @XgXS.t.f.j.j.g.J.A.0X8X8X1X<X>X>XL u 5 = O   ",
"VXVX            n ! 7.t.g.c.c.c.c.z.B.A.%X+X+X.X.XOXB 0 3 = O   ",
"VXVXVXVX        e <.r.x.n.n.n.n.n.v.x.M.3.=X*X#XOXOXM 9 , = O   ",
"VXVXVXVXVXVXVXVXe Q.,.M.Z.Z.Z.Z.Z.Z.Z.C.a.3.{.).!.).b 7 > = O   ",
"VXVXVXVXVXVXVXVXq +.Q.>.a.P.P.P.P.P.P.Z.Z.r.2.}.).).i 2 $ = O   ",
"VXVXVXVXVXVXVXVX9 O.[ H >.p.I.U.U.I.Z.C.C.Z.w.2.(.!.y 2 $ = O   ",
"VXVXVXVXVXVXVXVX4 I m e J -.u.U.T.C.n.l.j.j.b.:.S C > @ + = O   ",
"VXVXVXVXVXVXVXVX4 < - - = % -.y.Y.v.v.j.l.j.c.d.j = = = = = X   ",
"VXVXVXVXVXVXVXVX            s &.0.c.n.k.h.j.l.0.k               ",
"VXVXVXVXVXVXVXVX              d %.9.c.P.n.c.l.:.g               ",
"VXVXVXVXVXVXVXVXVXVXVXVXVXVX    f $.5.j.j.j.4.#.o     VXVXVXVXVX",
"VXVXVXVXVXVXVXVXVXVXVXVXVXVXVX    f k =.;.&.j *       VXVXVXVXVX",
"VXVXVXVXVXVXVXVXVXVXVXVXVXVXVXVX      * s *         VXVXVXVXVXVX",
"VXVXVXVXVXVXVXVXVXVXVXVXVXVXVXVXVX                  VXVXVXVXVXVX",
"VXVXVXVXVXVXVXVXVXVXVXVXVXVXVXVXVXVXVX          VXVXVXVXVXVXVXVX"
};
