/* XPM */
static char *kgpg-16[] = {
/* columns rows colors chars-per-pixel */
"16 16 202 2",
"   c black",
".  c #734121",
"X  c #734024",
"o  c #754224",
"O  c #7A4723",
"+  c #7F4C26",
"@  c #784828",
"#  c #7E513C",
"$  c #535377",
"%  c #55557F",
"&  c #7B5646",
"*  c #656585",
"=  c #767693",
"-  c #797994",
";  c #8F511F",
":  c #9C5B1F",
">  c #824D25",
",  c #824E28",
"<  c #83502B",
"1  c #81512E",
"2  c #89562D",
"3  c #8A582C",
"4  c #815335",
"5  c #865631",
"6  c #8C5B30",
"7  c #905923",
"8  c #9C6425",
"9  c #936331",
"0  c #96653F",
"q  c #9C6B37",
"w  c #AC5F18",
"e  c #A6621C",
"r  c #B0651E",
"t  c #B06C1D",
"y  c #BF7A1D",
"u  c #A56D34",
"i  c #A87B3D",
"p  c #B56D24",
"a  c #BF7F29",
"s  c #B0793D",
"d  c #876043",
"f  c #8F6A55",
"g  c #90674C",
"h  c #997156",
"j  c #C36E13",
"k  c #D27C12",
"l  c #B78238",
"z  c #BA8537",
"x  c #B18245",
"c  c #A48D7A",
"v  c #A88D7F",
"b  c #B98F67",
"n  c #B6947B",
"m  c #D28D1C",
"M  c #D88A1C",
"N  c #CC8C2C",
"B  c #C38A31",
"V  c #C99539",
"C  c #D99E30",
"Z  c #DDB53E",
"A  c #EE8408",
"S  c #E28B12",
"D  c #E88A10",
"F  c #EC9915",
"G  c #F58707",
"H  c #F68F0A",
"J  c #FF9409",
"K  c #FF9509",
"L  c #FB9B0D",
"P  c #FD9E0F",
"I  c #FF9D0D",
"U  c #FF9D0E",
"Y  c #FF9E0E",
"T  c #F7A917",
"R  c #FEA512",
"E  c #FFA612",
"W  c #FFA914",
"Q  c #FFAE17",
"!  c #F8B41E",
"~  c #FFB018",
"^  c #FFB61B",
"/  c #FFB71B",
"(  c #FFB81C",
")  c #FFBA1D",
"_  c #FFBF1F",
"`  c #EDAD2C",
"'  c #F5BF2D",
"]  c #FAB420",
"[  c #FEBC20",
"{  c #C29943",
"}  c #C69550",
"|  c #DAB252",
" . c #DAB45A",
".. c #C1A370",
"X. c #C1A678",
"o. c #CFB071",
"O. c #D1AB7A",
"+. c #DAB061",
"@. c #DCB46D",
"#. c #E6BE78",
"$. c #FFC322",
"%. c #FFC422",
"&. c #FFCA25",
"*. c #FFCD27",
"=. c #FFD029",
"-. c #FFD52C",
";. c #FFD82D",
":. c #FFDA2E",
">. c #FFDB2E",
",. c #FCDB34",
"<. c #FFDF31",
"1. c #FFE233",
"2. c #FFE434",
"3. c #FFE534",
"4. c #FFE836",
"5. c #FFE938",
"6. c #FFEB3D",
"7. c #EDCF51",
"8. c #EFD85C",
"9. c #F0D749",
"0. c #E4C067",
"q. c #E7CC64",
"w. c #EBCB67",
"e. c #EACF63",
"r. c #ECD662",
"t. c #FDE940",
"y. c #FEED42",
"u. c #FAE94F",
"i. c #FCEC48",
"p. c #FDEE48",
"a. c #F6E358",
"s. c #FBEC53",
"d. c #85859E",
"f. c #89899C",
"g. c #9B9394",
"h. c #8B87A1",
"j. c #8989A0",
"k. c #8B8BA5",
"l. c #8C8CA2",
"z. c #8C8CA4",
"x. c #8F8FA8",
"c. c #9391A1",
"v. c #9191A7",
"b. c #9292A7",
"n. c #9595AA",
"m. c #9D9BAA",
"M. c #9F9EAF",
"N. c #9C9CB2",
"B. c #9F9FB1",
"V. c #9E9EB6",
"C. c #BBA284",
"Z. c #A0A0B1",
"A. c #A0A0B3",
"S. c #A7A7B5",
"D. c #A5A5B9",
"F. c #A5A5BB",
"G. c #A9A9B4",
"H. c #A9A9BB",
"J. c #AAAABD",
"K. c #ABABBE",
"L. c #ADADBC",
"P. c #ADADBD",
"I. c #AEAEBF",
"U. c #BBB2AB",
"Y. c #B0B0BF",
"T. c #B7B7BD",
"R. c #ACACC0",
"E. c #ADADC0",
"W. c #B1B1C3",
"Q. c #B3B3C5",
"!. c #B8B8C2",
"~. c #B9B9C4",
"^. c #B8B8CA",
"/. c #BCBCC8",
"(. c #BEBECC",
"). c #C3AC8E",
"_. c #CCAF8C",
"`. c #DCB888",
"'. c #C3B5AD",
"]. c #E4BE88",
"[. c #C5C2C2",
"{. c #C1C1CB",
"}. c #C1C1CE",
"|. c #C8C8CE",
" X c #C3C3D1",
".X c #C5C5D1",
"XX c #CACAD1",
"oX c #C9C9D5",
"OX c #CDCDD4",
"+X c #CFCFD4",
"@X c #CDCDD8",
"#X c #D0D0DA",
"$X c #D7D7DC",
"%X c #D9D9DD",
"&X c #D8D8DF",
"*X c #DADAE0",
"=X c #DDDDE2",
"-X c #E9D8CE",
";X c #E3E3E7",
":X c #E3E3E8",
">X c #F7EFE5",
",X c None",
/* pixels */
",X,X,X,X,X,X,X= k.N.D.E.E.V.,X,X",
",X,X,X,X,X,X* z.P..X#X@X XQ.D.,X",
",X,X,X,X,X$ - P.*X=X*X;X:XoXQ.J.",
",X,X,Xa N x c.OXXXP.I.{.$X*X(.J.",
",X,X,Xz |  .).[.M.d.v.Z.~.%X}.J.",
",X@ 9 { 9.s.q...c _.>Xl.S.OX/.N.",
",X5 i Z ,.4.p.8.0.#.].f.G.|.I.b.",
"1 q V ' =.>.3.y.a.w.@.g.T.!.Z.n.",
"3 s ` [ $.&.>.1.6.u.e.X.U.m.h.v.",
"3 B ] ( ) _ &.-.1.5.i.r.o.C.'.,X",
", 8 m T Q Q ( $.=.>.3.t.7.+.`.,X",
"o O 7 y F E E W Q / ) ! C } O.,X",
",Xo & 3 t S L Y Y Y Y M i b -X,X",
",X,Xh.# , e k H K K D u h n ,X,X",
",X,X,X,Xd > : j A G p g v ,X,X,X",
",X,X,X,X,X4 , ; w r 0 f ,X,X,X,X"
};
