/* XPM */
static char *khexedit-16[] = {
/* columns rows colors chars-per-pixel */
"16 16 9 1",
"  c black",
". c #585858",
"X c #FF8000",
"o c #A0A0A4",
"O c #C0C0C0",
"+ c #C0C0FF",
"@ c #FFFFC0",
"# c gray100",
"$ c None",
/* pixels */
"$$$$$   $$$$$$$$",
"$$$$ + + $$$$$$$",
"$    +++    $$$$",
" ####   O### $$$",
" ########### $$$",
" #+++O ++++# $ $",
" ####.O ####  @ ",
" #+O.#.O ++# @X ",
" ## O. ..## @X $",
" #+o O.o++ @X $$",
" ###O .## @X $$$",
" #+++o++ @X  $$$",
" ###### OX O $$$",
" #+++++   +# $$$",
" ########### $$$",
"$           $$$$"
};
