/* XPM */
static char *kregexpeditor[] = {
/* columns rows colors chars-per-pixel */
"32 32 150 2",
"   c black",
".  c #00003D",
"X  c #000043",
"o  c #00004B",
"O  c #00005C",
"+  c #000062",
"@  c #0A0C7B",
"#  c #5F3561",
"$  c #673757",
"%  c #662465",
"&  c #622570",
"*  c #683265",
"=  c #5E5A61",
"-  c #665258",
";  c #764C70",
":  c #794F72",
">  c #0E1180",
",  c #171A80",
"<  c #1C2085",
"1  c #0720FF",
"2  c #0A22FF",
"3  c #1226FF",
"4  c #1629FF",
"5  c #1B2BFF",
"6  c #2436DF",
"7  c #2B3FDF",
"8  c #117DB9",
"9  c #2769BF",
"0  c #0B57D0",
"q  c #0D58D0",
"w  c #1243D7",
"e  c #1149D5",
"r  c #1C49DF",
"t  c #0667CB",
"y  c #0868CB",
"u  c #234EDF",
"i  c #2C40DF",
"p  c #2A51DF",
"a  c #3356DF",
"s  c #3B5ADF",
"d  c #472391",
"f  c #482391",
"g  c #503581",
"h  c #4757A3",
"j  c #4D5DA6",
"k  c #566394",
"l  c #5F639D",
"z  c #4565B5",
"x  c #4966B5",
"c  c #4D69B5",
"v  c #4B6EBC",
"b  c #4E70BC",
"n  c #5A6BAE",
"m  c #536CB5",
"M  c #5B6EB1",
"N  c #5372BC",
"B  c #5C70B5",
"V  c #5976BC",
"C  c #5D78BC",
"Z  c #635D91",
"A  c #62659D",
"S  c #68689D",
"D  c #627BBC",
"F  c #687BB8",
"G  c #415EDF",
"H  c #577CC3",
"J  c #5A7DC3",
"K  c #587CDB",
"L  c #547AE3",
"P  c #597FE4",
"I  c #2D888E",
"U  c #3E95FF",
"Y  c #26A8CB",
"T  c #2BABCB",
"R  c #30ADCD",
"E  c #3CADCE",
"W  c #3FB0CE",
"Q  c #05C8D1",
"!  c #0BD3C9",
"~  c #14E6D1",
"^  c #16E8D1",
"/  c #1AEAD1",
"(  c #6D82BC",
")  c #679EB8",
"_  c #7388BF",
"`  c #7FAB96",
"'  c #4096FF",
"]  c #4599FF",
"[  c #4A9BFF",
"{  c #5598EF",
"}  c #509FFF",
"|  c #4FAACA",
" . c #44B2CE",
".. c #54A9D5",
"X. c #5CABD6",
"o. c #53A0FF",
"O. c #55A8F1",
"+. c #5AA4FF",
"@. c #6482C3",
"#. c #6A86C3",
"$. c #6D88C3",
"%. c #668FD1",
"&. c #6790D1",
"*. c #6192DD",
"=. c #6B92D1",
"-. c #7289C3",
";. c #7296D1",
":. c #7799D1",
">. c #7D9CD1",
",. c #7FB0CE",
"<. c #63A9FF",
"1. c #6BADFF",
"2. c #6FB0FF",
"3. c #73B2FF",
"4. c #7AB5FF",
"5. c #7EB8FF",
"6. c #A92D34",
"7. c #845A3F",
"8. c #904931",
"9. c #9A5231",
"0. c #9E7334",
"q. c #ADA139",
"w. c #A1B03A",
"e. c #8A9457",
"r. c #8E9E56",
"t. c #828D62",
"y. c #9CA542",
"u. c #A2BF62",
"i. c #ACC543",
"p. c #BEC840",
"a. c #A5C063",
"s. c #C4D238",
"d. c #C0C940",
"f. c #CEE640",
"g. c #D0E740",
"h. c #D3E940",
"j. c #83AD96",
"k. c #89B196",
"l. c #83A0D1",
"z. c #88A2D1",
"x. c #83BAFF",
"c. c #89BEFF",
"v. c #8DC0FF",
"b. c #92C3FF",
"n. c #99C6FF",
"m. c #9EC9FF",
"M. c #A3CCFF",
"N. c #ABD0FF",
"B. c #B1D4FF",
"V. c None",
/* pixels */
"  o O + + + O + + + O + + O + O + O + + O + + O + O + O + + o   ",
"o < F -._ $.#.@.D #.J J J J H H H H J H J J J @.@.#.#.#._ n > o ",
"+ _ B.N.M.m.n.n.c.c.c.x.c.x.4.x.x.4.5.5.x.c.c.c.b.n.m.M.N.N.j + ",
"+ z.N.M.m.n.b.c.x.x.x.4.4.4.3.3.3.3.4.4.4.5.5.x.c.c.b.n.m.M.B + ",
"+ l.M.m.n.b.c.x.x.4.4.3.2.2.1.1.1.1.1.3.3.3.4.4.x.x.c.b.n.M.M + ",
"+ >.m.n.b.c.x.5.4.2.1.1.1.<.<.<.<.<.<.<.1.1.3.3.4.x.c.c.b.n.N + ",
"+ >.n.b.c.c.|  . . . .E O.+.+.+.o.+.) ` ` j.j.k.k.z.x.x.c.n.m + ",
"+ :.n.c.c.X./ / / ^ ^ ^ R } } } } } i.g.g.h.h.h.h.a.4.x.x.c.N + ",
"+ ;.b.x.x.../ / / ^ ^ ^ T [ [ ] ] ] i.f.f.h.h.h.h.a.3.4.5.v.c + ",
"+ ;.c.x.4.../ / / ^ ^ ~ Y ' ' ' U U i.f.f.f.h.h.h.a.1.4.5.x.c + ",
"+ =.K G G 9 ! ! ! ! ! ! 8 u r r r r w.s.s.s.s.s.s.r.a s s L c + ",
"+ ;.i 5 5 r ! Q Q Q Q Q y 2 2 2 2 1 y.p.p.p.d.d.s.t.5 5 5 6 c + ",
"+ =.i 5 5 e Q Q Q Q Q Q t 1 1 1 1 2 y.p.p.p.p.d.p.t.4 5 5 6 c + ",
"+ =.i 5 5 e Q Q Q Q Q Q t 1 1 1 1 1 y.p.p.p.p.d.p.t.5 4 5 6 z + ",
"+ %.7 5 5 e Q Q Q I - - $ % % % % % 8.9.9.q.p.d.p.t.4 5 5 6 z + ",
"+ %.7 5 5 e Q Q Q = 6.6.6.6.6.6.6.6.6.6.6.0.p.d.p.t.4 5 5 6 z + ",
"+ %.7 5 5 e Q Q Q = 6.6.6.6.6.6.6.6.6.6.6.0.p.p.p.t.4 5 5 6 z + ",
"+ =.7 5 5 w Q Q Q = 6.6.6.6.6.6.6.6.6.6.6.7.e.e.e.k 4 4 5 6 z + ",
"+ =.7 5 5 5 e q 0 # 6.6.6.6.6.6.6.6.6.6.6.d 2 3 3 4 4 5 5 6 z + ",
"+ %.7 5 5 5 4 4 3 & 6.6.6.6.6.6.6.6.6.6.6.d 3 3 3 4 4 5 5 6 z + ",
"+ =.P s a a a p u * 6.6.6.6.6.6.6.6.6.6.6.& u u p p a a s L z + ",
"+ =.x.5.3.1.<.+.o.; 6.6.6.6.6.6.6.6.6.6.6.k ] [ o.+.<.1.4.5.c + ",
"+ =.c.5.4.3.<.<.+.; 6.6.6.6.6.6.6.6.6.6.6.Z [ o.+.<.1.2.4.x.x + ",
"+ :.c.x.4.3.1.<.<.: 6.6.6.6.6.6.6.6.6.6.6.l o.+.+.1.1.4.5.x.c + ",
"+ :.c.c.5.4.3.1.<.*.S S A A A l l l A A A { +.<.1.1.3.4.5.c.m + ",
"+ :.n.c.x.5.4.3.1.<.<.+.+.o.o.o.} o.} o.+.+.<.<.1.3.5.5.c.b.m + ",
"+ >.n.b.c.c.4.4.3.1.<.<.+.+.+.+.+.+.+.<.+.<.1.1.3.4.5.c.c.b.N + ",
"+ >.M.n.n.c.x.5.4.3.3.1.1.<.<.<.<.<.<.<.1.2.3.4.4.5.c.c.n.m.m + ",
"+ l.M.M.n.b.c.x.5.5.4.4.2.1.2.1.1.1.1.3.3.3.4.5.5.c.c.b.n.M.M + ",
"+ ( N.M.m.n.n.c.c.5.5.5.4.4.4.3.3.3.4.3.4.5.5.x.c.c.n.n.m.M.h + ",
"o @ M D D D C V V N N N v v v v v v v v N v N N V C C D D j @ o ",
"V.. O O O O O O O O O O O O O O O O O O O O O O O O O O O O X V."
};
