/* XPM */
static char *ktimer[] = {
/* columns rows colors chars-per-pixel */
"32 32 247 2",
"   c #000000",
".  c #00000B",
"X  c #000113",
"o  c #00041A",
"O  c #01081A",
"+  c #000321",
"@  c #000A25",
"#  c #000E2A",
"$  c #051026",
"%  c #02112F",
"&  c #02143A",
"*  c #001F3F",
"=  c #0B1B3B",
"-  c #021A47",
";  c #081C40",
":  c #021F59",
">  c #001E66",
",  c #0F2958",
"<  c #162A4F",
"1  c #112651",
"2  c #102853",
"3  c #182F5B",
"4  c #1C345E",
"5  c #002366",
"6  c #01266A",
"7  c #072D6E",
"8  c #0C2E6A",
"9  c #042A77",
"0  c #002A7A",
"q  c #092775",
"w  c #05307B",
"e  c #09347C",
"r  c #1D3765",
"t  c #1F3966",
"y  c #1E3C6F",
"u  c #153775",
"i  c #264273",
"p  c #284370",
"a  c #002E84",
"s  c #03358A",
"d  c #0A3C8D",
"f  c #0A3D90",
"g  c #0C4090",
"h  c #094299",
"j  c #12418A",
"k  c #1B448A",
"l  c #1F488E",
"z  c #1D4E99",
"x  c #124CA3",
"c  c #1454B1",
"v  c #175AB8",
"b  c #1F5FB8",
"n  c #2F5B9B",
"m  c #3B5582",
"M  c #3B5E92",
"N  c #295DA9",
"B  c #3D659C",
"V  c #336CB9",
"C  c #386DB5",
"Z  c #3C73BC",
"A  c #2A6DC5",
"S  c #3075CE",
"D  c #3975C2",
"F  c #3D79D7",
"G  c #2176E1",
"H  c #4E6D9C",
"J  c #4270B1",
"K  c #5173A5",
"L  c #6462AC",
"P  c #7372B6",
"I  c #7375B9",
"U  c #797BBC",
"Y  c #457DC9",
"T  c #3A88E2",
"R  c #5681B8",
"E  c #5E84B6",
"W  c #5B84B9",
"Q  c #6581AC",
"!  c #648BBC",
"~  c #6C8FBD",
"^  c #4782D0",
"/  c #408DDE",
"(  c #5C95DC",
")  c #5E99D5",
"_  c #5A98DB",
"`  c #4694E6",
"'  c #4595E8",
"]  c #4A9AE9",
"[  c #509EEA",
"{  c #5E9AE2",
"}  c #5C9DE9",
"|  c #42A8FF",
" . c #56A3EC",
".. c #5CA7ED",
"X. c #6191CA",
"o. c #6398CF",
"O. c #6D9ACE",
"+. c #6395D7",
"@. c #6399D2",
"#. c #7C8FC4",
"$. c #7C99C4",
"%. c #7F9FCB",
"&. c #7690D0",
"*. c #729FD9",
"=. c #6DA4DE",
"-. c #73A1D3",
";. c #70A4DC",
":. c #71ABDE",
">. c #7BA0D1",
",. c #7AABDD",
"<. c #67A9E5",
"1. c #64ACEF",
"2. c #6BA3E3",
"3. c #6CACEB",
"4. c #69AEF1",
"5. c #73ABE4",
"6. c #72AFEA",
"7. c #7BADE4",
"8. c #79ACE9",
"9. c #74B3EC",
"0. c #7DB0E7",
"q. c #75B3F0",
"w. c #7BBEF6",
"e. c #FF7E5D",
"r. c #FF8970",
"t. c #8287C2",
"y. c #868AC4",
"u. c #8C88C0",
"i. c #8E91C8",
"p. c #919DCF",
"a. c #82A0CA",
"s. c #83ABDA",
"d. c #8EABD1",
"f. c #8FAFDB",
"g. c #8BB5DF",
"h. c #92AFD6",
"j. c #9CA2D2",
"k. c #93B4DC",
"l. c #9DB7DC",
"z. c #81AEE0",
"x. c #85B3E4",
"c. c #83B4E9",
"v. c #8CB6E3",
"b. c #8FB8E5",
"n. c #8CBAE9",
"m. c #81B7F2",
"M. c #83BAF1",
"N. c #8ABBF3",
"B. c #94BAE5",
"V. c #93BCEB",
"C. c #9CBCE5",
"Z. c #A2A8D5",
"A. c #A8AAD4",
"S. c #ADB6DD",
"D. c #A8BEDF",
"F. c #A4BEE6",
"G. c #82C1F4",
"H. c #8DC3F3",
"J. c #8ECCFA",
"K. c #9CC0E5",
"L. c #9BC0EB",
"P. c #9FCAEF",
"I. c #93C2F5",
"U. c #91CBF5",
"Y. c #98C4F2",
"T. c #9CCDF3",
"R. c #95D0F9",
"E. c #9BD3F8",
"W. c #A3C4E6",
"Q. c #A3C4EB",
"!. c #A9C1E0",
"~. c #AFCAED",
"^. c #AACBF2",
"/. c #ACD0F5",
"(. c #ABD8F3",
"). c #ABDDFD",
"_. c #B3CEEB",
"`. c #BBC1E3",
"'. c #BFCFE6",
"]. c #B3CFF4",
"[. c #B9D2ED",
"{. c #B4D1F1",
"}. c #B7DEF4",
"|. c #BCD6F2",
" X c #BEDAF5",
".X c #BCD8F8",
"XX c #B4E6FF",
"oX c #BAECFF",
"OX c #D5A9AA",
"+X c #F6AC9C",
"@X c #FFAB90",
"#X c #EEB6AB",
"$X c #F3B5A3",
"%X c #FFBCA5",
"&X c #F3BCB5",
"*X c #FFC1AE",
"=X c #FFC4B2",
"-X c #D5C4C7",
";X c #C3C3E0",
":X c #C1CBE9",
">X c #CBCEE7",
",X c #C9CFE8",
"<X c #C3D6EE",
"1X c #C6D9EF",
"2X c #CAD6EE",
"3X c #CDDCEE",
"4X c #C3DAF2",
"5X c #CAD7F1",
"6X c #CADEF3",
"7X c #D2DEF2",
"8X c #DEDFF0",
"9X c #C7E1F8",
"0X c #C3E9FD",
"qX c #CDE1F5",
"wX c #CCE3FA",
"eX c #CFECFD",
"rX c #C4F1FF",
"tX c #CAF0FF",
"yX c #D3E3F4",
"uX c #D3E5F9",
"iX c #D5EAFC",
"pX c #D9E5F4",
"aX c #DEE7F8",
"sX c #DDE8F5",
"dX c #DCECFB",
"fX c #D3F4FF",
"gX c #DCF1FF",
"hX c #E0CBCE",
"jX c #EDDFDD",
"kX c #F2CCC9",
"lX c #FEE2D5",
"zX c #E3EBF6",
"xX c #E2EDFA",
"cX c #EAEFF6",
"vX c #E8EFFA",
"bX c #E4F2FE",
"nX c #E6F9FF",
"mX c #EBF4FD",
"MX c #ECF9FE",
"NX c #F6E9E7",
"BX c #FFECE7",
"VX c #FEECE9",
"CX c #F0EDF3",
"ZX c #F2F6FC",
"AX c #F3FAFE",
"SX c #FDFEFE",
"DX c None",
/* pixels */
"DXDXDXDXDXDXDXDXDXDX* 9 0 a d f d s 6 : @ DXDXDXDXDXDXDXDXDXDXDX",
"DXDXDXDXDXDXDXDXq 0 d V ;.L.{. X{.Q.8.Y x 6 @ DXDXDXDXDXDXDXDXDX",
"DXDXDXDXDXDX  6 x +..XdXyX[._.[._.[.5XdXwX8.b 5 X DXDXDXDXDXDXDX",
"DXDXDXDXDX5 9 Y .XyXW.B.].qXyX[.9XwX|.C.K.1XwX{ h # DXDXDXDXDXDX",
"DXDXDXDXX f 2.uXK.v.qXAXCXzXmX3XpXzXmXmXsXL.v.qXN.c & DXDXDXDXDX",
"DXDXDX+ d 8.4Xz. XyXyXsXvXmXAXyXmXmXbXyXsXyX9Xv._.I.v % DXDXDXDX",
"DXDX  7 2.{.z.uXsXuX<XMXMXmXnXMXmXmXAXAXyX1XyX5Xn.Q.m.x O DXDXDX",
"DXDX- ^ /.,.wXuXuXbXxXbXbXmXmXbXmXbXbXmXdXMXt.Z.gXx.Q.} e   DXDX",
"DX. z I.7. XpXqXmXbXbXbXbXbXbXbXbXbXbXbXMXj.i.pXqXiXx.Y.S = DXDX",
"DX- ( n.B.4X4XbXbXbXbXbXbXbXbXgXbXbXbXMXS.U bXnXqX9XL.x.1.d   DX",
"  k M.7.uX9X|.dXbXbXbXbXbXzXbXbXbXdXMX:XI sXnXmXqX|.pX0.` A # DX",
"o Z c.B.dXqXmXbXbXbXdXbXbX+X+XbXbXMX7XI 2XMXbXdXdX9XwX^./ T 2   ",
"& ) 5.|.uXdXmXbXnXmXbXmXnX&Xe.jXMXbXU `.MXbXbXgXdXiX XiX{ ' k   ",
"8 3.=.pXyXmXmXmXmXmXmXmXnXcXr.@XMXy.A.MXmXdXbXgXbXbX9XdX7.' N   ",
"k 6.5.xXuXAXMXmXMXmXAXMXAXSXkXOXp.y.AXMXmXbXmXmXnXAXpXmXV.' V X ",
"l 3.,.7X1XpXAXAXAXAXAXvX2XA.&.| G A.AXAXAXMXmXAXZXbX1XyXV. .D O ",
"k 3.;.sXpXmXAXAXSX>XP L P u.y.F #.mXAXAXAXAXAXAXAXAXsXcXL. .Z O ",
"u 9.) cXsXSXSXSXSX8X;XzXAXSXSXCX*XlXSXSXSXAXSXSXSXSXzXZXL...C   ",
"= 6.) yXzXSXSXSXSXSXSXSXSXSXSXSXVX%XSXSXSXSXSXSXSXSXzXmX8.1.n   ",
"O X.<.!.CXmXSXSXSXSXSXSXSXSXSXSXSX*XlXSXSXSXSXSXSXAXzXzX2.4.y   ",
"  B G.O.AXzXcXAXSXSXSXSXSXSXSXSXSXVX%XSXSXSXSXSXcXpXAX~.3.{ =   ",
"DX2 H.) :XpX8XSXSXSXSXSXSXSXSXSXSXSX*XlXSXSXSXSXcX3XpX7.w.J . DX",
"DXX W U.X.mXcXAXSXSXSXSXSXSXSXSXSXSXVX%XSXSXSXSXzXSXQ.9.9.4   DX",
"DXDX1 T.:.h.SXzXSXSXSXSXSXSXSXSXSXSXSX*XlXSXSXzXmXyX5.J.J . DXDX",
"DXDX  M XX@.D.AXzXAXmXSXSXSXSXSXSXSXSXVX$XmXcXmXzX7.R.=.=   DXDX",
"DXDXDXo E oXo.l.AXvXpXSXSXSXSXAXSXSXSXAX$X-XAXuX7.E.m.t   DXDXDX",
"DXDXDXDX# ! 0X,.%.<XAXAXmXZXSXvXZXZXmXmXNXhX^.c.).H.i   DXDXDXDX",
"DXDXDXDXDXO K 0X(.-.f.1XmXZXSXvXAXAXZXaX].V.T.oXc.t   DXDXDXDXDX",
"DXDXDXDXDXDX. p l.fX}.g.s.k.C.W.F.C.B.V.).rX).R =   DXDXDXDXDXDX",
"DXDXDXDXDXDXDX  # m d.wXgXiXiXwXiXeXeXeXQ.W 4 .   DXDXDXDXDXDXDX",
"DXDXDXDXDXDXDXDXDX  O < i ~ $.a.%.~ H i =     DXDXDXDXDXDXDXDXDX",
"DXDXDXDXDXDXDXDXDXDXDX          .         DXDXDXDXDXDXDXDXDXDXDX"
};
