/* XPM */
static char *kwikdisk[] = {
/* columns rows colors chars-per-pixel */
"32 32 257 2",
"   c #000000",
".  c #000209",
"X  c #000A00",
"o  c #0A0100",
"O  c #000412",
"+  c #000D1F",
"@  c #001402",
"#  c #001A03",
"$  c #130200",
"%  c #190206",
"&  c #00132C",
"*  c #021A39",
"=  c #002504",
"-  c #002908",
";  c #04340B",
":  c #043C09",
">  c #023203",
",  c #083611",
"<  c #220900",
"1  c #280601",
"2  c #3C1200",
"3  c #3B0802",
"4  c #052659",
"5  c #05335F",
"6  c #06316E",
"7  c #0E3060",
"8  c #083172",
"9  c #232E70",
"0  c #054709",
"q  c #0C4910",
"w  c #06540A",
"e  c #055A0A",
"r  c #0D5413",
"t  c #0B6413",
"y  c #10771D",
"u  c #06620D",
"i  c #1A7822",
"p  c #0A4475",
"a  c #571204",
"s  c #4A1201",
"d  c #4B2D37",
"f  c #601C08",
"g  c #622202",
"h  c #762806",
"j  c #093783",
"k  c #19528F",
"l  c #087FB1",
"z  c #197DB3",
"x  c #2A64A6",
"c  c #716E99",
"v  c #787094",
"b  c #627DAE",
"n  c #038C19",
"m  c #078A18",
"M  c #009816",
"N  c #029A18",
"B  c #04921D",
"V  c #05880F",
"C  c #118C21",
"Z  c #189C2C",
"A  c #1F9730",
"S  c #00A214",
"D  c #00AC13",
"F  c #09A41A",
"G  c #00B60F",
"H  c #00B610",
"J  c #03B912",
"K  c #0CBA1C",
"L  c #0CB31E",
"P  c #10BC1D",
"I  c #15A927",
"U  c #19B623",
"Y  c #17B826",
"T  c #209C37",
"R  c #20BC2F",
"E  c #2CBC38",
"W  c #1C9B70",
"Q  c #1BA364",
"!  c #3EAA7C",
"~  c #00C10D",
"^  c #00CB0B",
"/  c #05C613",
"(  c #01D50A",
")  c #00D707",
"_  c #19CB23",
"`  c #1ECA28",
"'  c #1DD325",
"]  c #06E20A",
"[  c #21C32D",
"{  c #21C92D",
"}  c #25CB31",
"|  c #2ACC35",
" . c #2DCE38",
".. c #22D329",
"X. c #2DD735",
"o. c #30CF3B",
"O. c #30D33A",
"+. c #36DF3D",
"@. c #31E037",
"#. c #3BDF42",
"$. c #42D94A",
"%. c #47DA50",
"&. c #58D962",
"*. c #45E54A",
"=. c #4BE152",
"-. c #58F65A",
";. c #58E45E",
":. c #5BE361",
">. c #74EC78",
",. c #73EF77",
"<. c #65EC6A",
"1. c #189B84",
"2. c #2A87B4",
"3. c #0F82DF",
"4. c #0989E9",
"5. c #1991EF",
"6. c #1997F3",
"7. c #01A5FD",
"8. c #01ACFD",
"9. c #0EA8F8",
"0. c #00B5FE",
"q. c #00BBFE",
"w. c #08B2FB",
"e. c #17A4EB",
"r. c #18ADEC",
"t. c #14AFFF",
"y. c #19B1ED",
"u. c #14B3FF",
"i. c #14BCFF",
"p. c #1ABBFF",
"a. c #3286CC",
"s. c #2792E5",
"d. c #38ADF1",
"f. c #26A7F0",
"g. c #01C4FE",
"h. c #00CDFF",
"j. c #09C8FF",
"k. c #00D4FF",
"l. c #00DCFF",
"z. c #0BD2FF",
"x. c #13C2FF",
"c. c #1CCBFF",
"v. c #15C8FF",
"b. c #14DAFF",
"n. c #1CD0FE",
"m. c #1CDFFF",
"M. c #01E3FF",
"N. c #24C9FF",
"B. c #2DCBFF",
"V. c #22C6FF",
"C. c #24D5FF",
"Z. c #29D6FF",
"A. c #33CDFF",
"S. c #36D7FE",
"D. c #5B88B8",
"F. c #59BD88",
"G. c #5DAFA5",
"H. c #57A8BB",
"J. c #449AD9",
"K. c #5EA3C3",
"L. c #48A9E8",
"P. c #60ABE3",
"I. c #41DAFF",
"U. c #42D4FF",
"Y. c #5EDFFF",
"T. c #54DDFF",
"R. c #47E1FF",
"E. c #5DE0FF",
"W. c #64CFFC",
"Q. c #60E9FF",
"!. c #7BEAFF",
"~. c #8B340A",
"^. c #942A0A",
"/. c #A6370E",
"(. c #BE3410",
"). c #AC2809",
"_. c #9E420C",
"`. c #BD4416",
"'. c #BB5417",
"]. c #EF3A09",
"[. c #C44A1B",
"{. c #C35619",
"}. c #DB4512",
"|. c #C65D23",
" X c #CA621F",
".X c #D4661E",
"XX c #CC6822",
"oX c #DA7231",
"OX c #C36833",
"+X c #E7400E",
"@X c #E95618",
"#X c #FE460D",
"$X c #FF4C11",
"%X c #FF5D0B",
"&X c #FF530E",
"*X c #FE5013",
"=X c #FF5A14",
"-X c #FE5A19",
";X c #FF620E",
":X c #FF6413",
">X c #FF641C",
",X c #FF6C1C",
"<X c #FA661A",
"1X c #FF7019",
"2X c #FF6621",
"3X c #FD6E25",
"4X c #FF7324",
"5X c #FF7B27",
"6X c #FF7D2A",
"7X c #FF762A",
"8X c #FF7C34",
"9X c #FF7D3A",
"0X c #F07936",
"qX c #C27049",
"wX c #FF812D",
"eX c #FF813B",
"rX c #FF8831",
"tX c #FB8638",
"yX c #FF9238",
"uX c #FF9C3E",
"iX c #FF9136",
"pX c #FF8B44",
"aX c #FF8E4A",
"sX c #FF9244",
"dX c #FF924E",
"fX c #FF9940",
"gX c #FF9452",
"hX c #FD9956",
"jX c #EA8C5D",
"kX c #E29C76",
"lX c #FFA649",
"zX c #EDAC7C",
"xX c #FDAA6C",
"cX c #FFA76F",
"vX c #FFAB73",
"bX c #FFBA67",
"nX c #FFB476",
"mX c #FFB379",
"MX c #FFBA7A",
"NX c #92F991",
"BX c #8CF88D",
"VX c #A6FFA3",
"CX c #82DEFE",
"ZX c #9AF3FF",
"AX c #91F0FF",
"SX c #A5E9FF",
"DX c #A8F2FF",
"FX c #FFBD8D",
"GX c #FDBD87",
"HX c #FFC392",
"JX c #FFC894",
"KX c #FFCEA5",
"LX c #FFD3AA",
"PX c #FFD8AF",
"IX c #FFDEBD",
"UX c #FFE2C4",
"YX c None",
/* pixels */
"YXYXYXYXYXYXYXYXYXYXYXYXYXYXYXYXYXYXYXYXYXYXYXYXYXYXYXYXYXYXYXYX",
"YXYXYXYXYXYXYXYXYXYXYXYXYXYXYXYXYX. O   YXYXYXYXYXYXYXYXYXYXYXYX",
"YXYXYXYXYXYXYXYXYXYXYXYXYXYXYX  * x a.4   YXYXYXYXYXYXYXYXYXYXYX",
"YXYXYXYXYXYXYXYXYXYXYXYXYXYX& k P.SXDXL.4 . YXYXYXYXYXYXYXYXYXYX",
"YXYXYXYXYXYXYXYXYXYXYXYX+ p J.CXZXZXZXAXL.6 . YXYXYXYXYXYXYXYXYX",
"YXYXYXYXYXYXYXYXYXYX. 5 a.W.!.!.!.CX!.!.!.L.8 . YXYXYXYXYXYXYXYX",
"YXYXYXYXYXYXYXYXYXYX* f.I.T.Y.Y.Q.Q.Y.Y.Y.Y.d.j . YXYXYXYXYXYXYX",
"YXYXYXYXYXYXYXYXYXYX* y.m.c.c.N.B.A.A.A.B.V.c.f.4 YXYXYXYXYXYXYX",
"YXYXYXYXYXYXYXYXYXYX* y.M.m.x.0.0.0.0.0.q.N.E.S.8   YXYXYXYXYXYX",
"YXYXYXYXYXYXYX  $ YX* y.l.l.b.i.8.8.w.p.U.Q.Q.n.8   YXYXYXYXYXYX",
"YXYXYXYXYXYX% ~.{.2 * e.k.k.k.z.p.u.B.I.R.R.S.g.p # YXYXYXYXYXYX",
"YXYXYXYX$ h oXGXMX.Xd e.k.h.k.k.c.S.C.C.Z.C.z.0.1.F = YXYXYXYXYX",
"YXYXo g XXxXPXUXIXnXqXs.h.g.g.g.v.c.j.j.j.j.g.0.H.-.L = YXYXYXYX",
"o s '.hXJXLXLXLXLXKXzXD.w.g.q.g.x.x.g.q.q.g.g.8.K.VX-.U ; YXYXYX",
"_.yXMXJXJXHXHXFXHXFXGXkXb 9.0.0.i.i.0.0.0.0.7.3.G.NXBX-.U :   YX",
"XXbXMXmXmXmXmXvXxXvXvXcXjXc 6.0.u.i.8.8.7.4.2.F.>.>.>.,.*.U 0   ",
"XXlXlXsXsXdXgXgXgXaXpX9X7X0Xv 5.t.t.7.4.z ! &.:.:.:.:.:.;.@.U 0 ",
".XuXfXuX5X1X,X,X:X:X;X4XhXnXOX9 s.5.l Q Y ` |  .o.O. .} ..X.+.t ",
" XyXyXyXyX1X%X%X%X,XpXxXFXxX|.% 7 W / ( ..P G G G G J _ @.<.$.e ",
"{.iXrXrXrXrX,X:X8XhXvXvXxXpX|.$ , ..) ( ( ..L S D Y X.=.<.:.' e ",
"{.wX6XwX6X6XrXaXgXhXgXhXpX6X[.$ , } ^ ^ ^ ^ ` E [ O.$.$.%.O./ w ",
"{.5X4X5X5X4XwXpX9X9X9X8X3X4X`.$ , [ ~ ~ ~ ~ / o.{ { | | } / J w ",
"/.3X,X,X,X2X7X3X2X2X2X2X2X2X(.$ , R H H H H J [ K K P P J G G w ",
"$ /.<X<X>X-X3X2X-X-X-X-X-X-X/.$ # C L D D D D Y D D D D D D D 0 ",
"YX$ ~.@X:X=X>X-X$X$X*X$X}.^.1   YX# y I S S S R S S S S S S V > ",
"YXYX$ h @X*X-X*X#X#X+X^.3       YX  # y I N N I M M N N V e =   ",
"YXYXYX  a }.-X$X].).s o     YXYXYXYXYXX t A B T n B n u =     YX",
"YXYXYXYX  a [.(.a $     YXYXYXYXYXYXYXYX. r A A m t >       YXYX",
"YXYXYXYXYX  3 %     YXYXYXYXYXYXYXYXYXYXYX  q i : X     YXYXYXYX",
"YXYXYXYXYXYX    YXYXYXYXYXYXYXYXYXYXYXYXYXYX  X     YXYXYXYXYXYX",
"YXYXYXYXYXYXYXYXYXYXYXYXYXYXYXYXYXYXYXYXYXYXYXYXYXYXYXYXYXYXYXYX",
"YXYXYXYXYXYXYXYXYXYXYXYXYXYXYXYXYXYXYXYXYXYXYXYXYXYXYXYXYXYXYXYX"
};
