/* XPM */
static char * superkaramba_xpm[] = {
"32 32 482 2",
"  	c None",
". 	c #00C4FF",
"+ 	c #03C8FF",
"@ 	c #1DD0FF",
"# 	c #2ED5FF",
"$ 	c #32D6FF",
"% 	c #29D4FF",
"& 	c #0ECFFF",
"* 	c #00ACFF",
"= 	c #00B1FF",
"- 	c #1BBCFF",
"; 	c #5ED1FF",
"> 	c #8EDFFF",
", 	c #97E2FF",
"' 	c #98E3FF",
") 	c #98E4FF",
"! 	c #97E4FF",
"~ 	c #79DEFF",
"{ 	c #40D0FF",
"] 	c #06C1FF",
"^ 	c #009AFF",
"/ 	c #019CFF",
"( 	c #4CBBFF",
"_ 	c #8FD5FF",
": 	c #91D6FF",
"< 	c #91D7FF",
"[ 	c #92D7FF",
"} 	c #92D8FF",
"| 	c #92D9FF",
"1 	c #93DAFF",
"2 	c #94DBFF",
"3 	c #94DCFF",
"4 	c #82D7FF",
"5 	c #24BAFF",
"6 	c #00AEFF",
"7 	c #0081FF",
"8 	c #0085FF",
"9 	c #0086FF",
"0 	c #4EADFF",
"a 	c #8BC9FF",
"b 	c #8BCAFF",
"c 	c #8BCBFF",
"d 	c #8CCCFF",
"e 	c #8DCDFF",
"f 	c #8DCEFF",
"g 	c #8DCFFF",
"h 	c #8ED0FF",
"i 	c #8FD1FF",
"j 	c #8FD2FF",
"k 	c #8CD1FF",
"l 	c #2AACFF",
"m 	c #009CFF",
"n 	c #009BFF",
"o 	c #006DFF",
"p 	c #0070FF",
"q 	c #0071FF",
"r 	c #1C82FF",
"s 	c #84BCFF",
"t 	c #85BDFF",
"u 	c #86BEFF",
"v 	c #86BFFF",
"w 	c #86C0FF",
"x 	c #87C0FF",
"y 	c #87C1FF",
"z 	c #88C2FF",
"A 	c #88C3FF",
"B 	c #89C4FF",
"C 	c #89C5FF",
"D 	c #89C6FF",
"E 	c #8AC7FF",
"F 	c #8BC8FF",
"G 	c #83C5FF",
"H 	c #1190FF",
"I 	c #048BFF",
"J 	c #048AFF",
"K 	c #0057FF",
"L 	c #005AFF",
"M 	c #005BFF",
"N 	c #005DFF",
"O 	c #478BFF",
"P 	c #80AFFF",
"Q 	c #80B0FF",
"R 	c #80B1FF",
"S 	c #81B2FF",
"T 	c #81B3FF",
"U 	c #82B4FF",
"V 	c #82B5FF",
"W 	c #82B6FF",
"X 	c #83B7FF",
"Y 	c #84B8FF",
"Z 	c #86BAFF",
"` 	c #8ABCFF",
" .	c #8CBEFF",
"..	c #8FC0FF",
"+.	c #90C1FF",
"@.	c #52A1FF",
"#.	c #1781FF",
"$.	c #1481FF",
"%.	c #0C7CFF",
"&.	c #0045FF",
"*.	c #0046FF",
"=.	c #0047FF",
"-.	c #0049FF",
";.	c #5183FF",
">.	c #7AA2FF",
",.	c #7BA3FF",
"'.	c #7BA4FF",
").	c #7CA5FF",
"!.	c #7CA6FF",
"~.	c #7CA7FF",
"{.	c #7DA8FF",
"].	c #7EA9FF",
"^.	c #81ABFF",
"/.	c #85AFFF",
"(.	c #8AB2FF",
"_.	c #8EB6FF",
":.	c #91B8FF",
"<.	c #93BAFF",
"[.	c #94BCFF",
"}.	c #75A9FF",
"|.	c #2A7BFF",
"1.	c #277AFF",
"2.	c #2077FF",
"3.	c #002EFF",
"4.	c #0030FF",
"5.	c #0032FF",
"6.	c #0033FF",
"7.	c #0035FF",
"8.	c #3F67FF",
"9.	c #7593FF",
"0.	c #7594FF",
"a.	c #7695FF",
"b.	c #7696FF",
"c.	c #7797FF",
"d.	c #7798FF",
"e.	c #7899FF",
"f.	c #7C9DFF",
"g.	c #82A2FF",
"h.	c #88A7FF",
"i.	c #8DACFF",
"j.	c #92B0FF",
"k.	c #95B3FF",
"l.	c #98B5FF",
"m.	c #9AB7FF",
"n.	c #7DA3FF",
"o.	c #3C76FF",
"p.	c #3875FF",
"q.	c #3372FF",
"r.	c #1660FF",
"s.	c #001BFF",
"t.	c #001CFF",
"u.	c #001EFF",
"v.	c #001FFF",
"w.	c #0020FF",
"x.	c #1433FF",
"y.	c #6F83FF",
"z.	c #7085FF",
"A.	c #7186FF",
"B.	c #7187FF",
"C.	c #7188FF",
"D.	c #7289FF",
"E.	c #768DFF",
"F.	c #7D94FF",
"G.	c #849AFF",
"H.	c #8AA0FF",
"I.	c #90A5FF",
"J.	c #95AAFF",
"K.	c #98ADFE",
"L.	c #99AEFC",
"M.	c #9AAFFB",
"N.	c #6A8AFB",
"O.	c #446DFC",
"P.	c #446EFD",
"Q.	c #416DFE",
"R.	c #2F60FF",
"S.	c #0006FF",
"T.	c #0007FF",
"U.	c #0008FF",
"V.	c #000AFF",
"W.	c #000BFF",
"X.	c #000CFF",
"Y.	c #000EFF",
"Z.	c #3A45FF",
"`.	c #6B75FF",
" +	c #6E78FF",
".+	c #707BFF",
"++	c #737EFF",
"@+	c #7681FF",
"#+	c #7D89FF",
"$+	c #8490FF",
"%+	c #8A96FF",
"&+	c #8F9BFF",
"*+	c #93A0FE",
"=+	c #95A1FC",
"-+	c #95A2FA",
";+	c #95A3F8",
">+	c #8B9AF7",
",+	c #4861F7",
"'+	c #445FF8",
")+	c #4460F9",
"!+	c #4461FB",
"~+	c #4360FD",
"{+	c #042DFF",
"]+	c #000DFF",
"^+	c #0009FF",
"/+	c #0208FF",
"(+	c #0B0FFF",
"_+	c #494CFF",
":+	c #7678FF",
"<+	c #7A7DFF",
"[+	c #7D80FF",
"}+	c #8385FF",
"|+	c #8B8DFF",
"1+	c #9194FF",
"2+	c #9799FF",
"3+	c #9B9EFF",
"4+	c #9C9FFC",
"5+	c #989CFA",
"6+	c #9599F7",
"7+	c #8A8FF5",
"8+	c #515AF3",
"9+	c #4550F3",
"0+	c #4450F4",
"a+	c #4451F6",
"b+	c #4452F8",
"c+	c #4453FA",
"d+	c #0D22FE",
"e+	c #0021FF",
"f+	c #001DFF",
"g+	c #0721FF",
"h+	c #142BFF",
"i+	c #2034FF",
"j+	c #2B3DFF",
"k+	c #4A59FF",
"l+	c #7782FF",
"m+	c #8A92FF",
"n+	c #9097FF",
"o+	c #979EFF",
"p+	c #9DA3FF",
"q+	c #A2A7FF",
"r+	c #A5A9FE",
"s+	c #A3A7FB",
"t+	c #9EA1F8",
"u+	c #8286F5",
"v+	c #5A5EF2",
"w+	c #787AED",
"x+	c #8E8FEC",
"y+	c #6466EE",
"z+	c #4447F3",
"A+	c #4447F6",
"B+	c #4447F9",
"C+	c #1317FE",
"D+	c #002FEC",
"E+	c #0033FD",
"F+	c #0132FF",
"G+	c #0A38FF",
"H+	c #1A43FF",
"I+	c #284EFF",
"J+	c #3658FF",
"K+	c #4261FF",
"L+	c #4D69FF",
"M+	c #556FFF",
"N+	c #667DFF",
"O+	c #7F92FF",
"P+	c #91A0FF",
"Q+	c #9AA8FF",
"R+	c #9EABFF",
"S+	c #9CA8FE",
"T+	c #8E9CFB",
"U+	c #7887F8",
"V+	c #6B7BF5",
"W+	c #6A79F1",
"X+	c #A2ABEC",
"Y+	c #BEC4ED",
"Z+	c #828DEC",
"`+	c #4655F2",
" @	c #4452F5",
".@	c #4451F8",
"+@	c #1322FE",
"@@	c #003BD3",
"#@	c #0045F5",
"$@	c #094CFF",
"%@	c #1A57FF",
"&@	c #2B62FF",
"*@	c #3B6DFF",
"=@	c #4A77FF",
"-@	c #5780FF",
";@	c #6488FF",
">@	c #6E8FFF",
",@	c #7F9BFF",
"'@	c #88A1FF",
")@	c #8EA5FF",
"!@	c #91A7FF",
"~@	c #92A8FF",
"{@	c #8EA3FC",
"]@	c #859CF9",
"^@	c #7B93F6",
"/@	c #708AF3",
"(@	c #728BF0",
"_@	c #738BEF",
":@	c #5571F1",
"<@	c #4462F4",
"[@	c #4461F6",
"}@	c #3C59FA",
"|@	c #0225FB",
"1@	c #0048CD",
"2@	c #0051E8",
"3@	c #045DFF",
"4@	c #1567FF",
"5@	c #2872FF",
"6@	c #3A7CFF",
"7@	c #4B87FF",
"8@	c #5B91FF",
"9@	c #6B9AFF",
"0@	c #79A3FF",
"a@	c #85ABFF",
"b@	c #8FB1FF",
"c@	c #97B6FF",
"d@	c #9FBAFF",
"e@	c #A3BDFF",
"f@	c #A4BDFF",
"g@	c #A2BCFF",
"h@	c #9EB8FE",
"i@	c #94B0FB",
"j@	c #89A8F8",
"k@	c #7D9EF6",
"l@	c #7194F5",
"m@	c #648AF5",
"n@	c #567FF5",
"o@	c #4974F7",
"p@	c #446FF9",
"q@	c #1348FB",
"r@	c #002EDF",
"s@	c #0042A7",
"t@	c #0056D6",
"u@	c #0970F7",
"v@	c #1F7FFF",
"w@	c #3289FF",
"x@	c #4693FF",
"y@	c #589DFF",
"z@	c #6AA7FF",
"A@	c #7CB0FF",
"B@	c #8CB9FF",
"C@	c #9BC2FF",
"D@	c #A7C8FF",
"E@	c #AFCDFF",
"F@	c #B5D0FF",
"G@	c #B8D1FF",
"H@	c #B6D0FF",
"I@	c #B0CCFF",
"J@	c #AAC7FF",
"K@	c #A1C1FE",
"L@	c #95B9FC",
"M@	c #88B0FA",
"N@	c #7BA6F9",
"O@	c #6D9CF9",
"P@	c #5F92F9",
"Q@	c #5187FA",
"R@	c #2167FD",
"S@	c #0049F0",
"T@	c #003CCF",
"U@	c #005ABD",
"V@	c #0774E1",
"W@	c #2592FC",
"X@	c #3A9DFF",
"Y@	c #4EA6FF",
"Z@	c #62AFFF",
"`@	c #75B8FF",
" #	c #88C1FF",
".#	c #9BCAFF",
"+#	c #ACD3FF",
"@#	c #BCDBFF",
"##	c #C8E1FF",
"$#	c #CEE4FF",
"%#	c #CEE3FF",
"&#	c #C7DFFF",
"*#	c #BDD9FF",
"=#	c #B2D3FF",
"-#	c #A7CCFF",
";#	c #9CC5FF",
">#	c #8FBDFE",
",#	c #82B5FD",
"'#	c #73ACFD",
")#	c #63A1FD",
"!#	c #3484FE",
"~#	c #0563F8",
"{#	c #004FD9",
"]#	c #00389F",
"^#	c #006DC0",
"/#	c #128EE6",
"(#	c #3CABFC",
"_#	c #52B6FF",
":#	c #67BDFF",
"<#	c #7BC5FF",
"[#	c #90CEFF",
"}#	c #A4D6FF",
"|#	c #B8DEFF",
"1#	c #CBE7FF",
"2#	c #DDEFFF",
"3#	c #E8F4FF",
"4#	c #E4F2FF",
"5#	c #D6EAFF",
"6#	c #C6E3FF",
"7#	c #B7DBFF",
"8#	c #A9D4FF",
"9#	c #9ACCFF",
"0#	c #8CC5FF",
"a#	c #7EBCFF",
"b#	c #68B1FF",
"c#	c #3D9AFF",
"d#	c #1D86FA",
"e#	c #0366DF",
"f#	c #0048AE",
"g#	c #0073B1",
"h#	c #0F9AE2",
"i#	c #45BAF9",
"j#	c #67C9FF",
"k#	c #7CD0FF",
"l#	c #90D7FF",
"m#	c #A5DEFF",
"n#	c #B9E5FF",
"o#	c #CEECFF",
"p#	c #E2F3FF",
"q#	c #F3FAFF",
"r#	c #EDF7FF",
"s#	c #DAF0FF",
"t#	c #C7E8FF",
"u#	c #B5E0FF",
"v#	c #A5D9FF",
"w#	c #94D1FF",
"x#	c #81C9FF",
"y#	c #4BB0FF",
"z#	c #2F9EF7",
"A#	c #097CDE",
"B#	c #0053A5",
"C#	c #00577C",
"D#	c #0295CF",
"E#	c #26B5ED",
"F#	c #63D0FB",
"G#	c #8ADEFF",
"H#	c #9EE3FF",
"I#	c #B1E8FF",
"J#	c #C3EDFF",
"K#	c #D2F1FF",
"L#	c #DBF4FF",
"M#	c #D9F3FF",
"N#	c #CEEFFF",
"O#	c #BEE9FF",
"P#	c #ACE3FF",
"Q#	c #99DCFF",
"R#	c #85D5FF",
"S#	c #70CDFF",
"T#	c #55C0FB",
"U#	c #24A4EC",
"V#	c #0383CE",
"W#	c #006888",
"X#	c #009BCB",
"Y#	c #1CBBE9",
"Z#	c #4FD1F5",
"`#	c #82E1FB",
" $	c #ACECFE",
".$	c #BAEFFF",
"+$	c #C0F0FF",
"@$	c #B8EEFF",
"#$	c #ADEAFF",
"$$	c #9DE6FE",
"%$	c #7DDBFB",
"&$	c #4FC9F5",
"*$	c #23B2E9",
"=$	c #0393CF",
"-$	c #006592",
";$	c #007399",
">$	c #0091C1",
",$	c #05A4D8",
"'$	c #1DB3E5",
")$	c #2FBBE9",
"!$	c #35BFEB",
"~$	c #30BDEA",
"{$	c #20B8E6",
"]$	c #0BACDB",
"^$	c #0099C6",
"/$	c #007EA3",
"                                                                ",
"                                                                ",
"                                                                ",
"                                                                ",
"                        . + @ # $ % &                           ",
"                  * = - ; > , , ' ) ! ~ { ]                     ",
"                ^ / ( _ : < [ } | 1 1 2 3 4 5 6                 ",
"            7 8 9 0 a b c d d e f g h h i j k l m n             ",
"          o p q r s t u v w x y z A B C D E F G H I J           ",
"        K L M N O P Q R S T U V W X Y Z `  ...+.@.#.$.%.        ",
"        &.*.=.-.;.>.,.'.).!.~.{.].^./.(._.:.<.[.}.|.1.2.        ",
"      3.4.5.6.7.8.9.0.a.b.c.d.e.f.g.h.i.j.k.l.m.n.o.p.q.r.      ",
"      s.t.u.v.w.x.y.z.A.B.C.D.E.F.G.H.I.J.K.L.M.N.O.P.Q.R.      ",
"    S.T.U.V.W.X.Y.Z.`. +.+++@+#+$+%+&+*+=+-+;+>+,+'+)+!+~+{+    ",
"    ]+X.W.^+U.T./+(+_+:+<+[+}+|+1+2+3+4+5+6+7+8+9+0+a+b+c+d+    ",
"    e+w.v.f+t.g+h+i+j+k+l+m+n+o+p+q+r+s+t+u+v+w+x+y+z+A+B+C+    ",
"    D+E+6.F+G+H+I+J+K+L+M+N+O+P+Q+R+S+T+U+V+W+X+Y+Z+`+ @.@+@    ",
"    @@#@=.$@%@&@*@=@-@;@>@a.,@'@)@!@~@{@]@^@/@(@_@:@<@[@}@|@    ",
"    1@2@3@4@5@6@7@8@9@0@a@b@c@d@e@f@g@h@i@j@k@l@m@n@o@p@q@r@    ",
"    s@t@u@v@w@x@y@z@A@B@C@D@E@F@G@H@I@J@K@L@M@N@O@P@Q@R@S@T@    ",
"      U@V@W@X@Y@Z@`@ #.#+#@###$#%#&#*#=#-#;#>#,#'#)#!#~#{#]#    ",
"        ^#/#(#_#:#<#[#}#|#1#2#3#4#5#6#7#8#9#0#a#b#c#d#e#f#      ",
"          g#h#i#j#k#l#m#n#o#p#q#r#s#t#u#v#w#x#:#y#z#A#B#        ",
"            C#D#E#F#G#H#I#J#K#L#M#N#O#P#Q#R#S#T#U#V#            ",
"                W#X#Y#Z#`# $.$+$+$@$#$$$%$&$*$=$-$              ",
"                      ;$>$,$'$)$!$~${$]$^$/$                    ",
"                                                                ",
"                                                                ",
"                                                                ",
"                                                                ",
"                                                                ",
"                                                                "};
