/* XPM */
static char *ktorrent[] = {
/* columns rows colors chars-per-pixel */
"32 32 257 2",
"   c #000000",
".  c #070808",
"X  c #0B0B0C",
"o  c #0E0F10",
"O  c #0D1111",
"+  c #130D11",
"@  c #121313",
"#  c #1B1C1B",
"$  c #151818",
"%  c #1E211F",
"&  c #2E0F0C",
"*  c #201316",
"=  c #351A1A",
"-  c #291F22",
";  c #242322",
":  c #2B2B29",
">  c #252B27",
",  c #26322C",
"<  c #323533",
"1  c #333C35",
"2  c #372A28",
"3  c #3B473F",
"4  c #3C4940",
"5  c #385B44",
"6  c #397F4F",
"7  c #4B110F",
"8  c #451310",
"9  c #530C07",
"0  c #59130F",
"q  c #5D1811",
"w  c #440906",
"e  c #42251E",
"r  c #473B35",
"t  c #5A2E2C",
"y  c #472A24",
"u  c #671E15",
"i  c #6F2820",
"p  c #7A2D23",
"a  c #7A352D",
"s  c #653A34",
"d  c #4A443D",
"f  c #51433D",
"g  c #454442",
"h  c #484744",
"j  c #45554A",
"k  c #4D5144",
"l  c #514948",
"z  c #525653",
"x  c #476F4D",
"c  c #4C7357",
"v  c #5B605C",
"b  c #5A7154",
"n  c #5D6660",
"m  c #7A4B45",
"M  c #7C5753",
"N  c #654C48",
"B  c #65605F",
"V  c #646E67",
"C  c #7F7978",
"Z  c #767672",
"A  c #019430",
"S  c #10963B",
"D  c #139D3F",
"F  c #159C41",
"G  c #1D9B45",
"H  c #19A146",
"J  c #239D4A",
"K  c #289F4E",
"L  c #34884F",
"P  c #378E55",
"I  c #25A24D",
"U  c #2CA151",
"Y  c #33A457",
"T  c #34A559",
"R  c #39A45C",
"E  c #3AA95E",
"W  c #35AB5B",
"Q  c #3EA961",
"!  c #448459",
"~  c #44955E",
"^  c #439457",
"/  c #4F8961",
"(  c #499B63",
")  c #518863",
"_  c #5B8B6B",
"`  c #5D8069",
"'  c #579568",
"]  c #5F9871",
"[  c #44AD66",
"{  c #47AD68",
"}  c #47B46B",
"|  c #4BB06B",
" . c #43B266",
".. c #4DB570",
"X. c #51AC6E",
"o. c #5CB679",
"O. c #58B777",
"+. c #678A72",
"@. c #669676",
"#. c #76837A",
"$. c #6DA17E",
"%. c #62BB7E",
"&. c #63B57C",
"*. c #5FC07E",
"=. c #709F80",
"-. c #6CAD81",
";. c #67BA81",
":. c #7BA489",
">. c #73A082",
",. c #71BC89",
"<. c #66C184",
"1. c #73C48D",
"2. c #79C491",
"3. c #7BCA94",
"4. c #8F1C0D",
"5. c #8F2517",
"6. c #982415",
"7. c #883429",
"8. c #863D34",
"9. c #AF2613",
"0. c #BC2511",
"q. c #B92915",
"w. c #B72713",
"e. c #A83628",
"r. c #BE3B29",
"t. c #8B4137",
"y. c #984339",
"u. c #B44536",
"i. c #A84538",
"p. c #894940",
"a. c #964D43",
"s. c #9D584E",
"d. c #8C605A",
"f. c #92615A",
"g. c #896E6B",
"h. c #996A63",
"j. c #917A77",
"k. c #BD4F40",
"l. c #A6554B",
"z. c #BB6054",
"x. c #AC6A61",
"c. c #AA736B",
"v. c #A87B75",
"b. c #B26E64",
"n. c #B47269",
"m. c #B57E76",
"M. c #C02A16",
"N. c #C5301C",
"B. c #C84939",
"V. c #C66355",
"C. c #C46659",
"Z. c #C86356",
"A. c #CA6659",
"S. c #CB695C",
"D. c #C16B5F",
"F. c #D0685A",
"G. c #CA6E62",
"H. c #C16E62",
"J. c #CB7165",
"K. c #CC766A",
"L. c #CD786D",
"P. c #C3746A",
"I. c #CE7B70",
"U. c #D36E60",
"Y. c #D37165",
"T. c #DC7163",
"R. c #D57D72",
"E. c #C4877E",
"W. c #D2847A",
"Q. c #D4887D",
"!. c #D68478",
"~. c #86928A",
"^. c #8B9A90",
"/. c #978886",
"(. c #938280",
"). c #8CA995",
"_. c #8EB59A",
"`. c #88B696",
"'. c #9AA79F",
"]. c #91BA9E",
"[. c #9DA5A0",
"{. c #9BBAA6",
"}. c #AE9B98",
"|. c #BD958F",
" X c #A68783",
".X c #A3AEA6",
"XX c #B1A8A6",
"oX c #87CB9C",
"OX c #8FCFA3",
"+X c #96CFA8",
"@X c #99C9A8",
"#X c #98D4AB",
"$X c #A2C0AC",
"%X c #ADC2B4",
"&X c #A3D5B3",
"*X c #ABD7B9",
"=X c #B2C7B9",
"-X c #B1D5BD",
";X c #B6DDC2",
":X c #BEDDC8",
">X c #B9D4C2",
",X c #BDE0C8",
"<X c #B7E3C5",
"1X c #C88D85",
"2X c #D38C83",
"3X c #DB8B81",
"4X c #D6958C",
"5X c #D8968D",
"6X c #DC9C94",
"7X c #D49B93",
"8X c #C89B95",
"9X c #DBA39B",
"0X c #CCADA8",
"qX c #CFA7A2",
"wX c #C9B0AC",
"eX c #CEB8B5",
"rX c #DFACA5",
"tX c #D4B1AC",
"yX c #DCBEBA",
"uX c #E39E95",
"iX c #E49388",
"pX c #E5A39A",
"aX c #E4ABA3",
"sX c #E4AFA8",
"dX c #E4B1AB",
"fX c #E9B3AC",
"gX c #EDBBB5",
"hX c #E9BEB9",
"jX c #F1BEB7",
"kX c #EAC1BB",
"lX c #CAD7CE",
"zX c #CEDDD3",
"xX c #DBCBC9",
"cX c #C4E2CE",
"vX c #CBE5D3",
"bX c #CDE8D5",
"nX c #C7E3D0",
"mX c #D6E4DA",
"MX c #D4EADB",
"NX c #DAECDF",
"BX c #DCEDE2",
"VX c #DCF4E4",
"CX c #EDC7C3",
"ZX c #EED0CC",
"AX c #F9D3CE",
"SX c #F5D8D5",
"DX c #E0EFE4",
"FX c #E1F0E6",
"GX c #E4F2E9",
"HX c #E8F4EC",
"JX c #E9F9EE",
"KX c #ECFAF1",
"LX c #FEE6E3",
"PX c #F7FFFC",
"IX c gray100",
"UX c #F1FDF5",
"YX c None",
/* pixels */
"        YXYXYXYXYXYXYXYXYXYXYXYXYXYXYXYXYXYXYXYXYXYXYXYXYXYXYXYX",
"  $ X         YXYXYXYXYXYXYXYXYXYXYXYXYX  YXYXYXYXYXYXYXYXYXYXYX",
"  < =X~.h $         YXYXYXYXYXYXYXYXYXYX    YXYXYXYXYXYXYXYXYXYX",
"    %XPXJXzX[.n > .       YXYXYXYXYXYX  . .   YXYXYXYXYXYXYXYXYX",
"YX  V KXJXKXKXKXMX%X#.d @         YX    g.l     YXYXYXYXYXYXYXYX",
"YX  > mXHXGXGXGXFXVXVXbX).+.j % .     r sXtX#   YXYXYXYXYXYXYXYX",
"YX    .XKXGXGXVXVXMXbX%X@X#XoX,.] # O |.pXjX}..   YXYXYXYXYXYXYX",
"YXYX. z KXGXDXBXNXMXbX%X@XOX3.%.o.$ M iX6XdXAXZ     YXYXYXYXYXYX",
"YXYX  # mXHXDXBXMXmXvX>X_.oX2.<.' - L.Q.6XdXCXSXg     YXYXYXYXYX",
"YXYX    '.KXBXNXMXbXnX:X$X_.@.<.c t Y.Q.6XsXCXSXxX#   YXYXYXYXYX",
"YXYXYX  z JXBXMXMXvXcX:X<X*X$.<.k a Y.!.6XsXjXZXLXXX    YXYXYXYX",
"YXYXYX  @ lXBXMXvXvX:X*X_.:.) &.y y.U.!.6XaXfXjXCXLXV     YXYXYX",
"YXYXYX    ^.VXMXcX;X&X$.! ~ R ' 8 u.F.Y.G.s.H.!.3X1X Xg     YXYX",
"YXYXYXYX  g MXnX-X&X@X_ &.O...b 9 B.B.k.p.c.f.b.n.h.qXyX#   YXYX",
"          X %X;X*X&X`.! o.| | d 0 e.e.a c.6X7Xv.|.0XwXeXj.      ",
"      @ $ $ ^.<X&X#X+X@.( } X.j 1 r y & m 4X9XsXjX/.  . .       ",
"YX    Z lX-X{.:.+._.+X=.6  .E E U [ f i a.m.9X9XdXwXO           ",
"YXYX  @ @X]._ -.;.) _ L [ Q U G H x 7 u.a.2X5X9XsXkXg   YXYXYXYX",
"YXYXYX  < #.1.1.;.o.~ } Q Y K F ^ = u 7.x.Q.4X7X9XgX(.    YXYXYX",
"YXYXYX    4 3.%.o.O.| [ T K G U r 8 z.D.L.W.2X7X9XaX0X@   YXYXYX",
"YXYXYXYX    ` *.X.[ Q Y K G H c w p V.S.J.L.W.2X5X6XfXh   YXYXYX",
"YXYXYXYXYX  @ @. .R Y K J D P = 4.6.7.t.C.K.L.W.2X4XaXj.    YXYX",
"YXYXYXYXYXYX  : X.K K G S K , q M.0.0.5.l.S.K.L.Q.2X5X8X@   YXYX",
"YXYXYXYX        4 W F S D 5 $ r.M.0.w.9.8.V.A.J.I.I.Q.6Xd   YXYX",
"YXYXYX          . x D A L X ; p.i.r.N.6.y.A.V.A.G.K.I.3Xg.. YXYX",
"YXYXYX            + L J ,       O 2 s m L.U.A.Z.V.C.G.L.E.$   YX",
"YXYXYX              > 5               X : N h.P.U.F.Z.S.R.r     ",
"YXYXYXYX                                      # l d.b.U.T.f.    ",
"YXYXYXYXYX                                          o r M v.#   ",
"YXYXYXYXYXYXYX                                    YX      @ X   ",
"YXYXYXYXYXYXYXYXYXYX                          YXYXYXYXYXYX      ",
"YXYXYXYXYXYXYXYXYXYXYXYXYXYXYXYXYXYXYXYXYXYXYXYXYXYXYXYXYXYXYXYX"
};
