/* XPM */
static char *magick[] = {
/* columns rows colors chars-per-pixel */
"18 38 33 1",
"  c #00547c",
". c #005983",
"X c #006291",
"o c #006595",
"O c #00699b",
"+ c #006b9e",
"@ c #006c9f",
"# c #006fa3",
"$ c #0070a6",
"% c #0072a8",
"& c #0073a9",
"* c #0074ac",
"= c #0076ae",
"- c #0077af",
"; c #0078b1",
": c #007ab4",
"> c #007bb5",
", c #007eba",
"< c #0082bf",
"1 c #0083c1",
"2 c #0085c4",
"3 c #0087c7",
"4 c #0087c8",
"5 c #0089ca",
"6 c #008bcd",
"7 c #008dd0",
"8 c #008ed1",
"9 c #0090d4",
"0 c #0091d6",
"q c #0092d7",
"w c #0093d9",
"e c #9dc8ff",
"r c Gray100",
/* pixels */
"wwwwwwwwwwwwwwwwww",
"wwwwwwwwwwwwwwwwww",
"wwwwwwwwwwwwwwwwww",
"wwwwwwwwwwwwwwwwww",
"wwwwwwwwwwwwwwwwww",
"wwqrr8qqwwqrr89qww",
"wwq6rr38qqrr<26qww",
"wwq3:rr18rr;&;3qww",
"wwq5:#rrrr=@#:5qww",
"wwq81=+rr+O+=18qww",
"wwwq8<rrrrX&<8qwww",
"wwwwqrrX rr=4qwwww",
"wwwqrr&X..rr<8qwww",
"wwqrr=+O++Orr18qww",
"wwq5:#@=,,=@#:5qww",
"wwq3:&;1881;&:3qww",
"wwq63<38qq83<26qww",
"wwq988qqwwq988qqww",
"eeeeeeeeeeeeeeeeee",
"wwwwwwwwwwwwwwwwww",
"wwwwwwwwwwwwwwwwww",
"wwwwwwwwwwwwwwwwww",
"wwwwwwwwwwwwwwwwww",
"wwwwwwwwwwwwwwwwww",
"www8<<8wwww8<<8www",
"www4rr=8ww8=rr4www",
"www8=rr=88=rr=8www",
"wwww8=rr$$rr=8wwww",
"wwwww8=rrrr=8wwwww",
"wwwwww4orro4wwwwww",
"wwwww8=rrrr=8wwwww",
"wwww8=rr$$rr=8wwww",
"www8=rr=88=rr=8www",
"www4rr=8ww8=rr4www",
"www8<<8wwww8<<8www",
"wwwwwwwwwwwwwwwwww",
"wwwwwwwwwwwwwwwwww",
"eeeeeeeeeeeeeeeeee"
};
