/* XPM */
static char *magick[] = {
/* columns rows colors chars-per-pixel */
"4 4 3 1",
"  c #0073ae",
". c #9dc8ff",
"X c #9dccff",
/* pixels */
".XX ",
".XX ",
".XX ",
".XX "
};
