/* XPM */
static char *magick[] = {
/* columns rows colors chars-per-pixel */
"20 22 28 1",
"  c #4c4c4c",
". c #4f5052",
"X c #52565d",
"o c #555b65",
"O c #5c667a",
"+ c #606c83",
"@ c #63728f",
"# c #697da2",
"$ c #09aaff",
"% c #6c81a8",
"& c #6e83ad",
"* c #738cbc",
"= c #7793c8",
"- c #8da7d8",
"; c #99b0dc",
": c #a7bbe1",
"> c #9dc8ff",
", c #9dcaff",
"< c #b6c6e6",
"1 c #ced9ee",
"2 c #cfdaee",
"3 c #d3ddf0",
"4 c #cee5ff",
"5 c #dde4f3",
"6 c #e0e7f4",
"7 c #edf1f9",
"8 c #f1f4fa",
"9 c Gray100",
/* pixels */
"44444444444444444444",
"4,,,,,,,,,,,,,,,,,,,",
"4,$$$$$$$$$$$$$$$$$$",
"4,$19333333333333333",
"4,$91999999999999999",
"4,$36666666666666666",
"4,$39999999999999999",
"4,$3666*-66663=*<666",
"4,$3999 +9997O &9999",
"4,$3666 +663O %66666",
"4,$3999 +97O &999999",
"4,$3666 @3O %6666666",
"4,$3999 OO  59999999",
"4,$3666   O O6666666",
"4,$3999  &9@ *999999",
"4,$3666 O661X ;66666",
"4,$3999 +999: .89999",
"4,$3666 +6666# +6666",
"4,$3999 +99998o =999",
"4,$36666666666666666",
"4,$39999999999999999",
"4,$>,,>>>>>>>>,>>,,,"
};
