/* XPM */
static char *magick[] = {
/* columns rows colors chars-per-pixel */
"20 22 8 1",
"  c #0073ae",
". c #09aaff",
"X c #53a2ff",
"o c #9dc8ff",
"O c #9dcaff",
"+ c #9dccff",
"@ c Gray87",
"# c #cee5ff",
/* pixels */
"#O.O@@@@@@@@@@@@@@@@",
"#O.O@@@@@@@@@@@@@@@@",
"#O.o@@@@@@@@@@@@@@@@",
"#O.o@@@@@@@@@@@@@@@@",
"#O.o@@@@@@@@@@@@@@@@",
"#O.o@@@@@@@@@@@@@@@@",
"#O.O@@@@@@@@@@@@@@@@",
"#O.O@@@@@@@@@@@@@@@@",
"#O.o@@@@@@@@@@@@@@@@",
"#O.O@@@@@@@@@@@@@@@@",
"#O.O@@@@@@@@@@@@@@@@",
"#O.O@@@@@@@@@@@@@@@@",
"#O.O@@@@@@@@@@@@@@@@",
"#O.o@@@@@@@@@@@@@@@@",
"#XXX@@@@@@@@@@@@@@@@",
"#XXX@@@@@@@@@@@@@@@@",
"#XXX@@@@@@@@@@@@@@@@",
"#XXX@@@@@@@@@@@@@@@@",
"#XXX@@@@@@@@@@@@@@@@",
"#XXXXXXXXXXX++++++++",
"#XXXXXXXXXXX++++++++",
"#                   "
};
