/* XPM */
static char *magick[] = {
/* columns rows colors chars-per-pixel */
"4 4 4 1",
"  c #09aaff",
". c #9dc8ff",
"X c #9dcaff",
"o c #cee5ff",
/* pixels */
"oX X",
"oX X",
"oX .",
"oX ."
};
