/* XPM */
static char *magick[] = {
/* columns rows colors chars-per-pixel */
"18 38 27 1",
"  c #005c88",
". c #005f8c",
"X c #00608d",
"o c #006392",
"O c #006797",
"+ c #006a9d",
"@ c #006b9d",
"# c #006ea2",
"$ c #0071a7",
"% c #0073a9",
"& c #0074ab",
"* c #0078b1",
"= c #007bb5",
"- c #007cb7",
"; c #007eba",
": c #007fbb",
"> c #0080bd",
", c #0082bf",
"< c #0089ca",
"1 c #008acb",
"2 c #008dd0",
"3 c #008ed1",
"4 c #0090d4",
"5 c #0092d7",
"6 c #0093d9",
"7 c #9dc8ff",
"8 c Gray100",
/* pixels */
"666666666666666666",
"666666666666666666",
"666666666666666666",
"666666666666666666",
"666666666666666666",
"666488888888882446",
"66648888888888:146",
"66628#o.XXXX.8#,26",
"66618O. XXXX 8O=16",
"66618++#&&&&#8+=16",
"66618$*,1111,8$:16",
"66618&:1666618&:16",
"66618&:1666618&:16",
"66618888888888$:16",
"6661:$%*::::*%$:16",
"6662,&$$&&&&$$&,26",
"66641,::::::::,146",
"666442111111112446",
"777777777777777777",
"666666666666666666",
"666666666666666666",
"666666666666666666",
"666666666666666666",
"666666666666666666",
"66662,--------,266",
"6666,8888888888,66",
"6666-8888888888-66",
"6666-8+------+8-66",
"6666-8-666666-8-66",
"6666-8-666666-8-66",
"6666-8-666666-8-66",
"6666-8-666666-8-66",
"6666-8+------+8-66",
"6666,8888888888,66",
"66662,--------,266",
"666666666666666666",
"666666666666666666",
"777777777777777777"
};
