/* XPM */
static char *magick[] = {
/* columns rows colors chars-per-pixel */
"22 38 4 1",
"  c #9dc8ff",
". c #d3ddf0",
"X c #e0e7f4",
"o c Gray100",
/* pixels */
"......................",
"oooooooooooooooooooooo",
"XXXXXXXXXXXXXXXXXXXXXX",
"oooooooooooooooooooooo",
"XXXXXXXXXXXXXXXXXXXXXX",
"oooooooooooooooooooooo",
"XXXXXXXXXXXXXXXXXXXXXX",
"oooooooooooooooooooooo",
"XXXXXXXXXXXXXXXXXXXXXX",
"oooooooooooooooooooooo",
"XXXXXXXXXXXXXXXXXXXXXX",
"oooooooooooooooooooooo",
"XXXXXXXXXXXXXXXXXXXXXX",
"oooooooooooooooooooooo",
"XXXXXXXXXXXXXXXXXXXXXX",
"oooooooooooooooooooooo",
"XXXXXXXXXXXXXXXXXXXXXX",
"oooooooooooooooooooooo",
"                      ",
"......................",
"oooooooooooooooooooooo",
"XXXXXXXXXXXXXXXXXXXXXX",
"oooooooooooooooooooooo",
"XXXXXXXXXXXXXXXXXXXXXX",
"oooooooooooooooooooooo",
"XXXXXXXXXXXXXXXXXXXXXX",
"oooooooooooooooooooooo",
"XXXXXXXXXXXXXXXXXXXXXX",
"oooooooooooooooooooooo",
"XXXXXXXXXXXXXXXXXXXXXX",
"oooooooooooooooooooooo",
"XXXXXXXXXXXXXXXXXXXXXX",
"oooooooooooooooooooooo",
"XXXXXXXXXXXXXXXXXXXXXX",
"oooooooooooooooooooooo",
"XXXXXXXXXXXXXXXXXXXXXX",
"oooooooooooooooooooooo",
"                      "
};
