/* XPM */
static char *magick[] = {
/* columns rows colors chars-per-pixel */
"22 38 29 1",
"  c #92969f",
". c #9b9fa8",
"X c Gray65",
"o c #acb2bc",
"O c Gray69",
"+ c #b1b6c0",
"@ c #b7bcc7",
"# c #9dc8ff",
"$ c #bdc3ce",
"% c Gray77",
"& c #c1c7d3",
"* c #c6ccd7",
"= c #d7d7d7",
"- c gainsboro",
"; c #d0d7e3",
": c #d6dde9",
"> c #d8dfeb",
", c #d3ddf0",
"< c #dbe2ee",
"1 c #dee5f2",
"2 c #e1e1e1",
"3 c Gray93",
"4 c #efefef",
"5 c #e0e7f4",
"6 c #f4f4f4",
"7 c #f6f6f6",
"8 c #f9f9f9",
"9 c #fdfdfd",
"0 c Gray100",
/* pixels */
",,,,,,,,,,,,,,,,,,,,,,",
"0000000000000000000000",
"5555555555555555555555",
"0000000000000000000000",
"5555555555555555555555",
"0000000000000000000000",
"5555555555555555555555",
"0000000000000000000000",
"555555510000000000:<15",
"000000080000000000-380",
"5555555>*o.      .o*>5",
"000000072%OXXXXXXO%270",
"5555555<;&@++++++@&;<5",
"0000000087333333337800",
"5555555555555555555555",
"0000000000000000000000",
"5555555555555555555555",
"0000000000000000000000",
"######################",
",,,,,,,,,,,,,,,,,,,,,,",
"0000000000000000000000",
"5555555555555555555555",
"0000000000000000000000",
"5555555555555555555555",
"0000000000000000000000",
"5555555555555555555555",
"0000000000000000000000",
"55555555>*$$$$$$$$*>55",
"0000000020000000000200",
"55555555*0000000000*55",
"0000000072========2700",
"5555555555555555555555",
"0000000000000000000000",
"5555555555555555555555",
"0000000000000000000000",
"5555555555555555555555",
"0000000000000000000000",
"######################"
};
