/* XPM */
static char *magick[] = {
/* columns rows colors chars-per-pixel */
"22 38 17 1",
"  c #00608d",
". c #006596",
"X c #0071a7",
"o c #0074ab",
"O c #0078b1",
"+ c #007cb7",
"@ c #007fbb",
"# c #0082bf",
"$ c #0089ca",
"% c #008acb",
"& c #008dd0",
"* c #008ed1",
"= c #0090d4",
"- c #0092d7",
"; c #0093d9",
": c #9dc8ff",
"> c Gray100",
/* pixels */
";;;;;;;;;;;;;;;;;;;;;;",
";;;;;;;;;;;;;;;;;;;;;;",
";;;;;;;;;;;;;;;;;;;;;;",
";;;;;;;;;;;;;;;;;;;;;;",
";;;;;;;;;;;;;;;;;;;;;;",
";;;;;;;;;;;;;;;;;;;;;;",
";;;;;;;;;;;;;;;;;;;;;;",
";;;;;;;;;;;;;;;;;;;;;;",
";;;;;;;->>>>>>>>>>%=-;",
";;;;;;;->>>>>>>>>>@$-;",
";;;;;;;*#X.      .X#*;",
";;;;;;;*#X.      .X#*;",
";;;;;;;-$@OooooooO@$-;",
";;;;;;;--*$$$$$$$$*--;",
";;;;;;;;;;;;;;;;;;;;;;",
";;;;;;;;;;;;;;;;;;;;;;",
";;;;;;;;;;;;;;;;;;;;;;",
";;;;;;;;;;;;;;;;;;;;;;",
"::::::::::::::::::::::",
";;;;;;;;;;;;;;;;;;;;;;",
";;;;;;;;;;;;;;;;;;;;;;",
";;;;;;;;;;;;;;;;;;;;;;",
";;;;;;;;;;;;;;;;;;;;;;",
";;;;;;;;;;;;;;;;;;;;;;",
";;;;;;;;;;;;;;;;;;;;;;",
";;;;;;;;;;;;;;;;;;;;;;",
";;;;;;;;;;;;;;;;;;;;;;",
";;;;;;;;*#++++++++#*;;",
";;;;;;;;#>>>>>>>>>>#;;",
";;;;;;;;#>>>>>>>>>>#;;",
";;;;;;;;*#++++++++#*;;",
";;;;;;;;;;;;;;;;;;;;;;",
";;;;;;;;;;;;;;;;;;;;;;",
";;;;;;;;;;;;;;;;;;;;;;",
";;;;;;;;;;;;;;;;;;;;;;",
";;;;;;;;;;;;;;;;;;;;;;",
";;;;;;;;;;;;;;;;;;;;;;",
"::::::::::::::::::::::"
};
