/* XPM */
static char *magick[] = {
/* columns rows colors chars-per-pixel */
"101 19 249 2",
"   c #0d6aa3",
".  c #0d6ba5",
"X  c #0c6da7",
"o  c #0c6da8",
"O  c #0c6ea9",
"+  c #0c6faa",
"@  c #0b71ad",
"#  c #0b72af",
"$  c #077cbb",
"%  c #067fbf",
"&  c #0976b3",
"*  c #0a74b1",
"=  c #0977b4",
"-  c #0f73b0",
";  c #0f74b1",
":  c #0f75b2",
">  c #0f76b3",
",  c #0f77b5",
"<  c #0f78b6",
"1  c #0879b8",
"2  c #087ab9",
"3  c #087bba",
"4  c #087cba",
"5  c #0f79b8",
"6  c #0f7ab9",
"7  c #0f7bba",
"8  c #0f7cbb",
"9  c #0e7dbd",
"0  c #0e7ebf",
"q  c #1071ad",
"w  c #1071ae",
"e  c #1072ae",
"r  c #1074b4",
"t  c #1178b7",
"y  c #0f7fc0",
"u  c #147ec2",
"i  c #0582c3",
"p  c #0681c1",
"a  c #0681c2",
"s  c #0682c2",
"d  c #0583c4",
"f  c #0585c7",
"g  c #0486c8",
"h  c #0388cb",
"j  c #0389cc",
"k  c #038acd",
"l  c #038ace",
"z  c #0488cb",
"x  c #0e80c1",
"c  c #0e81c2",
"v  c #0e82c3",
"b  c #0e83c5",
"n  c #0e84c6",
"m  c #0d85c8",
"M  c #0d86c9",
"N  c #0d87ca",
"B  c #0e85c8",
"V  c #0f86cb",
"C  c #0d89cd",
"Z  c #0d8bcf",
"A  c #018fd3",
"S  c #028cd0",
"D  c #028dd2",
"F  c #028ed3",
"G  c #018fd4",
"H  c #058fd5",
"J  c #0d8bd0",
"K  c #0d8cd1",
"L  c #0d8dd3",
"P  c #0d8ed3",
"I  c #0c8fd5",
"U  c #0190d5",
"Y  c #0191d6",
"T  c #0092d7",
"R  c #0093d9",
"E  c #0c90d7",
"W  c #0c91d8",
"Q  c #0c92d9",
"!  c #0c93da",
"~  c #0c94db",
"^  c #0c95dd",
"/  c #0d97dd",
"(  c #0c96de",
")  c #1287cf",
"_  c #1587d2",
"`  c #1687d1",
"'  c #178ad7",
"]  c #108eda",
"[  c #168cd8",
"{  c #188ddb",
"}  c #1390db",
"|  c #1090da",
" . c #1c9bdf",
".. c #0c97e0",
"X. c #0b99e1",
"o. c #0b9ae3",
"O. c #0b9be5",
"+. c #0b9ce5",
"@. c #0b9de7",
"#. c #0c98e0",
"$. c #0b9ee9",
"%. c #0b9fea",
"&. c #1396e4",
"*. c #1497e7",
"=. c #1697e8",
"-. c #1399e8",
";. c #119ded",
":. c #109fef",
">. c #1893e1",
",. c #1894e6",
"<. c #1e93e3",
"1. c #1f98e8",
"2. c #0ba0eb",
"3. c #0ba1ec",
"4. c #0aa2ee",
"5. c #0aa3f0",
"6. c #0aa4f1",
"7. c #0aa5f2",
"8. c #0aa6f3",
"9. c #0aa7f4",
"0. c #0ea3f1",
"q. c #0ea5f5",
"w. c #0aa8f5",
"e. c #0aa9f7",
"r. c #09aaf9",
"t. c #09abfa",
"y. c #0aaaf8",
"u. c #09acfb",
"i. c #09adfc",
"p. c #09aefd",
"a. c #09afff",
"s. c #0cabfb",
"d. c #0caffe",
"f. c #0faffe",
"g. c #11aaf9",
"h. c #13acfb",
"j. c #13aefb",
"k. c #11affd",
"l. c #19acf9",
"z. c #19affb",
"x. c #1aadf9",
"c. c #1caffb",
"v. c #1ab0fb",
"b. c #1db0fb",
"n. c #1fb0fb",
"m. c #2697e3",
"M. c #2298e8",
"N. c #2a98e4",
"B. c #289fe1",
"V. c #2c9ae4",
"C. c #2b9be8",
"Z. c #289ae8",
"A. c #289dea",
"S. c #2d9ee9",
"D. c #2d9eea",
"F. c #2e9ee9",
"G. c #2e9fea",
"H. c #2c9ce8",
"J. c #3199e5",
"K. c #339be6",
"L. c #339ce5",
"P. c #369fe5",
"I. c #369ce6",
"U. c #389de6",
"Y. c #3a9ee7",
"T. c #3c9fe7",
"R. c #2ba3ef",
"E. c #29a4ef",
"W. c #2da0eb",
"Q. c #2fa5ee",
"!. c #21a4f1",
"~. c #27acf6",
"^. c #29adf6",
"/. c #2faff6",
"(. c #25b0f9",
"). c #26b0f9",
"_. c #2db1f7",
"`. c #29b0f8",
"'. c #2db1f8",
"]. c #33a3ec",
"[. c #33a4ec",
"{. c #35a0e9",
"}. c #36a3eb",
"|. c #35a6ee",
" X c #37a7ee",
".X c #37a9ef",
"XX c #3fa1e7",
"oX c #3ba2e9",
"OX c #3ea4ea",
"+X c #3aa8ef",
"@X c #33abf1",
"#X c #38a9f0",
"$X c #3babf0",
"%X c #3aacf1",
"&X c #3daff3",
"*X c #32b1f6",
"=X c #35b1f6",
"-X c #3db0f3",
";X c #3eb0f3",
":X c #3cb1f4",
">X c #3fb1f4",
",X c #39b1f5",
"<X c #41a1e7",
"1X c #43a3e8",
"2X c #45a4e8",
"3X c #47a6ea",
"4X c #46a4e8",
"5X c #47a9eb",
"6X c #48a5e8",
"7X c #4aa6e9",
"8X c #49aaeb",
"9X c #4ea8e9",
"0X c #4fabeb",
"qX c #40aff2",
"wX c #4fb1ef",
"eX c #42b1f3",
"rX c #43b2f3",
"tX c #40b1f4",
"yX c #45b2f3",
"uX c #49b0f0",
"iX c #4ab2f2",
"pX c #4cb2f1",
"aX c #4fb2f0",
"sX c #51a9e9",
"dX c #50abeb",
"fX c #53abea",
"gX c #52ace8",
"hX c #55abea",
"jX c #56acea",
"kX c #58adea",
"lX c #5aaeea",
"zX c #5dafeb",
"xX c #55b0ed",
"cX c #54b2ef",
"vX c #57b0ed",
"bX c #59b2ef",
"nX c #5ab3ee",
"mX c #59b0ec",
"MX c #5db0eb",
"NX c #5eb0eb",
"BX c #5cb3ee",
"VX c #5fb1ec",
"CX c #5fb3ed",
"ZX c #53b2f0",
"AX c #50b2f0",
"SX c #61b1eb",
"DX c #62b3ec",
"FX c #65b3ec",
"GX c #9dc8ff",
/* pixels */
"a.a.a.a.a.a.a.a.a.a.a.a.a.a.a.a.a.a.a.a.a.a.a.a.c.rXcX*Xc.a.a.a.a.a.a.a.a.a.a.a.a.a.a.a.a.a.a.a.>XFXFXXXI.I.I.I.I.I.I.I.I.1X7XFXFXZ.t ; , 5 5 0 y F.FXFXkXK.I.I.I.I.I.I.1XFXFX>.% g H  .^ R R R R R R R R ",
"a.a.a.a.a.a.a.a.a.a.a.a.a.a.a.a.a.a.a.a.a.a.a.a.rXFXFXFXFXFXrXz.t.t.a.a.a.a.a.a.a.a.a.a.a.a.a.a.a.;XFXFXXXI.I.I.I.I.I.I.1X7XFXoX` - , 5 0 c n M C C } ].FXkXK.I.I.I.I.I.I.XXFXDXFXFXFXFXFXB.T T R R R R R ",
"a.a.a.a.a.a.a.a.a.a.a.a.a.>XFXBX=Xa.a.a.a.a.a.a.FXFX<XY.fXFXFXqX9.w.t.a.a.a.a.a.a.a.a.a.a.a.a.a.a.t.^.FXFXI.I.I.I.I.I.I.2XFXZ.w ; < 0 c M P E Q ^ ^ ^ Q |.FXfXY.I.I.I.I.I.I.XXFXFXFXNX7XFXgXA G G T T R R ",
"a.a.a.a.a.a.a.a.a.a.a.,XBXFXFXFXBXu.t.u.a.a.a.f.FXSXI.I.I.I.FX@X2.3.6.t.t.a.a.a.a.a.a.a.a.a.a.a.a.a.z.FXfXI.I.I.I.I.I.XXFX2Xw ; < 0 n J Q ..O.%.%.2.%.%.@.$XFXXXI.I.I.I.I.I.I.I.I.I.I.I.FXFXk k A A T R R ",
"a.a.a.a.a.a.a.a.a.a.>XFXFXjXK.hXFX&X9.9.w.t.a.(.FX7XI.I.I.1XFX!.#.O.3.9.t.a.a.a.a.a.a.a.a.a.a.a.a.a./.FXXXI.I.I.I.I.I.FXFX{ r < 0 M P ^ @.3.6.6.9.9.9.6.6.q.FXFXT.I.I.I.I.I.I.I.I.I.I.I.FXFXd f h k A T R ",
"a.a.a.a.a.a.a.a.a.f.FXNXK.I.I.K.FXFX0.3.6.w.h.>XFXK.I.I.I.0XFX-.P Q O.3.9.u.a.f.a.a.a.a.a.a.a.a.a.a.uXFX2XI.I.I.I.I.K.FXZ.w , 8 n P ^ %.5.w.t.t.a.a.a.t.t.w.%XFXXXI.I.I.I.I.I.I.I.I.I.I.7XFX] % d h S T R ",
"a.a.a.a.a.a.a.a.a.a.DXFXXXI.I.I.XXFX.XxXFXFXFXFXFXI.I.I.I.DXFXM M P ^ 2.9.t.;XFXtXz.a.a.a.a.a.a.a.a.FXFXI.I.I.I.I.I.hXFXu ; 5 c C ^ %.5.w.a.a.a.a.a.a.a.a.a.s.FXFXI.I.I.I.I.I.I.I.I.I.I.Y.FXI.3 % f k A T ",
"a.a.a.a.a.a.a.a.a.a.>XFXXXI.I.I.Y.XXFXFXFXFXkX0XY.I.I.I.I.2XFXDXW.C Q @.9.&XFXSXFX;Xh.u.t.u.a.a.a.a.FXFXI.I.I.I.I.I.FXFXw , 0 M Q O.5.w.a.a.a.a.a.a.a.a.a.a.u.FXFXI.I.I.I.I.I.I.I.I.T.Y.kXFXzX* 3 d k A T ",
"a.a.a.a.a.a.a.a.a.a.a.FXFXXXI.I.I.I.K.XXI.I.I.I.I.I.I.I.I.1X2XFXFXBXQ.:.%XFXfXI.XXFX&Xg.9.w.t.a.a._.FXhXI.I.I.I.I.I.FXFX- < c J ^ 2.9.u.a.a.a.a.a.a.a.a.a.a.a.nXFXXXI.I.I.I.I.I.XXFXFXFXFXNXm.* 3 a h A T ",
"a.a.a.a.a.a.a.a.a.a.a.>XFX<XI.I.I.I.I.I.I.I.I.I.I.I.I.I.I.I.I.1X7XFXFXFXFXXXXXI.Y.XXFX%X3.5.~.wXFXFXFXK.I.I.I.I.I.I.FXFX; 5 n I O.5.t.a.a.a.a.a.a.a.a.a.a.a.a.xXFXXXI.I.I.I.I.Y.FXFXkX<.r O @ * 3 a h A T ",
"a.a.a.a.a.a.a.a.a.a.n.yXFXI.I.I.I.I.I.I.I.I.I.I.I.I.I.I.I.I.I.I.I.K.hXFXXXI.I.I.I.<XNXFX:.$XFXFXFXjXK.I.I.I.I.I.I.I.FXFX; 0 M Q @.6.t.a.a.a.a.a.a.a.a.a.a.a.a.nXFXT.I.I.I.I.I.fXFX'   . O @ * 3 % f k A T ",
"a.a.a.`.f.a.a.a.a.v.yXFXXXY.I.I.I.I.I.I.I.I.I.I.I.I.I.I.I.I.I.I.I.I.I.I.I.I.I.I.I.1XFX|.|.FX7X1XI.I.I.I.I.I.I.I.I.I.FXFX; 0 M ~ %.9.u.a.a.a.a.a.a.a.a.a.a.a.a.FXFXI.I.I.I.I.I.FXFX  . O @ * 3 % f h S G T ",
"a.a.>XFXFXZX_.a.z.>XFXXXI.I.I.I.I.I.I.I.I.Y.T.I.Y.K.XXI.I.I.I.I.I.I.I.I.I.I.I.I.XXFX].n *.FX7XI.I.I.I.I.I.I.I.I.I.I.fXFX[ 0 M ^ %.9.a.a.a.a.a.a.a.a.a.a.a.a.n.FXSXI.I.I.I.I.I.FXFX. O @ = $ a f k S G T R ",
"a.'.FXDXNXFXFXnXuXFXXXI.I.I.I.I.I.I.1X7XFXFXFXFXFXFXFXFXfXK.I.I.I.I.I.I.I.I.I.XXFXfX) 0 M FXSXI.I.I.I.I.I.I.I.I.I.I.Y.FXOX0 M ~ %.9.t.a.a.a.a.a.a.a.a.a.a.a.rXFXXXI.I.I.I.I.XXFX0X. O * 3 a g k A G T R R ",
"a.ZXFXXXI.K.jXFXFXXXI.I.I.I.I.I.XXXXFXFXFXNX{.M.1.F.0XFXFXFXhXK.I.I.I.I.I.I.I.FXFX,.< 8 b FXFXI.I.I.I.I.I.I.I.I.I.I.I.SXFXA.M Q @.6.t.a.a.a.a.a.a.a.a.a.a.(.FXFXI.I.I.I.I.I.Y.FXL.X @ = % f k A G T R R R ",
">XFXFXI.I.I.I.T.2XI.I.I.I.I.I.XXFXFXSXZ.- ; , 5 0 0 c c =.5XFXFXXXI.I.I.I.I.I.hXFXF., 0 n xXFXT.I.I.Y.<XI.I.I.I.I.I.I.XXFXNX} I O.3.w.a.a.a.a.a.a.a.a.a.f.aXFXXXI.I.I.I.I.I.2XFX` O @ 3 a z A T R R R R R ",
"FXFXXXI.I.I.I.I.I.I.I.I.I.I.XXFXFXF.; ; , 5 0 b M C J P P C [.FXFXXXI.I.I.I.I.K.FXFX, 0 M +XFXzXFXFXFXFXXXXXI.I.I.I.I.I.XXFX{.&.^ %.9.t.a.a.a.a.a.a.a.k.>XFXXXI.I.I.I.I.I.I.SXFXN.O * 3 d k A T R R R R R ",
">XFXFXXXI.I.I.I.I.I.I.I.I.XXFXFXF.; ; 5 0 n C P Q ^ ..X.X.#.^ E.nXFXXXI.I.I.I.I.0XFXF.y C :.FXFXFXFXNX8XFXXXI.I.I.I.I.I.I.XXFXnXR.X.3.w.u.a.a.a.a.a.`.aXFXXXT.I.I.I.I.I.I.I.XXSXFXV.* 4 d k A T R R R R R ",
"GXGXGXGXGXGXGXGXGXGXGXGXGXGXGXGXGXGXGXGXGXGXGXGXGXGXGXGXGXGXGXGXGXGXGXGXGXGXGXGXGXGXGXGXGXGXGXGXGXGXGXGXGXGXGXGXGXGXGXGXGXGXGXGXGXGXGXGXGXGXGXGXGXGXGXGXGXGXGXGXGXGXGXGXGXGXGXGXGXGXGXGXGXGXGXGXGXGXGXGXGX"
};
