/* XPM */
static char *magick[] = {
/* columns rows colors chars-per-pixel */
"2 19 4 1",
"  c #9dc8ff",
". c #d3ddf0",
"X c #e0e7f4",
"o c Gray100",
/* pixels */
"..",
"oo",
"XX",
"oo",
"XX",
"oo",
"XX",
"oo",
"XX",
"oo",
"XX",
"oo",
"XX",
"oo",
"XX",
"oo",
"XX",
"oo",
"  "
};
